%TF.GenerationSoftware,KiCad,Pcbnew,(5.1.6)-1*%
%TF.CreationDate,2021-01-29T18:20:15+05:30*%
%TF.ProjectId,Bluetooth_Module,426c7565-746f-46f7-9468-5f4d6f64756c,rev?*%
%TF.SameCoordinates,Original*%
%TF.FileFunction,Paste,Top*%
%TF.FilePolarity,Positive*%
%FSLAX46Y46*%
G04 Gerber Fmt 4.6, Leading zero omitted, Abs format (unit mm)*
G04 Created by KiCad (PCBNEW (5.1.6)-1) date 2021-01-29 18:20:15*
%MOMM*%
%LPD*%
G01*
G04 APERTURE LIST*
%ADD10R,0.800000X1.600000*%
%ADD11C,0.100000*%
%ADD12R,0.800000X0.700000*%
%ADD13R,2.100000X0.950000*%
%ADD14R,0.950000X0.900000*%
G04 APERTURE END LIST*
%TO.C,C25*%
G36*
G01*
X108045000Y-83602500D02*
X108045000Y-83897500D01*
G75*
G02*
X107922500Y-84020000I-122500J0D01*
G01*
X107677500Y-84020000D01*
G75*
G02*
X107555000Y-83897500I0J122500D01*
G01*
X107555000Y-83602500D01*
G75*
G02*
X107677500Y-83480000I122500J0D01*
G01*
X107922500Y-83480000D01*
G75*
G02*
X108045000Y-83602500I0J-122500D01*
G01*
G37*
G36*
G01*
X107075000Y-83602500D02*
X107075000Y-83897500D01*
G75*
G02*
X106952500Y-84020000I-122500J0D01*
G01*
X106707500Y-84020000D01*
G75*
G02*
X106585000Y-83897500I0J122500D01*
G01*
X106585000Y-83602500D01*
G75*
G02*
X106707500Y-83480000I122500J0D01*
G01*
X106952500Y-83480000D01*
G75*
G02*
X107075000Y-83602500I0J-122500D01*
G01*
G37*
%TD*%
D10*
%TO.C,AE1*%
X111700000Y-78000000D03*
X115200000Y-78000000D03*
%TD*%
%TO.C,C1*%
G36*
G01*
X109152500Y-96590000D02*
X109447500Y-96590000D01*
G75*
G02*
X109570000Y-96712500I0J-122500D01*
G01*
X109570000Y-96957500D01*
G75*
G02*
X109447500Y-97080000I-122500J0D01*
G01*
X109152500Y-97080000D01*
G75*
G02*
X109030000Y-96957500I0J122500D01*
G01*
X109030000Y-96712500D01*
G75*
G02*
X109152500Y-96590000I122500J0D01*
G01*
G37*
G36*
G01*
X109152500Y-95620000D02*
X109447500Y-95620000D01*
G75*
G02*
X109570000Y-95742500I0J-122500D01*
G01*
X109570000Y-95987500D01*
G75*
G02*
X109447500Y-96110000I-122500J0D01*
G01*
X109152500Y-96110000D01*
G75*
G02*
X109030000Y-95987500I0J122500D01*
G01*
X109030000Y-95742500D01*
G75*
G02*
X109152500Y-95620000I122500J0D01*
G01*
G37*
%TD*%
%TO.C,C2*%
G36*
G01*
X108252500Y-95320000D02*
X108547500Y-95320000D01*
G75*
G02*
X108670000Y-95442500I0J-122500D01*
G01*
X108670000Y-95687500D01*
G75*
G02*
X108547500Y-95810000I-122500J0D01*
G01*
X108252500Y-95810000D01*
G75*
G02*
X108130000Y-95687500I0J122500D01*
G01*
X108130000Y-95442500D01*
G75*
G02*
X108252500Y-95320000I122500J0D01*
G01*
G37*
G36*
G01*
X108252500Y-96290000D02*
X108547500Y-96290000D01*
G75*
G02*
X108670000Y-96412500I0J-122500D01*
G01*
X108670000Y-96657500D01*
G75*
G02*
X108547500Y-96780000I-122500J0D01*
G01*
X108252500Y-96780000D01*
G75*
G02*
X108130000Y-96657500I0J122500D01*
G01*
X108130000Y-96412500D01*
G75*
G02*
X108252500Y-96290000I122500J0D01*
G01*
G37*
%TD*%
%TO.C,C5*%
G36*
G01*
X104652500Y-96840000D02*
X104947500Y-96840000D01*
G75*
G02*
X105070000Y-96962500I0J-122500D01*
G01*
X105070000Y-97207500D01*
G75*
G02*
X104947500Y-97330000I-122500J0D01*
G01*
X104652500Y-97330000D01*
G75*
G02*
X104530000Y-97207500I0J122500D01*
G01*
X104530000Y-96962500D01*
G75*
G02*
X104652500Y-96840000I122500J0D01*
G01*
G37*
G36*
G01*
X104652500Y-95870000D02*
X104947500Y-95870000D01*
G75*
G02*
X105070000Y-95992500I0J-122500D01*
G01*
X105070000Y-96237500D01*
G75*
G02*
X104947500Y-96360000I-122500J0D01*
G01*
X104652500Y-96360000D01*
G75*
G02*
X104530000Y-96237500I0J122500D01*
G01*
X104530000Y-95992500D01*
G75*
G02*
X104652500Y-95870000I122500J0D01*
G01*
G37*
%TD*%
%TO.C,C6*%
G36*
G01*
X105552500Y-95370000D02*
X105847500Y-95370000D01*
G75*
G02*
X105970000Y-95492500I0J-122500D01*
G01*
X105970000Y-95737500D01*
G75*
G02*
X105847500Y-95860000I-122500J0D01*
G01*
X105552500Y-95860000D01*
G75*
G02*
X105430000Y-95737500I0J122500D01*
G01*
X105430000Y-95492500D01*
G75*
G02*
X105552500Y-95370000I122500J0D01*
G01*
G37*
G36*
G01*
X105552500Y-96340000D02*
X105847500Y-96340000D01*
G75*
G02*
X105970000Y-96462500I0J-122500D01*
G01*
X105970000Y-96707500D01*
G75*
G02*
X105847500Y-96830000I-122500J0D01*
G01*
X105552500Y-96830000D01*
G75*
G02*
X105430000Y-96707500I0J122500D01*
G01*
X105430000Y-96462500D01*
G75*
G02*
X105552500Y-96340000I122500J0D01*
G01*
G37*
%TD*%
%TO.C,C7*%
G36*
G01*
X106452500Y-94870000D02*
X106747500Y-94870000D01*
G75*
G02*
X106870000Y-94992500I0J-122500D01*
G01*
X106870000Y-95237500D01*
G75*
G02*
X106747500Y-95360000I-122500J0D01*
G01*
X106452500Y-95360000D01*
G75*
G02*
X106330000Y-95237500I0J122500D01*
G01*
X106330000Y-94992500D01*
G75*
G02*
X106452500Y-94870000I122500J0D01*
G01*
G37*
G36*
G01*
X106452500Y-95840000D02*
X106747500Y-95840000D01*
G75*
G02*
X106870000Y-95962500I0J-122500D01*
G01*
X106870000Y-96207500D01*
G75*
G02*
X106747500Y-96330000I-122500J0D01*
G01*
X106452500Y-96330000D01*
G75*
G02*
X106330000Y-96207500I0J122500D01*
G01*
X106330000Y-95962500D01*
G75*
G02*
X106452500Y-95840000I122500J0D01*
G01*
G37*
%TD*%
%TO.C,C10*%
G36*
G01*
X107352500Y-94870000D02*
X107647500Y-94870000D01*
G75*
G02*
X107770000Y-94992500I0J-122500D01*
G01*
X107770000Y-95237500D01*
G75*
G02*
X107647500Y-95360000I-122500J0D01*
G01*
X107352500Y-95360000D01*
G75*
G02*
X107230000Y-95237500I0J122500D01*
G01*
X107230000Y-94992500D01*
G75*
G02*
X107352500Y-94870000I122500J0D01*
G01*
G37*
G36*
G01*
X107352500Y-95840000D02*
X107647500Y-95840000D01*
G75*
G02*
X107770000Y-95962500I0J-122500D01*
G01*
X107770000Y-96207500D01*
G75*
G02*
X107647500Y-96330000I-122500J0D01*
G01*
X107352500Y-96330000D01*
G75*
G02*
X107230000Y-96207500I0J122500D01*
G01*
X107230000Y-95962500D01*
G75*
G02*
X107352500Y-95840000I122500J0D01*
G01*
G37*
%TD*%
%TO.C,C11*%
G36*
G01*
X105030000Y-94852500D02*
X105030000Y-95147500D01*
G75*
G02*
X104907500Y-95270000I-122500J0D01*
G01*
X104662500Y-95270000D01*
G75*
G02*
X104540000Y-95147500I0J122500D01*
G01*
X104540000Y-94852500D01*
G75*
G02*
X104662500Y-94730000I122500J0D01*
G01*
X104907500Y-94730000D01*
G75*
G02*
X105030000Y-94852500I0J-122500D01*
G01*
G37*
G36*
G01*
X104060000Y-94852500D02*
X104060000Y-95147500D01*
G75*
G02*
X103937500Y-95270000I-122500J0D01*
G01*
X103692500Y-95270000D01*
G75*
G02*
X103570000Y-95147500I0J122500D01*
G01*
X103570000Y-94852500D01*
G75*
G02*
X103692500Y-94730000I122500J0D01*
G01*
X103937500Y-94730000D01*
G75*
G02*
X104060000Y-94852500I0J-122500D01*
G01*
G37*
%TD*%
%TO.C,C12*%
G36*
G01*
X104360000Y-93902500D02*
X104360000Y-94197500D01*
G75*
G02*
X104237500Y-94320000I-122500J0D01*
G01*
X103992500Y-94320000D01*
G75*
G02*
X103870000Y-94197500I0J122500D01*
G01*
X103870000Y-93902500D01*
G75*
G02*
X103992500Y-93780000I122500J0D01*
G01*
X104237500Y-93780000D01*
G75*
G02*
X104360000Y-93902500I0J-122500D01*
G01*
G37*
G36*
G01*
X105330000Y-93902500D02*
X105330000Y-94197500D01*
G75*
G02*
X105207500Y-94320000I-122500J0D01*
G01*
X104962500Y-94320000D01*
G75*
G02*
X104840000Y-94197500I0J122500D01*
G01*
X104840000Y-93902500D01*
G75*
G02*
X104962500Y-93780000I122500J0D01*
G01*
X105207500Y-93780000D01*
G75*
G02*
X105330000Y-93902500I0J-122500D01*
G01*
G37*
%TD*%
%TO.C,C20*%
G36*
G01*
X110997500Y-84325000D02*
X110702500Y-84325000D01*
G75*
G02*
X110580000Y-84202500I0J122500D01*
G01*
X110580000Y-83957500D01*
G75*
G02*
X110702500Y-83835000I122500J0D01*
G01*
X110997500Y-83835000D01*
G75*
G02*
X111120000Y-83957500I0J-122500D01*
G01*
X111120000Y-84202500D01*
G75*
G02*
X110997500Y-84325000I-122500J0D01*
G01*
G37*
G36*
G01*
X110997500Y-85295000D02*
X110702500Y-85295000D01*
G75*
G02*
X110580000Y-85172500I0J122500D01*
G01*
X110580000Y-84927500D01*
G75*
G02*
X110702500Y-84805000I122500J0D01*
G01*
X110997500Y-84805000D01*
G75*
G02*
X111120000Y-84927500I0J-122500D01*
G01*
X111120000Y-85172500D01*
G75*
G02*
X110997500Y-85295000I-122500J0D01*
G01*
G37*
%TD*%
%TO.C,C21*%
G36*
G01*
X110047500Y-84810000D02*
X109752500Y-84810000D01*
G75*
G02*
X109630000Y-84687500I0J122500D01*
G01*
X109630000Y-84442500D01*
G75*
G02*
X109752500Y-84320000I122500J0D01*
G01*
X110047500Y-84320000D01*
G75*
G02*
X110170000Y-84442500I0J-122500D01*
G01*
X110170000Y-84687500D01*
G75*
G02*
X110047500Y-84810000I-122500J0D01*
G01*
G37*
G36*
G01*
X110047500Y-85780000D02*
X109752500Y-85780000D01*
G75*
G02*
X109630000Y-85657500I0J122500D01*
G01*
X109630000Y-85412500D01*
G75*
G02*
X109752500Y-85290000I122500J0D01*
G01*
X110047500Y-85290000D01*
G75*
G02*
X110170000Y-85412500I0J-122500D01*
G01*
X110170000Y-85657500D01*
G75*
G02*
X110047500Y-85780000I-122500J0D01*
G01*
G37*
%TD*%
%TO.C,C22*%
G36*
G01*
X106147500Y-86580000D02*
X105852500Y-86580000D01*
G75*
G02*
X105730000Y-86457500I0J122500D01*
G01*
X105730000Y-86212500D01*
G75*
G02*
X105852500Y-86090000I122500J0D01*
G01*
X106147500Y-86090000D01*
G75*
G02*
X106270000Y-86212500I0J-122500D01*
G01*
X106270000Y-86457500D01*
G75*
G02*
X106147500Y-86580000I-122500J0D01*
G01*
G37*
G36*
G01*
X106147500Y-85610000D02*
X105852500Y-85610000D01*
G75*
G02*
X105730000Y-85487500I0J122500D01*
G01*
X105730000Y-85242500D01*
G75*
G02*
X105852500Y-85120000I122500J0D01*
G01*
X106147500Y-85120000D01*
G75*
G02*
X106270000Y-85242500I0J-122500D01*
G01*
X106270000Y-85487500D01*
G75*
G02*
X106147500Y-85610000I-122500J0D01*
G01*
G37*
%TD*%
%TO.C,C23*%
G36*
G01*
X105197500Y-85125000D02*
X104902500Y-85125000D01*
G75*
G02*
X104780000Y-85002500I0J122500D01*
G01*
X104780000Y-84757500D01*
G75*
G02*
X104902500Y-84635000I122500J0D01*
G01*
X105197500Y-84635000D01*
G75*
G02*
X105320000Y-84757500I0J-122500D01*
G01*
X105320000Y-85002500D01*
G75*
G02*
X105197500Y-85125000I-122500J0D01*
G01*
G37*
G36*
G01*
X105197500Y-86095000D02*
X104902500Y-86095000D01*
G75*
G02*
X104780000Y-85972500I0J122500D01*
G01*
X104780000Y-85727500D01*
G75*
G02*
X104902500Y-85605000I122500J0D01*
G01*
X105197500Y-85605000D01*
G75*
G02*
X105320000Y-85727500I0J-122500D01*
G01*
X105320000Y-85972500D01*
G75*
G02*
X105197500Y-86095000I-122500J0D01*
G01*
G37*
%TD*%
%TO.C,C24*%
G36*
G01*
X108525000Y-86697500D02*
X108525000Y-86402500D01*
G75*
G02*
X108647500Y-86280000I122500J0D01*
G01*
X108892500Y-86280000D01*
G75*
G02*
X109015000Y-86402500I0J-122500D01*
G01*
X109015000Y-86697500D01*
G75*
G02*
X108892500Y-86820000I-122500J0D01*
G01*
X108647500Y-86820000D01*
G75*
G02*
X108525000Y-86697500I0J122500D01*
G01*
G37*
G36*
G01*
X107555000Y-86697500D02*
X107555000Y-86402500D01*
G75*
G02*
X107677500Y-86280000I122500J0D01*
G01*
X107922500Y-86280000D01*
G75*
G02*
X108045000Y-86402500I0J-122500D01*
G01*
X108045000Y-86697500D01*
G75*
G02*
X107922500Y-86820000I-122500J0D01*
G01*
X107677500Y-86820000D01*
G75*
G02*
X107555000Y-86697500I0J122500D01*
G01*
G37*
%TD*%
%TO.C,C27*%
G36*
G01*
X107555000Y-81147500D02*
X107555000Y-80852500D01*
G75*
G02*
X107677500Y-80730000I122500J0D01*
G01*
X107922500Y-80730000D01*
G75*
G02*
X108045000Y-80852500I0J-122500D01*
G01*
X108045000Y-81147500D01*
G75*
G02*
X107922500Y-81270000I-122500J0D01*
G01*
X107677500Y-81270000D01*
G75*
G02*
X107555000Y-81147500I0J122500D01*
G01*
G37*
G36*
G01*
X108525000Y-81147500D02*
X108525000Y-80852500D01*
G75*
G02*
X108647500Y-80730000I122500J0D01*
G01*
X108892500Y-80730000D01*
G75*
G02*
X109015000Y-80852500I0J-122500D01*
G01*
X109015000Y-81147500D01*
G75*
G02*
X108892500Y-81270000I-122500J0D01*
G01*
X108647500Y-81270000D01*
G75*
G02*
X108525000Y-81147500I0J122500D01*
G01*
G37*
%TD*%
%TO.C,L3*%
G36*
G01*
X111997500Y-84795000D02*
X111702500Y-84795000D01*
G75*
G02*
X111580000Y-84672500I0J122500D01*
G01*
X111580000Y-84427500D01*
G75*
G02*
X111702500Y-84305000I122500J0D01*
G01*
X111997500Y-84305000D01*
G75*
G02*
X112120000Y-84427500I0J-122500D01*
G01*
X112120000Y-84672500D01*
G75*
G02*
X111997500Y-84795000I-122500J0D01*
G01*
G37*
G36*
G01*
X111997500Y-83825000D02*
X111702500Y-83825000D01*
G75*
G02*
X111580000Y-83702500I0J122500D01*
G01*
X111580000Y-83457500D01*
G75*
G02*
X111702500Y-83335000I122500J0D01*
G01*
X111997500Y-83335000D01*
G75*
G02*
X112120000Y-83457500I0J-122500D01*
G01*
X112120000Y-83702500D01*
G75*
G02*
X111997500Y-83825000I-122500J0D01*
G01*
G37*
%TD*%
%TO.C,L4*%
G36*
G01*
X104247500Y-85645000D02*
X103952500Y-85645000D01*
G75*
G02*
X103830000Y-85522500I0J122500D01*
G01*
X103830000Y-85277500D01*
G75*
G02*
X103952500Y-85155000I122500J0D01*
G01*
X104247500Y-85155000D01*
G75*
G02*
X104370000Y-85277500I0J-122500D01*
G01*
X104370000Y-85522500D01*
G75*
G02*
X104247500Y-85645000I-122500J0D01*
G01*
G37*
G36*
G01*
X104247500Y-84675000D02*
X103952500Y-84675000D01*
G75*
G02*
X103830000Y-84552500I0J122500D01*
G01*
X103830000Y-84307500D01*
G75*
G02*
X103952500Y-84185000I122500J0D01*
G01*
X104247500Y-84185000D01*
G75*
G02*
X104370000Y-84307500I0J-122500D01*
G01*
X104370000Y-84552500D01*
G75*
G02*
X104247500Y-84675000I-122500J0D01*
G01*
G37*
%TD*%
%TO.C,L5*%
G36*
G01*
X107947500Y-84910000D02*
X107652500Y-84910000D01*
G75*
G02*
X107530000Y-84787500I0J122500D01*
G01*
X107530000Y-84542500D01*
G75*
G02*
X107652500Y-84420000I122500J0D01*
G01*
X107947500Y-84420000D01*
G75*
G02*
X108070000Y-84542500I0J-122500D01*
G01*
X108070000Y-84787500D01*
G75*
G02*
X107947500Y-84910000I-122500J0D01*
G01*
G37*
G36*
G01*
X107947500Y-85880000D02*
X107652500Y-85880000D01*
G75*
G02*
X107530000Y-85757500I0J122500D01*
G01*
X107530000Y-85512500D01*
G75*
G02*
X107652500Y-85390000I122500J0D01*
G01*
X107947500Y-85390000D01*
G75*
G02*
X108070000Y-85512500I0J-122500D01*
G01*
X108070000Y-85757500D01*
G75*
G02*
X107947500Y-85880000I-122500J0D01*
G01*
G37*
%TD*%
%TO.C,L6*%
G36*
G01*
X107947500Y-82125000D02*
X107652500Y-82125000D01*
G75*
G02*
X107530000Y-82002500I0J122500D01*
G01*
X107530000Y-81757500D01*
G75*
G02*
X107652500Y-81635000I122500J0D01*
G01*
X107947500Y-81635000D01*
G75*
G02*
X108070000Y-81757500I0J-122500D01*
G01*
X108070000Y-82002500D01*
G75*
G02*
X107947500Y-82125000I-122500J0D01*
G01*
G37*
G36*
G01*
X107947500Y-83095000D02*
X107652500Y-83095000D01*
G75*
G02*
X107530000Y-82972500I0J122500D01*
G01*
X107530000Y-82727500D01*
G75*
G02*
X107652500Y-82605000I122500J0D01*
G01*
X107947500Y-82605000D01*
G75*
G02*
X108070000Y-82727500I0J-122500D01*
G01*
X108070000Y-82972500D01*
G75*
G02*
X107947500Y-83095000I-122500J0D01*
G01*
G37*
%TD*%
%TO.C,R1*%
G36*
G01*
X113180000Y-85602500D02*
X113180000Y-85897500D01*
G75*
G02*
X113057500Y-86020000I-122500J0D01*
G01*
X112812500Y-86020000D01*
G75*
G02*
X112690000Y-85897500I0J122500D01*
G01*
X112690000Y-85602500D01*
G75*
G02*
X112812500Y-85480000I122500J0D01*
G01*
X113057500Y-85480000D01*
G75*
G02*
X113180000Y-85602500I0J-122500D01*
G01*
G37*
G36*
G01*
X112210000Y-85602500D02*
X112210000Y-85897500D01*
G75*
G02*
X112087500Y-86020000I-122500J0D01*
G01*
X111842500Y-86020000D01*
G75*
G02*
X111720000Y-85897500I0J122500D01*
G01*
X111720000Y-85602500D01*
G75*
G02*
X111842500Y-85480000I122500J0D01*
G01*
X112087500Y-85480000D01*
G75*
G02*
X112210000Y-85602500I0J-122500D01*
G01*
G37*
%TD*%
%TO.C,U3*%
G36*
G01*
X110050000Y-91925000D02*
X110050000Y-91975000D01*
G75*
G02*
X110025000Y-92000000I-25000J0D01*
G01*
X109375000Y-92000000D01*
G75*
G02*
X109350000Y-91975000I0J25000D01*
G01*
X109350000Y-91925000D01*
G75*
G02*
X109375000Y-91900000I25000J0D01*
G01*
X110025000Y-91900000D01*
G75*
G02*
X110050000Y-91925000I0J-25000D01*
G01*
G37*
G36*
G01*
X110050000Y-91525000D02*
X110050000Y-91575000D01*
G75*
G02*
X110025000Y-91600000I-25000J0D01*
G01*
X109375000Y-91600000D01*
G75*
G02*
X109350000Y-91575000I0J25000D01*
G01*
X109350000Y-91525000D01*
G75*
G02*
X109375000Y-91500000I25000J0D01*
G01*
X110025000Y-91500000D01*
G75*
G02*
X110050000Y-91525000I0J-25000D01*
G01*
G37*
G36*
G01*
X110050000Y-91125000D02*
X110050000Y-91175000D01*
G75*
G02*
X110025000Y-91200000I-25000J0D01*
G01*
X109375000Y-91200000D01*
G75*
G02*
X109350000Y-91175000I0J25000D01*
G01*
X109350000Y-91125000D01*
G75*
G02*
X109375000Y-91100000I25000J0D01*
G01*
X110025000Y-91100000D01*
G75*
G02*
X110050000Y-91125000I0J-25000D01*
G01*
G37*
G36*
G01*
X110050000Y-90725000D02*
X110050000Y-90775000D01*
G75*
G02*
X110025000Y-90800000I-25000J0D01*
G01*
X109375000Y-90800000D01*
G75*
G02*
X109350000Y-90775000I0J25000D01*
G01*
X109350000Y-90725000D01*
G75*
G02*
X109375000Y-90700000I25000J0D01*
G01*
X110025000Y-90700000D01*
G75*
G02*
X110050000Y-90725000I0J-25000D01*
G01*
G37*
G36*
G01*
X110050000Y-90325000D02*
X110050000Y-90375000D01*
G75*
G02*
X110025000Y-90400000I-25000J0D01*
G01*
X109375000Y-90400000D01*
G75*
G02*
X109350000Y-90375000I0J25000D01*
G01*
X109350000Y-90325000D01*
G75*
G02*
X109375000Y-90300000I25000J0D01*
G01*
X110025000Y-90300000D01*
G75*
G02*
X110050000Y-90325000I0J-25000D01*
G01*
G37*
G36*
G01*
X110050000Y-89925000D02*
X110050000Y-89975000D01*
G75*
G02*
X110025000Y-90000000I-25000J0D01*
G01*
X109375000Y-90000000D01*
G75*
G02*
X109350000Y-89975000I0J25000D01*
G01*
X109350000Y-89925000D01*
G75*
G02*
X109375000Y-89900000I25000J0D01*
G01*
X110025000Y-89900000D01*
G75*
G02*
X110050000Y-89925000I0J-25000D01*
G01*
G37*
G36*
G01*
X110050000Y-89525000D02*
X110050000Y-89575000D01*
G75*
G02*
X110025000Y-89600000I-25000J0D01*
G01*
X109375000Y-89600000D01*
G75*
G02*
X109350000Y-89575000I0J25000D01*
G01*
X109350000Y-89525000D01*
G75*
G02*
X109375000Y-89500000I25000J0D01*
G01*
X110025000Y-89500000D01*
G75*
G02*
X110050000Y-89525000I0J-25000D01*
G01*
G37*
G36*
G01*
X110050000Y-89125000D02*
X110050000Y-89175000D01*
G75*
G02*
X110025000Y-89200000I-25000J0D01*
G01*
X109375000Y-89200000D01*
G75*
G02*
X109350000Y-89175000I0J25000D01*
G01*
X109350000Y-89125000D01*
G75*
G02*
X109375000Y-89100000I25000J0D01*
G01*
X110025000Y-89100000D01*
G75*
G02*
X110050000Y-89125000I0J-25000D01*
G01*
G37*
G36*
G01*
X109050000Y-88125000D02*
X109050000Y-88775000D01*
G75*
G02*
X109025000Y-88800000I-25000J0D01*
G01*
X108975000Y-88800000D01*
G75*
G02*
X108950000Y-88775000I0J25000D01*
G01*
X108950000Y-88125000D01*
G75*
G02*
X108975000Y-88100000I25000J0D01*
G01*
X109025000Y-88100000D01*
G75*
G02*
X109050000Y-88125000I0J-25000D01*
G01*
G37*
G36*
G01*
X108650000Y-88125000D02*
X108650000Y-88775000D01*
G75*
G02*
X108625000Y-88800000I-25000J0D01*
G01*
X108575000Y-88800000D01*
G75*
G02*
X108550000Y-88775000I0J25000D01*
G01*
X108550000Y-88125000D01*
G75*
G02*
X108575000Y-88100000I25000J0D01*
G01*
X108625000Y-88100000D01*
G75*
G02*
X108650000Y-88125000I0J-25000D01*
G01*
G37*
G36*
G01*
X108250000Y-88125000D02*
X108250000Y-88775000D01*
G75*
G02*
X108225000Y-88800000I-25000J0D01*
G01*
X108175000Y-88800000D01*
G75*
G02*
X108150000Y-88775000I0J25000D01*
G01*
X108150000Y-88125000D01*
G75*
G02*
X108175000Y-88100000I25000J0D01*
G01*
X108225000Y-88100000D01*
G75*
G02*
X108250000Y-88125000I0J-25000D01*
G01*
G37*
G36*
G01*
X107850000Y-88125000D02*
X107850000Y-88775000D01*
G75*
G02*
X107825000Y-88800000I-25000J0D01*
G01*
X107775000Y-88800000D01*
G75*
G02*
X107750000Y-88775000I0J25000D01*
G01*
X107750000Y-88125000D01*
G75*
G02*
X107775000Y-88100000I25000J0D01*
G01*
X107825000Y-88100000D01*
G75*
G02*
X107850000Y-88125000I0J-25000D01*
G01*
G37*
G36*
G01*
X107450000Y-88125000D02*
X107450000Y-88775000D01*
G75*
G02*
X107425000Y-88800000I-25000J0D01*
G01*
X107375000Y-88800000D01*
G75*
G02*
X107350000Y-88775000I0J25000D01*
G01*
X107350000Y-88125000D01*
G75*
G02*
X107375000Y-88100000I25000J0D01*
G01*
X107425000Y-88100000D01*
G75*
G02*
X107450000Y-88125000I0J-25000D01*
G01*
G37*
G36*
G01*
X107050000Y-88125000D02*
X107050000Y-88775000D01*
G75*
G02*
X107025000Y-88800000I-25000J0D01*
G01*
X106975000Y-88800000D01*
G75*
G02*
X106950000Y-88775000I0J25000D01*
G01*
X106950000Y-88125000D01*
G75*
G02*
X106975000Y-88100000I25000J0D01*
G01*
X107025000Y-88100000D01*
G75*
G02*
X107050000Y-88125000I0J-25000D01*
G01*
G37*
G36*
G01*
X106650000Y-88125000D02*
X106650000Y-88775000D01*
G75*
G02*
X106625000Y-88800000I-25000J0D01*
G01*
X106575000Y-88800000D01*
G75*
G02*
X106550000Y-88775000I0J25000D01*
G01*
X106550000Y-88125000D01*
G75*
G02*
X106575000Y-88100000I25000J0D01*
G01*
X106625000Y-88100000D01*
G75*
G02*
X106650000Y-88125000I0J-25000D01*
G01*
G37*
G36*
G01*
X106250000Y-88125000D02*
X106250000Y-88775000D01*
G75*
G02*
X106225000Y-88800000I-25000J0D01*
G01*
X106175000Y-88800000D01*
G75*
G02*
X106150000Y-88775000I0J25000D01*
G01*
X106150000Y-88125000D01*
G75*
G02*
X106175000Y-88100000I25000J0D01*
G01*
X106225000Y-88100000D01*
G75*
G02*
X106250000Y-88125000I0J-25000D01*
G01*
G37*
G36*
G01*
X105850000Y-89125000D02*
X105850000Y-89175000D01*
G75*
G02*
X105825000Y-89200000I-25000J0D01*
G01*
X105175000Y-89200000D01*
G75*
G02*
X105150000Y-89175000I0J25000D01*
G01*
X105150000Y-89125000D01*
G75*
G02*
X105175000Y-89100000I25000J0D01*
G01*
X105825000Y-89100000D01*
G75*
G02*
X105850000Y-89125000I0J-25000D01*
G01*
G37*
G36*
G01*
X105850000Y-89525000D02*
X105850000Y-89575000D01*
G75*
G02*
X105825000Y-89600000I-25000J0D01*
G01*
X105175000Y-89600000D01*
G75*
G02*
X105150000Y-89575000I0J25000D01*
G01*
X105150000Y-89525000D01*
G75*
G02*
X105175000Y-89500000I25000J0D01*
G01*
X105825000Y-89500000D01*
G75*
G02*
X105850000Y-89525000I0J-25000D01*
G01*
G37*
G36*
G01*
X105850000Y-89925000D02*
X105850000Y-89975000D01*
G75*
G02*
X105825000Y-90000000I-25000J0D01*
G01*
X105175000Y-90000000D01*
G75*
G02*
X105150000Y-89975000I0J25000D01*
G01*
X105150000Y-89925000D01*
G75*
G02*
X105175000Y-89900000I25000J0D01*
G01*
X105825000Y-89900000D01*
G75*
G02*
X105850000Y-89925000I0J-25000D01*
G01*
G37*
G36*
G01*
X105850000Y-90325000D02*
X105850000Y-90375000D01*
G75*
G02*
X105825000Y-90400000I-25000J0D01*
G01*
X105175000Y-90400000D01*
G75*
G02*
X105150000Y-90375000I0J25000D01*
G01*
X105150000Y-90325000D01*
G75*
G02*
X105175000Y-90300000I25000J0D01*
G01*
X105825000Y-90300000D01*
G75*
G02*
X105850000Y-90325000I0J-25000D01*
G01*
G37*
G36*
G01*
X105850000Y-90725000D02*
X105850000Y-90775000D01*
G75*
G02*
X105825000Y-90800000I-25000J0D01*
G01*
X105175000Y-90800000D01*
G75*
G02*
X105150000Y-90775000I0J25000D01*
G01*
X105150000Y-90725000D01*
G75*
G02*
X105175000Y-90700000I25000J0D01*
G01*
X105825000Y-90700000D01*
G75*
G02*
X105850000Y-90725000I0J-25000D01*
G01*
G37*
G36*
G01*
X105850000Y-91125000D02*
X105850000Y-91175000D01*
G75*
G02*
X105825000Y-91200000I-25000J0D01*
G01*
X105175000Y-91200000D01*
G75*
G02*
X105150000Y-91175000I0J25000D01*
G01*
X105150000Y-91125000D01*
G75*
G02*
X105175000Y-91100000I25000J0D01*
G01*
X105825000Y-91100000D01*
G75*
G02*
X105850000Y-91125000I0J-25000D01*
G01*
G37*
G36*
G01*
X105850000Y-91525000D02*
X105850000Y-91575000D01*
G75*
G02*
X105825000Y-91600000I-25000J0D01*
G01*
X105175000Y-91600000D01*
G75*
G02*
X105150000Y-91575000I0J25000D01*
G01*
X105150000Y-91525000D01*
G75*
G02*
X105175000Y-91500000I25000J0D01*
G01*
X105825000Y-91500000D01*
G75*
G02*
X105850000Y-91525000I0J-25000D01*
G01*
G37*
G36*
G01*
X105850000Y-91925000D02*
X105850000Y-91975000D01*
G75*
G02*
X105825000Y-92000000I-25000J0D01*
G01*
X105175000Y-92000000D01*
G75*
G02*
X105150000Y-91975000I0J25000D01*
G01*
X105150000Y-91925000D01*
G75*
G02*
X105175000Y-91900000I25000J0D01*
G01*
X105825000Y-91900000D01*
G75*
G02*
X105850000Y-91925000I0J-25000D01*
G01*
G37*
G36*
G01*
X106250000Y-92325000D02*
X106250000Y-92975000D01*
G75*
G02*
X106225000Y-93000000I-25000J0D01*
G01*
X106175000Y-93000000D01*
G75*
G02*
X106150000Y-92975000I0J25000D01*
G01*
X106150000Y-92325000D01*
G75*
G02*
X106175000Y-92300000I25000J0D01*
G01*
X106225000Y-92300000D01*
G75*
G02*
X106250000Y-92325000I0J-25000D01*
G01*
G37*
G36*
G01*
X106650000Y-92325000D02*
X106650000Y-92975000D01*
G75*
G02*
X106625000Y-93000000I-25000J0D01*
G01*
X106575000Y-93000000D01*
G75*
G02*
X106550000Y-92975000I0J25000D01*
G01*
X106550000Y-92325000D01*
G75*
G02*
X106575000Y-92300000I25000J0D01*
G01*
X106625000Y-92300000D01*
G75*
G02*
X106650000Y-92325000I0J-25000D01*
G01*
G37*
G36*
G01*
X107050000Y-92325000D02*
X107050000Y-92975000D01*
G75*
G02*
X107025000Y-93000000I-25000J0D01*
G01*
X106975000Y-93000000D01*
G75*
G02*
X106950000Y-92975000I0J25000D01*
G01*
X106950000Y-92325000D01*
G75*
G02*
X106975000Y-92300000I25000J0D01*
G01*
X107025000Y-92300000D01*
G75*
G02*
X107050000Y-92325000I0J-25000D01*
G01*
G37*
G36*
G01*
X107450000Y-92325000D02*
X107450000Y-92975000D01*
G75*
G02*
X107425000Y-93000000I-25000J0D01*
G01*
X107375000Y-93000000D01*
G75*
G02*
X107350000Y-92975000I0J25000D01*
G01*
X107350000Y-92325000D01*
G75*
G02*
X107375000Y-92300000I25000J0D01*
G01*
X107425000Y-92300000D01*
G75*
G02*
X107450000Y-92325000I0J-25000D01*
G01*
G37*
G36*
G01*
X107850000Y-92325000D02*
X107850000Y-92975000D01*
G75*
G02*
X107825000Y-93000000I-25000J0D01*
G01*
X107775000Y-93000000D01*
G75*
G02*
X107750000Y-92975000I0J25000D01*
G01*
X107750000Y-92325000D01*
G75*
G02*
X107775000Y-92300000I25000J0D01*
G01*
X107825000Y-92300000D01*
G75*
G02*
X107850000Y-92325000I0J-25000D01*
G01*
G37*
G36*
G01*
X108250000Y-92325000D02*
X108250000Y-92975000D01*
G75*
G02*
X108225000Y-93000000I-25000J0D01*
G01*
X108175000Y-93000000D01*
G75*
G02*
X108150000Y-92975000I0J25000D01*
G01*
X108150000Y-92325000D01*
G75*
G02*
X108175000Y-92300000I25000J0D01*
G01*
X108225000Y-92300000D01*
G75*
G02*
X108250000Y-92325000I0J-25000D01*
G01*
G37*
G36*
G01*
X108650000Y-92325000D02*
X108650000Y-92975000D01*
G75*
G02*
X108625000Y-93000000I-25000J0D01*
G01*
X108575000Y-93000000D01*
G75*
G02*
X108550000Y-92975000I0J25000D01*
G01*
X108550000Y-92325000D01*
G75*
G02*
X108575000Y-92300000I25000J0D01*
G01*
X108625000Y-92300000D01*
G75*
G02*
X108650000Y-92325000I0J-25000D01*
G01*
G37*
G36*
G01*
X109050000Y-92325000D02*
X109050000Y-92975000D01*
G75*
G02*
X109025000Y-93000000I-25000J0D01*
G01*
X108975000Y-93000000D01*
G75*
G02*
X108950000Y-92975000I0J25000D01*
G01*
X108950000Y-92325000D01*
G75*
G02*
X108975000Y-92300000I25000J0D01*
G01*
X109025000Y-92300000D01*
G75*
G02*
X109050000Y-92325000I0J-25000D01*
G01*
G37*
G36*
G01*
X108910000Y-90939999D02*
X108910000Y-91610001D01*
G75*
G02*
X108660001Y-91860000I-249999J0D01*
G01*
X107989999Y-91860000D01*
G75*
G02*
X107740000Y-91610001I0J249999D01*
G01*
X107740000Y-90939999D01*
G75*
G02*
X107989999Y-90690000I249999J0D01*
G01*
X108660001Y-90690000D01*
G75*
G02*
X108910000Y-90939999I0J-249999D01*
G01*
G37*
G36*
G01*
X108910000Y-89489999D02*
X108910000Y-90160001D01*
G75*
G02*
X108660001Y-90410000I-249999J0D01*
G01*
X107989999Y-90410000D01*
G75*
G02*
X107740000Y-90160001I0J249999D01*
G01*
X107740000Y-89489999D01*
G75*
G02*
X107989999Y-89240000I249999J0D01*
G01*
X108660001Y-89240000D01*
G75*
G02*
X108910000Y-89489999I0J-249999D01*
G01*
G37*
G36*
G01*
X107460000Y-90939999D02*
X107460000Y-91610001D01*
G75*
G02*
X107210001Y-91860000I-249999J0D01*
G01*
X106539999Y-91860000D01*
G75*
G02*
X106290000Y-91610001I0J249999D01*
G01*
X106290000Y-90939999D01*
G75*
G02*
X106539999Y-90690000I249999J0D01*
G01*
X107210001Y-90690000D01*
G75*
G02*
X107460000Y-90939999I0J-249999D01*
G01*
G37*
G36*
G01*
X107460000Y-89489999D02*
X107460000Y-90160001D01*
G75*
G02*
X107210001Y-90410000I-249999J0D01*
G01*
X106539999Y-90410000D01*
G75*
G02*
X106290000Y-90160001I0J249999D01*
G01*
X106290000Y-89489999D01*
G75*
G02*
X106539999Y-89240000I249999J0D01*
G01*
X107210001Y-89240000D01*
G75*
G02*
X107460000Y-89489999I0J-249999D01*
G01*
G37*
%TD*%
D11*
%TO.C,Y1*%
G36*
X111037868Y-95239949D02*
G01*
X110260051Y-94462132D01*
X110613604Y-94108579D01*
X111391421Y-94886396D01*
X111037868Y-95239949D01*
G37*
G36*
X111886396Y-94391421D02*
G01*
X111108579Y-93613604D01*
X111462132Y-93260051D01*
X112239949Y-94037868D01*
X111886396Y-94391421D01*
G37*
%TD*%
D12*
%TO.C,Y2*%
X111800000Y-88800000D03*
X113200000Y-88800000D03*
X113200000Y-87700000D03*
X111800000Y-87700000D03*
%TD*%
D13*
%TO.C,J23*%
X101775000Y-76525000D03*
D14*
X103300000Y-78000000D03*
D13*
X101775000Y-79475000D03*
%TD*%
M02*
