%TF.GenerationSoftware,KiCad,Pcbnew,(5.1.6)-1*%
%TF.CreationDate,2021-01-29T18:20:15+05:30*%
%TF.ProjectId,Bluetooth_Module,426c7565-746f-46f7-9468-5f4d6f64756c,rev?*%
%TF.SameCoordinates,Original*%
%TF.FileFunction,Copper,L1,Top*%
%TF.FilePolarity,Positive*%
%FSLAX46Y46*%
G04 Gerber Fmt 4.6, Leading zero omitted, Abs format (unit mm)*
G04 Created by KiCad (PCBNEW (5.1.6)-1) date 2021-01-29 18:20:15*
%MOMM*%
%LPD*%
G01*
G04 APERTURE LIST*
%TA.AperFunction,SMDPad,CuDef*%
%ADD10O,2.500000X1.300000*%
%TD*%
%TA.AperFunction,ComponentPad*%
%ADD11C,1.300000*%
%TD*%
%TA.AperFunction,SMDPad,CuDef*%
%ADD12O,1.300000X2.500000*%
%TD*%
%TA.AperFunction,SMDPad,CuDef*%
%ADD13R,0.900000X1.700000*%
%TD*%
%TA.AperFunction,SMDPad,CuDef*%
%ADD14R,2.700000X2.700000*%
%TD*%
%TA.AperFunction,SMDPad,CuDef*%
%ADD15C,0.100000*%
%TD*%
%TA.AperFunction,SMDPad,CuDef*%
%ADD16R,0.900000X0.800000*%
%TD*%
%TA.AperFunction,SMDPad,CuDef*%
%ADD17R,2.200000X1.050000*%
%TD*%
%TA.AperFunction,SMDPad,CuDef*%
%ADD18R,1.050000X1.000000*%
%TD*%
%TA.AperFunction,ViaPad*%
%ADD19C,0.600000*%
%TD*%
%TA.AperFunction,Conductor*%
%ADD20C,0.600000*%
%TD*%
%TA.AperFunction,Conductor*%
%ADD21C,0.300000*%
%TD*%
%TA.AperFunction,Conductor*%
%ADD22C,0.200000*%
%TD*%
%TA.AperFunction,Conductor*%
%ADD23C,0.400000*%
%TD*%
%TA.AperFunction,Conductor*%
%ADD24C,0.254000*%
%TD*%
G04 APERTURE END LIST*
%TO.P,C25,1*%
%TO.N,Net-(C25-Pad1)*%
%TA.AperFunction,SMDPad,CuDef*%
G36*
G01*
X108095000Y-83577500D02*
X108095000Y-83922500D01*
G75*
G02*
X107947500Y-84070000I-147500J0D01*
G01*
X107652500Y-84070000D01*
G75*
G02*
X107505000Y-83922500I0J147500D01*
G01*
X107505000Y-83577500D01*
G75*
G02*
X107652500Y-83430000I147500J0D01*
G01*
X107947500Y-83430000D01*
G75*
G02*
X108095000Y-83577500I0J-147500D01*
G01*
G37*
%TD.AperFunction*%
%TO.P,C25,2*%
%TO.N,GND*%
%TA.AperFunction,SMDPad,CuDef*%
G36*
G01*
X107125000Y-83577500D02*
X107125000Y-83922500D01*
G75*
G02*
X106977500Y-84070000I-147500J0D01*
G01*
X106682500Y-84070000D01*
G75*
G02*
X106535000Y-83922500I0J147500D01*
G01*
X106535000Y-83577500D01*
G75*
G02*
X106682500Y-83430000I147500J0D01*
G01*
X106977500Y-83430000D01*
G75*
G02*
X107125000Y-83577500I0J-147500D01*
G01*
G37*
%TD.AperFunction*%
%TD*%
D10*
%TO.P,J12,1*%
%TO.N,PB00*%
X100600000Y-86500000D03*
D11*
X100000000Y-86500000D03*
%TD*%
D12*
%TO.P,J1,1*%
%TO.N,PA06*%
X103000000Y-99400000D03*
D11*
X103000000Y-100000000D03*
%TD*%
D10*
%TO.P,J2,1*%
%TO.N,PA05*%
X100600000Y-98500000D03*
D11*
X100000000Y-98500000D03*
%TD*%
D10*
%TO.P,J3,1*%
%TO.N,PA04*%
X100600000Y-96500000D03*
D11*
X100000000Y-96500000D03*
%TD*%
D10*
%TO.P,J4,1*%
%TO.N,PA03*%
X100600000Y-94500000D03*
D11*
X100000000Y-94500000D03*
%TD*%
D10*
%TO.P,J5,1*%
%TO.N,PA02*%
X100600000Y-92500000D03*
D11*
X100000000Y-92500000D03*
%TD*%
D10*
%TO.P,J6,1*%
%TO.N,PA01*%
X100600000Y-90500000D03*
D11*
X100000000Y-90500000D03*
%TD*%
D10*
%TO.P,J7,1*%
%TO.N,PA00*%
X100600000Y-88500000D03*
D11*
X100000000Y-88500000D03*
%TD*%
D12*
%TO.P,J8,1*%
%TO.N,+3V3*%
X107000000Y-99400000D03*
D11*
X107000000Y-100000000D03*
%TD*%
D12*
%TO.P,J9,1*%
%TO.N,PD02*%
X113000000Y-99400000D03*
D11*
X113000000Y-100000000D03*
%TD*%
D12*
%TO.P,J10,1*%
%TO.N,PD03*%
X111000000Y-99400000D03*
D11*
X111000000Y-100000000D03*
%TD*%
D12*
%TO.P,J11,1*%
%TO.N,PD04*%
X109000000Y-99400000D03*
D11*
X109000000Y-100000000D03*
%TD*%
D10*
%TO.P,J14,1*%
%TO.N,GND*%
X115400000Y-84500000D03*
D11*
X116000000Y-84500000D03*
%TD*%
D10*
%TO.P,J15,1*%
%TO.N,PC05*%
X115400000Y-88500000D03*
D11*
X116000000Y-88500000D03*
%TD*%
D10*
%TO.P,J16,1*%
%TO.N,PC04*%
X115400000Y-90500000D03*
D11*
X116000000Y-90500000D03*
%TD*%
D10*
%TO.P,J17,1*%
%TO.N,PC03*%
X115400000Y-92500000D03*
D11*
X116000000Y-92500000D03*
%TD*%
D10*
%TO.P,J18,1*%
%TO.N,PC02*%
X115400000Y-94500000D03*
D11*
X116000000Y-94500000D03*
%TD*%
D10*
%TO.P,J19,1*%
%TO.N,PC01*%
X115400000Y-96500000D03*
D11*
X116000000Y-96500000D03*
%TD*%
D10*
%TO.P,J20,1*%
%TO.N,PC00*%
X115400000Y-98500000D03*
D11*
X116000000Y-98500000D03*
%TD*%
D10*
%TO.P,J21,1*%
%TO.N,RST*%
X115400000Y-86500000D03*
D11*
X116000000Y-86500000D03*
%TD*%
D12*
%TO.P,J22,1*%
%TO.N,GND*%
X105000000Y-99400000D03*
D11*
X105000000Y-100000000D03*
%TD*%
D10*
%TO.P,J13,1*%
%TO.N,PB01*%
X100600000Y-84500000D03*
D11*
X100000000Y-84500000D03*
%TD*%
%TO.P,TP1,1*%
%TO.N,Net-(J23-Pad1)*%
%TA.AperFunction,SMDPad,CuDef*%
G36*
G01*
X106993934Y-79318198D02*
X106781802Y-79106066D01*
G75*
G02*
X106781802Y-78893934I106066J106066D01*
G01*
X106993934Y-78681802D01*
G75*
G02*
X107206066Y-78681802I106066J-106066D01*
G01*
X107418198Y-78893934D01*
G75*
G02*
X107418198Y-79106066I-106066J-106066D01*
G01*
X107206066Y-79318198D01*
G75*
G02*
X106993934Y-79318198I-106066J106066D01*
G01*
G37*
%TD.AperFunction*%
%TD*%
%TO.P,TP3,1*%
%TO.N,Net-(C27-Pad1)*%
%TA.AperFunction,SMDPad,CuDef*%
G36*
G01*
X107693934Y-80018198D02*
X107481802Y-79806066D01*
G75*
G02*
X107481802Y-79593934I106066J106066D01*
G01*
X107693934Y-79381802D01*
G75*
G02*
X107906066Y-79381802I106066J-106066D01*
G01*
X108118198Y-79593934D01*
G75*
G02*
X108118198Y-79806066I-106066J-106066D01*
G01*
X107906066Y-80018198D01*
G75*
G02*
X107693934Y-80018198I-106066J106066D01*
G01*
G37*
%TD.AperFunction*%
%TD*%
%TO.P,TP2,1*%
%TO.N,Net-(AE1-Pad1)*%
%TA.AperFunction,SMDPad,CuDef*%
G36*
G01*
X108393934Y-79318198D02*
X108181802Y-79106066D01*
G75*
G02*
X108181802Y-78893934I106066J106066D01*
G01*
X108393934Y-78681802D01*
G75*
G02*
X108606066Y-78681802I106066J-106066D01*
G01*
X108818198Y-78893934D01*
G75*
G02*
X108818198Y-79106066I-106066J-106066D01*
G01*
X108606066Y-79318198D01*
G75*
G02*
X108393934Y-79318198I-106066J106066D01*
G01*
G37*
%TD.AperFunction*%
%TD*%
D13*
%TO.P,AE1,1*%
%TO.N,Net-(AE1-Pad1)*%
X111700000Y-78000000D03*
%TO.P,AE1,2*%
%TO.N,Net-(AE1-Pad2)*%
X115200000Y-78000000D03*
%TD*%
%TO.P,C1,2*%
%TO.N,GND*%
%TA.AperFunction,SMDPad,CuDef*%
G36*
G01*
X109127500Y-96540000D02*
X109472500Y-96540000D01*
G75*
G02*
X109620000Y-96687500I0J-147500D01*
G01*
X109620000Y-96982500D01*
G75*
G02*
X109472500Y-97130000I-147500J0D01*
G01*
X109127500Y-97130000D01*
G75*
G02*
X108980000Y-96982500I0J147500D01*
G01*
X108980000Y-96687500D01*
G75*
G02*
X109127500Y-96540000I147500J0D01*
G01*
G37*
%TD.AperFunction*%
%TO.P,C1,1*%
%TO.N,+3V3*%
%TA.AperFunction,SMDPad,CuDef*%
G36*
G01*
X109127500Y-95570000D02*
X109472500Y-95570000D01*
G75*
G02*
X109620000Y-95717500I0J-147500D01*
G01*
X109620000Y-96012500D01*
G75*
G02*
X109472500Y-96160000I-147500J0D01*
G01*
X109127500Y-96160000D01*
G75*
G02*
X108980000Y-96012500I0J147500D01*
G01*
X108980000Y-95717500D01*
G75*
G02*
X109127500Y-95570000I147500J0D01*
G01*
G37*
%TD.AperFunction*%
%TD*%
%TO.P,C2,1*%
%TO.N,+3V3*%
%TA.AperFunction,SMDPad,CuDef*%
G36*
G01*
X108227500Y-95270000D02*
X108572500Y-95270000D01*
G75*
G02*
X108720000Y-95417500I0J-147500D01*
G01*
X108720000Y-95712500D01*
G75*
G02*
X108572500Y-95860000I-147500J0D01*
G01*
X108227500Y-95860000D01*
G75*
G02*
X108080000Y-95712500I0J147500D01*
G01*
X108080000Y-95417500D01*
G75*
G02*
X108227500Y-95270000I147500J0D01*
G01*
G37*
%TD.AperFunction*%
%TO.P,C2,2*%
%TO.N,GND*%
%TA.AperFunction,SMDPad,CuDef*%
G36*
G01*
X108227500Y-96240000D02*
X108572500Y-96240000D01*
G75*
G02*
X108720000Y-96387500I0J-147500D01*
G01*
X108720000Y-96682500D01*
G75*
G02*
X108572500Y-96830000I-147500J0D01*
G01*
X108227500Y-96830000D01*
G75*
G02*
X108080000Y-96682500I0J147500D01*
G01*
X108080000Y-96387500D01*
G75*
G02*
X108227500Y-96240000I147500J0D01*
G01*
G37*
%TD.AperFunction*%
%TD*%
%TO.P,C5,2*%
%TO.N,GND*%
%TA.AperFunction,SMDPad,CuDef*%
G36*
G01*
X104627500Y-96790000D02*
X104972500Y-96790000D01*
G75*
G02*
X105120000Y-96937500I0J-147500D01*
G01*
X105120000Y-97232500D01*
G75*
G02*
X104972500Y-97380000I-147500J0D01*
G01*
X104627500Y-97380000D01*
G75*
G02*
X104480000Y-97232500I0J147500D01*
G01*
X104480000Y-96937500D01*
G75*
G02*
X104627500Y-96790000I147500J0D01*
G01*
G37*
%TD.AperFunction*%
%TO.P,C5,1*%
%TO.N,+3V3*%
%TA.AperFunction,SMDPad,CuDef*%
G36*
G01*
X104627500Y-95820000D02*
X104972500Y-95820000D01*
G75*
G02*
X105120000Y-95967500I0J-147500D01*
G01*
X105120000Y-96262500D01*
G75*
G02*
X104972500Y-96410000I-147500J0D01*
G01*
X104627500Y-96410000D01*
G75*
G02*
X104480000Y-96262500I0J147500D01*
G01*
X104480000Y-95967500D01*
G75*
G02*
X104627500Y-95820000I147500J0D01*
G01*
G37*
%TD.AperFunction*%
%TD*%
%TO.P,C6,1*%
%TO.N,+3V3*%
%TA.AperFunction,SMDPad,CuDef*%
G36*
G01*
X105527500Y-95320000D02*
X105872500Y-95320000D01*
G75*
G02*
X106020000Y-95467500I0J-147500D01*
G01*
X106020000Y-95762500D01*
G75*
G02*
X105872500Y-95910000I-147500J0D01*
G01*
X105527500Y-95910000D01*
G75*
G02*
X105380000Y-95762500I0J147500D01*
G01*
X105380000Y-95467500D01*
G75*
G02*
X105527500Y-95320000I147500J0D01*
G01*
G37*
%TD.AperFunction*%
%TO.P,C6,2*%
%TO.N,GND*%
%TA.AperFunction,SMDPad,CuDef*%
G36*
G01*
X105527500Y-96290000D02*
X105872500Y-96290000D01*
G75*
G02*
X106020000Y-96437500I0J-147500D01*
G01*
X106020000Y-96732500D01*
G75*
G02*
X105872500Y-96880000I-147500J0D01*
G01*
X105527500Y-96880000D01*
G75*
G02*
X105380000Y-96732500I0J147500D01*
G01*
X105380000Y-96437500D01*
G75*
G02*
X105527500Y-96290000I147500J0D01*
G01*
G37*
%TD.AperFunction*%
%TD*%
%TO.P,C7,1*%
%TO.N,+3V3*%
%TA.AperFunction,SMDPad,CuDef*%
G36*
G01*
X106427500Y-94820000D02*
X106772500Y-94820000D01*
G75*
G02*
X106920000Y-94967500I0J-147500D01*
G01*
X106920000Y-95262500D01*
G75*
G02*
X106772500Y-95410000I-147500J0D01*
G01*
X106427500Y-95410000D01*
G75*
G02*
X106280000Y-95262500I0J147500D01*
G01*
X106280000Y-94967500D01*
G75*
G02*
X106427500Y-94820000I147500J0D01*
G01*
G37*
%TD.AperFunction*%
%TO.P,C7,2*%
%TO.N,GND*%
%TA.AperFunction,SMDPad,CuDef*%
G36*
G01*
X106427500Y-95790000D02*
X106772500Y-95790000D01*
G75*
G02*
X106920000Y-95937500I0J-147500D01*
G01*
X106920000Y-96232500D01*
G75*
G02*
X106772500Y-96380000I-147500J0D01*
G01*
X106427500Y-96380000D01*
G75*
G02*
X106280000Y-96232500I0J147500D01*
G01*
X106280000Y-95937500D01*
G75*
G02*
X106427500Y-95790000I147500J0D01*
G01*
G37*
%TD.AperFunction*%
%TD*%
%TO.P,C10,1*%
%TO.N,+3V3*%
%TA.AperFunction,SMDPad,CuDef*%
G36*
G01*
X107327500Y-94820000D02*
X107672500Y-94820000D01*
G75*
G02*
X107820000Y-94967500I0J-147500D01*
G01*
X107820000Y-95262500D01*
G75*
G02*
X107672500Y-95410000I-147500J0D01*
G01*
X107327500Y-95410000D01*
G75*
G02*
X107180000Y-95262500I0J147500D01*
G01*
X107180000Y-94967500D01*
G75*
G02*
X107327500Y-94820000I147500J0D01*
G01*
G37*
%TD.AperFunction*%
%TO.P,C10,2*%
%TO.N,GND*%
%TA.AperFunction,SMDPad,CuDef*%
G36*
G01*
X107327500Y-95790000D02*
X107672500Y-95790000D01*
G75*
G02*
X107820000Y-95937500I0J-147500D01*
G01*
X107820000Y-96232500D01*
G75*
G02*
X107672500Y-96380000I-147500J0D01*
G01*
X107327500Y-96380000D01*
G75*
G02*
X107180000Y-96232500I0J147500D01*
G01*
X107180000Y-95937500D01*
G75*
G02*
X107327500Y-95790000I147500J0D01*
G01*
G37*
%TD.AperFunction*%
%TD*%
%TO.P,C11,1*%
%TO.N,Net-(C11-Pad1)*%
%TA.AperFunction,SMDPad,CuDef*%
G36*
G01*
X105080000Y-94827500D02*
X105080000Y-95172500D01*
G75*
G02*
X104932500Y-95320000I-147500J0D01*
G01*
X104637500Y-95320000D01*
G75*
G02*
X104490000Y-95172500I0J147500D01*
G01*
X104490000Y-94827500D01*
G75*
G02*
X104637500Y-94680000I147500J0D01*
G01*
X104932500Y-94680000D01*
G75*
G02*
X105080000Y-94827500I0J-147500D01*
G01*
G37*
%TD.AperFunction*%
%TO.P,C11,2*%
%TO.N,GND*%
%TA.AperFunction,SMDPad,CuDef*%
G36*
G01*
X104110000Y-94827500D02*
X104110000Y-95172500D01*
G75*
G02*
X103962500Y-95320000I-147500J0D01*
G01*
X103667500Y-95320000D01*
G75*
G02*
X103520000Y-95172500I0J147500D01*
G01*
X103520000Y-94827500D01*
G75*
G02*
X103667500Y-94680000I147500J0D01*
G01*
X103962500Y-94680000D01*
G75*
G02*
X104110000Y-94827500I0J-147500D01*
G01*
G37*
%TD.AperFunction*%
%TD*%
%TO.P,C12,2*%
%TO.N,GND*%
%TA.AperFunction,SMDPad,CuDef*%
G36*
G01*
X104410000Y-93877500D02*
X104410000Y-94222500D01*
G75*
G02*
X104262500Y-94370000I-147500J0D01*
G01*
X103967500Y-94370000D01*
G75*
G02*
X103820000Y-94222500I0J147500D01*
G01*
X103820000Y-93877500D01*
G75*
G02*
X103967500Y-93730000I147500J0D01*
G01*
X104262500Y-93730000D01*
G75*
G02*
X104410000Y-93877500I0J-147500D01*
G01*
G37*
%TD.AperFunction*%
%TO.P,C12,1*%
%TO.N,Net-(C11-Pad1)*%
%TA.AperFunction,SMDPad,CuDef*%
G36*
G01*
X105380000Y-93877500D02*
X105380000Y-94222500D01*
G75*
G02*
X105232500Y-94370000I-147500J0D01*
G01*
X104937500Y-94370000D01*
G75*
G02*
X104790000Y-94222500I0J147500D01*
G01*
X104790000Y-93877500D01*
G75*
G02*
X104937500Y-93730000I147500J0D01*
G01*
X105232500Y-93730000D01*
G75*
G02*
X105380000Y-93877500I0J-147500D01*
G01*
G37*
%TD.AperFunction*%
%TD*%
%TO.P,C20,2*%
%TO.N,GND*%
%TA.AperFunction,SMDPad,CuDef*%
G36*
G01*
X111022500Y-84375000D02*
X110677500Y-84375000D01*
G75*
G02*
X110530000Y-84227500I0J147500D01*
G01*
X110530000Y-83932500D01*
G75*
G02*
X110677500Y-83785000I147500J0D01*
G01*
X111022500Y-83785000D01*
G75*
G02*
X111170000Y-83932500I0J-147500D01*
G01*
X111170000Y-84227500D01*
G75*
G02*
X111022500Y-84375000I-147500J0D01*
G01*
G37*
%TD.AperFunction*%
%TO.P,C20,1*%
%TO.N,Net-(C20-Pad1)*%
%TA.AperFunction,SMDPad,CuDef*%
G36*
G01*
X111022500Y-85345000D02*
X110677500Y-85345000D01*
G75*
G02*
X110530000Y-85197500I0J147500D01*
G01*
X110530000Y-84902500D01*
G75*
G02*
X110677500Y-84755000I147500J0D01*
G01*
X111022500Y-84755000D01*
G75*
G02*
X111170000Y-84902500I0J-147500D01*
G01*
X111170000Y-85197500D01*
G75*
G02*
X111022500Y-85345000I-147500J0D01*
G01*
G37*
%TD.AperFunction*%
%TD*%
%TO.P,C21,2*%
%TO.N,GND*%
%TA.AperFunction,SMDPad,CuDef*%
G36*
G01*
X110072500Y-84860000D02*
X109727500Y-84860000D01*
G75*
G02*
X109580000Y-84712500I0J147500D01*
G01*
X109580000Y-84417500D01*
G75*
G02*
X109727500Y-84270000I147500J0D01*
G01*
X110072500Y-84270000D01*
G75*
G02*
X110220000Y-84417500I0J-147500D01*
G01*
X110220000Y-84712500D01*
G75*
G02*
X110072500Y-84860000I-147500J0D01*
G01*
G37*
%TD.AperFunction*%
%TO.P,C21,1*%
%TO.N,Net-(C20-Pad1)*%
%TA.AperFunction,SMDPad,CuDef*%
G36*
G01*
X110072500Y-85830000D02*
X109727500Y-85830000D01*
G75*
G02*
X109580000Y-85682500I0J147500D01*
G01*
X109580000Y-85387500D01*
G75*
G02*
X109727500Y-85240000I147500J0D01*
G01*
X110072500Y-85240000D01*
G75*
G02*
X110220000Y-85387500I0J-147500D01*
G01*
X110220000Y-85682500D01*
G75*
G02*
X110072500Y-85830000I-147500J0D01*
G01*
G37*
%TD.AperFunction*%
%TD*%
%TO.P,C22,1*%
%TO.N,Net-(C22-Pad1)*%
%TA.AperFunction,SMDPad,CuDef*%
G36*
G01*
X106172500Y-86630000D02*
X105827500Y-86630000D01*
G75*
G02*
X105680000Y-86482500I0J147500D01*
G01*
X105680000Y-86187500D01*
G75*
G02*
X105827500Y-86040000I147500J0D01*
G01*
X106172500Y-86040000D01*
G75*
G02*
X106320000Y-86187500I0J-147500D01*
G01*
X106320000Y-86482500D01*
G75*
G02*
X106172500Y-86630000I-147500J0D01*
G01*
G37*
%TD.AperFunction*%
%TO.P,C22,2*%
%TO.N,GND*%
%TA.AperFunction,SMDPad,CuDef*%
G36*
G01*
X106172500Y-85660000D02*
X105827500Y-85660000D01*
G75*
G02*
X105680000Y-85512500I0J147500D01*
G01*
X105680000Y-85217500D01*
G75*
G02*
X105827500Y-85070000I147500J0D01*
G01*
X106172500Y-85070000D01*
G75*
G02*
X106320000Y-85217500I0J-147500D01*
G01*
X106320000Y-85512500D01*
G75*
G02*
X106172500Y-85660000I-147500J0D01*
G01*
G37*
%TD.AperFunction*%
%TD*%
%TO.P,C23,2*%
%TO.N,GND*%
%TA.AperFunction,SMDPad,CuDef*%
G36*
G01*
X105222500Y-85175000D02*
X104877500Y-85175000D01*
G75*
G02*
X104730000Y-85027500I0J147500D01*
G01*
X104730000Y-84732500D01*
G75*
G02*
X104877500Y-84585000I147500J0D01*
G01*
X105222500Y-84585000D01*
G75*
G02*
X105370000Y-84732500I0J-147500D01*
G01*
X105370000Y-85027500D01*
G75*
G02*
X105222500Y-85175000I-147500J0D01*
G01*
G37*
%TD.AperFunction*%
%TO.P,C23,1*%
%TO.N,Net-(C22-Pad1)*%
%TA.AperFunction,SMDPad,CuDef*%
G36*
G01*
X105222500Y-86145000D02*
X104877500Y-86145000D01*
G75*
G02*
X104730000Y-85997500I0J147500D01*
G01*
X104730000Y-85702500D01*
G75*
G02*
X104877500Y-85555000I147500J0D01*
G01*
X105222500Y-85555000D01*
G75*
G02*
X105370000Y-85702500I0J-147500D01*
G01*
X105370000Y-85997500D01*
G75*
G02*
X105222500Y-86145000I-147500J0D01*
G01*
G37*
%TD.AperFunction*%
%TD*%
%TO.P,C24,2*%
%TO.N,GND*%
%TA.AperFunction,SMDPad,CuDef*%
G36*
G01*
X108475000Y-86722500D02*
X108475000Y-86377500D01*
G75*
G02*
X108622500Y-86230000I147500J0D01*
G01*
X108917500Y-86230000D01*
G75*
G02*
X109065000Y-86377500I0J-147500D01*
G01*
X109065000Y-86722500D01*
G75*
G02*
X108917500Y-86870000I-147500J0D01*
G01*
X108622500Y-86870000D01*
G75*
G02*
X108475000Y-86722500I0J147500D01*
G01*
G37*
%TD.AperFunction*%
%TO.P,C24,1*%
%TO.N,Net-(C24-Pad1)*%
%TA.AperFunction,SMDPad,CuDef*%
G36*
G01*
X107505000Y-86722500D02*
X107505000Y-86377500D01*
G75*
G02*
X107652500Y-86230000I147500J0D01*
G01*
X107947500Y-86230000D01*
G75*
G02*
X108095000Y-86377500I0J-147500D01*
G01*
X108095000Y-86722500D01*
G75*
G02*
X107947500Y-86870000I-147500J0D01*
G01*
X107652500Y-86870000D01*
G75*
G02*
X107505000Y-86722500I0J147500D01*
G01*
G37*
%TD.AperFunction*%
%TD*%
%TO.P,C27,1*%
%TO.N,Net-(C27-Pad1)*%
%TA.AperFunction,SMDPad,CuDef*%
G36*
G01*
X107505000Y-81172500D02*
X107505000Y-80827500D01*
G75*
G02*
X107652500Y-80680000I147500J0D01*
G01*
X107947500Y-80680000D01*
G75*
G02*
X108095000Y-80827500I0J-147500D01*
G01*
X108095000Y-81172500D01*
G75*
G02*
X107947500Y-81320000I-147500J0D01*
G01*
X107652500Y-81320000D01*
G75*
G02*
X107505000Y-81172500I0J147500D01*
G01*
G37*
%TD.AperFunction*%
%TO.P,C27,2*%
%TO.N,GND*%
%TA.AperFunction,SMDPad,CuDef*%
G36*
G01*
X108475000Y-81172500D02*
X108475000Y-80827500D01*
G75*
G02*
X108622500Y-80680000I147500J0D01*
G01*
X108917500Y-80680000D01*
G75*
G02*
X109065000Y-80827500I0J-147500D01*
G01*
X109065000Y-81172500D01*
G75*
G02*
X108917500Y-81320000I-147500J0D01*
G01*
X108622500Y-81320000D01*
G75*
G02*
X108475000Y-81172500I0J147500D01*
G01*
G37*
%TD.AperFunction*%
%TD*%
%TO.P,L3,1*%
%TO.N,Net-(C20-Pad1)*%
%TA.AperFunction,SMDPad,CuDef*%
G36*
G01*
X112022500Y-84845000D02*
X111677500Y-84845000D01*
G75*
G02*
X111530000Y-84697500I0J147500D01*
G01*
X111530000Y-84402500D01*
G75*
G02*
X111677500Y-84255000I147500J0D01*
G01*
X112022500Y-84255000D01*
G75*
G02*
X112170000Y-84402500I0J-147500D01*
G01*
X112170000Y-84697500D01*
G75*
G02*
X112022500Y-84845000I-147500J0D01*
G01*
G37*
%TD.AperFunction*%
%TO.P,L3,2*%
%TO.N,+3V3*%
%TA.AperFunction,SMDPad,CuDef*%
G36*
G01*
X112022500Y-83875000D02*
X111677500Y-83875000D01*
G75*
G02*
X111530000Y-83727500I0J147500D01*
G01*
X111530000Y-83432500D01*
G75*
G02*
X111677500Y-83285000I147500J0D01*
G01*
X112022500Y-83285000D01*
G75*
G02*
X112170000Y-83432500I0J-147500D01*
G01*
X112170000Y-83727500D01*
G75*
G02*
X112022500Y-83875000I-147500J0D01*
G01*
G37*
%TD.AperFunction*%
%TD*%
%TO.P,L4,1*%
%TO.N,Net-(C22-Pad1)*%
%TA.AperFunction,SMDPad,CuDef*%
G36*
G01*
X104272500Y-85695000D02*
X103927500Y-85695000D01*
G75*
G02*
X103780000Y-85547500I0J147500D01*
G01*
X103780000Y-85252500D01*
G75*
G02*
X103927500Y-85105000I147500J0D01*
G01*
X104272500Y-85105000D01*
G75*
G02*
X104420000Y-85252500I0J-147500D01*
G01*
X104420000Y-85547500D01*
G75*
G02*
X104272500Y-85695000I-147500J0D01*
G01*
G37*
%TD.AperFunction*%
%TO.P,L4,2*%
%TO.N,+3V3*%
%TA.AperFunction,SMDPad,CuDef*%
G36*
G01*
X104272500Y-84725000D02*
X103927500Y-84725000D01*
G75*
G02*
X103780000Y-84577500I0J147500D01*
G01*
X103780000Y-84282500D01*
G75*
G02*
X103927500Y-84135000I147500J0D01*
G01*
X104272500Y-84135000D01*
G75*
G02*
X104420000Y-84282500I0J-147500D01*
G01*
X104420000Y-84577500D01*
G75*
G02*
X104272500Y-84725000I-147500J0D01*
G01*
G37*
%TD.AperFunction*%
%TD*%
%TO.P,L5,2*%
%TO.N,Net-(C25-Pad1)*%
%TA.AperFunction,SMDPad,CuDef*%
G36*
G01*
X107972500Y-84960000D02*
X107627500Y-84960000D01*
G75*
G02*
X107480000Y-84812500I0J147500D01*
G01*
X107480000Y-84517500D01*
G75*
G02*
X107627500Y-84370000I147500J0D01*
G01*
X107972500Y-84370000D01*
G75*
G02*
X108120000Y-84517500I0J-147500D01*
G01*
X108120000Y-84812500D01*
G75*
G02*
X107972500Y-84960000I-147500J0D01*
G01*
G37*
%TD.AperFunction*%
%TO.P,L5,1*%
%TO.N,Net-(C24-Pad1)*%
%TA.AperFunction,SMDPad,CuDef*%
G36*
G01*
X107972500Y-85930000D02*
X107627500Y-85930000D01*
G75*
G02*
X107480000Y-85782500I0J147500D01*
G01*
X107480000Y-85487500D01*
G75*
G02*
X107627500Y-85340000I147500J0D01*
G01*
X107972500Y-85340000D01*
G75*
G02*
X108120000Y-85487500I0J-147500D01*
G01*
X108120000Y-85782500D01*
G75*
G02*
X107972500Y-85930000I-147500J0D01*
G01*
G37*
%TD.AperFunction*%
%TD*%
%TO.P,L6,2*%
%TO.N,Net-(C27-Pad1)*%
%TA.AperFunction,SMDPad,CuDef*%
G36*
G01*
X107972500Y-82175000D02*
X107627500Y-82175000D01*
G75*
G02*
X107480000Y-82027500I0J147500D01*
G01*
X107480000Y-81732500D01*
G75*
G02*
X107627500Y-81585000I147500J0D01*
G01*
X107972500Y-81585000D01*
G75*
G02*
X108120000Y-81732500I0J-147500D01*
G01*
X108120000Y-82027500D01*
G75*
G02*
X107972500Y-82175000I-147500J0D01*
G01*
G37*
%TD.AperFunction*%
%TO.P,L6,1*%
%TO.N,Net-(C25-Pad1)*%
%TA.AperFunction,SMDPad,CuDef*%
G36*
G01*
X107972500Y-83145000D02*
X107627500Y-83145000D01*
G75*
G02*
X107480000Y-82997500I0J147500D01*
G01*
X107480000Y-82702500D01*
G75*
G02*
X107627500Y-82555000I147500J0D01*
G01*
X107972500Y-82555000D01*
G75*
G02*
X108120000Y-82702500I0J-147500D01*
G01*
X108120000Y-82997500D01*
G75*
G02*
X107972500Y-83145000I-147500J0D01*
G01*
G37*
%TD.AperFunction*%
%TD*%
%TO.P,R1,1*%
%TO.N,+3V3*%
%TA.AperFunction,SMDPad,CuDef*%
G36*
G01*
X113230000Y-85577500D02*
X113230000Y-85922500D01*
G75*
G02*
X113082500Y-86070000I-147500J0D01*
G01*
X112787500Y-86070000D01*
G75*
G02*
X112640000Y-85922500I0J147500D01*
G01*
X112640000Y-85577500D01*
G75*
G02*
X112787500Y-85430000I147500J0D01*
G01*
X113082500Y-85430000D01*
G75*
G02*
X113230000Y-85577500I0J-147500D01*
G01*
G37*
%TD.AperFunction*%
%TO.P,R1,2*%
%TO.N,RST*%
%TA.AperFunction,SMDPad,CuDef*%
G36*
G01*
X112260000Y-85577500D02*
X112260000Y-85922500D01*
G75*
G02*
X112112500Y-86070000I-147500J0D01*
G01*
X111817500Y-86070000D01*
G75*
G02*
X111670000Y-85922500I0J147500D01*
G01*
X111670000Y-85577500D01*
G75*
G02*
X111817500Y-85430000I147500J0D01*
G01*
X112112500Y-85430000D01*
G75*
G02*
X112260000Y-85577500I0J-147500D01*
G01*
G37*
%TD.AperFunction*%
%TD*%
%TO.P,U3,1*%
%TO.N,PC00*%
%TA.AperFunction,SMDPad,CuDef*%
G36*
G01*
X110100000Y-91900000D02*
X110100000Y-92000000D01*
G75*
G02*
X110050000Y-92050000I-50000J0D01*
G01*
X109350000Y-92050000D01*
G75*
G02*
X109300000Y-92000000I0J50000D01*
G01*
X109300000Y-91900000D01*
G75*
G02*
X109350000Y-91850000I50000J0D01*
G01*
X110050000Y-91850000D01*
G75*
G02*
X110100000Y-91900000I0J-50000D01*
G01*
G37*
%TD.AperFunction*%
%TO.P,U3,2*%
%TO.N,PC01*%
%TA.AperFunction,SMDPad,CuDef*%
G36*
G01*
X110100000Y-91500000D02*
X110100000Y-91600000D01*
G75*
G02*
X110050000Y-91650000I-50000J0D01*
G01*
X109350000Y-91650000D01*
G75*
G02*
X109300000Y-91600000I0J50000D01*
G01*
X109300000Y-91500000D01*
G75*
G02*
X109350000Y-91450000I50000J0D01*
G01*
X110050000Y-91450000D01*
G75*
G02*
X110100000Y-91500000I0J-50000D01*
G01*
G37*
%TD.AperFunction*%
%TO.P,U3,3*%
%TO.N,PC02*%
%TA.AperFunction,SMDPad,CuDef*%
G36*
G01*
X110100000Y-91100000D02*
X110100000Y-91200000D01*
G75*
G02*
X110050000Y-91250000I-50000J0D01*
G01*
X109350000Y-91250000D01*
G75*
G02*
X109300000Y-91200000I0J50000D01*
G01*
X109300000Y-91100000D01*
G75*
G02*
X109350000Y-91050000I50000J0D01*
G01*
X110050000Y-91050000D01*
G75*
G02*
X110100000Y-91100000I0J-50000D01*
G01*
G37*
%TD.AperFunction*%
%TO.P,U3,4*%
%TO.N,PC03*%
%TA.AperFunction,SMDPad,CuDef*%
G36*
G01*
X110100000Y-90700000D02*
X110100000Y-90800000D01*
G75*
G02*
X110050000Y-90850000I-50000J0D01*
G01*
X109350000Y-90850000D01*
G75*
G02*
X109300000Y-90800000I0J50000D01*
G01*
X109300000Y-90700000D01*
G75*
G02*
X109350000Y-90650000I50000J0D01*
G01*
X110050000Y-90650000D01*
G75*
G02*
X110100000Y-90700000I0J-50000D01*
G01*
G37*
%TD.AperFunction*%
%TO.P,U3,5*%
%TO.N,PC04*%
%TA.AperFunction,SMDPad,CuDef*%
G36*
G01*
X110100000Y-90300000D02*
X110100000Y-90400000D01*
G75*
G02*
X110050000Y-90450000I-50000J0D01*
G01*
X109350000Y-90450000D01*
G75*
G02*
X109300000Y-90400000I0J50000D01*
G01*
X109300000Y-90300000D01*
G75*
G02*
X109350000Y-90250000I50000J0D01*
G01*
X110050000Y-90250000D01*
G75*
G02*
X110100000Y-90300000I0J-50000D01*
G01*
G37*
%TD.AperFunction*%
%TO.P,U3,6*%
%TO.N,PC05*%
%TA.AperFunction,SMDPad,CuDef*%
G36*
G01*
X110100000Y-89900000D02*
X110100000Y-90000000D01*
G75*
G02*
X110050000Y-90050000I-50000J0D01*
G01*
X109350000Y-90050000D01*
G75*
G02*
X109300000Y-90000000I0J50000D01*
G01*
X109300000Y-89900000D01*
G75*
G02*
X109350000Y-89850000I50000J0D01*
G01*
X110050000Y-89850000D01*
G75*
G02*
X110100000Y-89900000I0J-50000D01*
G01*
G37*
%TD.AperFunction*%
%TO.P,U3,7*%
%TO.N,Net-(U3-Pad7)*%
%TA.AperFunction,SMDPad,CuDef*%
G36*
G01*
X110100000Y-89500000D02*
X110100000Y-89600000D01*
G75*
G02*
X110050000Y-89650000I-50000J0D01*
G01*
X109350000Y-89650000D01*
G75*
G02*
X109300000Y-89600000I0J50000D01*
G01*
X109300000Y-89500000D01*
G75*
G02*
X109350000Y-89450000I50000J0D01*
G01*
X110050000Y-89450000D01*
G75*
G02*
X110100000Y-89500000I0J-50000D01*
G01*
G37*
%TD.AperFunction*%
%TO.P,U3,8*%
%TO.N,Net-(U3-Pad8)*%
%TA.AperFunction,SMDPad,CuDef*%
G36*
G01*
X110100000Y-89100000D02*
X110100000Y-89200000D01*
G75*
G02*
X110050000Y-89250000I-50000J0D01*
G01*
X109350000Y-89250000D01*
G75*
G02*
X109300000Y-89200000I0J50000D01*
G01*
X109300000Y-89100000D01*
G75*
G02*
X109350000Y-89050000I50000J0D01*
G01*
X110050000Y-89050000D01*
G75*
G02*
X110100000Y-89100000I0J-50000D01*
G01*
G37*
%TD.AperFunction*%
%TO.P,U3,9*%
%TO.N,RST*%
%TA.AperFunction,SMDPad,CuDef*%
G36*
G01*
X109100000Y-88100000D02*
X109100000Y-88800000D01*
G75*
G02*
X109050000Y-88850000I-50000J0D01*
G01*
X108950000Y-88850000D01*
G75*
G02*
X108900000Y-88800000I0J50000D01*
G01*
X108900000Y-88100000D01*
G75*
G02*
X108950000Y-88050000I50000J0D01*
G01*
X109050000Y-88050000D01*
G75*
G02*
X109100000Y-88100000I0J-50000D01*
G01*
G37*
%TD.AperFunction*%
%TO.P,U3,10*%
%TO.N,Net-(C20-Pad1)*%
%TA.AperFunction,SMDPad,CuDef*%
G36*
G01*
X108700000Y-88100000D02*
X108700000Y-88800000D01*
G75*
G02*
X108650000Y-88850000I-50000J0D01*
G01*
X108550000Y-88850000D01*
G75*
G02*
X108500000Y-88800000I0J50000D01*
G01*
X108500000Y-88100000D01*
G75*
G02*
X108550000Y-88050000I50000J0D01*
G01*
X108650000Y-88050000D01*
G75*
G02*
X108700000Y-88100000I0J-50000D01*
G01*
G37*
%TD.AperFunction*%
%TO.P,U3,11*%
%TO.N,GND*%
%TA.AperFunction,SMDPad,CuDef*%
G36*
G01*
X108300000Y-88100000D02*
X108300000Y-88800000D01*
G75*
G02*
X108250000Y-88850000I-50000J0D01*
G01*
X108150000Y-88850000D01*
G75*
G02*
X108100000Y-88800000I0J50000D01*
G01*
X108100000Y-88100000D01*
G75*
G02*
X108150000Y-88050000I50000J0D01*
G01*
X108250000Y-88050000D01*
G75*
G02*
X108300000Y-88100000I0J-50000D01*
G01*
G37*
%TD.AperFunction*%
%TO.P,U3,12*%
%TO.N,Net-(C24-Pad1)*%
%TA.AperFunction,SMDPad,CuDef*%
G36*
G01*
X107900000Y-88100000D02*
X107900000Y-88800000D01*
G75*
G02*
X107850000Y-88850000I-50000J0D01*
G01*
X107750000Y-88850000D01*
G75*
G02*
X107700000Y-88800000I0J50000D01*
G01*
X107700000Y-88100000D01*
G75*
G02*
X107750000Y-88050000I50000J0D01*
G01*
X107850000Y-88050000D01*
G75*
G02*
X107900000Y-88100000I0J-50000D01*
G01*
G37*
%TD.AperFunction*%
%TO.P,U3,13*%
%TO.N,GND*%
%TA.AperFunction,SMDPad,CuDef*%
G36*
G01*
X107500000Y-88100000D02*
X107500000Y-88800000D01*
G75*
G02*
X107450000Y-88850000I-50000J0D01*
G01*
X107350000Y-88850000D01*
G75*
G02*
X107300000Y-88800000I0J50000D01*
G01*
X107300000Y-88100000D01*
G75*
G02*
X107350000Y-88050000I50000J0D01*
G01*
X107450000Y-88050000D01*
G75*
G02*
X107500000Y-88100000I0J-50000D01*
G01*
G37*
%TD.AperFunction*%
%TO.P,U3,14*%
%TO.N,Net-(C22-Pad1)*%
%TA.AperFunction,SMDPad,CuDef*%
G36*
G01*
X107100000Y-88100000D02*
X107100000Y-88800000D01*
G75*
G02*
X107050000Y-88850000I-50000J0D01*
G01*
X106950000Y-88850000D01*
G75*
G02*
X106900000Y-88800000I0J50000D01*
G01*
X106900000Y-88100000D01*
G75*
G02*
X106950000Y-88050000I50000J0D01*
G01*
X107050000Y-88050000D01*
G75*
G02*
X107100000Y-88100000I0J-50000D01*
G01*
G37*
%TD.AperFunction*%
%TO.P,U3,15*%
%TO.N,PB01*%
%TA.AperFunction,SMDPad,CuDef*%
G36*
G01*
X106700000Y-88100000D02*
X106700000Y-88800000D01*
G75*
G02*
X106650000Y-88850000I-50000J0D01*
G01*
X106550000Y-88850000D01*
G75*
G02*
X106500000Y-88800000I0J50000D01*
G01*
X106500000Y-88100000D01*
G75*
G02*
X106550000Y-88050000I50000J0D01*
G01*
X106650000Y-88050000D01*
G75*
G02*
X106700000Y-88100000I0J-50000D01*
G01*
G37*
%TD.AperFunction*%
%TO.P,U3,16*%
%TO.N,PB00*%
%TA.AperFunction,SMDPad,CuDef*%
G36*
G01*
X106300000Y-88100000D02*
X106300000Y-88800000D01*
G75*
G02*
X106250000Y-88850000I-50000J0D01*
G01*
X106150000Y-88850000D01*
G75*
G02*
X106100000Y-88800000I0J50000D01*
G01*
X106100000Y-88100000D01*
G75*
G02*
X106150000Y-88050000I50000J0D01*
G01*
X106250000Y-88050000D01*
G75*
G02*
X106300000Y-88100000I0J-50000D01*
G01*
G37*
%TD.AperFunction*%
%TO.P,U3,17*%
%TO.N,PA00*%
%TA.AperFunction,SMDPad,CuDef*%
G36*
G01*
X105900000Y-89100000D02*
X105900000Y-89200000D01*
G75*
G02*
X105850000Y-89250000I-50000J0D01*
G01*
X105150000Y-89250000D01*
G75*
G02*
X105100000Y-89200000I0J50000D01*
G01*
X105100000Y-89100000D01*
G75*
G02*
X105150000Y-89050000I50000J0D01*
G01*
X105850000Y-89050000D01*
G75*
G02*
X105900000Y-89100000I0J-50000D01*
G01*
G37*
%TD.AperFunction*%
%TO.P,U3,18*%
%TO.N,PA01*%
%TA.AperFunction,SMDPad,CuDef*%
G36*
G01*
X105900000Y-89500000D02*
X105900000Y-89600000D01*
G75*
G02*
X105850000Y-89650000I-50000J0D01*
G01*
X105150000Y-89650000D01*
G75*
G02*
X105100000Y-89600000I0J50000D01*
G01*
X105100000Y-89500000D01*
G75*
G02*
X105150000Y-89450000I50000J0D01*
G01*
X105850000Y-89450000D01*
G75*
G02*
X105900000Y-89500000I0J-50000D01*
G01*
G37*
%TD.AperFunction*%
%TO.P,U3,19*%
%TO.N,PA02*%
%TA.AperFunction,SMDPad,CuDef*%
G36*
G01*
X105900000Y-89900000D02*
X105900000Y-90000000D01*
G75*
G02*
X105850000Y-90050000I-50000J0D01*
G01*
X105150000Y-90050000D01*
G75*
G02*
X105100000Y-90000000I0J50000D01*
G01*
X105100000Y-89900000D01*
G75*
G02*
X105150000Y-89850000I50000J0D01*
G01*
X105850000Y-89850000D01*
G75*
G02*
X105900000Y-89900000I0J-50000D01*
G01*
G37*
%TD.AperFunction*%
%TO.P,U3,20*%
%TO.N,PA03*%
%TA.AperFunction,SMDPad,CuDef*%
G36*
G01*
X105900000Y-90300000D02*
X105900000Y-90400000D01*
G75*
G02*
X105850000Y-90450000I-50000J0D01*
G01*
X105150000Y-90450000D01*
G75*
G02*
X105100000Y-90400000I0J50000D01*
G01*
X105100000Y-90300000D01*
G75*
G02*
X105150000Y-90250000I50000J0D01*
G01*
X105850000Y-90250000D01*
G75*
G02*
X105900000Y-90300000I0J-50000D01*
G01*
G37*
%TD.AperFunction*%
%TO.P,U3,21*%
%TO.N,PA04*%
%TA.AperFunction,SMDPad,CuDef*%
G36*
G01*
X105900000Y-90700000D02*
X105900000Y-90800000D01*
G75*
G02*
X105850000Y-90850000I-50000J0D01*
G01*
X105150000Y-90850000D01*
G75*
G02*
X105100000Y-90800000I0J50000D01*
G01*
X105100000Y-90700000D01*
G75*
G02*
X105150000Y-90650000I50000J0D01*
G01*
X105850000Y-90650000D01*
G75*
G02*
X105900000Y-90700000I0J-50000D01*
G01*
G37*
%TD.AperFunction*%
%TO.P,U3,22*%
%TO.N,PA05*%
%TA.AperFunction,SMDPad,CuDef*%
G36*
G01*
X105900000Y-91100000D02*
X105900000Y-91200000D01*
G75*
G02*
X105850000Y-91250000I-50000J0D01*
G01*
X105150000Y-91250000D01*
G75*
G02*
X105100000Y-91200000I0J50000D01*
G01*
X105100000Y-91100000D01*
G75*
G02*
X105150000Y-91050000I50000J0D01*
G01*
X105850000Y-91050000D01*
G75*
G02*
X105900000Y-91100000I0J-50000D01*
G01*
G37*
%TD.AperFunction*%
%TO.P,U3,23*%
%TO.N,PA06*%
%TA.AperFunction,SMDPad,CuDef*%
G36*
G01*
X105900000Y-91500000D02*
X105900000Y-91600000D01*
G75*
G02*
X105850000Y-91650000I-50000J0D01*
G01*
X105150000Y-91650000D01*
G75*
G02*
X105100000Y-91600000I0J50000D01*
G01*
X105100000Y-91500000D01*
G75*
G02*
X105150000Y-91450000I50000J0D01*
G01*
X105850000Y-91450000D01*
G75*
G02*
X105900000Y-91500000I0J-50000D01*
G01*
G37*
%TD.AperFunction*%
%TO.P,U3,24*%
%TO.N,Net-(C11-Pad1)*%
%TA.AperFunction,SMDPad,CuDef*%
G36*
G01*
X105900000Y-91900000D02*
X105900000Y-92000000D01*
G75*
G02*
X105850000Y-92050000I-50000J0D01*
G01*
X105150000Y-92050000D01*
G75*
G02*
X105100000Y-92000000I0J50000D01*
G01*
X105100000Y-91900000D01*
G75*
G02*
X105150000Y-91850000I50000J0D01*
G01*
X105850000Y-91850000D01*
G75*
G02*
X105900000Y-91900000I0J-50000D01*
G01*
G37*
%TD.AperFunction*%
%TO.P,U3,25*%
%TO.N,+3V3*%
%TA.AperFunction,SMDPad,CuDef*%
G36*
G01*
X106300000Y-92300000D02*
X106300000Y-93000000D01*
G75*
G02*
X106250000Y-93050000I-50000J0D01*
G01*
X106150000Y-93050000D01*
G75*
G02*
X106100000Y-93000000I0J50000D01*
G01*
X106100000Y-92300000D01*
G75*
G02*
X106150000Y-92250000I50000J0D01*
G01*
X106250000Y-92250000D01*
G75*
G02*
X106300000Y-92300000I0J-50000D01*
G01*
G37*
%TD.AperFunction*%
%TO.P,U3,26*%
%TA.AperFunction,SMDPad,CuDef*%
G36*
G01*
X106700000Y-92300000D02*
X106700000Y-93000000D01*
G75*
G02*
X106650000Y-93050000I-50000J0D01*
G01*
X106550000Y-93050000D01*
G75*
G02*
X106500000Y-93000000I0J50000D01*
G01*
X106500000Y-92300000D01*
G75*
G02*
X106550000Y-92250000I50000J0D01*
G01*
X106650000Y-92250000D01*
G75*
G02*
X106700000Y-92300000I0J-50000D01*
G01*
G37*
%TD.AperFunction*%
%TO.P,U3,27*%
%TA.AperFunction,SMDPad,CuDef*%
G36*
G01*
X107100000Y-92300000D02*
X107100000Y-93000000D01*
G75*
G02*
X107050000Y-93050000I-50000J0D01*
G01*
X106950000Y-93050000D01*
G75*
G02*
X106900000Y-93000000I0J50000D01*
G01*
X106900000Y-92300000D01*
G75*
G02*
X106950000Y-92250000I50000J0D01*
G01*
X107050000Y-92250000D01*
G75*
G02*
X107100000Y-92300000I0J-50000D01*
G01*
G37*
%TD.AperFunction*%
%TO.P,U3,28*%
%TO.N,PD04*%
%TA.AperFunction,SMDPad,CuDef*%
G36*
G01*
X107500000Y-92300000D02*
X107500000Y-93000000D01*
G75*
G02*
X107450000Y-93050000I-50000J0D01*
G01*
X107350000Y-93050000D01*
G75*
G02*
X107300000Y-93000000I0J50000D01*
G01*
X107300000Y-92300000D01*
G75*
G02*
X107350000Y-92250000I50000J0D01*
G01*
X107450000Y-92250000D01*
G75*
G02*
X107500000Y-92300000I0J-50000D01*
G01*
G37*
%TD.AperFunction*%
%TO.P,U3,29*%
%TO.N,PD03*%
%TA.AperFunction,SMDPad,CuDef*%
G36*
G01*
X107900000Y-92300000D02*
X107900000Y-93000000D01*
G75*
G02*
X107850000Y-93050000I-50000J0D01*
G01*
X107750000Y-93050000D01*
G75*
G02*
X107700000Y-93000000I0J50000D01*
G01*
X107700000Y-92300000D01*
G75*
G02*
X107750000Y-92250000I50000J0D01*
G01*
X107850000Y-92250000D01*
G75*
G02*
X107900000Y-92300000I0J-50000D01*
G01*
G37*
%TD.AperFunction*%
%TO.P,U3,30*%
%TO.N,PD02*%
%TA.AperFunction,SMDPad,CuDef*%
G36*
G01*
X108300000Y-92300000D02*
X108300000Y-93000000D01*
G75*
G02*
X108250000Y-93050000I-50000J0D01*
G01*
X108150000Y-93050000D01*
G75*
G02*
X108100000Y-93000000I0J50000D01*
G01*
X108100000Y-92300000D01*
G75*
G02*
X108150000Y-92250000I50000J0D01*
G01*
X108250000Y-92250000D01*
G75*
G02*
X108300000Y-92300000I0J-50000D01*
G01*
G37*
%TD.AperFunction*%
%TO.P,U3,31*%
%TO.N,Net-(U3-Pad31)*%
%TA.AperFunction,SMDPad,CuDef*%
G36*
G01*
X108700000Y-92300000D02*
X108700000Y-93000000D01*
G75*
G02*
X108650000Y-93050000I-50000J0D01*
G01*
X108550000Y-93050000D01*
G75*
G02*
X108500000Y-93000000I0J50000D01*
G01*
X108500000Y-92300000D01*
G75*
G02*
X108550000Y-92250000I50000J0D01*
G01*
X108650000Y-92250000D01*
G75*
G02*
X108700000Y-92300000I0J-50000D01*
G01*
G37*
%TD.AperFunction*%
%TO.P,U3,32*%
%TO.N,Net-(U3-Pad32)*%
%TA.AperFunction,SMDPad,CuDef*%
G36*
G01*
X109100000Y-92300000D02*
X109100000Y-93000000D01*
G75*
G02*
X109050000Y-93050000I-50000J0D01*
G01*
X108950000Y-93050000D01*
G75*
G02*
X108900000Y-93000000I0J50000D01*
G01*
X108900000Y-92300000D01*
G75*
G02*
X108950000Y-92250000I50000J0D01*
G01*
X109050000Y-92250000D01*
G75*
G02*
X109100000Y-92300000I0J-50000D01*
G01*
G37*
%TD.AperFunction*%
D14*
%TO.P,U3,33*%
%TO.N,GND*%
X107600000Y-90550000D03*
%TD*%
%TA.AperFunction,SMDPad,CuDef*%
D15*
%TO.P,Y1,1*%
%TO.N,Net-(U3-Pad31)*%
G36*
X111037868Y-95310660D02*
G01*
X110189340Y-94462132D01*
X110613604Y-94037868D01*
X111462132Y-94886396D01*
X111037868Y-95310660D01*
G37*
%TD.AperFunction*%
%TA.AperFunction,SMDPad,CuDef*%
%TO.P,Y1,2*%
%TO.N,Net-(U3-Pad32)*%
G36*
X111886396Y-94462132D02*
G01*
X111037868Y-93613604D01*
X111462132Y-93189340D01*
X112310660Y-94037868D01*
X111886396Y-94462132D01*
G37*
%TD.AperFunction*%
%TD*%
D16*
%TO.P,Y2,1*%
%TO.N,Net-(U3-Pad7)*%
X111800000Y-88800000D03*
%TO.P,Y2,2*%
%TO.N,GND*%
X113200000Y-88800000D03*
%TO.P,Y2,3*%
%TO.N,Net-(U3-Pad8)*%
X113200000Y-87700000D03*
%TO.P,Y2,4*%
%TO.N,GND*%
X111800000Y-87700000D03*
%TD*%
D17*
%TO.P,J23,2*%
%TO.N,GND*%
X101775000Y-76525000D03*
D18*
%TO.P,J23,1*%
%TO.N,Net-(J23-Pad1)*%
X103300000Y-78000000D03*
D17*
%TO.P,J23,2*%
%TO.N,GND*%
X101775000Y-79475000D03*
%TD*%
D19*
%TO.N,GND*%
X107600000Y-90550000D03*
X110700000Y-88150000D03*
X113200000Y-89550000D03*
X108500000Y-89650000D03*
X106625000Y-89650000D03*
X106900000Y-80000000D03*
X106900000Y-81270000D03*
X106900000Y-82540000D03*
X106900000Y-85080000D03*
X108800000Y-82000000D03*
X108800000Y-83270000D03*
X108800000Y-84540000D03*
X106000000Y-79250000D03*
X104850000Y-78900000D03*
X104800000Y-77150000D03*
X106300000Y-77400000D03*
X108800000Y-77500000D03*
X109950000Y-77150000D03*
X109950000Y-79050000D03*
X108750000Y-80000000D03*
X104000000Y-79950000D03*
X104050000Y-75850000D03*
X114020000Y-81950000D03*
X115290000Y-81949999D03*
X112690000Y-81949999D03*
X110749999Y-79910000D03*
X110750000Y-81180000D03*
X105320000Y-75850000D03*
X106590000Y-75850000D03*
X107860000Y-75850000D03*
X109130000Y-75850000D03*
X110400000Y-75850000D03*
X105050006Y-82700000D03*
X103500000Y-96075000D03*
X110225000Y-96300000D03*
X110950000Y-97225000D03*
X106000000Y-98175000D03*
%TO.N,+3V3*%
X106050000Y-94350000D03*
X104100000Y-83725000D03*
X112625000Y-84925000D03*
%TO.N,PA06*%
X104125010Y-93000000D03*
%TO.N,PD03*%
X108425000Y-94725000D03*
%TO.N,PD04*%
X107700000Y-94300000D03*
%TD*%
D20*
%TO.N,Net-(AE1-Pad1)*%
X108792893Y-78707106D02*
X108500000Y-79000000D01*
X110500000Y-78000000D02*
X111700000Y-78000000D01*
X110310582Y-78007441D02*
X110500000Y-78000000D01*
X110122333Y-78029722D02*
X110310582Y-78007441D01*
X109936412Y-78066704D02*
X110122333Y-78029722D01*
X109753966Y-78118159D02*
X109936412Y-78066704D01*
X109576120Y-78183770D02*
X109753966Y-78118159D01*
X109403969Y-78263132D02*
X109576120Y-78183770D01*
X109238576Y-78355757D02*
X109403969Y-78263132D01*
X109080960Y-78461072D02*
X109238576Y-78355757D01*
X108932093Y-78578430D02*
X109080960Y-78461072D01*
X108792893Y-78707106D02*
X108932093Y-78578430D01*
D21*
%TO.N,GND*%
X103950000Y-94865000D02*
X103815000Y-95000000D01*
X104115000Y-94050000D02*
X103950000Y-94215000D01*
X103950000Y-94215000D02*
X103950000Y-94865000D01*
D22*
X108200000Y-89950000D02*
X107600000Y-90550000D01*
X108200000Y-88550000D02*
X108200000Y-89950000D01*
X107400000Y-90350000D02*
X107600000Y-90550000D01*
X107400000Y-88550000D02*
X107400000Y-90350000D01*
X111800000Y-87700000D02*
X111150000Y-87700000D01*
X111150000Y-87700000D02*
X110700000Y-88150000D01*
X113200000Y-88800000D02*
X113200000Y-89550000D01*
D21*
X108700000Y-96835000D02*
X108400000Y-96535000D01*
X109300000Y-96835000D02*
X108700000Y-96835000D01*
X107950000Y-96535000D02*
X108400000Y-96535000D01*
X107500000Y-96085000D02*
X107950000Y-96535000D01*
X105200000Y-97085000D02*
X105700000Y-96585000D01*
X104800000Y-97085000D02*
X105200000Y-97085000D01*
X106600000Y-96085000D02*
X106100000Y-96585000D01*
X107060000Y-96790000D02*
X107050000Y-96800000D01*
X107060000Y-96085000D02*
X107060000Y-96790000D01*
X107060000Y-96085000D02*
X107500000Y-96085000D01*
X106600000Y-96085000D02*
X107060000Y-96085000D01*
X105515000Y-84880000D02*
X106000000Y-85365000D01*
X105050000Y-84880000D02*
X105515000Y-84880000D01*
X105050000Y-82700006D02*
X105050006Y-82700000D01*
X105050000Y-84880000D02*
X105050000Y-82700006D01*
X103815000Y-96835000D02*
X103462497Y-97187503D01*
X103815000Y-95000000D02*
X103815000Y-96835000D01*
X106100000Y-96585000D02*
X105700000Y-96585000D01*
D22*
%TO.N,+3V3*%
X106600000Y-92550000D02*
X106600000Y-94350000D01*
D21*
X106600000Y-95115000D02*
X106600000Y-94350000D01*
D22*
X107000000Y-92550000D02*
X106999992Y-92550008D01*
D21*
X109000000Y-95565000D02*
X109300000Y-95865000D01*
X108400000Y-95565000D02*
X109000000Y-95565000D01*
X107595000Y-95210000D02*
X107500000Y-95115000D01*
X107990000Y-95210000D02*
X107595000Y-95210000D01*
X108400000Y-95565000D02*
X108345000Y-95565000D01*
X108345000Y-95565000D02*
X107990000Y-95210000D01*
X105165000Y-95750000D02*
X104800000Y-96115000D01*
X105550000Y-95750000D02*
X105165000Y-95750000D01*
X105700000Y-95615000D02*
X105685000Y-95615000D01*
X105685000Y-95615000D02*
X105550000Y-95750000D01*
X105700000Y-94700000D02*
X106050000Y-94350000D01*
D22*
X106200000Y-94200000D02*
X106050000Y-94350000D01*
X106200000Y-92550000D02*
X106200000Y-94200000D01*
D21*
X106600000Y-95115000D02*
X105715000Y-95115000D01*
X105715000Y-95115000D02*
X105700000Y-95100000D01*
X105700000Y-95615000D02*
X105700000Y-95100000D01*
X105700000Y-95100000D02*
X105700000Y-94700000D01*
X106600000Y-95115000D02*
X107500000Y-95115000D01*
D22*
X107500000Y-94986601D02*
X107500000Y-95115000D01*
X107000000Y-92550000D02*
X107000000Y-94486601D01*
X107000000Y-94486601D02*
X107500000Y-94986601D01*
D21*
X104100000Y-84430000D02*
X104100000Y-83725000D01*
X112935000Y-85750000D02*
X112935000Y-85235000D01*
X112935000Y-85235000D02*
X112625000Y-84925000D01*
X112625000Y-83775000D02*
X112625000Y-84925000D01*
X111850000Y-83580000D02*
X112430000Y-83580000D01*
X112430000Y-83580000D02*
X112625000Y-83775000D01*
D22*
%TO.N,Net-(C11-Pad1)*%
X105600000Y-91950000D02*
X105600000Y-92950000D01*
D21*
X105085000Y-94700000D02*
X104785000Y-95000000D01*
X105085000Y-94050000D02*
X105085000Y-94700000D01*
X105085000Y-93465000D02*
X105350000Y-93200000D01*
X105085000Y-94050000D02*
X105085000Y-93465000D01*
D22*
X105600000Y-92950000D02*
X105350000Y-93200000D01*
D21*
%TO.N,Net-(C20-Pad1)*%
X110365000Y-85535000D02*
X109900000Y-85535000D01*
X110850000Y-85050000D02*
X110365000Y-85535000D01*
X111350000Y-85050000D02*
X110850000Y-85050000D01*
X111850000Y-84550000D02*
X111350000Y-85050000D01*
D22*
X108600000Y-88550000D02*
X108600000Y-87575000D01*
X108600000Y-87575000D02*
X108925000Y-87250000D01*
D21*
X109900000Y-85535000D02*
X109900000Y-86350000D01*
D22*
X108925000Y-87250000D02*
X109600000Y-87250000D01*
X109900000Y-86950000D02*
X109900000Y-86350000D01*
X109600000Y-87250000D02*
X109900000Y-86950000D01*
D21*
%TO.N,Net-(C22-Pad1)*%
X105535000Y-86335000D02*
X106000000Y-86335000D01*
X105050000Y-85850000D02*
X105535000Y-86335000D01*
X104550000Y-85850000D02*
X105050000Y-85850000D01*
X104100000Y-85400000D02*
X104550000Y-85850000D01*
X106000000Y-86335000D02*
X106010000Y-86335000D01*
X106000000Y-86335000D02*
X106035000Y-86335000D01*
X106035000Y-86335000D02*
X106525000Y-86825000D01*
D22*
X107000008Y-87300008D02*
X106525000Y-86825000D01*
X107000008Y-87815690D02*
X107000008Y-87300008D01*
X107000000Y-87815698D02*
X107000008Y-87815690D01*
X107000000Y-88550000D02*
X107000000Y-87815698D01*
%TO.N,Net-(C24-Pad1)*%
X107800000Y-88550000D02*
X107800000Y-87725000D01*
D20*
X107800000Y-85635000D02*
X107800000Y-86550000D01*
D23*
X107800000Y-86550000D02*
X107800000Y-87050000D01*
D20*
%TO.N,Net-(C25-Pad1)*%
X107800000Y-82850000D02*
X107800000Y-83750000D01*
X107800000Y-84665000D02*
X107800000Y-83750000D01*
D22*
%TO.N,PA06*%
X104125010Y-91999990D02*
X104125010Y-93000000D01*
X105600000Y-91550000D02*
X104575000Y-91550000D01*
X104575000Y-91550000D02*
X104125010Y-91999990D01*
%TO.N,PA05*%
X104200000Y-91150000D02*
X103525010Y-91824990D01*
X103525010Y-93715689D02*
X102800000Y-94440699D01*
X105600000Y-91150000D02*
X104200000Y-91150000D01*
X103525010Y-91824990D02*
X103525010Y-93715689D01*
X102800000Y-94440699D02*
X102800000Y-96250000D01*
D21*
X101200000Y-98500000D02*
X100600000Y-98500000D01*
X102800000Y-96250000D02*
X102800000Y-96900000D01*
X102800000Y-96900000D02*
X101200000Y-98500000D01*
D22*
%TO.N,PA04*%
X103950000Y-90750000D02*
X103125000Y-91575000D01*
X105600000Y-90750000D02*
X103950000Y-90750000D01*
X103125000Y-91575000D02*
X103125000Y-93550000D01*
X103125000Y-93550000D02*
X102350000Y-94325000D01*
X102350000Y-94325000D02*
X102350000Y-94920000D01*
D21*
X101470000Y-96500000D02*
X100600000Y-96500000D01*
X102350000Y-94920000D02*
X102350000Y-95620000D01*
X102350000Y-95620000D02*
X101470000Y-96500000D01*
D22*
%TO.N,PA03*%
X101350000Y-94500000D02*
X100600000Y-94500000D01*
X105600000Y-90350000D02*
X103750000Y-90350000D01*
X102650000Y-91450000D02*
X102650000Y-92700000D01*
X103750000Y-90350000D02*
X102650000Y-91450000D01*
D21*
X101420000Y-94500000D02*
X100600000Y-94500000D01*
X102650000Y-92700000D02*
X102650000Y-93270000D01*
X102650000Y-93270000D02*
X101420000Y-94500000D01*
D22*
%TO.N,PA02*%
X105600000Y-89950000D02*
X103575000Y-89950000D01*
X103575000Y-89950000D02*
X102180000Y-91345000D01*
D21*
X101040000Y-92500000D02*
X100600000Y-92500000D01*
X102180000Y-91345000D02*
X102180000Y-91360000D01*
X102180000Y-91360000D02*
X101040000Y-92500000D01*
D22*
%TO.N,PA01*%
X105600000Y-89550000D02*
X103400000Y-89550000D01*
X103400000Y-89550000D02*
X102450000Y-90500000D01*
D21*
X102150000Y-90500000D02*
X100600000Y-90500000D01*
D22*
X102450000Y-90500000D02*
X102150000Y-90500000D01*
D21*
%TO.N,PA00*%
X102490000Y-88500000D02*
X100600000Y-88500000D01*
D22*
X105600000Y-89150000D02*
X104500000Y-89150000D01*
X104500000Y-89150000D02*
X103850000Y-88500000D01*
D21*
X102900000Y-88500000D02*
X100600000Y-88500000D01*
D22*
X102900000Y-88500000D02*
X102490000Y-88500000D01*
X103850000Y-88500000D02*
X102900000Y-88500000D01*
%TO.N,PD02*%
X108200000Y-92550000D02*
X108200000Y-93346300D01*
X108200000Y-93346300D02*
X111000000Y-96146300D01*
D21*
X113000000Y-97450000D02*
X113000000Y-99400000D01*
X112475000Y-96925000D02*
X113000000Y-97450000D01*
X111000000Y-96146300D02*
X111778700Y-96925000D01*
X111778700Y-96925000D02*
X112475000Y-96925000D01*
D22*
%TO.N,PD03*%
X108425000Y-94165000D02*
X108425000Y-94725000D01*
X107800000Y-92550000D02*
X107800000Y-93540000D01*
X107800000Y-93540000D02*
X108425000Y-94165000D01*
%TO.N,PD04*%
X107400000Y-94000000D02*
X107700000Y-94300000D01*
X107400000Y-92550000D02*
X107400000Y-94000000D01*
D21*
%TO.N,PB00*%
X102300000Y-86500000D02*
X100600000Y-86500000D01*
D22*
X102300000Y-86500000D02*
X100360010Y-86500000D01*
X106200000Y-88550000D02*
X105225000Y-88550000D01*
X105225000Y-88550000D02*
X103175000Y-86500000D01*
D21*
X102675000Y-86500000D02*
X102300000Y-86500000D01*
D22*
X103175000Y-86500000D02*
X102675000Y-86500000D01*
%TO.N,PB01*%
X100600000Y-84500000D02*
X100360010Y-84500000D01*
D21*
X102050000Y-84500000D02*
X100600000Y-84500000D01*
X102825000Y-85275000D02*
X102050000Y-84500000D01*
D22*
X106600000Y-87650000D02*
X106600000Y-88550000D01*
X102825000Y-85275000D02*
X104825000Y-87275000D01*
X106225000Y-87275000D02*
X106600000Y-87650000D01*
X104825000Y-87275000D02*
X106225000Y-87275000D01*
%TO.N,PC05*%
X115150000Y-88500000D02*
X115500000Y-88500000D01*
D21*
X115325000Y-88500000D02*
X115500000Y-88500000D01*
D22*
X112209990Y-89959990D02*
X112450000Y-90200000D01*
X109784990Y-89959990D02*
X112209990Y-89959990D01*
X109600000Y-89950000D02*
X109775000Y-89950000D01*
X109775000Y-89950000D02*
X109784990Y-89959990D01*
D21*
X115197202Y-88500000D02*
X115400000Y-88500000D01*
X113497202Y-90200000D02*
X115197202Y-88500000D01*
X113300000Y-90200000D02*
X113497202Y-90200000D01*
X113300000Y-90200000D02*
X113000000Y-90200000D01*
D22*
X112450000Y-90200000D02*
X113000000Y-90200000D01*
%TO.N,PC04*%
X111600000Y-90350000D02*
X111950000Y-90700000D01*
X109600000Y-90350000D02*
X111600000Y-90350000D01*
X111950000Y-90700000D02*
X113250000Y-90700000D01*
D21*
X115300000Y-90700000D02*
X115500000Y-90500000D01*
X113250000Y-90700000D02*
X115300000Y-90700000D01*
X115200000Y-90700000D02*
X115400000Y-90500000D01*
X113250000Y-90700000D02*
X115200000Y-90700000D01*
D22*
%TO.N,PC03*%
X111224992Y-90749992D02*
X111825000Y-91350000D01*
X110509310Y-90749992D02*
X111224992Y-90749992D01*
X109600000Y-90750000D02*
X110509302Y-90750000D01*
X111825000Y-91350000D02*
X112550000Y-91350000D01*
X110509302Y-90750000D02*
X110509310Y-90749992D01*
X112550000Y-91350000D02*
X113150000Y-91950000D01*
D21*
X113150000Y-91950000D02*
X113575000Y-92375000D01*
X115275000Y-92375000D02*
X115400000Y-92500000D01*
X113575000Y-92375000D02*
X115275000Y-92375000D01*
%TO.N,PC02*%
X114900000Y-94500000D02*
X115500000Y-94500000D01*
X113675010Y-93275010D02*
X114900000Y-94500000D01*
D22*
X111550000Y-91775000D02*
X112175000Y-91775000D01*
X112175000Y-91775000D02*
X113675010Y-93275010D01*
X109600000Y-91150000D02*
X110925000Y-91150000D01*
X110925000Y-91150000D02*
X111550000Y-91775000D01*
D21*
%TO.N,PC01*%
X114850000Y-96500000D02*
X115500000Y-96500000D01*
X113825000Y-95475000D02*
X114850000Y-96500000D01*
D22*
X113150000Y-94800000D02*
X113825000Y-95475000D01*
X110625000Y-91550000D02*
X111250000Y-92175000D01*
X111975000Y-92175000D02*
X113150000Y-93350000D01*
X109600000Y-91550000D02*
X110625000Y-91550000D01*
X111250000Y-92175000D02*
X111975000Y-92175000D01*
X113150000Y-93350000D02*
X113150000Y-94800000D01*
%TO.N,PC00*%
X109600000Y-92250000D02*
X109925000Y-92575000D01*
X109925000Y-92575000D02*
X111775000Y-92575000D01*
X112725000Y-96200000D02*
X113800000Y-97275000D01*
X109600000Y-91950000D02*
X109600000Y-92250000D01*
X111775000Y-92575000D02*
X112725000Y-93525000D01*
X112725000Y-93525000D02*
X112725000Y-96200000D01*
D21*
X115400000Y-98414227D02*
X115400000Y-98500000D01*
X115314227Y-98500000D02*
X115400000Y-98414227D01*
X113800000Y-97275000D02*
X115025000Y-98500000D01*
X115025000Y-98500000D02*
X115314227Y-98500000D01*
D22*
%TO.N,RST*%
X109775000Y-87650000D02*
X110925000Y-86500000D01*
X109000000Y-88550000D02*
X109000000Y-87775000D01*
X109125000Y-87650000D02*
X109775000Y-87650000D01*
X109000000Y-87775000D02*
X109125000Y-87650000D01*
X111965000Y-86490000D02*
X111975000Y-86500000D01*
X111965000Y-85750000D02*
X111965000Y-86490000D01*
X110925000Y-86500000D02*
X111975000Y-86500000D01*
X112875000Y-86500000D02*
X113075000Y-86500000D01*
X111975000Y-86500000D02*
X112875000Y-86500000D01*
D21*
X113650000Y-86500000D02*
X115400000Y-86500000D01*
D22*
X113075000Y-86500000D02*
X113650000Y-86500000D01*
%TO.N,Net-(U3-Pad7)*%
X109600000Y-89550000D02*
X110350000Y-89550000D01*
X111100000Y-88800000D02*
X111800000Y-88800000D01*
X110350000Y-89550000D02*
X111100000Y-88800000D01*
%TO.N,Net-(U3-Pad8)*%
X111099990Y-86900010D02*
X109600000Y-88400000D01*
X109600000Y-88400000D02*
X109600000Y-89150000D01*
X113075010Y-86900010D02*
X111099990Y-86900010D01*
X113200000Y-87700000D02*
X113200000Y-87025000D01*
X113200000Y-87025000D02*
X113075010Y-86900010D01*
%TO.N,Net-(U3-Pad31)*%
X108600000Y-92550000D02*
X108600000Y-93180602D01*
X108600000Y-93180602D02*
X109169398Y-93750000D01*
X109901472Y-93750000D02*
X110825736Y-94674264D01*
X109169398Y-93750000D02*
X109901472Y-93750000D01*
%TO.N,Net-(U3-Pad32)*%
X110973528Y-93125000D02*
X111674264Y-93825736D01*
X109900000Y-93125000D02*
X110973528Y-93125000D01*
X109000000Y-92550000D02*
X109325000Y-92550000D01*
X109325000Y-92550000D02*
X109900000Y-93125000D01*
D20*
%TO.N,Net-(C27-Pad1)*%
X107800000Y-81880000D02*
X107800000Y-81000000D01*
X107800000Y-79700000D02*
X107800000Y-81000000D01*
%TO.N,Net-(J23-Pad1)*%
X106807106Y-78707106D02*
X107100000Y-79000000D01*
X105100000Y-78000000D02*
X103300000Y-78000000D01*
X105289416Y-78007441D02*
X105100000Y-78000000D01*
X105477666Y-78029722D02*
X105289416Y-78007441D01*
X105663586Y-78066704D02*
X105477666Y-78029722D01*
X105846032Y-78118159D02*
X105663586Y-78066704D01*
X106023879Y-78183770D02*
X105846032Y-78118159D01*
X106196029Y-78263132D02*
X106023879Y-78183770D01*
X106361422Y-78355757D02*
X106196029Y-78263132D01*
X106519038Y-78461073D02*
X106361422Y-78355757D01*
X106667905Y-78578430D02*
X106519038Y-78461073D01*
X106807106Y-78707106D02*
X106667905Y-78578430D01*
%TD*%
D24*
%TO.N,GND*%
G36*
X104499878Y-93585090D02*
G01*
X104451240Y-93676085D01*
X104421289Y-93774819D01*
X104411176Y-93877500D01*
X104411176Y-94222500D01*
X104421289Y-94325181D01*
X104427545Y-94345805D01*
X104345090Y-94389878D01*
X104265333Y-94455333D01*
X104199878Y-94535090D01*
X104151240Y-94626085D01*
X104121289Y-94724819D01*
X104111176Y-94827500D01*
X104111176Y-95172500D01*
X104121289Y-95275181D01*
X104151240Y-95373915D01*
X104199878Y-95464910D01*
X104265333Y-95544667D01*
X104291201Y-95565897D01*
X104255333Y-95595333D01*
X104189878Y-95675090D01*
X104141240Y-95766085D01*
X104111289Y-95864819D01*
X104101176Y-95967500D01*
X104101176Y-96262500D01*
X104111289Y-96365181D01*
X104141240Y-96463915D01*
X104189878Y-96554910D01*
X104255333Y-96634667D01*
X104335090Y-96700122D01*
X104426085Y-96748760D01*
X104524819Y-96778711D01*
X104627500Y-96788824D01*
X104972500Y-96788824D01*
X105075181Y-96778711D01*
X105173915Y-96748760D01*
X105264910Y-96700122D01*
X105344667Y-96634667D01*
X105410122Y-96554910D01*
X105458760Y-96463915D01*
X105488711Y-96365181D01*
X105496532Y-96285774D01*
X105527500Y-96288824D01*
X105872500Y-96288824D01*
X105975181Y-96278711D01*
X106073915Y-96248760D01*
X106164910Y-96200122D01*
X106244667Y-96134667D01*
X106310122Y-96054910D01*
X106358760Y-95963915D01*
X106388711Y-95865181D01*
X106396532Y-95785774D01*
X106427500Y-95788824D01*
X106772500Y-95788824D01*
X106875181Y-95778711D01*
X106973915Y-95748760D01*
X107050000Y-95708092D01*
X107126085Y-95748760D01*
X107224819Y-95778711D01*
X107327500Y-95788824D01*
X107672500Y-95788824D01*
X107708345Y-95785294D01*
X107711289Y-95815181D01*
X107741240Y-95913915D01*
X107789878Y-96004910D01*
X107855333Y-96084667D01*
X107935090Y-96150122D01*
X108026085Y-96198760D01*
X108124819Y-96228711D01*
X108227500Y-96238824D01*
X108572500Y-96238824D01*
X108650451Y-96231147D01*
X108689878Y-96304910D01*
X108755333Y-96384667D01*
X108835090Y-96450122D01*
X108926085Y-96498760D01*
X109024819Y-96528711D01*
X109127500Y-96538824D01*
X109472500Y-96538824D01*
X109575181Y-96528711D01*
X109673915Y-96498760D01*
X109764910Y-96450122D01*
X109844667Y-96384667D01*
X109910122Y-96304910D01*
X109958760Y-96213915D01*
X109988711Y-96115181D01*
X109998824Y-96012500D01*
X109998824Y-95819704D01*
X110503224Y-96324104D01*
X110510761Y-96348949D01*
X110559696Y-96440501D01*
X110609055Y-96500644D01*
X111387749Y-97279339D01*
X111404252Y-97299448D01*
X111461817Y-97346690D01*
X111484498Y-97365304D01*
X111576050Y-97414239D01*
X111675390Y-97444374D01*
X111778699Y-97454549D01*
X111804580Y-97452000D01*
X112256711Y-97452000D01*
X112473000Y-97668290D01*
X112473000Y-97917185D01*
X112426670Y-97941949D01*
X112270289Y-98070288D01*
X112141950Y-98226669D01*
X112046586Y-98405083D01*
X112000001Y-98558655D01*
X111953415Y-98405083D01*
X111858051Y-98226669D01*
X111729712Y-98070288D01*
X111573331Y-97941949D01*
X111394917Y-97846585D01*
X111201327Y-97787860D01*
X111000000Y-97768031D01*
X110798674Y-97787860D01*
X110605084Y-97846585D01*
X110426670Y-97941949D01*
X110270289Y-98070288D01*
X110141950Y-98226669D01*
X110046586Y-98405083D01*
X110000001Y-98558655D01*
X109953415Y-98405083D01*
X109858051Y-98226669D01*
X109729712Y-98070288D01*
X109573331Y-97941949D01*
X109394917Y-97846585D01*
X109201327Y-97787860D01*
X109000000Y-97768031D01*
X108798674Y-97787860D01*
X108605084Y-97846585D01*
X108426670Y-97941949D01*
X108270289Y-98070288D01*
X108141950Y-98226669D01*
X108046586Y-98405083D01*
X108000001Y-98558655D01*
X107953415Y-98405083D01*
X107858051Y-98226669D01*
X107729712Y-98070288D01*
X107573331Y-97941949D01*
X107394917Y-97846585D01*
X107201327Y-97787860D01*
X107000000Y-97768031D01*
X106798674Y-97787860D01*
X106605084Y-97846585D01*
X106426670Y-97941949D01*
X106270289Y-98070288D01*
X106141950Y-98226669D01*
X106046586Y-98405083D01*
X105987861Y-98598673D01*
X105973001Y-98749549D01*
X105973000Y-99563000D01*
X104027000Y-99563000D01*
X104027000Y-98749549D01*
X104012140Y-98598673D01*
X103953415Y-98405083D01*
X103858051Y-98226669D01*
X103729712Y-98070288D01*
X103573331Y-97941949D01*
X103394917Y-97846585D01*
X103201327Y-97787860D01*
X103000000Y-97768031D01*
X102798674Y-97787860D01*
X102605084Y-97846585D01*
X102591381Y-97853910D01*
X103154344Y-97290947D01*
X103174448Y-97274448D01*
X103240304Y-97194202D01*
X103289239Y-97102650D01*
X103319374Y-97003310D01*
X103327000Y-96925881D01*
X103329549Y-96900000D01*
X103327000Y-96874119D01*
X103327000Y-96224119D01*
X103319374Y-96146690D01*
X103289239Y-96047350D01*
X103277000Y-96024452D01*
X103277000Y-94638278D01*
X103845739Y-94069540D01*
X103863931Y-94054610D01*
X103881083Y-94033711D01*
X103888954Y-94024120D01*
X103923539Y-93981978D01*
X103967832Y-93899112D01*
X103995107Y-93809197D01*
X104002010Y-93739112D01*
X104002010Y-93739104D01*
X104004316Y-93715689D01*
X104002010Y-93692274D01*
X104002010Y-93665797D01*
X104058331Y-93677000D01*
X104191689Y-93677000D01*
X104322484Y-93650984D01*
X104445690Y-93599950D01*
X104538669Y-93537823D01*
X104499878Y-93585090D01*
G37*
X104499878Y-93585090D02*
X104451240Y-93676085D01*
X104421289Y-93774819D01*
X104411176Y-93877500D01*
X104411176Y-94222500D01*
X104421289Y-94325181D01*
X104427545Y-94345805D01*
X104345090Y-94389878D01*
X104265333Y-94455333D01*
X104199878Y-94535090D01*
X104151240Y-94626085D01*
X104121289Y-94724819D01*
X104111176Y-94827500D01*
X104111176Y-95172500D01*
X104121289Y-95275181D01*
X104151240Y-95373915D01*
X104199878Y-95464910D01*
X104265333Y-95544667D01*
X104291201Y-95565897D01*
X104255333Y-95595333D01*
X104189878Y-95675090D01*
X104141240Y-95766085D01*
X104111289Y-95864819D01*
X104101176Y-95967500D01*
X104101176Y-96262500D01*
X104111289Y-96365181D01*
X104141240Y-96463915D01*
X104189878Y-96554910D01*
X104255333Y-96634667D01*
X104335090Y-96700122D01*
X104426085Y-96748760D01*
X104524819Y-96778711D01*
X104627500Y-96788824D01*
X104972500Y-96788824D01*
X105075181Y-96778711D01*
X105173915Y-96748760D01*
X105264910Y-96700122D01*
X105344667Y-96634667D01*
X105410122Y-96554910D01*
X105458760Y-96463915D01*
X105488711Y-96365181D01*
X105496532Y-96285774D01*
X105527500Y-96288824D01*
X105872500Y-96288824D01*
X105975181Y-96278711D01*
X106073915Y-96248760D01*
X106164910Y-96200122D01*
X106244667Y-96134667D01*
X106310122Y-96054910D01*
X106358760Y-95963915D01*
X106388711Y-95865181D01*
X106396532Y-95785774D01*
X106427500Y-95788824D01*
X106772500Y-95788824D01*
X106875181Y-95778711D01*
X106973915Y-95748760D01*
X107050000Y-95708092D01*
X107126085Y-95748760D01*
X107224819Y-95778711D01*
X107327500Y-95788824D01*
X107672500Y-95788824D01*
X107708345Y-95785294D01*
X107711289Y-95815181D01*
X107741240Y-95913915D01*
X107789878Y-96004910D01*
X107855333Y-96084667D01*
X107935090Y-96150122D01*
X108026085Y-96198760D01*
X108124819Y-96228711D01*
X108227500Y-96238824D01*
X108572500Y-96238824D01*
X108650451Y-96231147D01*
X108689878Y-96304910D01*
X108755333Y-96384667D01*
X108835090Y-96450122D01*
X108926085Y-96498760D01*
X109024819Y-96528711D01*
X109127500Y-96538824D01*
X109472500Y-96538824D01*
X109575181Y-96528711D01*
X109673915Y-96498760D01*
X109764910Y-96450122D01*
X109844667Y-96384667D01*
X109910122Y-96304910D01*
X109958760Y-96213915D01*
X109988711Y-96115181D01*
X109998824Y-96012500D01*
X109998824Y-95819704D01*
X110503224Y-96324104D01*
X110510761Y-96348949D01*
X110559696Y-96440501D01*
X110609055Y-96500644D01*
X111387749Y-97279339D01*
X111404252Y-97299448D01*
X111461817Y-97346690D01*
X111484498Y-97365304D01*
X111576050Y-97414239D01*
X111675390Y-97444374D01*
X111778699Y-97454549D01*
X111804580Y-97452000D01*
X112256711Y-97452000D01*
X112473000Y-97668290D01*
X112473000Y-97917185D01*
X112426670Y-97941949D01*
X112270289Y-98070288D01*
X112141950Y-98226669D01*
X112046586Y-98405083D01*
X112000001Y-98558655D01*
X111953415Y-98405083D01*
X111858051Y-98226669D01*
X111729712Y-98070288D01*
X111573331Y-97941949D01*
X111394917Y-97846585D01*
X111201327Y-97787860D01*
X111000000Y-97768031D01*
X110798674Y-97787860D01*
X110605084Y-97846585D01*
X110426670Y-97941949D01*
X110270289Y-98070288D01*
X110141950Y-98226669D01*
X110046586Y-98405083D01*
X110000001Y-98558655D01*
X109953415Y-98405083D01*
X109858051Y-98226669D01*
X109729712Y-98070288D01*
X109573331Y-97941949D01*
X109394917Y-97846585D01*
X109201327Y-97787860D01*
X109000000Y-97768031D01*
X108798674Y-97787860D01*
X108605084Y-97846585D01*
X108426670Y-97941949D01*
X108270289Y-98070288D01*
X108141950Y-98226669D01*
X108046586Y-98405083D01*
X108000001Y-98558655D01*
X107953415Y-98405083D01*
X107858051Y-98226669D01*
X107729712Y-98070288D01*
X107573331Y-97941949D01*
X107394917Y-97846585D01*
X107201327Y-97787860D01*
X107000000Y-97768031D01*
X106798674Y-97787860D01*
X106605084Y-97846585D01*
X106426670Y-97941949D01*
X106270289Y-98070288D01*
X106141950Y-98226669D01*
X106046586Y-98405083D01*
X105987861Y-98598673D01*
X105973001Y-98749549D01*
X105973000Y-99563000D01*
X104027000Y-99563000D01*
X104027000Y-98749549D01*
X104012140Y-98598673D01*
X103953415Y-98405083D01*
X103858051Y-98226669D01*
X103729712Y-98070288D01*
X103573331Y-97941949D01*
X103394917Y-97846585D01*
X103201327Y-97787860D01*
X103000000Y-97768031D01*
X102798674Y-97787860D01*
X102605084Y-97846585D01*
X102591381Y-97853910D01*
X103154344Y-97290947D01*
X103174448Y-97274448D01*
X103240304Y-97194202D01*
X103289239Y-97102650D01*
X103319374Y-97003310D01*
X103327000Y-96925881D01*
X103329549Y-96900000D01*
X103327000Y-96874119D01*
X103327000Y-96224119D01*
X103319374Y-96146690D01*
X103289239Y-96047350D01*
X103277000Y-96024452D01*
X103277000Y-94638278D01*
X103845739Y-94069540D01*
X103863931Y-94054610D01*
X103881083Y-94033711D01*
X103888954Y-94024120D01*
X103923539Y-93981978D01*
X103967832Y-93899112D01*
X103995107Y-93809197D01*
X104002010Y-93739112D01*
X104002010Y-93739104D01*
X104004316Y-93715689D01*
X104002010Y-93692274D01*
X104002010Y-93665797D01*
X104058331Y-93677000D01*
X104191689Y-93677000D01*
X104322484Y-93650984D01*
X104445690Y-93599950D01*
X104538669Y-93537823D01*
X104499878Y-93585090D01*
G36*
X108246776Y-89103224D02*
G01*
X108311758Y-89156554D01*
X108385896Y-89196182D01*
X108466341Y-89220584D01*
X108550000Y-89228824D01*
X108650000Y-89228824D01*
X108733659Y-89220584D01*
X108800000Y-89200460D01*
X108866341Y-89220584D01*
X108923760Y-89226240D01*
X108929416Y-89283659D01*
X108949540Y-89350000D01*
X108929416Y-89416341D01*
X108921176Y-89500000D01*
X108921176Y-89600000D01*
X108929416Y-89683659D01*
X108949540Y-89750000D01*
X108929416Y-89816341D01*
X108921176Y-89900000D01*
X108921176Y-90000000D01*
X108929416Y-90083659D01*
X108949540Y-90150000D01*
X108929416Y-90216341D01*
X108921176Y-90300000D01*
X108921176Y-90400000D01*
X108929416Y-90483659D01*
X108949540Y-90550000D01*
X108929416Y-90616341D01*
X108921176Y-90700000D01*
X108921176Y-90800000D01*
X108929416Y-90883659D01*
X108949540Y-90950000D01*
X108929416Y-91016341D01*
X108921176Y-91100000D01*
X108921176Y-91200000D01*
X108929416Y-91283659D01*
X108949540Y-91350000D01*
X108929416Y-91416341D01*
X108921176Y-91500000D01*
X108921176Y-91600000D01*
X108929416Y-91683659D01*
X108949540Y-91750000D01*
X108929416Y-91816341D01*
X108923760Y-91873760D01*
X108866341Y-91879416D01*
X108800000Y-91899540D01*
X108733659Y-91879416D01*
X108650000Y-91871176D01*
X108550000Y-91871176D01*
X108466341Y-91879416D01*
X108400000Y-91899540D01*
X108333659Y-91879416D01*
X108250000Y-91871176D01*
X108150000Y-91871176D01*
X108066341Y-91879416D01*
X108000000Y-91899540D01*
X107933659Y-91879416D01*
X107850000Y-91871176D01*
X107750000Y-91871176D01*
X107666341Y-91879416D01*
X107600000Y-91899540D01*
X107533659Y-91879416D01*
X107450000Y-91871176D01*
X107350000Y-91871176D01*
X107266341Y-91879416D01*
X107200000Y-91899540D01*
X107133659Y-91879416D01*
X107050000Y-91871176D01*
X106950000Y-91871176D01*
X106866341Y-91879416D01*
X106800000Y-91899540D01*
X106733659Y-91879416D01*
X106650000Y-91871176D01*
X106550000Y-91871176D01*
X106466341Y-91879416D01*
X106400000Y-91899540D01*
X106333659Y-91879416D01*
X106276240Y-91873760D01*
X106270584Y-91816341D01*
X106250460Y-91750000D01*
X106270584Y-91683659D01*
X106278824Y-91600000D01*
X106278824Y-91500000D01*
X106270584Y-91416341D01*
X106250460Y-91350000D01*
X106270584Y-91283659D01*
X106278824Y-91200000D01*
X106278824Y-91100000D01*
X106270584Y-91016341D01*
X106250460Y-90950000D01*
X106270584Y-90883659D01*
X106278824Y-90800000D01*
X106278824Y-90700000D01*
X106270584Y-90616341D01*
X106250460Y-90550000D01*
X106270584Y-90483659D01*
X106278824Y-90400000D01*
X106278824Y-90300000D01*
X106270584Y-90216341D01*
X106250460Y-90150000D01*
X106270584Y-90083659D01*
X106278824Y-90000000D01*
X106278824Y-89900000D01*
X106270584Y-89816341D01*
X106250460Y-89750000D01*
X106270584Y-89683659D01*
X106278824Y-89600000D01*
X106278824Y-89500000D01*
X106270584Y-89416341D01*
X106250460Y-89350000D01*
X106270584Y-89283659D01*
X106276240Y-89226240D01*
X106333659Y-89220584D01*
X106400000Y-89200460D01*
X106466341Y-89220584D01*
X106550000Y-89228824D01*
X106650000Y-89228824D01*
X106733659Y-89220584D01*
X106800000Y-89200460D01*
X106866341Y-89220584D01*
X106950000Y-89228824D01*
X107050000Y-89228824D01*
X107133659Y-89220584D01*
X107214104Y-89196182D01*
X107288242Y-89156554D01*
X107353224Y-89103224D01*
X107400000Y-89046228D01*
X107446776Y-89103224D01*
X107511758Y-89156554D01*
X107585896Y-89196182D01*
X107666341Y-89220584D01*
X107750000Y-89228824D01*
X107850000Y-89228824D01*
X107933659Y-89220584D01*
X108014104Y-89196182D01*
X108088242Y-89156554D01*
X108153224Y-89103224D01*
X108200000Y-89046228D01*
X108246776Y-89103224D01*
G37*
X108246776Y-89103224D02*
X108311758Y-89156554D01*
X108385896Y-89196182D01*
X108466341Y-89220584D01*
X108550000Y-89228824D01*
X108650000Y-89228824D01*
X108733659Y-89220584D01*
X108800000Y-89200460D01*
X108866341Y-89220584D01*
X108923760Y-89226240D01*
X108929416Y-89283659D01*
X108949540Y-89350000D01*
X108929416Y-89416341D01*
X108921176Y-89500000D01*
X108921176Y-89600000D01*
X108929416Y-89683659D01*
X108949540Y-89750000D01*
X108929416Y-89816341D01*
X108921176Y-89900000D01*
X108921176Y-90000000D01*
X108929416Y-90083659D01*
X108949540Y-90150000D01*
X108929416Y-90216341D01*
X108921176Y-90300000D01*
X108921176Y-90400000D01*
X108929416Y-90483659D01*
X108949540Y-90550000D01*
X108929416Y-90616341D01*
X108921176Y-90700000D01*
X108921176Y-90800000D01*
X108929416Y-90883659D01*
X108949540Y-90950000D01*
X108929416Y-91016341D01*
X108921176Y-91100000D01*
X108921176Y-91200000D01*
X108929416Y-91283659D01*
X108949540Y-91350000D01*
X108929416Y-91416341D01*
X108921176Y-91500000D01*
X108921176Y-91600000D01*
X108929416Y-91683659D01*
X108949540Y-91750000D01*
X108929416Y-91816341D01*
X108923760Y-91873760D01*
X108866341Y-91879416D01*
X108800000Y-91899540D01*
X108733659Y-91879416D01*
X108650000Y-91871176D01*
X108550000Y-91871176D01*
X108466341Y-91879416D01*
X108400000Y-91899540D01*
X108333659Y-91879416D01*
X108250000Y-91871176D01*
X108150000Y-91871176D01*
X108066341Y-91879416D01*
X108000000Y-91899540D01*
X107933659Y-91879416D01*
X107850000Y-91871176D01*
X107750000Y-91871176D01*
X107666341Y-91879416D01*
X107600000Y-91899540D01*
X107533659Y-91879416D01*
X107450000Y-91871176D01*
X107350000Y-91871176D01*
X107266341Y-91879416D01*
X107200000Y-91899540D01*
X107133659Y-91879416D01*
X107050000Y-91871176D01*
X106950000Y-91871176D01*
X106866341Y-91879416D01*
X106800000Y-91899540D01*
X106733659Y-91879416D01*
X106650000Y-91871176D01*
X106550000Y-91871176D01*
X106466341Y-91879416D01*
X106400000Y-91899540D01*
X106333659Y-91879416D01*
X106276240Y-91873760D01*
X106270584Y-91816341D01*
X106250460Y-91750000D01*
X106270584Y-91683659D01*
X106278824Y-91600000D01*
X106278824Y-91500000D01*
X106270584Y-91416341D01*
X106250460Y-91350000D01*
X106270584Y-91283659D01*
X106278824Y-91200000D01*
X106278824Y-91100000D01*
X106270584Y-91016341D01*
X106250460Y-90950000D01*
X106270584Y-90883659D01*
X106278824Y-90800000D01*
X106278824Y-90700000D01*
X106270584Y-90616341D01*
X106250460Y-90550000D01*
X106270584Y-90483659D01*
X106278824Y-90400000D01*
X106278824Y-90300000D01*
X106270584Y-90216341D01*
X106250460Y-90150000D01*
X106270584Y-90083659D01*
X106278824Y-90000000D01*
X106278824Y-89900000D01*
X106270584Y-89816341D01*
X106250460Y-89750000D01*
X106270584Y-89683659D01*
X106278824Y-89600000D01*
X106278824Y-89500000D01*
X106270584Y-89416341D01*
X106250460Y-89350000D01*
X106270584Y-89283659D01*
X106276240Y-89226240D01*
X106333659Y-89220584D01*
X106400000Y-89200460D01*
X106466341Y-89220584D01*
X106550000Y-89228824D01*
X106650000Y-89228824D01*
X106733659Y-89220584D01*
X106800000Y-89200460D01*
X106866341Y-89220584D01*
X106950000Y-89228824D01*
X107050000Y-89228824D01*
X107133659Y-89220584D01*
X107214104Y-89196182D01*
X107288242Y-89156554D01*
X107353224Y-89103224D01*
X107400000Y-89046228D01*
X107446776Y-89103224D01*
X107511758Y-89156554D01*
X107585896Y-89196182D01*
X107666341Y-89220584D01*
X107750000Y-89228824D01*
X107850000Y-89228824D01*
X107933659Y-89220584D01*
X108014104Y-89196182D01*
X108088242Y-89156554D01*
X108153224Y-89103224D01*
X108200000Y-89046228D01*
X108246776Y-89103224D01*
G36*
X113768031Y-88500000D02*
G01*
X113787860Y-88701327D01*
X113846585Y-88894917D01*
X113919876Y-89032036D01*
X113278913Y-89673000D01*
X112974119Y-89673000D01*
X112896690Y-89680626D01*
X112797350Y-89710761D01*
X112774452Y-89723000D01*
X112647579Y-89723000D01*
X112563845Y-89639266D01*
X112548911Y-89621069D01*
X112476279Y-89561461D01*
X112424892Y-89533994D01*
X112460463Y-89514981D01*
X112517869Y-89467869D01*
X112564981Y-89410463D01*
X112599988Y-89344970D01*
X112621545Y-89273905D01*
X112628824Y-89200000D01*
X112628824Y-88457206D01*
X112676095Y-88471545D01*
X112750000Y-88478824D01*
X113650000Y-88478824D01*
X113723905Y-88471545D01*
X113772279Y-88456871D01*
X113768031Y-88500000D01*
G37*
X113768031Y-88500000D02*
X113787860Y-88701327D01*
X113846585Y-88894917D01*
X113919876Y-89032036D01*
X113278913Y-89673000D01*
X112974119Y-89673000D01*
X112896690Y-89680626D01*
X112797350Y-89710761D01*
X112774452Y-89723000D01*
X112647579Y-89723000D01*
X112563845Y-89639266D01*
X112548911Y-89621069D01*
X112476279Y-89561461D01*
X112424892Y-89533994D01*
X112460463Y-89514981D01*
X112517869Y-89467869D01*
X112564981Y-89410463D01*
X112599988Y-89344970D01*
X112621545Y-89273905D01*
X112628824Y-89200000D01*
X112628824Y-88457206D01*
X112676095Y-88471545D01*
X112750000Y-88478824D01*
X113650000Y-88478824D01*
X113723905Y-88471545D01*
X113772279Y-88456871D01*
X113768031Y-88500000D01*
G36*
X112371176Y-88042794D02*
G01*
X112323905Y-88028455D01*
X112250000Y-88021176D01*
X111350000Y-88021176D01*
X111276095Y-88028455D01*
X111205030Y-88050012D01*
X111139537Y-88085019D01*
X111082131Y-88132131D01*
X111035019Y-88189537D01*
X111000012Y-88255030D01*
X110978455Y-88326095D01*
X110977205Y-88338787D01*
X110916577Y-88357178D01*
X110833711Y-88401471D01*
X110761079Y-88461079D01*
X110746149Y-88479271D01*
X110387220Y-88838200D01*
X110353224Y-88796776D01*
X110288242Y-88743446D01*
X110214104Y-88703818D01*
X110133659Y-88679416D01*
X110077000Y-88673835D01*
X110077000Y-88597579D01*
X111297570Y-87377010D01*
X112371176Y-87377010D01*
X112371176Y-88042794D01*
G37*
X112371176Y-88042794D02*
X112323905Y-88028455D01*
X112250000Y-88021176D01*
X111350000Y-88021176D01*
X111276095Y-88028455D01*
X111205030Y-88050012D01*
X111139537Y-88085019D01*
X111082131Y-88132131D01*
X111035019Y-88189537D01*
X111000012Y-88255030D01*
X110978455Y-88326095D01*
X110977205Y-88338787D01*
X110916577Y-88357178D01*
X110833711Y-88401471D01*
X110761079Y-88461079D01*
X110746149Y-88479271D01*
X110387220Y-88838200D01*
X110353224Y-88796776D01*
X110288242Y-88743446D01*
X110214104Y-88703818D01*
X110133659Y-88679416D01*
X110077000Y-88673835D01*
X110077000Y-88597579D01*
X111297570Y-87377010D01*
X112371176Y-87377010D01*
X112371176Y-88042794D01*
G36*
X110871176Y-78850000D02*
G01*
X110878455Y-78923905D01*
X110900012Y-78994970D01*
X110935019Y-79060463D01*
X110982131Y-79117869D01*
X111039537Y-79164981D01*
X111073000Y-79182867D01*
X111073000Y-81500000D01*
X111075440Y-81524776D01*
X111082667Y-81548601D01*
X111094403Y-81570557D01*
X111110197Y-81589803D01*
X111129443Y-81605597D01*
X111151399Y-81617333D01*
X111175224Y-81624560D01*
X111200000Y-81627000D01*
X115563000Y-81627000D01*
X115563000Y-85473000D01*
X114749549Y-85473000D01*
X114598673Y-85487860D01*
X114405083Y-85546585D01*
X114226669Y-85641949D01*
X114070288Y-85770288D01*
X113941949Y-85926669D01*
X113917185Y-85973000D01*
X113624119Y-85973000D01*
X113603652Y-85975016D01*
X113608824Y-85922500D01*
X113608824Y-85577500D01*
X113598711Y-85474819D01*
X113568760Y-85376085D01*
X113520122Y-85285090D01*
X113462576Y-85214971D01*
X113454374Y-85131690D01*
X113424239Y-85032350D01*
X113415143Y-85015333D01*
X113375304Y-84940798D01*
X113309448Y-84860552D01*
X113301077Y-84853682D01*
X113275984Y-84727526D01*
X113224950Y-84604320D01*
X113152000Y-84495143D01*
X113152000Y-83800881D01*
X113154549Y-83775000D01*
X113144374Y-83671690D01*
X113119558Y-83589885D01*
X113114239Y-83572350D01*
X113065304Y-83480798D01*
X112999448Y-83400552D01*
X112979338Y-83384048D01*
X112820955Y-83225666D01*
X112804448Y-83205552D01*
X112724202Y-83139696D01*
X112632650Y-83090761D01*
X112533310Y-83060626D01*
X112455881Y-83053000D01*
X112430000Y-83050451D01*
X112404119Y-83053000D01*
X112385732Y-83053000D01*
X112314910Y-82994878D01*
X112223915Y-82946240D01*
X112125181Y-82916289D01*
X112022500Y-82906176D01*
X111677500Y-82906176D01*
X111574819Y-82916289D01*
X111476085Y-82946240D01*
X111385090Y-82994878D01*
X111305333Y-83060333D01*
X111239878Y-83140090D01*
X111191240Y-83231085D01*
X111161289Y-83329819D01*
X111151176Y-83432500D01*
X111151176Y-83727500D01*
X111161289Y-83830181D01*
X111191240Y-83928915D01*
X111239878Y-84019910D01*
X111276882Y-84065000D01*
X111239878Y-84110090D01*
X111191240Y-84201085D01*
X111161289Y-84299819D01*
X111151972Y-84394416D01*
X111125181Y-84386289D01*
X111022500Y-84376176D01*
X110677500Y-84376176D01*
X110574819Y-84386289D01*
X110476085Y-84416240D01*
X110385090Y-84464878D01*
X110305333Y-84530333D01*
X110239878Y-84610090D01*
X110191240Y-84701085D01*
X110161289Y-84799819D01*
X110154451Y-84869247D01*
X110072500Y-84861176D01*
X109727500Y-84861176D01*
X109624819Y-84871289D01*
X109526085Y-84901240D01*
X109435090Y-84949878D01*
X109355333Y-85015333D01*
X109289878Y-85095090D01*
X109241240Y-85186085D01*
X109211289Y-85284819D01*
X109201176Y-85387500D01*
X109201176Y-85682500D01*
X109211289Y-85785181D01*
X109241240Y-85883915D01*
X109289878Y-85974910D01*
X109355333Y-86054667D01*
X109373000Y-86069166D01*
X109373000Y-86375881D01*
X109380627Y-86453310D01*
X109410762Y-86552650D01*
X109423001Y-86575547D01*
X109423000Y-86752421D01*
X109402421Y-86773000D01*
X108948414Y-86773000D01*
X108924999Y-86770694D01*
X108901584Y-86773000D01*
X108901577Y-86773000D01*
X108840338Y-86779032D01*
X108831491Y-86779903D01*
X108804216Y-86788177D01*
X108741577Y-86807178D01*
X108658711Y-86851471D01*
X108586079Y-86911079D01*
X108571149Y-86929271D01*
X108477000Y-87023420D01*
X108477000Y-85923787D01*
X108488711Y-85885181D01*
X108498824Y-85782500D01*
X108498824Y-85487500D01*
X108488711Y-85384819D01*
X108458760Y-85286085D01*
X108410122Y-85195090D01*
X108373118Y-85150000D01*
X108410122Y-85104910D01*
X108458760Y-85013915D01*
X108488711Y-84915181D01*
X108498824Y-84812500D01*
X108498824Y-84517500D01*
X108488711Y-84414819D01*
X108477000Y-84376213D01*
X108477000Y-83138787D01*
X108488711Y-83100181D01*
X108498824Y-82997500D01*
X108498824Y-82702500D01*
X108488711Y-82599819D01*
X108458760Y-82501085D01*
X108410122Y-82410090D01*
X108373118Y-82365000D01*
X108410122Y-82319910D01*
X108458760Y-82228915D01*
X108488711Y-82130181D01*
X108498824Y-82027500D01*
X108498824Y-81732500D01*
X108488711Y-81629819D01*
X108477000Y-81591213D01*
X108477000Y-79946715D01*
X108500702Y-79902372D01*
X108530795Y-79803168D01*
X108537284Y-79737284D01*
X108603168Y-79730795D01*
X108702372Y-79700702D01*
X108793799Y-79651833D01*
X108873935Y-79586067D01*
X109086067Y-79373935D01*
X109097879Y-79359543D01*
X109262193Y-79195227D01*
X109372114Y-79093617D01*
X109479200Y-79009197D01*
X109592584Y-78933437D01*
X109711554Y-78866810D01*
X109835392Y-78809720D01*
X109963330Y-78762521D01*
X110094580Y-78725505D01*
X110228321Y-78698902D01*
X110363735Y-78682875D01*
X110513269Y-78677000D01*
X110871176Y-78677000D01*
X110871176Y-78850000D01*
G37*
X110871176Y-78850000D02*
X110878455Y-78923905D01*
X110900012Y-78994970D01*
X110935019Y-79060463D01*
X110982131Y-79117869D01*
X111039537Y-79164981D01*
X111073000Y-79182867D01*
X111073000Y-81500000D01*
X111075440Y-81524776D01*
X111082667Y-81548601D01*
X111094403Y-81570557D01*
X111110197Y-81589803D01*
X111129443Y-81605597D01*
X111151399Y-81617333D01*
X111175224Y-81624560D01*
X111200000Y-81627000D01*
X115563000Y-81627000D01*
X115563000Y-85473000D01*
X114749549Y-85473000D01*
X114598673Y-85487860D01*
X114405083Y-85546585D01*
X114226669Y-85641949D01*
X114070288Y-85770288D01*
X113941949Y-85926669D01*
X113917185Y-85973000D01*
X113624119Y-85973000D01*
X113603652Y-85975016D01*
X113608824Y-85922500D01*
X113608824Y-85577500D01*
X113598711Y-85474819D01*
X113568760Y-85376085D01*
X113520122Y-85285090D01*
X113462576Y-85214971D01*
X113454374Y-85131690D01*
X113424239Y-85032350D01*
X113415143Y-85015333D01*
X113375304Y-84940798D01*
X113309448Y-84860552D01*
X113301077Y-84853682D01*
X113275984Y-84727526D01*
X113224950Y-84604320D01*
X113152000Y-84495143D01*
X113152000Y-83800881D01*
X113154549Y-83775000D01*
X113144374Y-83671690D01*
X113119558Y-83589885D01*
X113114239Y-83572350D01*
X113065304Y-83480798D01*
X112999448Y-83400552D01*
X112979338Y-83384048D01*
X112820955Y-83225666D01*
X112804448Y-83205552D01*
X112724202Y-83139696D01*
X112632650Y-83090761D01*
X112533310Y-83060626D01*
X112455881Y-83053000D01*
X112430000Y-83050451D01*
X112404119Y-83053000D01*
X112385732Y-83053000D01*
X112314910Y-82994878D01*
X112223915Y-82946240D01*
X112125181Y-82916289D01*
X112022500Y-82906176D01*
X111677500Y-82906176D01*
X111574819Y-82916289D01*
X111476085Y-82946240D01*
X111385090Y-82994878D01*
X111305333Y-83060333D01*
X111239878Y-83140090D01*
X111191240Y-83231085D01*
X111161289Y-83329819D01*
X111151176Y-83432500D01*
X111151176Y-83727500D01*
X111161289Y-83830181D01*
X111191240Y-83928915D01*
X111239878Y-84019910D01*
X111276882Y-84065000D01*
X111239878Y-84110090D01*
X111191240Y-84201085D01*
X111161289Y-84299819D01*
X111151972Y-84394416D01*
X111125181Y-84386289D01*
X111022500Y-84376176D01*
X110677500Y-84376176D01*
X110574819Y-84386289D01*
X110476085Y-84416240D01*
X110385090Y-84464878D01*
X110305333Y-84530333D01*
X110239878Y-84610090D01*
X110191240Y-84701085D01*
X110161289Y-84799819D01*
X110154451Y-84869247D01*
X110072500Y-84861176D01*
X109727500Y-84861176D01*
X109624819Y-84871289D01*
X109526085Y-84901240D01*
X109435090Y-84949878D01*
X109355333Y-85015333D01*
X109289878Y-85095090D01*
X109241240Y-85186085D01*
X109211289Y-85284819D01*
X109201176Y-85387500D01*
X109201176Y-85682500D01*
X109211289Y-85785181D01*
X109241240Y-85883915D01*
X109289878Y-85974910D01*
X109355333Y-86054667D01*
X109373000Y-86069166D01*
X109373000Y-86375881D01*
X109380627Y-86453310D01*
X109410762Y-86552650D01*
X109423001Y-86575547D01*
X109423000Y-86752421D01*
X109402421Y-86773000D01*
X108948414Y-86773000D01*
X108924999Y-86770694D01*
X108901584Y-86773000D01*
X108901577Y-86773000D01*
X108840338Y-86779032D01*
X108831491Y-86779903D01*
X108804216Y-86788177D01*
X108741577Y-86807178D01*
X108658711Y-86851471D01*
X108586079Y-86911079D01*
X108571149Y-86929271D01*
X108477000Y-87023420D01*
X108477000Y-85923787D01*
X108488711Y-85885181D01*
X108498824Y-85782500D01*
X108498824Y-85487500D01*
X108488711Y-85384819D01*
X108458760Y-85286085D01*
X108410122Y-85195090D01*
X108373118Y-85150000D01*
X108410122Y-85104910D01*
X108458760Y-85013915D01*
X108488711Y-84915181D01*
X108498824Y-84812500D01*
X108498824Y-84517500D01*
X108488711Y-84414819D01*
X108477000Y-84376213D01*
X108477000Y-83138787D01*
X108488711Y-83100181D01*
X108498824Y-82997500D01*
X108498824Y-82702500D01*
X108488711Y-82599819D01*
X108458760Y-82501085D01*
X108410122Y-82410090D01*
X108373118Y-82365000D01*
X108410122Y-82319910D01*
X108458760Y-82228915D01*
X108488711Y-82130181D01*
X108498824Y-82027500D01*
X108498824Y-81732500D01*
X108488711Y-81629819D01*
X108477000Y-81591213D01*
X108477000Y-79946715D01*
X108500702Y-79902372D01*
X108530795Y-79803168D01*
X108537284Y-79737284D01*
X108603168Y-79730795D01*
X108702372Y-79700702D01*
X108793799Y-79651833D01*
X108873935Y-79586067D01*
X109086067Y-79373935D01*
X109097879Y-79359543D01*
X109262193Y-79195227D01*
X109372114Y-79093617D01*
X109479200Y-79009197D01*
X109592584Y-78933437D01*
X109711554Y-78866810D01*
X109835392Y-78809720D01*
X109963330Y-78762521D01*
X110094580Y-78725505D01*
X110228321Y-78698902D01*
X110363735Y-78682875D01*
X110513269Y-78677000D01*
X110871176Y-78677000D01*
X110871176Y-78850000D01*
G36*
X111073000Y-76817133D02*
G01*
X111039537Y-76835019D01*
X110982131Y-76882131D01*
X110935019Y-76939537D01*
X110900012Y-77005030D01*
X110878455Y-77076095D01*
X110871176Y-77150000D01*
X110871176Y-77323000D01*
X110519928Y-77323000D01*
X110506651Y-77322217D01*
X110486720Y-77323000D01*
X110466748Y-77323000D01*
X110453495Y-77324305D01*
X110290636Y-77330703D01*
X110264029Y-77331226D01*
X110257420Y-77332008D01*
X110250782Y-77332269D01*
X110224457Y-77335910D01*
X110049343Y-77356636D01*
X110022869Y-77359244D01*
X110016341Y-77360542D01*
X110009738Y-77361324D01*
X109983785Y-77367018D01*
X109810846Y-77401418D01*
X109784650Y-77406096D01*
X109778242Y-77407903D01*
X109771723Y-77409200D01*
X109746300Y-77416912D01*
X109576551Y-77464786D01*
X109550842Y-77471495D01*
X109544604Y-77473796D01*
X109538198Y-77475603D01*
X109513432Y-77485296D01*
X109347989Y-77546331D01*
X109322887Y-77555036D01*
X109316851Y-77557819D01*
X109310602Y-77560124D01*
X109286663Y-77571735D01*
X109126543Y-77645551D01*
X109102184Y-77656206D01*
X109096384Y-77659454D01*
X109090341Y-77662240D01*
X109067396Y-77675688D01*
X108913542Y-77761850D01*
X108890105Y-77774378D01*
X108884577Y-77778072D01*
X108878766Y-77781326D01*
X108856941Y-77796537D01*
X108710342Y-77894490D01*
X108687945Y-77908828D01*
X108682721Y-77912947D01*
X108677193Y-77916640D01*
X108656652Y-77933498D01*
X108518152Y-78042683D01*
X108496961Y-78058724D01*
X108492076Y-78063240D01*
X108486852Y-78067358D01*
X108467687Y-78085785D01*
X108347981Y-78196441D01*
X108337694Y-78204883D01*
X108323583Y-78218994D01*
X108308926Y-78232543D01*
X108300084Y-78242493D01*
X108140454Y-78402125D01*
X108126065Y-78413933D01*
X107913933Y-78626065D01*
X107848167Y-78706201D01*
X107800000Y-78796315D01*
X107751833Y-78706201D01*
X107686067Y-78626065D01*
X107473935Y-78413933D01*
X107459547Y-78402125D01*
X107299904Y-78242482D01*
X107291071Y-78232542D01*
X107276430Y-78219008D01*
X107262304Y-78204882D01*
X107252006Y-78196431D01*
X107132312Y-78085786D01*
X107113144Y-78067357D01*
X107107920Y-78063239D01*
X107103035Y-78058723D01*
X107081831Y-78042672D01*
X106943343Y-77933496D01*
X106922807Y-77916643D01*
X106917280Y-77912950D01*
X106912050Y-77908827D01*
X106889640Y-77894481D01*
X106743039Y-77796525D01*
X106721231Y-77781326D01*
X106715429Y-77778077D01*
X106709895Y-77774379D01*
X106686439Y-77761842D01*
X106532595Y-77675685D01*
X106509658Y-77662241D01*
X106503619Y-77659457D01*
X106497814Y-77656206D01*
X106473447Y-77645547D01*
X106313317Y-77571726D01*
X106289396Y-77560124D01*
X106283157Y-77557822D01*
X106277113Y-77555036D01*
X106251979Y-77546320D01*
X106086579Y-77485302D01*
X106061800Y-77475603D01*
X106055390Y-77473795D01*
X106049155Y-77471495D01*
X106023448Y-77464787D01*
X105853709Y-77416915D01*
X105828275Y-77409200D01*
X105821753Y-77407903D01*
X105815347Y-77406096D01*
X105789160Y-77401420D01*
X105616229Y-77367021D01*
X105590260Y-77361324D01*
X105583657Y-77360542D01*
X105577129Y-77359244D01*
X105550653Y-77356636D01*
X105375551Y-77335911D01*
X105349216Y-77332269D01*
X105342575Y-77332008D01*
X105335967Y-77331226D01*
X105309365Y-77330703D01*
X105146505Y-77324305D01*
X105133252Y-77323000D01*
X105113280Y-77323000D01*
X105093349Y-77322217D01*
X105080072Y-77323000D01*
X104157867Y-77323000D01*
X104139981Y-77289537D01*
X104092869Y-77232131D01*
X104035463Y-77185019D01*
X103969970Y-77150012D01*
X103898905Y-77128455D01*
X103825000Y-77121176D01*
X103297056Y-77121176D01*
X103304066Y-77050000D01*
X103302000Y-76704750D01*
X103195250Y-76598000D01*
X101848000Y-76598000D01*
X101848000Y-77370250D01*
X101954750Y-77477000D01*
X102398343Y-77477996D01*
X102396176Y-77500000D01*
X102396176Y-78500000D01*
X102398343Y-78522004D01*
X101954750Y-78523000D01*
X101848000Y-78629750D01*
X101848000Y-79402000D01*
X103195250Y-79402000D01*
X103302000Y-79295250D01*
X103304066Y-78950000D01*
X103297056Y-78878824D01*
X103825000Y-78878824D01*
X103898905Y-78871545D01*
X103969970Y-78849988D01*
X104035463Y-78814981D01*
X104092869Y-78767869D01*
X104139981Y-78710463D01*
X104157867Y-78677000D01*
X105086730Y-78677000D01*
X105236264Y-78682875D01*
X105371674Y-78698902D01*
X105505420Y-78725506D01*
X105636676Y-78762524D01*
X105764596Y-78809716D01*
X105888437Y-78866806D01*
X106007416Y-78933438D01*
X106120806Y-79009204D01*
X106227888Y-79093620D01*
X106337800Y-79195222D01*
X106502125Y-79359547D01*
X106513933Y-79373935D01*
X106726065Y-79586067D01*
X106806201Y-79651833D01*
X106897628Y-79700702D01*
X106996832Y-79730795D01*
X107062716Y-79737284D01*
X107069205Y-79803168D01*
X107099298Y-79902372D01*
X107123000Y-79946715D01*
X107123001Y-80966738D01*
X107123000Y-80966748D01*
X107123000Y-81591213D01*
X107111289Y-81629819D01*
X107101176Y-81732500D01*
X107101176Y-82027500D01*
X107111289Y-82130181D01*
X107141240Y-82228915D01*
X107189878Y-82319910D01*
X107226882Y-82365000D01*
X107189878Y-82410090D01*
X107141240Y-82501085D01*
X107111289Y-82599819D01*
X107101176Y-82702500D01*
X107101176Y-82997500D01*
X107111289Y-83100181D01*
X107123000Y-83138787D01*
X107123000Y-84376213D01*
X107111289Y-84414819D01*
X107101176Y-84517500D01*
X107101176Y-84812500D01*
X107111289Y-84915181D01*
X107141240Y-85013915D01*
X107189878Y-85104910D01*
X107226882Y-85150000D01*
X107189878Y-85195090D01*
X107141240Y-85286085D01*
X107111289Y-85384819D01*
X107101176Y-85487500D01*
X107101176Y-85782500D01*
X107111289Y-85885181D01*
X107123000Y-85923787D01*
X107123000Y-86748420D01*
X107021776Y-86647197D01*
X107014239Y-86622351D01*
X106965304Y-86530798D01*
X106915946Y-86470655D01*
X106698824Y-86253534D01*
X106698824Y-86187500D01*
X106688711Y-86084819D01*
X106658760Y-85986085D01*
X106610122Y-85895090D01*
X106544667Y-85815333D01*
X106464910Y-85749878D01*
X106373915Y-85701240D01*
X106275181Y-85671289D01*
X106172500Y-85661176D01*
X105827500Y-85661176D01*
X105745549Y-85669247D01*
X105738711Y-85599819D01*
X105708760Y-85501085D01*
X105660122Y-85410090D01*
X105594667Y-85330333D01*
X105514910Y-85264878D01*
X105423915Y-85216240D01*
X105325181Y-85186289D01*
X105222500Y-85176176D01*
X104877500Y-85176176D01*
X104792135Y-85184584D01*
X104788711Y-85149819D01*
X104758760Y-85051085D01*
X104710122Y-84960090D01*
X104673118Y-84915000D01*
X104710122Y-84869910D01*
X104758760Y-84778915D01*
X104788711Y-84680181D01*
X104798824Y-84577500D01*
X104798824Y-84282500D01*
X104788711Y-84179819D01*
X104758760Y-84081085D01*
X104717364Y-84003639D01*
X104750984Y-83922474D01*
X104777000Y-83791679D01*
X104777000Y-83658321D01*
X104750984Y-83527526D01*
X104699950Y-83404320D01*
X104625860Y-83293437D01*
X104531563Y-83199140D01*
X104420680Y-83125050D01*
X104297474Y-83074016D01*
X104166679Y-83048000D01*
X104033321Y-83048000D01*
X103902526Y-83074016D01*
X103779320Y-83125050D01*
X103668437Y-83199140D01*
X103574140Y-83293437D01*
X103500050Y-83404320D01*
X103449016Y-83527526D01*
X103423000Y-83658321D01*
X103423000Y-83791679D01*
X103449016Y-83922474D01*
X103482636Y-84003639D01*
X103441240Y-84081085D01*
X103411289Y-84179819D01*
X103401176Y-84282500D01*
X103401176Y-84577500D01*
X103411289Y-84680181D01*
X103441240Y-84778915D01*
X103489878Y-84869910D01*
X103526882Y-84915000D01*
X103489878Y-84960090D01*
X103441240Y-85051085D01*
X103411289Y-85149819D01*
X103407981Y-85183402D01*
X103321776Y-85097197D01*
X103314239Y-85072351D01*
X103265304Y-84980798D01*
X103215946Y-84920655D01*
X102440955Y-84145666D01*
X102424448Y-84125552D01*
X102344202Y-84059696D01*
X102252650Y-84010761D01*
X102153310Y-83980626D01*
X102083201Y-83973721D01*
X102058051Y-83926669D01*
X101929712Y-83770288D01*
X101773331Y-83641949D01*
X101594917Y-83546585D01*
X101401327Y-83487860D01*
X101250451Y-83473000D01*
X100437000Y-83473000D01*
X100437000Y-80356956D01*
X100510804Y-80396405D01*
X100591293Y-80420822D01*
X100675000Y-80429066D01*
X101595250Y-80427000D01*
X101702000Y-80320250D01*
X101702000Y-79548000D01*
X101848000Y-79548000D01*
X101848000Y-80320250D01*
X101954750Y-80427000D01*
X102875000Y-80429066D01*
X102958707Y-80420822D01*
X103039196Y-80396405D01*
X103113376Y-80356755D01*
X103178395Y-80303395D01*
X103231755Y-80238376D01*
X103271405Y-80164196D01*
X103295822Y-80083707D01*
X103304066Y-80000000D01*
X103302000Y-79654750D01*
X103195250Y-79548000D01*
X101848000Y-79548000D01*
X101702000Y-79548000D01*
X101682000Y-79548000D01*
X101682000Y-79402000D01*
X101702000Y-79402000D01*
X101702000Y-78629750D01*
X101595250Y-78523000D01*
X100675000Y-78520934D01*
X100591293Y-78529178D01*
X100510804Y-78553595D01*
X100437000Y-78593044D01*
X100437000Y-77406956D01*
X100510804Y-77446405D01*
X100591293Y-77470822D01*
X100675000Y-77479066D01*
X101595250Y-77477000D01*
X101702000Y-77370250D01*
X101702000Y-76598000D01*
X101682000Y-76598000D01*
X101682000Y-76452000D01*
X101702000Y-76452000D01*
X101702000Y-75679750D01*
X101848000Y-75679750D01*
X101848000Y-76452000D01*
X103195250Y-76452000D01*
X103302000Y-76345250D01*
X103304066Y-76000000D01*
X103295822Y-75916293D01*
X103271405Y-75835804D01*
X103231755Y-75761624D01*
X103178395Y-75696605D01*
X103113376Y-75643245D01*
X103039196Y-75603595D01*
X102958707Y-75579178D01*
X102875000Y-75570934D01*
X101954750Y-75573000D01*
X101848000Y-75679750D01*
X101702000Y-75679750D01*
X101595250Y-75573000D01*
X100675000Y-75570934D01*
X100591293Y-75579178D01*
X100510804Y-75603595D01*
X100437000Y-75643044D01*
X100437000Y-75437000D01*
X111073000Y-75437000D01*
X111073000Y-76817133D01*
G37*
X111073000Y-76817133D02*
X111039537Y-76835019D01*
X110982131Y-76882131D01*
X110935019Y-76939537D01*
X110900012Y-77005030D01*
X110878455Y-77076095D01*
X110871176Y-77150000D01*
X110871176Y-77323000D01*
X110519928Y-77323000D01*
X110506651Y-77322217D01*
X110486720Y-77323000D01*
X110466748Y-77323000D01*
X110453495Y-77324305D01*
X110290636Y-77330703D01*
X110264029Y-77331226D01*
X110257420Y-77332008D01*
X110250782Y-77332269D01*
X110224457Y-77335910D01*
X110049343Y-77356636D01*
X110022869Y-77359244D01*
X110016341Y-77360542D01*
X110009738Y-77361324D01*
X109983785Y-77367018D01*
X109810846Y-77401418D01*
X109784650Y-77406096D01*
X109778242Y-77407903D01*
X109771723Y-77409200D01*
X109746300Y-77416912D01*
X109576551Y-77464786D01*
X109550842Y-77471495D01*
X109544604Y-77473796D01*
X109538198Y-77475603D01*
X109513432Y-77485296D01*
X109347989Y-77546331D01*
X109322887Y-77555036D01*
X109316851Y-77557819D01*
X109310602Y-77560124D01*
X109286663Y-77571735D01*
X109126543Y-77645551D01*
X109102184Y-77656206D01*
X109096384Y-77659454D01*
X109090341Y-77662240D01*
X109067396Y-77675688D01*
X108913542Y-77761850D01*
X108890105Y-77774378D01*
X108884577Y-77778072D01*
X108878766Y-77781326D01*
X108856941Y-77796537D01*
X108710342Y-77894490D01*
X108687945Y-77908828D01*
X108682721Y-77912947D01*
X108677193Y-77916640D01*
X108656652Y-77933498D01*
X108518152Y-78042683D01*
X108496961Y-78058724D01*
X108492076Y-78063240D01*
X108486852Y-78067358D01*
X108467687Y-78085785D01*
X108347981Y-78196441D01*
X108337694Y-78204883D01*
X108323583Y-78218994D01*
X108308926Y-78232543D01*
X108300084Y-78242493D01*
X108140454Y-78402125D01*
X108126065Y-78413933D01*
X107913933Y-78626065D01*
X107848167Y-78706201D01*
X107800000Y-78796315D01*
X107751833Y-78706201D01*
X107686067Y-78626065D01*
X107473935Y-78413933D01*
X107459547Y-78402125D01*
X107299904Y-78242482D01*
X107291071Y-78232542D01*
X107276430Y-78219008D01*
X107262304Y-78204882D01*
X107252006Y-78196431D01*
X107132312Y-78085786D01*
X107113144Y-78067357D01*
X107107920Y-78063239D01*
X107103035Y-78058723D01*
X107081831Y-78042672D01*
X106943343Y-77933496D01*
X106922807Y-77916643D01*
X106917280Y-77912950D01*
X106912050Y-77908827D01*
X106889640Y-77894481D01*
X106743039Y-77796525D01*
X106721231Y-77781326D01*
X106715429Y-77778077D01*
X106709895Y-77774379D01*
X106686439Y-77761842D01*
X106532595Y-77675685D01*
X106509658Y-77662241D01*
X106503619Y-77659457D01*
X106497814Y-77656206D01*
X106473447Y-77645547D01*
X106313317Y-77571726D01*
X106289396Y-77560124D01*
X106283157Y-77557822D01*
X106277113Y-77555036D01*
X106251979Y-77546320D01*
X106086579Y-77485302D01*
X106061800Y-77475603D01*
X106055390Y-77473795D01*
X106049155Y-77471495D01*
X106023448Y-77464787D01*
X105853709Y-77416915D01*
X105828275Y-77409200D01*
X105821753Y-77407903D01*
X105815347Y-77406096D01*
X105789160Y-77401420D01*
X105616229Y-77367021D01*
X105590260Y-77361324D01*
X105583657Y-77360542D01*
X105577129Y-77359244D01*
X105550653Y-77356636D01*
X105375551Y-77335911D01*
X105349216Y-77332269D01*
X105342575Y-77332008D01*
X105335967Y-77331226D01*
X105309365Y-77330703D01*
X105146505Y-77324305D01*
X105133252Y-77323000D01*
X105113280Y-77323000D01*
X105093349Y-77322217D01*
X105080072Y-77323000D01*
X104157867Y-77323000D01*
X104139981Y-77289537D01*
X104092869Y-77232131D01*
X104035463Y-77185019D01*
X103969970Y-77150012D01*
X103898905Y-77128455D01*
X103825000Y-77121176D01*
X103297056Y-77121176D01*
X103304066Y-77050000D01*
X103302000Y-76704750D01*
X103195250Y-76598000D01*
X101848000Y-76598000D01*
X101848000Y-77370250D01*
X101954750Y-77477000D01*
X102398343Y-77477996D01*
X102396176Y-77500000D01*
X102396176Y-78500000D01*
X102398343Y-78522004D01*
X101954750Y-78523000D01*
X101848000Y-78629750D01*
X101848000Y-79402000D01*
X103195250Y-79402000D01*
X103302000Y-79295250D01*
X103304066Y-78950000D01*
X103297056Y-78878824D01*
X103825000Y-78878824D01*
X103898905Y-78871545D01*
X103969970Y-78849988D01*
X104035463Y-78814981D01*
X104092869Y-78767869D01*
X104139981Y-78710463D01*
X104157867Y-78677000D01*
X105086730Y-78677000D01*
X105236264Y-78682875D01*
X105371674Y-78698902D01*
X105505420Y-78725506D01*
X105636676Y-78762524D01*
X105764596Y-78809716D01*
X105888437Y-78866806D01*
X106007416Y-78933438D01*
X106120806Y-79009204D01*
X106227888Y-79093620D01*
X106337800Y-79195222D01*
X106502125Y-79359547D01*
X106513933Y-79373935D01*
X106726065Y-79586067D01*
X106806201Y-79651833D01*
X106897628Y-79700702D01*
X106996832Y-79730795D01*
X107062716Y-79737284D01*
X107069205Y-79803168D01*
X107099298Y-79902372D01*
X107123000Y-79946715D01*
X107123001Y-80966738D01*
X107123000Y-80966748D01*
X107123000Y-81591213D01*
X107111289Y-81629819D01*
X107101176Y-81732500D01*
X107101176Y-82027500D01*
X107111289Y-82130181D01*
X107141240Y-82228915D01*
X107189878Y-82319910D01*
X107226882Y-82365000D01*
X107189878Y-82410090D01*
X107141240Y-82501085D01*
X107111289Y-82599819D01*
X107101176Y-82702500D01*
X107101176Y-82997500D01*
X107111289Y-83100181D01*
X107123000Y-83138787D01*
X107123000Y-84376213D01*
X107111289Y-84414819D01*
X107101176Y-84517500D01*
X107101176Y-84812500D01*
X107111289Y-84915181D01*
X107141240Y-85013915D01*
X107189878Y-85104910D01*
X107226882Y-85150000D01*
X107189878Y-85195090D01*
X107141240Y-85286085D01*
X107111289Y-85384819D01*
X107101176Y-85487500D01*
X107101176Y-85782500D01*
X107111289Y-85885181D01*
X107123000Y-85923787D01*
X107123000Y-86748420D01*
X107021776Y-86647197D01*
X107014239Y-86622351D01*
X106965304Y-86530798D01*
X106915946Y-86470655D01*
X106698824Y-86253534D01*
X106698824Y-86187500D01*
X106688711Y-86084819D01*
X106658760Y-85986085D01*
X106610122Y-85895090D01*
X106544667Y-85815333D01*
X106464910Y-85749878D01*
X106373915Y-85701240D01*
X106275181Y-85671289D01*
X106172500Y-85661176D01*
X105827500Y-85661176D01*
X105745549Y-85669247D01*
X105738711Y-85599819D01*
X105708760Y-85501085D01*
X105660122Y-85410090D01*
X105594667Y-85330333D01*
X105514910Y-85264878D01*
X105423915Y-85216240D01*
X105325181Y-85186289D01*
X105222500Y-85176176D01*
X104877500Y-85176176D01*
X104792135Y-85184584D01*
X104788711Y-85149819D01*
X104758760Y-85051085D01*
X104710122Y-84960090D01*
X104673118Y-84915000D01*
X104710122Y-84869910D01*
X104758760Y-84778915D01*
X104788711Y-84680181D01*
X104798824Y-84577500D01*
X104798824Y-84282500D01*
X104788711Y-84179819D01*
X104758760Y-84081085D01*
X104717364Y-84003639D01*
X104750984Y-83922474D01*
X104777000Y-83791679D01*
X104777000Y-83658321D01*
X104750984Y-83527526D01*
X104699950Y-83404320D01*
X104625860Y-83293437D01*
X104531563Y-83199140D01*
X104420680Y-83125050D01*
X104297474Y-83074016D01*
X104166679Y-83048000D01*
X104033321Y-83048000D01*
X103902526Y-83074016D01*
X103779320Y-83125050D01*
X103668437Y-83199140D01*
X103574140Y-83293437D01*
X103500050Y-83404320D01*
X103449016Y-83527526D01*
X103423000Y-83658321D01*
X103423000Y-83791679D01*
X103449016Y-83922474D01*
X103482636Y-84003639D01*
X103441240Y-84081085D01*
X103411289Y-84179819D01*
X103401176Y-84282500D01*
X103401176Y-84577500D01*
X103411289Y-84680181D01*
X103441240Y-84778915D01*
X103489878Y-84869910D01*
X103526882Y-84915000D01*
X103489878Y-84960090D01*
X103441240Y-85051085D01*
X103411289Y-85149819D01*
X103407981Y-85183402D01*
X103321776Y-85097197D01*
X103314239Y-85072351D01*
X103265304Y-84980798D01*
X103215946Y-84920655D01*
X102440955Y-84145666D01*
X102424448Y-84125552D01*
X102344202Y-84059696D01*
X102252650Y-84010761D01*
X102153310Y-83980626D01*
X102083201Y-83973721D01*
X102058051Y-83926669D01*
X101929712Y-83770288D01*
X101773331Y-83641949D01*
X101594917Y-83546585D01*
X101401327Y-83487860D01*
X101250451Y-83473000D01*
X100437000Y-83473000D01*
X100437000Y-80356956D01*
X100510804Y-80396405D01*
X100591293Y-80420822D01*
X100675000Y-80429066D01*
X101595250Y-80427000D01*
X101702000Y-80320250D01*
X101702000Y-79548000D01*
X101848000Y-79548000D01*
X101848000Y-80320250D01*
X101954750Y-80427000D01*
X102875000Y-80429066D01*
X102958707Y-80420822D01*
X103039196Y-80396405D01*
X103113376Y-80356755D01*
X103178395Y-80303395D01*
X103231755Y-80238376D01*
X103271405Y-80164196D01*
X103295822Y-80083707D01*
X103304066Y-80000000D01*
X103302000Y-79654750D01*
X103195250Y-79548000D01*
X101848000Y-79548000D01*
X101702000Y-79548000D01*
X101682000Y-79548000D01*
X101682000Y-79402000D01*
X101702000Y-79402000D01*
X101702000Y-78629750D01*
X101595250Y-78523000D01*
X100675000Y-78520934D01*
X100591293Y-78529178D01*
X100510804Y-78553595D01*
X100437000Y-78593044D01*
X100437000Y-77406956D01*
X100510804Y-77446405D01*
X100591293Y-77470822D01*
X100675000Y-77479066D01*
X101595250Y-77477000D01*
X101702000Y-77370250D01*
X101702000Y-76598000D01*
X101682000Y-76598000D01*
X101682000Y-76452000D01*
X101702000Y-76452000D01*
X101702000Y-75679750D01*
X101848000Y-75679750D01*
X101848000Y-76452000D01*
X103195250Y-76452000D01*
X103302000Y-76345250D01*
X103304066Y-76000000D01*
X103295822Y-75916293D01*
X103271405Y-75835804D01*
X103231755Y-75761624D01*
X103178395Y-75696605D01*
X103113376Y-75643245D01*
X103039196Y-75603595D01*
X102958707Y-75579178D01*
X102875000Y-75570934D01*
X101954750Y-75573000D01*
X101848000Y-75679750D01*
X101702000Y-75679750D01*
X101595250Y-75573000D01*
X100675000Y-75570934D01*
X100591293Y-75579178D01*
X100510804Y-75603595D01*
X100437000Y-75643044D01*
X100437000Y-75437000D01*
X111073000Y-75437000D01*
X111073000Y-76817133D01*
%TO.N,Net-(C24-Pad1)*%
G36*
X107973000Y-87473049D02*
G01*
X107817466Y-87823000D01*
X107778490Y-87823000D01*
X107627000Y-87520020D01*
X107627000Y-86677000D01*
X107973000Y-86677000D01*
X107973000Y-87473049D01*
G37*
X107973000Y-87473049D02*
X107817466Y-87823000D01*
X107778490Y-87823000D01*
X107627000Y-87520020D01*
X107627000Y-86677000D01*
X107973000Y-86677000D01*
X107973000Y-87473049D01*
%TD*%
M02*
