%TF.GenerationSoftware,KiCad,Pcbnew,(5.1.6)-1*%
%TF.CreationDate,2021-01-29T18:20:16+05:30*%
%TF.ProjectId,Bluetooth_Module,426c7565-746f-46f7-9468-5f4d6f64756c,rev?*%
%TF.SameCoordinates,Original*%
%TF.FileFunction,Soldermask,Top*%
%TF.FilePolarity,Negative*%
%FSLAX46Y46*%
G04 Gerber Fmt 4.6, Leading zero omitted, Abs format (unit mm)*
G04 Created by KiCad (PCBNEW (5.1.6)-1) date 2021-01-29 18:20:16*
%MOMM*%
%LPD*%
G01*
G04 APERTURE LIST*
%ADD10O,2.600000X1.400000*%
%ADD11C,1.400000*%
%ADD12O,1.400000X2.600000*%
%ADD13R,1.000000X1.800000*%
%ADD14R,2.800000X2.800000*%
%ADD15C,0.100000*%
%ADD16R,1.000000X0.900000*%
%ADD17R,2.300000X1.150000*%
%ADD18R,1.150000X1.100000*%
G04 APERTURE END LIST*
%TO.C,C25*%
G36*
G01*
X108145000Y-83552500D02*
X108145000Y-83947500D01*
G75*
G02*
X107972500Y-84120000I-172500J0D01*
G01*
X107627500Y-84120000D01*
G75*
G02*
X107455000Y-83947500I0J172500D01*
G01*
X107455000Y-83552500D01*
G75*
G02*
X107627500Y-83380000I172500J0D01*
G01*
X107972500Y-83380000D01*
G75*
G02*
X108145000Y-83552500I0J-172500D01*
G01*
G37*
G36*
G01*
X107175000Y-83552500D02*
X107175000Y-83947500D01*
G75*
G02*
X107002500Y-84120000I-172500J0D01*
G01*
X106657500Y-84120000D01*
G75*
G02*
X106485000Y-83947500I0J172500D01*
G01*
X106485000Y-83552500D01*
G75*
G02*
X106657500Y-83380000I172500J0D01*
G01*
X107002500Y-83380000D01*
G75*
G02*
X107175000Y-83552500I0J-172500D01*
G01*
G37*
%TD*%
D10*
%TO.C,J12*%
X100600000Y-86500000D03*
D11*
X100000000Y-86500000D03*
%TD*%
D12*
%TO.C,J1*%
X103000000Y-99400000D03*
D11*
X103000000Y-100000000D03*
%TD*%
D10*
%TO.C,J2*%
X100600000Y-98500000D03*
D11*
X100000000Y-98500000D03*
%TD*%
D10*
%TO.C,J3*%
X100600000Y-96500000D03*
D11*
X100000000Y-96500000D03*
%TD*%
D10*
%TO.C,J4*%
X100600000Y-94500000D03*
D11*
X100000000Y-94500000D03*
%TD*%
D10*
%TO.C,J5*%
X100600000Y-92500000D03*
D11*
X100000000Y-92500000D03*
%TD*%
D10*
%TO.C,J6*%
X100600000Y-90500000D03*
D11*
X100000000Y-90500000D03*
%TD*%
D10*
%TO.C,J7*%
X100600000Y-88500000D03*
D11*
X100000000Y-88500000D03*
%TD*%
D12*
%TO.C,J8*%
X107000000Y-99400000D03*
D11*
X107000000Y-100000000D03*
%TD*%
D12*
%TO.C,J9*%
X113000000Y-99400000D03*
D11*
X113000000Y-100000000D03*
%TD*%
D12*
%TO.C,J10*%
X111000000Y-99400000D03*
D11*
X111000000Y-100000000D03*
%TD*%
D12*
%TO.C,J11*%
X109000000Y-99400000D03*
D11*
X109000000Y-100000000D03*
%TD*%
D10*
%TO.C,J14*%
X115400000Y-84500000D03*
D11*
X116000000Y-84500000D03*
%TD*%
D10*
%TO.C,J15*%
X115400000Y-88500000D03*
D11*
X116000000Y-88500000D03*
%TD*%
D10*
%TO.C,J16*%
X115400000Y-90500000D03*
D11*
X116000000Y-90500000D03*
%TD*%
D10*
%TO.C,J17*%
X115400000Y-92500000D03*
D11*
X116000000Y-92500000D03*
%TD*%
D10*
%TO.C,J18*%
X115400000Y-94500000D03*
D11*
X116000000Y-94500000D03*
%TD*%
D10*
%TO.C,J19*%
X115400000Y-96500000D03*
D11*
X116000000Y-96500000D03*
%TD*%
D10*
%TO.C,J20*%
X115400000Y-98500000D03*
D11*
X116000000Y-98500000D03*
%TD*%
D10*
%TO.C,J21*%
X115400000Y-86500000D03*
D11*
X116000000Y-86500000D03*
%TD*%
D12*
%TO.C,J22*%
X105000000Y-99400000D03*
D11*
X105000000Y-100000000D03*
%TD*%
D10*
%TO.C,J13*%
X100600000Y-84500000D03*
D11*
X100000000Y-84500000D03*
%TD*%
%TO.C,TP1*%
G36*
G01*
X106976256Y-79371231D02*
X106728769Y-79123744D01*
G75*
G02*
X106728769Y-78876256I123744J123744D01*
G01*
X106976256Y-78628769D01*
G75*
G02*
X107223744Y-78628769I123744J-123744D01*
G01*
X107471231Y-78876256D01*
G75*
G02*
X107471231Y-79123744I-123744J-123744D01*
G01*
X107223744Y-79371231D01*
G75*
G02*
X106976256Y-79371231I-123744J123744D01*
G01*
G37*
%TD*%
%TO.C,TP3*%
G36*
G01*
X107676256Y-80071231D02*
X107428769Y-79823744D01*
G75*
G02*
X107428769Y-79576256I123744J123744D01*
G01*
X107676256Y-79328769D01*
G75*
G02*
X107923744Y-79328769I123744J-123744D01*
G01*
X108171231Y-79576256D01*
G75*
G02*
X108171231Y-79823744I-123744J-123744D01*
G01*
X107923744Y-80071231D01*
G75*
G02*
X107676256Y-80071231I-123744J123744D01*
G01*
G37*
%TD*%
%TO.C,TP2*%
G36*
G01*
X108376256Y-79371231D02*
X108128769Y-79123744D01*
G75*
G02*
X108128769Y-78876256I123744J123744D01*
G01*
X108376256Y-78628769D01*
G75*
G02*
X108623744Y-78628769I123744J-123744D01*
G01*
X108871231Y-78876256D01*
G75*
G02*
X108871231Y-79123744I-123744J-123744D01*
G01*
X108623744Y-79371231D01*
G75*
G02*
X108376256Y-79371231I-123744J123744D01*
G01*
G37*
%TD*%
D13*
%TO.C,AE1*%
X111700000Y-78000000D03*
X115200000Y-78000000D03*
%TD*%
%TO.C,C1*%
G36*
G01*
X109102500Y-96490000D02*
X109497500Y-96490000D01*
G75*
G02*
X109670000Y-96662500I0J-172500D01*
G01*
X109670000Y-97007500D01*
G75*
G02*
X109497500Y-97180000I-172500J0D01*
G01*
X109102500Y-97180000D01*
G75*
G02*
X108930000Y-97007500I0J172500D01*
G01*
X108930000Y-96662500D01*
G75*
G02*
X109102500Y-96490000I172500J0D01*
G01*
G37*
G36*
G01*
X109102500Y-95520000D02*
X109497500Y-95520000D01*
G75*
G02*
X109670000Y-95692500I0J-172500D01*
G01*
X109670000Y-96037500D01*
G75*
G02*
X109497500Y-96210000I-172500J0D01*
G01*
X109102500Y-96210000D01*
G75*
G02*
X108930000Y-96037500I0J172500D01*
G01*
X108930000Y-95692500D01*
G75*
G02*
X109102500Y-95520000I172500J0D01*
G01*
G37*
%TD*%
%TO.C,C2*%
G36*
G01*
X108202500Y-95220000D02*
X108597500Y-95220000D01*
G75*
G02*
X108770000Y-95392500I0J-172500D01*
G01*
X108770000Y-95737500D01*
G75*
G02*
X108597500Y-95910000I-172500J0D01*
G01*
X108202500Y-95910000D01*
G75*
G02*
X108030000Y-95737500I0J172500D01*
G01*
X108030000Y-95392500D01*
G75*
G02*
X108202500Y-95220000I172500J0D01*
G01*
G37*
G36*
G01*
X108202500Y-96190000D02*
X108597500Y-96190000D01*
G75*
G02*
X108770000Y-96362500I0J-172500D01*
G01*
X108770000Y-96707500D01*
G75*
G02*
X108597500Y-96880000I-172500J0D01*
G01*
X108202500Y-96880000D01*
G75*
G02*
X108030000Y-96707500I0J172500D01*
G01*
X108030000Y-96362500D01*
G75*
G02*
X108202500Y-96190000I172500J0D01*
G01*
G37*
%TD*%
%TO.C,C5*%
G36*
G01*
X104602500Y-96740000D02*
X104997500Y-96740000D01*
G75*
G02*
X105170000Y-96912500I0J-172500D01*
G01*
X105170000Y-97257500D01*
G75*
G02*
X104997500Y-97430000I-172500J0D01*
G01*
X104602500Y-97430000D01*
G75*
G02*
X104430000Y-97257500I0J172500D01*
G01*
X104430000Y-96912500D01*
G75*
G02*
X104602500Y-96740000I172500J0D01*
G01*
G37*
G36*
G01*
X104602500Y-95770000D02*
X104997500Y-95770000D01*
G75*
G02*
X105170000Y-95942500I0J-172500D01*
G01*
X105170000Y-96287500D01*
G75*
G02*
X104997500Y-96460000I-172500J0D01*
G01*
X104602500Y-96460000D01*
G75*
G02*
X104430000Y-96287500I0J172500D01*
G01*
X104430000Y-95942500D01*
G75*
G02*
X104602500Y-95770000I172500J0D01*
G01*
G37*
%TD*%
%TO.C,C6*%
G36*
G01*
X105502500Y-95270000D02*
X105897500Y-95270000D01*
G75*
G02*
X106070000Y-95442500I0J-172500D01*
G01*
X106070000Y-95787500D01*
G75*
G02*
X105897500Y-95960000I-172500J0D01*
G01*
X105502500Y-95960000D01*
G75*
G02*
X105330000Y-95787500I0J172500D01*
G01*
X105330000Y-95442500D01*
G75*
G02*
X105502500Y-95270000I172500J0D01*
G01*
G37*
G36*
G01*
X105502500Y-96240000D02*
X105897500Y-96240000D01*
G75*
G02*
X106070000Y-96412500I0J-172500D01*
G01*
X106070000Y-96757500D01*
G75*
G02*
X105897500Y-96930000I-172500J0D01*
G01*
X105502500Y-96930000D01*
G75*
G02*
X105330000Y-96757500I0J172500D01*
G01*
X105330000Y-96412500D01*
G75*
G02*
X105502500Y-96240000I172500J0D01*
G01*
G37*
%TD*%
%TO.C,C7*%
G36*
G01*
X106402500Y-94770000D02*
X106797500Y-94770000D01*
G75*
G02*
X106970000Y-94942500I0J-172500D01*
G01*
X106970000Y-95287500D01*
G75*
G02*
X106797500Y-95460000I-172500J0D01*
G01*
X106402500Y-95460000D01*
G75*
G02*
X106230000Y-95287500I0J172500D01*
G01*
X106230000Y-94942500D01*
G75*
G02*
X106402500Y-94770000I172500J0D01*
G01*
G37*
G36*
G01*
X106402500Y-95740000D02*
X106797500Y-95740000D01*
G75*
G02*
X106970000Y-95912500I0J-172500D01*
G01*
X106970000Y-96257500D01*
G75*
G02*
X106797500Y-96430000I-172500J0D01*
G01*
X106402500Y-96430000D01*
G75*
G02*
X106230000Y-96257500I0J172500D01*
G01*
X106230000Y-95912500D01*
G75*
G02*
X106402500Y-95740000I172500J0D01*
G01*
G37*
%TD*%
%TO.C,C10*%
G36*
G01*
X107302500Y-94770000D02*
X107697500Y-94770000D01*
G75*
G02*
X107870000Y-94942500I0J-172500D01*
G01*
X107870000Y-95287500D01*
G75*
G02*
X107697500Y-95460000I-172500J0D01*
G01*
X107302500Y-95460000D01*
G75*
G02*
X107130000Y-95287500I0J172500D01*
G01*
X107130000Y-94942500D01*
G75*
G02*
X107302500Y-94770000I172500J0D01*
G01*
G37*
G36*
G01*
X107302500Y-95740000D02*
X107697500Y-95740000D01*
G75*
G02*
X107870000Y-95912500I0J-172500D01*
G01*
X107870000Y-96257500D01*
G75*
G02*
X107697500Y-96430000I-172500J0D01*
G01*
X107302500Y-96430000D01*
G75*
G02*
X107130000Y-96257500I0J172500D01*
G01*
X107130000Y-95912500D01*
G75*
G02*
X107302500Y-95740000I172500J0D01*
G01*
G37*
%TD*%
%TO.C,C11*%
G36*
G01*
X105130000Y-94802500D02*
X105130000Y-95197500D01*
G75*
G02*
X104957500Y-95370000I-172500J0D01*
G01*
X104612500Y-95370000D01*
G75*
G02*
X104440000Y-95197500I0J172500D01*
G01*
X104440000Y-94802500D01*
G75*
G02*
X104612500Y-94630000I172500J0D01*
G01*
X104957500Y-94630000D01*
G75*
G02*
X105130000Y-94802500I0J-172500D01*
G01*
G37*
G36*
G01*
X104160000Y-94802500D02*
X104160000Y-95197500D01*
G75*
G02*
X103987500Y-95370000I-172500J0D01*
G01*
X103642500Y-95370000D01*
G75*
G02*
X103470000Y-95197500I0J172500D01*
G01*
X103470000Y-94802500D01*
G75*
G02*
X103642500Y-94630000I172500J0D01*
G01*
X103987500Y-94630000D01*
G75*
G02*
X104160000Y-94802500I0J-172500D01*
G01*
G37*
%TD*%
%TO.C,C12*%
G36*
G01*
X104460000Y-93852500D02*
X104460000Y-94247500D01*
G75*
G02*
X104287500Y-94420000I-172500J0D01*
G01*
X103942500Y-94420000D01*
G75*
G02*
X103770000Y-94247500I0J172500D01*
G01*
X103770000Y-93852500D01*
G75*
G02*
X103942500Y-93680000I172500J0D01*
G01*
X104287500Y-93680000D01*
G75*
G02*
X104460000Y-93852500I0J-172500D01*
G01*
G37*
G36*
G01*
X105430000Y-93852500D02*
X105430000Y-94247500D01*
G75*
G02*
X105257500Y-94420000I-172500J0D01*
G01*
X104912500Y-94420000D01*
G75*
G02*
X104740000Y-94247500I0J172500D01*
G01*
X104740000Y-93852500D01*
G75*
G02*
X104912500Y-93680000I172500J0D01*
G01*
X105257500Y-93680000D01*
G75*
G02*
X105430000Y-93852500I0J-172500D01*
G01*
G37*
%TD*%
%TO.C,C20*%
G36*
G01*
X111047500Y-84425000D02*
X110652500Y-84425000D01*
G75*
G02*
X110480000Y-84252500I0J172500D01*
G01*
X110480000Y-83907500D01*
G75*
G02*
X110652500Y-83735000I172500J0D01*
G01*
X111047500Y-83735000D01*
G75*
G02*
X111220000Y-83907500I0J-172500D01*
G01*
X111220000Y-84252500D01*
G75*
G02*
X111047500Y-84425000I-172500J0D01*
G01*
G37*
G36*
G01*
X111047500Y-85395000D02*
X110652500Y-85395000D01*
G75*
G02*
X110480000Y-85222500I0J172500D01*
G01*
X110480000Y-84877500D01*
G75*
G02*
X110652500Y-84705000I172500J0D01*
G01*
X111047500Y-84705000D01*
G75*
G02*
X111220000Y-84877500I0J-172500D01*
G01*
X111220000Y-85222500D01*
G75*
G02*
X111047500Y-85395000I-172500J0D01*
G01*
G37*
%TD*%
%TO.C,C21*%
G36*
G01*
X110097500Y-84910000D02*
X109702500Y-84910000D01*
G75*
G02*
X109530000Y-84737500I0J172500D01*
G01*
X109530000Y-84392500D01*
G75*
G02*
X109702500Y-84220000I172500J0D01*
G01*
X110097500Y-84220000D01*
G75*
G02*
X110270000Y-84392500I0J-172500D01*
G01*
X110270000Y-84737500D01*
G75*
G02*
X110097500Y-84910000I-172500J0D01*
G01*
G37*
G36*
G01*
X110097500Y-85880000D02*
X109702500Y-85880000D01*
G75*
G02*
X109530000Y-85707500I0J172500D01*
G01*
X109530000Y-85362500D01*
G75*
G02*
X109702500Y-85190000I172500J0D01*
G01*
X110097500Y-85190000D01*
G75*
G02*
X110270000Y-85362500I0J-172500D01*
G01*
X110270000Y-85707500D01*
G75*
G02*
X110097500Y-85880000I-172500J0D01*
G01*
G37*
%TD*%
%TO.C,C22*%
G36*
G01*
X106197500Y-86680000D02*
X105802500Y-86680000D01*
G75*
G02*
X105630000Y-86507500I0J172500D01*
G01*
X105630000Y-86162500D01*
G75*
G02*
X105802500Y-85990000I172500J0D01*
G01*
X106197500Y-85990000D01*
G75*
G02*
X106370000Y-86162500I0J-172500D01*
G01*
X106370000Y-86507500D01*
G75*
G02*
X106197500Y-86680000I-172500J0D01*
G01*
G37*
G36*
G01*
X106197500Y-85710000D02*
X105802500Y-85710000D01*
G75*
G02*
X105630000Y-85537500I0J172500D01*
G01*
X105630000Y-85192500D01*
G75*
G02*
X105802500Y-85020000I172500J0D01*
G01*
X106197500Y-85020000D01*
G75*
G02*
X106370000Y-85192500I0J-172500D01*
G01*
X106370000Y-85537500D01*
G75*
G02*
X106197500Y-85710000I-172500J0D01*
G01*
G37*
%TD*%
%TO.C,C23*%
G36*
G01*
X105247500Y-85225000D02*
X104852500Y-85225000D01*
G75*
G02*
X104680000Y-85052500I0J172500D01*
G01*
X104680000Y-84707500D01*
G75*
G02*
X104852500Y-84535000I172500J0D01*
G01*
X105247500Y-84535000D01*
G75*
G02*
X105420000Y-84707500I0J-172500D01*
G01*
X105420000Y-85052500D01*
G75*
G02*
X105247500Y-85225000I-172500J0D01*
G01*
G37*
G36*
G01*
X105247500Y-86195000D02*
X104852500Y-86195000D01*
G75*
G02*
X104680000Y-86022500I0J172500D01*
G01*
X104680000Y-85677500D01*
G75*
G02*
X104852500Y-85505000I172500J0D01*
G01*
X105247500Y-85505000D01*
G75*
G02*
X105420000Y-85677500I0J-172500D01*
G01*
X105420000Y-86022500D01*
G75*
G02*
X105247500Y-86195000I-172500J0D01*
G01*
G37*
%TD*%
%TO.C,C24*%
G36*
G01*
X108425000Y-86747500D02*
X108425000Y-86352500D01*
G75*
G02*
X108597500Y-86180000I172500J0D01*
G01*
X108942500Y-86180000D01*
G75*
G02*
X109115000Y-86352500I0J-172500D01*
G01*
X109115000Y-86747500D01*
G75*
G02*
X108942500Y-86920000I-172500J0D01*
G01*
X108597500Y-86920000D01*
G75*
G02*
X108425000Y-86747500I0J172500D01*
G01*
G37*
G36*
G01*
X107455000Y-86747500D02*
X107455000Y-86352500D01*
G75*
G02*
X107627500Y-86180000I172500J0D01*
G01*
X107972500Y-86180000D01*
G75*
G02*
X108145000Y-86352500I0J-172500D01*
G01*
X108145000Y-86747500D01*
G75*
G02*
X107972500Y-86920000I-172500J0D01*
G01*
X107627500Y-86920000D01*
G75*
G02*
X107455000Y-86747500I0J172500D01*
G01*
G37*
%TD*%
%TO.C,C27*%
G36*
G01*
X107455000Y-81197500D02*
X107455000Y-80802500D01*
G75*
G02*
X107627500Y-80630000I172500J0D01*
G01*
X107972500Y-80630000D01*
G75*
G02*
X108145000Y-80802500I0J-172500D01*
G01*
X108145000Y-81197500D01*
G75*
G02*
X107972500Y-81370000I-172500J0D01*
G01*
X107627500Y-81370000D01*
G75*
G02*
X107455000Y-81197500I0J172500D01*
G01*
G37*
G36*
G01*
X108425000Y-81197500D02*
X108425000Y-80802500D01*
G75*
G02*
X108597500Y-80630000I172500J0D01*
G01*
X108942500Y-80630000D01*
G75*
G02*
X109115000Y-80802500I0J-172500D01*
G01*
X109115000Y-81197500D01*
G75*
G02*
X108942500Y-81370000I-172500J0D01*
G01*
X108597500Y-81370000D01*
G75*
G02*
X108425000Y-81197500I0J172500D01*
G01*
G37*
%TD*%
%TO.C,L3*%
G36*
G01*
X112047500Y-84895000D02*
X111652500Y-84895000D01*
G75*
G02*
X111480000Y-84722500I0J172500D01*
G01*
X111480000Y-84377500D01*
G75*
G02*
X111652500Y-84205000I172500J0D01*
G01*
X112047500Y-84205000D01*
G75*
G02*
X112220000Y-84377500I0J-172500D01*
G01*
X112220000Y-84722500D01*
G75*
G02*
X112047500Y-84895000I-172500J0D01*
G01*
G37*
G36*
G01*
X112047500Y-83925000D02*
X111652500Y-83925000D01*
G75*
G02*
X111480000Y-83752500I0J172500D01*
G01*
X111480000Y-83407500D01*
G75*
G02*
X111652500Y-83235000I172500J0D01*
G01*
X112047500Y-83235000D01*
G75*
G02*
X112220000Y-83407500I0J-172500D01*
G01*
X112220000Y-83752500D01*
G75*
G02*
X112047500Y-83925000I-172500J0D01*
G01*
G37*
%TD*%
%TO.C,L4*%
G36*
G01*
X104297500Y-85745000D02*
X103902500Y-85745000D01*
G75*
G02*
X103730000Y-85572500I0J172500D01*
G01*
X103730000Y-85227500D01*
G75*
G02*
X103902500Y-85055000I172500J0D01*
G01*
X104297500Y-85055000D01*
G75*
G02*
X104470000Y-85227500I0J-172500D01*
G01*
X104470000Y-85572500D01*
G75*
G02*
X104297500Y-85745000I-172500J0D01*
G01*
G37*
G36*
G01*
X104297500Y-84775000D02*
X103902500Y-84775000D01*
G75*
G02*
X103730000Y-84602500I0J172500D01*
G01*
X103730000Y-84257500D01*
G75*
G02*
X103902500Y-84085000I172500J0D01*
G01*
X104297500Y-84085000D01*
G75*
G02*
X104470000Y-84257500I0J-172500D01*
G01*
X104470000Y-84602500D01*
G75*
G02*
X104297500Y-84775000I-172500J0D01*
G01*
G37*
%TD*%
%TO.C,L5*%
G36*
G01*
X107997500Y-85010000D02*
X107602500Y-85010000D01*
G75*
G02*
X107430000Y-84837500I0J172500D01*
G01*
X107430000Y-84492500D01*
G75*
G02*
X107602500Y-84320000I172500J0D01*
G01*
X107997500Y-84320000D01*
G75*
G02*
X108170000Y-84492500I0J-172500D01*
G01*
X108170000Y-84837500D01*
G75*
G02*
X107997500Y-85010000I-172500J0D01*
G01*
G37*
G36*
G01*
X107997500Y-85980000D02*
X107602500Y-85980000D01*
G75*
G02*
X107430000Y-85807500I0J172500D01*
G01*
X107430000Y-85462500D01*
G75*
G02*
X107602500Y-85290000I172500J0D01*
G01*
X107997500Y-85290000D01*
G75*
G02*
X108170000Y-85462500I0J-172500D01*
G01*
X108170000Y-85807500D01*
G75*
G02*
X107997500Y-85980000I-172500J0D01*
G01*
G37*
%TD*%
%TO.C,L6*%
G36*
G01*
X107997500Y-82225000D02*
X107602500Y-82225000D01*
G75*
G02*
X107430000Y-82052500I0J172500D01*
G01*
X107430000Y-81707500D01*
G75*
G02*
X107602500Y-81535000I172500J0D01*
G01*
X107997500Y-81535000D01*
G75*
G02*
X108170000Y-81707500I0J-172500D01*
G01*
X108170000Y-82052500D01*
G75*
G02*
X107997500Y-82225000I-172500J0D01*
G01*
G37*
G36*
G01*
X107997500Y-83195000D02*
X107602500Y-83195000D01*
G75*
G02*
X107430000Y-83022500I0J172500D01*
G01*
X107430000Y-82677500D01*
G75*
G02*
X107602500Y-82505000I172500J0D01*
G01*
X107997500Y-82505000D01*
G75*
G02*
X108170000Y-82677500I0J-172500D01*
G01*
X108170000Y-83022500D01*
G75*
G02*
X107997500Y-83195000I-172500J0D01*
G01*
G37*
%TD*%
%TO.C,R1*%
G36*
G01*
X113280000Y-85552500D02*
X113280000Y-85947500D01*
G75*
G02*
X113107500Y-86120000I-172500J0D01*
G01*
X112762500Y-86120000D01*
G75*
G02*
X112590000Y-85947500I0J172500D01*
G01*
X112590000Y-85552500D01*
G75*
G02*
X112762500Y-85380000I172500J0D01*
G01*
X113107500Y-85380000D01*
G75*
G02*
X113280000Y-85552500I0J-172500D01*
G01*
G37*
G36*
G01*
X112310000Y-85552500D02*
X112310000Y-85947500D01*
G75*
G02*
X112137500Y-86120000I-172500J0D01*
G01*
X111792500Y-86120000D01*
G75*
G02*
X111620000Y-85947500I0J172500D01*
G01*
X111620000Y-85552500D01*
G75*
G02*
X111792500Y-85380000I172500J0D01*
G01*
X112137500Y-85380000D01*
G75*
G02*
X112310000Y-85552500I0J-172500D01*
G01*
G37*
%TD*%
%TO.C,U3*%
G36*
G01*
X110150000Y-91875000D02*
X110150000Y-92025000D01*
G75*
G02*
X110075000Y-92100000I-75000J0D01*
G01*
X109325000Y-92100000D01*
G75*
G02*
X109250000Y-92025000I0J75000D01*
G01*
X109250000Y-91875000D01*
G75*
G02*
X109325000Y-91800000I75000J0D01*
G01*
X110075000Y-91800000D01*
G75*
G02*
X110150000Y-91875000I0J-75000D01*
G01*
G37*
G36*
G01*
X110150000Y-91475000D02*
X110150000Y-91625000D01*
G75*
G02*
X110075000Y-91700000I-75000J0D01*
G01*
X109325000Y-91700000D01*
G75*
G02*
X109250000Y-91625000I0J75000D01*
G01*
X109250000Y-91475000D01*
G75*
G02*
X109325000Y-91400000I75000J0D01*
G01*
X110075000Y-91400000D01*
G75*
G02*
X110150000Y-91475000I0J-75000D01*
G01*
G37*
G36*
G01*
X110150000Y-91075000D02*
X110150000Y-91225000D01*
G75*
G02*
X110075000Y-91300000I-75000J0D01*
G01*
X109325000Y-91300000D01*
G75*
G02*
X109250000Y-91225000I0J75000D01*
G01*
X109250000Y-91075000D01*
G75*
G02*
X109325000Y-91000000I75000J0D01*
G01*
X110075000Y-91000000D01*
G75*
G02*
X110150000Y-91075000I0J-75000D01*
G01*
G37*
G36*
G01*
X110150000Y-90675000D02*
X110150000Y-90825000D01*
G75*
G02*
X110075000Y-90900000I-75000J0D01*
G01*
X109325000Y-90900000D01*
G75*
G02*
X109250000Y-90825000I0J75000D01*
G01*
X109250000Y-90675000D01*
G75*
G02*
X109325000Y-90600000I75000J0D01*
G01*
X110075000Y-90600000D01*
G75*
G02*
X110150000Y-90675000I0J-75000D01*
G01*
G37*
G36*
G01*
X110150000Y-90275000D02*
X110150000Y-90425000D01*
G75*
G02*
X110075000Y-90500000I-75000J0D01*
G01*
X109325000Y-90500000D01*
G75*
G02*
X109250000Y-90425000I0J75000D01*
G01*
X109250000Y-90275000D01*
G75*
G02*
X109325000Y-90200000I75000J0D01*
G01*
X110075000Y-90200000D01*
G75*
G02*
X110150000Y-90275000I0J-75000D01*
G01*
G37*
G36*
G01*
X110150000Y-89875000D02*
X110150000Y-90025000D01*
G75*
G02*
X110075000Y-90100000I-75000J0D01*
G01*
X109325000Y-90100000D01*
G75*
G02*
X109250000Y-90025000I0J75000D01*
G01*
X109250000Y-89875000D01*
G75*
G02*
X109325000Y-89800000I75000J0D01*
G01*
X110075000Y-89800000D01*
G75*
G02*
X110150000Y-89875000I0J-75000D01*
G01*
G37*
G36*
G01*
X110150000Y-89475000D02*
X110150000Y-89625000D01*
G75*
G02*
X110075000Y-89700000I-75000J0D01*
G01*
X109325000Y-89700000D01*
G75*
G02*
X109250000Y-89625000I0J75000D01*
G01*
X109250000Y-89475000D01*
G75*
G02*
X109325000Y-89400000I75000J0D01*
G01*
X110075000Y-89400000D01*
G75*
G02*
X110150000Y-89475000I0J-75000D01*
G01*
G37*
G36*
G01*
X110150000Y-89075000D02*
X110150000Y-89225000D01*
G75*
G02*
X110075000Y-89300000I-75000J0D01*
G01*
X109325000Y-89300000D01*
G75*
G02*
X109250000Y-89225000I0J75000D01*
G01*
X109250000Y-89075000D01*
G75*
G02*
X109325000Y-89000000I75000J0D01*
G01*
X110075000Y-89000000D01*
G75*
G02*
X110150000Y-89075000I0J-75000D01*
G01*
G37*
G36*
G01*
X109150000Y-88075000D02*
X109150000Y-88825000D01*
G75*
G02*
X109075000Y-88900000I-75000J0D01*
G01*
X108925000Y-88900000D01*
G75*
G02*
X108850000Y-88825000I0J75000D01*
G01*
X108850000Y-88075000D01*
G75*
G02*
X108925000Y-88000000I75000J0D01*
G01*
X109075000Y-88000000D01*
G75*
G02*
X109150000Y-88075000I0J-75000D01*
G01*
G37*
G36*
G01*
X108750000Y-88075000D02*
X108750000Y-88825000D01*
G75*
G02*
X108675000Y-88900000I-75000J0D01*
G01*
X108525000Y-88900000D01*
G75*
G02*
X108450000Y-88825000I0J75000D01*
G01*
X108450000Y-88075000D01*
G75*
G02*
X108525000Y-88000000I75000J0D01*
G01*
X108675000Y-88000000D01*
G75*
G02*
X108750000Y-88075000I0J-75000D01*
G01*
G37*
G36*
G01*
X108350000Y-88075000D02*
X108350000Y-88825000D01*
G75*
G02*
X108275000Y-88900000I-75000J0D01*
G01*
X108125000Y-88900000D01*
G75*
G02*
X108050000Y-88825000I0J75000D01*
G01*
X108050000Y-88075000D01*
G75*
G02*
X108125000Y-88000000I75000J0D01*
G01*
X108275000Y-88000000D01*
G75*
G02*
X108350000Y-88075000I0J-75000D01*
G01*
G37*
G36*
G01*
X107950000Y-88075000D02*
X107950000Y-88825000D01*
G75*
G02*
X107875000Y-88900000I-75000J0D01*
G01*
X107725000Y-88900000D01*
G75*
G02*
X107650000Y-88825000I0J75000D01*
G01*
X107650000Y-88075000D01*
G75*
G02*
X107725000Y-88000000I75000J0D01*
G01*
X107875000Y-88000000D01*
G75*
G02*
X107950000Y-88075000I0J-75000D01*
G01*
G37*
G36*
G01*
X107550000Y-88075000D02*
X107550000Y-88825000D01*
G75*
G02*
X107475000Y-88900000I-75000J0D01*
G01*
X107325000Y-88900000D01*
G75*
G02*
X107250000Y-88825000I0J75000D01*
G01*
X107250000Y-88075000D01*
G75*
G02*
X107325000Y-88000000I75000J0D01*
G01*
X107475000Y-88000000D01*
G75*
G02*
X107550000Y-88075000I0J-75000D01*
G01*
G37*
G36*
G01*
X107150000Y-88075000D02*
X107150000Y-88825000D01*
G75*
G02*
X107075000Y-88900000I-75000J0D01*
G01*
X106925000Y-88900000D01*
G75*
G02*
X106850000Y-88825000I0J75000D01*
G01*
X106850000Y-88075000D01*
G75*
G02*
X106925000Y-88000000I75000J0D01*
G01*
X107075000Y-88000000D01*
G75*
G02*
X107150000Y-88075000I0J-75000D01*
G01*
G37*
G36*
G01*
X106750000Y-88075000D02*
X106750000Y-88825000D01*
G75*
G02*
X106675000Y-88900000I-75000J0D01*
G01*
X106525000Y-88900000D01*
G75*
G02*
X106450000Y-88825000I0J75000D01*
G01*
X106450000Y-88075000D01*
G75*
G02*
X106525000Y-88000000I75000J0D01*
G01*
X106675000Y-88000000D01*
G75*
G02*
X106750000Y-88075000I0J-75000D01*
G01*
G37*
G36*
G01*
X106350000Y-88075000D02*
X106350000Y-88825000D01*
G75*
G02*
X106275000Y-88900000I-75000J0D01*
G01*
X106125000Y-88900000D01*
G75*
G02*
X106050000Y-88825000I0J75000D01*
G01*
X106050000Y-88075000D01*
G75*
G02*
X106125000Y-88000000I75000J0D01*
G01*
X106275000Y-88000000D01*
G75*
G02*
X106350000Y-88075000I0J-75000D01*
G01*
G37*
G36*
G01*
X105950000Y-89075000D02*
X105950000Y-89225000D01*
G75*
G02*
X105875000Y-89300000I-75000J0D01*
G01*
X105125000Y-89300000D01*
G75*
G02*
X105050000Y-89225000I0J75000D01*
G01*
X105050000Y-89075000D01*
G75*
G02*
X105125000Y-89000000I75000J0D01*
G01*
X105875000Y-89000000D01*
G75*
G02*
X105950000Y-89075000I0J-75000D01*
G01*
G37*
G36*
G01*
X105950000Y-89475000D02*
X105950000Y-89625000D01*
G75*
G02*
X105875000Y-89700000I-75000J0D01*
G01*
X105125000Y-89700000D01*
G75*
G02*
X105050000Y-89625000I0J75000D01*
G01*
X105050000Y-89475000D01*
G75*
G02*
X105125000Y-89400000I75000J0D01*
G01*
X105875000Y-89400000D01*
G75*
G02*
X105950000Y-89475000I0J-75000D01*
G01*
G37*
G36*
G01*
X105950000Y-89875000D02*
X105950000Y-90025000D01*
G75*
G02*
X105875000Y-90100000I-75000J0D01*
G01*
X105125000Y-90100000D01*
G75*
G02*
X105050000Y-90025000I0J75000D01*
G01*
X105050000Y-89875000D01*
G75*
G02*
X105125000Y-89800000I75000J0D01*
G01*
X105875000Y-89800000D01*
G75*
G02*
X105950000Y-89875000I0J-75000D01*
G01*
G37*
G36*
G01*
X105950000Y-90275000D02*
X105950000Y-90425000D01*
G75*
G02*
X105875000Y-90500000I-75000J0D01*
G01*
X105125000Y-90500000D01*
G75*
G02*
X105050000Y-90425000I0J75000D01*
G01*
X105050000Y-90275000D01*
G75*
G02*
X105125000Y-90200000I75000J0D01*
G01*
X105875000Y-90200000D01*
G75*
G02*
X105950000Y-90275000I0J-75000D01*
G01*
G37*
G36*
G01*
X105950000Y-90675000D02*
X105950000Y-90825000D01*
G75*
G02*
X105875000Y-90900000I-75000J0D01*
G01*
X105125000Y-90900000D01*
G75*
G02*
X105050000Y-90825000I0J75000D01*
G01*
X105050000Y-90675000D01*
G75*
G02*
X105125000Y-90600000I75000J0D01*
G01*
X105875000Y-90600000D01*
G75*
G02*
X105950000Y-90675000I0J-75000D01*
G01*
G37*
G36*
G01*
X105950000Y-91075000D02*
X105950000Y-91225000D01*
G75*
G02*
X105875000Y-91300000I-75000J0D01*
G01*
X105125000Y-91300000D01*
G75*
G02*
X105050000Y-91225000I0J75000D01*
G01*
X105050000Y-91075000D01*
G75*
G02*
X105125000Y-91000000I75000J0D01*
G01*
X105875000Y-91000000D01*
G75*
G02*
X105950000Y-91075000I0J-75000D01*
G01*
G37*
G36*
G01*
X105950000Y-91475000D02*
X105950000Y-91625000D01*
G75*
G02*
X105875000Y-91700000I-75000J0D01*
G01*
X105125000Y-91700000D01*
G75*
G02*
X105050000Y-91625000I0J75000D01*
G01*
X105050000Y-91475000D01*
G75*
G02*
X105125000Y-91400000I75000J0D01*
G01*
X105875000Y-91400000D01*
G75*
G02*
X105950000Y-91475000I0J-75000D01*
G01*
G37*
G36*
G01*
X105950000Y-91875000D02*
X105950000Y-92025000D01*
G75*
G02*
X105875000Y-92100000I-75000J0D01*
G01*
X105125000Y-92100000D01*
G75*
G02*
X105050000Y-92025000I0J75000D01*
G01*
X105050000Y-91875000D01*
G75*
G02*
X105125000Y-91800000I75000J0D01*
G01*
X105875000Y-91800000D01*
G75*
G02*
X105950000Y-91875000I0J-75000D01*
G01*
G37*
G36*
G01*
X106350000Y-92275000D02*
X106350000Y-93025000D01*
G75*
G02*
X106275000Y-93100000I-75000J0D01*
G01*
X106125000Y-93100000D01*
G75*
G02*
X106050000Y-93025000I0J75000D01*
G01*
X106050000Y-92275000D01*
G75*
G02*
X106125000Y-92200000I75000J0D01*
G01*
X106275000Y-92200000D01*
G75*
G02*
X106350000Y-92275000I0J-75000D01*
G01*
G37*
G36*
G01*
X106750000Y-92275000D02*
X106750000Y-93025000D01*
G75*
G02*
X106675000Y-93100000I-75000J0D01*
G01*
X106525000Y-93100000D01*
G75*
G02*
X106450000Y-93025000I0J75000D01*
G01*
X106450000Y-92275000D01*
G75*
G02*
X106525000Y-92200000I75000J0D01*
G01*
X106675000Y-92200000D01*
G75*
G02*
X106750000Y-92275000I0J-75000D01*
G01*
G37*
G36*
G01*
X107150000Y-92275000D02*
X107150000Y-93025000D01*
G75*
G02*
X107075000Y-93100000I-75000J0D01*
G01*
X106925000Y-93100000D01*
G75*
G02*
X106850000Y-93025000I0J75000D01*
G01*
X106850000Y-92275000D01*
G75*
G02*
X106925000Y-92200000I75000J0D01*
G01*
X107075000Y-92200000D01*
G75*
G02*
X107150000Y-92275000I0J-75000D01*
G01*
G37*
G36*
G01*
X107550000Y-92275000D02*
X107550000Y-93025000D01*
G75*
G02*
X107475000Y-93100000I-75000J0D01*
G01*
X107325000Y-93100000D01*
G75*
G02*
X107250000Y-93025000I0J75000D01*
G01*
X107250000Y-92275000D01*
G75*
G02*
X107325000Y-92200000I75000J0D01*
G01*
X107475000Y-92200000D01*
G75*
G02*
X107550000Y-92275000I0J-75000D01*
G01*
G37*
G36*
G01*
X107950000Y-92275000D02*
X107950000Y-93025000D01*
G75*
G02*
X107875000Y-93100000I-75000J0D01*
G01*
X107725000Y-93100000D01*
G75*
G02*
X107650000Y-93025000I0J75000D01*
G01*
X107650000Y-92275000D01*
G75*
G02*
X107725000Y-92200000I75000J0D01*
G01*
X107875000Y-92200000D01*
G75*
G02*
X107950000Y-92275000I0J-75000D01*
G01*
G37*
G36*
G01*
X108350000Y-92275000D02*
X108350000Y-93025000D01*
G75*
G02*
X108275000Y-93100000I-75000J0D01*
G01*
X108125000Y-93100000D01*
G75*
G02*
X108050000Y-93025000I0J75000D01*
G01*
X108050000Y-92275000D01*
G75*
G02*
X108125000Y-92200000I75000J0D01*
G01*
X108275000Y-92200000D01*
G75*
G02*
X108350000Y-92275000I0J-75000D01*
G01*
G37*
G36*
G01*
X108750000Y-92275000D02*
X108750000Y-93025000D01*
G75*
G02*
X108675000Y-93100000I-75000J0D01*
G01*
X108525000Y-93100000D01*
G75*
G02*
X108450000Y-93025000I0J75000D01*
G01*
X108450000Y-92275000D01*
G75*
G02*
X108525000Y-92200000I75000J0D01*
G01*
X108675000Y-92200000D01*
G75*
G02*
X108750000Y-92275000I0J-75000D01*
G01*
G37*
G36*
G01*
X109150000Y-92275000D02*
X109150000Y-93025000D01*
G75*
G02*
X109075000Y-93100000I-75000J0D01*
G01*
X108925000Y-93100000D01*
G75*
G02*
X108850000Y-93025000I0J75000D01*
G01*
X108850000Y-92275000D01*
G75*
G02*
X108925000Y-92200000I75000J0D01*
G01*
X109075000Y-92200000D01*
G75*
G02*
X109150000Y-92275000I0J-75000D01*
G01*
G37*
D14*
X107600000Y-90550000D03*
%TD*%
D15*
%TO.C,Y1*%
G36*
X111037868Y-95381371D02*
G01*
X110118629Y-94462132D01*
X110613604Y-93967157D01*
X111532843Y-94886396D01*
X111037868Y-95381371D01*
G37*
G36*
X111886396Y-94532843D02*
G01*
X110967157Y-93613604D01*
X111462132Y-93118629D01*
X112381371Y-94037868D01*
X111886396Y-94532843D01*
G37*
%TD*%
D16*
%TO.C,Y2*%
X111800000Y-88800000D03*
X113200000Y-88800000D03*
X113200000Y-87700000D03*
X111800000Y-87700000D03*
%TD*%
D17*
%TO.C,J23*%
X101775000Y-76525000D03*
D18*
X103300000Y-78000000D03*
D17*
X101775000Y-79475000D03*
%TD*%
M02*
