%TF.GenerationSoftware,KiCad,Pcbnew,(5.1.6)-1*%
%TF.CreationDate,2021-01-29T18:20:15+05:30*%
%TF.ProjectId,Bluetooth_Module,426c7565-746f-46f7-9468-5f4d6f64756c,rev?*%
%TF.SameCoordinates,Original*%
%TF.FileFunction,Legend,Top*%
%TF.FilePolarity,Positive*%
%FSLAX46Y46*%
G04 Gerber Fmt 4.6, Leading zero omitted, Abs format (unit mm)*
G04 Created by KiCad (PCBNEW (5.1.6)-1) date 2021-01-29 18:20:15*
%MOMM*%
%LPD*%
G01*
G04 APERTURE LIST*
%ADD10C,0.100000*%
%ADD11C,0.120000*%
%ADD12C,0.130000*%
G04 APERTURE END LIST*
D10*
%TO.C,AE1*%
X111050000Y-77350000D02*
X111050000Y-78650000D01*
X115850000Y-77350000D02*
X115850000Y-78650000D01*
X115500000Y-79000000D02*
X111400000Y-79000000D01*
X115500000Y-77000000D02*
X111400000Y-77000000D01*
D11*
X110795711Y-78000000D02*
G75*
G03*
X110795711Y-78000000I-70711J0D01*
G01*
D10*
X111050000Y-77350000D02*
G75*
G02*
X111400000Y-77000000I400000J-50000D01*
G01*
X115500000Y-77000000D02*
G75*
G02*
X115850000Y-77350000I-50000J-400000D01*
G01*
X111400000Y-79000000D02*
G75*
G02*
X111050000Y-78650000I50000J400000D01*
G01*
X115850000Y-78650000D02*
G75*
G02*
X115500000Y-79000000I-400000J50000D01*
G01*
D11*
%TO.C,U3*%
X105840000Y-92660000D02*
X105490000Y-92660000D01*
X105490000Y-92660000D02*
X105490000Y-92310000D01*
X109360000Y-88440000D02*
X109710000Y-88440000D01*
X109710000Y-88440000D02*
X109710000Y-88790000D01*
X105840000Y-88440000D02*
X105490000Y-88440000D01*
X105490000Y-88440000D02*
X105490000Y-88790000D01*
X109360000Y-92660000D02*
X109710000Y-92660000D01*
%TO.C,Y1*%
X110047918Y-94603553D02*
X110896447Y-95452082D01*
X111674264Y-94815685D02*
X111815685Y-94674264D01*
X110684315Y-93825736D02*
X110825736Y-93684315D01*
%TO.C,Y2*%
X111150000Y-89400000D02*
X113850000Y-89400000D01*
X111150000Y-87100000D02*
X111150000Y-89400000D01*
%TO.C,J23*%
X103135000Y-79400000D02*
X103135000Y-78760000D01*
X103135000Y-76600000D02*
X103135000Y-77240000D01*
X103135000Y-78760000D02*
X103765000Y-78760000D01*
X100415000Y-79350000D02*
X100415000Y-76650000D01*
%TO.C,C25*%
D12*
X105164285Y-84000000D02*
X105135714Y-84033333D01*
X105050000Y-84066666D01*
X104992857Y-84066666D01*
X104907142Y-84033333D01*
X104850000Y-83966666D01*
X104821428Y-83900000D01*
X104792857Y-83766666D01*
X104792857Y-83666666D01*
X104821428Y-83533333D01*
X104850000Y-83466666D01*
X104907142Y-83400000D01*
X104992857Y-83366666D01*
X105050000Y-83366666D01*
X105135714Y-83400000D01*
X105164285Y-83433333D01*
X105392857Y-83433333D02*
X105421428Y-83400000D01*
X105478571Y-83366666D01*
X105621428Y-83366666D01*
X105678571Y-83400000D01*
X105707142Y-83433333D01*
X105735714Y-83500000D01*
X105735714Y-83566666D01*
X105707142Y-83666666D01*
X105364285Y-84066666D01*
X105735714Y-84066666D01*
X106278571Y-83366666D02*
X105992857Y-83366666D01*
X105964285Y-83700000D01*
X105992857Y-83666666D01*
X106050000Y-83633333D01*
X106192857Y-83633333D01*
X106250000Y-83666666D01*
X106278571Y-83700000D01*
X106307142Y-83766666D01*
X106307142Y-83933333D01*
X106278571Y-84000000D01*
X106250000Y-84033333D01*
X106192857Y-84066666D01*
X106050000Y-84066666D01*
X105992857Y-84033333D01*
X105964285Y-84000000D01*
%TO.C,AE1*%
X112750000Y-76416666D02*
X113035714Y-76416666D01*
X112692857Y-76616666D02*
X112892857Y-75916666D01*
X113092857Y-76616666D01*
X113292857Y-76250000D02*
X113492857Y-76250000D01*
X113578571Y-76616666D02*
X113292857Y-76616666D01*
X113292857Y-75916666D01*
X113578571Y-75916666D01*
X114150000Y-76616666D02*
X113807142Y-76616666D01*
X113978571Y-76616666D02*
X113978571Y-75916666D01*
X113921428Y-76016666D01*
X113864285Y-76083333D01*
X113807142Y-76116666D01*
%TO.C,C1*%
X109550000Y-94975000D02*
X109583333Y-95003571D01*
X109616666Y-95089285D01*
X109616666Y-95146428D01*
X109583333Y-95232142D01*
X109516666Y-95289285D01*
X109450000Y-95317857D01*
X109316666Y-95346428D01*
X109216666Y-95346428D01*
X109083333Y-95317857D01*
X109016666Y-95289285D01*
X108950000Y-95232142D01*
X108916666Y-95146428D01*
X108916666Y-95089285D01*
X108950000Y-95003571D01*
X108983333Y-94975000D01*
X109616666Y-94403571D02*
X109616666Y-94746428D01*
X109616666Y-94575000D02*
X108916666Y-94575000D01*
X109016666Y-94632142D01*
X109083333Y-94689285D01*
X109116666Y-94746428D01*
%TO.C,C2*%
X108650000Y-97650000D02*
X108683333Y-97678571D01*
X108716666Y-97764285D01*
X108716666Y-97821428D01*
X108683333Y-97907142D01*
X108616666Y-97964285D01*
X108550000Y-97992857D01*
X108416666Y-98021428D01*
X108316666Y-98021428D01*
X108183333Y-97992857D01*
X108116666Y-97964285D01*
X108050000Y-97907142D01*
X108016666Y-97821428D01*
X108016666Y-97764285D01*
X108050000Y-97678571D01*
X108083333Y-97650000D01*
X108083333Y-97421428D02*
X108050000Y-97392857D01*
X108016666Y-97335714D01*
X108016666Y-97192857D01*
X108050000Y-97135714D01*
X108083333Y-97107142D01*
X108150000Y-97078571D01*
X108216666Y-97078571D01*
X108316666Y-97107142D01*
X108716666Y-97450000D01*
X108716666Y-97078571D01*
%TO.C,C5*%
X104200000Y-97200000D02*
X104233333Y-97228571D01*
X104266666Y-97314285D01*
X104266666Y-97371428D01*
X104233333Y-97457142D01*
X104166666Y-97514285D01*
X104100000Y-97542857D01*
X103966666Y-97571428D01*
X103866666Y-97571428D01*
X103733333Y-97542857D01*
X103666666Y-97514285D01*
X103600000Y-97457142D01*
X103566666Y-97371428D01*
X103566666Y-97314285D01*
X103600000Y-97228571D01*
X103633333Y-97200000D01*
X103566666Y-96657142D02*
X103566666Y-96942857D01*
X103900000Y-96971428D01*
X103866666Y-96942857D01*
X103833333Y-96885714D01*
X103833333Y-96742857D01*
X103866666Y-96685714D01*
X103900000Y-96657142D01*
X103966666Y-96628571D01*
X104133333Y-96628571D01*
X104200000Y-96657142D01*
X104233333Y-96685714D01*
X104266666Y-96742857D01*
X104266666Y-96885714D01*
X104233333Y-96942857D01*
X104200000Y-96971428D01*
%TO.C,C6*%
X105950000Y-97650000D02*
X105983333Y-97678571D01*
X106016666Y-97764285D01*
X106016666Y-97821428D01*
X105983333Y-97907142D01*
X105916666Y-97964285D01*
X105850000Y-97992857D01*
X105716666Y-98021428D01*
X105616666Y-98021428D01*
X105483333Y-97992857D01*
X105416666Y-97964285D01*
X105350000Y-97907142D01*
X105316666Y-97821428D01*
X105316666Y-97764285D01*
X105350000Y-97678571D01*
X105383333Y-97650000D01*
X105316666Y-97135714D02*
X105316666Y-97250000D01*
X105350000Y-97307142D01*
X105383333Y-97335714D01*
X105483333Y-97392857D01*
X105616666Y-97421428D01*
X105883333Y-97421428D01*
X105950000Y-97392857D01*
X105983333Y-97364285D01*
X106016666Y-97307142D01*
X106016666Y-97192857D01*
X105983333Y-97135714D01*
X105950000Y-97107142D01*
X105883333Y-97078571D01*
X105716666Y-97078571D01*
X105650000Y-97107142D01*
X105616666Y-97135714D01*
X105583333Y-97192857D01*
X105583333Y-97307142D01*
X105616666Y-97364285D01*
X105650000Y-97392857D01*
X105716666Y-97421428D01*
%TO.C,C7*%
X106850000Y-97200000D02*
X106883333Y-97228571D01*
X106916666Y-97314285D01*
X106916666Y-97371428D01*
X106883333Y-97457142D01*
X106816666Y-97514285D01*
X106750000Y-97542857D01*
X106616666Y-97571428D01*
X106516666Y-97571428D01*
X106383333Y-97542857D01*
X106316666Y-97514285D01*
X106250000Y-97457142D01*
X106216666Y-97371428D01*
X106216666Y-97314285D01*
X106250000Y-97228571D01*
X106283333Y-97200000D01*
X106216666Y-97000000D02*
X106216666Y-96600000D01*
X106916666Y-96857142D01*
%TO.C,C10*%
X107750000Y-97735714D02*
X107783333Y-97764285D01*
X107816666Y-97850000D01*
X107816666Y-97907142D01*
X107783333Y-97992857D01*
X107716666Y-98050000D01*
X107650000Y-98078571D01*
X107516666Y-98107142D01*
X107416666Y-98107142D01*
X107283333Y-98078571D01*
X107216666Y-98050000D01*
X107150000Y-97992857D01*
X107116666Y-97907142D01*
X107116666Y-97850000D01*
X107150000Y-97764285D01*
X107183333Y-97735714D01*
X107816666Y-97164285D02*
X107816666Y-97507142D01*
X107816666Y-97335714D02*
X107116666Y-97335714D01*
X107216666Y-97392857D01*
X107283333Y-97450000D01*
X107316666Y-97507142D01*
X107116666Y-96792857D02*
X107116666Y-96735714D01*
X107150000Y-96678571D01*
X107183333Y-96650000D01*
X107250000Y-96621428D01*
X107383333Y-96592857D01*
X107550000Y-96592857D01*
X107683333Y-96621428D01*
X107750000Y-96650000D01*
X107783333Y-96678571D01*
X107816666Y-96735714D01*
X107816666Y-96792857D01*
X107783333Y-96850000D01*
X107750000Y-96878571D01*
X107683333Y-96907142D01*
X107550000Y-96935714D01*
X107383333Y-96935714D01*
X107250000Y-96907142D01*
X107183333Y-96878571D01*
X107150000Y-96850000D01*
X107116666Y-96792857D01*
%TO.C,C11*%
X102264285Y-95250000D02*
X102235714Y-95283333D01*
X102150000Y-95316666D01*
X102092857Y-95316666D01*
X102007142Y-95283333D01*
X101950000Y-95216666D01*
X101921428Y-95150000D01*
X101892857Y-95016666D01*
X101892857Y-94916666D01*
X101921428Y-94783333D01*
X101950000Y-94716666D01*
X102007142Y-94650000D01*
X102092857Y-94616666D01*
X102150000Y-94616666D01*
X102235714Y-94650000D01*
X102264285Y-94683333D01*
X102835714Y-95316666D02*
X102492857Y-95316666D01*
X102664285Y-95316666D02*
X102664285Y-94616666D01*
X102607142Y-94716666D01*
X102550000Y-94783333D01*
X102492857Y-94816666D01*
X103407142Y-95316666D02*
X103064285Y-95316666D01*
X103235714Y-95316666D02*
X103235714Y-94616666D01*
X103178571Y-94716666D01*
X103121428Y-94783333D01*
X103064285Y-94816666D01*
%TO.C,C12*%
X104314285Y-93500000D02*
X104285714Y-93533333D01*
X104200000Y-93566666D01*
X104142857Y-93566666D01*
X104057142Y-93533333D01*
X104000000Y-93466666D01*
X103971428Y-93400000D01*
X103942857Y-93266666D01*
X103942857Y-93166666D01*
X103971428Y-93033333D01*
X104000000Y-92966666D01*
X104057142Y-92900000D01*
X104142857Y-92866666D01*
X104200000Y-92866666D01*
X104285714Y-92900000D01*
X104314285Y-92933333D01*
X104885714Y-93566666D02*
X104542857Y-93566666D01*
X104714285Y-93566666D02*
X104714285Y-92866666D01*
X104657142Y-92966666D01*
X104600000Y-93033333D01*
X104542857Y-93066666D01*
X105114285Y-92933333D02*
X105142857Y-92900000D01*
X105200000Y-92866666D01*
X105342857Y-92866666D01*
X105400000Y-92900000D01*
X105428571Y-92933333D01*
X105457142Y-93000000D01*
X105457142Y-93066666D01*
X105428571Y-93166666D01*
X105085714Y-93566666D01*
X105457142Y-93566666D01*
%TO.C,C20*%
X111000000Y-83085714D02*
X111033333Y-83114285D01*
X111066666Y-83200000D01*
X111066666Y-83257142D01*
X111033333Y-83342857D01*
X110966666Y-83400000D01*
X110900000Y-83428571D01*
X110766666Y-83457142D01*
X110666666Y-83457142D01*
X110533333Y-83428571D01*
X110466666Y-83400000D01*
X110400000Y-83342857D01*
X110366666Y-83257142D01*
X110366666Y-83200000D01*
X110400000Y-83114285D01*
X110433333Y-83085714D01*
X110433333Y-82857142D02*
X110400000Y-82828571D01*
X110366666Y-82771428D01*
X110366666Y-82628571D01*
X110400000Y-82571428D01*
X110433333Y-82542857D01*
X110500000Y-82514285D01*
X110566666Y-82514285D01*
X110666666Y-82542857D01*
X111066666Y-82885714D01*
X111066666Y-82514285D01*
X110366666Y-82142857D02*
X110366666Y-82085714D01*
X110400000Y-82028571D01*
X110433333Y-82000000D01*
X110500000Y-81971428D01*
X110633333Y-81942857D01*
X110800000Y-81942857D01*
X110933333Y-81971428D01*
X111000000Y-82000000D01*
X111033333Y-82028571D01*
X111066666Y-82085714D01*
X111066666Y-82142857D01*
X111033333Y-82200000D01*
X111000000Y-82228571D01*
X110933333Y-82257142D01*
X110800000Y-82285714D01*
X110633333Y-82285714D01*
X110500000Y-82257142D01*
X110433333Y-82228571D01*
X110400000Y-82200000D01*
X110366666Y-82142857D01*
%TO.C,C21*%
X110100000Y-83585714D02*
X110133333Y-83614285D01*
X110166666Y-83700000D01*
X110166666Y-83757142D01*
X110133333Y-83842857D01*
X110066666Y-83900000D01*
X110000000Y-83928571D01*
X109866666Y-83957142D01*
X109766666Y-83957142D01*
X109633333Y-83928571D01*
X109566666Y-83900000D01*
X109500000Y-83842857D01*
X109466666Y-83757142D01*
X109466666Y-83700000D01*
X109500000Y-83614285D01*
X109533333Y-83585714D01*
X109533333Y-83357142D02*
X109500000Y-83328571D01*
X109466666Y-83271428D01*
X109466666Y-83128571D01*
X109500000Y-83071428D01*
X109533333Y-83042857D01*
X109600000Y-83014285D01*
X109666666Y-83014285D01*
X109766666Y-83042857D01*
X110166666Y-83385714D01*
X110166666Y-83014285D01*
X110166666Y-82442857D02*
X110166666Y-82785714D01*
X110166666Y-82614285D02*
X109466666Y-82614285D01*
X109566666Y-82671428D01*
X109633333Y-82728571D01*
X109666666Y-82785714D01*
%TO.C,C22*%
X107150000Y-86635714D02*
X107183333Y-86664285D01*
X107216666Y-86750000D01*
X107216666Y-86807142D01*
X107183333Y-86892857D01*
X107116666Y-86950000D01*
X107050000Y-86978571D01*
X106916666Y-87007142D01*
X106816666Y-87007142D01*
X106683333Y-86978571D01*
X106616666Y-86950000D01*
X106550000Y-86892857D01*
X106516666Y-86807142D01*
X106516666Y-86750000D01*
X106550000Y-86664285D01*
X106583333Y-86635714D01*
X106583333Y-86407142D02*
X106550000Y-86378571D01*
X106516666Y-86321428D01*
X106516666Y-86178571D01*
X106550000Y-86121428D01*
X106583333Y-86092857D01*
X106650000Y-86064285D01*
X106716666Y-86064285D01*
X106816666Y-86092857D01*
X107216666Y-86435714D01*
X107216666Y-86064285D01*
X106583333Y-85835714D02*
X106550000Y-85807142D01*
X106516666Y-85750000D01*
X106516666Y-85607142D01*
X106550000Y-85550000D01*
X106583333Y-85521428D01*
X106650000Y-85492857D01*
X106716666Y-85492857D01*
X106816666Y-85521428D01*
X107216666Y-85864285D01*
X107216666Y-85492857D01*
%TO.C,C23*%
X105250000Y-87535714D02*
X105283333Y-87564285D01*
X105316666Y-87650000D01*
X105316666Y-87707142D01*
X105283333Y-87792857D01*
X105216666Y-87850000D01*
X105150000Y-87878571D01*
X105016666Y-87907142D01*
X104916666Y-87907142D01*
X104783333Y-87878571D01*
X104716666Y-87850000D01*
X104650000Y-87792857D01*
X104616666Y-87707142D01*
X104616666Y-87650000D01*
X104650000Y-87564285D01*
X104683333Y-87535714D01*
X104683333Y-87307142D02*
X104650000Y-87278571D01*
X104616666Y-87221428D01*
X104616666Y-87078571D01*
X104650000Y-87021428D01*
X104683333Y-86992857D01*
X104750000Y-86964285D01*
X104816666Y-86964285D01*
X104916666Y-86992857D01*
X105316666Y-87335714D01*
X105316666Y-86964285D01*
X104616666Y-86764285D02*
X104616666Y-86392857D01*
X104883333Y-86592857D01*
X104883333Y-86507142D01*
X104916666Y-86450000D01*
X104950000Y-86421428D01*
X105016666Y-86392857D01*
X105183333Y-86392857D01*
X105250000Y-86421428D01*
X105283333Y-86450000D01*
X105316666Y-86507142D01*
X105316666Y-86678571D01*
X105283333Y-86735714D01*
X105250000Y-86764285D01*
%TO.C,C24*%
X109664285Y-86850000D02*
X109635714Y-86883333D01*
X109550000Y-86916666D01*
X109492857Y-86916666D01*
X109407142Y-86883333D01*
X109350000Y-86816666D01*
X109321428Y-86750000D01*
X109292857Y-86616666D01*
X109292857Y-86516666D01*
X109321428Y-86383333D01*
X109350000Y-86316666D01*
X109407142Y-86250000D01*
X109492857Y-86216666D01*
X109550000Y-86216666D01*
X109635714Y-86250000D01*
X109664285Y-86283333D01*
X109892857Y-86283333D02*
X109921428Y-86250000D01*
X109978571Y-86216666D01*
X110121428Y-86216666D01*
X110178571Y-86250000D01*
X110207142Y-86283333D01*
X110235714Y-86350000D01*
X110235714Y-86416666D01*
X110207142Y-86516666D01*
X109864285Y-86916666D01*
X110235714Y-86916666D01*
X110750000Y-86450000D02*
X110750000Y-86916666D01*
X110607142Y-86183333D02*
X110464285Y-86683333D01*
X110835714Y-86683333D01*
%TO.C,C27*%
X109814285Y-81250000D02*
X109785714Y-81283333D01*
X109700000Y-81316666D01*
X109642857Y-81316666D01*
X109557142Y-81283333D01*
X109500000Y-81216666D01*
X109471428Y-81150000D01*
X109442857Y-81016666D01*
X109442857Y-80916666D01*
X109471428Y-80783333D01*
X109500000Y-80716666D01*
X109557142Y-80650000D01*
X109642857Y-80616666D01*
X109700000Y-80616666D01*
X109785714Y-80650000D01*
X109814285Y-80683333D01*
X110042857Y-80683333D02*
X110071428Y-80650000D01*
X110128571Y-80616666D01*
X110271428Y-80616666D01*
X110328571Y-80650000D01*
X110357142Y-80683333D01*
X110385714Y-80750000D01*
X110385714Y-80816666D01*
X110357142Y-80916666D01*
X110014285Y-81316666D01*
X110385714Y-81316666D01*
X110585714Y-80616666D02*
X110985714Y-80616666D01*
X110728571Y-81316666D01*
%TO.C,L3*%
X112116666Y-82650000D02*
X112116666Y-82935714D01*
X111416666Y-82935714D01*
X111416666Y-82507142D02*
X111416666Y-82135714D01*
X111683333Y-82335714D01*
X111683333Y-82250000D01*
X111716666Y-82192857D01*
X111750000Y-82164285D01*
X111816666Y-82135714D01*
X111983333Y-82135714D01*
X112050000Y-82164285D01*
X112083333Y-82192857D01*
X112116666Y-82250000D01*
X112116666Y-82421428D01*
X112083333Y-82478571D01*
X112050000Y-82507142D01*
%TO.C,L4*%
X103516666Y-84500000D02*
X103516666Y-84785714D01*
X102816666Y-84785714D01*
X103050000Y-84042857D02*
X103516666Y-84042857D01*
X102783333Y-84185714D02*
X103283333Y-84328571D01*
X103283333Y-83957142D01*
%TO.C,L5*%
X109116666Y-85250000D02*
X109116666Y-85535714D01*
X108416666Y-85535714D01*
X108416666Y-84764285D02*
X108416666Y-85050000D01*
X108750000Y-85078571D01*
X108716666Y-85050000D01*
X108683333Y-84992857D01*
X108683333Y-84850000D01*
X108716666Y-84792857D01*
X108750000Y-84764285D01*
X108816666Y-84735714D01*
X108983333Y-84735714D01*
X109050000Y-84764285D01*
X109083333Y-84792857D01*
X109116666Y-84850000D01*
X109116666Y-84992857D01*
X109083333Y-85050000D01*
X109050000Y-85078571D01*
%TO.C,L6*%
X106650000Y-82266666D02*
X106364285Y-82266666D01*
X106364285Y-81566666D01*
X107107142Y-81566666D02*
X106992857Y-81566666D01*
X106935714Y-81600000D01*
X106907142Y-81633333D01*
X106850000Y-81733333D01*
X106821428Y-81866666D01*
X106821428Y-82133333D01*
X106850000Y-82200000D01*
X106878571Y-82233333D01*
X106935714Y-82266666D01*
X107050000Y-82266666D01*
X107107142Y-82233333D01*
X107135714Y-82200000D01*
X107164285Y-82133333D01*
X107164285Y-81966666D01*
X107135714Y-81900000D01*
X107107142Y-81866666D01*
X107050000Y-81833333D01*
X106935714Y-81833333D01*
X106878571Y-81866666D01*
X106850000Y-81900000D01*
X106821428Y-81966666D01*
%TO.C,R1*%
X112350000Y-86916666D02*
X112150000Y-86583333D01*
X112007142Y-86916666D02*
X112007142Y-86216666D01*
X112235714Y-86216666D01*
X112292857Y-86250000D01*
X112321428Y-86283333D01*
X112350000Y-86350000D01*
X112350000Y-86450000D01*
X112321428Y-86516666D01*
X112292857Y-86550000D01*
X112235714Y-86583333D01*
X112007142Y-86583333D01*
X112921428Y-86916666D02*
X112578571Y-86916666D01*
X112750000Y-86916666D02*
X112750000Y-86216666D01*
X112692857Y-86316666D01*
X112635714Y-86383333D01*
X112578571Y-86416666D01*
%TO.C,U3*%
X107142857Y-93466666D02*
X107142857Y-94033333D01*
X107171428Y-94100000D01*
X107200000Y-94133333D01*
X107257142Y-94166666D01*
X107371428Y-94166666D01*
X107428571Y-94133333D01*
X107457142Y-94100000D01*
X107485714Y-94033333D01*
X107485714Y-93466666D01*
X107714285Y-93466666D02*
X108085714Y-93466666D01*
X107885714Y-93733333D01*
X107971428Y-93733333D01*
X108028571Y-93766666D01*
X108057142Y-93800000D01*
X108085714Y-93866666D01*
X108085714Y-94033333D01*
X108057142Y-94100000D01*
X108028571Y-94133333D01*
X107971428Y-94166666D01*
X107800000Y-94166666D01*
X107742857Y-94133333D01*
X107714285Y-94100000D01*
%TO.C,Y1*%
X112036184Y-95440245D02*
X112271886Y-95675947D01*
X111635490Y-95322394D02*
X112036184Y-95440245D01*
X111918333Y-95039551D01*
X112776962Y-95170871D02*
X112534526Y-95413307D01*
X112655744Y-95292089D02*
X112160769Y-94797114D01*
X112191074Y-94908231D01*
X112197808Y-94995778D01*
X112180972Y-95059754D01*
%TO.C,Y2*%
X111864285Y-90083333D02*
X111864285Y-90416666D01*
X111664285Y-89716666D02*
X111864285Y-90083333D01*
X112064285Y-89716666D01*
X112235714Y-89783333D02*
X112264285Y-89750000D01*
X112321428Y-89716666D01*
X112464285Y-89716666D01*
X112521428Y-89750000D01*
X112550000Y-89783333D01*
X112578571Y-89850000D01*
X112578571Y-89916666D01*
X112550000Y-90016666D01*
X112207142Y-90416666D01*
X112578571Y-90416666D01*
%TO.C,J23*%
X101289285Y-80816666D02*
X101289285Y-81316666D01*
X101260714Y-81416666D01*
X101203571Y-81483333D01*
X101117857Y-81516666D01*
X101060714Y-81516666D01*
X101546428Y-80883333D02*
X101575000Y-80850000D01*
X101632142Y-80816666D01*
X101775000Y-80816666D01*
X101832142Y-80850000D01*
X101860714Y-80883333D01*
X101889285Y-80950000D01*
X101889285Y-81016666D01*
X101860714Y-81116666D01*
X101517857Y-81516666D01*
X101889285Y-81516666D01*
X102089285Y-80816666D02*
X102460714Y-80816666D01*
X102260714Y-81083333D01*
X102346428Y-81083333D01*
X102403571Y-81116666D01*
X102432142Y-81150000D01*
X102460714Y-81216666D01*
X102460714Y-81383333D01*
X102432142Y-81450000D01*
X102403571Y-81483333D01*
X102346428Y-81516666D01*
X102175000Y-81516666D01*
X102117857Y-81483333D01*
X102089285Y-81450000D01*
%TD*%
M02*
