%TF.GenerationSoftware,KiCad,Pcbnew,(5.1.6)-1*%
%TF.CreationDate,2021-01-29T18:20:15+05:30*%
%TF.ProjectId,Bluetooth_Module,426c7565-746f-46f7-9468-5f4d6f64756c,rev?*%
%TF.SameCoordinates,Original*%
%TF.FileFunction,Legend,Bot*%
%TF.FilePolarity,Positive*%
%FSLAX46Y46*%
G04 Gerber Fmt 4.6, Leading zero omitted, Abs format (unit mm)*
G04 Created by KiCad (PCBNEW (5.1.6)-1) date 2021-01-29 18:20:15*
%MOMM*%
%LPD*%
G01*
G04 APERTURE LIST*
%ADD10C,0.120000*%
G04 APERTURE END LIST*
%TO.C,J12*%
D10*
X103698020Y-85635837D02*
X103273756Y-85211573D01*
X103139069Y-85346260D01*
X103125600Y-85400135D01*
X103128967Y-85437174D01*
X103152538Y-85494416D01*
X103213147Y-85555025D01*
X103270389Y-85578595D01*
X103307428Y-85581962D01*
X103361302Y-85568493D01*
X103495990Y-85433806D01*
X103004382Y-85885008D02*
X102974077Y-85955719D01*
X102977445Y-85992758D01*
X103001015Y-86050000D01*
X103061624Y-86110609D01*
X103118866Y-86134179D01*
X103155905Y-86137546D01*
X103209780Y-86124077D01*
X103344467Y-85989390D01*
X102920203Y-85565126D01*
X102802351Y-85682977D01*
X102788883Y-85736852D01*
X102792250Y-85773891D01*
X102815820Y-85831133D01*
X102856226Y-85871539D01*
X102913468Y-85895109D01*
X102950507Y-85898477D01*
X103004382Y-85885008D01*
X103122233Y-85767157D01*
X102499306Y-85986023D02*
X102465634Y-86019695D01*
X102452165Y-86073570D01*
X102455532Y-86110609D01*
X102479103Y-86167851D01*
X102543079Y-86265499D01*
X102644094Y-86366514D01*
X102741742Y-86430490D01*
X102798984Y-86454061D01*
X102836023Y-86457428D01*
X102889898Y-86443959D01*
X102923570Y-86410287D01*
X102937038Y-86356412D01*
X102933671Y-86319374D01*
X102910101Y-86262132D01*
X102846125Y-86164483D01*
X102745109Y-86063468D01*
X102647461Y-85999492D01*
X102590219Y-85975922D01*
X102553180Y-85972554D01*
X102499306Y-85986023D01*
X102162588Y-86322741D02*
X102128916Y-86356412D01*
X102115448Y-86410287D01*
X102118815Y-86447326D01*
X102142385Y-86504568D01*
X102206361Y-86602216D01*
X102307377Y-86703231D01*
X102405025Y-86767208D01*
X102462267Y-86790778D01*
X102499306Y-86794145D01*
X102553180Y-86780677D01*
X102586852Y-86747005D01*
X102600321Y-86693130D01*
X102596954Y-86656091D01*
X102573384Y-86598849D01*
X102509407Y-86501201D01*
X102408392Y-86400186D01*
X102310744Y-86336209D01*
X102253502Y-86312639D01*
X102216463Y-86309272D01*
X102162588Y-86322741D01*
%TO.C,J1*%
X104622766Y-96861091D02*
X104198502Y-96436827D01*
X104063815Y-96571514D01*
X104050346Y-96625389D01*
X104053714Y-96662427D01*
X104077284Y-96719669D01*
X104137893Y-96780279D01*
X104195135Y-96803849D01*
X104232174Y-96807216D01*
X104286049Y-96793747D01*
X104420736Y-96659060D01*
X104164830Y-97076590D02*
X103996472Y-97244949D01*
X104319720Y-97164137D02*
X103777605Y-96857724D01*
X104084018Y-97399839D01*
X103474559Y-97160769D02*
X103440888Y-97194441D01*
X103427419Y-97248316D01*
X103430786Y-97285355D01*
X103454356Y-97342597D01*
X103518333Y-97440245D01*
X103619348Y-97541260D01*
X103716996Y-97605236D01*
X103774238Y-97628807D01*
X103811277Y-97632174D01*
X103865152Y-97618705D01*
X103898824Y-97585033D01*
X103912292Y-97531159D01*
X103908925Y-97494120D01*
X103885355Y-97436878D01*
X103821379Y-97339230D01*
X103720363Y-97238214D01*
X103622715Y-97174238D01*
X103565473Y-97150668D01*
X103528434Y-97147301D01*
X103474559Y-97160769D01*
X103053663Y-97581666D02*
X103121006Y-97514323D01*
X103174881Y-97500854D01*
X103211920Y-97504221D01*
X103306201Y-97531159D01*
X103403849Y-97595135D01*
X103565473Y-97756759D01*
X103589043Y-97814001D01*
X103592411Y-97851040D01*
X103578942Y-97904915D01*
X103511598Y-97972259D01*
X103457724Y-97985727D01*
X103420685Y-97982360D01*
X103363443Y-97958790D01*
X103262427Y-97857775D01*
X103238857Y-97800533D01*
X103235490Y-97763494D01*
X103248959Y-97709619D01*
X103316302Y-97642275D01*
X103370177Y-97628807D01*
X103407216Y-97632174D01*
X103464458Y-97655744D01*
%TO.C,J2*%
X103272766Y-97061091D02*
X102848502Y-96636827D01*
X102713815Y-96771514D01*
X102700346Y-96825389D01*
X102703714Y-96862427D01*
X102727284Y-96919669D01*
X102787893Y-96980279D01*
X102845135Y-97003849D01*
X102882174Y-97007216D01*
X102936049Y-96993747D01*
X103070736Y-96859060D01*
X102814830Y-97276590D02*
X102646472Y-97444949D01*
X102969720Y-97364137D02*
X102427605Y-97057724D01*
X102734018Y-97599839D01*
X102124559Y-97360769D02*
X102090888Y-97394441D01*
X102077419Y-97448316D01*
X102080786Y-97485355D01*
X102104356Y-97542597D01*
X102168333Y-97640245D01*
X102269348Y-97741260D01*
X102366996Y-97805236D01*
X102424238Y-97828807D01*
X102461277Y-97832174D01*
X102515152Y-97818705D01*
X102548824Y-97785033D01*
X102562292Y-97731159D01*
X102558925Y-97694120D01*
X102535355Y-97636878D01*
X102471379Y-97539230D01*
X102370363Y-97438214D01*
X102272715Y-97374238D01*
X102215473Y-97350668D01*
X102178434Y-97347301D01*
X102124559Y-97360769D01*
X101686827Y-97798502D02*
X101855185Y-97630143D01*
X102074052Y-97815338D01*
X102037013Y-97811971D01*
X101983138Y-97825440D01*
X101898959Y-97909619D01*
X101885490Y-97963494D01*
X101888857Y-98000533D01*
X101912427Y-98057775D01*
X102013443Y-98158790D01*
X102070685Y-98182360D01*
X102107724Y-98185727D01*
X102161598Y-98172259D01*
X102245778Y-98088079D01*
X102259246Y-98034204D01*
X102255879Y-97997165D01*
%TO.C,J3*%
X103538079Y-95595778D02*
X103113815Y-95171514D01*
X102979128Y-95306201D01*
X102965659Y-95360076D01*
X102969027Y-95397114D01*
X102992597Y-95454356D01*
X103053206Y-95514966D01*
X103110448Y-95538536D01*
X103147487Y-95541903D01*
X103201362Y-95528434D01*
X103336049Y-95393747D01*
X103080143Y-95811277D02*
X102911785Y-95979636D01*
X103235033Y-95898824D02*
X102692918Y-95592411D01*
X102999331Y-96134526D01*
X102389872Y-95895456D02*
X102356201Y-95929128D01*
X102342732Y-95983003D01*
X102346099Y-96020042D01*
X102369669Y-96077284D01*
X102433646Y-96174932D01*
X102534661Y-96275947D01*
X102632309Y-96339923D01*
X102689551Y-96363494D01*
X102726590Y-96366861D01*
X102780465Y-96353392D01*
X102814137Y-96319720D01*
X102827605Y-96265846D01*
X102824238Y-96228807D01*
X102800668Y-96171565D01*
X102736692Y-96073917D01*
X102635676Y-95972901D01*
X102538028Y-95908925D01*
X102480786Y-95885355D01*
X102443747Y-95881988D01*
X102389872Y-95895456D01*
X102110397Y-96457775D02*
X102393240Y-96740617D01*
X102032952Y-96211971D02*
X102420177Y-96430837D01*
X102201311Y-96649704D01*
%TO.C,J4*%
X103622766Y-93661091D02*
X103198502Y-93236827D01*
X103063815Y-93371514D01*
X103050346Y-93425389D01*
X103053714Y-93462427D01*
X103077284Y-93519669D01*
X103137893Y-93580279D01*
X103195135Y-93603849D01*
X103232174Y-93607216D01*
X103286049Y-93593747D01*
X103420736Y-93459060D01*
X103164830Y-93876590D02*
X102996472Y-94044949D01*
X103319720Y-93964137D02*
X102777605Y-93657724D01*
X103084018Y-94199839D01*
X102474559Y-93960769D02*
X102440888Y-93994441D01*
X102427419Y-94048316D01*
X102430786Y-94085355D01*
X102454356Y-94142597D01*
X102518333Y-94240245D01*
X102619348Y-94341260D01*
X102716996Y-94405236D01*
X102774238Y-94428807D01*
X102811277Y-94432174D01*
X102865152Y-94418705D01*
X102898824Y-94385033D01*
X102912292Y-94331159D01*
X102908925Y-94294120D01*
X102885355Y-94236878D01*
X102821379Y-94139230D01*
X102720363Y-94038214D01*
X102622715Y-93974238D01*
X102565473Y-93950668D01*
X102528434Y-93947301D01*
X102474559Y-93960769D01*
X102238857Y-94196472D02*
X102019991Y-94415338D01*
X102299466Y-94459111D01*
X102248959Y-94509619D01*
X102235490Y-94563494D01*
X102238857Y-94600533D01*
X102262427Y-94657775D01*
X102363443Y-94758790D01*
X102420685Y-94782360D01*
X102457724Y-94785727D01*
X102511598Y-94772259D01*
X102612614Y-94671243D01*
X102626082Y-94617369D01*
X102622715Y-94580330D01*
%TO.C,J5*%
X103572766Y-91561091D02*
X103148502Y-91136827D01*
X103013815Y-91271514D01*
X103000346Y-91325389D01*
X103003714Y-91362427D01*
X103027284Y-91419669D01*
X103087893Y-91480279D01*
X103145135Y-91503849D01*
X103182174Y-91507216D01*
X103236049Y-91493747D01*
X103370736Y-91359060D01*
X103114830Y-91776590D02*
X102946472Y-91944949D01*
X103269720Y-91864137D02*
X102727605Y-91557724D01*
X103034018Y-92099839D01*
X102424559Y-91860769D02*
X102390888Y-91894441D01*
X102377419Y-91948316D01*
X102380786Y-91985355D01*
X102404356Y-92042597D01*
X102468333Y-92140245D01*
X102569348Y-92241260D01*
X102666996Y-92305236D01*
X102724238Y-92328807D01*
X102761277Y-92332174D01*
X102815152Y-92318705D01*
X102848824Y-92285033D01*
X102862292Y-92231159D01*
X102858925Y-92194120D01*
X102835355Y-92136878D01*
X102771379Y-92039230D01*
X102670363Y-91938214D01*
X102572715Y-91874238D01*
X102515473Y-91850668D01*
X102478434Y-91847301D01*
X102424559Y-91860769D01*
X102212427Y-92153714D02*
X102175389Y-92150346D01*
X102121514Y-92163815D01*
X102037334Y-92247995D01*
X102023866Y-92301869D01*
X102027233Y-92338908D01*
X102050803Y-92396150D01*
X102091209Y-92436556D01*
X102168654Y-92480330D01*
X102613121Y-92520736D01*
X102394255Y-92739602D01*
%TO.C,J6*%
X103572766Y-89561091D02*
X103148502Y-89136827D01*
X103013815Y-89271514D01*
X103000346Y-89325389D01*
X103003714Y-89362427D01*
X103027284Y-89419669D01*
X103087893Y-89480279D01*
X103145135Y-89503849D01*
X103182174Y-89507216D01*
X103236049Y-89493747D01*
X103370736Y-89359060D01*
X103114830Y-89776590D02*
X102946472Y-89944949D01*
X103269720Y-89864137D02*
X102727605Y-89557724D01*
X103034018Y-90099839D01*
X102424559Y-89860769D02*
X102390888Y-89894441D01*
X102377419Y-89948316D01*
X102380786Y-89985355D01*
X102404356Y-90042597D01*
X102468333Y-90140245D01*
X102569348Y-90241260D01*
X102666996Y-90305236D01*
X102724238Y-90328807D01*
X102761277Y-90332174D01*
X102815152Y-90318705D01*
X102848824Y-90285033D01*
X102862292Y-90231159D01*
X102858925Y-90194120D01*
X102835355Y-90136878D01*
X102771379Y-90039230D01*
X102670363Y-89938214D01*
X102572715Y-89874238D01*
X102515473Y-89850668D01*
X102478434Y-89847301D01*
X102424559Y-89860769D01*
X102394255Y-90739602D02*
X102596285Y-90537572D01*
X102495270Y-90638587D02*
X102071006Y-90214323D01*
X102165287Y-90241260D01*
X102239365Y-90247995D01*
X102293240Y-90234526D01*
%TO.C,J7*%
X103722766Y-87661091D02*
X103298502Y-87236827D01*
X103163815Y-87371514D01*
X103150346Y-87425389D01*
X103153714Y-87462427D01*
X103177284Y-87519669D01*
X103237893Y-87580279D01*
X103295135Y-87603849D01*
X103332174Y-87607216D01*
X103386049Y-87593747D01*
X103520736Y-87459060D01*
X103264830Y-87876590D02*
X103096472Y-88044949D01*
X103419720Y-87964137D02*
X102877605Y-87657724D01*
X103184018Y-88199839D01*
X102574559Y-87960769D02*
X102540888Y-87994441D01*
X102527419Y-88048316D01*
X102530786Y-88085355D01*
X102554356Y-88142597D01*
X102618333Y-88240245D01*
X102719348Y-88341260D01*
X102816996Y-88405236D01*
X102874238Y-88428807D01*
X102911277Y-88432174D01*
X102965152Y-88418705D01*
X102998824Y-88385033D01*
X103012292Y-88331159D01*
X103008925Y-88294120D01*
X102985355Y-88236878D01*
X102921379Y-88139230D01*
X102820363Y-88038214D01*
X102722715Y-87974238D01*
X102665473Y-87950668D01*
X102628434Y-87947301D01*
X102574559Y-87960769D01*
X102237842Y-88297487D02*
X102204170Y-88331159D01*
X102190702Y-88385033D01*
X102194069Y-88422072D01*
X102217639Y-88479314D01*
X102281615Y-88576962D01*
X102382630Y-88677978D01*
X102480279Y-88741954D01*
X102537521Y-88765524D01*
X102574559Y-88768891D01*
X102628434Y-88755423D01*
X102662106Y-88721751D01*
X102675575Y-88667876D01*
X102672208Y-88630837D01*
X102648637Y-88573595D01*
X102584661Y-88475947D01*
X102483646Y-88374932D01*
X102385998Y-88310956D01*
X102328756Y-88287385D01*
X102291717Y-88284018D01*
X102237842Y-88297487D01*
%TO.C,J8*%
X107042857Y-95875000D02*
X107042857Y-96255952D01*
X107271428Y-96065476D02*
X106814285Y-96065476D01*
X106671428Y-96446428D02*
X106671428Y-96755952D01*
X106900000Y-96589285D01*
X106900000Y-96660714D01*
X106928571Y-96708333D01*
X106957142Y-96732142D01*
X107014285Y-96755952D01*
X107157142Y-96755952D01*
X107214285Y-96732142D01*
X107242857Y-96708333D01*
X107271428Y-96660714D01*
X107271428Y-96517857D01*
X107242857Y-96470238D01*
X107214285Y-96446428D01*
X107214285Y-96970238D02*
X107242857Y-96994047D01*
X107271428Y-96970238D01*
X107242857Y-96946428D01*
X107214285Y-96970238D01*
X107271428Y-96970238D01*
X106671428Y-97160714D02*
X106671428Y-97470238D01*
X106900000Y-97303571D01*
X106900000Y-97375000D01*
X106928571Y-97422619D01*
X106957142Y-97446428D01*
X107014285Y-97470238D01*
X107157142Y-97470238D01*
X107214285Y-97446428D01*
X107242857Y-97422619D01*
X107271428Y-97375000D01*
X107271428Y-97232142D01*
X107242857Y-97184523D01*
X107214285Y-97160714D01*
X106671428Y-97613095D02*
X107271428Y-97779761D01*
X106671428Y-97946428D01*
%TO.C,J9*%
X112489162Y-98123020D02*
X112913426Y-97698756D01*
X112778739Y-97564069D01*
X112724864Y-97550600D01*
X112687825Y-97553967D01*
X112630583Y-97577538D01*
X112569974Y-97638147D01*
X112546404Y-97695389D01*
X112543037Y-97732428D01*
X112556506Y-97786302D01*
X112691193Y-97920990D01*
X112135609Y-97769467D02*
X112559873Y-97345203D01*
X112475693Y-97261023D01*
X112404983Y-97230719D01*
X112330905Y-97237453D01*
X112273663Y-97261023D01*
X112176015Y-97325000D01*
X112115406Y-97385609D01*
X112051429Y-97483257D01*
X112027859Y-97540499D01*
X112021125Y-97614577D01*
X112051429Y-97685287D01*
X112135609Y-97769467D01*
X112138976Y-96924306D02*
X112105304Y-96890634D01*
X112051429Y-96877165D01*
X112014390Y-96880532D01*
X111957148Y-96904103D01*
X111859500Y-96968079D01*
X111758485Y-97069094D01*
X111694509Y-97166742D01*
X111670938Y-97223984D01*
X111667571Y-97261023D01*
X111681040Y-97314898D01*
X111714712Y-97348570D01*
X111768587Y-97362038D01*
X111805625Y-97358671D01*
X111862867Y-97335101D01*
X111960516Y-97271125D01*
X112061531Y-97170109D01*
X112125507Y-97072461D01*
X112149077Y-97015219D01*
X112152445Y-96978180D01*
X112138976Y-96924306D01*
X111846032Y-96712174D02*
X111849399Y-96675135D01*
X111835930Y-96621260D01*
X111751751Y-96537081D01*
X111697876Y-96523612D01*
X111660837Y-96526979D01*
X111603595Y-96550549D01*
X111563189Y-96590955D01*
X111519416Y-96668400D01*
X111479009Y-97112867D01*
X111260143Y-96894001D01*
%TO.C,J10*%
X110889162Y-97948020D02*
X111313426Y-97523756D01*
X111178739Y-97389069D01*
X111124864Y-97375600D01*
X111087825Y-97378967D01*
X111030583Y-97402538D01*
X110969974Y-97463147D01*
X110946404Y-97520389D01*
X110943037Y-97557428D01*
X110956506Y-97611302D01*
X111091193Y-97745990D01*
X110535609Y-97594467D02*
X110959873Y-97170203D01*
X110875693Y-97086023D01*
X110804983Y-97055719D01*
X110730905Y-97062453D01*
X110673663Y-97086023D01*
X110576015Y-97150000D01*
X110515406Y-97210609D01*
X110451429Y-97308257D01*
X110427859Y-97365499D01*
X110421125Y-97439577D01*
X110451429Y-97510287D01*
X110535609Y-97594467D01*
X110538976Y-96749306D02*
X110505304Y-96715634D01*
X110451429Y-96702165D01*
X110414390Y-96705532D01*
X110357148Y-96729103D01*
X110259500Y-96793079D01*
X110158485Y-96894094D01*
X110094509Y-96991742D01*
X110070938Y-97048984D01*
X110067571Y-97086023D01*
X110081040Y-97139898D01*
X110114712Y-97173570D01*
X110168587Y-97187038D01*
X110205625Y-97183671D01*
X110262867Y-97160101D01*
X110360516Y-97096125D01*
X110461531Y-96995109D01*
X110525507Y-96897461D01*
X110549077Y-96840219D01*
X110552445Y-96803180D01*
X110538976Y-96749306D01*
X110303274Y-96513603D02*
X110084407Y-96294737D01*
X110040634Y-96574213D01*
X109990126Y-96523705D01*
X109936251Y-96510236D01*
X109899213Y-96513603D01*
X109841971Y-96537174D01*
X109740955Y-96638189D01*
X109717385Y-96695431D01*
X109714018Y-96732470D01*
X109727487Y-96786345D01*
X109828502Y-96887360D01*
X109882377Y-96900829D01*
X109919416Y-96897461D01*
%TO.C,J11*%
X109321428Y-96142857D02*
X108721428Y-96142857D01*
X108721428Y-96333333D01*
X108750000Y-96380952D01*
X108778571Y-96404761D01*
X108835714Y-96428571D01*
X108921428Y-96428571D01*
X108978571Y-96404761D01*
X109007142Y-96380952D01*
X109035714Y-96333333D01*
X109035714Y-96142857D01*
X109321428Y-96642857D02*
X108721428Y-96642857D01*
X108721428Y-96761904D01*
X108750000Y-96833333D01*
X108807142Y-96880952D01*
X108864285Y-96904761D01*
X108978571Y-96928571D01*
X109064285Y-96928571D01*
X109178571Y-96904761D01*
X109235714Y-96880952D01*
X109292857Y-96833333D01*
X109321428Y-96761904D01*
X109321428Y-96642857D01*
X108721428Y-97238095D02*
X108721428Y-97285714D01*
X108750000Y-97333333D01*
X108778571Y-97357142D01*
X108835714Y-97380952D01*
X108950000Y-97404761D01*
X109092857Y-97404761D01*
X109207142Y-97380952D01*
X109264285Y-97357142D01*
X109292857Y-97333333D01*
X109321428Y-97285714D01*
X109321428Y-97238095D01*
X109292857Y-97190476D01*
X109264285Y-97166666D01*
X109207142Y-97142857D01*
X109092857Y-97119047D01*
X108950000Y-97119047D01*
X108835714Y-97142857D01*
X108778571Y-97166666D01*
X108750000Y-97190476D01*
X108721428Y-97238095D01*
X108921428Y-97833333D02*
X109321428Y-97833333D01*
X108692857Y-97714285D02*
X109121428Y-97595238D01*
X109121428Y-97904761D01*
%TO.C,J14*%
X113831506Y-84307241D02*
X113885380Y-84320710D01*
X113935888Y-84371218D01*
X113966193Y-84441928D01*
X113959458Y-84516006D01*
X113935888Y-84573248D01*
X113871912Y-84670896D01*
X113811302Y-84731506D01*
X113713654Y-84795482D01*
X113656412Y-84819052D01*
X113582335Y-84825786D01*
X113511624Y-84795482D01*
X113477952Y-84761810D01*
X113447648Y-84691099D01*
X113451015Y-84654061D01*
X113592436Y-84512639D01*
X113659780Y-84579983D01*
X113259086Y-84542944D02*
X113683350Y-84118680D01*
X113057055Y-84340913D01*
X113481319Y-83916649D01*
X112888697Y-84172554D02*
X113312961Y-83748290D01*
X113228781Y-83664111D01*
X113158071Y-83633806D01*
X113083993Y-83640541D01*
X113026751Y-83664111D01*
X112929103Y-83728087D01*
X112868493Y-83788697D01*
X112804517Y-83886345D01*
X112780947Y-83943587D01*
X112774213Y-84017664D01*
X112804517Y-84088375D01*
X112888697Y-84172554D01*
%TO.C,J15*%
X113564162Y-88848020D02*
X113988426Y-88423756D01*
X113853739Y-88289069D01*
X113799864Y-88275600D01*
X113762825Y-88278967D01*
X113705583Y-88302538D01*
X113644974Y-88363147D01*
X113621404Y-88420389D01*
X113618037Y-88457428D01*
X113631506Y-88511302D01*
X113766193Y-88645990D01*
X113048984Y-88252030D02*
X113045617Y-88289069D01*
X113075922Y-88359780D01*
X113109593Y-88393451D01*
X113180304Y-88423756D01*
X113254382Y-88417022D01*
X113311624Y-88393451D01*
X113409272Y-88329475D01*
X113469881Y-88268866D01*
X113533857Y-88171218D01*
X113557428Y-88113976D01*
X113564162Y-88039898D01*
X113533857Y-87969187D01*
X113500186Y-87935516D01*
X113429475Y-87905211D01*
X113392436Y-87908578D01*
X113213976Y-87649306D02*
X113180304Y-87615634D01*
X113126429Y-87602165D01*
X113089390Y-87605532D01*
X113032148Y-87629103D01*
X112934500Y-87693079D01*
X112833485Y-87794094D01*
X112769509Y-87891742D01*
X112745938Y-87948984D01*
X112742571Y-87986023D01*
X112756040Y-88039898D01*
X112789712Y-88073570D01*
X112843587Y-88087038D01*
X112880625Y-88083671D01*
X112937867Y-88060101D01*
X113035516Y-87996125D01*
X113136531Y-87895109D01*
X113200507Y-87797461D01*
X113224077Y-87740219D01*
X113227445Y-87703180D01*
X113213976Y-87649306D01*
X112776243Y-87211573D02*
X112944602Y-87379932D01*
X112759407Y-87598798D01*
X112762774Y-87561759D01*
X112749306Y-87507884D01*
X112665126Y-87423705D01*
X112611251Y-87410236D01*
X112574213Y-87413603D01*
X112516971Y-87437174D01*
X112415955Y-87538189D01*
X112392385Y-87595431D01*
X112389018Y-87632470D01*
X112402487Y-87686345D01*
X112486666Y-87770524D01*
X112540541Y-87783993D01*
X112577580Y-87780625D01*
%TO.C,J16*%
X113564162Y-90898020D02*
X113988426Y-90473756D01*
X113853739Y-90339069D01*
X113799864Y-90325600D01*
X113762825Y-90328967D01*
X113705583Y-90352538D01*
X113644974Y-90413147D01*
X113621404Y-90470389D01*
X113618037Y-90507428D01*
X113631506Y-90561302D01*
X113766193Y-90695990D01*
X113048984Y-90302030D02*
X113045617Y-90339069D01*
X113075922Y-90409780D01*
X113109593Y-90443451D01*
X113180304Y-90473756D01*
X113254382Y-90467022D01*
X113311624Y-90443451D01*
X113409272Y-90379475D01*
X113469881Y-90318866D01*
X113533857Y-90221218D01*
X113557428Y-90163976D01*
X113564162Y-90089898D01*
X113533857Y-90019187D01*
X113500186Y-89985516D01*
X113429475Y-89955211D01*
X113392436Y-89958578D01*
X113213976Y-89699306D02*
X113180304Y-89665634D01*
X113126429Y-89652165D01*
X113089390Y-89655532D01*
X113032148Y-89679103D01*
X112934500Y-89743079D01*
X112833485Y-89844094D01*
X112769509Y-89941742D01*
X112745938Y-89998984D01*
X112742571Y-90036023D01*
X112756040Y-90089898D01*
X112789712Y-90123570D01*
X112843587Y-90137038D01*
X112880625Y-90133671D01*
X112937867Y-90110101D01*
X113035516Y-90046125D01*
X113136531Y-89945109D01*
X113200507Y-89847461D01*
X113224077Y-89790219D01*
X113227445Y-89753180D01*
X113213976Y-89699306D01*
X112651658Y-89419830D02*
X112368815Y-89702673D01*
X112897461Y-89342385D02*
X112678595Y-89729610D01*
X112459729Y-89510744D01*
%TO.C,J17*%
X113564162Y-92848020D02*
X113988426Y-92423756D01*
X113853739Y-92289069D01*
X113799864Y-92275600D01*
X113762825Y-92278967D01*
X113705583Y-92302538D01*
X113644974Y-92363147D01*
X113621404Y-92420389D01*
X113618037Y-92457428D01*
X113631506Y-92511302D01*
X113766193Y-92645990D01*
X113048984Y-92252030D02*
X113045617Y-92289069D01*
X113075922Y-92359780D01*
X113109593Y-92393451D01*
X113180304Y-92423756D01*
X113254382Y-92417022D01*
X113311624Y-92393451D01*
X113409272Y-92329475D01*
X113469881Y-92268866D01*
X113533857Y-92171218D01*
X113557428Y-92113976D01*
X113564162Y-92039898D01*
X113533857Y-91969187D01*
X113500186Y-91935516D01*
X113429475Y-91905211D01*
X113392436Y-91908578D01*
X113213976Y-91649306D02*
X113180304Y-91615634D01*
X113126429Y-91602165D01*
X113089390Y-91605532D01*
X113032148Y-91629103D01*
X112934500Y-91693079D01*
X112833485Y-91794094D01*
X112769509Y-91891742D01*
X112745938Y-91948984D01*
X112742571Y-91986023D01*
X112756040Y-92039898D01*
X112789712Y-92073570D01*
X112843587Y-92087038D01*
X112880625Y-92083671D01*
X112937867Y-92060101D01*
X113035516Y-91996125D01*
X113136531Y-91895109D01*
X113200507Y-91797461D01*
X113224077Y-91740219D01*
X113227445Y-91703180D01*
X113213976Y-91649306D01*
X112978274Y-91413603D02*
X112759407Y-91194737D01*
X112715634Y-91474213D01*
X112665126Y-91423705D01*
X112611251Y-91410236D01*
X112574213Y-91413603D01*
X112516971Y-91437174D01*
X112415955Y-91538189D01*
X112392385Y-91595431D01*
X112389018Y-91632470D01*
X112402487Y-91686345D01*
X112503502Y-91787360D01*
X112557377Y-91800829D01*
X112594416Y-91797461D01*
%TO.C,J18*%
X113564162Y-94848020D02*
X113988426Y-94423756D01*
X113853739Y-94289069D01*
X113799864Y-94275600D01*
X113762825Y-94278967D01*
X113705583Y-94302538D01*
X113644974Y-94363147D01*
X113621404Y-94420389D01*
X113618037Y-94457428D01*
X113631506Y-94511302D01*
X113766193Y-94645990D01*
X113048984Y-94252030D02*
X113045617Y-94289069D01*
X113075922Y-94359780D01*
X113109593Y-94393451D01*
X113180304Y-94423756D01*
X113254382Y-94417022D01*
X113311624Y-94393451D01*
X113409272Y-94329475D01*
X113469881Y-94268866D01*
X113533857Y-94171218D01*
X113557428Y-94113976D01*
X113564162Y-94039898D01*
X113533857Y-93969187D01*
X113500186Y-93935516D01*
X113429475Y-93905211D01*
X113392436Y-93908578D01*
X113213976Y-93649306D02*
X113180304Y-93615634D01*
X113126429Y-93602165D01*
X113089390Y-93605532D01*
X113032148Y-93629103D01*
X112934500Y-93693079D01*
X112833485Y-93794094D01*
X112769509Y-93891742D01*
X112745938Y-93948984D01*
X112742571Y-93986023D01*
X112756040Y-94039898D01*
X112789712Y-94073570D01*
X112843587Y-94087038D01*
X112880625Y-94083671D01*
X112937867Y-94060101D01*
X113035516Y-93996125D01*
X113136531Y-93895109D01*
X113200507Y-93797461D01*
X113224077Y-93740219D01*
X113227445Y-93703180D01*
X113213976Y-93649306D01*
X112921032Y-93437174D02*
X112924399Y-93400135D01*
X112910930Y-93346260D01*
X112826751Y-93262081D01*
X112772876Y-93248612D01*
X112735837Y-93251979D01*
X112678595Y-93275549D01*
X112638189Y-93315955D01*
X112594416Y-93393400D01*
X112554009Y-93837867D01*
X112335143Y-93619001D01*
%TO.C,J19*%
X113614162Y-96898020D02*
X114038426Y-96473756D01*
X113903739Y-96339069D01*
X113849864Y-96325600D01*
X113812825Y-96328967D01*
X113755583Y-96352538D01*
X113694974Y-96413147D01*
X113671404Y-96470389D01*
X113668037Y-96507428D01*
X113681506Y-96561302D01*
X113816193Y-96695990D01*
X113098984Y-96302030D02*
X113095617Y-96339069D01*
X113125922Y-96409780D01*
X113159593Y-96443451D01*
X113230304Y-96473756D01*
X113304382Y-96467022D01*
X113361624Y-96443451D01*
X113459272Y-96379475D01*
X113519881Y-96318866D01*
X113583857Y-96221218D01*
X113607428Y-96163976D01*
X113614162Y-96089898D01*
X113583857Y-96019187D01*
X113550186Y-95985516D01*
X113479475Y-95955211D01*
X113442436Y-95958578D01*
X113263976Y-95699306D02*
X113230304Y-95665634D01*
X113176429Y-95652165D01*
X113139390Y-95655532D01*
X113082148Y-95679103D01*
X112984500Y-95743079D01*
X112883485Y-95844094D01*
X112819509Y-95941742D01*
X112795938Y-95998984D01*
X112792571Y-96036023D01*
X112806040Y-96089898D01*
X112839712Y-96123570D01*
X112893587Y-96137038D01*
X112930625Y-96133671D01*
X112987867Y-96110101D01*
X113085516Y-96046125D01*
X113186531Y-95945109D01*
X113250507Y-95847461D01*
X113274077Y-95790219D01*
X113277445Y-95753180D01*
X113263976Y-95699306D01*
X112385143Y-95669001D02*
X112587174Y-95871032D01*
X112486158Y-95770016D02*
X112910422Y-95345752D01*
X112883485Y-95440033D01*
X112876751Y-95514111D01*
X112890219Y-95567986D01*
%TO.C,J20*%
X113714162Y-98123020D02*
X114138426Y-97698756D01*
X114003739Y-97564069D01*
X113949864Y-97550600D01*
X113912825Y-97553967D01*
X113855583Y-97577538D01*
X113794974Y-97638147D01*
X113771404Y-97695389D01*
X113768037Y-97732428D01*
X113781506Y-97786302D01*
X113916193Y-97920990D01*
X113198984Y-97527030D02*
X113195617Y-97564069D01*
X113225922Y-97634780D01*
X113259593Y-97668451D01*
X113330304Y-97698756D01*
X113404382Y-97692022D01*
X113461624Y-97668451D01*
X113559272Y-97604475D01*
X113619881Y-97543866D01*
X113683857Y-97446218D01*
X113707428Y-97388976D01*
X113714162Y-97314898D01*
X113683857Y-97244187D01*
X113650186Y-97210516D01*
X113579475Y-97180211D01*
X113542436Y-97183578D01*
X113363976Y-96924306D02*
X113330304Y-96890634D01*
X113276429Y-96877165D01*
X113239390Y-96880532D01*
X113182148Y-96904103D01*
X113084500Y-96968079D01*
X112983485Y-97069094D01*
X112919509Y-97166742D01*
X112895938Y-97223984D01*
X112892571Y-97261023D01*
X112906040Y-97314898D01*
X112939712Y-97348570D01*
X112993587Y-97362038D01*
X113030625Y-97358671D01*
X113087867Y-97335101D01*
X113185516Y-97271125D01*
X113286531Y-97170109D01*
X113350507Y-97072461D01*
X113374077Y-97015219D01*
X113377445Y-96978180D01*
X113363976Y-96924306D01*
X113027258Y-96587588D02*
X112993587Y-96553916D01*
X112939712Y-96540448D01*
X112902673Y-96543815D01*
X112845431Y-96567385D01*
X112747783Y-96631361D01*
X112646768Y-96732377D01*
X112582791Y-96830025D01*
X112559221Y-96887267D01*
X112555854Y-96924306D01*
X112569322Y-96978180D01*
X112602994Y-97011852D01*
X112656869Y-97025321D01*
X112693908Y-97021954D01*
X112751150Y-96998384D01*
X112848798Y-96934407D01*
X112949813Y-96833392D01*
X113013790Y-96735744D01*
X113037360Y-96678502D01*
X113040727Y-96641463D01*
X113027258Y-96587588D01*
%TO.C,J21*%
X113351683Y-86585541D02*
X113671565Y-86501362D01*
X113553714Y-86787572D02*
X113977978Y-86363307D01*
X113843291Y-86228620D01*
X113789416Y-86215152D01*
X113752377Y-86218519D01*
X113695135Y-86242089D01*
X113634526Y-86302698D01*
X113610956Y-86359940D01*
X113607588Y-86396979D01*
X113621057Y-86450854D01*
X113755744Y-86585541D01*
X113237199Y-86430651D02*
X113166488Y-86400346D01*
X113082309Y-86316167D01*
X113068840Y-86262292D01*
X113072208Y-86225253D01*
X113095778Y-86168011D01*
X113136184Y-86127605D01*
X113193426Y-86104035D01*
X113230465Y-86100668D01*
X113284340Y-86114137D01*
X113371886Y-86161277D01*
X113425761Y-86174746D01*
X113462800Y-86171379D01*
X113520042Y-86147808D01*
X113560448Y-86107402D01*
X113584018Y-86050160D01*
X113587385Y-86013121D01*
X113573917Y-85959246D01*
X113489737Y-85875067D01*
X113419027Y-85844763D01*
X113338214Y-85723544D02*
X113136184Y-85521514D01*
X112812935Y-86046793D02*
X113237199Y-85622529D01*
%TO.C,J22*%
X105382241Y-96918493D02*
X105395710Y-96864619D01*
X105446218Y-96814111D01*
X105516928Y-96783806D01*
X105591006Y-96790541D01*
X105648248Y-96814111D01*
X105745896Y-96878087D01*
X105806506Y-96938697D01*
X105870482Y-97036345D01*
X105894052Y-97093587D01*
X105900786Y-97167664D01*
X105870482Y-97238375D01*
X105836810Y-97272047D01*
X105766099Y-97302351D01*
X105729061Y-97298984D01*
X105587639Y-97157563D01*
X105654983Y-97090219D01*
X105617944Y-97490913D02*
X105193680Y-97066649D01*
X105415913Y-97692944D01*
X104991649Y-97268680D01*
X105247554Y-97861302D02*
X104823290Y-97437038D01*
X104739111Y-97521218D01*
X104708806Y-97591928D01*
X104715541Y-97666006D01*
X104739111Y-97723248D01*
X104803087Y-97820896D01*
X104863697Y-97881506D01*
X104961345Y-97945482D01*
X105018587Y-97969052D01*
X105092664Y-97975786D01*
X105163375Y-97945482D01*
X105247554Y-97861302D01*
%TO.C,J13*%
X103648020Y-83685837D02*
X103223756Y-83261573D01*
X103089069Y-83396260D01*
X103075600Y-83450135D01*
X103078967Y-83487174D01*
X103102538Y-83544416D01*
X103163147Y-83605025D01*
X103220389Y-83628595D01*
X103257428Y-83631962D01*
X103311302Y-83618493D01*
X103445990Y-83483806D01*
X102954382Y-83935008D02*
X102924077Y-84005719D01*
X102927445Y-84042758D01*
X102951015Y-84100000D01*
X103011624Y-84160609D01*
X103068866Y-84184179D01*
X103105905Y-84187546D01*
X103159780Y-84174077D01*
X103294467Y-84039390D01*
X102870203Y-83615126D01*
X102752351Y-83732977D01*
X102738883Y-83786852D01*
X102742250Y-83823891D01*
X102765820Y-83881133D01*
X102806226Y-83921539D01*
X102863468Y-83945109D01*
X102900507Y-83948477D01*
X102954382Y-83935008D01*
X103072233Y-83817157D01*
X102449306Y-84036023D02*
X102415634Y-84069695D01*
X102402165Y-84123570D01*
X102405532Y-84160609D01*
X102429103Y-84217851D01*
X102493079Y-84315499D01*
X102594094Y-84416514D01*
X102691742Y-84480490D01*
X102748984Y-84504061D01*
X102786023Y-84507428D01*
X102839898Y-84493959D01*
X102873570Y-84460287D01*
X102887038Y-84406412D01*
X102883671Y-84369374D01*
X102860101Y-84312132D01*
X102796125Y-84214483D01*
X102695109Y-84113468D01*
X102597461Y-84049492D01*
X102540219Y-84025922D01*
X102503180Y-84022554D01*
X102449306Y-84036023D01*
X102419001Y-84914856D02*
X102621032Y-84712825D01*
X102520016Y-84813841D02*
X102095752Y-84389577D01*
X102190033Y-84416514D01*
X102264111Y-84423248D01*
X102317986Y-84409780D01*
%TD*%
M02*
