%TF.GenerationSoftware,Altium Limited,Altium Designer,20.2.5 (213)*%
G04 Layer_Color=128*
%FSLAX26Y26*%
%MOIN*%
%TF.SameCoordinates,9BAFD9CD-774C-4051-972E-F2DD54F50950*%
%TF.FilePolarity,Positive*%
%TF.FileFunction,Drillmap*%
%TF.Part,Single*%
G01*
G75*
%TA.AperFunction,NonConductor*%
%ADD60C,0.005000*%
D60*
X7805000Y3910000D02*
X7845000D01*
X7825000Y3890000D02*
Y3930000D01*
X7705000Y3910000D02*
X7745000D01*
X7725000Y3890000D02*
Y3930000D01*
X7605000Y3910000D02*
X7645000D01*
X7625000Y3890000D02*
Y3930000D01*
X7505000Y3910000D02*
X7545000D01*
X7525000Y3890000D02*
Y3930000D01*
X7405000Y3910000D02*
X7445000D01*
X7425000Y3890000D02*
Y3930000D01*
X7305000Y3910000D02*
X7345000D01*
X7325000Y3890000D02*
Y3930000D01*
X7205000Y3910000D02*
X7245000D01*
X7225000Y3890000D02*
Y3930000D01*
X7105000Y3910000D02*
X7145000D01*
X7125000Y3890000D02*
Y3930000D01*
X7005000Y3910000D02*
X7045000D01*
X7025000Y3890000D02*
Y3930000D01*
X6905000Y3910000D02*
X6945000D01*
X6925000Y3890000D02*
Y3930000D01*
X6805000Y3910000D02*
X6845000D01*
X6825000Y3890000D02*
Y3930000D01*
X6705000Y3910000D02*
X6745000D01*
X6725000Y3890000D02*
Y3930000D01*
X6605000Y3910000D02*
X6645000D01*
X6625000Y3890000D02*
Y3930000D01*
X7805000Y2630000D02*
X7845000D01*
X7825000Y2610000D02*
Y2650000D01*
X7705000Y2630000D02*
X7745000D01*
X7725000Y2610000D02*
Y2650000D01*
X7605000Y2630000D02*
X7645000D01*
X7625000Y2610000D02*
Y2650000D01*
X7505000Y2630000D02*
X7545000D01*
X7525000Y2610000D02*
Y2650000D01*
X7405000Y2630000D02*
X7445000D01*
X7425000Y2610000D02*
Y2650000D01*
X7305000Y2630000D02*
X7345000D01*
X7325000Y2610000D02*
Y2650000D01*
X7205000Y2630000D02*
X7245000D01*
X7225000Y2610000D02*
Y2650000D01*
X7105000Y2630000D02*
X7145000D01*
X7125000Y2610000D02*
Y2650000D01*
X7005000Y2630000D02*
X7045000D01*
X7025000Y2610000D02*
Y2650000D01*
X6905000Y2630000D02*
X6945000D01*
X6925000Y2610000D02*
Y2650000D01*
X6805000Y2630000D02*
X6845000D01*
X6825000Y2610000D02*
Y2650000D01*
X6705000Y2630000D02*
X6745000D01*
X6725000Y2610000D02*
Y2650000D01*
X6605000Y2630000D02*
X6645000D01*
X6625000Y2610000D02*
Y2650000D01*
X6605000Y4810000D02*
X6645000D01*
X6625000Y4790000D02*
Y4830000D01*
X6705000Y4810000D02*
X6745000D01*
X6725000Y4790000D02*
Y4830000D01*
X6805000Y4810000D02*
X6845000D01*
X6825000Y4790000D02*
Y4830000D01*
X6905000Y4810000D02*
X6945000D01*
X6925000Y4790000D02*
Y4830000D01*
X7005000Y4810000D02*
X7045000D01*
X7025000Y4790000D02*
Y4830000D01*
X7105000Y4810000D02*
X7145000D01*
X7125000Y4790000D02*
Y4830000D01*
X7205000Y4810000D02*
X7245000D01*
X7225000Y4790000D02*
Y4830000D01*
X7305000Y4810000D02*
X7345000D01*
X7325000Y4790000D02*
Y4830000D01*
X7405000Y4810000D02*
X7445000D01*
X7425000Y4790000D02*
Y4830000D01*
X7505000Y4810000D02*
X7545000D01*
X7525000Y4790000D02*
Y4830000D01*
X7605000Y4810000D02*
X7645000D01*
X7625000Y4790000D02*
Y4830000D01*
X7605000Y2275000D02*
X7645000D01*
X7625000Y2255000D02*
Y2295000D01*
X7505000Y2275000D02*
X7545000D01*
X7525000Y2255000D02*
Y2295000D01*
X7405000Y2275000D02*
X7445000D01*
X7425000Y2255000D02*
Y2295000D01*
X7305000Y2275000D02*
X7345000D01*
X7325000Y2255000D02*
Y2295000D01*
X7205000Y2275000D02*
X7245000D01*
X7225000Y2255000D02*
Y2295000D01*
X7105000Y2275000D02*
X7145000D01*
X7125000Y2255000D02*
Y2295000D01*
X7005000Y2275000D02*
X7045000D01*
X7025000Y2255000D02*
Y2295000D01*
X6905000Y2275000D02*
X6945000D01*
X6925000Y2255000D02*
Y2295000D01*
X6805000Y2275000D02*
X6845000D01*
X6825000Y2255000D02*
Y2295000D01*
X6705000Y2275000D02*
X6745000D01*
X6725000Y2255000D02*
Y2295000D01*
X6605000Y2275000D02*
X6645000D01*
X6625000Y2255000D02*
Y2295000D01*
X1869252Y1408740D02*
X1900748D01*
X1885000Y1392992D02*
Y1424488D01*
X1869252Y1330000D02*
X1900748D01*
X1885000Y1314252D02*
Y1345748D01*
X1869252Y1251260D02*
X1900748D01*
X1885000Y1235512D02*
Y1267008D01*
X1299252Y1348740D02*
X1330748D01*
X1315000Y1332992D02*
Y1364488D01*
X1299252Y1270000D02*
X1330748D01*
X1315000Y1254252D02*
Y1285748D01*
X4769252Y1261260D02*
X4800748D01*
X4785000Y1245512D02*
Y1277008D01*
X4769252Y1340000D02*
X4800748D01*
X4785000Y1324252D02*
Y1355748D01*
X4132283Y1151260D02*
X4167717D01*
X4150000Y1133543D02*
Y1168976D01*
X4132283Y1230000D02*
X4167717D01*
X4150000Y1212284D02*
Y1247716D01*
X4132283Y1308740D02*
X4167717D01*
X4150000Y1291024D02*
Y1326457D01*
X4132283Y1387480D02*
X4167717D01*
X4150000Y1369764D02*
Y1405197D01*
X470315Y2060000D02*
X509685D01*
X490000Y2040315D02*
Y2079685D01*
X470315Y2160000D02*
X509685D01*
X490000Y2140315D02*
Y2179685D01*
X570315Y2060000D02*
X609685D01*
X590000Y2040315D02*
Y2079685D01*
X570315Y2160000D02*
X609685D01*
X590000Y2140315D02*
Y2179685D01*
X670315Y2060000D02*
X709685D01*
X690000Y2040315D02*
Y2079685D01*
X670315Y2160000D02*
X709685D01*
X690000Y2140315D02*
Y2179685D01*
X770315Y2060000D02*
X809685D01*
X790000Y2040315D02*
Y2079685D01*
X770315Y2160000D02*
X809685D01*
X790000Y2140315D02*
Y2179685D01*
X870315Y2060000D02*
X909685D01*
X890000Y2040315D02*
Y2079685D01*
X870315Y2160000D02*
X909685D01*
X890000Y2140315D02*
Y2179685D01*
X970315Y2060000D02*
X1009685D01*
X990000Y2040315D02*
Y2079685D01*
X970315Y2160000D02*
X1009685D01*
X990000Y2140315D02*
Y2179685D01*
X1070315Y2060000D02*
X1109685D01*
X1090000Y2040315D02*
Y2079685D01*
X1070315Y2160000D02*
X1109685D01*
X1090000Y2140315D02*
Y2179685D01*
X1170315Y2060000D02*
X1209685D01*
X1190000Y2040315D02*
Y2079685D01*
X1170315Y2160000D02*
X1209685D01*
X1190000Y2140315D02*
Y2179685D01*
X1270315Y2060000D02*
X1309685D01*
X1290000Y2040315D02*
Y2079685D01*
X1270315Y2160000D02*
X1309685D01*
X1290000Y2140315D02*
Y2179685D01*
X1370315Y2060000D02*
X1409685D01*
X1390000Y2040315D02*
Y2079685D01*
X1370315Y2160000D02*
X1409685D01*
X1390000Y2140315D02*
Y2179685D01*
X1470315Y2060000D02*
X1509685D01*
X1490000Y2040315D02*
Y2079685D01*
X1470315Y2160000D02*
X1509685D01*
X1490000Y2140315D02*
Y2179685D01*
X1570315Y2060000D02*
X1609685D01*
X1590000Y2040315D02*
Y2079685D01*
X1570315Y2160000D02*
X1609685D01*
X1590000Y2140315D02*
Y2179685D01*
X1670315Y2060000D02*
X1709685D01*
X1690000Y2040315D02*
Y2079685D01*
X1670315Y2160000D02*
X1709685D01*
X1690000Y2140315D02*
Y2179685D01*
X1770315Y2060000D02*
X1809685D01*
X1790000Y2040315D02*
Y2079685D01*
X1770315Y2160000D02*
X1809685D01*
X1790000Y2140315D02*
Y2179685D01*
X1870315Y2060000D02*
X1909685D01*
X1890000Y2040315D02*
Y2079685D01*
X1870315Y2160000D02*
X1909685D01*
X1890000Y2140315D02*
Y2179685D01*
X1970315Y2060000D02*
X2009685D01*
X1990000Y2040315D02*
Y2079685D01*
X1970315Y2160000D02*
X2009685D01*
X1990000Y2140315D02*
Y2179685D01*
X2070315Y2060000D02*
X2109685D01*
X2090000Y2040315D02*
Y2079685D01*
X2070315Y2160000D02*
X2109685D01*
X2090000Y2140315D02*
Y2179685D01*
X2170315Y2060000D02*
X2209685D01*
X2190000Y2040315D02*
Y2079685D01*
X2170315Y2160000D02*
X2209685D01*
X2190000Y2140315D02*
Y2179685D01*
X2270315Y2060000D02*
X2309685D01*
X2290000Y2040315D02*
Y2079685D01*
X2270315Y2160000D02*
X2309685D01*
X2290000Y2140315D02*
Y2179685D01*
X2370315Y2060000D02*
X2409685D01*
X2390000Y2040315D02*
Y2079685D01*
X2370315Y2160000D02*
X2409685D01*
X2390000Y2140315D02*
Y2179685D01*
X2470315Y2060000D02*
X2509685D01*
X2490000Y2040315D02*
Y2079685D01*
X2470315Y2160000D02*
X2509685D01*
X2490000Y2140315D02*
Y2179685D01*
X2570315Y2060000D02*
X2609685D01*
X2590000Y2040315D02*
Y2079685D01*
X2570315Y2160000D02*
X2609685D01*
X2590000Y2140315D02*
Y2179685D01*
X2670315Y2060000D02*
X2709685D01*
X2690000Y2040315D02*
Y2079685D01*
X2670315Y2160000D02*
X2709685D01*
X2690000Y2140315D02*
Y2179685D01*
X2770315Y2060000D02*
X2809685D01*
X2790000Y2040315D02*
Y2079685D01*
X2770315Y2160000D02*
X2809685D01*
X2790000Y2140315D02*
Y2179685D01*
X2870315Y2060000D02*
X2909685D01*
X2890000Y2040315D02*
Y2079685D01*
X2870315Y2160000D02*
X2909685D01*
X2890000Y2140315D02*
Y2179685D01*
X470315Y4060000D02*
X509685D01*
X490000Y4040315D02*
Y4079685D01*
X470315Y4160000D02*
X509685D01*
X490000Y4140315D02*
Y4179685D01*
X570315Y4060000D02*
X609685D01*
X590000Y4040315D02*
Y4079685D01*
X570315Y4160000D02*
X609685D01*
X590000Y4140315D02*
Y4179685D01*
X670315Y4060000D02*
X709685D01*
X690000Y4040315D02*
Y4079685D01*
X670315Y4160000D02*
X709685D01*
X690000Y4140315D02*
Y4179685D01*
X770315Y4060000D02*
X809685D01*
X790000Y4040315D02*
Y4079685D01*
X770315Y4160000D02*
X809685D01*
X790000Y4140315D02*
Y4179685D01*
X870315Y4060000D02*
X909685D01*
X890000Y4040315D02*
Y4079685D01*
X870315Y4160000D02*
X909685D01*
X890000Y4140315D02*
Y4179685D01*
X970315Y4060000D02*
X1009685D01*
X990000Y4040315D02*
Y4079685D01*
X970315Y4160000D02*
X1009685D01*
X990000Y4140315D02*
Y4179685D01*
X1070315Y4060000D02*
X1109685D01*
X1090000Y4040315D02*
Y4079685D01*
X1070315Y4160000D02*
X1109685D01*
X1090000Y4140315D02*
Y4179685D01*
X1170315Y4060000D02*
X1209685D01*
X1190000Y4040315D02*
Y4079685D01*
X1170315Y4160000D02*
X1209685D01*
X1190000Y4140315D02*
Y4179685D01*
X1270315Y4060000D02*
X1309685D01*
X1290000Y4040315D02*
Y4079685D01*
X1270315Y4160000D02*
X1309685D01*
X1290000Y4140315D02*
Y4179685D01*
X1370315Y4060000D02*
X1409685D01*
X1390000Y4040315D02*
Y4079685D01*
X1370315Y4160000D02*
X1409685D01*
X1390000Y4140315D02*
Y4179685D01*
X1470315Y4060000D02*
X1509685D01*
X1490000Y4040315D02*
Y4079685D01*
X1470315Y4160000D02*
X1509685D01*
X1490000Y4140315D02*
Y4179685D01*
X1570315Y4060000D02*
X1609685D01*
X1590000Y4040315D02*
Y4079685D01*
X1570315Y4160000D02*
X1609685D01*
X1590000Y4140315D02*
Y4179685D01*
X1670315Y4060000D02*
X1709685D01*
X1690000Y4040315D02*
Y4079685D01*
X1670315Y4160000D02*
X1709685D01*
X1690000Y4140315D02*
Y4179685D01*
X1770315Y4060000D02*
X1809685D01*
X1790000Y4040315D02*
Y4079685D01*
X1770315Y4160000D02*
X1809685D01*
X1790000Y4140315D02*
Y4179685D01*
X1870315Y4060000D02*
X1909685D01*
X1890000Y4040315D02*
Y4079685D01*
X1870315Y4160000D02*
X1909685D01*
X1890000Y4140315D02*
Y4179685D01*
X1970315Y4060000D02*
X2009685D01*
X1990000Y4040315D02*
Y4079685D01*
X1970315Y4160000D02*
X2009685D01*
X1990000Y4140315D02*
Y4179685D01*
X2070315Y4060000D02*
X2109685D01*
X2090000Y4040315D02*
Y4079685D01*
X2070315Y4160000D02*
X2109685D01*
X2090000Y4140315D02*
Y4179685D01*
X2170315Y4060000D02*
X2209685D01*
X2190000Y4040315D02*
Y4079685D01*
X2170315Y4160000D02*
X2209685D01*
X2190000Y4140315D02*
Y4179685D01*
X2270315Y4060000D02*
X2309685D01*
X2290000Y4040315D02*
Y4079685D01*
X2270315Y4160000D02*
X2309685D01*
X2290000Y4140315D02*
Y4179685D01*
X2370315Y4060000D02*
X2409685D01*
X2390000Y4040315D02*
Y4079685D01*
X2370315Y4160000D02*
X2409685D01*
X2390000Y4140315D02*
Y4179685D01*
X2470315Y4060000D02*
X2509685D01*
X2490000Y4040315D02*
Y4079685D01*
X2470315Y4160000D02*
X2509685D01*
X2490000Y4140315D02*
Y4179685D01*
X2570315Y4060000D02*
X2609685D01*
X2590000Y4040315D02*
Y4079685D01*
X2570315Y4160000D02*
X2609685D01*
X2590000Y4140315D02*
Y4179685D01*
X2670315Y4060000D02*
X2709685D01*
X2690000Y4040315D02*
Y4079685D01*
X2670315Y4160000D02*
X2709685D01*
X2690000Y4140315D02*
Y4179685D01*
X2770315Y4060000D02*
X2809685D01*
X2790000Y4040315D02*
Y4079685D01*
X2770315Y4160000D02*
X2809685D01*
X2790000Y4140315D02*
Y4179685D01*
X2870315Y4060000D02*
X2909685D01*
X2890000Y4040315D02*
Y4079685D01*
X2870315Y4160000D02*
X2909685D01*
X2890000Y4140315D02*
Y4179685D01*
X6163346Y1185000D02*
X6206654D01*
X6185000Y1163346D02*
Y1206653D01*
X6163346Y1285000D02*
X6206654D01*
X6185000Y1263346D02*
Y1306653D01*
X5893346Y1295000D02*
X5936654D01*
X5915000Y1273347D02*
Y1316653D01*
X5893346Y1195000D02*
X5936654D01*
X5915000Y1173347D02*
Y1216653D01*
X5593346Y1180000D02*
X5636654D01*
X5615000Y1158346D02*
Y1201653D01*
X5593346Y1280000D02*
X5636654D01*
X5615000Y1258346D02*
Y1301653D01*
X2967284Y5243702D02*
X3002716D01*
X2985000Y5225985D02*
Y5261418D01*
X2967284Y5164960D02*
X3002716D01*
X2985000Y5147243D02*
Y5182676D01*
X2967284Y5086220D02*
X3002716D01*
X2985000Y5068503D02*
Y5103936D01*
X2967284Y5007480D02*
X3002716D01*
X2985000Y4989764D02*
Y5025197D01*
X2967284Y4928740D02*
X3002716D01*
X2985000Y4911024D02*
Y4946457D01*
X2967284Y4850000D02*
X3002716D01*
X2985000Y4832283D02*
Y4867717D01*
X2967284Y4771260D02*
X3002716D01*
X2985000Y4753543D02*
Y4788976D01*
X2967284Y4692520D02*
X3002716D01*
X2985000Y4674803D02*
Y4710236D01*
X6142283Y4996260D02*
X6177717D01*
X6160000Y4978543D02*
Y5013976D01*
X6142283Y5075000D02*
X6177717D01*
X6160000Y5057283D02*
Y5092717D01*
X6142283Y5153740D02*
X6177717D01*
X6160000Y5136024D02*
Y5171457D01*
X6142283Y5232480D02*
X6177717D01*
X6160000Y5214764D02*
Y5250197D01*
X4434252Y5027520D02*
X4465748D01*
X4450000Y5011772D02*
Y5043268D01*
X4434252Y5106260D02*
X4465748D01*
X4450000Y5090512D02*
Y5122008D01*
X4434252Y5185000D02*
X4465748D01*
X4450000Y5169252D02*
Y5200748D01*
X689921Y1450000D02*
X730079D01*
X710000Y1429921D02*
Y1470079D01*
X689921Y1568110D02*
X730079D01*
X710000Y1548031D02*
Y1588189D01*
X607834Y1331890D02*
X657834D01*
X632834Y1306890D02*
Y1356890D01*
X607834Y1686220D02*
X657834D01*
X632834Y1661220D02*
Y1711220D01*
X3304252Y1127520D02*
X3335748D01*
X3320000Y1111772D02*
Y1143268D01*
X3304252Y1206260D02*
X3335748D01*
X3320000Y1190512D02*
Y1222008D01*
X3304252Y1285000D02*
X3335748D01*
X3320000Y1269252D02*
Y1300748D01*
X3304252Y1363740D02*
X3335748D01*
X3320000Y1347992D02*
Y1379488D01*
X3304252Y1442480D02*
X3335748D01*
X3320000Y1426732D02*
Y1458228D01*
X3304252Y1521220D02*
X3335748D01*
X3320000Y1505472D02*
Y1536968D01*
X1112284Y4972480D02*
X1147716D01*
X1130000Y4954764D02*
Y4990197D01*
X1112284Y4893740D02*
X1147716D01*
X1130000Y4876024D02*
Y4911457D01*
X1112284Y4815000D02*
X1147716D01*
X1130000Y4797283D02*
Y4832717D01*
X1112284Y4736260D02*
X1147716D01*
X1130000Y4718543D02*
Y4753976D01*
X7605000Y3530000D02*
X7645000D01*
X7625000Y3510000D02*
Y3550000D01*
X7505000Y3530000D02*
X7545000D01*
X7525000Y3510000D02*
Y3550000D01*
X7405000Y3530000D02*
X7445000D01*
X7425000Y3510000D02*
Y3550000D01*
X7305000Y3530000D02*
X7345000D01*
X7325000Y3510000D02*
Y3550000D01*
X7205000Y3530000D02*
X7245000D01*
X7225000Y3510000D02*
Y3550000D01*
X7105000Y3530000D02*
X7145000D01*
X7125000Y3510000D02*
Y3550000D01*
X7005000Y3530000D02*
X7045000D01*
X7025000Y3510000D02*
Y3550000D01*
X6905000Y3530000D02*
X6945000D01*
X6925000Y3510000D02*
Y3550000D01*
X6805000Y3530000D02*
X6845000D01*
X6825000Y3510000D02*
Y3550000D01*
X6705000Y3530000D02*
X6745000D01*
X6725000Y3510000D02*
Y3550000D01*
X6605000Y3530000D02*
X6645000D01*
X6625000Y3510000D02*
Y3550000D01*
X2634252Y1310000D02*
X2665748D01*
X2650000Y1294252D02*
Y1325748D01*
X2634252Y1388740D02*
X2665748D01*
X2650000Y1372992D02*
Y1404488D01*
X5474252Y5163740D02*
X5505748D01*
X5490000Y5147992D02*
Y5179488D01*
X5474252Y5085000D02*
X5505748D01*
X5490000Y5069252D02*
Y5100748D01*
X6605000Y1375000D02*
X6645000D01*
X6625000Y1355000D02*
Y1395000D01*
X6705000Y1375000D02*
X6745000D01*
X6725000Y1355000D02*
Y1395000D01*
X6805000Y1375000D02*
X6845000D01*
X6825000Y1355000D02*
Y1395000D01*
X6905000Y1375000D02*
X6945000D01*
X6925000Y1355000D02*
Y1395000D01*
X7005000Y1375000D02*
X7045000D01*
X7025000Y1355000D02*
Y1395000D01*
X7105000Y1375000D02*
X7145000D01*
X7125000Y1355000D02*
Y1395000D01*
X7205000Y1375000D02*
X7245000D01*
X7225000Y1355000D02*
Y1395000D01*
X7305000Y1375000D02*
X7345000D01*
X7325000Y1355000D02*
Y1395000D01*
X7405000Y1375000D02*
X7445000D01*
X7425000Y1355000D02*
Y1395000D01*
X7505000Y1375000D02*
X7545000D01*
X7525000Y1355000D02*
Y1395000D01*
X7605000Y1375000D02*
X7645000D01*
X7625000Y1355000D02*
Y1395000D01*
X7705000Y1375000D02*
X7745000D01*
X7725000Y1355000D02*
Y1395000D01*
X7805000Y1375000D02*
X7845000D01*
X7825000Y1355000D02*
Y1395000D01*
X3547284Y4687520D02*
X3582716D01*
X3565000Y4669803D02*
Y4705236D01*
X3547284Y4766260D02*
X3582716D01*
X3565000Y4748543D02*
Y4783976D01*
X3547284Y4845000D02*
X3582716D01*
X3565000Y4827283D02*
Y4862717D01*
X3547284Y4923740D02*
X3582716D01*
X3565000Y4906024D02*
Y4941457D01*
X3547284Y5002480D02*
X3582716D01*
X3565000Y4984764D02*
Y5020197D01*
X3547284Y5081220D02*
X3582716D01*
X3565000Y5063503D02*
Y5098936D01*
X3547284Y5159960D02*
X3582716D01*
X3565000Y5142243D02*
Y5177676D01*
X3547284Y5238700D02*
X3582716D01*
X3565000Y5220984D02*
Y5256417D01*
X2317284Y4710000D02*
X2352716D01*
X2335000Y4692283D02*
Y4727717D01*
X2317284Y4788740D02*
X2352716D01*
X2335000Y4771024D02*
Y4806457D01*
X2317284Y4867480D02*
X2352716D01*
X2335000Y4849764D02*
Y4885197D01*
X2317284Y4946220D02*
X2352716D01*
X2335000Y4928503D02*
Y4963936D01*
X1707284Y4717520D02*
X1742716D01*
X1725000Y4699803D02*
Y4735236D01*
X1707284Y4796260D02*
X1742716D01*
X1725000Y4778543D02*
Y4813976D01*
X1707284Y4875000D02*
X1742716D01*
X1725000Y4857283D02*
Y4892717D01*
X1707284Y4953740D02*
X1742716D01*
X1725000Y4936024D02*
Y4971457D01*
X761102Y900000D02*
X898898D01*
X830000Y831102D02*
Y968898D01*
X7551102Y900000D02*
X7688898D01*
X7620000Y831102D02*
Y968898D01*
X7556102Y5220000D02*
X7693898D01*
X7625000Y5151102D02*
Y5288898D01*
X761102Y5220000D02*
X898898D01*
X830000Y5151102D02*
Y5288898D01*
X1447500Y4535000D02*
X1462500D01*
X1455000Y4527500D02*
Y4542500D01*
X1412500Y3820000D02*
X1427500D01*
X1420000Y3812500D02*
Y3827500D01*
X1602500Y3815000D02*
X1617500D01*
X1610000Y3807500D02*
Y3822500D01*
X1010500Y4220000D02*
X1025500D01*
X1018000Y4212500D02*
Y4227500D01*
X6892500Y3000000D02*
X6907500D01*
X6900000Y2992500D02*
Y3007500D01*
X6974902Y3000000D02*
X6989902D01*
X6982402Y2992500D02*
Y3007500D01*
X7612500Y1020000D02*
X7627500D01*
X7620000Y1012500D02*
Y1027500D01*
X7412500Y820000D02*
X7427500D01*
X7420000Y812500D02*
Y827500D01*
X7212500Y5020000D02*
X7227500D01*
X7220000Y5012500D02*
Y5027500D01*
X7212500Y820000D02*
X7227500D01*
X7220000Y812500D02*
Y827500D01*
X7012500Y5220000D02*
X7027500D01*
X7020000Y5212500D02*
Y5227500D01*
X7012500Y5020000D02*
X7027500D01*
X7020000Y5012500D02*
Y5027500D01*
X7012500Y820000D02*
X7027500D01*
X7020000Y812500D02*
Y827500D01*
X6812500Y5220000D02*
X6827500D01*
X6820000Y5212500D02*
Y5227500D01*
X6812500Y5020000D02*
X6827500D01*
X6820000Y5012500D02*
Y5027500D01*
X6812500Y820000D02*
X6827500D01*
X6820000Y812500D02*
Y827500D01*
X6612500Y5220000D02*
X6627500D01*
X6620000Y5212500D02*
Y5227500D01*
X6612500Y5020000D02*
X6627500D01*
X6620000Y5012500D02*
Y5027500D01*
X6612500Y820000D02*
X6627500D01*
X6620000Y812500D02*
Y827500D01*
X6412500Y5220000D02*
X6427500D01*
X6420000Y5212500D02*
Y5227500D01*
X6412500Y5020000D02*
X6427500D01*
X6420000Y5012500D02*
Y5027500D01*
X6412500Y820000D02*
X6427500D01*
X6420000Y812500D02*
Y827500D01*
X6212500Y5220000D02*
X6227500D01*
X6220000Y5212500D02*
Y5227500D01*
X6212500Y820000D02*
X6227500D01*
X6220000Y812500D02*
Y827500D01*
X6012500Y5220000D02*
X6027500D01*
X6020000Y5212500D02*
Y5227500D01*
X6012500Y820000D02*
X6027500D01*
X6020000Y812500D02*
Y827500D01*
X5812500Y5220000D02*
X5827500D01*
X5820000Y5212500D02*
Y5227500D01*
X5812500Y820000D02*
X5827500D01*
X5820000Y812500D02*
Y827500D01*
X5612500Y5220000D02*
X5627500D01*
X5620000Y5212500D02*
Y5227500D01*
X5612500Y5020000D02*
X5627500D01*
X5620000Y5012500D02*
Y5027500D01*
X5612500Y820000D02*
X5627500D01*
X5620000Y812500D02*
Y827500D01*
X5412500Y5220000D02*
X5427500D01*
X5420000Y5212500D02*
Y5227500D01*
X5412500Y820000D02*
X5427500D01*
X5420000Y812500D02*
Y827500D01*
X5212500Y5220000D02*
X5227500D01*
X5220000Y5212500D02*
Y5227500D01*
X5212500Y5020000D02*
X5227500D01*
X5220000Y5012500D02*
Y5027500D01*
X5212500Y820000D02*
X5227500D01*
X5220000Y812500D02*
Y827500D01*
X5012500Y5220000D02*
X5027500D01*
X5020000Y5212500D02*
Y5227500D01*
X5012500Y5020000D02*
X5027500D01*
X5020000Y5012500D02*
Y5027500D01*
X5012500Y820000D02*
X5027500D01*
X5020000Y812500D02*
Y827500D01*
X4812500Y5220000D02*
X4827500D01*
X4820000Y5212500D02*
Y5227500D01*
X4812500Y5020000D02*
X4827500D01*
X4820000Y5012500D02*
Y5027500D01*
X4812500Y820000D02*
X4827500D01*
X4820000Y812500D02*
Y827500D01*
X4612500Y5220000D02*
X4627500D01*
X4620000Y5212500D02*
Y5227500D01*
X4612500Y5020000D02*
X4627500D01*
X4620000Y5012500D02*
Y5027500D01*
X4612500Y820000D02*
X4627500D01*
X4620000Y812500D02*
Y827500D01*
X4412500Y4820000D02*
X4427500D01*
X4420000Y4812500D02*
Y4827500D01*
X4412500Y820000D02*
X4427500D01*
X4420000Y812500D02*
Y827500D01*
X4212500Y5220000D02*
X4227500D01*
X4220000Y5212500D02*
Y5227500D01*
X4212500Y5020000D02*
X4227500D01*
X4220000Y5012500D02*
Y5027500D01*
X4212500Y4820000D02*
X4227500D01*
X4220000Y4812500D02*
Y4827500D01*
X4212500Y4620000D02*
X4227500D01*
X4220000Y4612500D02*
Y4627500D01*
X4212500Y820000D02*
X4227500D01*
X4220000Y812500D02*
Y827500D01*
X4012500Y4820000D02*
X4027500D01*
X4020000Y4812500D02*
Y4827500D01*
X4012500Y4620000D02*
X4027500D01*
X4020000Y4612500D02*
Y4627500D01*
X4012500Y4420000D02*
X4027500D01*
X4020000Y4412500D02*
Y4427500D01*
X4012500Y4220000D02*
X4027500D01*
X4020000Y4212500D02*
Y4227500D01*
X4012500Y3620000D02*
X4027500D01*
X4020000Y3612500D02*
Y3627500D01*
X4012500Y3420000D02*
X4027500D01*
X4020000Y3412500D02*
Y3427500D01*
X4012500Y3220000D02*
X4027500D01*
X4020000Y3212500D02*
Y3227500D01*
X4012500Y3020000D02*
X4027500D01*
X4020000Y3012500D02*
Y3027500D01*
X4012500Y2820000D02*
X4027500D01*
X4020000Y2812500D02*
Y2827500D01*
X4012500Y1220000D02*
X4027500D01*
X4020000Y1212500D02*
Y1227500D01*
X4012500Y820000D02*
X4027500D01*
X4020000Y812500D02*
Y827500D01*
X3812500Y5220000D02*
X3827500D01*
X3820000Y5212500D02*
Y5227500D01*
X3812500Y5020000D02*
X3827500D01*
X3820000Y5012500D02*
Y5027500D01*
X3812500Y4620000D02*
X3827500D01*
X3820000Y4612500D02*
Y4627500D01*
X3812500Y4420000D02*
X3827500D01*
X3820000Y4412500D02*
Y4427500D01*
X3812500Y3620000D02*
X3827500D01*
X3820000Y3612500D02*
Y3627500D01*
X3812500Y3420000D02*
X3827500D01*
X3820000Y3412500D02*
Y3427500D01*
X3812500Y3220000D02*
X3827500D01*
X3820000Y3212500D02*
Y3227500D01*
X3812500Y3020000D02*
X3827500D01*
X3820000Y3012500D02*
Y3027500D01*
X3812500Y2820000D02*
X3827500D01*
X3820000Y2812500D02*
Y2827500D01*
X3812500Y2620000D02*
X3827500D01*
X3820000Y2612500D02*
Y2627500D01*
X3812500Y2420000D02*
X3827500D01*
X3820000Y2412500D02*
Y2427500D01*
X3812500Y2220000D02*
X3827500D01*
X3820000Y2212500D02*
Y2227500D01*
X3812500Y2020000D02*
X3827500D01*
X3820000Y2012500D02*
Y2027500D01*
X3812500Y1620000D02*
X3827500D01*
X3820000Y1612500D02*
Y1627500D01*
X3812500Y1220000D02*
X3827500D01*
X3820000Y1212500D02*
Y1227500D01*
X3812500Y820000D02*
X3827500D01*
X3820000Y812500D02*
Y827500D01*
X3612500Y4820000D02*
X3627500D01*
X3620000Y4812500D02*
Y4827500D01*
X3612500Y4620000D02*
X3627500D01*
X3620000Y4612500D02*
Y4627500D01*
X3612500Y4020000D02*
X3627500D01*
X3620000Y4012500D02*
Y4027500D01*
X3612500Y3620000D02*
X3627500D01*
X3620000Y3612500D02*
Y3627500D01*
X3612500Y3420000D02*
X3627500D01*
X3620000Y3412500D02*
Y3427500D01*
X3612500Y3220000D02*
X3627500D01*
X3620000Y3212500D02*
Y3227500D01*
X3612500Y3020000D02*
X3627500D01*
X3620000Y3012500D02*
Y3027500D01*
X3612500Y2820000D02*
X3627500D01*
X3620000Y2812500D02*
Y2827500D01*
X3612500Y2620000D02*
X3627500D01*
X3620000Y2612500D02*
Y2627500D01*
X3612500Y2420000D02*
X3627500D01*
X3620000Y2412500D02*
Y2427500D01*
X3612500Y2220000D02*
X3627500D01*
X3620000Y2212500D02*
Y2227500D01*
X3612500Y2020000D02*
X3627500D01*
X3620000Y2012500D02*
Y2027500D01*
X3612500Y1620000D02*
X3627500D01*
X3620000Y1612500D02*
Y1627500D01*
X3612500Y1020000D02*
X3627500D01*
X3620000Y1012500D02*
Y1027500D01*
X3612500Y820000D02*
X3627500D01*
X3620000Y812500D02*
Y827500D01*
X3412500Y5020000D02*
X3427500D01*
X3420000Y5012500D02*
Y5027500D01*
X3412500Y2020000D02*
X3427500D01*
X3420000Y2012500D02*
Y2027500D01*
X3412500Y1620000D02*
X3427500D01*
X3420000Y1612500D02*
Y1627500D01*
X3412500Y1020000D02*
X3427500D01*
X3420000Y1012500D02*
Y1027500D01*
X3412500Y820000D02*
X3427500D01*
X3420000Y812500D02*
Y827500D01*
X3212500Y5220000D02*
X3227500D01*
X3220000Y5212500D02*
Y5227500D01*
X3212500Y4820000D02*
X3227500D01*
X3220000Y4812500D02*
Y4827500D01*
X3212500Y4620000D02*
X3227500D01*
X3220000Y4612500D02*
Y4627500D01*
X3212500Y4220000D02*
X3227500D01*
X3220000Y4212500D02*
Y4227500D01*
X3212500Y4020000D02*
X3227500D01*
X3220000Y4012500D02*
Y4027500D01*
X3212500Y3620000D02*
X3227500D01*
X3220000Y3612500D02*
Y3627500D01*
X3212500Y3420000D02*
X3227500D01*
X3220000Y3412500D02*
Y3427500D01*
X3212500Y3220000D02*
X3227500D01*
X3220000Y3212500D02*
Y3227500D01*
X3212500Y3020000D02*
X3227500D01*
X3220000Y3012500D02*
Y3027500D01*
X3212500Y2820000D02*
X3227500D01*
X3220000Y2812500D02*
Y2827500D01*
X3212500Y1620000D02*
X3227500D01*
X3220000Y1612500D02*
Y1627500D01*
X3212500Y820000D02*
X3227500D01*
X3220000Y812500D02*
Y827500D01*
X3012500Y4820000D02*
X3027500D01*
X3020000Y4812500D02*
Y4827500D01*
X3012500Y4620000D02*
X3027500D01*
X3020000Y4612500D02*
Y4627500D01*
X3012500Y1220000D02*
X3027500D01*
X3020000Y1212500D02*
Y1227500D01*
X3012500Y820000D02*
X3027500D01*
X3020000Y812500D02*
Y827500D01*
X2812500Y5220000D02*
X2827500D01*
X2820000Y5212500D02*
Y5227500D01*
X2812500Y5020000D02*
X2827500D01*
X2820000Y5012500D02*
Y5027500D01*
X2812500Y4820000D02*
X2827500D01*
X2820000Y4812500D02*
Y4827500D01*
X2812500Y3620000D02*
X2827500D01*
X2820000Y3612500D02*
Y3627500D01*
X2812500Y3420000D02*
X2827500D01*
X2820000Y3412500D02*
Y3427500D01*
X2812500Y3220000D02*
X2827500D01*
X2820000Y3212500D02*
Y3227500D01*
X2812500Y3020000D02*
X2827500D01*
X2820000Y3012500D02*
Y3027500D01*
X2812500Y2820000D02*
X2827500D01*
X2820000Y2812500D02*
Y2827500D01*
X2812500Y2620000D02*
X2827500D01*
X2820000Y2612500D02*
Y2627500D01*
X2812500Y1620000D02*
X2827500D01*
X2820000Y1612500D02*
Y1627500D01*
X2812500Y1420000D02*
X2827500D01*
X2820000Y1412500D02*
Y1427500D01*
X2812500Y1220000D02*
X2827500D01*
X2820000Y1212500D02*
Y1227500D01*
X2812500Y820000D02*
X2827500D01*
X2820000Y812500D02*
Y827500D01*
X2612500Y5220000D02*
X2627500D01*
X2620000Y5212500D02*
Y5227500D01*
X2612500Y5020000D02*
X2627500D01*
X2620000Y5012500D02*
Y5027500D01*
X2612500Y3620000D02*
X2627500D01*
X2620000Y3612500D02*
Y3627500D01*
X2612500Y3420000D02*
X2627500D01*
X2620000Y3412500D02*
Y3427500D01*
X2612500Y3220000D02*
X2627500D01*
X2620000Y3212500D02*
Y3227500D01*
X2612500Y3020000D02*
X2627500D01*
X2620000Y3012500D02*
Y3027500D01*
X2612500Y2820000D02*
X2627500D01*
X2620000Y2812500D02*
Y2827500D01*
X2612500Y2620000D02*
X2627500D01*
X2620000Y2612500D02*
Y2627500D01*
X2612500Y1620000D02*
X2627500D01*
X2620000Y1612500D02*
Y1627500D01*
X2612500Y1220000D02*
X2627500D01*
X2620000Y1212500D02*
Y1227500D01*
X2612500Y820000D02*
X2627500D01*
X2620000Y812500D02*
Y827500D01*
X2412500Y5220000D02*
X2427500D01*
X2420000Y5212500D02*
Y5227500D01*
X2412500Y3620000D02*
X2427500D01*
X2420000Y3612500D02*
Y3627500D01*
X2412500Y3420000D02*
X2427500D01*
X2420000Y3412500D02*
Y3427500D01*
X2412500Y3220000D02*
X2427500D01*
X2420000Y3212500D02*
Y3227500D01*
X2412500Y3020000D02*
X2427500D01*
X2420000Y3012500D02*
Y3027500D01*
X2412500Y2820000D02*
X2427500D01*
X2420000Y2812500D02*
Y2827500D01*
X2412500Y2620000D02*
X2427500D01*
X2420000Y2612500D02*
Y2627500D01*
X2412500Y1620000D02*
X2427500D01*
X2420000Y1612500D02*
Y1627500D01*
X2412500Y1420000D02*
X2427500D01*
X2420000Y1412500D02*
Y1427500D01*
X2412500Y1220000D02*
X2427500D01*
X2420000Y1212500D02*
Y1227500D01*
X2412500Y820000D02*
X2427500D01*
X2420000Y812500D02*
Y827500D01*
X2212500Y5220000D02*
X2227500D01*
X2220000Y5212500D02*
Y5227500D01*
X2212500Y5020000D02*
X2227500D01*
X2220000Y5012500D02*
Y5027500D01*
X2212500Y4820000D02*
X2227500D01*
X2220000Y4812500D02*
Y4827500D01*
X2212500Y4620000D02*
X2227500D01*
X2220000Y4612500D02*
Y4627500D01*
X2212500Y3620000D02*
X2227500D01*
X2220000Y3612500D02*
Y3627500D01*
X2212500Y3420000D02*
X2227500D01*
X2220000Y3412500D02*
Y3427500D01*
X2212500Y3220000D02*
X2227500D01*
X2220000Y3212500D02*
Y3227500D01*
X2212500Y3020000D02*
X2227500D01*
X2220000Y3012500D02*
Y3027500D01*
X2212500Y2820000D02*
X2227500D01*
X2220000Y2812500D02*
Y2827500D01*
X2212500Y2620000D02*
X2227500D01*
X2220000Y2612500D02*
Y2627500D01*
X2212500Y2020000D02*
X2227500D01*
X2220000Y2012500D02*
Y2027500D01*
X2212500Y1620000D02*
X2227500D01*
X2220000Y1612500D02*
Y1627500D01*
X2212500Y1220000D02*
X2227500D01*
X2220000Y1212500D02*
Y1227500D01*
X2212500Y1020000D02*
X2227500D01*
X2220000Y1012500D02*
Y1027500D01*
X2212500Y820000D02*
X2227500D01*
X2220000Y812500D02*
Y827500D01*
X2012500Y5220000D02*
X2027500D01*
X2020000Y5212500D02*
Y5227500D01*
X2012500Y4620000D02*
X2027500D01*
X2020000Y4612500D02*
Y4627500D01*
X2012500Y3620000D02*
X2027500D01*
X2020000Y3612500D02*
Y3627500D01*
X2012500Y3420000D02*
X2027500D01*
X2020000Y3412500D02*
Y3427500D01*
X2012500Y3220000D02*
X2027500D01*
X2020000Y3212500D02*
Y3227500D01*
X2012500Y3020000D02*
X2027500D01*
X2020000Y3012500D02*
Y3027500D01*
X2012500Y2820000D02*
X2027500D01*
X2020000Y2812500D02*
Y2827500D01*
X2012500Y1620000D02*
X2027500D01*
X2020000Y1612500D02*
Y1627500D01*
X2012500Y1220000D02*
X2027500D01*
X2020000Y1212500D02*
Y1227500D01*
X2012500Y1020000D02*
X2027500D01*
X2020000Y1012500D02*
Y1027500D01*
X2012500Y820000D02*
X2027500D01*
X2020000Y812500D02*
Y827500D01*
X1812500Y5220000D02*
X1827500D01*
X1820000Y5212500D02*
Y5227500D01*
X1812500Y5020000D02*
X1827500D01*
X1820000Y5012500D02*
Y5027500D01*
X1812500Y4020000D02*
X1827500D01*
X1820000Y4012500D02*
Y4027500D01*
X1812500Y3620000D02*
X1827500D01*
X1820000Y3612500D02*
Y3627500D01*
X1812500Y3420000D02*
X1827500D01*
X1820000Y3412500D02*
Y3427500D01*
X1812500Y3220000D02*
X1827500D01*
X1820000Y3212500D02*
Y3227500D01*
X1812500Y3020000D02*
X1827500D01*
X1820000Y3012500D02*
Y3027500D01*
X1812500Y2620000D02*
X1827500D01*
X1820000Y2612500D02*
Y2627500D01*
X1812500Y1220000D02*
X1827500D01*
X1820000Y1212500D02*
Y1227500D01*
X1812500Y1020000D02*
X1827500D01*
X1820000Y1012500D02*
Y1027500D01*
X1812500Y820000D02*
X1827500D01*
X1820000Y812500D02*
Y827500D01*
X1612500Y5220000D02*
X1627500D01*
X1620000Y5212500D02*
Y5227500D01*
X1612500Y5020000D02*
X1627500D01*
X1620000Y5012500D02*
Y5027500D01*
X1612500Y4820000D02*
X1627500D01*
X1620000Y4812500D02*
Y4827500D01*
X1612500Y4220000D02*
X1627500D01*
X1620000Y4212500D02*
Y4227500D01*
X1612500Y4020000D02*
X1627500D01*
X1620000Y4012500D02*
Y4027500D01*
X1612500Y3620000D02*
X1627500D01*
X1620000Y3612500D02*
Y3627500D01*
X1612500Y3420000D02*
X1627500D01*
X1620000Y3412500D02*
Y3427500D01*
X1612500Y3220000D02*
X1627500D01*
X1620000Y3212500D02*
Y3227500D01*
X1612500Y2820000D02*
X1627500D01*
X1620000Y2812500D02*
Y2827500D01*
X1612500Y2620000D02*
X1627500D01*
X1620000Y2612500D02*
Y2627500D01*
X1612500Y2220000D02*
X1627500D01*
X1620000Y2212500D02*
Y2227500D01*
X1612500Y1620000D02*
X1627500D01*
X1620000Y1612500D02*
Y1627500D01*
X1612500Y1220000D02*
X1627500D01*
X1620000Y1212500D02*
Y1227500D01*
X1612500Y1020000D02*
X1627500D01*
X1620000Y1012500D02*
Y1027500D01*
X1612500Y820000D02*
X1627500D01*
X1620000Y812500D02*
Y827500D01*
X1412500Y5220000D02*
X1427500D01*
X1420000Y5212500D02*
Y5227500D01*
X1412500Y5020000D02*
X1427500D01*
X1420000Y5012500D02*
Y5027500D01*
X1412500Y4820000D02*
X1427500D01*
X1420000Y4812500D02*
Y4827500D01*
X1412500Y3620000D02*
X1427500D01*
X1420000Y3612500D02*
Y3627500D01*
X1412500Y3420000D02*
X1427500D01*
X1420000Y3412500D02*
Y3427500D01*
X1412500Y3020000D02*
X1427500D01*
X1420000Y3012500D02*
Y3027500D01*
X1412500Y2820000D02*
X1427500D01*
X1420000Y2812500D02*
Y2827500D01*
X1412500Y2620000D02*
X1427500D01*
X1420000Y2612500D02*
Y2627500D01*
X1412500Y1620000D02*
X1427500D01*
X1420000Y1612500D02*
Y1627500D01*
X1412500Y1420000D02*
X1427500D01*
X1420000Y1412500D02*
Y1427500D01*
X1412500Y1220000D02*
X1427500D01*
X1420000Y1212500D02*
Y1227500D01*
X1412500Y1020000D02*
X1427500D01*
X1420000Y1012500D02*
Y1027500D01*
X1412500Y820000D02*
X1427500D01*
X1420000Y812500D02*
Y827500D01*
X1212500Y5220000D02*
X1227500D01*
X1220000Y5212500D02*
Y5227500D01*
X1212500Y5020000D02*
X1227500D01*
X1220000Y5012500D02*
Y5027500D01*
X1212500Y4620000D02*
X1227500D01*
X1220000Y4612500D02*
Y4627500D01*
X1212500Y4220000D02*
X1227500D01*
X1220000Y4212500D02*
Y4227500D01*
X1212500Y4020000D02*
X1227500D01*
X1220000Y4012500D02*
Y4027500D01*
X1212500Y3820000D02*
X1227500D01*
X1220000Y3812500D02*
Y3827500D01*
X1212500Y3620000D02*
X1227500D01*
X1220000Y3612500D02*
Y3627500D01*
X1212500Y3220000D02*
X1227500D01*
X1220000Y3212500D02*
Y3227500D01*
X1212500Y3020000D02*
X1227500D01*
X1220000Y3012500D02*
Y3027500D01*
X1212500Y2820000D02*
X1227500D01*
X1220000Y2812500D02*
Y2827500D01*
X1212500Y2620000D02*
X1227500D01*
X1220000Y2612500D02*
Y2627500D01*
X1212500Y2420000D02*
X1227500D01*
X1220000Y2412500D02*
Y2427500D01*
X1212500Y2020000D02*
X1227500D01*
X1220000Y2012500D02*
Y2027500D01*
X1212500Y1620000D02*
X1227500D01*
X1220000Y1612500D02*
Y1627500D01*
X1212500Y1420000D02*
X1227500D01*
X1220000Y1412500D02*
Y1427500D01*
X1212500Y1220000D02*
X1227500D01*
X1220000Y1212500D02*
Y1227500D01*
X1212500Y1020000D02*
X1227500D01*
X1220000Y1012500D02*
Y1027500D01*
X1212500Y820000D02*
X1227500D01*
X1220000Y812500D02*
Y827500D01*
X1012500Y5220000D02*
X1027500D01*
X1020000Y5212500D02*
Y5227500D01*
X1012500Y5020000D02*
X1027500D01*
X1020000Y5012500D02*
Y5027500D01*
X1012500Y4620000D02*
X1027500D01*
X1020000Y4612500D02*
Y4627500D01*
X1012500Y4020000D02*
X1027500D01*
X1020000Y4012500D02*
Y4027500D01*
X1012500Y3820000D02*
X1027500D01*
X1020000Y3812500D02*
Y3827500D01*
X1012500Y3420000D02*
X1027500D01*
X1020000Y3412500D02*
Y3427500D01*
X1012500Y3220000D02*
X1027500D01*
X1020000Y3212500D02*
Y3227500D01*
X1012500Y3020000D02*
X1027500D01*
X1020000Y3012500D02*
Y3027500D01*
X1012500Y2820000D02*
X1027500D01*
X1020000Y2812500D02*
Y2827500D01*
X1012500Y2620000D02*
X1027500D01*
X1020000Y2612500D02*
Y2627500D01*
X1012500Y2420000D02*
X1027500D01*
X1020000Y2412500D02*
Y2427500D01*
X1012500Y2220000D02*
X1027500D01*
X1020000Y2212500D02*
Y2227500D01*
X1012500Y1820000D02*
X1027500D01*
X1020000Y1812500D02*
Y1827500D01*
X1012500Y1220000D02*
X1027500D01*
X1020000Y1212500D02*
Y1227500D01*
X1012500Y1020000D02*
X1027500D01*
X1020000Y1012500D02*
Y1027500D01*
X1012500Y820000D02*
X1027500D01*
X1020000Y812500D02*
Y827500D01*
X812500Y5020000D02*
X827500D01*
X820000Y5012500D02*
Y5027500D01*
X812500Y4820000D02*
X827500D01*
X820000Y4812500D02*
Y4827500D01*
X812500Y4420000D02*
X827500D01*
X820000Y4412500D02*
Y4427500D01*
X812500Y4020000D02*
X827500D01*
X820000Y4012500D02*
Y4027500D01*
X812500Y3620000D02*
X827500D01*
X820000Y3612500D02*
Y3627500D01*
X812500Y3420000D02*
X827500D01*
X820000Y3412500D02*
Y3427500D01*
X812500Y3220000D02*
X827500D01*
X820000Y3212500D02*
Y3227500D01*
X812500Y3020000D02*
X827500D01*
X820000Y3012500D02*
Y3027500D01*
X812500Y2820000D02*
X827500D01*
X820000Y2812500D02*
Y2827500D01*
X812500Y2620000D02*
X827500D01*
X820000Y2612500D02*
Y2627500D01*
X812500Y2420000D02*
X827500D01*
X820000Y2412500D02*
Y2427500D01*
X812500Y2220000D02*
X827500D01*
X820000Y2212500D02*
Y2227500D01*
X812500Y2020000D02*
X827500D01*
X820000Y2012500D02*
Y2027500D01*
X812500Y1620000D02*
X827500D01*
X820000Y1612500D02*
Y1627500D01*
X812500Y1420000D02*
X827500D01*
X820000Y1412500D02*
Y1427500D01*
X812500Y1220000D02*
X827500D01*
X820000Y1212500D02*
Y1227500D01*
X812500Y1020000D02*
X827500D01*
X820000Y1012500D02*
Y1027500D01*
X612500Y5220000D02*
X627500D01*
X620000Y5212500D02*
Y5227500D01*
X612500Y5020000D02*
X627500D01*
X620000Y5012500D02*
Y5027500D01*
X612500Y4820000D02*
X627500D01*
X620000Y4812500D02*
Y4827500D01*
X612500Y4620000D02*
X627500D01*
X620000Y4612500D02*
Y4627500D01*
X612500Y4220000D02*
X627500D01*
X620000Y4212500D02*
Y4227500D01*
X612500Y4020000D02*
X627500D01*
X620000Y4012500D02*
Y4027500D01*
X612500Y3620000D02*
X627500D01*
X620000Y3612500D02*
Y3627500D01*
X612500Y3420000D02*
X627500D01*
X620000Y3412500D02*
Y3427500D01*
X612500Y3220000D02*
X627500D01*
X620000Y3212500D02*
Y3227500D01*
X612500Y3020000D02*
X627500D01*
X620000Y3012500D02*
Y3027500D01*
X612500Y2820000D02*
X627500D01*
X620000Y2812500D02*
Y2827500D01*
X612500Y2620000D02*
X627500D01*
X620000Y2612500D02*
Y2627500D01*
X612500Y2420000D02*
X627500D01*
X620000Y2412500D02*
Y2427500D01*
X612500Y2220000D02*
X627500D01*
X620000Y2212500D02*
Y2227500D01*
X612500Y1820000D02*
X627500D01*
X620000Y1812500D02*
Y1827500D01*
X612500Y1620000D02*
X627500D01*
X620000Y1612500D02*
Y1627500D01*
X612500Y1420000D02*
X627500D01*
X620000Y1412500D02*
Y1427500D01*
X612500Y1220000D02*
X627500D01*
X620000Y1212500D02*
Y1227500D01*
X612500Y1020000D02*
X627500D01*
X620000Y1012500D02*
Y1027500D01*
X7512500Y4670000D02*
X7527500D01*
X7520000Y4662500D02*
Y4677500D01*
X7512500Y4520000D02*
X7527500D01*
X7520000Y4512500D02*
Y4527500D01*
X7512500Y3770000D02*
X7527500D01*
X7520000Y3762500D02*
Y3777500D01*
X7512500Y3620000D02*
X7527500D01*
X7520000Y3612500D02*
Y3627500D01*
X7512500Y3470000D02*
X7527500D01*
X7520000Y3462500D02*
Y3477500D01*
X7512500Y3320000D02*
X7527500D01*
X7520000Y3312500D02*
Y3327500D01*
X7512500Y3170000D02*
X7527500D01*
X7520000Y3162500D02*
Y3177500D01*
X7512500Y3020000D02*
X7527500D01*
X7520000Y3012500D02*
Y3027500D01*
X7512500Y2870000D02*
X7527500D01*
X7520000Y2862500D02*
Y2877500D01*
X7512500Y2720000D02*
X7527500D01*
X7520000Y2712500D02*
Y2727500D01*
X7512500Y2570000D02*
X7527500D01*
X7520000Y2562500D02*
Y2577500D01*
X7512500Y2420000D02*
X7527500D01*
X7520000Y2412500D02*
Y2427500D01*
X7512500Y2120000D02*
X7527500D01*
X7520000Y2112500D02*
Y2127500D01*
X7512500Y1970000D02*
X7527500D01*
X7520000Y1962500D02*
Y1977500D01*
X7512500Y1820000D02*
X7527500D01*
X7520000Y1812500D02*
Y1827500D01*
X7512500Y1670000D02*
X7527500D01*
X7520000Y1662500D02*
Y1677500D01*
X7512500Y1520000D02*
X7527500D01*
X7520000Y1512500D02*
Y1527500D01*
X7512500Y1220000D02*
X7527500D01*
X7520000Y1212500D02*
Y1227500D01*
X7362500Y4670000D02*
X7377500D01*
X7370000Y4662500D02*
Y4677500D01*
X7362500Y4520000D02*
X7377500D01*
X7370000Y4512500D02*
Y4527500D01*
X7362500Y4370000D02*
X7377500D01*
X7370000Y4362500D02*
Y4377500D01*
X7362500Y4220000D02*
X7377500D01*
X7370000Y4212500D02*
Y4227500D01*
X7362500Y4070000D02*
X7377500D01*
X7370000Y4062500D02*
Y4077500D01*
X7362500Y3770000D02*
X7377500D01*
X7370000Y3762500D02*
Y3777500D01*
X7362500Y3170000D02*
X7377500D01*
X7370000Y3162500D02*
Y3177500D01*
X7362500Y3020000D02*
X7377500D01*
X7370000Y3012500D02*
Y3027500D01*
X7362500Y2870000D02*
X7377500D01*
X7370000Y2862500D02*
Y2877500D01*
X7362500Y2720000D02*
X7377500D01*
X7370000Y2712500D02*
Y2727500D01*
X7362500Y2570000D02*
X7377500D01*
X7370000Y2562500D02*
Y2577500D01*
X7362500Y1520000D02*
X7377500D01*
X7370000Y1512500D02*
Y1527500D01*
X7362500Y1220000D02*
X7377500D01*
X7370000Y1212500D02*
Y1227500D01*
X7212500Y4520000D02*
X7227500D01*
X7220000Y4512500D02*
Y4527500D01*
X7212500Y4370000D02*
X7227500D01*
X7220000Y4362500D02*
Y4377500D01*
X7212500Y4220000D02*
X7227500D01*
X7220000Y4212500D02*
Y4227500D01*
X7212500Y4070000D02*
X7227500D01*
X7220000Y4062500D02*
Y4077500D01*
X7212500Y3770000D02*
X7227500D01*
X7220000Y3762500D02*
Y3777500D01*
X7212500Y3620000D02*
X7227500D01*
X7220000Y3612500D02*
Y3627500D01*
X7212500Y3170000D02*
X7227500D01*
X7220000Y3162500D02*
Y3177500D01*
X7212500Y3020000D02*
X7227500D01*
X7220000Y3012500D02*
Y3027500D01*
X7212500Y2870000D02*
X7227500D01*
X7220000Y2862500D02*
Y2877500D01*
X7212500Y2720000D02*
X7227500D01*
X7220000Y2712500D02*
Y2727500D01*
X7212500Y2420000D02*
X7227500D01*
X7220000Y2412500D02*
Y2427500D01*
X7212500Y1970000D02*
X7227500D01*
X7220000Y1962500D02*
Y1977500D01*
X7212500Y1820000D02*
X7227500D01*
X7220000Y1812500D02*
Y1827500D01*
X7212500Y1670000D02*
X7227500D01*
X7220000Y1662500D02*
Y1677500D01*
X7212500Y1520000D02*
X7227500D01*
X7220000Y1512500D02*
Y1527500D01*
X7212500Y1070000D02*
X7227500D01*
X7220000Y1062500D02*
Y1077500D01*
X7062500Y4670000D02*
X7077500D01*
X7070000Y4662500D02*
Y4677500D01*
X7062500Y1220000D02*
X7077500D01*
X7070000Y1212500D02*
Y1227500D01*
X6912500Y4520000D02*
X6927500D01*
X6920000Y4512500D02*
Y4527500D01*
X6912500Y1220000D02*
X6927500D01*
X6920000Y1212500D02*
Y1227500D01*
X6762500Y4670000D02*
X6777500D01*
X6770000Y4662500D02*
Y4677500D01*
X6762500Y4520000D02*
X6777500D01*
X6770000Y4512500D02*
Y4527500D01*
X6762500Y1220000D02*
X6777500D01*
X6770000Y1212500D02*
Y1227500D01*
X6612500Y4670000D02*
X6627500D01*
X6620000Y4662500D02*
Y4677500D01*
X6612500Y4520000D02*
X6627500D01*
X6620000Y4512500D02*
Y4527500D01*
X6612500Y3620000D02*
X6627500D01*
X6620000Y3612500D02*
Y3627500D01*
X6612500Y3470000D02*
X6627500D01*
X6620000Y3462500D02*
Y3477500D01*
X6612500Y3320000D02*
X6627500D01*
X6620000Y3312500D02*
Y3327500D01*
X6612500Y3020000D02*
X6627500D01*
X6620000Y3012500D02*
Y3027500D01*
X6612500Y2720000D02*
X6627500D01*
X6620000Y2712500D02*
Y2727500D01*
X6612500Y1820000D02*
X6627500D01*
X6620000Y1812500D02*
Y1827500D01*
X6612500Y1670000D02*
X6627500D01*
X6620000Y1662500D02*
Y1677500D01*
X6612500Y1520000D02*
X6627500D01*
X6620000Y1512500D02*
Y1527500D01*
X6462500Y4820000D02*
X6477500D01*
X6470000Y4812500D02*
Y4827500D01*
X6462500Y4520000D02*
X6477500D01*
X6470000Y4512500D02*
Y4527500D01*
X6462500Y4070000D02*
X6477500D01*
X6470000Y4062500D02*
Y4077500D01*
X6462500Y3920000D02*
X6477500D01*
X6470000Y3912500D02*
Y3927500D01*
X6462500Y2720000D02*
X6477500D01*
X6470000Y2712500D02*
Y2727500D01*
X6462500Y2120000D02*
X6477500D01*
X6470000Y2112500D02*
Y2127500D01*
X6462500Y1820000D02*
X6477500D01*
X6470000Y1812500D02*
Y1827500D01*
X6462500Y1670000D02*
X6477500D01*
X6470000Y1662500D02*
Y1677500D01*
X6462500Y1520000D02*
X6477500D01*
X6470000Y1512500D02*
Y1527500D01*
X6312500Y4820000D02*
X6327500D01*
X6320000Y4812500D02*
Y4827500D01*
X6312500Y4670000D02*
X6327500D01*
X6320000Y4662500D02*
Y4677500D01*
X6312500Y4220000D02*
X6327500D01*
X6320000Y4212500D02*
Y4227500D01*
X6312500Y4070000D02*
X6327500D01*
X6320000Y4062500D02*
Y4077500D01*
X6312500Y3920000D02*
X6327500D01*
X6320000Y3912500D02*
Y3927500D01*
X6312500Y3770000D02*
X6327500D01*
X6320000Y3762500D02*
Y3777500D01*
X6312500Y2570000D02*
X6327500D01*
X6320000Y2562500D02*
Y2577500D01*
X6312500Y1820000D02*
X6327500D01*
X6320000Y1812500D02*
Y1827500D01*
X6312500Y1670000D02*
X6327500D01*
X6320000Y1662500D02*
Y1677500D01*
X6312500Y1520000D02*
X6327500D01*
X6320000Y1512500D02*
Y1527500D01*
X6162500Y4820000D02*
X6177500D01*
X6170000Y4812500D02*
Y4827500D01*
X6162500Y4670000D02*
X6177500D01*
X6170000Y4662500D02*
Y4677500D01*
X6162500Y4520000D02*
X6177500D01*
X6170000Y4512500D02*
Y4527500D01*
X6162500Y4220000D02*
X6177500D01*
X6170000Y4212500D02*
Y4227500D01*
X6162500Y4070000D02*
X6177500D01*
X6170000Y4062500D02*
Y4077500D01*
X6162500Y3920000D02*
X6177500D01*
X6170000Y3912500D02*
Y3927500D01*
X6162500Y3770000D02*
X6177500D01*
X6170000Y3762500D02*
Y3777500D01*
X6162500Y3620000D02*
X6177500D01*
X6170000Y3612500D02*
Y3627500D01*
X6162500Y3470000D02*
X6177500D01*
X6170000Y3462500D02*
Y3477500D01*
X6162500Y3320000D02*
X6177500D01*
X6170000Y3312500D02*
Y3327500D01*
X6162500Y3020000D02*
X6177500D01*
X6170000Y3012500D02*
Y3027500D01*
X6162500Y2870000D02*
X6177500D01*
X6170000Y2862500D02*
Y2877500D01*
X6162500Y1820000D02*
X6177500D01*
X6170000Y1812500D02*
Y1827500D01*
X6162500Y1670000D02*
X6177500D01*
X6170000Y1662500D02*
Y1677500D01*
X6162500Y1520000D02*
X6177500D01*
X6170000Y1512500D02*
Y1527500D01*
X6012500Y4820000D02*
X6027500D01*
X6020000Y4812500D02*
Y4827500D01*
X6012500Y4670000D02*
X6027500D01*
X6020000Y4662500D02*
Y4677500D01*
X6012500Y4520000D02*
X6027500D01*
X6020000Y4512500D02*
Y4527500D01*
X6012500Y4220000D02*
X6027500D01*
X6020000Y4212500D02*
Y4227500D01*
X6012500Y3920000D02*
X6027500D01*
X6020000Y3912500D02*
Y3927500D01*
X6012500Y3770000D02*
X6027500D01*
X6020000Y3762500D02*
Y3777500D01*
X6012500Y3620000D02*
X6027500D01*
X6020000Y3612500D02*
Y3627500D01*
X6012500Y3470000D02*
X6027500D01*
X6020000Y3462500D02*
Y3477500D01*
X6012500Y3320000D02*
X6027500D01*
X6020000Y3312500D02*
Y3327500D01*
X6012500Y3020000D02*
X6027500D01*
X6020000Y3012500D02*
Y3027500D01*
X5862500Y4820000D02*
X5877500D01*
X5870000Y4812500D02*
Y4827500D01*
X5862500Y4670000D02*
X5877500D01*
X5870000Y4662500D02*
Y4677500D01*
X5862500Y4520000D02*
X5877500D01*
X5870000Y4512500D02*
Y4527500D01*
X5862500Y4220000D02*
X5877500D01*
X5870000Y4212500D02*
Y4227500D01*
X5862500Y3920000D02*
X5877500D01*
X5870000Y3912500D02*
Y3927500D01*
X5862500Y3770000D02*
X5877500D01*
X5870000Y3762500D02*
Y3777500D01*
X5862500Y3620000D02*
X5877500D01*
X5870000Y3612500D02*
Y3627500D01*
X5862500Y3470000D02*
X5877500D01*
X5870000Y3462500D02*
Y3477500D01*
X5862500Y3320000D02*
X5877500D01*
X5870000Y3312500D02*
Y3327500D01*
X5862500Y2870000D02*
X5877500D01*
X5870000Y2862500D02*
Y2877500D01*
X5862500Y2720000D02*
X5877500D01*
X5870000Y2712500D02*
Y2727500D01*
X5862500Y2120000D02*
X5877500D01*
X5870000Y2112500D02*
Y2127500D01*
X5712500Y4670000D02*
X5727500D01*
X5720000Y4662500D02*
Y4677500D01*
X5712500Y4520000D02*
X5727500D01*
X5720000Y4512500D02*
Y4527500D01*
X5712500Y4220000D02*
X5727500D01*
X5720000Y4212500D02*
Y4227500D01*
X5712500Y3920000D02*
X5727500D01*
X5720000Y3912500D02*
Y3927500D01*
X5712500Y3770000D02*
X5727500D01*
X5720000Y3762500D02*
Y3777500D01*
X5712500Y3620000D02*
X5727500D01*
X5720000Y3612500D02*
Y3627500D01*
X5712500Y3470000D02*
X5727500D01*
X5720000Y3462500D02*
Y3477500D01*
X5712500Y3320000D02*
X5727500D01*
X5720000Y3312500D02*
Y3327500D01*
X5712500Y3020000D02*
X5727500D01*
X5720000Y3012500D02*
Y3027500D01*
X5712500Y2870000D02*
X5727500D01*
X5720000Y2862500D02*
Y2877500D01*
X5712500Y2720000D02*
X5727500D01*
X5720000Y2712500D02*
Y2727500D01*
X5712500Y1220000D02*
X5727500D01*
X5720000Y1212500D02*
Y1227500D01*
X5562500Y4820000D02*
X5577500D01*
X5570000Y4812500D02*
Y4827500D01*
X5562500Y4520000D02*
X5577500D01*
X5570000Y4512500D02*
Y4527500D01*
X5562500Y4220000D02*
X5577500D01*
X5570000Y4212500D02*
Y4227500D01*
X5562500Y3920000D02*
X5577500D01*
X5570000Y3912500D02*
Y3927500D01*
X5562500Y3770000D02*
X5577500D01*
X5570000Y3762500D02*
Y3777500D01*
X5562500Y3620000D02*
X5577500D01*
X5570000Y3612500D02*
Y3627500D01*
X5562500Y3470000D02*
X5577500D01*
X5570000Y3462500D02*
Y3477500D01*
X5562500Y2270000D02*
X5577500D01*
X5570000Y2262500D02*
Y2277500D01*
X5412500Y4820000D02*
X5427500D01*
X5420000Y4812500D02*
Y4827500D01*
X5412500Y4670000D02*
X5427500D01*
X5420000Y4662500D02*
Y4677500D01*
X5412500Y4220000D02*
X5427500D01*
X5420000Y4212500D02*
Y4227500D01*
X5412500Y3920000D02*
X5427500D01*
X5420000Y3912500D02*
Y3927500D01*
X5412500Y3770000D02*
X5427500D01*
X5420000Y3762500D02*
Y3777500D01*
X5412500Y3620000D02*
X5427500D01*
X5420000Y3612500D02*
Y3627500D01*
X5412500Y3470000D02*
X5427500D01*
X5420000Y3462500D02*
Y3477500D01*
X5412500Y2120000D02*
X5427500D01*
X5420000Y2112500D02*
Y2127500D01*
X5412500Y1970000D02*
X5427500D01*
X5420000Y1962500D02*
Y1977500D01*
X5412500Y1820000D02*
X5427500D01*
X5420000Y1812500D02*
Y1827500D01*
X5412500Y1670000D02*
X5427500D01*
X5420000Y1662500D02*
Y1677500D01*
X5412500Y1520000D02*
X5427500D01*
X5420000Y1512500D02*
Y1527500D01*
X5412500Y1370000D02*
X5427500D01*
X5420000Y1362500D02*
Y1377500D01*
X5412500Y1220000D02*
X5427500D01*
X5420000Y1212500D02*
Y1227500D01*
X5262500Y4820000D02*
X5277500D01*
X5270000Y4812500D02*
Y4827500D01*
X5262500Y4670000D02*
X5277500D01*
X5270000Y4662500D02*
Y4677500D01*
X5262500Y4520000D02*
X5277500D01*
X5270000Y4512500D02*
Y4527500D01*
X5262500Y3770000D02*
X5277500D01*
X5270000Y3762500D02*
Y3777500D01*
X5262500Y3620000D02*
X5277500D01*
X5270000Y3612500D02*
Y3627500D01*
X5262500Y3470000D02*
X5277500D01*
X5270000Y3462500D02*
Y3477500D01*
X5262500Y2870000D02*
X5277500D01*
X5270000Y2862500D02*
Y2877500D01*
X5262500Y2720000D02*
X5277500D01*
X5270000Y2712500D02*
Y2727500D01*
X5262500Y2570000D02*
X5277500D01*
X5270000Y2562500D02*
Y2577500D01*
X5262500Y2120000D02*
X5277500D01*
X5270000Y2112500D02*
Y2127500D01*
X5262500Y1970000D02*
X5277500D01*
X5270000Y1962500D02*
Y1977500D01*
X5262500Y1820000D02*
X5277500D01*
X5270000Y1812500D02*
Y1827500D01*
X5262500Y1670000D02*
X5277500D01*
X5270000Y1662500D02*
Y1677500D01*
X5262500Y1520000D02*
X5277500D01*
X5270000Y1512500D02*
Y1527500D01*
X5262500Y1370000D02*
X5277500D01*
X5270000Y1362500D02*
Y1377500D01*
X5112500Y4820000D02*
X5127500D01*
X5120000Y4812500D02*
Y4827500D01*
X5112500Y4670000D02*
X5127500D01*
X5120000Y4662500D02*
Y4677500D01*
X5112500Y4520000D02*
X5127500D01*
X5120000Y4512500D02*
Y4527500D01*
X5112500Y3770000D02*
X5127500D01*
X5120000Y3762500D02*
Y3777500D01*
X5112500Y3620000D02*
X5127500D01*
X5120000Y3612500D02*
Y3627500D01*
X5112500Y3470000D02*
X5127500D01*
X5120000Y3462500D02*
Y3477500D01*
X5112500Y2120000D02*
X5127500D01*
X5120000Y2112500D02*
Y2127500D01*
X5112500Y1970000D02*
X5127500D01*
X5120000Y1962500D02*
Y1977500D01*
X5112500Y1820000D02*
X5127500D01*
X5120000Y1812500D02*
Y1827500D01*
X5112500Y1670000D02*
X5127500D01*
X5120000Y1662500D02*
Y1677500D01*
X5112500Y1520000D02*
X5127500D01*
X5120000Y1512500D02*
Y1527500D01*
X5112500Y1070000D02*
X5127500D01*
X5120000Y1062500D02*
Y1077500D01*
X4962500Y4820000D02*
X4977500D01*
X4970000Y4812500D02*
Y4827500D01*
X4962500Y4670000D02*
X4977500D01*
X4970000Y4662500D02*
Y4677500D01*
X4962500Y4520000D02*
X4977500D01*
X4970000Y4512500D02*
Y4527500D01*
X4962500Y4220000D02*
X4977500D01*
X4970000Y4212500D02*
Y4227500D01*
X4962500Y3770000D02*
X4977500D01*
X4970000Y3762500D02*
Y3777500D01*
X4962500Y3620000D02*
X4977500D01*
X4970000Y3612500D02*
Y3627500D01*
X4962500Y3470000D02*
X4977500D01*
X4970000Y3462500D02*
Y3477500D01*
X4962500Y2120000D02*
X4977500D01*
X4970000Y2112500D02*
Y2127500D01*
X4962500Y1970000D02*
X4977500D01*
X4970000Y1962500D02*
Y1977500D01*
X4962500Y1820000D02*
X4977500D01*
X4970000Y1812500D02*
Y1827500D01*
X4962500Y1670000D02*
X4977500D01*
X4970000Y1662500D02*
Y1677500D01*
X4962500Y1220000D02*
X4977500D01*
X4970000Y1212500D02*
Y1227500D01*
X4962500Y1070000D02*
X4977500D01*
X4970000Y1062500D02*
Y1077500D01*
X4812500Y4820000D02*
X4827500D01*
X4820000Y4812500D02*
Y4827500D01*
X4812500Y4670000D02*
X4827500D01*
X4820000Y4662500D02*
Y4677500D01*
X4812500Y4520000D02*
X4827500D01*
X4820000Y4512500D02*
Y4527500D01*
X4812500Y4220000D02*
X4827500D01*
X4820000Y4212500D02*
Y4227500D01*
X4812500Y3620000D02*
X4827500D01*
X4820000Y3612500D02*
Y3627500D01*
X4812500Y3470000D02*
X4827500D01*
X4820000Y3462500D02*
Y3477500D01*
X4812500Y2420000D02*
X4827500D01*
X4820000Y2412500D02*
Y2427500D01*
X4812500Y2120000D02*
X4827500D01*
X4820000Y2112500D02*
Y2127500D01*
X4812500Y1970000D02*
X4827500D01*
X4820000Y1962500D02*
Y1977500D01*
X4812500Y1820000D02*
X4827500D01*
X4820000Y1812500D02*
Y1827500D01*
X4812500Y1670000D02*
X4827500D01*
X4820000Y1662500D02*
Y1677500D01*
X4812500Y1220000D02*
X4827500D01*
X4820000Y1212500D02*
Y1227500D01*
X4812500Y1070000D02*
X4827500D01*
X4820000Y1062500D02*
Y1077500D01*
X4662500Y4820000D02*
X4677500D01*
X4670000Y4812500D02*
Y4827500D01*
X4662500Y4670000D02*
X4677500D01*
X4670000Y4662500D02*
Y4677500D01*
X4662500Y4520000D02*
X4677500D01*
X4670000Y4512500D02*
Y4527500D01*
X4662500Y4220000D02*
X4677500D01*
X4670000Y4212500D02*
Y4227500D01*
X4662500Y3620000D02*
X4677500D01*
X4670000Y3612500D02*
Y3627500D01*
X4662500Y3470000D02*
X4677500D01*
X4670000Y3462500D02*
Y3477500D01*
X4662500Y3020000D02*
X4677500D01*
X4670000Y3012500D02*
Y3027500D01*
X4662500Y2870000D02*
X4677500D01*
X4670000Y2862500D02*
Y2877500D01*
X4662500Y2720000D02*
X4677500D01*
X4670000Y2712500D02*
Y2727500D01*
X4662500Y2570000D02*
X4677500D01*
X4670000Y2562500D02*
Y2577500D01*
X4662500Y2270000D02*
X4677500D01*
X4670000Y2262500D02*
Y2277500D01*
X4662500Y1970000D02*
X4677500D01*
X4670000Y1962500D02*
Y1977500D01*
X4662500Y1820000D02*
X4677500D01*
X4670000Y1812500D02*
Y1827500D01*
X4662500Y1520000D02*
X4677500D01*
X4670000Y1512500D02*
Y1527500D01*
X4662500Y1370000D02*
X4677500D01*
X4670000Y1362500D02*
Y1377500D01*
X4662500Y1220000D02*
X4677500D01*
X4670000Y1212500D02*
Y1227500D01*
X4662500Y1070000D02*
X4677500D01*
X4670000Y1062500D02*
Y1077500D01*
X4512500Y4820000D02*
X4527500D01*
X4520000Y4812500D02*
Y4827500D01*
X4512500Y4670000D02*
X4527500D01*
X4520000Y4662500D02*
Y4677500D01*
X4512500Y4520000D02*
X4527500D01*
X4520000Y4512500D02*
Y4527500D01*
X4512500Y4220000D02*
X4527500D01*
X4520000Y4212500D02*
Y4227500D01*
X4512500Y3920000D02*
X4527500D01*
X4520000Y3912500D02*
Y3927500D01*
X4512500Y3620000D02*
X4527500D01*
X4520000Y3612500D02*
Y3627500D01*
X4512500Y3320000D02*
X4527500D01*
X4520000Y3312500D02*
Y3327500D01*
X4512500Y3170000D02*
X4527500D01*
X4520000Y3162500D02*
Y3177500D01*
X4512500Y3020000D02*
X4527500D01*
X4520000Y3012500D02*
Y3027500D01*
X4512500Y2870000D02*
X4527500D01*
X4520000Y2862500D02*
Y2877500D01*
X4512500Y2720000D02*
X4527500D01*
X4520000Y2712500D02*
Y2727500D01*
X4512500Y2420000D02*
X4527500D01*
X4520000Y2412500D02*
Y2427500D01*
X4512500Y2270000D02*
X4527500D01*
X4520000Y2262500D02*
Y2277500D01*
X4512500Y2120000D02*
X4527500D01*
X4520000Y2112500D02*
Y2127500D01*
X4512500Y1820000D02*
X4527500D01*
X4520000Y1812500D02*
Y1827500D01*
X4512500Y1520000D02*
X4527500D01*
X4520000Y1512500D02*
Y1527500D01*
X4512500Y1370000D02*
X4527500D01*
X4520000Y1362500D02*
Y1377500D01*
X4512500Y1220000D02*
X4527500D01*
X4520000Y1212500D02*
Y1227500D01*
X4512500Y1070000D02*
X4527500D01*
X4520000Y1062500D02*
Y1077500D01*
X4362500Y4670000D02*
X4377500D01*
X4370000Y4662500D02*
Y4677500D01*
X4362500Y4520000D02*
X4377500D01*
X4370000Y4512500D02*
Y4527500D01*
X4362500Y4220000D02*
X4377500D01*
X4370000Y4212500D02*
Y4227500D01*
X4362500Y3920000D02*
X4377500D01*
X4370000Y3912500D02*
Y3927500D01*
X4362500Y3470000D02*
X4377500D01*
X4370000Y3462500D02*
Y3477500D01*
X4362500Y3320000D02*
X4377500D01*
X4370000Y3312500D02*
Y3327500D01*
X4362500Y3170000D02*
X4377500D01*
X4370000Y3162500D02*
Y3177500D01*
X4362500Y3020000D02*
X4377500D01*
X4370000Y3012500D02*
Y3027500D01*
X4362500Y2870000D02*
X4377500D01*
X4370000Y2862500D02*
Y2877500D01*
X4362500Y2720000D02*
X4377500D01*
X4370000Y2712500D02*
Y2727500D01*
X4362500Y2420000D02*
X4377500D01*
X4370000Y2412500D02*
Y2427500D01*
X4362500Y1970000D02*
X4377500D01*
X4370000Y1962500D02*
Y1977500D01*
X4362500Y1520000D02*
X4377500D01*
X4370000Y1512500D02*
Y1527500D01*
X4362500Y1370000D02*
X4377500D01*
X4370000Y1362500D02*
Y1377500D01*
X4362500Y1220000D02*
X4377500D01*
X4370000Y1212500D02*
Y1227500D01*
X4362500Y1070000D02*
X4377500D01*
X4370000Y1062500D02*
Y1077500D01*
X4662500Y3515000D02*
X4677500D01*
X4670000Y3507500D02*
Y3522500D01*
X4907500Y3515000D02*
X4922500D01*
X4915000Y3507500D02*
Y3522500D01*
X5742500Y5085000D02*
X5757500D01*
X5750000Y5077500D02*
Y5092500D01*
X5577500Y4900000D02*
X5592500D01*
X5585000Y4892500D02*
Y4907500D01*
X3882500Y5090000D02*
X3897500D01*
X3890000Y5082500D02*
Y5097500D01*
X3987500Y4690000D02*
X4002500D01*
X3995000Y4682500D02*
Y4697500D01*
X5562500Y3070000D02*
X5577500D01*
X5570000Y3062500D02*
Y3077500D01*
X5562500Y3020000D02*
X5577500D01*
X5570000Y3012500D02*
Y3027500D01*
X5562500Y2970000D02*
X5577500D01*
X5570000Y2962500D02*
Y2977500D01*
X5562500Y2920000D02*
X5577500D01*
X5570000Y2912500D02*
Y2927500D01*
X5562500Y2870000D02*
X5577500D01*
X5570000Y2862500D02*
Y2877500D01*
X5562500Y2820000D02*
X5577500D01*
X5570000Y2812500D02*
Y2827500D01*
X5562500Y2770000D02*
X5577500D01*
X5570000Y2762500D02*
Y2777500D01*
X5562500Y2720000D02*
X5577500D01*
X5570000Y2712500D02*
Y2727500D01*
X5562500Y2670000D02*
X5577500D01*
X5570000Y2662500D02*
Y2677500D01*
X5562500Y2620000D02*
X5577500D01*
X5570000Y2612500D02*
Y2627500D01*
X5562500Y2570000D02*
X5577500D01*
X5570000Y2562500D02*
Y2577500D01*
X5562500Y2520000D02*
X5577500D01*
X5570000Y2512500D02*
Y2527500D01*
X5512500Y2920000D02*
X5527500D01*
X5520000Y2912500D02*
Y2927500D01*
X5512500Y2870000D02*
X5527500D01*
X5520000Y2862500D02*
Y2877500D01*
X5512500Y2820000D02*
X5527500D01*
X5520000Y2812500D02*
Y2827500D01*
X5512500Y2770000D02*
X5527500D01*
X5520000Y2762500D02*
Y2777500D01*
X5512500Y2720000D02*
X5527500D01*
X5520000Y2712500D02*
Y2727500D01*
X5512500Y2670000D02*
X5527500D01*
X5520000Y2662500D02*
Y2677500D01*
X6687500Y3600000D02*
X6702500D01*
X6695000Y3592500D02*
Y3607500D01*
X6687500Y3400000D02*
X6702500D01*
X6695000Y3392500D02*
Y3407500D01*
X6687500Y3100000D02*
X6702500D01*
X6695000Y3092500D02*
Y3107500D01*
X6692500Y3000000D02*
X6707500D01*
X6700000Y2992500D02*
Y3007500D01*
X6692500Y2900000D02*
X6707500D01*
X6700000Y2892500D02*
Y2907500D01*
X6692500Y2800000D02*
X6707500D01*
X6700000Y2792500D02*
Y2807500D01*
X6992500Y4300000D02*
X7007500D01*
X7000000Y4292500D02*
Y4307500D01*
X6992500Y4100000D02*
X7007500D01*
X7000000Y4092500D02*
Y4107500D01*
X6992500Y4000000D02*
X7007500D01*
X7000000Y3992500D02*
Y4007500D01*
X6992500Y3800000D02*
X7007500D01*
X7000000Y3792500D02*
Y3807500D01*
X6992500Y3700000D02*
X7007500D01*
X7000000Y3692500D02*
Y3707500D01*
X6992500Y3600000D02*
X7007500D01*
X7000000Y3592500D02*
Y3607500D01*
X6992500Y3300000D02*
X7007500D01*
X7000000Y3292500D02*
Y3307500D01*
X6992500Y3100000D02*
X7007500D01*
X7000000Y3092500D02*
Y3107500D01*
X6992500Y1600000D02*
X7007500D01*
X7000000Y1592500D02*
Y1607500D01*
X6892500Y4100000D02*
X6907500D01*
X6900000Y4092500D02*
Y4107500D01*
X6892500Y4000000D02*
X6907500D01*
X6900000Y3992500D02*
Y4007500D01*
X6892500Y3800000D02*
X6907500D01*
X6900000Y3792500D02*
Y3807500D01*
X6892500Y3700000D02*
X6907500D01*
X6900000Y3692500D02*
Y3707500D01*
X6892500Y3600000D02*
X6907500D01*
X6900000Y3592500D02*
Y3607500D01*
X6892500Y3300000D02*
X6907500D01*
X6900000Y3292500D02*
Y3307500D01*
X6892500Y3100000D02*
X6907500D01*
X6900000Y3092500D02*
Y3107500D01*
X6892500Y2800000D02*
X6907500D01*
X6900000Y2792500D02*
Y2807500D01*
X6892500Y2500000D02*
X6907500D01*
X6900000Y2492500D02*
Y2507500D01*
X6892500Y2100000D02*
X6907500D01*
X6900000Y2092500D02*
Y2107500D01*
X6892500Y2000000D02*
X6907500D01*
X6900000Y1992500D02*
Y2007500D01*
X6892500Y1700000D02*
X6907500D01*
X6900000Y1692500D02*
Y1707500D01*
X6792500Y4300000D02*
X6807500D01*
X6800000Y4292500D02*
Y4307500D01*
X6792500Y4100000D02*
X6807500D01*
X6800000Y4092500D02*
Y4107500D01*
X6792500Y4000000D02*
X6807500D01*
X6800000Y3992500D02*
Y4007500D01*
X6792500Y3800000D02*
X6807500D01*
X6800000Y3792500D02*
Y3807500D01*
X6792500Y3700000D02*
X6807500D01*
X6800000Y3692500D02*
Y3707500D01*
X6792500Y3600000D02*
X6807500D01*
X6800000Y3592500D02*
Y3607500D01*
X6792500Y3400000D02*
X6807500D01*
X6800000Y3392500D02*
Y3407500D01*
X6792500Y3300000D02*
X6807500D01*
X6800000Y3292500D02*
Y3307500D01*
X6792500Y3100000D02*
X6807500D01*
X6800000Y3092500D02*
Y3107500D01*
X6792500Y2800000D02*
X6807500D01*
X6800000Y2792500D02*
Y2807500D01*
X6792500Y2700000D02*
X6807500D01*
X6800000Y2692500D02*
Y2707500D01*
X6792500Y2500000D02*
X6807500D01*
X6800000Y2492500D02*
Y2507500D01*
X6792500Y2400000D02*
X6807500D01*
X6800000Y2392500D02*
Y2407500D01*
X6792500Y2200000D02*
X6807500D01*
X6800000Y2192500D02*
Y2207500D01*
X6792500Y1900000D02*
X6807500D01*
X6800000Y1892500D02*
Y1907500D01*
X6792500Y1800000D02*
X6807500D01*
X6800000Y1792500D02*
Y1807500D01*
X6792500Y1700000D02*
X6807500D01*
X6800000Y1692500D02*
Y1707500D01*
X6792500Y1600000D02*
X6807500D01*
X6800000Y1592500D02*
Y1607500D01*
X6692500Y4300000D02*
X6707500D01*
X6700000Y4292500D02*
Y4307500D01*
X6692500Y4000000D02*
X6707500D01*
X6700000Y3992500D02*
Y4007500D01*
X6692500Y2700000D02*
X6707500D01*
X6700000Y2692500D02*
Y2707500D01*
X6692500Y2200000D02*
X6707500D01*
X6700000Y2192500D02*
Y2207500D01*
X6692500Y2100000D02*
X6707500D01*
X6700000Y2092500D02*
Y2107500D01*
X6692500Y1900000D02*
X6707500D01*
X6700000Y1892500D02*
Y1907500D01*
X6692500Y1800000D02*
X6707500D01*
X6700000Y1792500D02*
Y1807500D01*
X6692500Y1700000D02*
X6707500D01*
X6700000Y1692500D02*
Y1707500D01*
X6692500Y1600000D02*
X6707500D01*
X6700000Y1592500D02*
Y1607500D01*
X4207500Y1698000D02*
X4222500D01*
X4215000Y1690500D02*
Y1705500D01*
X2729387Y1742000D02*
X2744387D01*
X2736887Y1734500D02*
Y1749500D01*
X2402500Y1670000D02*
X2417500D01*
X2410000Y1662500D02*
Y1677500D01*
X6937500Y1945000D02*
X6952500D01*
X6945000Y1937500D02*
Y1952500D01*
X3875477Y2288044D02*
X3890477D01*
X3882977Y2280544D02*
Y2295544D01*
X3897500Y2115000D02*
X3912500D01*
X3905000Y2107500D02*
Y2122500D01*
X3866944Y1930556D02*
X3881944D01*
X3874444Y1923056D02*
Y1938056D01*
X3107500Y1883000D02*
X3122500D01*
X3115000Y1875500D02*
Y1890500D01*
X3307500Y2035000D02*
X3322500D01*
X3315000Y2027500D02*
Y2042500D01*
X3942500Y2390000D02*
X3957500D01*
X3950000Y2382500D02*
Y2397500D01*
X5097500Y3405000D02*
X5112500D01*
X5105000Y3397500D02*
Y3412500D01*
X6797500Y3340000D02*
X6812500D01*
X6805000Y3332500D02*
Y3347500D01*
X5162500Y3325000D02*
X5177500D01*
X5170000Y3317500D02*
Y3332500D01*
X7167500Y3275000D02*
X7182500D01*
X7175000Y3267500D02*
Y3282500D01*
X5297500Y3280000D02*
X5312500D01*
X5305000Y3272500D02*
Y3287500D01*
X5357500Y3240000D02*
X5372500D01*
X5365000Y3232500D02*
Y3247500D01*
X6762500Y2465000D02*
X6777500D01*
X6770000Y2457500D02*
Y2472500D01*
X5075792Y2148000D02*
X5090792D01*
X5083292Y2140500D02*
Y2155500D01*
X4907500Y2148000D02*
X4922500D01*
X4915000Y2140500D02*
Y2155500D01*
X3017500Y2450000D02*
X3032500D01*
X3025000Y2442500D02*
Y2457500D01*
X2687500Y2590000D02*
X2702500D01*
X2695000Y2582500D02*
Y2597500D01*
X2022500Y3875000D02*
X2037500D01*
X2030000Y3867500D02*
Y3882500D01*
X6672500Y2055000D02*
X6687500D01*
X6680000Y2047500D02*
Y2062500D01*
X6762500Y4990000D02*
X6777500D01*
X6770000Y4982500D02*
Y4997500D01*
X5162500Y3805000D02*
X5177500D01*
X5170000Y3797500D02*
Y3812500D01*
X5215556Y3928056D02*
X5230556D01*
X5223056Y3920556D02*
Y3935556D01*
X4552500Y3555000D02*
X4567500D01*
X4560000Y3547500D02*
Y3562500D01*
X3358613Y4370000D02*
X3373613D01*
X3366113Y4362500D02*
Y4377500D01*
X3352500Y4400000D02*
X3367500D01*
X3360000Y4392500D02*
Y4407500D01*
X3657500Y4310000D02*
X3672500D01*
X3665000Y4302500D02*
Y4317500D01*
X5772500Y4380000D02*
X5787500D01*
X5780000Y4372500D02*
Y4387500D01*
X5412500Y2365000D02*
X5427500D01*
X5420000Y2357500D02*
Y2372500D01*
X4012458Y1762971D02*
X4027458D01*
X4019958Y1755471D02*
Y1770471D01*
X5307500Y2405000D02*
X5322500D01*
X5315000Y2397500D02*
Y2412500D01*
X4927500Y2402125D02*
X4942500D01*
X4935000Y2394625D02*
Y2409625D01*
X3637500Y1980000D02*
X3652500D01*
X3645000Y1972500D02*
Y1987500D01*
X4827500Y3707500D02*
X4842500D01*
X4835000Y3700000D02*
Y3715000D01*
X4822500Y3650000D02*
X4837500D01*
X4830000Y3642500D02*
Y3657500D01*
X5412500Y4080000D02*
X5427500D01*
X5420000Y4072500D02*
Y4087500D01*
X3912500Y3870000D02*
X3927500D01*
X3920000Y3862500D02*
Y3877500D01*
X6702500Y1970000D02*
X6717500D01*
X6710000Y1962500D02*
Y1977500D01*
X6432500Y1972000D02*
X6447500D01*
X6440000Y1964500D02*
Y1979500D01*
X4407500Y2520000D02*
X4422500D01*
X4415000Y2512500D02*
Y2527500D01*
X3692500Y1440000D02*
X3707500D01*
X3700000Y1432500D02*
Y1447500D01*
X3597500Y1385000D02*
X3612500D01*
X3605000Y1377500D02*
Y1392500D01*
X1432500Y1575000D02*
X1447500D01*
X1440000Y1567500D02*
Y1582500D01*
X1452500Y1290000D02*
X1467500D01*
X1460000Y1282500D02*
Y1297500D01*
X927500Y1265000D02*
X942500D01*
X935000Y1257500D02*
Y1272500D01*
X3777500Y4825000D02*
X3792500D01*
X3785000Y4817500D02*
Y4832500D01*
X3882500Y4820000D02*
X3897500D01*
X3890000Y4812500D02*
Y4827500D01*
X5372500Y2250000D02*
X5387500D01*
X5380000Y2242500D02*
Y2257500D01*
X3461625Y2261822D02*
X3476625D01*
X3469125Y2254322D02*
Y2269322D01*
X3732500Y1245000D02*
X3747500D01*
X3740000Y1237500D02*
Y1252500D01*
X3405544Y4782977D02*
X3420544D01*
X3413044Y4775477D02*
Y4790477D01*
X3662500Y3965000D02*
X3677500D01*
X3670000Y3957500D02*
Y3972500D01*
X5967500Y5382000D02*
X5982500D01*
X5975000Y5374500D02*
Y5389500D01*
X3397500Y2310000D02*
X3412500D01*
X3405000Y2302500D02*
Y2317500D01*
X1512500Y1020000D02*
X1527500D01*
X1520000Y1012500D02*
Y1027500D01*
X997500Y1095000D02*
X1012500D01*
X1005000Y1087500D02*
Y1102500D01*
X3817500Y3765000D02*
X3832500D01*
X3825000Y3757500D02*
Y3772500D01*
X3580500Y3910000D02*
X3595500D01*
X3588000Y3902500D02*
Y3917500D01*
X5187500Y4060000D02*
X5202500D01*
X5195000Y4052500D02*
Y4067500D01*
X3887500Y1775000D02*
X3902500D01*
X3895000Y1767500D02*
Y1782500D01*
X4652500Y2170000D02*
X4667500D01*
X4660000Y2162500D02*
Y2177500D01*
X4057500Y2170000D02*
X4072500D01*
X4065000Y2162500D02*
Y2177500D01*
X3979505Y1636000D02*
X3994505D01*
X3987005Y1628500D02*
Y1643500D01*
X697500Y2230000D02*
X712500D01*
X705000Y2222500D02*
Y2237500D01*
X3457500Y4675000D02*
X3472500D01*
X3465000Y4667500D02*
Y4682500D01*
X3129500Y2420000D02*
X3144500D01*
X3137000Y2412500D02*
Y2427500D01*
X2947500Y1855000D02*
X2962500D01*
X2955000Y1847500D02*
Y1862500D01*
X3887500Y1515000D02*
X3902500D01*
X3895000Y1507500D02*
Y1522500D01*
X582500Y3780000D02*
X597500D01*
X590000Y3772500D02*
Y3787500D01*
X2547500Y4725000D02*
X2562500D01*
X2555000Y4717500D02*
Y4732500D01*
X1082500Y1830000D02*
X1097500D01*
X1090000Y1822500D02*
Y1837500D01*
X3127500Y1305000D02*
X3142500D01*
X3135000Y1297500D02*
Y1312500D01*
X1942500Y4830000D02*
X1957500D01*
X1950000Y4822500D02*
Y4837500D01*
X4987500Y2425000D02*
X5002500D01*
X4995000Y2417500D02*
Y2432500D01*
X3802500Y3860000D02*
X3817500D01*
X3810000Y3852500D02*
Y3867500D01*
X3531236Y3816225D02*
X3546236D01*
X3538736Y3808725D02*
Y3823725D01*
X3942500Y5205000D02*
X3957500D01*
X3950000Y5197500D02*
Y5212500D01*
%TF.MD5,4fde666631ee5369dd02f0366744c133*%
M02*
