%TF.GenerationSoftware,Altium Limited,Altium Designer,20.2.5 (213)*%
G04 Layer_Color=2752767*
%FSLAX26Y26*%
%MOIN*%
%TF.SameCoordinates,9BAFD9CD-774C-4051-972E-F2DD54F50950*%
%TF.FilePolarity,Positive*%
%TF.FileFunction,Drawing*%
%TF.Part,Single*%
G01*
G75*
%TA.AperFunction,NonConductor*%
%ADD60C,0.005000*%
%ADD91C,0.006667*%
D60*
X7805000Y3890000D02*
Y3930000D01*
X7845000D01*
Y3890000D01*
X7805000D01*
X7705000D02*
Y3930000D01*
X7745000D01*
Y3890000D01*
X7705000D01*
X7605000D02*
Y3930000D01*
X7645000D01*
Y3890000D01*
X7605000D01*
X7505000D02*
Y3930000D01*
X7545000D01*
Y3890000D01*
X7505000D01*
X7405000D02*
Y3930000D01*
X7445000D01*
Y3890000D01*
X7405000D01*
X7305000D02*
Y3930000D01*
X7345000D01*
Y3890000D01*
X7305000D01*
X7205000D02*
Y3930000D01*
X7245000D01*
Y3890000D01*
X7205000D01*
X7105000D02*
Y3930000D01*
X7145000D01*
Y3890000D01*
X7105000D01*
X7005000D02*
Y3930000D01*
X7045000D01*
Y3890000D01*
X7005000D01*
X6905000D02*
Y3930000D01*
X6945000D01*
Y3890000D01*
X6905000D01*
X6805000D02*
Y3930000D01*
X6845000D01*
Y3890000D01*
X6805000D01*
X6705000D02*
Y3930000D01*
X6745000D01*
Y3890000D01*
X6705000D01*
X6605000D02*
Y3930000D01*
X6645000D01*
Y3890000D01*
X6605000D01*
X7805000Y2610000D02*
Y2650000D01*
X7845000D01*
Y2610000D01*
X7805000D01*
X7705000D02*
Y2650000D01*
X7745000D01*
Y2610000D01*
X7705000D01*
X7605000D02*
Y2650000D01*
X7645000D01*
Y2610000D01*
X7605000D01*
X7505000D02*
Y2650000D01*
X7545000D01*
Y2610000D01*
X7505000D01*
X7405000D02*
Y2650000D01*
X7445000D01*
Y2610000D01*
X7405000D01*
X7305000D02*
Y2650000D01*
X7345000D01*
Y2610000D01*
X7305000D01*
X7205000D02*
Y2650000D01*
X7245000D01*
Y2610000D01*
X7205000D01*
X7105000D02*
Y2650000D01*
X7145000D01*
Y2610000D01*
X7105000D01*
X7005000D02*
Y2650000D01*
X7045000D01*
Y2610000D01*
X7005000D01*
X6905000D02*
Y2650000D01*
X6945000D01*
Y2610000D01*
X6905000D01*
X6805000D02*
Y2650000D01*
X6845000D01*
Y2610000D01*
X6805000D01*
X6705000D02*
Y2650000D01*
X6745000D01*
Y2610000D01*
X6705000D01*
X6605000D02*
Y2650000D01*
X6645000D01*
Y2610000D01*
X6605000D01*
Y4790000D02*
Y4830000D01*
X6645000D01*
Y4790000D01*
X6605000D01*
X6705000D02*
Y4830000D01*
X6745000D01*
Y4790000D01*
X6705000D01*
X6805000D02*
Y4830000D01*
X6845000D01*
Y4790000D01*
X6805000D01*
X6905000D02*
Y4830000D01*
X6945000D01*
Y4790000D01*
X6905000D01*
X7005000D02*
Y4830000D01*
X7045000D01*
Y4790000D01*
X7005000D01*
X7105000D02*
Y4830000D01*
X7145000D01*
Y4790000D01*
X7105000D01*
X7205000D02*
Y4830000D01*
X7245000D01*
Y4790000D01*
X7205000D01*
X7305000D02*
Y4830000D01*
X7345000D01*
Y4790000D01*
X7305000D01*
X7405000D02*
Y4830000D01*
X7445000D01*
Y4790000D01*
X7405000D01*
X7505000D02*
Y4830000D01*
X7545000D01*
Y4790000D01*
X7505000D01*
X7605000D02*
Y4830000D01*
X7645000D01*
Y4790000D01*
X7605000D01*
Y2255000D02*
Y2295000D01*
X7645000D01*
Y2255000D01*
X7605000D01*
X7505000D02*
Y2295000D01*
X7545000D01*
Y2255000D01*
X7505000D01*
X7405000D02*
Y2295000D01*
X7445000D01*
Y2255000D01*
X7405000D01*
X7305000D02*
Y2295000D01*
X7345000D01*
Y2255000D01*
X7305000D01*
X7205000D02*
Y2295000D01*
X7245000D01*
Y2255000D01*
X7205000D01*
X7105000D02*
Y2295000D01*
X7145000D01*
Y2255000D01*
X7105000D01*
X7005000D02*
Y2295000D01*
X7045000D01*
Y2255000D01*
X7005000D01*
X6905000D02*
Y2295000D01*
X6945000D01*
Y2255000D01*
X6905000D01*
X6805000D02*
Y2295000D01*
X6845000D01*
Y2255000D01*
X6805000D01*
X6705000D02*
Y2295000D01*
X6745000D01*
Y2255000D01*
X6705000D01*
X6605000D02*
Y2295000D01*
X6645000D01*
Y2255000D01*
X6605000D01*
X4150000Y1131260D02*
X4130000Y1171260D01*
X4170000D01*
X4150000Y1131260D01*
Y1210000D02*
X4130000Y1250000D01*
X4170000D01*
X4150000Y1210000D01*
Y1288740D02*
X4130000Y1328740D01*
X4170000D01*
X4150000Y1288740D01*
Y1367480D02*
X4130000Y1407480D01*
X4170000D01*
X4150000Y1367480D01*
X490000Y2040000D02*
X500000Y2050000D01*
X510000D01*
X500000Y2060000D01*
X510000Y2070000D01*
X500000D01*
X490000Y2080000D01*
X480000Y2070000D01*
X470000D01*
X480000Y2060000D01*
X470000Y2050000D01*
X480000D01*
X490000Y2040000D01*
Y2140000D02*
X500000Y2150000D01*
X510000D01*
X500000Y2160000D01*
X510000Y2170000D01*
X500000D01*
X490000Y2180000D01*
X480000Y2170000D01*
X470000D01*
X480000Y2160000D01*
X470000Y2150000D01*
X480000D01*
X490000Y2140000D01*
X590000Y2040000D02*
X600000Y2050000D01*
X610000D01*
X600000Y2060000D01*
X610000Y2070000D01*
X600000D01*
X590000Y2080000D01*
X580000Y2070000D01*
X570000D01*
X580000Y2060000D01*
X570000Y2050000D01*
X580000D01*
X590000Y2040000D01*
Y2140000D02*
X600000Y2150000D01*
X610000D01*
X600000Y2160000D01*
X610000Y2170000D01*
X600000D01*
X590000Y2180000D01*
X580000Y2170000D01*
X570000D01*
X580000Y2160000D01*
X570000Y2150000D01*
X580000D01*
X590000Y2140000D01*
X690000Y2040000D02*
X700000Y2050000D01*
X710000D01*
X700000Y2060000D01*
X710000Y2070000D01*
X700000D01*
X690000Y2080000D01*
X680000Y2070000D01*
X670000D01*
X680000Y2060000D01*
X670000Y2050000D01*
X680000D01*
X690000Y2040000D01*
Y2140000D02*
X700000Y2150000D01*
X710000D01*
X700000Y2160000D01*
X710000Y2170000D01*
X700000D01*
X690000Y2180000D01*
X680000Y2170000D01*
X670000D01*
X680000Y2160000D01*
X670000Y2150000D01*
X680000D01*
X690000Y2140000D01*
X790000Y2040000D02*
X800000Y2050000D01*
X810000D01*
X800000Y2060000D01*
X810000Y2070000D01*
X800000D01*
X790000Y2080000D01*
X780000Y2070000D01*
X770000D01*
X780000Y2060000D01*
X770000Y2050000D01*
X780000D01*
X790000Y2040000D01*
Y2140000D02*
X800000Y2150000D01*
X810000D01*
X800000Y2160000D01*
X810000Y2170000D01*
X800000D01*
X790000Y2180000D01*
X780000Y2170000D01*
X770000D01*
X780000Y2160000D01*
X770000Y2150000D01*
X780000D01*
X790000Y2140000D01*
X890000Y2040000D02*
X900000Y2050000D01*
X910000D01*
X900000Y2060000D01*
X910000Y2070000D01*
X900000D01*
X890000Y2080000D01*
X880000Y2070000D01*
X870000D01*
X880000Y2060000D01*
X870000Y2050000D01*
X880000D01*
X890000Y2040000D01*
Y2140000D02*
X900000Y2150000D01*
X910000D01*
X900000Y2160000D01*
X910000Y2170000D01*
X900000D01*
X890000Y2180000D01*
X880000Y2170000D01*
X870000D01*
X880000Y2160000D01*
X870000Y2150000D01*
X880000D01*
X890000Y2140000D01*
X990000Y2040000D02*
X1000000Y2050000D01*
X1010000D01*
X1000000Y2060000D01*
X1010000Y2070000D01*
X1000000D01*
X990000Y2080000D01*
X980000Y2070000D01*
X970000D01*
X980000Y2060000D01*
X970000Y2050000D01*
X980000D01*
X990000Y2040000D01*
Y2140000D02*
X1000000Y2150000D01*
X1010000D01*
X1000000Y2160000D01*
X1010000Y2170000D01*
X1000000D01*
X990000Y2180000D01*
X980000Y2170000D01*
X970000D01*
X980000Y2160000D01*
X970000Y2150000D01*
X980000D01*
X990000Y2140000D01*
X1090000Y2040000D02*
X1100000Y2050000D01*
X1110000D01*
X1100000Y2060000D01*
X1110000Y2070000D01*
X1100000D01*
X1090000Y2080000D01*
X1080000Y2070000D01*
X1070000D01*
X1080000Y2060000D01*
X1070000Y2050000D01*
X1080000D01*
X1090000Y2040000D01*
Y2140000D02*
X1100000Y2150000D01*
X1110000D01*
X1100000Y2160000D01*
X1110000Y2170000D01*
X1100000D01*
X1090000Y2180000D01*
X1080000Y2170000D01*
X1070000D01*
X1080000Y2160000D01*
X1070000Y2150000D01*
X1080000D01*
X1090000Y2140000D01*
X1190000Y2040000D02*
X1200000Y2050000D01*
X1210000D01*
X1200000Y2060000D01*
X1210000Y2070000D01*
X1200000D01*
X1190000Y2080000D01*
X1180000Y2070000D01*
X1170000D01*
X1180000Y2060000D01*
X1170000Y2050000D01*
X1180000D01*
X1190000Y2040000D01*
Y2140000D02*
X1200000Y2150000D01*
X1210000D01*
X1200000Y2160000D01*
X1210000Y2170000D01*
X1200000D01*
X1190000Y2180000D01*
X1180000Y2170000D01*
X1170000D01*
X1180000Y2160000D01*
X1170000Y2150000D01*
X1180000D01*
X1190000Y2140000D01*
X1290000Y2040000D02*
X1300000Y2050000D01*
X1310000D01*
X1300000Y2060000D01*
X1310000Y2070000D01*
X1300000D01*
X1290000Y2080000D01*
X1280000Y2070000D01*
X1270000D01*
X1280000Y2060000D01*
X1270000Y2050000D01*
X1280000D01*
X1290000Y2040000D01*
Y2140000D02*
X1300000Y2150000D01*
X1310000D01*
X1300000Y2160000D01*
X1310000Y2170000D01*
X1300000D01*
X1290000Y2180000D01*
X1280000Y2170000D01*
X1270000D01*
X1280000Y2160000D01*
X1270000Y2150000D01*
X1280000D01*
X1290000Y2140000D01*
X1390000Y2040000D02*
X1400000Y2050000D01*
X1410000D01*
X1400000Y2060000D01*
X1410000Y2070000D01*
X1400000D01*
X1390000Y2080000D01*
X1380000Y2070000D01*
X1370000D01*
X1380000Y2060000D01*
X1370000Y2050000D01*
X1380000D01*
X1390000Y2040000D01*
Y2140000D02*
X1400000Y2150000D01*
X1410000D01*
X1400000Y2160000D01*
X1410000Y2170000D01*
X1400000D01*
X1390000Y2180000D01*
X1380000Y2170000D01*
X1370000D01*
X1380000Y2160000D01*
X1370000Y2150000D01*
X1380000D01*
X1390000Y2140000D01*
X1490000Y2040000D02*
X1500000Y2050000D01*
X1510000D01*
X1500000Y2060000D01*
X1510000Y2070000D01*
X1500000D01*
X1490000Y2080000D01*
X1480000Y2070000D01*
X1470000D01*
X1480000Y2060000D01*
X1470000Y2050000D01*
X1480000D01*
X1490000Y2040000D01*
Y2140000D02*
X1500000Y2150000D01*
X1510000D01*
X1500000Y2160000D01*
X1510000Y2170000D01*
X1500000D01*
X1490000Y2180000D01*
X1480000Y2170000D01*
X1470000D01*
X1480000Y2160000D01*
X1470000Y2150000D01*
X1480000D01*
X1490000Y2140000D01*
X1590000Y2040000D02*
X1600000Y2050000D01*
X1610000D01*
X1600000Y2060000D01*
X1610000Y2070000D01*
X1600000D01*
X1590000Y2080000D01*
X1580000Y2070000D01*
X1570000D01*
X1580000Y2060000D01*
X1570000Y2050000D01*
X1580000D01*
X1590000Y2040000D01*
Y2140000D02*
X1600000Y2150000D01*
X1610000D01*
X1600000Y2160000D01*
X1610000Y2170000D01*
X1600000D01*
X1590000Y2180000D01*
X1580000Y2170000D01*
X1570000D01*
X1580000Y2160000D01*
X1570000Y2150000D01*
X1580000D01*
X1590000Y2140000D01*
X1690000Y2040000D02*
X1700000Y2050000D01*
X1710000D01*
X1700000Y2060000D01*
X1710000Y2070000D01*
X1700000D01*
X1690000Y2080000D01*
X1680000Y2070000D01*
X1670000D01*
X1680000Y2060000D01*
X1670000Y2050000D01*
X1680000D01*
X1690000Y2040000D01*
Y2140000D02*
X1700000Y2150000D01*
X1710000D01*
X1700000Y2160000D01*
X1710000Y2170000D01*
X1700000D01*
X1690000Y2180000D01*
X1680000Y2170000D01*
X1670000D01*
X1680000Y2160000D01*
X1670000Y2150000D01*
X1680000D01*
X1690000Y2140000D01*
X1790000Y2040000D02*
X1800000Y2050000D01*
X1810000D01*
X1800000Y2060000D01*
X1810000Y2070000D01*
X1800000D01*
X1790000Y2080000D01*
X1780000Y2070000D01*
X1770000D01*
X1780000Y2060000D01*
X1770000Y2050000D01*
X1780000D01*
X1790000Y2040000D01*
Y2140000D02*
X1800000Y2150000D01*
X1810000D01*
X1800000Y2160000D01*
X1810000Y2170000D01*
X1800000D01*
X1790000Y2180000D01*
X1780000Y2170000D01*
X1770000D01*
X1780000Y2160000D01*
X1770000Y2150000D01*
X1780000D01*
X1790000Y2140000D01*
X1890000Y2040000D02*
X1900000Y2050000D01*
X1910000D01*
X1900000Y2060000D01*
X1910000Y2070000D01*
X1900000D01*
X1890000Y2080000D01*
X1880000Y2070000D01*
X1870000D01*
X1880000Y2060000D01*
X1870000Y2050000D01*
X1880000D01*
X1890000Y2040000D01*
Y2140000D02*
X1900000Y2150000D01*
X1910000D01*
X1900000Y2160000D01*
X1910000Y2170000D01*
X1900000D01*
X1890000Y2180000D01*
X1880000Y2170000D01*
X1870000D01*
X1880000Y2160000D01*
X1870000Y2150000D01*
X1880000D01*
X1890000Y2140000D01*
X1990000Y2040000D02*
X2000000Y2050000D01*
X2010000D01*
X2000000Y2060000D01*
X2010000Y2070000D01*
X2000000D01*
X1990000Y2080000D01*
X1980000Y2070000D01*
X1970000D01*
X1980000Y2060000D01*
X1970000Y2050000D01*
X1980000D01*
X1990000Y2040000D01*
Y2140000D02*
X2000000Y2150000D01*
X2010000D01*
X2000000Y2160000D01*
X2010000Y2170000D01*
X2000000D01*
X1990000Y2180000D01*
X1980000Y2170000D01*
X1970000D01*
X1980000Y2160000D01*
X1970000Y2150000D01*
X1980000D01*
X1990000Y2140000D01*
X2090000Y2040000D02*
X2100000Y2050000D01*
X2110000D01*
X2100000Y2060000D01*
X2110000Y2070000D01*
X2100000D01*
X2090000Y2080000D01*
X2080000Y2070000D01*
X2070000D01*
X2080000Y2060000D01*
X2070000Y2050000D01*
X2080000D01*
X2090000Y2040000D01*
Y2140000D02*
X2100000Y2150000D01*
X2110000D01*
X2100000Y2160000D01*
X2110000Y2170000D01*
X2100000D01*
X2090000Y2180000D01*
X2080000Y2170000D01*
X2070000D01*
X2080000Y2160000D01*
X2070000Y2150000D01*
X2080000D01*
X2090000Y2140000D01*
X2190000Y2040000D02*
X2200000Y2050000D01*
X2210000D01*
X2200000Y2060000D01*
X2210000Y2070000D01*
X2200000D01*
X2190000Y2080000D01*
X2180000Y2070000D01*
X2170000D01*
X2180000Y2060000D01*
X2170000Y2050000D01*
X2180000D01*
X2190000Y2040000D01*
Y2140000D02*
X2200000Y2150000D01*
X2210000D01*
X2200000Y2160000D01*
X2210000Y2170000D01*
X2200000D01*
X2190000Y2180000D01*
X2180000Y2170000D01*
X2170000D01*
X2180000Y2160000D01*
X2170000Y2150000D01*
X2180000D01*
X2190000Y2140000D01*
X2290000Y2040000D02*
X2300000Y2050000D01*
X2310000D01*
X2300000Y2060000D01*
X2310000Y2070000D01*
X2300000D01*
X2290000Y2080000D01*
X2280000Y2070000D01*
X2270000D01*
X2280000Y2060000D01*
X2270000Y2050000D01*
X2280000D01*
X2290000Y2040000D01*
Y2140000D02*
X2300000Y2150000D01*
X2310000D01*
X2300000Y2160000D01*
X2310000Y2170000D01*
X2300000D01*
X2290000Y2180000D01*
X2280000Y2170000D01*
X2270000D01*
X2280000Y2160000D01*
X2270000Y2150000D01*
X2280000D01*
X2290000Y2140000D01*
X2390000Y2040000D02*
X2400000Y2050000D01*
X2410000D01*
X2400000Y2060000D01*
X2410000Y2070000D01*
X2400000D01*
X2390000Y2080000D01*
X2380000Y2070000D01*
X2370000D01*
X2380000Y2060000D01*
X2370000Y2050000D01*
X2380000D01*
X2390000Y2040000D01*
Y2140000D02*
X2400000Y2150000D01*
X2410000D01*
X2400000Y2160000D01*
X2410000Y2170000D01*
X2400000D01*
X2390000Y2180000D01*
X2380000Y2170000D01*
X2370000D01*
X2380000Y2160000D01*
X2370000Y2150000D01*
X2380000D01*
X2390000Y2140000D01*
X2490000Y2040000D02*
X2500000Y2050000D01*
X2510000D01*
X2500000Y2060000D01*
X2510000Y2070000D01*
X2500000D01*
X2490000Y2080000D01*
X2480000Y2070000D01*
X2470000D01*
X2480000Y2060000D01*
X2470000Y2050000D01*
X2480000D01*
X2490000Y2040000D01*
Y2140000D02*
X2500000Y2150000D01*
X2510000D01*
X2500000Y2160000D01*
X2510000Y2170000D01*
X2500000D01*
X2490000Y2180000D01*
X2480000Y2170000D01*
X2470000D01*
X2480000Y2160000D01*
X2470000Y2150000D01*
X2480000D01*
X2490000Y2140000D01*
X2590000Y2040000D02*
X2600000Y2050000D01*
X2610000D01*
X2600000Y2060000D01*
X2610000Y2070000D01*
X2600000D01*
X2590000Y2080000D01*
X2580000Y2070000D01*
X2570000D01*
X2580000Y2060000D01*
X2570000Y2050000D01*
X2580000D01*
X2590000Y2040000D01*
Y2140000D02*
X2600000Y2150000D01*
X2610000D01*
X2600000Y2160000D01*
X2610000Y2170000D01*
X2600000D01*
X2590000Y2180000D01*
X2580000Y2170000D01*
X2570000D01*
X2580000Y2160000D01*
X2570000Y2150000D01*
X2580000D01*
X2590000Y2140000D01*
X2690000Y2040000D02*
X2700000Y2050000D01*
X2710000D01*
X2700000Y2060000D01*
X2710000Y2070000D01*
X2700000D01*
X2690000Y2080000D01*
X2680000Y2070000D01*
X2670000D01*
X2680000Y2060000D01*
X2670000Y2050000D01*
X2680000D01*
X2690000Y2040000D01*
Y2140000D02*
X2700000Y2150000D01*
X2710000D01*
X2700000Y2160000D01*
X2710000Y2170000D01*
X2700000D01*
X2690000Y2180000D01*
X2680000Y2170000D01*
X2670000D01*
X2680000Y2160000D01*
X2670000Y2150000D01*
X2680000D01*
X2690000Y2140000D01*
X2790000Y2040000D02*
X2800000Y2050000D01*
X2810000D01*
X2800000Y2060000D01*
X2810000Y2070000D01*
X2800000D01*
X2790000Y2080000D01*
X2780000Y2070000D01*
X2770000D01*
X2780000Y2060000D01*
X2770000Y2050000D01*
X2780000D01*
X2790000Y2040000D01*
Y2140000D02*
X2800000Y2150000D01*
X2810000D01*
X2800000Y2160000D01*
X2810000Y2170000D01*
X2800000D01*
X2790000Y2180000D01*
X2780000Y2170000D01*
X2770000D01*
X2780000Y2160000D01*
X2770000Y2150000D01*
X2780000D01*
X2790000Y2140000D01*
X2890000Y2040000D02*
X2900000Y2050000D01*
X2910000D01*
X2900000Y2060000D01*
X2910000Y2070000D01*
X2900000D01*
X2890000Y2080000D01*
X2880000Y2070000D01*
X2870000D01*
X2880000Y2060000D01*
X2870000Y2050000D01*
X2880000D01*
X2890000Y2040000D01*
Y2140000D02*
X2900000Y2150000D01*
X2910000D01*
X2900000Y2160000D01*
X2910000Y2170000D01*
X2900000D01*
X2890000Y2180000D01*
X2880000Y2170000D01*
X2870000D01*
X2880000Y2160000D01*
X2870000Y2150000D01*
X2880000D01*
X2890000Y2140000D01*
X490000Y4040000D02*
X500000Y4050000D01*
X510000D01*
X500000Y4060000D01*
X510000Y4070000D01*
X500000D01*
X490000Y4080000D01*
X480000Y4070000D01*
X470000D01*
X480000Y4060000D01*
X470000Y4050000D01*
X480000D01*
X490000Y4040000D01*
Y4140000D02*
X500000Y4150000D01*
X510000D01*
X500000Y4160000D01*
X510000Y4170000D01*
X500000D01*
X490000Y4180000D01*
X480000Y4170000D01*
X470000D01*
X480000Y4160000D01*
X470000Y4150000D01*
X480000D01*
X490000Y4140000D01*
X590000Y4040000D02*
X600000Y4050000D01*
X610000D01*
X600000Y4060000D01*
X610000Y4070000D01*
X600000D01*
X590000Y4080000D01*
X580000Y4070000D01*
X570000D01*
X580000Y4060000D01*
X570000Y4050000D01*
X580000D01*
X590000Y4040000D01*
Y4140000D02*
X600000Y4150000D01*
X610000D01*
X600000Y4160000D01*
X610000Y4170000D01*
X600000D01*
X590000Y4180000D01*
X580000Y4170000D01*
X570000D01*
X580000Y4160000D01*
X570000Y4150000D01*
X580000D01*
X590000Y4140000D01*
X690000Y4040000D02*
X700000Y4050000D01*
X710000D01*
X700000Y4060000D01*
X710000Y4070000D01*
X700000D01*
X690000Y4080000D01*
X680000Y4070000D01*
X670000D01*
X680000Y4060000D01*
X670000Y4050000D01*
X680000D01*
X690000Y4040000D01*
Y4140000D02*
X700000Y4150000D01*
X710000D01*
X700000Y4160000D01*
X710000Y4170000D01*
X700000D01*
X690000Y4180000D01*
X680000Y4170000D01*
X670000D01*
X680000Y4160000D01*
X670000Y4150000D01*
X680000D01*
X690000Y4140000D01*
X790000Y4040000D02*
X800000Y4050000D01*
X810000D01*
X800000Y4060000D01*
X810000Y4070000D01*
X800000D01*
X790000Y4080000D01*
X780000Y4070000D01*
X770000D01*
X780000Y4060000D01*
X770000Y4050000D01*
X780000D01*
X790000Y4040000D01*
Y4140000D02*
X800000Y4150000D01*
X810000D01*
X800000Y4160000D01*
X810000Y4170000D01*
X800000D01*
X790000Y4180000D01*
X780000Y4170000D01*
X770000D01*
X780000Y4160000D01*
X770000Y4150000D01*
X780000D01*
X790000Y4140000D01*
X890000Y4040000D02*
X900000Y4050000D01*
X910000D01*
X900000Y4060000D01*
X910000Y4070000D01*
X900000D01*
X890000Y4080000D01*
X880000Y4070000D01*
X870000D01*
X880000Y4060000D01*
X870000Y4050000D01*
X880000D01*
X890000Y4040000D01*
Y4140000D02*
X900000Y4150000D01*
X910000D01*
X900000Y4160000D01*
X910000Y4170000D01*
X900000D01*
X890000Y4180000D01*
X880000Y4170000D01*
X870000D01*
X880000Y4160000D01*
X870000Y4150000D01*
X880000D01*
X890000Y4140000D01*
X990000Y4040000D02*
X1000000Y4050000D01*
X1010000D01*
X1000000Y4060000D01*
X1010000Y4070000D01*
X1000000D01*
X990000Y4080000D01*
X980000Y4070000D01*
X970000D01*
X980000Y4060000D01*
X970000Y4050000D01*
X980000D01*
X990000Y4040000D01*
Y4140000D02*
X1000000Y4150000D01*
X1010000D01*
X1000000Y4160000D01*
X1010000Y4170000D01*
X1000000D01*
X990000Y4180000D01*
X980000Y4170000D01*
X970000D01*
X980000Y4160000D01*
X970000Y4150000D01*
X980000D01*
X990000Y4140000D01*
X1090000Y4040000D02*
X1100000Y4050000D01*
X1110000D01*
X1100000Y4060000D01*
X1110000Y4070000D01*
X1100000D01*
X1090000Y4080000D01*
X1080000Y4070000D01*
X1070000D01*
X1080000Y4060000D01*
X1070000Y4050000D01*
X1080000D01*
X1090000Y4040000D01*
Y4140000D02*
X1100000Y4150000D01*
X1110000D01*
X1100000Y4160000D01*
X1110000Y4170000D01*
X1100000D01*
X1090000Y4180000D01*
X1080000Y4170000D01*
X1070000D01*
X1080000Y4160000D01*
X1070000Y4150000D01*
X1080000D01*
X1090000Y4140000D01*
X1190000Y4040000D02*
X1200000Y4050000D01*
X1210000D01*
X1200000Y4060000D01*
X1210000Y4070000D01*
X1200000D01*
X1190000Y4080000D01*
X1180000Y4070000D01*
X1170000D01*
X1180000Y4060000D01*
X1170000Y4050000D01*
X1180000D01*
X1190000Y4040000D01*
Y4140000D02*
X1200000Y4150000D01*
X1210000D01*
X1200000Y4160000D01*
X1210000Y4170000D01*
X1200000D01*
X1190000Y4180000D01*
X1180000Y4170000D01*
X1170000D01*
X1180000Y4160000D01*
X1170000Y4150000D01*
X1180000D01*
X1190000Y4140000D01*
X1290000Y4040000D02*
X1300000Y4050000D01*
X1310000D01*
X1300000Y4060000D01*
X1310000Y4070000D01*
X1300000D01*
X1290000Y4080000D01*
X1280000Y4070000D01*
X1270000D01*
X1280000Y4060000D01*
X1270000Y4050000D01*
X1280000D01*
X1290000Y4040000D01*
Y4140000D02*
X1300000Y4150000D01*
X1310000D01*
X1300000Y4160000D01*
X1310000Y4170000D01*
X1300000D01*
X1290000Y4180000D01*
X1280000Y4170000D01*
X1270000D01*
X1280000Y4160000D01*
X1270000Y4150000D01*
X1280000D01*
X1290000Y4140000D01*
X1390000Y4040000D02*
X1400000Y4050000D01*
X1410000D01*
X1400000Y4060000D01*
X1410000Y4070000D01*
X1400000D01*
X1390000Y4080000D01*
X1380000Y4070000D01*
X1370000D01*
X1380000Y4060000D01*
X1370000Y4050000D01*
X1380000D01*
X1390000Y4040000D01*
Y4140000D02*
X1400000Y4150000D01*
X1410000D01*
X1400000Y4160000D01*
X1410000Y4170000D01*
X1400000D01*
X1390000Y4180000D01*
X1380000Y4170000D01*
X1370000D01*
X1380000Y4160000D01*
X1370000Y4150000D01*
X1380000D01*
X1390000Y4140000D01*
X1490000Y4040000D02*
X1500000Y4050000D01*
X1510000D01*
X1500000Y4060000D01*
X1510000Y4070000D01*
X1500000D01*
X1490000Y4080000D01*
X1480000Y4070000D01*
X1470000D01*
X1480000Y4060000D01*
X1470000Y4050000D01*
X1480000D01*
X1490000Y4040000D01*
Y4140000D02*
X1500000Y4150000D01*
X1510000D01*
X1500000Y4160000D01*
X1510000Y4170000D01*
X1500000D01*
X1490000Y4180000D01*
X1480000Y4170000D01*
X1470000D01*
X1480000Y4160000D01*
X1470000Y4150000D01*
X1480000D01*
X1490000Y4140000D01*
X1590000Y4040000D02*
X1600000Y4050000D01*
X1610000D01*
X1600000Y4060000D01*
X1610000Y4070000D01*
X1600000D01*
X1590000Y4080000D01*
X1580000Y4070000D01*
X1570000D01*
X1580000Y4060000D01*
X1570000Y4050000D01*
X1580000D01*
X1590000Y4040000D01*
Y4140000D02*
X1600000Y4150000D01*
X1610000D01*
X1600000Y4160000D01*
X1610000Y4170000D01*
X1600000D01*
X1590000Y4180000D01*
X1580000Y4170000D01*
X1570000D01*
X1580000Y4160000D01*
X1570000Y4150000D01*
X1580000D01*
X1590000Y4140000D01*
X1690000Y4040000D02*
X1700000Y4050000D01*
X1710000D01*
X1700000Y4060000D01*
X1710000Y4070000D01*
X1700000D01*
X1690000Y4080000D01*
X1680000Y4070000D01*
X1670000D01*
X1680000Y4060000D01*
X1670000Y4050000D01*
X1680000D01*
X1690000Y4040000D01*
Y4140000D02*
X1700000Y4150000D01*
X1710000D01*
X1700000Y4160000D01*
X1710000Y4170000D01*
X1700000D01*
X1690000Y4180000D01*
X1680000Y4170000D01*
X1670000D01*
X1680000Y4160000D01*
X1670000Y4150000D01*
X1680000D01*
X1690000Y4140000D01*
X1790000Y4040000D02*
X1800000Y4050000D01*
X1810000D01*
X1800000Y4060000D01*
X1810000Y4070000D01*
X1800000D01*
X1790000Y4080000D01*
X1780000Y4070000D01*
X1770000D01*
X1780000Y4060000D01*
X1770000Y4050000D01*
X1780000D01*
X1790000Y4040000D01*
Y4140000D02*
X1800000Y4150000D01*
X1810000D01*
X1800000Y4160000D01*
X1810000Y4170000D01*
X1800000D01*
X1790000Y4180000D01*
X1780000Y4170000D01*
X1770000D01*
X1780000Y4160000D01*
X1770000Y4150000D01*
X1780000D01*
X1790000Y4140000D01*
X1890000Y4040000D02*
X1900000Y4050000D01*
X1910000D01*
X1900000Y4060000D01*
X1910000Y4070000D01*
X1900000D01*
X1890000Y4080000D01*
X1880000Y4070000D01*
X1870000D01*
X1880000Y4060000D01*
X1870000Y4050000D01*
X1880000D01*
X1890000Y4040000D01*
Y4140000D02*
X1900000Y4150000D01*
X1910000D01*
X1900000Y4160000D01*
X1910000Y4170000D01*
X1900000D01*
X1890000Y4180000D01*
X1880000Y4170000D01*
X1870000D01*
X1880000Y4160000D01*
X1870000Y4150000D01*
X1880000D01*
X1890000Y4140000D01*
X1990000Y4040000D02*
X2000000Y4050000D01*
X2010000D01*
X2000000Y4060000D01*
X2010000Y4070000D01*
X2000000D01*
X1990000Y4080000D01*
X1980000Y4070000D01*
X1970000D01*
X1980000Y4060000D01*
X1970000Y4050000D01*
X1980000D01*
X1990000Y4040000D01*
Y4140000D02*
X2000000Y4150000D01*
X2010000D01*
X2000000Y4160000D01*
X2010000Y4170000D01*
X2000000D01*
X1990000Y4180000D01*
X1980000Y4170000D01*
X1970000D01*
X1980000Y4160000D01*
X1970000Y4150000D01*
X1980000D01*
X1990000Y4140000D01*
X2090000Y4040000D02*
X2100000Y4050000D01*
X2110000D01*
X2100000Y4060000D01*
X2110000Y4070000D01*
X2100000D01*
X2090000Y4080000D01*
X2080000Y4070000D01*
X2070000D01*
X2080000Y4060000D01*
X2070000Y4050000D01*
X2080000D01*
X2090000Y4040000D01*
Y4140000D02*
X2100000Y4150000D01*
X2110000D01*
X2100000Y4160000D01*
X2110000Y4170000D01*
X2100000D01*
X2090000Y4180000D01*
X2080000Y4170000D01*
X2070000D01*
X2080000Y4160000D01*
X2070000Y4150000D01*
X2080000D01*
X2090000Y4140000D01*
X2190000Y4040000D02*
X2200000Y4050000D01*
X2210000D01*
X2200000Y4060000D01*
X2210000Y4070000D01*
X2200000D01*
X2190000Y4080000D01*
X2180000Y4070000D01*
X2170000D01*
X2180000Y4060000D01*
X2170000Y4050000D01*
X2180000D01*
X2190000Y4040000D01*
Y4140000D02*
X2200000Y4150000D01*
X2210000D01*
X2200000Y4160000D01*
X2210000Y4170000D01*
X2200000D01*
X2190000Y4180000D01*
X2180000Y4170000D01*
X2170000D01*
X2180000Y4160000D01*
X2170000Y4150000D01*
X2180000D01*
X2190000Y4140000D01*
X2290000Y4040000D02*
X2300000Y4050000D01*
X2310000D01*
X2300000Y4060000D01*
X2310000Y4070000D01*
X2300000D01*
X2290000Y4080000D01*
X2280000Y4070000D01*
X2270000D01*
X2280000Y4060000D01*
X2270000Y4050000D01*
X2280000D01*
X2290000Y4040000D01*
Y4140000D02*
X2300000Y4150000D01*
X2310000D01*
X2300000Y4160000D01*
X2310000Y4170000D01*
X2300000D01*
X2290000Y4180000D01*
X2280000Y4170000D01*
X2270000D01*
X2280000Y4160000D01*
X2270000Y4150000D01*
X2280000D01*
X2290000Y4140000D01*
X2390000Y4040000D02*
X2400000Y4050000D01*
X2410000D01*
X2400000Y4060000D01*
X2410000Y4070000D01*
X2400000D01*
X2390000Y4080000D01*
X2380000Y4070000D01*
X2370000D01*
X2380000Y4060000D01*
X2370000Y4050000D01*
X2380000D01*
X2390000Y4040000D01*
Y4140000D02*
X2400000Y4150000D01*
X2410000D01*
X2400000Y4160000D01*
X2410000Y4170000D01*
X2400000D01*
X2390000Y4180000D01*
X2380000Y4170000D01*
X2370000D01*
X2380000Y4160000D01*
X2370000Y4150000D01*
X2380000D01*
X2390000Y4140000D01*
X2490000Y4040000D02*
X2500000Y4050000D01*
X2510000D01*
X2500000Y4060000D01*
X2510000Y4070000D01*
X2500000D01*
X2490000Y4080000D01*
X2480000Y4070000D01*
X2470000D01*
X2480000Y4060000D01*
X2470000Y4050000D01*
X2480000D01*
X2490000Y4040000D01*
Y4140000D02*
X2500000Y4150000D01*
X2510000D01*
X2500000Y4160000D01*
X2510000Y4170000D01*
X2500000D01*
X2490000Y4180000D01*
X2480000Y4170000D01*
X2470000D01*
X2480000Y4160000D01*
X2470000Y4150000D01*
X2480000D01*
X2490000Y4140000D01*
X2590000Y4040000D02*
X2600000Y4050000D01*
X2610000D01*
X2600000Y4060000D01*
X2610000Y4070000D01*
X2600000D01*
X2590000Y4080000D01*
X2580000Y4070000D01*
X2570000D01*
X2580000Y4060000D01*
X2570000Y4050000D01*
X2580000D01*
X2590000Y4040000D01*
Y4140000D02*
X2600000Y4150000D01*
X2610000D01*
X2600000Y4160000D01*
X2610000Y4170000D01*
X2600000D01*
X2590000Y4180000D01*
X2580000Y4170000D01*
X2570000D01*
X2580000Y4160000D01*
X2570000Y4150000D01*
X2580000D01*
X2590000Y4140000D01*
X2690000Y4040000D02*
X2700000Y4050000D01*
X2710000D01*
X2700000Y4060000D01*
X2710000Y4070000D01*
X2700000D01*
X2690000Y4080000D01*
X2680000Y4070000D01*
X2670000D01*
X2680000Y4060000D01*
X2670000Y4050000D01*
X2680000D01*
X2690000Y4040000D01*
Y4140000D02*
X2700000Y4150000D01*
X2710000D01*
X2700000Y4160000D01*
X2710000Y4170000D01*
X2700000D01*
X2690000Y4180000D01*
X2680000Y4170000D01*
X2670000D01*
X2680000Y4160000D01*
X2670000Y4150000D01*
X2680000D01*
X2690000Y4140000D01*
X2790000Y4040000D02*
X2800000Y4050000D01*
X2810000D01*
X2800000Y4060000D01*
X2810000Y4070000D01*
X2800000D01*
X2790000Y4080000D01*
X2780000Y4070000D01*
X2770000D01*
X2780000Y4060000D01*
X2770000Y4050000D01*
X2780000D01*
X2790000Y4040000D01*
Y4140000D02*
X2800000Y4150000D01*
X2810000D01*
X2800000Y4160000D01*
X2810000Y4170000D01*
X2800000D01*
X2790000Y4180000D01*
X2780000Y4170000D01*
X2770000D01*
X2780000Y4160000D01*
X2770000Y4150000D01*
X2780000D01*
X2790000Y4140000D01*
X2890000Y4040000D02*
X2900000Y4050000D01*
X2910000D01*
X2900000Y4060000D01*
X2910000Y4070000D01*
X2900000D01*
X2890000Y4080000D01*
X2880000Y4070000D01*
X2870000D01*
X2880000Y4060000D01*
X2870000Y4050000D01*
X2880000D01*
X2890000Y4040000D01*
Y4140000D02*
X2900000Y4150000D01*
X2910000D01*
X2900000Y4160000D01*
X2910000Y4170000D01*
X2900000D01*
X2890000Y4180000D01*
X2880000Y4170000D01*
X2870000D01*
X2880000Y4160000D01*
X2870000Y4150000D01*
X2880000D01*
X2890000Y4140000D01*
X6165000Y1165000D02*
X6175000Y1185000D01*
X6165000Y1205000D01*
X6185000Y1195000D01*
X6205000Y1205000D01*
X6195000Y1185000D01*
X6205000Y1165000D01*
X6185000Y1175000D01*
X6165000Y1165000D01*
Y1265000D02*
X6175000Y1285000D01*
X6165000Y1305000D01*
X6185000Y1295000D01*
X6205000Y1305000D01*
X6195000Y1285000D01*
X6205000Y1265000D01*
X6185000Y1275000D01*
X6165000Y1265000D01*
X5895000Y1275000D02*
X5905000Y1295000D01*
X5895000Y1315000D01*
X5915000Y1305000D01*
X5935000Y1315000D01*
X5925000Y1295000D01*
X5935000Y1275000D01*
X5915000Y1285000D01*
X5895000Y1275000D01*
Y1175000D02*
X5905000Y1195000D01*
X5895000Y1215000D01*
X5915000Y1205000D01*
X5935000Y1215000D01*
X5925000Y1195000D01*
X5935000Y1175000D01*
X5915000Y1185000D01*
X5895000Y1175000D01*
X5595000Y1160000D02*
X5605000Y1180000D01*
X5595000Y1200000D01*
X5615000Y1190000D01*
X5635000Y1200000D01*
X5625000Y1180000D01*
X5635000Y1160000D01*
X5615000Y1170000D01*
X5595000Y1160000D01*
Y1260000D02*
X5605000Y1280000D01*
X5595000Y1300000D01*
X5615000Y1290000D01*
X5635000Y1300000D01*
X5625000Y1280000D01*
X5635000Y1260000D01*
X5615000Y1270000D01*
X5595000Y1260000D01*
X2985000Y5223702D02*
X2965000Y5263702D01*
X3005000D01*
X2985000Y5223702D01*
Y5144960D02*
X2965000Y5184960D01*
X3005000D01*
X2985000Y5144960D01*
Y5066220D02*
X2965000Y5106220D01*
X3005000D01*
X2985000Y5066220D01*
Y4987480D02*
X2965000Y5027480D01*
X3005000D01*
X2985000Y4987480D01*
Y4908740D02*
X2965000Y4948740D01*
X3005000D01*
X2985000Y4908740D01*
Y4830000D02*
X2965000Y4870000D01*
X3005000D01*
X2985000Y4830000D01*
Y4751260D02*
X2965000Y4791260D01*
X3005000D01*
X2985000Y4751260D01*
Y4672520D02*
X2965000Y4712520D01*
X3005000D01*
X2985000Y4672520D01*
X6160000Y4976260D02*
X6140000Y5016260D01*
X6180000D01*
X6160000Y4976260D01*
Y5055000D02*
X6140000Y5095000D01*
X6180000D01*
X6160000Y5055000D01*
Y5133740D02*
X6140000Y5173740D01*
X6180000D01*
X6160000Y5133740D01*
Y5212480D02*
X6140000Y5252480D01*
X6180000D01*
X6160000Y5212480D01*
X700000Y1440000D02*
Y1430000D01*
X720000D01*
Y1440000D01*
X730000D01*
Y1460000D01*
X720000D01*
Y1470000D01*
X700000D01*
Y1460000D01*
X690000D01*
Y1440000D01*
X700000D01*
Y1558110D02*
Y1548110D01*
X720000D01*
Y1558110D01*
X730000D01*
Y1578110D01*
X720000D01*
Y1588110D01*
X700000D01*
Y1578110D01*
X690000D01*
Y1558110D01*
X700000D01*
X612834Y1311890D02*
X622834D01*
X632834Y1321890D01*
X642834Y1311890D01*
X652834D01*
Y1321890D01*
X642834Y1331890D01*
X652834Y1341890D01*
Y1351890D01*
X642834D01*
X632834Y1341890D01*
X622834Y1351890D01*
X612834D01*
Y1341890D01*
X622834Y1331890D01*
X612834Y1321890D01*
Y1311890D01*
Y1666220D02*
X622834D01*
X632834Y1676220D01*
X642834Y1666220D01*
X652834D01*
Y1676220D01*
X642834Y1686220D01*
X652834Y1696220D01*
Y1706220D01*
X642834D01*
X632834Y1696220D01*
X622834Y1706220D01*
X612834D01*
Y1696220D01*
X622834Y1686220D01*
X612834Y1676220D01*
Y1666220D01*
X1130000Y4952480D02*
X1110000Y4992480D01*
X1150000D01*
X1130000Y4952480D01*
Y4873740D02*
X1110000Y4913740D01*
X1150000D01*
X1130000Y4873740D01*
Y4795000D02*
X1110000Y4835000D01*
X1150000D01*
X1130000Y4795000D01*
Y4716260D02*
X1110000Y4756260D01*
X1150000D01*
X1130000Y4716260D01*
X7605000Y3510000D02*
Y3550000D01*
X7645000D01*
Y3510000D01*
X7605000D01*
X7505000D02*
Y3550000D01*
X7545000D01*
Y3510000D01*
X7505000D01*
X7405000D02*
Y3550000D01*
X7445000D01*
Y3510000D01*
X7405000D01*
X7305000D02*
Y3550000D01*
X7345000D01*
Y3510000D01*
X7305000D01*
X7205000D02*
Y3550000D01*
X7245000D01*
Y3510000D01*
X7205000D01*
X7105000D02*
Y3550000D01*
X7145000D01*
Y3510000D01*
X7105000D01*
X7005000D02*
Y3550000D01*
X7045000D01*
Y3510000D01*
X7005000D01*
X6905000D02*
Y3550000D01*
X6945000D01*
Y3510000D01*
X6905000D01*
X6805000D02*
Y3550000D01*
X6845000D01*
Y3510000D01*
X6805000D01*
X6705000D02*
Y3550000D01*
X6745000D01*
Y3510000D01*
X6705000D01*
X6605000D02*
Y3550000D01*
X6645000D01*
Y3510000D01*
X6605000D01*
Y1355000D02*
Y1395000D01*
X6645000D01*
Y1355000D01*
X6605000D01*
X6705000D02*
Y1395000D01*
X6745000D01*
Y1355000D01*
X6705000D01*
X6805000D02*
Y1395000D01*
X6845000D01*
Y1355000D01*
X6805000D01*
X6905000D02*
Y1395000D01*
X6945000D01*
Y1355000D01*
X6905000D01*
X7005000D02*
Y1395000D01*
X7045000D01*
Y1355000D01*
X7005000D01*
X7105000D02*
Y1395000D01*
X7145000D01*
Y1355000D01*
X7105000D01*
X7205000D02*
Y1395000D01*
X7245000D01*
Y1355000D01*
X7205000D01*
X7305000D02*
Y1395000D01*
X7345000D01*
Y1355000D01*
X7305000D01*
X7405000D02*
Y1395000D01*
X7445000D01*
Y1355000D01*
X7405000D01*
X7505000D02*
Y1395000D01*
X7545000D01*
Y1355000D01*
X7505000D01*
X7605000D02*
Y1395000D01*
X7645000D01*
Y1355000D01*
X7605000D01*
X7705000D02*
Y1395000D01*
X7745000D01*
Y1355000D01*
X7705000D01*
X7805000D02*
Y1395000D01*
X7845000D01*
Y1355000D01*
X7805000D01*
X3565000Y4667520D02*
X3545000Y4707520D01*
X3585000D01*
X3565000Y4667520D01*
Y4746260D02*
X3545000Y4786260D01*
X3585000D01*
X3565000Y4746260D01*
Y4825000D02*
X3545000Y4865000D01*
X3585000D01*
X3565000Y4825000D01*
Y4903740D02*
X3545000Y4943740D01*
X3585000D01*
X3565000Y4903740D01*
Y4982480D02*
X3545000Y5022480D01*
X3585000D01*
X3565000Y4982480D01*
Y5061220D02*
X3545000Y5101220D01*
X3585000D01*
X3565000Y5061220D01*
Y5139960D02*
X3545000Y5179960D01*
X3585000D01*
X3565000Y5139960D01*
Y5218700D02*
X3545000Y5258700D01*
X3585000D01*
X3565000Y5218700D01*
X2335000Y4690000D02*
X2315000Y4730000D01*
X2355000D01*
X2335000Y4690000D01*
Y4768740D02*
X2315000Y4808740D01*
X2355000D01*
X2335000Y4768740D01*
Y4847480D02*
X2315000Y4887480D01*
X2355000D01*
X2335000Y4847480D01*
Y4926220D02*
X2315000Y4966220D01*
X2355000D01*
X2335000Y4926220D01*
X1725000Y4697520D02*
X1705000Y4737520D01*
X1745000D01*
X1725000Y4697520D01*
Y4776260D02*
X1705000Y4816260D01*
X1745000D01*
X1725000Y4776260D01*
Y4855000D02*
X1705000Y4895000D01*
X1745000D01*
X1725000Y4855000D01*
Y4933740D02*
X1705000Y4973740D01*
X1745000D01*
X1725000Y4933740D01*
X810000Y900000D02*
X830000Y920000D01*
X850000Y900000D01*
X830000Y880000D01*
X810000Y900000D01*
X7600000D02*
X7620000Y920000D01*
X7640000Y900000D01*
X7620000Y880000D01*
X7600000Y900000D01*
X7605000Y5220000D02*
X7625000Y5240000D01*
X7645000Y5220000D01*
X7625000Y5200000D01*
X7605000Y5220000D01*
X810000D02*
X830000Y5240000D01*
X850000Y5220000D01*
X830000Y5200000D01*
X810000Y5220000D01*
X1435000Y4515000D02*
Y4555000D01*
X1475000D01*
Y4515000D01*
X1435000D01*
X1443000Y4523000D02*
Y4547000D01*
X1467000D01*
Y4523000D01*
X1443000D01*
X1400000Y3800000D02*
Y3840000D01*
X1440000D01*
Y3800000D01*
X1400000D01*
X1408000Y3808000D02*
Y3832000D01*
X1432000D01*
Y3808000D01*
X1408000D01*
X1590000Y3795000D02*
Y3835000D01*
X1630000D01*
Y3795000D01*
X1590000D01*
X1598000Y3803000D02*
Y3827000D01*
X1622000D01*
Y3803000D01*
X1598000D01*
X998000Y4200000D02*
Y4240000D01*
X1038000D01*
Y4200000D01*
X998000D01*
X1006000Y4208000D02*
Y4232000D01*
X1030000D01*
Y4208000D01*
X1006000D01*
X6880000Y2980000D02*
Y3020000D01*
X6920000D01*
Y2980000D01*
X6880000D01*
X6888000Y2988000D02*
Y3012000D01*
X6912000D01*
Y2988000D01*
X6888000D01*
X6962402Y2980000D02*
Y3020000D01*
X7002402D01*
Y2980000D01*
X6962402D01*
X6970402Y2988000D02*
Y3012000D01*
X6994402D01*
Y2988000D01*
X6970402D01*
X7600000Y1000000D02*
Y1040000D01*
X7640000D01*
Y1000000D01*
X7600000D01*
X7608000Y1008000D02*
Y1032000D01*
X7632000D01*
Y1008000D01*
X7608000D01*
X7400000Y800000D02*
Y840000D01*
X7440000D01*
Y800000D01*
X7400000D01*
X7408000Y808000D02*
Y832000D01*
X7432000D01*
Y808000D01*
X7408000D01*
X7200000Y5000000D02*
Y5040000D01*
X7240000D01*
Y5000000D01*
X7200000D01*
X7208000Y5008000D02*
Y5032000D01*
X7232000D01*
Y5008000D01*
X7208000D01*
X7200000Y800000D02*
Y840000D01*
X7240000D01*
Y800000D01*
X7200000D01*
X7208000Y808000D02*
Y832000D01*
X7232000D01*
Y808000D01*
X7208000D01*
X7000000Y5200000D02*
Y5240000D01*
X7040000D01*
Y5200000D01*
X7000000D01*
X7008000Y5208000D02*
Y5232000D01*
X7032000D01*
Y5208000D01*
X7008000D01*
X7000000Y5000000D02*
Y5040000D01*
X7040000D01*
Y5000000D01*
X7000000D01*
X7008000Y5008000D02*
Y5032000D01*
X7032000D01*
Y5008000D01*
X7008000D01*
X7000000Y800000D02*
Y840000D01*
X7040000D01*
Y800000D01*
X7000000D01*
X7008000Y808000D02*
Y832000D01*
X7032000D01*
Y808000D01*
X7008000D01*
X6800000Y5200000D02*
Y5240000D01*
X6840000D01*
Y5200000D01*
X6800000D01*
X6808000Y5208000D02*
Y5232000D01*
X6832000D01*
Y5208000D01*
X6808000D01*
X6800000Y5000000D02*
Y5040000D01*
X6840000D01*
Y5000000D01*
X6800000D01*
X6808000Y5008000D02*
Y5032000D01*
X6832000D01*
Y5008000D01*
X6808000D01*
X6800000Y800000D02*
Y840000D01*
X6840000D01*
Y800000D01*
X6800000D01*
X6808000Y808000D02*
Y832000D01*
X6832000D01*
Y808000D01*
X6808000D01*
X6600000Y5200000D02*
Y5240000D01*
X6640000D01*
Y5200000D01*
X6600000D01*
X6608000Y5208000D02*
Y5232000D01*
X6632000D01*
Y5208000D01*
X6608000D01*
X6600000Y5000000D02*
Y5040000D01*
X6640000D01*
Y5000000D01*
X6600000D01*
X6608000Y5008000D02*
Y5032000D01*
X6632000D01*
Y5008000D01*
X6608000D01*
X6600000Y800000D02*
Y840000D01*
X6640000D01*
Y800000D01*
X6600000D01*
X6608000Y808000D02*
Y832000D01*
X6632000D01*
Y808000D01*
X6608000D01*
X6400000Y5200000D02*
Y5240000D01*
X6440000D01*
Y5200000D01*
X6400000D01*
X6408000Y5208000D02*
Y5232000D01*
X6432000D01*
Y5208000D01*
X6408000D01*
X6400000Y5000000D02*
Y5040000D01*
X6440000D01*
Y5000000D01*
X6400000D01*
X6408000Y5008000D02*
Y5032000D01*
X6432000D01*
Y5008000D01*
X6408000D01*
X6400000Y800000D02*
Y840000D01*
X6440000D01*
Y800000D01*
X6400000D01*
X6408000Y808000D02*
Y832000D01*
X6432000D01*
Y808000D01*
X6408000D01*
X6200000Y5200000D02*
Y5240000D01*
X6240000D01*
Y5200000D01*
X6200000D01*
X6208000Y5208000D02*
Y5232000D01*
X6232000D01*
Y5208000D01*
X6208000D01*
X6200000Y800000D02*
Y840000D01*
X6240000D01*
Y800000D01*
X6200000D01*
X6208000Y808000D02*
Y832000D01*
X6232000D01*
Y808000D01*
X6208000D01*
X6000000Y5200000D02*
Y5240000D01*
X6040000D01*
Y5200000D01*
X6000000D01*
X6008000Y5208000D02*
Y5232000D01*
X6032000D01*
Y5208000D01*
X6008000D01*
X6000000Y800000D02*
Y840000D01*
X6040000D01*
Y800000D01*
X6000000D01*
X6008000Y808000D02*
Y832000D01*
X6032000D01*
Y808000D01*
X6008000D01*
X5800000Y5200000D02*
Y5240000D01*
X5840000D01*
Y5200000D01*
X5800000D01*
X5808000Y5208000D02*
Y5232000D01*
X5832000D01*
Y5208000D01*
X5808000D01*
X5800000Y800000D02*
Y840000D01*
X5840000D01*
Y800000D01*
X5800000D01*
X5808000Y808000D02*
Y832000D01*
X5832000D01*
Y808000D01*
X5808000D01*
X5600000Y5200000D02*
Y5240000D01*
X5640000D01*
Y5200000D01*
X5600000D01*
X5608000Y5208000D02*
Y5232000D01*
X5632000D01*
Y5208000D01*
X5608000D01*
X5600000Y5000000D02*
Y5040000D01*
X5640000D01*
Y5000000D01*
X5600000D01*
X5608000Y5008000D02*
Y5032000D01*
X5632000D01*
Y5008000D01*
X5608000D01*
X5600000Y800000D02*
Y840000D01*
X5640000D01*
Y800000D01*
X5600000D01*
X5608000Y808000D02*
Y832000D01*
X5632000D01*
Y808000D01*
X5608000D01*
X5400000Y5200000D02*
Y5240000D01*
X5440000D01*
Y5200000D01*
X5400000D01*
X5408000Y5208000D02*
Y5232000D01*
X5432000D01*
Y5208000D01*
X5408000D01*
X5400000Y800000D02*
Y840000D01*
X5440000D01*
Y800000D01*
X5400000D01*
X5408000Y808000D02*
Y832000D01*
X5432000D01*
Y808000D01*
X5408000D01*
X5200000Y5200000D02*
Y5240000D01*
X5240000D01*
Y5200000D01*
X5200000D01*
X5208000Y5208000D02*
Y5232000D01*
X5232000D01*
Y5208000D01*
X5208000D01*
X5200000Y5000000D02*
Y5040000D01*
X5240000D01*
Y5000000D01*
X5200000D01*
X5208000Y5008000D02*
Y5032000D01*
X5232000D01*
Y5008000D01*
X5208000D01*
X5200000Y800000D02*
Y840000D01*
X5240000D01*
Y800000D01*
X5200000D01*
X5208000Y808000D02*
Y832000D01*
X5232000D01*
Y808000D01*
X5208000D01*
X5000000Y5200000D02*
Y5240000D01*
X5040000D01*
Y5200000D01*
X5000000D01*
X5008000Y5208000D02*
Y5232000D01*
X5032000D01*
Y5208000D01*
X5008000D01*
X5000000Y5000000D02*
Y5040000D01*
X5040000D01*
Y5000000D01*
X5000000D01*
X5008000Y5008000D02*
Y5032000D01*
X5032000D01*
Y5008000D01*
X5008000D01*
X5000000Y800000D02*
Y840000D01*
X5040000D01*
Y800000D01*
X5000000D01*
X5008000Y808000D02*
Y832000D01*
X5032000D01*
Y808000D01*
X5008000D01*
X4800000Y5200000D02*
Y5240000D01*
X4840000D01*
Y5200000D01*
X4800000D01*
X4808000Y5208000D02*
Y5232000D01*
X4832000D01*
Y5208000D01*
X4808000D01*
X4800000Y5000000D02*
Y5040000D01*
X4840000D01*
Y5000000D01*
X4800000D01*
X4808000Y5008000D02*
Y5032000D01*
X4832000D01*
Y5008000D01*
X4808000D01*
X4800000Y800000D02*
Y840000D01*
X4840000D01*
Y800000D01*
X4800000D01*
X4808000Y808000D02*
Y832000D01*
X4832000D01*
Y808000D01*
X4808000D01*
X4600000Y5200000D02*
Y5240000D01*
X4640000D01*
Y5200000D01*
X4600000D01*
X4608000Y5208000D02*
Y5232000D01*
X4632000D01*
Y5208000D01*
X4608000D01*
X4600000Y5000000D02*
Y5040000D01*
X4640000D01*
Y5000000D01*
X4600000D01*
X4608000Y5008000D02*
Y5032000D01*
X4632000D01*
Y5008000D01*
X4608000D01*
X4600000Y800000D02*
Y840000D01*
X4640000D01*
Y800000D01*
X4600000D01*
X4608000Y808000D02*
Y832000D01*
X4632000D01*
Y808000D01*
X4608000D01*
X4400000Y4800000D02*
Y4840000D01*
X4440000D01*
Y4800000D01*
X4400000D01*
X4408000Y4808000D02*
Y4832000D01*
X4432000D01*
Y4808000D01*
X4408000D01*
X4400000Y800000D02*
Y840000D01*
X4440000D01*
Y800000D01*
X4400000D01*
X4408000Y808000D02*
Y832000D01*
X4432000D01*
Y808000D01*
X4408000D01*
X4200000Y5200000D02*
Y5240000D01*
X4240000D01*
Y5200000D01*
X4200000D01*
X4208000Y5208000D02*
Y5232000D01*
X4232000D01*
Y5208000D01*
X4208000D01*
X4200000Y5000000D02*
Y5040000D01*
X4240000D01*
Y5000000D01*
X4200000D01*
X4208000Y5008000D02*
Y5032000D01*
X4232000D01*
Y5008000D01*
X4208000D01*
X4200000Y4800000D02*
Y4840000D01*
X4240000D01*
Y4800000D01*
X4200000D01*
X4208000Y4808000D02*
Y4832000D01*
X4232000D01*
Y4808000D01*
X4208000D01*
X4200000Y4600000D02*
Y4640000D01*
X4240000D01*
Y4600000D01*
X4200000D01*
X4208000Y4608000D02*
Y4632000D01*
X4232000D01*
Y4608000D01*
X4208000D01*
X4200000Y800000D02*
Y840000D01*
X4240000D01*
Y800000D01*
X4200000D01*
X4208000Y808000D02*
Y832000D01*
X4232000D01*
Y808000D01*
X4208000D01*
X4000000Y4800000D02*
Y4840000D01*
X4040000D01*
Y4800000D01*
X4000000D01*
X4008000Y4808000D02*
Y4832000D01*
X4032000D01*
Y4808000D01*
X4008000D01*
X4000000Y4600000D02*
Y4640000D01*
X4040000D01*
Y4600000D01*
X4000000D01*
X4008000Y4608000D02*
Y4632000D01*
X4032000D01*
Y4608000D01*
X4008000D01*
X4000000Y4400000D02*
Y4440000D01*
X4040000D01*
Y4400000D01*
X4000000D01*
X4008000Y4408000D02*
Y4432000D01*
X4032000D01*
Y4408000D01*
X4008000D01*
X4000000Y4200000D02*
Y4240000D01*
X4040000D01*
Y4200000D01*
X4000000D01*
X4008000Y4208000D02*
Y4232000D01*
X4032000D01*
Y4208000D01*
X4008000D01*
X4000000Y3600000D02*
Y3640000D01*
X4040000D01*
Y3600000D01*
X4000000D01*
X4008000Y3608000D02*
Y3632000D01*
X4032000D01*
Y3608000D01*
X4008000D01*
X4000000Y3400000D02*
Y3440000D01*
X4040000D01*
Y3400000D01*
X4000000D01*
X4008000Y3408000D02*
Y3432000D01*
X4032000D01*
Y3408000D01*
X4008000D01*
X4000000Y3200000D02*
Y3240000D01*
X4040000D01*
Y3200000D01*
X4000000D01*
X4008000Y3208000D02*
Y3232000D01*
X4032000D01*
Y3208000D01*
X4008000D01*
X4000000Y3000000D02*
Y3040000D01*
X4040000D01*
Y3000000D01*
X4000000D01*
X4008000Y3008000D02*
Y3032000D01*
X4032000D01*
Y3008000D01*
X4008000D01*
X4000000Y2800000D02*
Y2840000D01*
X4040000D01*
Y2800000D01*
X4000000D01*
X4008000Y2808000D02*
Y2832000D01*
X4032000D01*
Y2808000D01*
X4008000D01*
X4000000Y1200000D02*
Y1240000D01*
X4040000D01*
Y1200000D01*
X4000000D01*
X4008000Y1208000D02*
Y1232000D01*
X4032000D01*
Y1208000D01*
X4008000D01*
X4000000Y800000D02*
Y840000D01*
X4040000D01*
Y800000D01*
X4000000D01*
X4008000Y808000D02*
Y832000D01*
X4032000D01*
Y808000D01*
X4008000D01*
X3800000Y5200000D02*
Y5240000D01*
X3840000D01*
Y5200000D01*
X3800000D01*
X3808000Y5208000D02*
Y5232000D01*
X3832000D01*
Y5208000D01*
X3808000D01*
X3800000Y5000000D02*
Y5040000D01*
X3840000D01*
Y5000000D01*
X3800000D01*
X3808000Y5008000D02*
Y5032000D01*
X3832000D01*
Y5008000D01*
X3808000D01*
X3800000Y4600000D02*
Y4640000D01*
X3840000D01*
Y4600000D01*
X3800000D01*
X3808000Y4608000D02*
Y4632000D01*
X3832000D01*
Y4608000D01*
X3808000D01*
X3800000Y4400000D02*
Y4440000D01*
X3840000D01*
Y4400000D01*
X3800000D01*
X3808000Y4408000D02*
Y4432000D01*
X3832000D01*
Y4408000D01*
X3808000D01*
X3800000Y3600000D02*
Y3640000D01*
X3840000D01*
Y3600000D01*
X3800000D01*
X3808000Y3608000D02*
Y3632000D01*
X3832000D01*
Y3608000D01*
X3808000D01*
X3800000Y3400000D02*
Y3440000D01*
X3840000D01*
Y3400000D01*
X3800000D01*
X3808000Y3408000D02*
Y3432000D01*
X3832000D01*
Y3408000D01*
X3808000D01*
X3800000Y3200000D02*
Y3240000D01*
X3840000D01*
Y3200000D01*
X3800000D01*
X3808000Y3208000D02*
Y3232000D01*
X3832000D01*
Y3208000D01*
X3808000D01*
X3800000Y3000000D02*
Y3040000D01*
X3840000D01*
Y3000000D01*
X3800000D01*
X3808000Y3008000D02*
Y3032000D01*
X3832000D01*
Y3008000D01*
X3808000D01*
X3800000Y2800000D02*
Y2840000D01*
X3840000D01*
Y2800000D01*
X3800000D01*
X3808000Y2808000D02*
Y2832000D01*
X3832000D01*
Y2808000D01*
X3808000D01*
X3800000Y2600000D02*
Y2640000D01*
X3840000D01*
Y2600000D01*
X3800000D01*
X3808000Y2608000D02*
Y2632000D01*
X3832000D01*
Y2608000D01*
X3808000D01*
X3800000Y2400000D02*
Y2440000D01*
X3840000D01*
Y2400000D01*
X3800000D01*
X3808000Y2408000D02*
Y2432000D01*
X3832000D01*
Y2408000D01*
X3808000D01*
X3800000Y2200000D02*
Y2240000D01*
X3840000D01*
Y2200000D01*
X3800000D01*
X3808000Y2208000D02*
Y2232000D01*
X3832000D01*
Y2208000D01*
X3808000D01*
X3800000Y2000000D02*
Y2040000D01*
X3840000D01*
Y2000000D01*
X3800000D01*
X3808000Y2008000D02*
Y2032000D01*
X3832000D01*
Y2008000D01*
X3808000D01*
X3800000Y1600000D02*
Y1640000D01*
X3840000D01*
Y1600000D01*
X3800000D01*
X3808000Y1608000D02*
Y1632000D01*
X3832000D01*
Y1608000D01*
X3808000D01*
X3800000Y1200000D02*
Y1240000D01*
X3840000D01*
Y1200000D01*
X3800000D01*
X3808000Y1208000D02*
Y1232000D01*
X3832000D01*
Y1208000D01*
X3808000D01*
X3800000Y800000D02*
Y840000D01*
X3840000D01*
Y800000D01*
X3800000D01*
X3808000Y808000D02*
Y832000D01*
X3832000D01*
Y808000D01*
X3808000D01*
X3600000Y4800000D02*
Y4840000D01*
X3640000D01*
Y4800000D01*
X3600000D01*
X3608000Y4808000D02*
Y4832000D01*
X3632000D01*
Y4808000D01*
X3608000D01*
X3600000Y4600000D02*
Y4640000D01*
X3640000D01*
Y4600000D01*
X3600000D01*
X3608000Y4608000D02*
Y4632000D01*
X3632000D01*
Y4608000D01*
X3608000D01*
X3600000Y4000000D02*
Y4040000D01*
X3640000D01*
Y4000000D01*
X3600000D01*
X3608000Y4008000D02*
Y4032000D01*
X3632000D01*
Y4008000D01*
X3608000D01*
X3600000Y3600000D02*
Y3640000D01*
X3640000D01*
Y3600000D01*
X3600000D01*
X3608000Y3608000D02*
Y3632000D01*
X3632000D01*
Y3608000D01*
X3608000D01*
X3600000Y3400000D02*
Y3440000D01*
X3640000D01*
Y3400000D01*
X3600000D01*
X3608000Y3408000D02*
Y3432000D01*
X3632000D01*
Y3408000D01*
X3608000D01*
X3600000Y3200000D02*
Y3240000D01*
X3640000D01*
Y3200000D01*
X3600000D01*
X3608000Y3208000D02*
Y3232000D01*
X3632000D01*
Y3208000D01*
X3608000D01*
X3600000Y3000000D02*
Y3040000D01*
X3640000D01*
Y3000000D01*
X3600000D01*
X3608000Y3008000D02*
Y3032000D01*
X3632000D01*
Y3008000D01*
X3608000D01*
X3600000Y2800000D02*
Y2840000D01*
X3640000D01*
Y2800000D01*
X3600000D01*
X3608000Y2808000D02*
Y2832000D01*
X3632000D01*
Y2808000D01*
X3608000D01*
X3600000Y2600000D02*
Y2640000D01*
X3640000D01*
Y2600000D01*
X3600000D01*
X3608000Y2608000D02*
Y2632000D01*
X3632000D01*
Y2608000D01*
X3608000D01*
X3600000Y2400000D02*
Y2440000D01*
X3640000D01*
Y2400000D01*
X3600000D01*
X3608000Y2408000D02*
Y2432000D01*
X3632000D01*
Y2408000D01*
X3608000D01*
X3600000Y2200000D02*
Y2240000D01*
X3640000D01*
Y2200000D01*
X3600000D01*
X3608000Y2208000D02*
Y2232000D01*
X3632000D01*
Y2208000D01*
X3608000D01*
X3600000Y2000000D02*
Y2040000D01*
X3640000D01*
Y2000000D01*
X3600000D01*
X3608000Y2008000D02*
Y2032000D01*
X3632000D01*
Y2008000D01*
X3608000D01*
X3600000Y1600000D02*
Y1640000D01*
X3640000D01*
Y1600000D01*
X3600000D01*
X3608000Y1608000D02*
Y1632000D01*
X3632000D01*
Y1608000D01*
X3608000D01*
X3600000Y1000000D02*
Y1040000D01*
X3640000D01*
Y1000000D01*
X3600000D01*
X3608000Y1008000D02*
Y1032000D01*
X3632000D01*
Y1008000D01*
X3608000D01*
X3600000Y800000D02*
Y840000D01*
X3640000D01*
Y800000D01*
X3600000D01*
X3608000Y808000D02*
Y832000D01*
X3632000D01*
Y808000D01*
X3608000D01*
X3400000Y5000000D02*
Y5040000D01*
X3440000D01*
Y5000000D01*
X3400000D01*
X3408000Y5008000D02*
Y5032000D01*
X3432000D01*
Y5008000D01*
X3408000D01*
X3400000Y2000000D02*
Y2040000D01*
X3440000D01*
Y2000000D01*
X3400000D01*
X3408000Y2008000D02*
Y2032000D01*
X3432000D01*
Y2008000D01*
X3408000D01*
X3400000Y1600000D02*
Y1640000D01*
X3440000D01*
Y1600000D01*
X3400000D01*
X3408000Y1608000D02*
Y1632000D01*
X3432000D01*
Y1608000D01*
X3408000D01*
X3400000Y1000000D02*
Y1040000D01*
X3440000D01*
Y1000000D01*
X3400000D01*
X3408000Y1008000D02*
Y1032000D01*
X3432000D01*
Y1008000D01*
X3408000D01*
X3400000Y800000D02*
Y840000D01*
X3440000D01*
Y800000D01*
X3400000D01*
X3408000Y808000D02*
Y832000D01*
X3432000D01*
Y808000D01*
X3408000D01*
X3200000Y5200000D02*
Y5240000D01*
X3240000D01*
Y5200000D01*
X3200000D01*
X3208000Y5208000D02*
Y5232000D01*
X3232000D01*
Y5208000D01*
X3208000D01*
X3200000Y4800000D02*
Y4840000D01*
X3240000D01*
Y4800000D01*
X3200000D01*
X3208000Y4808000D02*
Y4832000D01*
X3232000D01*
Y4808000D01*
X3208000D01*
X3200000Y4600000D02*
Y4640000D01*
X3240000D01*
Y4600000D01*
X3200000D01*
X3208000Y4608000D02*
Y4632000D01*
X3232000D01*
Y4608000D01*
X3208000D01*
X3200000Y4200000D02*
Y4240000D01*
X3240000D01*
Y4200000D01*
X3200000D01*
X3208000Y4208000D02*
Y4232000D01*
X3232000D01*
Y4208000D01*
X3208000D01*
X3200000Y4000000D02*
Y4040000D01*
X3240000D01*
Y4000000D01*
X3200000D01*
X3208000Y4008000D02*
Y4032000D01*
X3232000D01*
Y4008000D01*
X3208000D01*
X3200000Y3600000D02*
Y3640000D01*
X3240000D01*
Y3600000D01*
X3200000D01*
X3208000Y3608000D02*
Y3632000D01*
X3232000D01*
Y3608000D01*
X3208000D01*
X3200000Y3400000D02*
Y3440000D01*
X3240000D01*
Y3400000D01*
X3200000D01*
X3208000Y3408000D02*
Y3432000D01*
X3232000D01*
Y3408000D01*
X3208000D01*
X3200000Y3200000D02*
Y3240000D01*
X3240000D01*
Y3200000D01*
X3200000D01*
X3208000Y3208000D02*
Y3232000D01*
X3232000D01*
Y3208000D01*
X3208000D01*
X3200000Y3000000D02*
Y3040000D01*
X3240000D01*
Y3000000D01*
X3200000D01*
X3208000Y3008000D02*
Y3032000D01*
X3232000D01*
Y3008000D01*
X3208000D01*
X3200000Y2800000D02*
Y2840000D01*
X3240000D01*
Y2800000D01*
X3200000D01*
X3208000Y2808000D02*
Y2832000D01*
X3232000D01*
Y2808000D01*
X3208000D01*
X3200000Y1600000D02*
Y1640000D01*
X3240000D01*
Y1600000D01*
X3200000D01*
X3208000Y1608000D02*
Y1632000D01*
X3232000D01*
Y1608000D01*
X3208000D01*
X3200000Y800000D02*
Y840000D01*
X3240000D01*
Y800000D01*
X3200000D01*
X3208000Y808000D02*
Y832000D01*
X3232000D01*
Y808000D01*
X3208000D01*
X3000000Y4800000D02*
Y4840000D01*
X3040000D01*
Y4800000D01*
X3000000D01*
X3008000Y4808000D02*
Y4832000D01*
X3032000D01*
Y4808000D01*
X3008000D01*
X3000000Y4600000D02*
Y4640000D01*
X3040000D01*
Y4600000D01*
X3000000D01*
X3008000Y4608000D02*
Y4632000D01*
X3032000D01*
Y4608000D01*
X3008000D01*
X3000000Y1200000D02*
Y1240000D01*
X3040000D01*
Y1200000D01*
X3000000D01*
X3008000Y1208000D02*
Y1232000D01*
X3032000D01*
Y1208000D01*
X3008000D01*
X3000000Y800000D02*
Y840000D01*
X3040000D01*
Y800000D01*
X3000000D01*
X3008000Y808000D02*
Y832000D01*
X3032000D01*
Y808000D01*
X3008000D01*
X2800000Y5200000D02*
Y5240000D01*
X2840000D01*
Y5200000D01*
X2800000D01*
X2808000Y5208000D02*
Y5232000D01*
X2832000D01*
Y5208000D01*
X2808000D01*
X2800000Y5000000D02*
Y5040000D01*
X2840000D01*
Y5000000D01*
X2800000D01*
X2808000Y5008000D02*
Y5032000D01*
X2832000D01*
Y5008000D01*
X2808000D01*
X2800000Y4800000D02*
Y4840000D01*
X2840000D01*
Y4800000D01*
X2800000D01*
X2808000Y4808000D02*
Y4832000D01*
X2832000D01*
Y4808000D01*
X2808000D01*
X2800000Y3600000D02*
Y3640000D01*
X2840000D01*
Y3600000D01*
X2800000D01*
X2808000Y3608000D02*
Y3632000D01*
X2832000D01*
Y3608000D01*
X2808000D01*
X2800000Y3400000D02*
Y3440000D01*
X2840000D01*
Y3400000D01*
X2800000D01*
X2808000Y3408000D02*
Y3432000D01*
X2832000D01*
Y3408000D01*
X2808000D01*
X2800000Y3200000D02*
Y3240000D01*
X2840000D01*
Y3200000D01*
X2800000D01*
X2808000Y3208000D02*
Y3232000D01*
X2832000D01*
Y3208000D01*
X2808000D01*
X2800000Y3000000D02*
Y3040000D01*
X2840000D01*
Y3000000D01*
X2800000D01*
X2808000Y3008000D02*
Y3032000D01*
X2832000D01*
Y3008000D01*
X2808000D01*
X2800000Y2800000D02*
Y2840000D01*
X2840000D01*
Y2800000D01*
X2800000D01*
X2808000Y2808000D02*
Y2832000D01*
X2832000D01*
Y2808000D01*
X2808000D01*
X2800000Y2600000D02*
Y2640000D01*
X2840000D01*
Y2600000D01*
X2800000D01*
X2808000Y2608000D02*
Y2632000D01*
X2832000D01*
Y2608000D01*
X2808000D01*
X2800000Y1600000D02*
Y1640000D01*
X2840000D01*
Y1600000D01*
X2800000D01*
X2808000Y1608000D02*
Y1632000D01*
X2832000D01*
Y1608000D01*
X2808000D01*
X2800000Y1400000D02*
Y1440000D01*
X2840000D01*
Y1400000D01*
X2800000D01*
X2808000Y1408000D02*
Y1432000D01*
X2832000D01*
Y1408000D01*
X2808000D01*
X2800000Y1200000D02*
Y1240000D01*
X2840000D01*
Y1200000D01*
X2800000D01*
X2808000Y1208000D02*
Y1232000D01*
X2832000D01*
Y1208000D01*
X2808000D01*
X2800000Y800000D02*
Y840000D01*
X2840000D01*
Y800000D01*
X2800000D01*
X2808000Y808000D02*
Y832000D01*
X2832000D01*
Y808000D01*
X2808000D01*
X2600000Y5200000D02*
Y5240000D01*
X2640000D01*
Y5200000D01*
X2600000D01*
X2608000Y5208000D02*
Y5232000D01*
X2632000D01*
Y5208000D01*
X2608000D01*
X2600000Y5000000D02*
Y5040000D01*
X2640000D01*
Y5000000D01*
X2600000D01*
X2608000Y5008000D02*
Y5032000D01*
X2632000D01*
Y5008000D01*
X2608000D01*
X2600000Y3600000D02*
Y3640000D01*
X2640000D01*
Y3600000D01*
X2600000D01*
X2608000Y3608000D02*
Y3632000D01*
X2632000D01*
Y3608000D01*
X2608000D01*
X2600000Y3400000D02*
Y3440000D01*
X2640000D01*
Y3400000D01*
X2600000D01*
X2608000Y3408000D02*
Y3432000D01*
X2632000D01*
Y3408000D01*
X2608000D01*
X2600000Y3200000D02*
Y3240000D01*
X2640000D01*
Y3200000D01*
X2600000D01*
X2608000Y3208000D02*
Y3232000D01*
X2632000D01*
Y3208000D01*
X2608000D01*
X2600000Y3000000D02*
Y3040000D01*
X2640000D01*
Y3000000D01*
X2600000D01*
X2608000Y3008000D02*
Y3032000D01*
X2632000D01*
Y3008000D01*
X2608000D01*
X2600000Y2800000D02*
Y2840000D01*
X2640000D01*
Y2800000D01*
X2600000D01*
X2608000Y2808000D02*
Y2832000D01*
X2632000D01*
Y2808000D01*
X2608000D01*
X2600000Y2600000D02*
Y2640000D01*
X2640000D01*
Y2600000D01*
X2600000D01*
X2608000Y2608000D02*
Y2632000D01*
X2632000D01*
Y2608000D01*
X2608000D01*
X2600000Y1600000D02*
Y1640000D01*
X2640000D01*
Y1600000D01*
X2600000D01*
X2608000Y1608000D02*
Y1632000D01*
X2632000D01*
Y1608000D01*
X2608000D01*
X2600000Y1200000D02*
Y1240000D01*
X2640000D01*
Y1200000D01*
X2600000D01*
X2608000Y1208000D02*
Y1232000D01*
X2632000D01*
Y1208000D01*
X2608000D01*
X2600000Y800000D02*
Y840000D01*
X2640000D01*
Y800000D01*
X2600000D01*
X2608000Y808000D02*
Y832000D01*
X2632000D01*
Y808000D01*
X2608000D01*
X2400000Y5200000D02*
Y5240000D01*
X2440000D01*
Y5200000D01*
X2400000D01*
X2408000Y5208000D02*
Y5232000D01*
X2432000D01*
Y5208000D01*
X2408000D01*
X2400000Y3600000D02*
Y3640000D01*
X2440000D01*
Y3600000D01*
X2400000D01*
X2408000Y3608000D02*
Y3632000D01*
X2432000D01*
Y3608000D01*
X2408000D01*
X2400000Y3400000D02*
Y3440000D01*
X2440000D01*
Y3400000D01*
X2400000D01*
X2408000Y3408000D02*
Y3432000D01*
X2432000D01*
Y3408000D01*
X2408000D01*
X2400000Y3200000D02*
Y3240000D01*
X2440000D01*
Y3200000D01*
X2400000D01*
X2408000Y3208000D02*
Y3232000D01*
X2432000D01*
Y3208000D01*
X2408000D01*
X2400000Y3000000D02*
Y3040000D01*
X2440000D01*
Y3000000D01*
X2400000D01*
X2408000Y3008000D02*
Y3032000D01*
X2432000D01*
Y3008000D01*
X2408000D01*
X2400000Y2800000D02*
Y2840000D01*
X2440000D01*
Y2800000D01*
X2400000D01*
X2408000Y2808000D02*
Y2832000D01*
X2432000D01*
Y2808000D01*
X2408000D01*
X2400000Y2600000D02*
Y2640000D01*
X2440000D01*
Y2600000D01*
X2400000D01*
X2408000Y2608000D02*
Y2632000D01*
X2432000D01*
Y2608000D01*
X2408000D01*
X2400000Y1600000D02*
Y1640000D01*
X2440000D01*
Y1600000D01*
X2400000D01*
X2408000Y1608000D02*
Y1632000D01*
X2432000D01*
Y1608000D01*
X2408000D01*
X2400000Y1400000D02*
Y1440000D01*
X2440000D01*
Y1400000D01*
X2400000D01*
X2408000Y1408000D02*
Y1432000D01*
X2432000D01*
Y1408000D01*
X2408000D01*
X2400000Y1200000D02*
Y1240000D01*
X2440000D01*
Y1200000D01*
X2400000D01*
X2408000Y1208000D02*
Y1232000D01*
X2432000D01*
Y1208000D01*
X2408000D01*
X2400000Y800000D02*
Y840000D01*
X2440000D01*
Y800000D01*
X2400000D01*
X2408000Y808000D02*
Y832000D01*
X2432000D01*
Y808000D01*
X2408000D01*
X2200000Y5200000D02*
Y5240000D01*
X2240000D01*
Y5200000D01*
X2200000D01*
X2208000Y5208000D02*
Y5232000D01*
X2232000D01*
Y5208000D01*
X2208000D01*
X2200000Y5000000D02*
Y5040000D01*
X2240000D01*
Y5000000D01*
X2200000D01*
X2208000Y5008000D02*
Y5032000D01*
X2232000D01*
Y5008000D01*
X2208000D01*
X2200000Y4800000D02*
Y4840000D01*
X2240000D01*
Y4800000D01*
X2200000D01*
X2208000Y4808000D02*
Y4832000D01*
X2232000D01*
Y4808000D01*
X2208000D01*
X2200000Y4600000D02*
Y4640000D01*
X2240000D01*
Y4600000D01*
X2200000D01*
X2208000Y4608000D02*
Y4632000D01*
X2232000D01*
Y4608000D01*
X2208000D01*
X2200000Y3600000D02*
Y3640000D01*
X2240000D01*
Y3600000D01*
X2200000D01*
X2208000Y3608000D02*
Y3632000D01*
X2232000D01*
Y3608000D01*
X2208000D01*
X2200000Y3400000D02*
Y3440000D01*
X2240000D01*
Y3400000D01*
X2200000D01*
X2208000Y3408000D02*
Y3432000D01*
X2232000D01*
Y3408000D01*
X2208000D01*
X2200000Y3200000D02*
Y3240000D01*
X2240000D01*
Y3200000D01*
X2200000D01*
X2208000Y3208000D02*
Y3232000D01*
X2232000D01*
Y3208000D01*
X2208000D01*
X2200000Y3000000D02*
Y3040000D01*
X2240000D01*
Y3000000D01*
X2200000D01*
X2208000Y3008000D02*
Y3032000D01*
X2232000D01*
Y3008000D01*
X2208000D01*
X2200000Y2800000D02*
Y2840000D01*
X2240000D01*
Y2800000D01*
X2200000D01*
X2208000Y2808000D02*
Y2832000D01*
X2232000D01*
Y2808000D01*
X2208000D01*
X2200000Y2600000D02*
Y2640000D01*
X2240000D01*
Y2600000D01*
X2200000D01*
X2208000Y2608000D02*
Y2632000D01*
X2232000D01*
Y2608000D01*
X2208000D01*
X2200000Y2000000D02*
Y2040000D01*
X2240000D01*
Y2000000D01*
X2200000D01*
X2208000Y2008000D02*
Y2032000D01*
X2232000D01*
Y2008000D01*
X2208000D01*
X2200000Y1600000D02*
Y1640000D01*
X2240000D01*
Y1600000D01*
X2200000D01*
X2208000Y1608000D02*
Y1632000D01*
X2232000D01*
Y1608000D01*
X2208000D01*
X2200000Y1200000D02*
Y1240000D01*
X2240000D01*
Y1200000D01*
X2200000D01*
X2208000Y1208000D02*
Y1232000D01*
X2232000D01*
Y1208000D01*
X2208000D01*
X2200000Y1000000D02*
Y1040000D01*
X2240000D01*
Y1000000D01*
X2200000D01*
X2208000Y1008000D02*
Y1032000D01*
X2232000D01*
Y1008000D01*
X2208000D01*
X2200000Y800000D02*
Y840000D01*
X2240000D01*
Y800000D01*
X2200000D01*
X2208000Y808000D02*
Y832000D01*
X2232000D01*
Y808000D01*
X2208000D01*
X2000000Y5200000D02*
Y5240000D01*
X2040000D01*
Y5200000D01*
X2000000D01*
X2008000Y5208000D02*
Y5232000D01*
X2032000D01*
Y5208000D01*
X2008000D01*
X2000000Y4600000D02*
Y4640000D01*
X2040000D01*
Y4600000D01*
X2000000D01*
X2008000Y4608000D02*
Y4632000D01*
X2032000D01*
Y4608000D01*
X2008000D01*
X2000000Y3600000D02*
Y3640000D01*
X2040000D01*
Y3600000D01*
X2000000D01*
X2008000Y3608000D02*
Y3632000D01*
X2032000D01*
Y3608000D01*
X2008000D01*
X2000000Y3400000D02*
Y3440000D01*
X2040000D01*
Y3400000D01*
X2000000D01*
X2008000Y3408000D02*
Y3432000D01*
X2032000D01*
Y3408000D01*
X2008000D01*
X2000000Y3200000D02*
Y3240000D01*
X2040000D01*
Y3200000D01*
X2000000D01*
X2008000Y3208000D02*
Y3232000D01*
X2032000D01*
Y3208000D01*
X2008000D01*
X2000000Y3000000D02*
Y3040000D01*
X2040000D01*
Y3000000D01*
X2000000D01*
X2008000Y3008000D02*
Y3032000D01*
X2032000D01*
Y3008000D01*
X2008000D01*
X2000000Y2800000D02*
Y2840000D01*
X2040000D01*
Y2800000D01*
X2000000D01*
X2008000Y2808000D02*
Y2832000D01*
X2032000D01*
Y2808000D01*
X2008000D01*
X2000000Y1600000D02*
Y1640000D01*
X2040000D01*
Y1600000D01*
X2000000D01*
X2008000Y1608000D02*
Y1632000D01*
X2032000D01*
Y1608000D01*
X2008000D01*
X2000000Y1200000D02*
Y1240000D01*
X2040000D01*
Y1200000D01*
X2000000D01*
X2008000Y1208000D02*
Y1232000D01*
X2032000D01*
Y1208000D01*
X2008000D01*
X2000000Y1000000D02*
Y1040000D01*
X2040000D01*
Y1000000D01*
X2000000D01*
X2008000Y1008000D02*
Y1032000D01*
X2032000D01*
Y1008000D01*
X2008000D01*
X2000000Y800000D02*
Y840000D01*
X2040000D01*
Y800000D01*
X2000000D01*
X2008000Y808000D02*
Y832000D01*
X2032000D01*
Y808000D01*
X2008000D01*
X1800000Y5200000D02*
Y5240000D01*
X1840000D01*
Y5200000D01*
X1800000D01*
X1808000Y5208000D02*
Y5232000D01*
X1832000D01*
Y5208000D01*
X1808000D01*
X1800000Y5000000D02*
Y5040000D01*
X1840000D01*
Y5000000D01*
X1800000D01*
X1808000Y5008000D02*
Y5032000D01*
X1832000D01*
Y5008000D01*
X1808000D01*
X1800000Y4000000D02*
Y4040000D01*
X1840000D01*
Y4000000D01*
X1800000D01*
X1808000Y4008000D02*
Y4032000D01*
X1832000D01*
Y4008000D01*
X1808000D01*
X1800000Y3600000D02*
Y3640000D01*
X1840000D01*
Y3600000D01*
X1800000D01*
X1808000Y3608000D02*
Y3632000D01*
X1832000D01*
Y3608000D01*
X1808000D01*
X1800000Y3400000D02*
Y3440000D01*
X1840000D01*
Y3400000D01*
X1800000D01*
X1808000Y3408000D02*
Y3432000D01*
X1832000D01*
Y3408000D01*
X1808000D01*
X1800000Y3200000D02*
Y3240000D01*
X1840000D01*
Y3200000D01*
X1800000D01*
X1808000Y3208000D02*
Y3232000D01*
X1832000D01*
Y3208000D01*
X1808000D01*
X1800000Y3000000D02*
Y3040000D01*
X1840000D01*
Y3000000D01*
X1800000D01*
X1808000Y3008000D02*
Y3032000D01*
X1832000D01*
Y3008000D01*
X1808000D01*
X1800000Y2600000D02*
Y2640000D01*
X1840000D01*
Y2600000D01*
X1800000D01*
X1808000Y2608000D02*
Y2632000D01*
X1832000D01*
Y2608000D01*
X1808000D01*
X1800000Y1200000D02*
Y1240000D01*
X1840000D01*
Y1200000D01*
X1800000D01*
X1808000Y1208000D02*
Y1232000D01*
X1832000D01*
Y1208000D01*
X1808000D01*
X1800000Y1000000D02*
Y1040000D01*
X1840000D01*
Y1000000D01*
X1800000D01*
X1808000Y1008000D02*
Y1032000D01*
X1832000D01*
Y1008000D01*
X1808000D01*
X1800000Y800000D02*
Y840000D01*
X1840000D01*
Y800000D01*
X1800000D01*
X1808000Y808000D02*
Y832000D01*
X1832000D01*
Y808000D01*
X1808000D01*
X1600000Y5200000D02*
Y5240000D01*
X1640000D01*
Y5200000D01*
X1600000D01*
X1608000Y5208000D02*
Y5232000D01*
X1632000D01*
Y5208000D01*
X1608000D01*
X1600000Y5000000D02*
Y5040000D01*
X1640000D01*
Y5000000D01*
X1600000D01*
X1608000Y5008000D02*
Y5032000D01*
X1632000D01*
Y5008000D01*
X1608000D01*
X1600000Y4800000D02*
Y4840000D01*
X1640000D01*
Y4800000D01*
X1600000D01*
X1608000Y4808000D02*
Y4832000D01*
X1632000D01*
Y4808000D01*
X1608000D01*
X1600000Y4200000D02*
Y4240000D01*
X1640000D01*
Y4200000D01*
X1600000D01*
X1608000Y4208000D02*
Y4232000D01*
X1632000D01*
Y4208000D01*
X1608000D01*
X1600000Y4000000D02*
Y4040000D01*
X1640000D01*
Y4000000D01*
X1600000D01*
X1608000Y4008000D02*
Y4032000D01*
X1632000D01*
Y4008000D01*
X1608000D01*
X1600000Y3600000D02*
Y3640000D01*
X1640000D01*
Y3600000D01*
X1600000D01*
X1608000Y3608000D02*
Y3632000D01*
X1632000D01*
Y3608000D01*
X1608000D01*
X1600000Y3400000D02*
Y3440000D01*
X1640000D01*
Y3400000D01*
X1600000D01*
X1608000Y3408000D02*
Y3432000D01*
X1632000D01*
Y3408000D01*
X1608000D01*
X1600000Y3200000D02*
Y3240000D01*
X1640000D01*
Y3200000D01*
X1600000D01*
X1608000Y3208000D02*
Y3232000D01*
X1632000D01*
Y3208000D01*
X1608000D01*
X1600000Y2800000D02*
Y2840000D01*
X1640000D01*
Y2800000D01*
X1600000D01*
X1608000Y2808000D02*
Y2832000D01*
X1632000D01*
Y2808000D01*
X1608000D01*
X1600000Y2600000D02*
Y2640000D01*
X1640000D01*
Y2600000D01*
X1600000D01*
X1608000Y2608000D02*
Y2632000D01*
X1632000D01*
Y2608000D01*
X1608000D01*
X1600000Y2200000D02*
Y2240000D01*
X1640000D01*
Y2200000D01*
X1600000D01*
X1608000Y2208000D02*
Y2232000D01*
X1632000D01*
Y2208000D01*
X1608000D01*
X1600000Y1600000D02*
Y1640000D01*
X1640000D01*
Y1600000D01*
X1600000D01*
X1608000Y1608000D02*
Y1632000D01*
X1632000D01*
Y1608000D01*
X1608000D01*
X1600000Y1200000D02*
Y1240000D01*
X1640000D01*
Y1200000D01*
X1600000D01*
X1608000Y1208000D02*
Y1232000D01*
X1632000D01*
Y1208000D01*
X1608000D01*
X1600000Y1000000D02*
Y1040000D01*
X1640000D01*
Y1000000D01*
X1600000D01*
X1608000Y1008000D02*
Y1032000D01*
X1632000D01*
Y1008000D01*
X1608000D01*
X1600000Y800000D02*
Y840000D01*
X1640000D01*
Y800000D01*
X1600000D01*
X1608000Y808000D02*
Y832000D01*
X1632000D01*
Y808000D01*
X1608000D01*
X1400000Y5200000D02*
Y5240000D01*
X1440000D01*
Y5200000D01*
X1400000D01*
X1408000Y5208000D02*
Y5232000D01*
X1432000D01*
Y5208000D01*
X1408000D01*
X1400000Y5000000D02*
Y5040000D01*
X1440000D01*
Y5000000D01*
X1400000D01*
X1408000Y5008000D02*
Y5032000D01*
X1432000D01*
Y5008000D01*
X1408000D01*
X1400000Y4800000D02*
Y4840000D01*
X1440000D01*
Y4800000D01*
X1400000D01*
X1408000Y4808000D02*
Y4832000D01*
X1432000D01*
Y4808000D01*
X1408000D01*
X1400000Y3600000D02*
Y3640000D01*
X1440000D01*
Y3600000D01*
X1400000D01*
X1408000Y3608000D02*
Y3632000D01*
X1432000D01*
Y3608000D01*
X1408000D01*
X1400000Y3400000D02*
Y3440000D01*
X1440000D01*
Y3400000D01*
X1400000D01*
X1408000Y3408000D02*
Y3432000D01*
X1432000D01*
Y3408000D01*
X1408000D01*
X1400000Y3000000D02*
Y3040000D01*
X1440000D01*
Y3000000D01*
X1400000D01*
X1408000Y3008000D02*
Y3032000D01*
X1432000D01*
Y3008000D01*
X1408000D01*
X1400000Y2800000D02*
Y2840000D01*
X1440000D01*
Y2800000D01*
X1400000D01*
X1408000Y2808000D02*
Y2832000D01*
X1432000D01*
Y2808000D01*
X1408000D01*
X1400000Y2600000D02*
Y2640000D01*
X1440000D01*
Y2600000D01*
X1400000D01*
X1408000Y2608000D02*
Y2632000D01*
X1432000D01*
Y2608000D01*
X1408000D01*
X1400000Y1600000D02*
Y1640000D01*
X1440000D01*
Y1600000D01*
X1400000D01*
X1408000Y1608000D02*
Y1632000D01*
X1432000D01*
Y1608000D01*
X1408000D01*
X1400000Y1400000D02*
Y1440000D01*
X1440000D01*
Y1400000D01*
X1400000D01*
X1408000Y1408000D02*
Y1432000D01*
X1432000D01*
Y1408000D01*
X1408000D01*
X1400000Y1200000D02*
Y1240000D01*
X1440000D01*
Y1200000D01*
X1400000D01*
X1408000Y1208000D02*
Y1232000D01*
X1432000D01*
Y1208000D01*
X1408000D01*
X1400000Y1000000D02*
Y1040000D01*
X1440000D01*
Y1000000D01*
X1400000D01*
X1408000Y1008000D02*
Y1032000D01*
X1432000D01*
Y1008000D01*
X1408000D01*
X1400000Y800000D02*
Y840000D01*
X1440000D01*
Y800000D01*
X1400000D01*
X1408000Y808000D02*
Y832000D01*
X1432000D01*
Y808000D01*
X1408000D01*
X1200000Y5200000D02*
Y5240000D01*
X1240000D01*
Y5200000D01*
X1200000D01*
X1208000Y5208000D02*
Y5232000D01*
X1232000D01*
Y5208000D01*
X1208000D01*
X1200000Y5000000D02*
Y5040000D01*
X1240000D01*
Y5000000D01*
X1200000D01*
X1208000Y5008000D02*
Y5032000D01*
X1232000D01*
Y5008000D01*
X1208000D01*
X1200000Y4600000D02*
Y4640000D01*
X1240000D01*
Y4600000D01*
X1200000D01*
X1208000Y4608000D02*
Y4632000D01*
X1232000D01*
Y4608000D01*
X1208000D01*
X1200000Y4200000D02*
Y4240000D01*
X1240000D01*
Y4200000D01*
X1200000D01*
X1208000Y4208000D02*
Y4232000D01*
X1232000D01*
Y4208000D01*
X1208000D01*
X1200000Y4000000D02*
Y4040000D01*
X1240000D01*
Y4000000D01*
X1200000D01*
X1208000Y4008000D02*
Y4032000D01*
X1232000D01*
Y4008000D01*
X1208000D01*
X1200000Y3800000D02*
Y3840000D01*
X1240000D01*
Y3800000D01*
X1200000D01*
X1208000Y3808000D02*
Y3832000D01*
X1232000D01*
Y3808000D01*
X1208000D01*
X1200000Y3600000D02*
Y3640000D01*
X1240000D01*
Y3600000D01*
X1200000D01*
X1208000Y3608000D02*
Y3632000D01*
X1232000D01*
Y3608000D01*
X1208000D01*
X1200000Y3200000D02*
Y3240000D01*
X1240000D01*
Y3200000D01*
X1200000D01*
X1208000Y3208000D02*
Y3232000D01*
X1232000D01*
Y3208000D01*
X1208000D01*
X1200000Y3000000D02*
Y3040000D01*
X1240000D01*
Y3000000D01*
X1200000D01*
X1208000Y3008000D02*
Y3032000D01*
X1232000D01*
Y3008000D01*
X1208000D01*
X1200000Y2800000D02*
Y2840000D01*
X1240000D01*
Y2800000D01*
X1200000D01*
X1208000Y2808000D02*
Y2832000D01*
X1232000D01*
Y2808000D01*
X1208000D01*
X1200000Y2600000D02*
Y2640000D01*
X1240000D01*
Y2600000D01*
X1200000D01*
X1208000Y2608000D02*
Y2632000D01*
X1232000D01*
Y2608000D01*
X1208000D01*
X1200000Y2400000D02*
Y2440000D01*
X1240000D01*
Y2400000D01*
X1200000D01*
X1208000Y2408000D02*
Y2432000D01*
X1232000D01*
Y2408000D01*
X1208000D01*
X1200000Y2000000D02*
Y2040000D01*
X1240000D01*
Y2000000D01*
X1200000D01*
X1208000Y2008000D02*
Y2032000D01*
X1232000D01*
Y2008000D01*
X1208000D01*
X1200000Y1600000D02*
Y1640000D01*
X1240000D01*
Y1600000D01*
X1200000D01*
X1208000Y1608000D02*
Y1632000D01*
X1232000D01*
Y1608000D01*
X1208000D01*
X1200000Y1400000D02*
Y1440000D01*
X1240000D01*
Y1400000D01*
X1200000D01*
X1208000Y1408000D02*
Y1432000D01*
X1232000D01*
Y1408000D01*
X1208000D01*
X1200000Y1200000D02*
Y1240000D01*
X1240000D01*
Y1200000D01*
X1200000D01*
X1208000Y1208000D02*
Y1232000D01*
X1232000D01*
Y1208000D01*
X1208000D01*
X1200000Y1000000D02*
Y1040000D01*
X1240000D01*
Y1000000D01*
X1200000D01*
X1208000Y1008000D02*
Y1032000D01*
X1232000D01*
Y1008000D01*
X1208000D01*
X1200000Y800000D02*
Y840000D01*
X1240000D01*
Y800000D01*
X1200000D01*
X1208000Y808000D02*
Y832000D01*
X1232000D01*
Y808000D01*
X1208000D01*
X1000000Y5200000D02*
Y5240000D01*
X1040000D01*
Y5200000D01*
X1000000D01*
X1008000Y5208000D02*
Y5232000D01*
X1032000D01*
Y5208000D01*
X1008000D01*
X1000000Y5000000D02*
Y5040000D01*
X1040000D01*
Y5000000D01*
X1000000D01*
X1008000Y5008000D02*
Y5032000D01*
X1032000D01*
Y5008000D01*
X1008000D01*
X1000000Y4600000D02*
Y4640000D01*
X1040000D01*
Y4600000D01*
X1000000D01*
X1008000Y4608000D02*
Y4632000D01*
X1032000D01*
Y4608000D01*
X1008000D01*
X1000000Y4000000D02*
Y4040000D01*
X1040000D01*
Y4000000D01*
X1000000D01*
X1008000Y4008000D02*
Y4032000D01*
X1032000D01*
Y4008000D01*
X1008000D01*
X1000000Y3800000D02*
Y3840000D01*
X1040000D01*
Y3800000D01*
X1000000D01*
X1008000Y3808000D02*
Y3832000D01*
X1032000D01*
Y3808000D01*
X1008000D01*
X1000000Y3400000D02*
Y3440000D01*
X1040000D01*
Y3400000D01*
X1000000D01*
X1008000Y3408000D02*
Y3432000D01*
X1032000D01*
Y3408000D01*
X1008000D01*
X1000000Y3200000D02*
Y3240000D01*
X1040000D01*
Y3200000D01*
X1000000D01*
X1008000Y3208000D02*
Y3232000D01*
X1032000D01*
Y3208000D01*
X1008000D01*
X1000000Y3000000D02*
Y3040000D01*
X1040000D01*
Y3000000D01*
X1000000D01*
X1008000Y3008000D02*
Y3032000D01*
X1032000D01*
Y3008000D01*
X1008000D01*
X1000000Y2800000D02*
Y2840000D01*
X1040000D01*
Y2800000D01*
X1000000D01*
X1008000Y2808000D02*
Y2832000D01*
X1032000D01*
Y2808000D01*
X1008000D01*
X1000000Y2600000D02*
Y2640000D01*
X1040000D01*
Y2600000D01*
X1000000D01*
X1008000Y2608000D02*
Y2632000D01*
X1032000D01*
Y2608000D01*
X1008000D01*
X1000000Y2400000D02*
Y2440000D01*
X1040000D01*
Y2400000D01*
X1000000D01*
X1008000Y2408000D02*
Y2432000D01*
X1032000D01*
Y2408000D01*
X1008000D01*
X1000000Y2200000D02*
Y2240000D01*
X1040000D01*
Y2200000D01*
X1000000D01*
X1008000Y2208000D02*
Y2232000D01*
X1032000D01*
Y2208000D01*
X1008000D01*
X1000000Y1800000D02*
Y1840000D01*
X1040000D01*
Y1800000D01*
X1000000D01*
X1008000Y1808000D02*
Y1832000D01*
X1032000D01*
Y1808000D01*
X1008000D01*
X1000000Y1200000D02*
Y1240000D01*
X1040000D01*
Y1200000D01*
X1000000D01*
X1008000Y1208000D02*
Y1232000D01*
X1032000D01*
Y1208000D01*
X1008000D01*
X1000000Y1000000D02*
Y1040000D01*
X1040000D01*
Y1000000D01*
X1000000D01*
X1008000Y1008000D02*
Y1032000D01*
X1032000D01*
Y1008000D01*
X1008000D01*
X1000000Y800000D02*
Y840000D01*
X1040000D01*
Y800000D01*
X1000000D01*
X1008000Y808000D02*
Y832000D01*
X1032000D01*
Y808000D01*
X1008000D01*
X800000Y5000000D02*
Y5040000D01*
X840000D01*
Y5000000D01*
X800000D01*
X808000Y5008000D02*
Y5032000D01*
X832000D01*
Y5008000D01*
X808000D01*
X800000Y4800000D02*
Y4840000D01*
X840000D01*
Y4800000D01*
X800000D01*
X808000Y4808000D02*
Y4832000D01*
X832000D01*
Y4808000D01*
X808000D01*
X800000Y4400000D02*
Y4440000D01*
X840000D01*
Y4400000D01*
X800000D01*
X808000Y4408000D02*
Y4432000D01*
X832000D01*
Y4408000D01*
X808000D01*
X800000Y4000000D02*
Y4040000D01*
X840000D01*
Y4000000D01*
X800000D01*
X808000Y4008000D02*
Y4032000D01*
X832000D01*
Y4008000D01*
X808000D01*
X800000Y3600000D02*
Y3640000D01*
X840000D01*
Y3600000D01*
X800000D01*
X808000Y3608000D02*
Y3632000D01*
X832000D01*
Y3608000D01*
X808000D01*
X800000Y3400000D02*
Y3440000D01*
X840000D01*
Y3400000D01*
X800000D01*
X808000Y3408000D02*
Y3432000D01*
X832000D01*
Y3408000D01*
X808000D01*
X800000Y3200000D02*
Y3240000D01*
X840000D01*
Y3200000D01*
X800000D01*
X808000Y3208000D02*
Y3232000D01*
X832000D01*
Y3208000D01*
X808000D01*
X800000Y3000000D02*
Y3040000D01*
X840000D01*
Y3000000D01*
X800000D01*
X808000Y3008000D02*
Y3032000D01*
X832000D01*
Y3008000D01*
X808000D01*
X800000Y2800000D02*
Y2840000D01*
X840000D01*
Y2800000D01*
X800000D01*
X808000Y2808000D02*
Y2832000D01*
X832000D01*
Y2808000D01*
X808000D01*
X800000Y2600000D02*
Y2640000D01*
X840000D01*
Y2600000D01*
X800000D01*
X808000Y2608000D02*
Y2632000D01*
X832000D01*
Y2608000D01*
X808000D01*
X800000Y2400000D02*
Y2440000D01*
X840000D01*
Y2400000D01*
X800000D01*
X808000Y2408000D02*
Y2432000D01*
X832000D01*
Y2408000D01*
X808000D01*
X800000Y2200000D02*
Y2240000D01*
X840000D01*
Y2200000D01*
X800000D01*
X808000Y2208000D02*
Y2232000D01*
X832000D01*
Y2208000D01*
X808000D01*
X800000Y2000000D02*
Y2040000D01*
X840000D01*
Y2000000D01*
X800000D01*
X808000Y2008000D02*
Y2032000D01*
X832000D01*
Y2008000D01*
X808000D01*
X800000Y1600000D02*
Y1640000D01*
X840000D01*
Y1600000D01*
X800000D01*
X808000Y1608000D02*
Y1632000D01*
X832000D01*
Y1608000D01*
X808000D01*
X800000Y1400000D02*
Y1440000D01*
X840000D01*
Y1400000D01*
X800000D01*
X808000Y1408000D02*
Y1432000D01*
X832000D01*
Y1408000D01*
X808000D01*
X800000Y1200000D02*
Y1240000D01*
X840000D01*
Y1200000D01*
X800000D01*
X808000Y1208000D02*
Y1232000D01*
X832000D01*
Y1208000D01*
X808000D01*
X800000Y1000000D02*
Y1040000D01*
X840000D01*
Y1000000D01*
X800000D01*
X808000Y1008000D02*
Y1032000D01*
X832000D01*
Y1008000D01*
X808000D01*
X600000Y5200000D02*
Y5240000D01*
X640000D01*
Y5200000D01*
X600000D01*
X608000Y5208000D02*
Y5232000D01*
X632000D01*
Y5208000D01*
X608000D01*
X600000Y5000000D02*
Y5040000D01*
X640000D01*
Y5000000D01*
X600000D01*
X608000Y5008000D02*
Y5032000D01*
X632000D01*
Y5008000D01*
X608000D01*
X600000Y4800000D02*
Y4840000D01*
X640000D01*
Y4800000D01*
X600000D01*
X608000Y4808000D02*
Y4832000D01*
X632000D01*
Y4808000D01*
X608000D01*
X600000Y4600000D02*
Y4640000D01*
X640000D01*
Y4600000D01*
X600000D01*
X608000Y4608000D02*
Y4632000D01*
X632000D01*
Y4608000D01*
X608000D01*
X600000Y4200000D02*
Y4240000D01*
X640000D01*
Y4200000D01*
X600000D01*
X608000Y4208000D02*
Y4232000D01*
X632000D01*
Y4208000D01*
X608000D01*
X600000Y4000000D02*
Y4040000D01*
X640000D01*
Y4000000D01*
X600000D01*
X608000Y4008000D02*
Y4032000D01*
X632000D01*
Y4008000D01*
X608000D01*
X600000Y3600000D02*
Y3640000D01*
X640000D01*
Y3600000D01*
X600000D01*
X608000Y3608000D02*
Y3632000D01*
X632000D01*
Y3608000D01*
X608000D01*
X600000Y3400000D02*
Y3440000D01*
X640000D01*
Y3400000D01*
X600000D01*
X608000Y3408000D02*
Y3432000D01*
X632000D01*
Y3408000D01*
X608000D01*
X600000Y3200000D02*
Y3240000D01*
X640000D01*
Y3200000D01*
X600000D01*
X608000Y3208000D02*
Y3232000D01*
X632000D01*
Y3208000D01*
X608000D01*
X600000Y3000000D02*
Y3040000D01*
X640000D01*
Y3000000D01*
X600000D01*
X608000Y3008000D02*
Y3032000D01*
X632000D01*
Y3008000D01*
X608000D01*
X600000Y2800000D02*
Y2840000D01*
X640000D01*
Y2800000D01*
X600000D01*
X608000Y2808000D02*
Y2832000D01*
X632000D01*
Y2808000D01*
X608000D01*
X600000Y2600000D02*
Y2640000D01*
X640000D01*
Y2600000D01*
X600000D01*
X608000Y2608000D02*
Y2632000D01*
X632000D01*
Y2608000D01*
X608000D01*
X600000Y2400000D02*
Y2440000D01*
X640000D01*
Y2400000D01*
X600000D01*
X608000Y2408000D02*
Y2432000D01*
X632000D01*
Y2408000D01*
X608000D01*
X600000Y2200000D02*
Y2240000D01*
X640000D01*
Y2200000D01*
X600000D01*
X608000Y2208000D02*
Y2232000D01*
X632000D01*
Y2208000D01*
X608000D01*
X600000Y1800000D02*
Y1840000D01*
X640000D01*
Y1800000D01*
X600000D01*
X608000Y1808000D02*
Y1832000D01*
X632000D01*
Y1808000D01*
X608000D01*
X600000Y1600000D02*
Y1640000D01*
X640000D01*
Y1600000D01*
X600000D01*
X608000Y1608000D02*
Y1632000D01*
X632000D01*
Y1608000D01*
X608000D01*
X600000Y1400000D02*
Y1440000D01*
X640000D01*
Y1400000D01*
X600000D01*
X608000Y1408000D02*
Y1432000D01*
X632000D01*
Y1408000D01*
X608000D01*
X600000Y1200000D02*
Y1240000D01*
X640000D01*
Y1200000D01*
X600000D01*
X608000Y1208000D02*
Y1232000D01*
X632000D01*
Y1208000D01*
X608000D01*
X600000Y1000000D02*
Y1040000D01*
X640000D01*
Y1000000D01*
X600000D01*
X608000Y1008000D02*
Y1032000D01*
X632000D01*
Y1008000D01*
X608000D01*
X7500000Y4650000D02*
Y4690000D01*
X7540000D01*
Y4650000D01*
X7500000D01*
X7508000Y4658000D02*
Y4682000D01*
X7532000D01*
Y4658000D01*
X7508000D01*
X7500000Y4500000D02*
Y4540000D01*
X7540000D01*
Y4500000D01*
X7500000D01*
X7508000Y4508000D02*
Y4532000D01*
X7532000D01*
Y4508000D01*
X7508000D01*
X7500000Y3750000D02*
Y3790000D01*
X7540000D01*
Y3750000D01*
X7500000D01*
X7508000Y3758000D02*
Y3782000D01*
X7532000D01*
Y3758000D01*
X7508000D01*
X7500000Y3600000D02*
Y3640000D01*
X7540000D01*
Y3600000D01*
X7500000D01*
X7508000Y3608000D02*
Y3632000D01*
X7532000D01*
Y3608000D01*
X7508000D01*
X7500000Y3450000D02*
Y3490000D01*
X7540000D01*
Y3450000D01*
X7500000D01*
X7508000Y3458000D02*
Y3482000D01*
X7532000D01*
Y3458000D01*
X7508000D01*
X7500000Y3300000D02*
Y3340000D01*
X7540000D01*
Y3300000D01*
X7500000D01*
X7508000Y3308000D02*
Y3332000D01*
X7532000D01*
Y3308000D01*
X7508000D01*
X7500000Y3150000D02*
Y3190000D01*
X7540000D01*
Y3150000D01*
X7500000D01*
X7508000Y3158000D02*
Y3182000D01*
X7532000D01*
Y3158000D01*
X7508000D01*
X7500000Y3000000D02*
Y3040000D01*
X7540000D01*
Y3000000D01*
X7500000D01*
X7508000Y3008000D02*
Y3032000D01*
X7532000D01*
Y3008000D01*
X7508000D01*
X7500000Y2850000D02*
Y2890000D01*
X7540000D01*
Y2850000D01*
X7500000D01*
X7508000Y2858000D02*
Y2882000D01*
X7532000D01*
Y2858000D01*
X7508000D01*
X7500000Y2700000D02*
Y2740000D01*
X7540000D01*
Y2700000D01*
X7500000D01*
X7508000Y2708000D02*
Y2732000D01*
X7532000D01*
Y2708000D01*
X7508000D01*
X7500000Y2550000D02*
Y2590000D01*
X7540000D01*
Y2550000D01*
X7500000D01*
X7508000Y2558000D02*
Y2582000D01*
X7532000D01*
Y2558000D01*
X7508000D01*
X7500000Y2400000D02*
Y2440000D01*
X7540000D01*
Y2400000D01*
X7500000D01*
X7508000Y2408000D02*
Y2432000D01*
X7532000D01*
Y2408000D01*
X7508000D01*
X7500000Y2100000D02*
Y2140000D01*
X7540000D01*
Y2100000D01*
X7500000D01*
X7508000Y2108000D02*
Y2132000D01*
X7532000D01*
Y2108000D01*
X7508000D01*
X7500000Y1950000D02*
Y1990000D01*
X7540000D01*
Y1950000D01*
X7500000D01*
X7508000Y1958000D02*
Y1982000D01*
X7532000D01*
Y1958000D01*
X7508000D01*
X7500000Y1800000D02*
Y1840000D01*
X7540000D01*
Y1800000D01*
X7500000D01*
X7508000Y1808000D02*
Y1832000D01*
X7532000D01*
Y1808000D01*
X7508000D01*
X7500000Y1650000D02*
Y1690000D01*
X7540000D01*
Y1650000D01*
X7500000D01*
X7508000Y1658000D02*
Y1682000D01*
X7532000D01*
Y1658000D01*
X7508000D01*
X7500000Y1500000D02*
Y1540000D01*
X7540000D01*
Y1500000D01*
X7500000D01*
X7508000Y1508000D02*
Y1532000D01*
X7532000D01*
Y1508000D01*
X7508000D01*
X7500000Y1200000D02*
Y1240000D01*
X7540000D01*
Y1200000D01*
X7500000D01*
X7508000Y1208000D02*
Y1232000D01*
X7532000D01*
Y1208000D01*
X7508000D01*
X7350000Y4650000D02*
Y4690000D01*
X7390000D01*
Y4650000D01*
X7350000D01*
X7358000Y4658000D02*
Y4682000D01*
X7382000D01*
Y4658000D01*
X7358000D01*
X7350000Y4500000D02*
Y4540000D01*
X7390000D01*
Y4500000D01*
X7350000D01*
X7358000Y4508000D02*
Y4532000D01*
X7382000D01*
Y4508000D01*
X7358000D01*
X7350000Y4350000D02*
Y4390000D01*
X7390000D01*
Y4350000D01*
X7350000D01*
X7358000Y4358000D02*
Y4382000D01*
X7382000D01*
Y4358000D01*
X7358000D01*
X7350000Y4200000D02*
Y4240000D01*
X7390000D01*
Y4200000D01*
X7350000D01*
X7358000Y4208000D02*
Y4232000D01*
X7382000D01*
Y4208000D01*
X7358000D01*
X7350000Y4050000D02*
Y4090000D01*
X7390000D01*
Y4050000D01*
X7350000D01*
X7358000Y4058000D02*
Y4082000D01*
X7382000D01*
Y4058000D01*
X7358000D01*
X7350000Y3750000D02*
Y3790000D01*
X7390000D01*
Y3750000D01*
X7350000D01*
X7358000Y3758000D02*
Y3782000D01*
X7382000D01*
Y3758000D01*
X7358000D01*
X7350000Y3150000D02*
Y3190000D01*
X7390000D01*
Y3150000D01*
X7350000D01*
X7358000Y3158000D02*
Y3182000D01*
X7382000D01*
Y3158000D01*
X7358000D01*
X7350000Y3000000D02*
Y3040000D01*
X7390000D01*
Y3000000D01*
X7350000D01*
X7358000Y3008000D02*
Y3032000D01*
X7382000D01*
Y3008000D01*
X7358000D01*
X7350000Y2850000D02*
Y2890000D01*
X7390000D01*
Y2850000D01*
X7350000D01*
X7358000Y2858000D02*
Y2882000D01*
X7382000D01*
Y2858000D01*
X7358000D01*
X7350000Y2700000D02*
Y2740000D01*
X7390000D01*
Y2700000D01*
X7350000D01*
X7358000Y2708000D02*
Y2732000D01*
X7382000D01*
Y2708000D01*
X7358000D01*
X7350000Y2550000D02*
Y2590000D01*
X7390000D01*
Y2550000D01*
X7350000D01*
X7358000Y2558000D02*
Y2582000D01*
X7382000D01*
Y2558000D01*
X7358000D01*
X7350000Y1500000D02*
Y1540000D01*
X7390000D01*
Y1500000D01*
X7350000D01*
X7358000Y1508000D02*
Y1532000D01*
X7382000D01*
Y1508000D01*
X7358000D01*
X7350000Y1200000D02*
Y1240000D01*
X7390000D01*
Y1200000D01*
X7350000D01*
X7358000Y1208000D02*
Y1232000D01*
X7382000D01*
Y1208000D01*
X7358000D01*
X7200000Y4500000D02*
Y4540000D01*
X7240000D01*
Y4500000D01*
X7200000D01*
X7208000Y4508000D02*
Y4532000D01*
X7232000D01*
Y4508000D01*
X7208000D01*
X7200000Y4350000D02*
Y4390000D01*
X7240000D01*
Y4350000D01*
X7200000D01*
X7208000Y4358000D02*
Y4382000D01*
X7232000D01*
Y4358000D01*
X7208000D01*
X7200000Y4200000D02*
Y4240000D01*
X7240000D01*
Y4200000D01*
X7200000D01*
X7208000Y4208000D02*
Y4232000D01*
X7232000D01*
Y4208000D01*
X7208000D01*
X7200000Y4050000D02*
Y4090000D01*
X7240000D01*
Y4050000D01*
X7200000D01*
X7208000Y4058000D02*
Y4082000D01*
X7232000D01*
Y4058000D01*
X7208000D01*
X7200000Y3750000D02*
Y3790000D01*
X7240000D01*
Y3750000D01*
X7200000D01*
X7208000Y3758000D02*
Y3782000D01*
X7232000D01*
Y3758000D01*
X7208000D01*
X7200000Y3600000D02*
Y3640000D01*
X7240000D01*
Y3600000D01*
X7200000D01*
X7208000Y3608000D02*
Y3632000D01*
X7232000D01*
Y3608000D01*
X7208000D01*
X7200000Y3150000D02*
Y3190000D01*
X7240000D01*
Y3150000D01*
X7200000D01*
X7208000Y3158000D02*
Y3182000D01*
X7232000D01*
Y3158000D01*
X7208000D01*
X7200000Y3000000D02*
Y3040000D01*
X7240000D01*
Y3000000D01*
X7200000D01*
X7208000Y3008000D02*
Y3032000D01*
X7232000D01*
Y3008000D01*
X7208000D01*
X7200000Y2850000D02*
Y2890000D01*
X7240000D01*
Y2850000D01*
X7200000D01*
X7208000Y2858000D02*
Y2882000D01*
X7232000D01*
Y2858000D01*
X7208000D01*
X7200000Y2700000D02*
Y2740000D01*
X7240000D01*
Y2700000D01*
X7200000D01*
X7208000Y2708000D02*
Y2732000D01*
X7232000D01*
Y2708000D01*
X7208000D01*
X7200000Y2400000D02*
Y2440000D01*
X7240000D01*
Y2400000D01*
X7200000D01*
X7208000Y2408000D02*
Y2432000D01*
X7232000D01*
Y2408000D01*
X7208000D01*
X7200000Y1950000D02*
Y1990000D01*
X7240000D01*
Y1950000D01*
X7200000D01*
X7208000Y1958000D02*
Y1982000D01*
X7232000D01*
Y1958000D01*
X7208000D01*
X7200000Y1800000D02*
Y1840000D01*
X7240000D01*
Y1800000D01*
X7200000D01*
X7208000Y1808000D02*
Y1832000D01*
X7232000D01*
Y1808000D01*
X7208000D01*
X7200000Y1650000D02*
Y1690000D01*
X7240000D01*
Y1650000D01*
X7200000D01*
X7208000Y1658000D02*
Y1682000D01*
X7232000D01*
Y1658000D01*
X7208000D01*
X7200000Y1500000D02*
Y1540000D01*
X7240000D01*
Y1500000D01*
X7200000D01*
X7208000Y1508000D02*
Y1532000D01*
X7232000D01*
Y1508000D01*
X7208000D01*
X7200000Y1050000D02*
Y1090000D01*
X7240000D01*
Y1050000D01*
X7200000D01*
X7208000Y1058000D02*
Y1082000D01*
X7232000D01*
Y1058000D01*
X7208000D01*
X7050000Y4650000D02*
Y4690000D01*
X7090000D01*
Y4650000D01*
X7050000D01*
X7058000Y4658000D02*
Y4682000D01*
X7082000D01*
Y4658000D01*
X7058000D01*
X7050000Y1200000D02*
Y1240000D01*
X7090000D01*
Y1200000D01*
X7050000D01*
X7058000Y1208000D02*
Y1232000D01*
X7082000D01*
Y1208000D01*
X7058000D01*
X6900000Y4500000D02*
Y4540000D01*
X6940000D01*
Y4500000D01*
X6900000D01*
X6908000Y4508000D02*
Y4532000D01*
X6932000D01*
Y4508000D01*
X6908000D01*
X6900000Y1200000D02*
Y1240000D01*
X6940000D01*
Y1200000D01*
X6900000D01*
X6908000Y1208000D02*
Y1232000D01*
X6932000D01*
Y1208000D01*
X6908000D01*
X6750000Y4650000D02*
Y4690000D01*
X6790000D01*
Y4650000D01*
X6750000D01*
X6758000Y4658000D02*
Y4682000D01*
X6782000D01*
Y4658000D01*
X6758000D01*
X6750000Y4500000D02*
Y4540000D01*
X6790000D01*
Y4500000D01*
X6750000D01*
X6758000Y4508000D02*
Y4532000D01*
X6782000D01*
Y4508000D01*
X6758000D01*
X6750000Y1200000D02*
Y1240000D01*
X6790000D01*
Y1200000D01*
X6750000D01*
X6758000Y1208000D02*
Y1232000D01*
X6782000D01*
Y1208000D01*
X6758000D01*
X6600000Y4650000D02*
Y4690000D01*
X6640000D01*
Y4650000D01*
X6600000D01*
X6608000Y4658000D02*
Y4682000D01*
X6632000D01*
Y4658000D01*
X6608000D01*
X6600000Y4500000D02*
Y4540000D01*
X6640000D01*
Y4500000D01*
X6600000D01*
X6608000Y4508000D02*
Y4532000D01*
X6632000D01*
Y4508000D01*
X6608000D01*
X6600000Y3600000D02*
Y3640000D01*
X6640000D01*
Y3600000D01*
X6600000D01*
X6608000Y3608000D02*
Y3632000D01*
X6632000D01*
Y3608000D01*
X6608000D01*
X6600000Y3450000D02*
Y3490000D01*
X6640000D01*
Y3450000D01*
X6600000D01*
X6608000Y3458000D02*
Y3482000D01*
X6632000D01*
Y3458000D01*
X6608000D01*
X6600000Y3300000D02*
Y3340000D01*
X6640000D01*
Y3300000D01*
X6600000D01*
X6608000Y3308000D02*
Y3332000D01*
X6632000D01*
Y3308000D01*
X6608000D01*
X6600000Y3000000D02*
Y3040000D01*
X6640000D01*
Y3000000D01*
X6600000D01*
X6608000Y3008000D02*
Y3032000D01*
X6632000D01*
Y3008000D01*
X6608000D01*
X6600000Y2700000D02*
Y2740000D01*
X6640000D01*
Y2700000D01*
X6600000D01*
X6608000Y2708000D02*
Y2732000D01*
X6632000D01*
Y2708000D01*
X6608000D01*
X6600000Y1800000D02*
Y1840000D01*
X6640000D01*
Y1800000D01*
X6600000D01*
X6608000Y1808000D02*
Y1832000D01*
X6632000D01*
Y1808000D01*
X6608000D01*
X6600000Y1650000D02*
Y1690000D01*
X6640000D01*
Y1650000D01*
X6600000D01*
X6608000Y1658000D02*
Y1682000D01*
X6632000D01*
Y1658000D01*
X6608000D01*
X6600000Y1500000D02*
Y1540000D01*
X6640000D01*
Y1500000D01*
X6600000D01*
X6608000Y1508000D02*
Y1532000D01*
X6632000D01*
Y1508000D01*
X6608000D01*
X6450000Y4800000D02*
Y4840000D01*
X6490000D01*
Y4800000D01*
X6450000D01*
X6458000Y4808000D02*
Y4832000D01*
X6482000D01*
Y4808000D01*
X6458000D01*
X6450000Y4500000D02*
Y4540000D01*
X6490000D01*
Y4500000D01*
X6450000D01*
X6458000Y4508000D02*
Y4532000D01*
X6482000D01*
Y4508000D01*
X6458000D01*
X6450000Y4050000D02*
Y4090000D01*
X6490000D01*
Y4050000D01*
X6450000D01*
X6458000Y4058000D02*
Y4082000D01*
X6482000D01*
Y4058000D01*
X6458000D01*
X6450000Y3900000D02*
Y3940000D01*
X6490000D01*
Y3900000D01*
X6450000D01*
X6458000Y3908000D02*
Y3932000D01*
X6482000D01*
Y3908000D01*
X6458000D01*
X6450000Y2700000D02*
Y2740000D01*
X6490000D01*
Y2700000D01*
X6450000D01*
X6458000Y2708000D02*
Y2732000D01*
X6482000D01*
Y2708000D01*
X6458000D01*
X6450000Y2100000D02*
Y2140000D01*
X6490000D01*
Y2100000D01*
X6450000D01*
X6458000Y2108000D02*
Y2132000D01*
X6482000D01*
Y2108000D01*
X6458000D01*
X6450000Y1800000D02*
Y1840000D01*
X6490000D01*
Y1800000D01*
X6450000D01*
X6458000Y1808000D02*
Y1832000D01*
X6482000D01*
Y1808000D01*
X6458000D01*
X6450000Y1650000D02*
Y1690000D01*
X6490000D01*
Y1650000D01*
X6450000D01*
X6458000Y1658000D02*
Y1682000D01*
X6482000D01*
Y1658000D01*
X6458000D01*
X6450000Y1500000D02*
Y1540000D01*
X6490000D01*
Y1500000D01*
X6450000D01*
X6458000Y1508000D02*
Y1532000D01*
X6482000D01*
Y1508000D01*
X6458000D01*
X6300000Y4800000D02*
Y4840000D01*
X6340000D01*
Y4800000D01*
X6300000D01*
X6308000Y4808000D02*
Y4832000D01*
X6332000D01*
Y4808000D01*
X6308000D01*
X6300000Y4650000D02*
Y4690000D01*
X6340000D01*
Y4650000D01*
X6300000D01*
X6308000Y4658000D02*
Y4682000D01*
X6332000D01*
Y4658000D01*
X6308000D01*
X6300000Y4200000D02*
Y4240000D01*
X6340000D01*
Y4200000D01*
X6300000D01*
X6308000Y4208000D02*
Y4232000D01*
X6332000D01*
Y4208000D01*
X6308000D01*
X6300000Y4050000D02*
Y4090000D01*
X6340000D01*
Y4050000D01*
X6300000D01*
X6308000Y4058000D02*
Y4082000D01*
X6332000D01*
Y4058000D01*
X6308000D01*
X6300000Y3900000D02*
Y3940000D01*
X6340000D01*
Y3900000D01*
X6300000D01*
X6308000Y3908000D02*
Y3932000D01*
X6332000D01*
Y3908000D01*
X6308000D01*
X6300000Y3750000D02*
Y3790000D01*
X6340000D01*
Y3750000D01*
X6300000D01*
X6308000Y3758000D02*
Y3782000D01*
X6332000D01*
Y3758000D01*
X6308000D01*
X6300000Y2550000D02*
Y2590000D01*
X6340000D01*
Y2550000D01*
X6300000D01*
X6308000Y2558000D02*
Y2582000D01*
X6332000D01*
Y2558000D01*
X6308000D01*
X6300000Y1800000D02*
Y1840000D01*
X6340000D01*
Y1800000D01*
X6300000D01*
X6308000Y1808000D02*
Y1832000D01*
X6332000D01*
Y1808000D01*
X6308000D01*
X6300000Y1650000D02*
Y1690000D01*
X6340000D01*
Y1650000D01*
X6300000D01*
X6308000Y1658000D02*
Y1682000D01*
X6332000D01*
Y1658000D01*
X6308000D01*
X6300000Y1500000D02*
Y1540000D01*
X6340000D01*
Y1500000D01*
X6300000D01*
X6308000Y1508000D02*
Y1532000D01*
X6332000D01*
Y1508000D01*
X6308000D01*
X6150000Y4800000D02*
Y4840000D01*
X6190000D01*
Y4800000D01*
X6150000D01*
X6158000Y4808000D02*
Y4832000D01*
X6182000D01*
Y4808000D01*
X6158000D01*
X6150000Y4650000D02*
Y4690000D01*
X6190000D01*
Y4650000D01*
X6150000D01*
X6158000Y4658000D02*
Y4682000D01*
X6182000D01*
Y4658000D01*
X6158000D01*
X6150000Y4500000D02*
Y4540000D01*
X6190000D01*
Y4500000D01*
X6150000D01*
X6158000Y4508000D02*
Y4532000D01*
X6182000D01*
Y4508000D01*
X6158000D01*
X6150000Y4200000D02*
Y4240000D01*
X6190000D01*
Y4200000D01*
X6150000D01*
X6158000Y4208000D02*
Y4232000D01*
X6182000D01*
Y4208000D01*
X6158000D01*
X6150000Y4050000D02*
Y4090000D01*
X6190000D01*
Y4050000D01*
X6150000D01*
X6158000Y4058000D02*
Y4082000D01*
X6182000D01*
Y4058000D01*
X6158000D01*
X6150000Y3900000D02*
Y3940000D01*
X6190000D01*
Y3900000D01*
X6150000D01*
X6158000Y3908000D02*
Y3932000D01*
X6182000D01*
Y3908000D01*
X6158000D01*
X6150000Y3750000D02*
Y3790000D01*
X6190000D01*
Y3750000D01*
X6150000D01*
X6158000Y3758000D02*
Y3782000D01*
X6182000D01*
Y3758000D01*
X6158000D01*
X6150000Y3600000D02*
Y3640000D01*
X6190000D01*
Y3600000D01*
X6150000D01*
X6158000Y3608000D02*
Y3632000D01*
X6182000D01*
Y3608000D01*
X6158000D01*
X6150000Y3450000D02*
Y3490000D01*
X6190000D01*
Y3450000D01*
X6150000D01*
X6158000Y3458000D02*
Y3482000D01*
X6182000D01*
Y3458000D01*
X6158000D01*
X6150000Y3300000D02*
Y3340000D01*
X6190000D01*
Y3300000D01*
X6150000D01*
X6158000Y3308000D02*
Y3332000D01*
X6182000D01*
Y3308000D01*
X6158000D01*
X6150000Y3000000D02*
Y3040000D01*
X6190000D01*
Y3000000D01*
X6150000D01*
X6158000Y3008000D02*
Y3032000D01*
X6182000D01*
Y3008000D01*
X6158000D01*
X6150000Y2850000D02*
Y2890000D01*
X6190000D01*
Y2850000D01*
X6150000D01*
X6158000Y2858000D02*
Y2882000D01*
X6182000D01*
Y2858000D01*
X6158000D01*
X6150000Y1800000D02*
Y1840000D01*
X6190000D01*
Y1800000D01*
X6150000D01*
X6158000Y1808000D02*
Y1832000D01*
X6182000D01*
Y1808000D01*
X6158000D01*
X6150000Y1650000D02*
Y1690000D01*
X6190000D01*
Y1650000D01*
X6150000D01*
X6158000Y1658000D02*
Y1682000D01*
X6182000D01*
Y1658000D01*
X6158000D01*
X6150000Y1500000D02*
Y1540000D01*
X6190000D01*
Y1500000D01*
X6150000D01*
X6158000Y1508000D02*
Y1532000D01*
X6182000D01*
Y1508000D01*
X6158000D01*
X6000000Y4800000D02*
Y4840000D01*
X6040000D01*
Y4800000D01*
X6000000D01*
X6008000Y4808000D02*
Y4832000D01*
X6032000D01*
Y4808000D01*
X6008000D01*
X6000000Y4650000D02*
Y4690000D01*
X6040000D01*
Y4650000D01*
X6000000D01*
X6008000Y4658000D02*
Y4682000D01*
X6032000D01*
Y4658000D01*
X6008000D01*
X6000000Y4500000D02*
Y4540000D01*
X6040000D01*
Y4500000D01*
X6000000D01*
X6008000Y4508000D02*
Y4532000D01*
X6032000D01*
Y4508000D01*
X6008000D01*
X6000000Y4200000D02*
Y4240000D01*
X6040000D01*
Y4200000D01*
X6000000D01*
X6008000Y4208000D02*
Y4232000D01*
X6032000D01*
Y4208000D01*
X6008000D01*
X6000000Y3900000D02*
Y3940000D01*
X6040000D01*
Y3900000D01*
X6000000D01*
X6008000Y3908000D02*
Y3932000D01*
X6032000D01*
Y3908000D01*
X6008000D01*
X6000000Y3750000D02*
Y3790000D01*
X6040000D01*
Y3750000D01*
X6000000D01*
X6008000Y3758000D02*
Y3782000D01*
X6032000D01*
Y3758000D01*
X6008000D01*
X6000000Y3600000D02*
Y3640000D01*
X6040000D01*
Y3600000D01*
X6000000D01*
X6008000Y3608000D02*
Y3632000D01*
X6032000D01*
Y3608000D01*
X6008000D01*
X6000000Y3450000D02*
Y3490000D01*
X6040000D01*
Y3450000D01*
X6000000D01*
X6008000Y3458000D02*
Y3482000D01*
X6032000D01*
Y3458000D01*
X6008000D01*
X6000000Y3300000D02*
Y3340000D01*
X6040000D01*
Y3300000D01*
X6000000D01*
X6008000Y3308000D02*
Y3332000D01*
X6032000D01*
Y3308000D01*
X6008000D01*
X6000000Y3000000D02*
Y3040000D01*
X6040000D01*
Y3000000D01*
X6000000D01*
X6008000Y3008000D02*
Y3032000D01*
X6032000D01*
Y3008000D01*
X6008000D01*
X5850000Y4800000D02*
Y4840000D01*
X5890000D01*
Y4800000D01*
X5850000D01*
X5858000Y4808000D02*
Y4832000D01*
X5882000D01*
Y4808000D01*
X5858000D01*
X5850000Y4650000D02*
Y4690000D01*
X5890000D01*
Y4650000D01*
X5850000D01*
X5858000Y4658000D02*
Y4682000D01*
X5882000D01*
Y4658000D01*
X5858000D01*
X5850000Y4500000D02*
Y4540000D01*
X5890000D01*
Y4500000D01*
X5850000D01*
X5858000Y4508000D02*
Y4532000D01*
X5882000D01*
Y4508000D01*
X5858000D01*
X5850000Y4200000D02*
Y4240000D01*
X5890000D01*
Y4200000D01*
X5850000D01*
X5858000Y4208000D02*
Y4232000D01*
X5882000D01*
Y4208000D01*
X5858000D01*
X5850000Y3900000D02*
Y3940000D01*
X5890000D01*
Y3900000D01*
X5850000D01*
X5858000Y3908000D02*
Y3932000D01*
X5882000D01*
Y3908000D01*
X5858000D01*
X5850000Y3750000D02*
Y3790000D01*
X5890000D01*
Y3750000D01*
X5850000D01*
X5858000Y3758000D02*
Y3782000D01*
X5882000D01*
Y3758000D01*
X5858000D01*
X5850000Y3600000D02*
Y3640000D01*
X5890000D01*
Y3600000D01*
X5850000D01*
X5858000Y3608000D02*
Y3632000D01*
X5882000D01*
Y3608000D01*
X5858000D01*
X5850000Y3450000D02*
Y3490000D01*
X5890000D01*
Y3450000D01*
X5850000D01*
X5858000Y3458000D02*
Y3482000D01*
X5882000D01*
Y3458000D01*
X5858000D01*
X5850000Y3300000D02*
Y3340000D01*
X5890000D01*
Y3300000D01*
X5850000D01*
X5858000Y3308000D02*
Y3332000D01*
X5882000D01*
Y3308000D01*
X5858000D01*
X5850000Y2850000D02*
Y2890000D01*
X5890000D01*
Y2850000D01*
X5850000D01*
X5858000Y2858000D02*
Y2882000D01*
X5882000D01*
Y2858000D01*
X5858000D01*
X5850000Y2700000D02*
Y2740000D01*
X5890000D01*
Y2700000D01*
X5850000D01*
X5858000Y2708000D02*
Y2732000D01*
X5882000D01*
Y2708000D01*
X5858000D01*
X5850000Y2100000D02*
Y2140000D01*
X5890000D01*
Y2100000D01*
X5850000D01*
X5858000Y2108000D02*
Y2132000D01*
X5882000D01*
Y2108000D01*
X5858000D01*
X5700000Y4650000D02*
Y4690000D01*
X5740000D01*
Y4650000D01*
X5700000D01*
X5708000Y4658000D02*
Y4682000D01*
X5732000D01*
Y4658000D01*
X5708000D01*
X5700000Y4500000D02*
Y4540000D01*
X5740000D01*
Y4500000D01*
X5700000D01*
X5708000Y4508000D02*
Y4532000D01*
X5732000D01*
Y4508000D01*
X5708000D01*
X5700000Y4200000D02*
Y4240000D01*
X5740000D01*
Y4200000D01*
X5700000D01*
X5708000Y4208000D02*
Y4232000D01*
X5732000D01*
Y4208000D01*
X5708000D01*
X5700000Y3900000D02*
Y3940000D01*
X5740000D01*
Y3900000D01*
X5700000D01*
X5708000Y3908000D02*
Y3932000D01*
X5732000D01*
Y3908000D01*
X5708000D01*
X5700000Y3750000D02*
Y3790000D01*
X5740000D01*
Y3750000D01*
X5700000D01*
X5708000Y3758000D02*
Y3782000D01*
X5732000D01*
Y3758000D01*
X5708000D01*
X5700000Y3600000D02*
Y3640000D01*
X5740000D01*
Y3600000D01*
X5700000D01*
X5708000Y3608000D02*
Y3632000D01*
X5732000D01*
Y3608000D01*
X5708000D01*
X5700000Y3450000D02*
Y3490000D01*
X5740000D01*
Y3450000D01*
X5700000D01*
X5708000Y3458000D02*
Y3482000D01*
X5732000D01*
Y3458000D01*
X5708000D01*
X5700000Y3300000D02*
Y3340000D01*
X5740000D01*
Y3300000D01*
X5700000D01*
X5708000Y3308000D02*
Y3332000D01*
X5732000D01*
Y3308000D01*
X5708000D01*
X5700000Y3000000D02*
Y3040000D01*
X5740000D01*
Y3000000D01*
X5700000D01*
X5708000Y3008000D02*
Y3032000D01*
X5732000D01*
Y3008000D01*
X5708000D01*
X5700000Y2850000D02*
Y2890000D01*
X5740000D01*
Y2850000D01*
X5700000D01*
X5708000Y2858000D02*
Y2882000D01*
X5732000D01*
Y2858000D01*
X5708000D01*
X5700000Y2700000D02*
Y2740000D01*
X5740000D01*
Y2700000D01*
X5700000D01*
X5708000Y2708000D02*
Y2732000D01*
X5732000D01*
Y2708000D01*
X5708000D01*
X5700000Y1200000D02*
Y1240000D01*
X5740000D01*
Y1200000D01*
X5700000D01*
X5708000Y1208000D02*
Y1232000D01*
X5732000D01*
Y1208000D01*
X5708000D01*
X5550000Y4800000D02*
Y4840000D01*
X5590000D01*
Y4800000D01*
X5550000D01*
X5558000Y4808000D02*
Y4832000D01*
X5582000D01*
Y4808000D01*
X5558000D01*
X5550000Y4500000D02*
Y4540000D01*
X5590000D01*
Y4500000D01*
X5550000D01*
X5558000Y4508000D02*
Y4532000D01*
X5582000D01*
Y4508000D01*
X5558000D01*
X5550000Y4200000D02*
Y4240000D01*
X5590000D01*
Y4200000D01*
X5550000D01*
X5558000Y4208000D02*
Y4232000D01*
X5582000D01*
Y4208000D01*
X5558000D01*
X5550000Y3900000D02*
Y3940000D01*
X5590000D01*
Y3900000D01*
X5550000D01*
X5558000Y3908000D02*
Y3932000D01*
X5582000D01*
Y3908000D01*
X5558000D01*
X5550000Y3750000D02*
Y3790000D01*
X5590000D01*
Y3750000D01*
X5550000D01*
X5558000Y3758000D02*
Y3782000D01*
X5582000D01*
Y3758000D01*
X5558000D01*
X5550000Y3600000D02*
Y3640000D01*
X5590000D01*
Y3600000D01*
X5550000D01*
X5558000Y3608000D02*
Y3632000D01*
X5582000D01*
Y3608000D01*
X5558000D01*
X5550000Y3450000D02*
Y3490000D01*
X5590000D01*
Y3450000D01*
X5550000D01*
X5558000Y3458000D02*
Y3482000D01*
X5582000D01*
Y3458000D01*
X5558000D01*
X5550000Y2250000D02*
Y2290000D01*
X5590000D01*
Y2250000D01*
X5550000D01*
X5558000Y2258000D02*
Y2282000D01*
X5582000D01*
Y2258000D01*
X5558000D01*
X5400000Y4800000D02*
Y4840000D01*
X5440000D01*
Y4800000D01*
X5400000D01*
X5408000Y4808000D02*
Y4832000D01*
X5432000D01*
Y4808000D01*
X5408000D01*
X5400000Y4650000D02*
Y4690000D01*
X5440000D01*
Y4650000D01*
X5400000D01*
X5408000Y4658000D02*
Y4682000D01*
X5432000D01*
Y4658000D01*
X5408000D01*
X5400000Y4200000D02*
Y4240000D01*
X5440000D01*
Y4200000D01*
X5400000D01*
X5408000Y4208000D02*
Y4232000D01*
X5432000D01*
Y4208000D01*
X5408000D01*
X5400000Y3900000D02*
Y3940000D01*
X5440000D01*
Y3900000D01*
X5400000D01*
X5408000Y3908000D02*
Y3932000D01*
X5432000D01*
Y3908000D01*
X5408000D01*
X5400000Y3750000D02*
Y3790000D01*
X5440000D01*
Y3750000D01*
X5400000D01*
X5408000Y3758000D02*
Y3782000D01*
X5432000D01*
Y3758000D01*
X5408000D01*
X5400000Y3600000D02*
Y3640000D01*
X5440000D01*
Y3600000D01*
X5400000D01*
X5408000Y3608000D02*
Y3632000D01*
X5432000D01*
Y3608000D01*
X5408000D01*
X5400000Y3450000D02*
Y3490000D01*
X5440000D01*
Y3450000D01*
X5400000D01*
X5408000Y3458000D02*
Y3482000D01*
X5432000D01*
Y3458000D01*
X5408000D01*
X5400000Y2100000D02*
Y2140000D01*
X5440000D01*
Y2100000D01*
X5400000D01*
X5408000Y2108000D02*
Y2132000D01*
X5432000D01*
Y2108000D01*
X5408000D01*
X5400000Y1950000D02*
Y1990000D01*
X5440000D01*
Y1950000D01*
X5400000D01*
X5408000Y1958000D02*
Y1982000D01*
X5432000D01*
Y1958000D01*
X5408000D01*
X5400000Y1800000D02*
Y1840000D01*
X5440000D01*
Y1800000D01*
X5400000D01*
X5408000Y1808000D02*
Y1832000D01*
X5432000D01*
Y1808000D01*
X5408000D01*
X5400000Y1650000D02*
Y1690000D01*
X5440000D01*
Y1650000D01*
X5400000D01*
X5408000Y1658000D02*
Y1682000D01*
X5432000D01*
Y1658000D01*
X5408000D01*
X5400000Y1500000D02*
Y1540000D01*
X5440000D01*
Y1500000D01*
X5400000D01*
X5408000Y1508000D02*
Y1532000D01*
X5432000D01*
Y1508000D01*
X5408000D01*
X5400000Y1350000D02*
Y1390000D01*
X5440000D01*
Y1350000D01*
X5400000D01*
X5408000Y1358000D02*
Y1382000D01*
X5432000D01*
Y1358000D01*
X5408000D01*
X5400000Y1200000D02*
Y1240000D01*
X5440000D01*
Y1200000D01*
X5400000D01*
X5408000Y1208000D02*
Y1232000D01*
X5432000D01*
Y1208000D01*
X5408000D01*
X5250000Y4800000D02*
Y4840000D01*
X5290000D01*
Y4800000D01*
X5250000D01*
X5258000Y4808000D02*
Y4832000D01*
X5282000D01*
Y4808000D01*
X5258000D01*
X5250000Y4650000D02*
Y4690000D01*
X5290000D01*
Y4650000D01*
X5250000D01*
X5258000Y4658000D02*
Y4682000D01*
X5282000D01*
Y4658000D01*
X5258000D01*
X5250000Y4500000D02*
Y4540000D01*
X5290000D01*
Y4500000D01*
X5250000D01*
X5258000Y4508000D02*
Y4532000D01*
X5282000D01*
Y4508000D01*
X5258000D01*
X5250000Y3750000D02*
Y3790000D01*
X5290000D01*
Y3750000D01*
X5250000D01*
X5258000Y3758000D02*
Y3782000D01*
X5282000D01*
Y3758000D01*
X5258000D01*
X5250000Y3600000D02*
Y3640000D01*
X5290000D01*
Y3600000D01*
X5250000D01*
X5258000Y3608000D02*
Y3632000D01*
X5282000D01*
Y3608000D01*
X5258000D01*
X5250000Y3450000D02*
Y3490000D01*
X5290000D01*
Y3450000D01*
X5250000D01*
X5258000Y3458000D02*
Y3482000D01*
X5282000D01*
Y3458000D01*
X5258000D01*
X5250000Y2850000D02*
Y2890000D01*
X5290000D01*
Y2850000D01*
X5250000D01*
X5258000Y2858000D02*
Y2882000D01*
X5282000D01*
Y2858000D01*
X5258000D01*
X5250000Y2700000D02*
Y2740000D01*
X5290000D01*
Y2700000D01*
X5250000D01*
X5258000Y2708000D02*
Y2732000D01*
X5282000D01*
Y2708000D01*
X5258000D01*
X5250000Y2550000D02*
Y2590000D01*
X5290000D01*
Y2550000D01*
X5250000D01*
X5258000Y2558000D02*
Y2582000D01*
X5282000D01*
Y2558000D01*
X5258000D01*
X5250000Y2100000D02*
Y2140000D01*
X5290000D01*
Y2100000D01*
X5250000D01*
X5258000Y2108000D02*
Y2132000D01*
X5282000D01*
Y2108000D01*
X5258000D01*
X5250000Y1950000D02*
Y1990000D01*
X5290000D01*
Y1950000D01*
X5250000D01*
X5258000Y1958000D02*
Y1982000D01*
X5282000D01*
Y1958000D01*
X5258000D01*
X5250000Y1800000D02*
Y1840000D01*
X5290000D01*
Y1800000D01*
X5250000D01*
X5258000Y1808000D02*
Y1832000D01*
X5282000D01*
Y1808000D01*
X5258000D01*
X5250000Y1650000D02*
Y1690000D01*
X5290000D01*
Y1650000D01*
X5250000D01*
X5258000Y1658000D02*
Y1682000D01*
X5282000D01*
Y1658000D01*
X5258000D01*
X5250000Y1500000D02*
Y1540000D01*
X5290000D01*
Y1500000D01*
X5250000D01*
X5258000Y1508000D02*
Y1532000D01*
X5282000D01*
Y1508000D01*
X5258000D01*
X5250000Y1350000D02*
Y1390000D01*
X5290000D01*
Y1350000D01*
X5250000D01*
X5258000Y1358000D02*
Y1382000D01*
X5282000D01*
Y1358000D01*
X5258000D01*
X5100000Y4800000D02*
Y4840000D01*
X5140000D01*
Y4800000D01*
X5100000D01*
X5108000Y4808000D02*
Y4832000D01*
X5132000D01*
Y4808000D01*
X5108000D01*
X5100000Y4650000D02*
Y4690000D01*
X5140000D01*
Y4650000D01*
X5100000D01*
X5108000Y4658000D02*
Y4682000D01*
X5132000D01*
Y4658000D01*
X5108000D01*
X5100000Y4500000D02*
Y4540000D01*
X5140000D01*
Y4500000D01*
X5100000D01*
X5108000Y4508000D02*
Y4532000D01*
X5132000D01*
Y4508000D01*
X5108000D01*
X5100000Y3750000D02*
Y3790000D01*
X5140000D01*
Y3750000D01*
X5100000D01*
X5108000Y3758000D02*
Y3782000D01*
X5132000D01*
Y3758000D01*
X5108000D01*
X5100000Y3600000D02*
Y3640000D01*
X5140000D01*
Y3600000D01*
X5100000D01*
X5108000Y3608000D02*
Y3632000D01*
X5132000D01*
Y3608000D01*
X5108000D01*
X5100000Y3450000D02*
Y3490000D01*
X5140000D01*
Y3450000D01*
X5100000D01*
X5108000Y3458000D02*
Y3482000D01*
X5132000D01*
Y3458000D01*
X5108000D01*
X5100000Y2100000D02*
Y2140000D01*
X5140000D01*
Y2100000D01*
X5100000D01*
X5108000Y2108000D02*
Y2132000D01*
X5132000D01*
Y2108000D01*
X5108000D01*
X5100000Y1950000D02*
Y1990000D01*
X5140000D01*
Y1950000D01*
X5100000D01*
X5108000Y1958000D02*
Y1982000D01*
X5132000D01*
Y1958000D01*
X5108000D01*
X5100000Y1800000D02*
Y1840000D01*
X5140000D01*
Y1800000D01*
X5100000D01*
X5108000Y1808000D02*
Y1832000D01*
X5132000D01*
Y1808000D01*
X5108000D01*
X5100000Y1650000D02*
Y1690000D01*
X5140000D01*
Y1650000D01*
X5100000D01*
X5108000Y1658000D02*
Y1682000D01*
X5132000D01*
Y1658000D01*
X5108000D01*
X5100000Y1500000D02*
Y1540000D01*
X5140000D01*
Y1500000D01*
X5100000D01*
X5108000Y1508000D02*
Y1532000D01*
X5132000D01*
Y1508000D01*
X5108000D01*
X5100000Y1050000D02*
Y1090000D01*
X5140000D01*
Y1050000D01*
X5100000D01*
X5108000Y1058000D02*
Y1082000D01*
X5132000D01*
Y1058000D01*
X5108000D01*
X4950000Y4800000D02*
Y4840000D01*
X4990000D01*
Y4800000D01*
X4950000D01*
X4958000Y4808000D02*
Y4832000D01*
X4982000D01*
Y4808000D01*
X4958000D01*
X4950000Y4650000D02*
Y4690000D01*
X4990000D01*
Y4650000D01*
X4950000D01*
X4958000Y4658000D02*
Y4682000D01*
X4982000D01*
Y4658000D01*
X4958000D01*
X4950000Y4500000D02*
Y4540000D01*
X4990000D01*
Y4500000D01*
X4950000D01*
X4958000Y4508000D02*
Y4532000D01*
X4982000D01*
Y4508000D01*
X4958000D01*
X4950000Y4200000D02*
Y4240000D01*
X4990000D01*
Y4200000D01*
X4950000D01*
X4958000Y4208000D02*
Y4232000D01*
X4982000D01*
Y4208000D01*
X4958000D01*
X4950000Y3750000D02*
Y3790000D01*
X4990000D01*
Y3750000D01*
X4950000D01*
X4958000Y3758000D02*
Y3782000D01*
X4982000D01*
Y3758000D01*
X4958000D01*
X4950000Y3600000D02*
Y3640000D01*
X4990000D01*
Y3600000D01*
X4950000D01*
X4958000Y3608000D02*
Y3632000D01*
X4982000D01*
Y3608000D01*
X4958000D01*
X4950000Y3450000D02*
Y3490000D01*
X4990000D01*
Y3450000D01*
X4950000D01*
X4958000Y3458000D02*
Y3482000D01*
X4982000D01*
Y3458000D01*
X4958000D01*
X4950000Y2100000D02*
Y2140000D01*
X4990000D01*
Y2100000D01*
X4950000D01*
X4958000Y2108000D02*
Y2132000D01*
X4982000D01*
Y2108000D01*
X4958000D01*
X4950000Y1950000D02*
Y1990000D01*
X4990000D01*
Y1950000D01*
X4950000D01*
X4958000Y1958000D02*
Y1982000D01*
X4982000D01*
Y1958000D01*
X4958000D01*
X4950000Y1800000D02*
Y1840000D01*
X4990000D01*
Y1800000D01*
X4950000D01*
X4958000Y1808000D02*
Y1832000D01*
X4982000D01*
Y1808000D01*
X4958000D01*
X4950000Y1650000D02*
Y1690000D01*
X4990000D01*
Y1650000D01*
X4950000D01*
X4958000Y1658000D02*
Y1682000D01*
X4982000D01*
Y1658000D01*
X4958000D01*
X4950000Y1200000D02*
Y1240000D01*
X4990000D01*
Y1200000D01*
X4950000D01*
X4958000Y1208000D02*
Y1232000D01*
X4982000D01*
Y1208000D01*
X4958000D01*
X4950000Y1050000D02*
Y1090000D01*
X4990000D01*
Y1050000D01*
X4950000D01*
X4958000Y1058000D02*
Y1082000D01*
X4982000D01*
Y1058000D01*
X4958000D01*
X4800000Y4800000D02*
Y4840000D01*
X4840000D01*
Y4800000D01*
X4800000D01*
X4808000Y4808000D02*
Y4832000D01*
X4832000D01*
Y4808000D01*
X4808000D01*
X4800000Y4650000D02*
Y4690000D01*
X4840000D01*
Y4650000D01*
X4800000D01*
X4808000Y4658000D02*
Y4682000D01*
X4832000D01*
Y4658000D01*
X4808000D01*
X4800000Y4500000D02*
Y4540000D01*
X4840000D01*
Y4500000D01*
X4800000D01*
X4808000Y4508000D02*
Y4532000D01*
X4832000D01*
Y4508000D01*
X4808000D01*
X4800000Y4200000D02*
Y4240000D01*
X4840000D01*
Y4200000D01*
X4800000D01*
X4808000Y4208000D02*
Y4232000D01*
X4832000D01*
Y4208000D01*
X4808000D01*
X4800000Y3600000D02*
Y3640000D01*
X4840000D01*
Y3600000D01*
X4800000D01*
X4808000Y3608000D02*
Y3632000D01*
X4832000D01*
Y3608000D01*
X4808000D01*
X4800000Y3450000D02*
Y3490000D01*
X4840000D01*
Y3450000D01*
X4800000D01*
X4808000Y3458000D02*
Y3482000D01*
X4832000D01*
Y3458000D01*
X4808000D01*
X4800000Y2400000D02*
Y2440000D01*
X4840000D01*
Y2400000D01*
X4800000D01*
X4808000Y2408000D02*
Y2432000D01*
X4832000D01*
Y2408000D01*
X4808000D01*
X4800000Y2100000D02*
Y2140000D01*
X4840000D01*
Y2100000D01*
X4800000D01*
X4808000Y2108000D02*
Y2132000D01*
X4832000D01*
Y2108000D01*
X4808000D01*
X4800000Y1950000D02*
Y1990000D01*
X4840000D01*
Y1950000D01*
X4800000D01*
X4808000Y1958000D02*
Y1982000D01*
X4832000D01*
Y1958000D01*
X4808000D01*
X4800000Y1800000D02*
Y1840000D01*
X4840000D01*
Y1800000D01*
X4800000D01*
X4808000Y1808000D02*
Y1832000D01*
X4832000D01*
Y1808000D01*
X4808000D01*
X4800000Y1650000D02*
Y1690000D01*
X4840000D01*
Y1650000D01*
X4800000D01*
X4808000Y1658000D02*
Y1682000D01*
X4832000D01*
Y1658000D01*
X4808000D01*
X4800000Y1200000D02*
Y1240000D01*
X4840000D01*
Y1200000D01*
X4800000D01*
X4808000Y1208000D02*
Y1232000D01*
X4832000D01*
Y1208000D01*
X4808000D01*
X4800000Y1050000D02*
Y1090000D01*
X4840000D01*
Y1050000D01*
X4800000D01*
X4808000Y1058000D02*
Y1082000D01*
X4832000D01*
Y1058000D01*
X4808000D01*
X4650000Y4800000D02*
Y4840000D01*
X4690000D01*
Y4800000D01*
X4650000D01*
X4658000Y4808000D02*
Y4832000D01*
X4682000D01*
Y4808000D01*
X4658000D01*
X4650000Y4650000D02*
Y4690000D01*
X4690000D01*
Y4650000D01*
X4650000D01*
X4658000Y4658000D02*
Y4682000D01*
X4682000D01*
Y4658000D01*
X4658000D01*
X4650000Y4500000D02*
Y4540000D01*
X4690000D01*
Y4500000D01*
X4650000D01*
X4658000Y4508000D02*
Y4532000D01*
X4682000D01*
Y4508000D01*
X4658000D01*
X4650000Y4200000D02*
Y4240000D01*
X4690000D01*
Y4200000D01*
X4650000D01*
X4658000Y4208000D02*
Y4232000D01*
X4682000D01*
Y4208000D01*
X4658000D01*
X4650000Y3600000D02*
Y3640000D01*
X4690000D01*
Y3600000D01*
X4650000D01*
X4658000Y3608000D02*
Y3632000D01*
X4682000D01*
Y3608000D01*
X4658000D01*
X4650000Y3450000D02*
Y3490000D01*
X4690000D01*
Y3450000D01*
X4650000D01*
X4658000Y3458000D02*
Y3482000D01*
X4682000D01*
Y3458000D01*
X4658000D01*
X4650000Y3000000D02*
Y3040000D01*
X4690000D01*
Y3000000D01*
X4650000D01*
X4658000Y3008000D02*
Y3032000D01*
X4682000D01*
Y3008000D01*
X4658000D01*
X4650000Y2850000D02*
Y2890000D01*
X4690000D01*
Y2850000D01*
X4650000D01*
X4658000Y2858000D02*
Y2882000D01*
X4682000D01*
Y2858000D01*
X4658000D01*
X4650000Y2700000D02*
Y2740000D01*
X4690000D01*
Y2700000D01*
X4650000D01*
X4658000Y2708000D02*
Y2732000D01*
X4682000D01*
Y2708000D01*
X4658000D01*
X4650000Y2550000D02*
Y2590000D01*
X4690000D01*
Y2550000D01*
X4650000D01*
X4658000Y2558000D02*
Y2582000D01*
X4682000D01*
Y2558000D01*
X4658000D01*
X4650000Y2250000D02*
Y2290000D01*
X4690000D01*
Y2250000D01*
X4650000D01*
X4658000Y2258000D02*
Y2282000D01*
X4682000D01*
Y2258000D01*
X4658000D01*
X4650000Y1950000D02*
Y1990000D01*
X4690000D01*
Y1950000D01*
X4650000D01*
X4658000Y1958000D02*
Y1982000D01*
X4682000D01*
Y1958000D01*
X4658000D01*
X4650000Y1800000D02*
Y1840000D01*
X4690000D01*
Y1800000D01*
X4650000D01*
X4658000Y1808000D02*
Y1832000D01*
X4682000D01*
Y1808000D01*
X4658000D01*
X4650000Y1500000D02*
Y1540000D01*
X4690000D01*
Y1500000D01*
X4650000D01*
X4658000Y1508000D02*
Y1532000D01*
X4682000D01*
Y1508000D01*
X4658000D01*
X4650000Y1350000D02*
Y1390000D01*
X4690000D01*
Y1350000D01*
X4650000D01*
X4658000Y1358000D02*
Y1382000D01*
X4682000D01*
Y1358000D01*
X4658000D01*
X4650000Y1200000D02*
Y1240000D01*
X4690000D01*
Y1200000D01*
X4650000D01*
X4658000Y1208000D02*
Y1232000D01*
X4682000D01*
Y1208000D01*
X4658000D01*
X4650000Y1050000D02*
Y1090000D01*
X4690000D01*
Y1050000D01*
X4650000D01*
X4658000Y1058000D02*
Y1082000D01*
X4682000D01*
Y1058000D01*
X4658000D01*
X4500000Y4800000D02*
Y4840000D01*
X4540000D01*
Y4800000D01*
X4500000D01*
X4508000Y4808000D02*
Y4832000D01*
X4532000D01*
Y4808000D01*
X4508000D01*
X4500000Y4650000D02*
Y4690000D01*
X4540000D01*
Y4650000D01*
X4500000D01*
X4508000Y4658000D02*
Y4682000D01*
X4532000D01*
Y4658000D01*
X4508000D01*
X4500000Y4500000D02*
Y4540000D01*
X4540000D01*
Y4500000D01*
X4500000D01*
X4508000Y4508000D02*
Y4532000D01*
X4532000D01*
Y4508000D01*
X4508000D01*
X4500000Y4200000D02*
Y4240000D01*
X4540000D01*
Y4200000D01*
X4500000D01*
X4508000Y4208000D02*
Y4232000D01*
X4532000D01*
Y4208000D01*
X4508000D01*
X4500000Y3900000D02*
Y3940000D01*
X4540000D01*
Y3900000D01*
X4500000D01*
X4508000Y3908000D02*
Y3932000D01*
X4532000D01*
Y3908000D01*
X4508000D01*
X4500000Y3600000D02*
Y3640000D01*
X4540000D01*
Y3600000D01*
X4500000D01*
X4508000Y3608000D02*
Y3632000D01*
X4532000D01*
Y3608000D01*
X4508000D01*
X4500000Y3300000D02*
Y3340000D01*
X4540000D01*
Y3300000D01*
X4500000D01*
X4508000Y3308000D02*
Y3332000D01*
X4532000D01*
Y3308000D01*
X4508000D01*
X4500000Y3150000D02*
Y3190000D01*
X4540000D01*
Y3150000D01*
X4500000D01*
X4508000Y3158000D02*
Y3182000D01*
X4532000D01*
Y3158000D01*
X4508000D01*
X4500000Y3000000D02*
Y3040000D01*
X4540000D01*
Y3000000D01*
X4500000D01*
X4508000Y3008000D02*
Y3032000D01*
X4532000D01*
Y3008000D01*
X4508000D01*
X4500000Y2850000D02*
Y2890000D01*
X4540000D01*
Y2850000D01*
X4500000D01*
X4508000Y2858000D02*
Y2882000D01*
X4532000D01*
Y2858000D01*
X4508000D01*
X4500000Y2700000D02*
Y2740000D01*
X4540000D01*
Y2700000D01*
X4500000D01*
X4508000Y2708000D02*
Y2732000D01*
X4532000D01*
Y2708000D01*
X4508000D01*
X4500000Y2400000D02*
Y2440000D01*
X4540000D01*
Y2400000D01*
X4500000D01*
X4508000Y2408000D02*
Y2432000D01*
X4532000D01*
Y2408000D01*
X4508000D01*
X4500000Y2250000D02*
Y2290000D01*
X4540000D01*
Y2250000D01*
X4500000D01*
X4508000Y2258000D02*
Y2282000D01*
X4532000D01*
Y2258000D01*
X4508000D01*
X4500000Y2100000D02*
Y2140000D01*
X4540000D01*
Y2100000D01*
X4500000D01*
X4508000Y2108000D02*
Y2132000D01*
X4532000D01*
Y2108000D01*
X4508000D01*
X4500000Y1800000D02*
Y1840000D01*
X4540000D01*
Y1800000D01*
X4500000D01*
X4508000Y1808000D02*
Y1832000D01*
X4532000D01*
Y1808000D01*
X4508000D01*
X4500000Y1500000D02*
Y1540000D01*
X4540000D01*
Y1500000D01*
X4500000D01*
X4508000Y1508000D02*
Y1532000D01*
X4532000D01*
Y1508000D01*
X4508000D01*
X4500000Y1350000D02*
Y1390000D01*
X4540000D01*
Y1350000D01*
X4500000D01*
X4508000Y1358000D02*
Y1382000D01*
X4532000D01*
Y1358000D01*
X4508000D01*
X4500000Y1200000D02*
Y1240000D01*
X4540000D01*
Y1200000D01*
X4500000D01*
X4508000Y1208000D02*
Y1232000D01*
X4532000D01*
Y1208000D01*
X4508000D01*
X4500000Y1050000D02*
Y1090000D01*
X4540000D01*
Y1050000D01*
X4500000D01*
X4508000Y1058000D02*
Y1082000D01*
X4532000D01*
Y1058000D01*
X4508000D01*
X4350000Y4650000D02*
Y4690000D01*
X4390000D01*
Y4650000D01*
X4350000D01*
X4358000Y4658000D02*
Y4682000D01*
X4382000D01*
Y4658000D01*
X4358000D01*
X4350000Y4500000D02*
Y4540000D01*
X4390000D01*
Y4500000D01*
X4350000D01*
X4358000Y4508000D02*
Y4532000D01*
X4382000D01*
Y4508000D01*
X4358000D01*
X4350000Y4200000D02*
Y4240000D01*
X4390000D01*
Y4200000D01*
X4350000D01*
X4358000Y4208000D02*
Y4232000D01*
X4382000D01*
Y4208000D01*
X4358000D01*
X4350000Y3900000D02*
Y3940000D01*
X4390000D01*
Y3900000D01*
X4350000D01*
X4358000Y3908000D02*
Y3932000D01*
X4382000D01*
Y3908000D01*
X4358000D01*
X4350000Y3450000D02*
Y3490000D01*
X4390000D01*
Y3450000D01*
X4350000D01*
X4358000Y3458000D02*
Y3482000D01*
X4382000D01*
Y3458000D01*
X4358000D01*
X4350000Y3300000D02*
Y3340000D01*
X4390000D01*
Y3300000D01*
X4350000D01*
X4358000Y3308000D02*
Y3332000D01*
X4382000D01*
Y3308000D01*
X4358000D01*
X4350000Y3150000D02*
Y3190000D01*
X4390000D01*
Y3150000D01*
X4350000D01*
X4358000Y3158000D02*
Y3182000D01*
X4382000D01*
Y3158000D01*
X4358000D01*
X4350000Y3000000D02*
Y3040000D01*
X4390000D01*
Y3000000D01*
X4350000D01*
X4358000Y3008000D02*
Y3032000D01*
X4382000D01*
Y3008000D01*
X4358000D01*
X4350000Y2850000D02*
Y2890000D01*
X4390000D01*
Y2850000D01*
X4350000D01*
X4358000Y2858000D02*
Y2882000D01*
X4382000D01*
Y2858000D01*
X4358000D01*
X4350000Y2700000D02*
Y2740000D01*
X4390000D01*
Y2700000D01*
X4350000D01*
X4358000Y2708000D02*
Y2732000D01*
X4382000D01*
Y2708000D01*
X4358000D01*
X4350000Y2400000D02*
Y2440000D01*
X4390000D01*
Y2400000D01*
X4350000D01*
X4358000Y2408000D02*
Y2432000D01*
X4382000D01*
Y2408000D01*
X4358000D01*
X4350000Y1950000D02*
Y1990000D01*
X4390000D01*
Y1950000D01*
X4350000D01*
X4358000Y1958000D02*
Y1982000D01*
X4382000D01*
Y1958000D01*
X4358000D01*
X4350000Y1500000D02*
Y1540000D01*
X4390000D01*
Y1500000D01*
X4350000D01*
X4358000Y1508000D02*
Y1532000D01*
X4382000D01*
Y1508000D01*
X4358000D01*
X4350000Y1350000D02*
Y1390000D01*
X4390000D01*
Y1350000D01*
X4350000D01*
X4358000Y1358000D02*
Y1382000D01*
X4382000D01*
Y1358000D01*
X4358000D01*
X4350000Y1200000D02*
Y1240000D01*
X4390000D01*
Y1200000D01*
X4350000D01*
X4358000Y1208000D02*
Y1232000D01*
X4382000D01*
Y1208000D01*
X4358000D01*
X4350000Y1050000D02*
Y1090000D01*
X4390000D01*
Y1050000D01*
X4350000D01*
X4358000Y1058000D02*
Y1082000D01*
X4382000D01*
Y1058000D01*
X4358000D01*
X4650000Y3495000D02*
Y3535000D01*
X4690000D01*
Y3495000D01*
X4650000D01*
X4658000Y3503000D02*
Y3527000D01*
X4682000D01*
Y3503000D01*
X4658000D01*
X4895000Y3495000D02*
Y3535000D01*
X4935000D01*
Y3495000D01*
X4895000D01*
X4903000Y3503000D02*
Y3527000D01*
X4927000D01*
Y3503000D01*
X4903000D01*
X5730000Y5065000D02*
Y5105000D01*
X5770000D01*
Y5065000D01*
X5730000D01*
X5738000Y5073000D02*
Y5097000D01*
X5762000D01*
Y5073000D01*
X5738000D01*
X5565000Y4880000D02*
Y4920000D01*
X5605000D01*
Y4880000D01*
X5565000D01*
X5573000Y4888000D02*
Y4912000D01*
X5597000D01*
Y4888000D01*
X5573000D01*
X3870000Y5070000D02*
Y5110000D01*
X3910000D01*
Y5070000D01*
X3870000D01*
X3878000Y5078000D02*
Y5102000D01*
X3902000D01*
Y5078000D01*
X3878000D01*
X3975000Y4670000D02*
Y4710000D01*
X4015000D01*
Y4670000D01*
X3975000D01*
X3983000Y4678000D02*
Y4702000D01*
X4007000D01*
Y4678000D01*
X3983000D01*
X5550000Y3050000D02*
Y3090000D01*
X5590000D01*
Y3050000D01*
X5550000D01*
X5558000Y3058000D02*
Y3082000D01*
X5582000D01*
Y3058000D01*
X5558000D01*
X5550000Y3000000D02*
Y3040000D01*
X5590000D01*
Y3000000D01*
X5550000D01*
X5558000Y3008000D02*
Y3032000D01*
X5582000D01*
Y3008000D01*
X5558000D01*
X5550000Y2950000D02*
Y2990000D01*
X5590000D01*
Y2950000D01*
X5550000D01*
X5558000Y2958000D02*
Y2982000D01*
X5582000D01*
Y2958000D01*
X5558000D01*
X5550000Y2900000D02*
Y2940000D01*
X5590000D01*
Y2900000D01*
X5550000D01*
X5558000Y2908000D02*
Y2932000D01*
X5582000D01*
Y2908000D01*
X5558000D01*
X5550000Y2850000D02*
Y2890000D01*
X5590000D01*
Y2850000D01*
X5550000D01*
X5558000Y2858000D02*
Y2882000D01*
X5582000D01*
Y2858000D01*
X5558000D01*
X5550000Y2800000D02*
Y2840000D01*
X5590000D01*
Y2800000D01*
X5550000D01*
X5558000Y2808000D02*
Y2832000D01*
X5582000D01*
Y2808000D01*
X5558000D01*
X5550000Y2750000D02*
Y2790000D01*
X5590000D01*
Y2750000D01*
X5550000D01*
X5558000Y2758000D02*
Y2782000D01*
X5582000D01*
Y2758000D01*
X5558000D01*
X5550000Y2700000D02*
Y2740000D01*
X5590000D01*
Y2700000D01*
X5550000D01*
X5558000Y2708000D02*
Y2732000D01*
X5582000D01*
Y2708000D01*
X5558000D01*
X5550000Y2650000D02*
Y2690000D01*
X5590000D01*
Y2650000D01*
X5550000D01*
X5558000Y2658000D02*
Y2682000D01*
X5582000D01*
Y2658000D01*
X5558000D01*
X5550000Y2600000D02*
Y2640000D01*
X5590000D01*
Y2600000D01*
X5550000D01*
X5558000Y2608000D02*
Y2632000D01*
X5582000D01*
Y2608000D01*
X5558000D01*
X5550000Y2550000D02*
Y2590000D01*
X5590000D01*
Y2550000D01*
X5550000D01*
X5558000Y2558000D02*
Y2582000D01*
X5582000D01*
Y2558000D01*
X5558000D01*
X5550000Y2500000D02*
Y2540000D01*
X5590000D01*
Y2500000D01*
X5550000D01*
X5558000Y2508000D02*
Y2532000D01*
X5582000D01*
Y2508000D01*
X5558000D01*
X5500000Y2900000D02*
Y2940000D01*
X5540000D01*
Y2900000D01*
X5500000D01*
X5508000Y2908000D02*
Y2932000D01*
X5532000D01*
Y2908000D01*
X5508000D01*
X5500000Y2850000D02*
Y2890000D01*
X5540000D01*
Y2850000D01*
X5500000D01*
X5508000Y2858000D02*
Y2882000D01*
X5532000D01*
Y2858000D01*
X5508000D01*
X5500000Y2800000D02*
Y2840000D01*
X5540000D01*
Y2800000D01*
X5500000D01*
X5508000Y2808000D02*
Y2832000D01*
X5532000D01*
Y2808000D01*
X5508000D01*
X5500000Y2750000D02*
Y2790000D01*
X5540000D01*
Y2750000D01*
X5500000D01*
X5508000Y2758000D02*
Y2782000D01*
X5532000D01*
Y2758000D01*
X5508000D01*
X5500000Y2700000D02*
Y2740000D01*
X5540000D01*
Y2700000D01*
X5500000D01*
X5508000Y2708000D02*
Y2732000D01*
X5532000D01*
Y2708000D01*
X5508000D01*
X5500000Y2650000D02*
Y2690000D01*
X5540000D01*
Y2650000D01*
X5500000D01*
X5508000Y2658000D02*
Y2682000D01*
X5532000D01*
Y2658000D01*
X5508000D01*
X6675000Y3580000D02*
Y3620000D01*
X6715000D01*
Y3580000D01*
X6675000D01*
X6683000Y3588000D02*
Y3612000D01*
X6707000D01*
Y3588000D01*
X6683000D01*
X6675000Y3380000D02*
Y3420000D01*
X6715000D01*
Y3380000D01*
X6675000D01*
X6683000Y3388000D02*
Y3412000D01*
X6707000D01*
Y3388000D01*
X6683000D01*
X6675000Y3080000D02*
Y3120000D01*
X6715000D01*
Y3080000D01*
X6675000D01*
X6683000Y3088000D02*
Y3112000D01*
X6707000D01*
Y3088000D01*
X6683000D01*
X6680000Y2980000D02*
Y3020000D01*
X6720000D01*
Y2980000D01*
X6680000D01*
X6688000Y2988000D02*
Y3012000D01*
X6712000D01*
Y2988000D01*
X6688000D01*
X6680000Y2880000D02*
Y2920000D01*
X6720000D01*
Y2880000D01*
X6680000D01*
X6688000Y2888000D02*
Y2912000D01*
X6712000D01*
Y2888000D01*
X6688000D01*
X6680000Y2780000D02*
Y2820000D01*
X6720000D01*
Y2780000D01*
X6680000D01*
X6688000Y2788000D02*
Y2812000D01*
X6712000D01*
Y2788000D01*
X6688000D01*
X6980000Y4280000D02*
Y4320000D01*
X7020000D01*
Y4280000D01*
X6980000D01*
X6988000Y4288000D02*
Y4312000D01*
X7012000D01*
Y4288000D01*
X6988000D01*
X6980000Y4080000D02*
Y4120000D01*
X7020000D01*
Y4080000D01*
X6980000D01*
X6988000Y4088000D02*
Y4112000D01*
X7012000D01*
Y4088000D01*
X6988000D01*
X6980000Y3980000D02*
Y4020000D01*
X7020000D01*
Y3980000D01*
X6980000D01*
X6988000Y3988000D02*
Y4012000D01*
X7012000D01*
Y3988000D01*
X6988000D01*
X6980000Y3780000D02*
Y3820000D01*
X7020000D01*
Y3780000D01*
X6980000D01*
X6988000Y3788000D02*
Y3812000D01*
X7012000D01*
Y3788000D01*
X6988000D01*
X6980000Y3680000D02*
Y3720000D01*
X7020000D01*
Y3680000D01*
X6980000D01*
X6988000Y3688000D02*
Y3712000D01*
X7012000D01*
Y3688000D01*
X6988000D01*
X6980000Y3580000D02*
Y3620000D01*
X7020000D01*
Y3580000D01*
X6980000D01*
X6988000Y3588000D02*
Y3612000D01*
X7012000D01*
Y3588000D01*
X6988000D01*
X6980000Y3280000D02*
Y3320000D01*
X7020000D01*
Y3280000D01*
X6980000D01*
X6988000Y3288000D02*
Y3312000D01*
X7012000D01*
Y3288000D01*
X6988000D01*
X6980000Y3080000D02*
Y3120000D01*
X7020000D01*
Y3080000D01*
X6980000D01*
X6988000Y3088000D02*
Y3112000D01*
X7012000D01*
Y3088000D01*
X6988000D01*
X6980000Y1580000D02*
Y1620000D01*
X7020000D01*
Y1580000D01*
X6980000D01*
X6988000Y1588000D02*
Y1612000D01*
X7012000D01*
Y1588000D01*
X6988000D01*
X6880000Y4080000D02*
Y4120000D01*
X6920000D01*
Y4080000D01*
X6880000D01*
X6888000Y4088000D02*
Y4112000D01*
X6912000D01*
Y4088000D01*
X6888000D01*
X6880000Y3980000D02*
Y4020000D01*
X6920000D01*
Y3980000D01*
X6880000D01*
X6888000Y3988000D02*
Y4012000D01*
X6912000D01*
Y3988000D01*
X6888000D01*
X6880000Y3780000D02*
Y3820000D01*
X6920000D01*
Y3780000D01*
X6880000D01*
X6888000Y3788000D02*
Y3812000D01*
X6912000D01*
Y3788000D01*
X6888000D01*
X6880000Y3680000D02*
Y3720000D01*
X6920000D01*
Y3680000D01*
X6880000D01*
X6888000Y3688000D02*
Y3712000D01*
X6912000D01*
Y3688000D01*
X6888000D01*
X6880000Y3580000D02*
Y3620000D01*
X6920000D01*
Y3580000D01*
X6880000D01*
X6888000Y3588000D02*
Y3612000D01*
X6912000D01*
Y3588000D01*
X6888000D01*
X6880000Y3280000D02*
Y3320000D01*
X6920000D01*
Y3280000D01*
X6880000D01*
X6888000Y3288000D02*
Y3312000D01*
X6912000D01*
Y3288000D01*
X6888000D01*
X6880000Y3080000D02*
Y3120000D01*
X6920000D01*
Y3080000D01*
X6880000D01*
X6888000Y3088000D02*
Y3112000D01*
X6912000D01*
Y3088000D01*
X6888000D01*
X6880000Y2780000D02*
Y2820000D01*
X6920000D01*
Y2780000D01*
X6880000D01*
X6888000Y2788000D02*
Y2812000D01*
X6912000D01*
Y2788000D01*
X6888000D01*
X6880000Y2480000D02*
Y2520000D01*
X6920000D01*
Y2480000D01*
X6880000D01*
X6888000Y2488000D02*
Y2512000D01*
X6912000D01*
Y2488000D01*
X6888000D01*
X6880000Y2080000D02*
Y2120000D01*
X6920000D01*
Y2080000D01*
X6880000D01*
X6888000Y2088000D02*
Y2112000D01*
X6912000D01*
Y2088000D01*
X6888000D01*
X6880000Y1980000D02*
Y2020000D01*
X6920000D01*
Y1980000D01*
X6880000D01*
X6888000Y1988000D02*
Y2012000D01*
X6912000D01*
Y1988000D01*
X6888000D01*
X6880000Y1680000D02*
Y1720000D01*
X6920000D01*
Y1680000D01*
X6880000D01*
X6888000Y1688000D02*
Y1712000D01*
X6912000D01*
Y1688000D01*
X6888000D01*
X6780000Y4280000D02*
Y4320000D01*
X6820000D01*
Y4280000D01*
X6780000D01*
X6788000Y4288000D02*
Y4312000D01*
X6812000D01*
Y4288000D01*
X6788000D01*
X6780000Y4080000D02*
Y4120000D01*
X6820000D01*
Y4080000D01*
X6780000D01*
X6788000Y4088000D02*
Y4112000D01*
X6812000D01*
Y4088000D01*
X6788000D01*
X6780000Y3980000D02*
Y4020000D01*
X6820000D01*
Y3980000D01*
X6780000D01*
X6788000Y3988000D02*
Y4012000D01*
X6812000D01*
Y3988000D01*
X6788000D01*
X6780000Y3780000D02*
Y3820000D01*
X6820000D01*
Y3780000D01*
X6780000D01*
X6788000Y3788000D02*
Y3812000D01*
X6812000D01*
Y3788000D01*
X6788000D01*
X6780000Y3680000D02*
Y3720000D01*
X6820000D01*
Y3680000D01*
X6780000D01*
X6788000Y3688000D02*
Y3712000D01*
X6812000D01*
Y3688000D01*
X6788000D01*
X6780000Y3580000D02*
Y3620000D01*
X6820000D01*
Y3580000D01*
X6780000D01*
X6788000Y3588000D02*
Y3612000D01*
X6812000D01*
Y3588000D01*
X6788000D01*
X6780000Y3380000D02*
Y3420000D01*
X6820000D01*
Y3380000D01*
X6780000D01*
X6788000Y3388000D02*
Y3412000D01*
X6812000D01*
Y3388000D01*
X6788000D01*
X6780000Y3280000D02*
Y3320000D01*
X6820000D01*
Y3280000D01*
X6780000D01*
X6788000Y3288000D02*
Y3312000D01*
X6812000D01*
Y3288000D01*
X6788000D01*
X6780000Y3080000D02*
Y3120000D01*
X6820000D01*
Y3080000D01*
X6780000D01*
X6788000Y3088000D02*
Y3112000D01*
X6812000D01*
Y3088000D01*
X6788000D01*
X6780000Y2780000D02*
Y2820000D01*
X6820000D01*
Y2780000D01*
X6780000D01*
X6788000Y2788000D02*
Y2812000D01*
X6812000D01*
Y2788000D01*
X6788000D01*
X6780000Y2680000D02*
Y2720000D01*
X6820000D01*
Y2680000D01*
X6780000D01*
X6788000Y2688000D02*
Y2712000D01*
X6812000D01*
Y2688000D01*
X6788000D01*
X6780000Y2480000D02*
Y2520000D01*
X6820000D01*
Y2480000D01*
X6780000D01*
X6788000Y2488000D02*
Y2512000D01*
X6812000D01*
Y2488000D01*
X6788000D01*
X6780000Y2380000D02*
Y2420000D01*
X6820000D01*
Y2380000D01*
X6780000D01*
X6788000Y2388000D02*
Y2412000D01*
X6812000D01*
Y2388000D01*
X6788000D01*
X6780000Y2180000D02*
Y2220000D01*
X6820000D01*
Y2180000D01*
X6780000D01*
X6788000Y2188000D02*
Y2212000D01*
X6812000D01*
Y2188000D01*
X6788000D01*
X6780000Y1880000D02*
Y1920000D01*
X6820000D01*
Y1880000D01*
X6780000D01*
X6788000Y1888000D02*
Y1912000D01*
X6812000D01*
Y1888000D01*
X6788000D01*
X6780000Y1780000D02*
Y1820000D01*
X6820000D01*
Y1780000D01*
X6780000D01*
X6788000Y1788000D02*
Y1812000D01*
X6812000D01*
Y1788000D01*
X6788000D01*
X6780000Y1680000D02*
Y1720000D01*
X6820000D01*
Y1680000D01*
X6780000D01*
X6788000Y1688000D02*
Y1712000D01*
X6812000D01*
Y1688000D01*
X6788000D01*
X6780000Y1580000D02*
Y1620000D01*
X6820000D01*
Y1580000D01*
X6780000D01*
X6788000Y1588000D02*
Y1612000D01*
X6812000D01*
Y1588000D01*
X6788000D01*
X6680000Y4280000D02*
Y4320000D01*
X6720000D01*
Y4280000D01*
X6680000D01*
X6688000Y4288000D02*
Y4312000D01*
X6712000D01*
Y4288000D01*
X6688000D01*
X6680000Y3980000D02*
Y4020000D01*
X6720000D01*
Y3980000D01*
X6680000D01*
X6688000Y3988000D02*
Y4012000D01*
X6712000D01*
Y3988000D01*
X6688000D01*
X6680000Y2680000D02*
Y2720000D01*
X6720000D01*
Y2680000D01*
X6680000D01*
X6688000Y2688000D02*
Y2712000D01*
X6712000D01*
Y2688000D01*
X6688000D01*
X6680000Y2180000D02*
Y2220000D01*
X6720000D01*
Y2180000D01*
X6680000D01*
X6688000Y2188000D02*
Y2212000D01*
X6712000D01*
Y2188000D01*
X6688000D01*
X6680000Y2080000D02*
Y2120000D01*
X6720000D01*
Y2080000D01*
X6680000D01*
X6688000Y2088000D02*
Y2112000D01*
X6712000D01*
Y2088000D01*
X6688000D01*
X6680000Y1880000D02*
Y1920000D01*
X6720000D01*
Y1880000D01*
X6680000D01*
X6688000Y1888000D02*
Y1912000D01*
X6712000D01*
Y1888000D01*
X6688000D01*
X6680000Y1780000D02*
Y1820000D01*
X6720000D01*
Y1780000D01*
X6680000D01*
X6688000Y1788000D02*
Y1812000D01*
X6712000D01*
Y1788000D01*
X6688000D01*
X6680000Y1680000D02*
Y1720000D01*
X6720000D01*
Y1680000D01*
X6680000D01*
X6688000Y1688000D02*
Y1712000D01*
X6712000D01*
Y1688000D01*
X6688000D01*
X6680000Y1580000D02*
Y1620000D01*
X6720000D01*
Y1580000D01*
X6680000D01*
X6688000Y1588000D02*
Y1612000D01*
X6712000D01*
Y1588000D01*
X6688000D01*
X4195000Y1678000D02*
Y1718000D01*
X4235000D01*
Y1678000D01*
X4195000D01*
X4203000Y1686000D02*
Y1710000D01*
X4227000D01*
Y1686000D01*
X4203000D01*
X2716887Y1722000D02*
Y1762000D01*
X2756887D01*
Y1722000D01*
X2716887D01*
X2724887Y1730000D02*
Y1754000D01*
X2748887D01*
Y1730000D01*
X2724887D01*
X2390000Y1650000D02*
Y1690000D01*
X2430000D01*
Y1650000D01*
X2390000D01*
X2398000Y1658000D02*
Y1682000D01*
X2422000D01*
Y1658000D01*
X2398000D01*
X6925000Y1925000D02*
Y1965000D01*
X6965000D01*
Y1925000D01*
X6925000D01*
X6933000Y1933000D02*
Y1957000D01*
X6957000D01*
Y1933000D01*
X6933000D01*
X3862977Y2268044D02*
Y2308044D01*
X3902977D01*
Y2268044D01*
X3862977D01*
X3870977Y2276044D02*
Y2300044D01*
X3894977D01*
Y2276044D01*
X3870977D01*
X3885000Y2095000D02*
Y2135000D01*
X3925000D01*
Y2095000D01*
X3885000D01*
X3893000Y2103000D02*
Y2127000D01*
X3917000D01*
Y2103000D01*
X3893000D01*
X3854444Y1910556D02*
Y1950556D01*
X3894444D01*
Y1910556D01*
X3854444D01*
X3862444Y1918556D02*
Y1942556D01*
X3886444D01*
Y1918556D01*
X3862444D01*
X3095000Y1863000D02*
Y1903000D01*
X3135000D01*
Y1863000D01*
X3095000D01*
X3103000Y1871000D02*
Y1895000D01*
X3127000D01*
Y1871000D01*
X3103000D01*
X3295000Y2015000D02*
Y2055000D01*
X3335000D01*
Y2015000D01*
X3295000D01*
X3303000Y2023000D02*
Y2047000D01*
X3327000D01*
Y2023000D01*
X3303000D01*
X3930000Y2370000D02*
Y2410000D01*
X3970000D01*
Y2370000D01*
X3930000D01*
X3938000Y2378000D02*
Y2402000D01*
X3962000D01*
Y2378000D01*
X3938000D01*
X5085000Y3385000D02*
Y3425000D01*
X5125000D01*
Y3385000D01*
X5085000D01*
X5093000Y3393000D02*
Y3417000D01*
X5117000D01*
Y3393000D01*
X5093000D01*
X6785000Y3320000D02*
Y3360000D01*
X6825000D01*
Y3320000D01*
X6785000D01*
X6793000Y3328000D02*
Y3352000D01*
X6817000D01*
Y3328000D01*
X6793000D01*
X5150000Y3305000D02*
Y3345000D01*
X5190000D01*
Y3305000D01*
X5150000D01*
X5158000Y3313000D02*
Y3337000D01*
X5182000D01*
Y3313000D01*
X5158000D01*
X7155000Y3255000D02*
Y3295000D01*
X7195000D01*
Y3255000D01*
X7155000D01*
X7163000Y3263000D02*
Y3287000D01*
X7187000D01*
Y3263000D01*
X7163000D01*
X5285000Y3260000D02*
Y3300000D01*
X5325000D01*
Y3260000D01*
X5285000D01*
X5293000Y3268000D02*
Y3292000D01*
X5317000D01*
Y3268000D01*
X5293000D01*
X5345000Y3220000D02*
Y3260000D01*
X5385000D01*
Y3220000D01*
X5345000D01*
X5353000Y3228000D02*
Y3252000D01*
X5377000D01*
Y3228000D01*
X5353000D01*
X6750000Y2445000D02*
Y2485000D01*
X6790000D01*
Y2445000D01*
X6750000D01*
X6758000Y2453000D02*
Y2477000D01*
X6782000D01*
Y2453000D01*
X6758000D01*
X5063292Y2128000D02*
Y2168000D01*
X5103292D01*
Y2128000D01*
X5063292D01*
X5071292Y2136000D02*
Y2160000D01*
X5095292D01*
Y2136000D01*
X5071292D01*
X4895000Y2128000D02*
Y2168000D01*
X4935000D01*
Y2128000D01*
X4895000D01*
X4903000Y2136000D02*
Y2160000D01*
X4927000D01*
Y2136000D01*
X4903000D01*
X3005000Y2430000D02*
Y2470000D01*
X3045000D01*
Y2430000D01*
X3005000D01*
X3013000Y2438000D02*
Y2462000D01*
X3037000D01*
Y2438000D01*
X3013000D01*
X2675000Y2570000D02*
Y2610000D01*
X2715000D01*
Y2570000D01*
X2675000D01*
X2683000Y2578000D02*
Y2602000D01*
X2707000D01*
Y2578000D01*
X2683000D01*
X2010000Y3855000D02*
Y3895000D01*
X2050000D01*
Y3855000D01*
X2010000D01*
X2018000Y3863000D02*
Y3887000D01*
X2042000D01*
Y3863000D01*
X2018000D01*
X6660000Y2035000D02*
Y2075000D01*
X6700000D01*
Y2035000D01*
X6660000D01*
X6668000Y2043000D02*
Y2067000D01*
X6692000D01*
Y2043000D01*
X6668000D01*
X6750000Y4970000D02*
Y5010000D01*
X6790000D01*
Y4970000D01*
X6750000D01*
X6758000Y4978000D02*
Y5002000D01*
X6782000D01*
Y4978000D01*
X6758000D01*
X5150000Y3785000D02*
Y3825000D01*
X5190000D01*
Y3785000D01*
X5150000D01*
X5158000Y3793000D02*
Y3817000D01*
X5182000D01*
Y3793000D01*
X5158000D01*
X5203056Y3908056D02*
Y3948056D01*
X5243056D01*
Y3908056D01*
X5203056D01*
X5211056Y3916056D02*
Y3940056D01*
X5235056D01*
Y3916056D01*
X5211056D01*
X4540000Y3535000D02*
Y3575000D01*
X4580000D01*
Y3535000D01*
X4540000D01*
X4548000Y3543000D02*
Y3567000D01*
X4572000D01*
Y3543000D01*
X4548000D01*
X3346113Y4350000D02*
Y4390000D01*
X3386113D01*
Y4350000D01*
X3346113D01*
X3354113Y4358000D02*
Y4382000D01*
X3378113D01*
Y4358000D01*
X3354113D01*
X3340000Y4380000D02*
Y4420000D01*
X3380000D01*
Y4380000D01*
X3340000D01*
X3348000Y4388000D02*
Y4412000D01*
X3372000D01*
Y4388000D01*
X3348000D01*
X3645000Y4290000D02*
Y4330000D01*
X3685000D01*
Y4290000D01*
X3645000D01*
X3653000Y4298000D02*
Y4322000D01*
X3677000D01*
Y4298000D01*
X3653000D01*
X5760000Y4360000D02*
Y4400000D01*
X5800000D01*
Y4360000D01*
X5760000D01*
X5768000Y4368000D02*
Y4392000D01*
X5792000D01*
Y4368000D01*
X5768000D01*
X5400000Y2345000D02*
Y2385000D01*
X5440000D01*
Y2345000D01*
X5400000D01*
X5408000Y2353000D02*
Y2377000D01*
X5432000D01*
Y2353000D01*
X5408000D01*
X3999958Y1742971D02*
Y1782971D01*
X4039958D01*
Y1742971D01*
X3999958D01*
X4007958Y1750971D02*
Y1774971D01*
X4031958D01*
Y1750971D01*
X4007958D01*
X5295000Y2385000D02*
Y2425000D01*
X5335000D01*
Y2385000D01*
X5295000D01*
X5303000Y2393000D02*
Y2417000D01*
X5327000D01*
Y2393000D01*
X5303000D01*
X4915000Y2382125D02*
Y2422125D01*
X4955000D01*
Y2382125D01*
X4915000D01*
X4923000Y2390125D02*
Y2414125D01*
X4947000D01*
Y2390125D01*
X4923000D01*
X3625000Y1960000D02*
Y2000000D01*
X3665000D01*
Y1960000D01*
X3625000D01*
X3633000Y1968000D02*
Y1992000D01*
X3657000D01*
Y1968000D01*
X3633000D01*
X4815000Y3687500D02*
Y3727500D01*
X4855000D01*
Y3687500D01*
X4815000D01*
X4823000Y3695500D02*
Y3719500D01*
X4847000D01*
Y3695500D01*
X4823000D01*
X4810000Y3630000D02*
Y3670000D01*
X4850000D01*
Y3630000D01*
X4810000D01*
X4818000Y3638000D02*
Y3662000D01*
X4842000D01*
Y3638000D01*
X4818000D01*
X5400000Y4060000D02*
Y4100000D01*
X5440000D01*
Y4060000D01*
X5400000D01*
X5408000Y4068000D02*
Y4092000D01*
X5432000D01*
Y4068000D01*
X5408000D01*
X3900000Y3850000D02*
Y3890000D01*
X3940000D01*
Y3850000D01*
X3900000D01*
X3908000Y3858000D02*
Y3882000D01*
X3932000D01*
Y3858000D01*
X3908000D01*
X6690000Y1950000D02*
Y1990000D01*
X6730000D01*
Y1950000D01*
X6690000D01*
X6698000Y1958000D02*
Y1982000D01*
X6722000D01*
Y1958000D01*
X6698000D01*
X6420000Y1952000D02*
Y1992000D01*
X6460000D01*
Y1952000D01*
X6420000D01*
X6428000Y1960000D02*
Y1984000D01*
X6452000D01*
Y1960000D01*
X6428000D01*
X4395000Y2500000D02*
Y2540000D01*
X4435000D01*
Y2500000D01*
X4395000D01*
X4403000Y2508000D02*
Y2532000D01*
X4427000D01*
Y2508000D01*
X4403000D01*
X3680000Y1420000D02*
Y1460000D01*
X3720000D01*
Y1420000D01*
X3680000D01*
X3688000Y1428000D02*
Y1452000D01*
X3712000D01*
Y1428000D01*
X3688000D01*
X3585000Y1365000D02*
Y1405000D01*
X3625000D01*
Y1365000D01*
X3585000D01*
X3593000Y1373000D02*
Y1397000D01*
X3617000D01*
Y1373000D01*
X3593000D01*
X1420000Y1555000D02*
Y1595000D01*
X1460000D01*
Y1555000D01*
X1420000D01*
X1428000Y1563000D02*
Y1587000D01*
X1452000D01*
Y1563000D01*
X1428000D01*
X1440000Y1270000D02*
Y1310000D01*
X1480000D01*
Y1270000D01*
X1440000D01*
X1448000Y1278000D02*
Y1302000D01*
X1472000D01*
Y1278000D01*
X1448000D01*
X915000Y1245000D02*
Y1285000D01*
X955000D01*
Y1245000D01*
X915000D01*
X923000Y1253000D02*
Y1277000D01*
X947000D01*
Y1253000D01*
X923000D01*
X3765000Y4805000D02*
Y4845000D01*
X3805000D01*
Y4805000D01*
X3765000D01*
X3773000Y4813000D02*
Y4837000D01*
X3797000D01*
Y4813000D01*
X3773000D01*
X3870000Y4800000D02*
Y4840000D01*
X3910000D01*
Y4800000D01*
X3870000D01*
X3878000Y4808000D02*
Y4832000D01*
X3902000D01*
Y4808000D01*
X3878000D01*
X5360000Y2230000D02*
Y2270000D01*
X5400000D01*
Y2230000D01*
X5360000D01*
X5368000Y2238000D02*
Y2262000D01*
X5392000D01*
Y2238000D01*
X5368000D01*
X3449125Y2241822D02*
Y2281822D01*
X3489125D01*
Y2241822D01*
X3449125D01*
X3457125Y2249822D02*
Y2273822D01*
X3481125D01*
Y2249822D01*
X3457125D01*
X3720000Y1225000D02*
Y1265000D01*
X3760000D01*
Y1225000D01*
X3720000D01*
X3728000Y1233000D02*
Y1257000D01*
X3752000D01*
Y1233000D01*
X3728000D01*
X3393044Y4762977D02*
Y4802977D01*
X3433044D01*
Y4762977D01*
X3393044D01*
X3401044Y4770977D02*
Y4794977D01*
X3425044D01*
Y4770977D01*
X3401044D01*
X3650000Y3945000D02*
Y3985000D01*
X3690000D01*
Y3945000D01*
X3650000D01*
X3658000Y3953000D02*
Y3977000D01*
X3682000D01*
Y3953000D01*
X3658000D01*
X5955000Y5362000D02*
Y5402000D01*
X5995000D01*
Y5362000D01*
X5955000D01*
X5963000Y5370000D02*
Y5394000D01*
X5987000D01*
Y5370000D01*
X5963000D01*
X3385000Y2290000D02*
Y2330000D01*
X3425000D01*
Y2290000D01*
X3385000D01*
X3393000Y2298000D02*
Y2322000D01*
X3417000D01*
Y2298000D01*
X3393000D01*
X1500000Y1000000D02*
Y1040000D01*
X1540000D01*
Y1000000D01*
X1500000D01*
X1508000Y1008000D02*
Y1032000D01*
X1532000D01*
Y1008000D01*
X1508000D01*
X985000Y1075000D02*
Y1115000D01*
X1025000D01*
Y1075000D01*
X985000D01*
X993000Y1083000D02*
Y1107000D01*
X1017000D01*
Y1083000D01*
X993000D01*
X3805000Y3745000D02*
Y3785000D01*
X3845000D01*
Y3745000D01*
X3805000D01*
X3813000Y3753000D02*
Y3777000D01*
X3837000D01*
Y3753000D01*
X3813000D01*
X3568000Y3890000D02*
Y3930000D01*
X3608000D01*
Y3890000D01*
X3568000D01*
X3576000Y3898000D02*
Y3922000D01*
X3600000D01*
Y3898000D01*
X3576000D01*
X5175000Y4040000D02*
Y4080000D01*
X5215000D01*
Y4040000D01*
X5175000D01*
X5183000Y4048000D02*
Y4072000D01*
X5207000D01*
Y4048000D01*
X5183000D01*
X3875000Y1755000D02*
Y1795000D01*
X3915000D01*
Y1755000D01*
X3875000D01*
X3883000Y1763000D02*
Y1787000D01*
X3907000D01*
Y1763000D01*
X3883000D01*
X4640000Y2150000D02*
Y2190000D01*
X4680000D01*
Y2150000D01*
X4640000D01*
X4648000Y2158000D02*
Y2182000D01*
X4672000D01*
Y2158000D01*
X4648000D01*
X4045000Y2150000D02*
Y2190000D01*
X4085000D01*
Y2150000D01*
X4045000D01*
X4053000Y2158000D02*
Y2182000D01*
X4077000D01*
Y2158000D01*
X4053000D01*
X3967005Y1616000D02*
Y1656000D01*
X4007005D01*
Y1616000D01*
X3967005D01*
X3975005Y1624000D02*
Y1648000D01*
X3999005D01*
Y1624000D01*
X3975005D01*
X685000Y2210000D02*
Y2250000D01*
X725000D01*
Y2210000D01*
X685000D01*
X693000Y2218000D02*
Y2242000D01*
X717000D01*
Y2218000D01*
X693000D01*
X3445000Y4655000D02*
Y4695000D01*
X3485000D01*
Y4655000D01*
X3445000D01*
X3453000Y4663000D02*
Y4687000D01*
X3477000D01*
Y4663000D01*
X3453000D01*
X3117000Y2400000D02*
Y2440000D01*
X3157000D01*
Y2400000D01*
X3117000D01*
X3125000Y2408000D02*
Y2432000D01*
X3149000D01*
Y2408000D01*
X3125000D01*
X2935000Y1835000D02*
Y1875000D01*
X2975000D01*
Y1835000D01*
X2935000D01*
X2943000Y1843000D02*
Y1867000D01*
X2967000D01*
Y1843000D01*
X2943000D01*
X3875000Y1495000D02*
Y1535000D01*
X3915000D01*
Y1495000D01*
X3875000D01*
X3883000Y1503000D02*
Y1527000D01*
X3907000D01*
Y1503000D01*
X3883000D01*
X570000Y3760000D02*
Y3800000D01*
X610000D01*
Y3760000D01*
X570000D01*
X578000Y3768000D02*
Y3792000D01*
X602000D01*
Y3768000D01*
X578000D01*
X2535000Y4705000D02*
Y4745000D01*
X2575000D01*
Y4705000D01*
X2535000D01*
X2543000Y4713000D02*
Y4737000D01*
X2567000D01*
Y4713000D01*
X2543000D01*
X1070000Y1810000D02*
Y1850000D01*
X1110000D01*
Y1810000D01*
X1070000D01*
X1078000Y1818000D02*
Y1842000D01*
X1102000D01*
Y1818000D01*
X1078000D01*
X3115000Y1285000D02*
Y1325000D01*
X3155000D01*
Y1285000D01*
X3115000D01*
X3123000Y1293000D02*
Y1317000D01*
X3147000D01*
Y1293000D01*
X3123000D01*
X1930000Y4810000D02*
Y4850000D01*
X1970000D01*
Y4810000D01*
X1930000D01*
X1938000Y4818000D02*
Y4842000D01*
X1962000D01*
Y4818000D01*
X1938000D01*
X4975000Y2405000D02*
Y2445000D01*
X5015000D01*
Y2405000D01*
X4975000D01*
X4983000Y2413000D02*
Y2437000D01*
X5007000D01*
Y2413000D01*
X4983000D01*
X3790000Y3840000D02*
Y3880000D01*
X3830000D01*
Y3840000D01*
X3790000D01*
X3798000Y3848000D02*
Y3872000D01*
X3822000D01*
Y3848000D01*
X3798000D01*
X3518736Y3796225D02*
Y3836225D01*
X3558736D01*
Y3796225D01*
X3518736D01*
X3526736Y3804225D02*
Y3828225D01*
X3550736D01*
Y3804225D01*
X3526736D01*
X3930000Y5185000D02*
Y5225000D01*
X3970000D01*
Y5185000D01*
X3930000D01*
X3938000Y5193000D02*
Y5217000D01*
X3962000D01*
Y5193000D01*
X3938000D01*
D91*
X1905000Y1408740D02*
G03*
X1905000Y1408740I-20000J0D01*
G01*
Y1330000D02*
G03*
X1905000Y1330000I-20000J0D01*
G01*
Y1251260D02*
G03*
X1905000Y1251260I-20000J0D01*
G01*
X1335000Y1348740D02*
G03*
X1335000Y1348740I-20000J0D01*
G01*
Y1270000D02*
G03*
X1335000Y1270000I-20000J0D01*
G01*
X4805000Y1261260D02*
G03*
X4805000Y1261260I-20000J0D01*
G01*
Y1340000D02*
G03*
X4805000Y1340000I-20000J0D01*
G01*
X4470000Y5027520D02*
G03*
X4470000Y5027520I-20000J0D01*
G01*
Y5106260D02*
G03*
X4470000Y5106260I-20000J0D01*
G01*
Y5185000D02*
G03*
X4470000Y5185000I-20000J0D01*
G01*
X3340000Y1127520D02*
G03*
X3340000Y1127520I-20000J0D01*
G01*
Y1206260D02*
G03*
X3340000Y1206260I-20000J0D01*
G01*
Y1285000D02*
G03*
X3340000Y1285000I-20000J0D01*
G01*
Y1363740D02*
G03*
X3340000Y1363740I-20000J0D01*
G01*
Y1442480D02*
G03*
X3340000Y1442480I-20000J0D01*
G01*
Y1521220D02*
G03*
X3340000Y1521220I-20000J0D01*
G01*
X2670000Y1310000D02*
G03*
X2670000Y1310000I-20000J0D01*
G01*
Y1388740D02*
G03*
X2670000Y1388740I-20000J0D01*
G01*
X5510000Y5163740D02*
G03*
X5510000Y5163740I-20000J0D01*
G01*
Y5085000D02*
G03*
X5510000Y5085000I-20000J0D01*
G01*
%TF.MD5,d8b486d8936de7076e1be9f34ffd831a*%
M02*
