%TF.GenerationSoftware,Altium Limited,Altium Designer,20.2.5 (213)*%
G04 Layer_Color=8388736*
%FSLAX26Y26*%
%MOIN*%
%TF.SameCoordinates,9BAFD9CD-774C-4051-972E-F2DD54F50950*%
%TF.FilePolarity,Negative*%
%TF.FileFunction,Soldermask,Top*%
%TF.Part,Single*%
G01*
G75*
%TA.AperFunction,SMDPad,CuDef*%
%ADD13R,0.064173X0.085843*%
%ADD14R,0.022000X0.052000*%
%TA.AperFunction,ComponentPad*%
%ADD42C,0.068000*%
%ADD43C,0.051276*%
%ADD44R,0.051276X0.051276*%
%ADD45R,0.061150X0.061150*%
%ADD46C,0.061150*%
%ADD47C,0.067370*%
%ADD48R,0.067370X0.067370*%
%ADD49R,0.072961X0.072961*%
%ADD50C,0.072961*%
%ADD51R,0.065843X0.065843*%
%ADD52C,0.065843*%
%ADD53C,0.056000*%
%ADD54R,0.059496X0.059496*%
%ADD55C,0.059496*%
%TA.AperFunction,ViaPad*%
%ADD56C,0.068000*%
%TA.AperFunction,SMDPad,CuDef*%
%ADD61R,0.059180X0.070990*%
%ADD62R,0.039500X0.039500*%
%ADD63R,0.102488X0.179260*%
%ADD64R,0.067055X0.165480*%
%ADD65R,0.039500X0.039500*%
%ADD66R,0.039496X0.031622*%
%ADD67R,0.047370X0.035559*%
%ADD68R,0.408000X0.408000*%
%ADD69R,0.039000X0.111000*%
%ADD70R,0.035559X0.047370*%
D13*
X5805000Y2596882D02*
D03*
Y2743118D02*
D03*
D14*
X6939803Y1665000D02*
D03*
X6865000D02*
D03*
X6902402Y1585000D02*
D03*
X6975000Y2855000D02*
D03*
X6937598Y2935000D02*
D03*
X7012402D02*
D03*
X6953661Y4255000D02*
D03*
X6991063Y4175000D02*
D03*
X6916260D02*
D03*
D42*
X7825000Y3910000D02*
D03*
X7725000D02*
D03*
X7625000D02*
D03*
X7525000D02*
D03*
X7425000D02*
D03*
X7325000D02*
D03*
X7225000D02*
D03*
X7125000D02*
D03*
X7025000D02*
D03*
X6925000D02*
D03*
X6825000D02*
D03*
X6725000D02*
D03*
X6625000D02*
D03*
X7825000Y2630000D02*
D03*
X7725000D02*
D03*
X7625000D02*
D03*
X7525000D02*
D03*
X7425000D02*
D03*
X7325000D02*
D03*
X7225000D02*
D03*
X7125000D02*
D03*
X7025000D02*
D03*
X6925000D02*
D03*
X6825000D02*
D03*
X6725000D02*
D03*
X6625000D02*
D03*
Y4810000D02*
D03*
X6725000D02*
D03*
X6825000D02*
D03*
X6925000D02*
D03*
X7025000D02*
D03*
X7125000D02*
D03*
X7225000D02*
D03*
X7325000D02*
D03*
X7425000D02*
D03*
X7525000D02*
D03*
X7625000D02*
D03*
Y2275000D02*
D03*
X7525000D02*
D03*
X7425000D02*
D03*
X7325000D02*
D03*
X7225000D02*
D03*
X7125000D02*
D03*
X7025000D02*
D03*
X6925000D02*
D03*
X6825000D02*
D03*
X6725000D02*
D03*
X6625000D02*
D03*
X7625000Y3530000D02*
D03*
X7525000D02*
D03*
X7425000D02*
D03*
X7325000D02*
D03*
X7225000D02*
D03*
X7125000D02*
D03*
X7025000D02*
D03*
X6925000D02*
D03*
X6825000D02*
D03*
X6725000D02*
D03*
X6625000D02*
D03*
Y1375000D02*
D03*
X6725000D02*
D03*
X6825000D02*
D03*
X6925000D02*
D03*
X7025000D02*
D03*
X7125000D02*
D03*
X7225000D02*
D03*
X7325000D02*
D03*
X7425000D02*
D03*
X7525000D02*
D03*
X7625000D02*
D03*
X7725000D02*
D03*
X7825000D02*
D03*
D43*
X1885000Y1408740D02*
D03*
Y1330000D02*
D03*
X1315000Y1348740D02*
D03*
X4785000Y1261260D02*
D03*
X4450000Y5027520D02*
D03*
Y5106260D02*
D03*
X2650000Y1388740D02*
D03*
X5490000Y5085000D02*
D03*
D44*
X1885000Y1251260D02*
D03*
X1315000Y1270000D02*
D03*
X4785000Y1340000D02*
D03*
X4450000Y5185000D02*
D03*
X2650000Y1310000D02*
D03*
X5490000Y5163740D02*
D03*
D45*
X4150000Y1151260D02*
D03*
X2985000Y4692520D02*
D03*
X6160000Y5232480D02*
D03*
X1130000Y4736260D02*
D03*
X3565000Y4687520D02*
D03*
X2335000Y4710000D02*
D03*
X1725000Y4717520D02*
D03*
D46*
X4150000Y1230000D02*
D03*
Y1308740D02*
D03*
Y1387480D02*
D03*
X2985000Y5243702D02*
D03*
Y5164960D02*
D03*
Y5086220D02*
D03*
Y5007480D02*
D03*
Y4928740D02*
D03*
Y4850000D02*
D03*
Y4771260D02*
D03*
X6160000Y4996260D02*
D03*
Y5075000D02*
D03*
Y5153740D02*
D03*
X1130000Y4972480D02*
D03*
Y4893740D02*
D03*
Y4815000D02*
D03*
X3565000Y4766260D02*
D03*
Y4845000D02*
D03*
Y4923740D02*
D03*
Y5002480D02*
D03*
Y5081220D02*
D03*
Y5159960D02*
D03*
Y5238700D02*
D03*
X2335000Y4788740D02*
D03*
Y4867480D02*
D03*
Y4946220D02*
D03*
X1725000Y4796260D02*
D03*
Y4875000D02*
D03*
Y4953740D02*
D03*
D47*
X490000Y2060000D02*
D03*
Y2160000D02*
D03*
X590000Y2060000D02*
D03*
Y2160000D02*
D03*
X690000Y2060000D02*
D03*
Y2160000D02*
D03*
X790000Y2060000D02*
D03*
Y2160000D02*
D03*
X890000Y2060000D02*
D03*
Y2160000D02*
D03*
X990000Y2060000D02*
D03*
Y2160000D02*
D03*
X1090000Y2060000D02*
D03*
Y2160000D02*
D03*
X1190000Y2060000D02*
D03*
Y2160000D02*
D03*
X1290000Y2060000D02*
D03*
Y2160000D02*
D03*
X1390000Y2060000D02*
D03*
Y2160000D02*
D03*
X1490000Y2060000D02*
D03*
Y2160000D02*
D03*
X1590000Y2060000D02*
D03*
Y2160000D02*
D03*
X1690000Y2060000D02*
D03*
Y2160000D02*
D03*
X1790000Y2060000D02*
D03*
Y2160000D02*
D03*
X1890000Y2060000D02*
D03*
Y2160000D02*
D03*
X1990000Y2060000D02*
D03*
Y2160000D02*
D03*
X2090000Y2060000D02*
D03*
Y2160000D02*
D03*
X2190000Y2060000D02*
D03*
Y2160000D02*
D03*
X2290000Y2060000D02*
D03*
Y2160000D02*
D03*
X2390000Y2060000D02*
D03*
Y2160000D02*
D03*
X2490000Y2060000D02*
D03*
Y2160000D02*
D03*
X2590000Y2060000D02*
D03*
Y2160000D02*
D03*
X2690000Y2060000D02*
D03*
Y2160000D02*
D03*
X2790000Y2060000D02*
D03*
Y2160000D02*
D03*
X2890000Y2060000D02*
D03*
X490000Y4060000D02*
D03*
Y4160000D02*
D03*
X590000Y4060000D02*
D03*
Y4160000D02*
D03*
X690000Y4060000D02*
D03*
Y4160000D02*
D03*
X790000Y4060000D02*
D03*
Y4160000D02*
D03*
X890000Y4060000D02*
D03*
Y4160000D02*
D03*
X990000Y4060000D02*
D03*
Y4160000D02*
D03*
X1090000Y4060000D02*
D03*
Y4160000D02*
D03*
X1190000Y4060000D02*
D03*
Y4160000D02*
D03*
X1290000Y4060000D02*
D03*
Y4160000D02*
D03*
X1390000Y4060000D02*
D03*
Y4160000D02*
D03*
X1490000Y4060000D02*
D03*
Y4160000D02*
D03*
X1590000Y4060000D02*
D03*
Y4160000D02*
D03*
X1690000Y4060000D02*
D03*
Y4160000D02*
D03*
X1790000Y4060000D02*
D03*
Y4160000D02*
D03*
X1890000Y4060000D02*
D03*
Y4160000D02*
D03*
X1990000Y4060000D02*
D03*
Y4160000D02*
D03*
X2090000Y4060000D02*
D03*
Y4160000D02*
D03*
X2190000Y4060000D02*
D03*
Y4160000D02*
D03*
X2290000Y4060000D02*
D03*
Y4160000D02*
D03*
X2390000Y4060000D02*
D03*
Y4160000D02*
D03*
X2490000Y4060000D02*
D03*
Y4160000D02*
D03*
X2590000Y4060000D02*
D03*
Y4160000D02*
D03*
X2690000Y4060000D02*
D03*
Y4160000D02*
D03*
X2790000Y4060000D02*
D03*
Y4160000D02*
D03*
X2890000Y4060000D02*
D03*
D48*
Y2160000D02*
D03*
Y4160000D02*
D03*
D49*
X6185000Y1185000D02*
D03*
X5915000Y1295000D02*
D03*
X5615000Y1180000D02*
D03*
D50*
X6185000Y1285000D02*
D03*
X5915000Y1195000D02*
D03*
X5615000Y1280000D02*
D03*
D51*
X710000Y1450000D02*
D03*
D52*
Y1568110D02*
D03*
D53*
X632834Y1331890D02*
D03*
Y1686220D02*
D03*
D54*
X3320000Y1127520D02*
D03*
D55*
Y1206260D02*
D03*
Y1285000D02*
D03*
Y1363740D02*
D03*
Y1442480D02*
D03*
Y1521220D02*
D03*
D56*
X830000Y900000D02*
D03*
X7620000D02*
D03*
X7625000Y5220000D02*
D03*
X830000D02*
D03*
D61*
X4995000Y2250000D02*
D03*
X5115000D02*
D03*
X1010000Y1565000D02*
D03*
X890000D02*
D03*
D62*
X7335000Y2110000D02*
D03*
Y2050000D02*
D03*
X7210000Y2110000D02*
D03*
Y2050000D02*
D03*
X6625000Y2130000D02*
D03*
Y2070000D02*
D03*
X6780000Y2130000D02*
D03*
Y2070000D02*
D03*
X6880000Y3420000D02*
D03*
Y3360000D02*
D03*
X7015000Y3420000D02*
D03*
Y3360000D02*
D03*
X7380000Y3400000D02*
D03*
Y3340000D02*
D03*
X7250000Y3390000D02*
D03*
Y3330000D02*
D03*
X7230000Y4660000D02*
D03*
Y4600000D02*
D03*
X7145000Y4660000D02*
D03*
Y4600000D02*
D03*
X7025000Y4655000D02*
D03*
Y4595000D02*
D03*
X6920000Y4655000D02*
D03*
Y4595000D02*
D03*
X1505000Y1105000D02*
D03*
Y1165000D02*
D03*
X4425000Y1325000D02*
D03*
Y1265000D02*
D03*
X3965000Y1345000D02*
D03*
Y1405000D02*
D03*
X3840000D02*
D03*
Y1345000D02*
D03*
X985000Y1190000D02*
D03*
Y1250000D02*
D03*
X4870000Y3525000D02*
D03*
Y3585000D02*
D03*
X4620000Y3525000D02*
D03*
Y3585000D02*
D03*
X4880000Y3870000D02*
D03*
Y3930000D02*
D03*
X4630000Y3875000D02*
D03*
Y3935000D02*
D03*
X5830000Y5055000D02*
D03*
Y4995000D02*
D03*
X5975000Y5050000D02*
D03*
Y4990000D02*
D03*
X4075000Y5045000D02*
D03*
Y4985000D02*
D03*
X3935000Y5045000D02*
D03*
Y4985000D02*
D03*
X1455000Y4670000D02*
D03*
Y4730000D02*
D03*
X1320000Y4670000D02*
D03*
Y4730000D02*
D03*
X3765000Y4750000D02*
D03*
Y4690000D02*
D03*
X3925000Y4750000D02*
D03*
Y4690000D02*
D03*
X3640000Y1500000D02*
D03*
Y1440000D02*
D03*
X3525000Y1505000D02*
D03*
Y1445000D02*
D03*
X2520000Y4945000D02*
D03*
Y4885000D02*
D03*
X2665000Y4945000D02*
D03*
Y4885000D02*
D03*
X2040000Y4950000D02*
D03*
Y4890000D02*
D03*
X1910000Y4950000D02*
D03*
Y4890000D02*
D03*
X2075000Y1395000D02*
D03*
Y1335000D02*
D03*
X2200000Y1395000D02*
D03*
Y1335000D02*
D03*
X5190000Y2290000D02*
D03*
Y2350000D02*
D03*
X5320000Y2295000D02*
D03*
Y2355000D02*
D03*
X5450000Y2290000D02*
D03*
Y2350000D02*
D03*
X6875000Y1815000D02*
D03*
Y1875000D02*
D03*
X6515000Y2930000D02*
D03*
Y2870000D02*
D03*
X6605000Y2930000D02*
D03*
Y2870000D02*
D03*
X6530000Y4235000D02*
D03*
Y4175000D02*
D03*
X6435000Y4235000D02*
D03*
Y4175000D02*
D03*
X5120000Y3925000D02*
D03*
Y3865000D02*
D03*
X3060000Y1305000D02*
D03*
Y1365000D02*
D03*
X3175000Y5000000D02*
D03*
Y5060000D02*
D03*
X3295000Y5000000D02*
D03*
Y5060000D02*
D03*
X2935000Y1305000D02*
D03*
Y1365000D02*
D03*
D63*
X5435000Y2828386D02*
D03*
Y2501614D02*
D03*
D64*
X5309134Y3045000D02*
D03*
X5450866D02*
D03*
D65*
X1490000Y1570000D02*
D03*
X1550000D02*
D03*
X5880000Y5155000D02*
D03*
X5940000D02*
D03*
X5885000Y5285000D02*
D03*
X5945000D02*
D03*
X3305000Y5240000D02*
D03*
X3365000D02*
D03*
X3970000Y5275000D02*
D03*
X4030000D02*
D03*
X2540000Y4620000D02*
D03*
X2600000D02*
D03*
X2540000Y4780000D02*
D03*
X2600000D02*
D03*
X1935000Y4765000D02*
D03*
X1995000D02*
D03*
X2005000Y4655000D02*
D03*
X1945000D02*
D03*
X5460000Y4885000D02*
D03*
X5520000D02*
D03*
X2175000Y1590000D02*
D03*
X2115000D02*
D03*
X5020000Y2355000D02*
D03*
X5080000D02*
D03*
X4925000D02*
D03*
X4865000D02*
D03*
X6925000Y2045000D02*
D03*
X6865000D02*
D03*
X7075000D02*
D03*
X7015000D02*
D03*
X6825000Y3015000D02*
D03*
X6765000D02*
D03*
X6845000Y4045000D02*
D03*
X6785000D02*
D03*
D66*
X1486850Y1387402D02*
D03*
Y1312598D02*
D03*
X1593150Y1350000D02*
D03*
D67*
X6727244Y4215000D02*
D03*
X6632756Y4177598D02*
D03*
Y4252402D02*
D03*
X6787244Y2900000D02*
D03*
X6692756Y2862598D02*
D03*
Y2937402D02*
D03*
D68*
X5000000Y2865000D02*
D03*
D69*
X5150000Y2525000D02*
D03*
X5100000D02*
D03*
X5050000D02*
D03*
X5000000D02*
D03*
X4950000D02*
D03*
X4900000D02*
D03*
X4850000D02*
D03*
D70*
X7050000Y1812756D02*
D03*
X7012598Y1907244D02*
D03*
X7087402D02*
D03*
%TF.MD5,027307d80c625faf2d224bd517bdd116*%
M02*
