%TF.GenerationSoftware,Altium Limited,Altium Designer,20.2.5 (213)*%
G04 Layer_Color=8388736*
%FSLAX26Y26*%
%MOIN*%
%TF.SameCoordinates,9BAFD9CD-774C-4051-972E-F2DD54F50950*%
%TF.FilePolarity,Positive*%
%TF.FileFunction,Other,Mechanical_2*%
%TF.Part,Single*%
G01*
G75*
%TA.AperFunction,NonConductor*%
%ADD73C,0.000500*%
%TA.AperFunction,SMDPad,CuDef*%
%ADD74C,0.000500*%
D73*
X803345Y5458752D02*
G03*
X596252Y5332009I14716J-256609D01*
G01*
X7879718Y5332007D02*
G03*
X7693111Y5458749I-177290J-60285D01*
G01*
X596249Y804447D02*
G03*
X797368Y683961I202471J109871D01*
G01*
X7687133Y683967D02*
G03*
X7879714Y804451I15905J188731D01*
G01*
X399402Y1370684D02*
X404500Y4419784D01*
X596252Y804448D02*
Y1173834D01*
Y5332008D02*
X601350Y4616634D01*
X7879718Y804448D02*
Y5332008D01*
X399402Y1370684D02*
X596252Y1173834D01*
X404500Y4419784D02*
X601350Y4616634D01*
X803346Y5458752D02*
X7693110D01*
X797370Y683964D02*
X7687134D01*
D74*
X803344Y5458752D02*
D03*
X596252Y5332010D02*
D03*
X7879718Y5332006D02*
D03*
X7693112Y5458748D02*
D03*
X596250Y804446D02*
D03*
X797368Y683962D02*
D03*
X7687132Y683968D02*
D03*
X7879714Y804450D02*
D03*
X760362Y5219062D02*
D03*
X898158D02*
D03*
X760466Y897662D02*
D03*
X898260D02*
D03*
X7553166Y895862D02*
D03*
X7690962D02*
D03*
X7556166Y5219862D02*
D03*
X7693962D02*
D03*
X404500Y4419784D02*
D03*
X399402Y1370684D02*
D03*
X596252Y1173834D02*
D03*
Y804448D02*
D03*
X601350Y4616634D02*
D03*
X596252Y5332008D02*
D03*
X7879718D02*
D03*
Y804448D02*
D03*
X596252Y1173834D02*
D03*
X399402Y1370684D02*
D03*
X601350Y4616634D02*
D03*
X404500Y4419784D02*
D03*
X7693110Y5458752D02*
D03*
X803346D02*
D03*
X7687134Y683964D02*
D03*
X797370D02*
D03*
%TF.MD5,15492a007d5356efe1839e30189afa27*%
M02*
