%TF.GenerationSoftware,Altium Limited,Altium Designer,20.2.5 (213)*%
G04 Layer_Color=0*
%FSLAX26Y26*%
%MOIN*%
%TF.SameCoordinates,9BAFD9CD-774C-4051-972E-F2DD54F50950*%
%TF.FilePolarity,Positive*%
%TF.FileFunction,Plated,1,4,PTH,Drill*%
%TF.Part,Single*%
G01*
G75*
%TA.AperFunction,ComponentDrill*%
%ADD79C,0.040000*%
%ADD80C,0.031496*%
%ADD81C,0.035433*%
%ADD82C,0.039370*%
%ADD83C,0.043307*%
%ADD84C,0.040157*%
%TA.AperFunction,OtherDrill,Pad Free-5 (830mil,900mil)*%
%ADD85C,0.137795*%
%TA.AperFunction,OtherDrill,Pad Free-4 (7620mil,900mil)*%
%ADD86C,0.137795*%
%TA.AperFunction,OtherDrill,Pad Free-3 (7625mil,5220mil)*%
%ADD87C,0.137795*%
%TA.AperFunction,OtherDrill,Pad Free-2 (830mil,5220mil)*%
%ADD88C,0.137795*%
%TA.AperFunction,ViaDrill,NotFilled*%
%ADD89C,0.015000*%
D79*
X7825000Y3910000D02*
D03*
X7725000D02*
D03*
X7625000D02*
D03*
X7525000D02*
D03*
X7425000D02*
D03*
X7325000D02*
D03*
X7225000D02*
D03*
X7125000D02*
D03*
X7025000D02*
D03*
X6925000D02*
D03*
X6825000D02*
D03*
X6725000D02*
D03*
X6625000D02*
D03*
X7825000Y2630000D02*
D03*
X7725000D02*
D03*
X7625000D02*
D03*
X7525000D02*
D03*
X7425000D02*
D03*
X7325000D02*
D03*
X7225000D02*
D03*
X7125000D02*
D03*
X7025000D02*
D03*
X6925000D02*
D03*
X6825000D02*
D03*
X6725000D02*
D03*
X6625000D02*
D03*
Y4810000D02*
D03*
X6725000D02*
D03*
X6825000D02*
D03*
X6925000D02*
D03*
X7025000D02*
D03*
X7125000D02*
D03*
X7225000D02*
D03*
X7325000D02*
D03*
X7425000D02*
D03*
X7525000D02*
D03*
X7625000D02*
D03*
Y2275000D02*
D03*
X7525000D02*
D03*
X7425000D02*
D03*
X7325000D02*
D03*
X7225000D02*
D03*
X7125000D02*
D03*
X7025000D02*
D03*
X6925000D02*
D03*
X6825000D02*
D03*
X6725000D02*
D03*
X6625000D02*
D03*
X7625000Y3530000D02*
D03*
X7525000D02*
D03*
X7425000D02*
D03*
X7325000D02*
D03*
X7225000D02*
D03*
X7125000D02*
D03*
X7025000D02*
D03*
X6925000D02*
D03*
X6825000D02*
D03*
X6725000D02*
D03*
X6625000D02*
D03*
Y1375000D02*
D03*
X6725000D02*
D03*
X6825000D02*
D03*
X6925000D02*
D03*
X7025000D02*
D03*
X7125000D02*
D03*
X7225000D02*
D03*
X7325000D02*
D03*
X7425000D02*
D03*
X7525000D02*
D03*
X7625000D02*
D03*
X7725000D02*
D03*
X7825000D02*
D03*
D80*
X1885000Y1408740D02*
D03*
Y1330000D02*
D03*
Y1251260D02*
D03*
X1315000Y1348740D02*
D03*
Y1270000D02*
D03*
X4785000Y1261260D02*
D03*
Y1340000D02*
D03*
X4450000Y5027520D02*
D03*
Y5106260D02*
D03*
Y5185000D02*
D03*
X3320000Y1127520D02*
D03*
Y1206260D02*
D03*
Y1285000D02*
D03*
Y1363740D02*
D03*
Y1442480D02*
D03*
Y1521220D02*
D03*
X2650000Y1310000D02*
D03*
Y1388740D02*
D03*
X5490000Y5163740D02*
D03*
Y5085000D02*
D03*
D81*
X4150000Y1151260D02*
D03*
Y1230000D02*
D03*
Y1308740D02*
D03*
Y1387480D02*
D03*
X2985000Y5243702D02*
D03*
Y5164960D02*
D03*
Y5086220D02*
D03*
Y5007480D02*
D03*
Y4928740D02*
D03*
Y4850000D02*
D03*
Y4771260D02*
D03*
Y4692520D02*
D03*
X6160000Y4996260D02*
D03*
Y5075000D02*
D03*
Y5153740D02*
D03*
Y5232480D02*
D03*
X1130000Y4972480D02*
D03*
Y4893740D02*
D03*
Y4815000D02*
D03*
Y4736260D02*
D03*
X3565000Y4687520D02*
D03*
Y4766260D02*
D03*
Y4845000D02*
D03*
Y4923740D02*
D03*
Y5002480D02*
D03*
Y5081220D02*
D03*
Y5159960D02*
D03*
Y5238700D02*
D03*
X2335000Y4710000D02*
D03*
Y4788740D02*
D03*
Y4867480D02*
D03*
Y4946220D02*
D03*
X1725000Y4717520D02*
D03*
Y4796260D02*
D03*
Y4875000D02*
D03*
Y4953740D02*
D03*
D82*
X490000Y2060000D02*
D03*
Y2160000D02*
D03*
X590000Y2060000D02*
D03*
Y2160000D02*
D03*
X690000Y2060000D02*
D03*
Y2160000D02*
D03*
X790000Y2060000D02*
D03*
Y2160000D02*
D03*
X890000Y2060000D02*
D03*
Y2160000D02*
D03*
X990000Y2060000D02*
D03*
Y2160000D02*
D03*
X1090000Y2060000D02*
D03*
Y2160000D02*
D03*
X1190000Y2060000D02*
D03*
Y2160000D02*
D03*
X1290000Y2060000D02*
D03*
Y2160000D02*
D03*
X1390000Y2060000D02*
D03*
Y2160000D02*
D03*
X1490000Y2060000D02*
D03*
Y2160000D02*
D03*
X1590000Y2060000D02*
D03*
Y2160000D02*
D03*
X1690000Y2060000D02*
D03*
Y2160000D02*
D03*
X1790000Y2060000D02*
D03*
Y2160000D02*
D03*
X1890000Y2060000D02*
D03*
Y2160000D02*
D03*
X1990000Y2060000D02*
D03*
Y2160000D02*
D03*
X2090000Y2060000D02*
D03*
Y2160000D02*
D03*
X2190000Y2060000D02*
D03*
Y2160000D02*
D03*
X2290000Y2060000D02*
D03*
Y2160000D02*
D03*
X2390000Y2060000D02*
D03*
Y2160000D02*
D03*
X2490000Y2060000D02*
D03*
Y2160000D02*
D03*
X2590000Y2060000D02*
D03*
Y2160000D02*
D03*
X2690000Y2060000D02*
D03*
Y2160000D02*
D03*
X2790000Y2060000D02*
D03*
Y2160000D02*
D03*
X2890000Y2060000D02*
D03*
Y2160000D02*
D03*
X490000Y4060000D02*
D03*
Y4160000D02*
D03*
X590000Y4060000D02*
D03*
Y4160000D02*
D03*
X690000Y4060000D02*
D03*
Y4160000D02*
D03*
X790000Y4060000D02*
D03*
Y4160000D02*
D03*
X890000Y4060000D02*
D03*
Y4160000D02*
D03*
X990000Y4060000D02*
D03*
Y4160000D02*
D03*
X1090000Y4060000D02*
D03*
Y4160000D02*
D03*
X1190000Y4060000D02*
D03*
Y4160000D02*
D03*
X1290000Y4060000D02*
D03*
Y4160000D02*
D03*
X1390000Y4060000D02*
D03*
Y4160000D02*
D03*
X1490000Y4060000D02*
D03*
Y4160000D02*
D03*
X1590000Y4060000D02*
D03*
Y4160000D02*
D03*
X1690000Y4060000D02*
D03*
Y4160000D02*
D03*
X1790000Y4060000D02*
D03*
Y4160000D02*
D03*
X1890000Y4060000D02*
D03*
Y4160000D02*
D03*
X1990000Y4060000D02*
D03*
Y4160000D02*
D03*
X2090000Y4060000D02*
D03*
Y4160000D02*
D03*
X2190000Y4060000D02*
D03*
Y4160000D02*
D03*
X2290000Y4060000D02*
D03*
Y4160000D02*
D03*
X2390000Y4060000D02*
D03*
Y4160000D02*
D03*
X2490000Y4060000D02*
D03*
Y4160000D02*
D03*
X2590000Y4060000D02*
D03*
Y4160000D02*
D03*
X2690000Y4060000D02*
D03*
Y4160000D02*
D03*
X2790000Y4060000D02*
D03*
Y4160000D02*
D03*
X2890000Y4060000D02*
D03*
Y4160000D02*
D03*
D83*
X6185000Y1185000D02*
D03*
Y1285000D02*
D03*
X5915000Y1295000D02*
D03*
Y1195000D02*
D03*
X5615000Y1180000D02*
D03*
Y1280000D02*
D03*
D84*
X710000Y1450000D02*
D03*
Y1568110D02*
D03*
D85*
X830000Y900000D02*
D03*
D86*
X7620000D02*
D03*
D87*
X7625000Y5220000D02*
D03*
D88*
X830000D02*
D03*
D89*
X1455000Y4535000D02*
D03*
X1420000Y3820000D02*
D03*
X1610000Y3815000D02*
D03*
X1018000Y4220000D02*
D03*
X6900000Y3000000D02*
D03*
X6982402D02*
D03*
X7620000Y1020000D02*
D03*
X7420000Y820000D02*
D03*
X7220000Y5020000D02*
D03*
Y820000D02*
D03*
X7020000Y5220000D02*
D03*
Y5020000D02*
D03*
Y820000D02*
D03*
X6820000Y5220000D02*
D03*
Y5020000D02*
D03*
Y820000D02*
D03*
X6620000Y5220000D02*
D03*
Y5020000D02*
D03*
Y820000D02*
D03*
X6420000Y5220000D02*
D03*
Y5020000D02*
D03*
Y820000D02*
D03*
X6220000Y5220000D02*
D03*
Y820000D02*
D03*
X6020000Y5220000D02*
D03*
Y820000D02*
D03*
X5820000Y5220000D02*
D03*
Y820000D02*
D03*
X5620000Y5220000D02*
D03*
Y5020000D02*
D03*
Y820000D02*
D03*
X5420000Y5220000D02*
D03*
Y820000D02*
D03*
X5220000Y5220000D02*
D03*
Y5020000D02*
D03*
Y820000D02*
D03*
X5020000Y5220000D02*
D03*
Y5020000D02*
D03*
Y820000D02*
D03*
X4820000Y5220000D02*
D03*
Y5020000D02*
D03*
Y820000D02*
D03*
X4620000Y5220000D02*
D03*
Y5020000D02*
D03*
Y820000D02*
D03*
X4420000Y4820000D02*
D03*
Y820000D02*
D03*
X4220000Y5220000D02*
D03*
Y5020000D02*
D03*
Y4820000D02*
D03*
Y4620000D02*
D03*
Y820000D02*
D03*
X4020000Y4820000D02*
D03*
Y4620000D02*
D03*
Y4420000D02*
D03*
Y4220000D02*
D03*
Y3620000D02*
D03*
Y3420000D02*
D03*
Y3220000D02*
D03*
Y3020000D02*
D03*
Y2820000D02*
D03*
Y1220000D02*
D03*
Y820000D02*
D03*
X3820000Y5220000D02*
D03*
Y5020000D02*
D03*
Y4620000D02*
D03*
Y4420000D02*
D03*
Y3620000D02*
D03*
Y3420000D02*
D03*
Y3220000D02*
D03*
Y3020000D02*
D03*
Y2820000D02*
D03*
Y2620000D02*
D03*
Y2420000D02*
D03*
Y2220000D02*
D03*
Y2020000D02*
D03*
Y1620000D02*
D03*
Y1220000D02*
D03*
Y820000D02*
D03*
X3620000Y4820000D02*
D03*
Y4620000D02*
D03*
Y4020000D02*
D03*
Y3620000D02*
D03*
Y3420000D02*
D03*
Y3220000D02*
D03*
Y3020000D02*
D03*
Y2820000D02*
D03*
Y2620000D02*
D03*
Y2420000D02*
D03*
Y2220000D02*
D03*
Y2020000D02*
D03*
Y1620000D02*
D03*
Y1020000D02*
D03*
Y820000D02*
D03*
X3420000Y5020000D02*
D03*
Y2020000D02*
D03*
Y1620000D02*
D03*
Y1020000D02*
D03*
Y820000D02*
D03*
X3220000Y5220000D02*
D03*
Y4820000D02*
D03*
Y4620000D02*
D03*
Y4220000D02*
D03*
Y4020000D02*
D03*
Y3620000D02*
D03*
Y3420000D02*
D03*
Y3220000D02*
D03*
Y3020000D02*
D03*
Y2820000D02*
D03*
Y1620000D02*
D03*
Y820000D02*
D03*
X3020000Y4820000D02*
D03*
Y4620000D02*
D03*
Y1220000D02*
D03*
Y820000D02*
D03*
X2820000Y5220000D02*
D03*
Y5020000D02*
D03*
Y4820000D02*
D03*
Y3620000D02*
D03*
Y3420000D02*
D03*
Y3220000D02*
D03*
Y3020000D02*
D03*
Y2820000D02*
D03*
Y2620000D02*
D03*
Y1620000D02*
D03*
Y1420000D02*
D03*
Y1220000D02*
D03*
Y820000D02*
D03*
X2620000Y5220000D02*
D03*
Y5020000D02*
D03*
Y3620000D02*
D03*
Y3420000D02*
D03*
Y3220000D02*
D03*
Y3020000D02*
D03*
Y2820000D02*
D03*
Y2620000D02*
D03*
Y1620000D02*
D03*
Y1220000D02*
D03*
Y820000D02*
D03*
X2420000Y5220000D02*
D03*
Y3620000D02*
D03*
Y3420000D02*
D03*
Y3220000D02*
D03*
Y3020000D02*
D03*
Y2820000D02*
D03*
Y2620000D02*
D03*
Y1620000D02*
D03*
Y1420000D02*
D03*
Y1220000D02*
D03*
Y820000D02*
D03*
X2220000Y5220000D02*
D03*
Y5020000D02*
D03*
Y4820000D02*
D03*
Y4620000D02*
D03*
Y3620000D02*
D03*
Y3420000D02*
D03*
Y3220000D02*
D03*
Y3020000D02*
D03*
Y2820000D02*
D03*
Y2620000D02*
D03*
Y2020000D02*
D03*
Y1620000D02*
D03*
Y1220000D02*
D03*
Y1020000D02*
D03*
Y820000D02*
D03*
X2020000Y5220000D02*
D03*
Y4620000D02*
D03*
Y3620000D02*
D03*
Y3420000D02*
D03*
Y3220000D02*
D03*
Y3020000D02*
D03*
Y2820000D02*
D03*
Y1620000D02*
D03*
Y1220000D02*
D03*
Y1020000D02*
D03*
Y820000D02*
D03*
X1820000Y5220000D02*
D03*
Y5020000D02*
D03*
Y4020000D02*
D03*
Y3620000D02*
D03*
Y3420000D02*
D03*
Y3220000D02*
D03*
Y3020000D02*
D03*
Y2620000D02*
D03*
Y1220000D02*
D03*
Y1020000D02*
D03*
Y820000D02*
D03*
X1620000Y5220000D02*
D03*
Y5020000D02*
D03*
Y4820000D02*
D03*
Y4220000D02*
D03*
Y4020000D02*
D03*
Y3620000D02*
D03*
Y3420000D02*
D03*
Y3220000D02*
D03*
Y2820000D02*
D03*
Y2620000D02*
D03*
Y2220000D02*
D03*
Y1620000D02*
D03*
Y1220000D02*
D03*
Y1020000D02*
D03*
Y820000D02*
D03*
X1420000Y5220000D02*
D03*
Y5020000D02*
D03*
Y4820000D02*
D03*
Y3620000D02*
D03*
Y3420000D02*
D03*
Y3020000D02*
D03*
Y2820000D02*
D03*
Y2620000D02*
D03*
Y1620000D02*
D03*
Y1420000D02*
D03*
Y1220000D02*
D03*
Y1020000D02*
D03*
Y820000D02*
D03*
X1220000Y5220000D02*
D03*
Y5020000D02*
D03*
Y4620000D02*
D03*
Y4220000D02*
D03*
Y4020000D02*
D03*
Y3820000D02*
D03*
Y3620000D02*
D03*
Y3220000D02*
D03*
Y3020000D02*
D03*
Y2820000D02*
D03*
Y2620000D02*
D03*
Y2420000D02*
D03*
Y2020000D02*
D03*
Y1620000D02*
D03*
Y1420000D02*
D03*
Y1220000D02*
D03*
Y1020000D02*
D03*
Y820000D02*
D03*
X1020000Y5220000D02*
D03*
Y5020000D02*
D03*
Y4620000D02*
D03*
Y4020000D02*
D03*
Y3820000D02*
D03*
Y3420000D02*
D03*
Y3220000D02*
D03*
Y3020000D02*
D03*
Y2820000D02*
D03*
Y2620000D02*
D03*
Y2420000D02*
D03*
Y2220000D02*
D03*
Y1820000D02*
D03*
Y1220000D02*
D03*
Y1020000D02*
D03*
Y820000D02*
D03*
X820000Y5020000D02*
D03*
Y4820000D02*
D03*
Y4420000D02*
D03*
Y4020000D02*
D03*
Y3620000D02*
D03*
Y3420000D02*
D03*
Y3220000D02*
D03*
Y3020000D02*
D03*
Y2820000D02*
D03*
Y2620000D02*
D03*
Y2420000D02*
D03*
Y2220000D02*
D03*
Y2020000D02*
D03*
Y1620000D02*
D03*
Y1420000D02*
D03*
Y1220000D02*
D03*
Y1020000D02*
D03*
X620000Y5220000D02*
D03*
Y5020000D02*
D03*
Y4820000D02*
D03*
Y4620000D02*
D03*
Y4220000D02*
D03*
Y4020000D02*
D03*
Y3620000D02*
D03*
Y3420000D02*
D03*
Y3220000D02*
D03*
Y3020000D02*
D03*
Y2820000D02*
D03*
Y2620000D02*
D03*
Y2420000D02*
D03*
Y2220000D02*
D03*
Y1820000D02*
D03*
Y1620000D02*
D03*
Y1420000D02*
D03*
Y1220000D02*
D03*
Y1020000D02*
D03*
X7520000Y4670000D02*
D03*
Y4520000D02*
D03*
Y3770000D02*
D03*
Y3620000D02*
D03*
Y3470000D02*
D03*
Y3320000D02*
D03*
Y3170000D02*
D03*
Y3020000D02*
D03*
Y2870000D02*
D03*
Y2720000D02*
D03*
Y2570000D02*
D03*
Y2420000D02*
D03*
Y2120000D02*
D03*
Y1970000D02*
D03*
Y1820000D02*
D03*
Y1670000D02*
D03*
Y1520000D02*
D03*
Y1220000D02*
D03*
X7370000Y4670000D02*
D03*
Y4520000D02*
D03*
Y4370000D02*
D03*
Y4220000D02*
D03*
Y4070000D02*
D03*
Y3770000D02*
D03*
Y3170000D02*
D03*
Y3020000D02*
D03*
Y2870000D02*
D03*
Y2720000D02*
D03*
Y2570000D02*
D03*
Y1520000D02*
D03*
Y1220000D02*
D03*
X7220000Y4520000D02*
D03*
Y4370000D02*
D03*
Y4220000D02*
D03*
Y4070000D02*
D03*
Y3770000D02*
D03*
Y3620000D02*
D03*
Y3170000D02*
D03*
Y3020000D02*
D03*
Y2870000D02*
D03*
Y2720000D02*
D03*
Y2420000D02*
D03*
Y1970000D02*
D03*
Y1820000D02*
D03*
Y1670000D02*
D03*
Y1520000D02*
D03*
Y1070000D02*
D03*
X7070000Y4670000D02*
D03*
Y1220000D02*
D03*
X6920000Y4520000D02*
D03*
Y1220000D02*
D03*
X6770000Y4670000D02*
D03*
Y4520000D02*
D03*
Y1220000D02*
D03*
X6620000Y4670000D02*
D03*
Y4520000D02*
D03*
Y3620000D02*
D03*
Y3470000D02*
D03*
Y3320000D02*
D03*
Y3020000D02*
D03*
Y2720000D02*
D03*
Y1820000D02*
D03*
Y1670000D02*
D03*
Y1520000D02*
D03*
X6470000Y4820000D02*
D03*
Y4520000D02*
D03*
Y4070000D02*
D03*
Y3920000D02*
D03*
Y2720000D02*
D03*
Y2120000D02*
D03*
Y1820000D02*
D03*
Y1670000D02*
D03*
Y1520000D02*
D03*
X6320000Y4820000D02*
D03*
Y4670000D02*
D03*
Y4220000D02*
D03*
Y4070000D02*
D03*
Y3920000D02*
D03*
Y3770000D02*
D03*
Y2570000D02*
D03*
Y1820000D02*
D03*
Y1670000D02*
D03*
Y1520000D02*
D03*
X6170000Y4820000D02*
D03*
Y4670000D02*
D03*
Y4520000D02*
D03*
Y4220000D02*
D03*
Y4070000D02*
D03*
Y3920000D02*
D03*
Y3770000D02*
D03*
Y3620000D02*
D03*
Y3470000D02*
D03*
Y3320000D02*
D03*
Y3020000D02*
D03*
Y2870000D02*
D03*
Y1820000D02*
D03*
Y1670000D02*
D03*
Y1520000D02*
D03*
X6020000Y4820000D02*
D03*
Y4670000D02*
D03*
Y4520000D02*
D03*
Y4220000D02*
D03*
Y3920000D02*
D03*
Y3770000D02*
D03*
Y3620000D02*
D03*
Y3470000D02*
D03*
Y3320000D02*
D03*
Y3020000D02*
D03*
X5870000Y4820000D02*
D03*
Y4670000D02*
D03*
Y4520000D02*
D03*
Y4220000D02*
D03*
Y3920000D02*
D03*
Y3770000D02*
D03*
Y3620000D02*
D03*
Y3470000D02*
D03*
Y3320000D02*
D03*
Y2870000D02*
D03*
Y2720000D02*
D03*
Y2120000D02*
D03*
X5720000Y4670000D02*
D03*
Y4520000D02*
D03*
Y4220000D02*
D03*
Y3920000D02*
D03*
Y3770000D02*
D03*
Y3620000D02*
D03*
Y3470000D02*
D03*
Y3320000D02*
D03*
Y3020000D02*
D03*
Y2870000D02*
D03*
Y2720000D02*
D03*
Y1220000D02*
D03*
X5570000Y4820000D02*
D03*
Y4520000D02*
D03*
Y4220000D02*
D03*
Y3920000D02*
D03*
Y3770000D02*
D03*
Y3620000D02*
D03*
Y3470000D02*
D03*
Y2270000D02*
D03*
X5420000Y4820000D02*
D03*
Y4670000D02*
D03*
Y4220000D02*
D03*
Y3920000D02*
D03*
Y3770000D02*
D03*
Y3620000D02*
D03*
Y3470000D02*
D03*
Y2120000D02*
D03*
Y1970000D02*
D03*
Y1820000D02*
D03*
Y1670000D02*
D03*
Y1520000D02*
D03*
Y1370000D02*
D03*
Y1220000D02*
D03*
X5270000Y4820000D02*
D03*
Y4670000D02*
D03*
Y4520000D02*
D03*
Y3770000D02*
D03*
Y3620000D02*
D03*
Y3470000D02*
D03*
Y2870000D02*
D03*
Y2720000D02*
D03*
Y2570000D02*
D03*
Y2120000D02*
D03*
Y1970000D02*
D03*
Y1820000D02*
D03*
Y1670000D02*
D03*
Y1520000D02*
D03*
Y1370000D02*
D03*
X5120000Y4820000D02*
D03*
Y4670000D02*
D03*
Y4520000D02*
D03*
Y3770000D02*
D03*
Y3620000D02*
D03*
Y3470000D02*
D03*
Y2120000D02*
D03*
Y1970000D02*
D03*
Y1820000D02*
D03*
Y1670000D02*
D03*
Y1520000D02*
D03*
Y1070000D02*
D03*
X4970000Y4820000D02*
D03*
Y4670000D02*
D03*
Y4520000D02*
D03*
Y4220000D02*
D03*
Y3770000D02*
D03*
Y3620000D02*
D03*
Y3470000D02*
D03*
Y2120000D02*
D03*
Y1970000D02*
D03*
Y1820000D02*
D03*
Y1670000D02*
D03*
Y1220000D02*
D03*
Y1070000D02*
D03*
X4820000Y4820000D02*
D03*
Y4670000D02*
D03*
Y4520000D02*
D03*
Y4220000D02*
D03*
Y3620000D02*
D03*
Y3470000D02*
D03*
Y2420000D02*
D03*
Y2120000D02*
D03*
Y1970000D02*
D03*
Y1820000D02*
D03*
Y1670000D02*
D03*
Y1220000D02*
D03*
Y1070000D02*
D03*
X4670000Y4820000D02*
D03*
Y4670000D02*
D03*
Y4520000D02*
D03*
Y4220000D02*
D03*
Y3620000D02*
D03*
Y3470000D02*
D03*
Y3020000D02*
D03*
Y2870000D02*
D03*
Y2720000D02*
D03*
Y2570000D02*
D03*
Y2270000D02*
D03*
Y1970000D02*
D03*
Y1820000D02*
D03*
Y1520000D02*
D03*
Y1370000D02*
D03*
Y1220000D02*
D03*
Y1070000D02*
D03*
X4520000Y4820000D02*
D03*
Y4670000D02*
D03*
Y4520000D02*
D03*
Y4220000D02*
D03*
Y3920000D02*
D03*
Y3620000D02*
D03*
Y3320000D02*
D03*
Y3170000D02*
D03*
Y3020000D02*
D03*
Y2870000D02*
D03*
Y2720000D02*
D03*
Y2420000D02*
D03*
Y2270000D02*
D03*
Y2120000D02*
D03*
Y1820000D02*
D03*
Y1520000D02*
D03*
Y1370000D02*
D03*
Y1220000D02*
D03*
Y1070000D02*
D03*
X4370000Y4670000D02*
D03*
Y4520000D02*
D03*
Y4220000D02*
D03*
Y3920000D02*
D03*
Y3470000D02*
D03*
Y3320000D02*
D03*
Y3170000D02*
D03*
Y3020000D02*
D03*
Y2870000D02*
D03*
Y2720000D02*
D03*
Y2420000D02*
D03*
Y1970000D02*
D03*
Y1520000D02*
D03*
Y1370000D02*
D03*
Y1220000D02*
D03*
Y1070000D02*
D03*
X4670000Y3515000D02*
D03*
X4915000D02*
D03*
X5750000Y5085000D02*
D03*
X5585000Y4900000D02*
D03*
X3890000Y5090000D02*
D03*
X3995000Y4690000D02*
D03*
X5570000Y3070000D02*
D03*
Y3020000D02*
D03*
Y2970000D02*
D03*
Y2920000D02*
D03*
Y2870000D02*
D03*
Y2820000D02*
D03*
Y2770000D02*
D03*
Y2720000D02*
D03*
Y2670000D02*
D03*
Y2620000D02*
D03*
Y2570000D02*
D03*
Y2520000D02*
D03*
X5520000Y2920000D02*
D03*
Y2870000D02*
D03*
Y2820000D02*
D03*
Y2770000D02*
D03*
Y2720000D02*
D03*
Y2670000D02*
D03*
X6695000Y3600000D02*
D03*
Y3400000D02*
D03*
Y3100000D02*
D03*
X6700000Y3000000D02*
D03*
Y2900000D02*
D03*
Y2800000D02*
D03*
X7000000Y4300000D02*
D03*
Y4100000D02*
D03*
Y4000000D02*
D03*
Y3800000D02*
D03*
Y3700000D02*
D03*
Y3600000D02*
D03*
Y3300000D02*
D03*
Y3100000D02*
D03*
Y1600000D02*
D03*
X6900000Y4100000D02*
D03*
Y4000000D02*
D03*
Y3800000D02*
D03*
Y3700000D02*
D03*
Y3600000D02*
D03*
Y3300000D02*
D03*
Y3100000D02*
D03*
Y2800000D02*
D03*
Y2500000D02*
D03*
Y2100000D02*
D03*
Y2000000D02*
D03*
Y1700000D02*
D03*
X6800000Y4300000D02*
D03*
Y4100000D02*
D03*
Y4000000D02*
D03*
Y3800000D02*
D03*
Y3700000D02*
D03*
Y3600000D02*
D03*
Y3400000D02*
D03*
Y3300000D02*
D03*
Y3100000D02*
D03*
Y2800000D02*
D03*
Y2700000D02*
D03*
Y2500000D02*
D03*
Y2400000D02*
D03*
Y2200000D02*
D03*
Y1900000D02*
D03*
Y1800000D02*
D03*
Y1700000D02*
D03*
Y1600000D02*
D03*
X6700000Y4300000D02*
D03*
Y4000000D02*
D03*
Y2700000D02*
D03*
Y2200000D02*
D03*
Y2100000D02*
D03*
Y1900000D02*
D03*
Y1800000D02*
D03*
Y1700000D02*
D03*
Y1600000D02*
D03*
X4215000Y1698000D02*
D03*
X2736887Y1742000D02*
D03*
X2410000Y1670000D02*
D03*
X6945000Y1945000D02*
D03*
X3882977Y2288044D02*
D03*
X3905000Y2115000D02*
D03*
X3874444Y1930556D02*
D03*
X3115000Y1883000D02*
D03*
X3315000Y2035000D02*
D03*
X3950000Y2390000D02*
D03*
X5105000Y3405000D02*
D03*
X6805000Y3340000D02*
D03*
X5170000Y3325000D02*
D03*
X7175000Y3275000D02*
D03*
X5305000Y3280000D02*
D03*
X5365000Y3240000D02*
D03*
X6770000Y2465000D02*
D03*
X5083292Y2148000D02*
D03*
X4915000D02*
D03*
X3025000Y2450000D02*
D03*
X2695000Y2590000D02*
D03*
X2030000Y3875000D02*
D03*
X6680000Y2055000D02*
D03*
X6770000Y4990000D02*
D03*
X5170000Y3805000D02*
D03*
X5223056Y3928056D02*
D03*
X4560000Y3555000D02*
D03*
X3366113Y4370000D02*
D03*
X3360000Y4400000D02*
D03*
X3665000Y4310000D02*
D03*
X5780000Y4380000D02*
D03*
X5420000Y2365000D02*
D03*
X4019958Y1762971D02*
D03*
X5315000Y2405000D02*
D03*
X4935000Y2402125D02*
D03*
X3645000Y1980000D02*
D03*
X4835000Y3707500D02*
D03*
X4830000Y3650000D02*
D03*
X5420000Y4080000D02*
D03*
X3920000Y3870000D02*
D03*
X6710000Y1970000D02*
D03*
X6440000Y1972000D02*
D03*
X4415000Y2520000D02*
D03*
X3700000Y1440000D02*
D03*
X3605000Y1385000D02*
D03*
X1440000Y1575000D02*
D03*
X1460000Y1290000D02*
D03*
X935000Y1265000D02*
D03*
X3785000Y4825000D02*
D03*
X3890000Y4820000D02*
D03*
X5380000Y2250000D02*
D03*
X3469125Y2261822D02*
D03*
X3740000Y1245000D02*
D03*
X3413044Y4782977D02*
D03*
X3670000Y3965000D02*
D03*
X5975000Y5382000D02*
D03*
X3405000Y2310000D02*
D03*
X1520000Y1020000D02*
D03*
X1005000Y1095000D02*
D03*
X3825000Y3765000D02*
D03*
X3588000Y3910000D02*
D03*
X5195000Y4060000D02*
D03*
X3895000Y1775000D02*
D03*
X4660000Y2170000D02*
D03*
X4065000D02*
D03*
X3987005Y1636000D02*
D03*
X705000Y2230000D02*
D03*
X3465000Y4675000D02*
D03*
X3137000Y2420000D02*
D03*
X2955000Y1855000D02*
D03*
X3895000Y1515000D02*
D03*
X590000Y3780000D02*
D03*
X2555000Y4725000D02*
D03*
X1090000Y1830000D02*
D03*
X3135000Y1305000D02*
D03*
X1950000Y4830000D02*
D03*
X4995000Y2425000D02*
D03*
X3810000Y3860000D02*
D03*
X3538736Y3816225D02*
D03*
X3950000Y5205000D02*
D03*
%TF.MD5,959250cc9db17efb18cc55a358c36707*%
M02*
