%TF.GenerationSoftware,Altium Limited,Altium Designer,20.2.5 (213)*%
G04 Layer_Color=32768*
%FSLAX26Y26*%
%MOIN*%
%TF.SameCoordinates,9BAFD9CD-774C-4051-972E-F2DD54F50950*%
%TF.FilePolarity,Positive*%
%TF.FileFunction,Other,Mechanical_7*%
%TF.Part,Single*%
G01*
G75*
%TA.AperFunction,NonConductor*%
%ADD59C,0.006000*%
%ADD72C,0.001000*%
%ADD76C,0.008000*%
D59*
X6750000Y3860000D02*
X6775000Y3885000D01*
X6700000Y3860000D02*
X6750000D01*
X6675000Y3885000D02*
X6700000Y3860000D01*
X6675000Y3885000D02*
Y3935000D01*
X6700000Y3960000D01*
X6750000D01*
X6775000Y3935000D01*
X6900000Y3860000D02*
X6950000D01*
X6875000Y3885000D02*
X6900000Y3860000D01*
X6875000Y3885000D02*
Y3935000D01*
X6900000Y3960000D01*
X6850000Y3860000D02*
X6875000Y3885000D01*
X6800000Y3860000D02*
X6850000D01*
X6775000Y3885000D02*
X6800000Y3860000D01*
X6775000Y3885000D02*
Y3935000D01*
X6800000Y3960000D01*
X6850000D01*
X6875000Y3935000D01*
X7050000Y3860000D02*
X7075000Y3885000D01*
X7000000Y3860000D02*
X7050000D01*
X6975000Y3885000D02*
X7000000Y3860000D01*
X6975000Y3885000D02*
Y3935000D01*
X7000000Y3960000D01*
X7050000D01*
X7075000Y3935000D01*
X6950000Y3860000D02*
X6975000Y3885000D01*
X6950000Y3960000D02*
X6975000Y3935000D01*
X6900000Y3960000D02*
X6950000D01*
X7200000Y3860000D02*
X7250000D01*
X7175000Y3885000D02*
X7200000Y3860000D01*
X7175000Y3885000D02*
Y3935000D01*
X7200000Y3960000D01*
X7150000Y3860000D02*
X7175000Y3885000D01*
X7100000Y3860000D02*
X7150000D01*
X7075000Y3885000D02*
X7100000Y3860000D01*
X7075000Y3885000D02*
Y3935000D01*
X7100000Y3960000D01*
X7150000D01*
X7175000Y3935000D01*
X7350000Y3860000D02*
X7375000Y3885000D01*
X7300000Y3860000D02*
X7350000D01*
X7275000Y3885000D02*
X7300000Y3860000D01*
X7275000Y3885000D02*
Y3935000D01*
X7300000Y3960000D01*
X7350000D01*
X7375000Y3935000D01*
X7250000Y3860000D02*
X7275000Y3885000D01*
X7250000Y3960000D02*
X7275000Y3935000D01*
X7200000Y3960000D02*
X7250000D01*
X7500000Y3860000D02*
X7550000D01*
X7475000Y3885000D02*
X7500000Y3860000D01*
X7475000Y3885000D02*
Y3935000D01*
X7500000Y3960000D01*
X7450000Y3860000D02*
X7475000Y3885000D01*
X7400000Y3860000D02*
X7450000D01*
X7375000Y3885000D02*
X7400000Y3860000D01*
X7375000Y3885000D02*
Y3935000D01*
X7400000Y3960000D01*
X7450000D01*
X7475000Y3935000D01*
X7650000Y3860000D02*
X7675000Y3885000D01*
X7600000Y3860000D02*
X7650000D01*
X7575000Y3885000D02*
X7600000Y3860000D01*
X7575000Y3885000D02*
Y3935000D01*
X7600000Y3960000D01*
X7650000D01*
X7675000Y3935000D01*
X7550000Y3860000D02*
X7575000Y3885000D01*
X7550000Y3960000D02*
X7575000Y3935000D01*
X7500000Y3960000D02*
X7550000D01*
X7800000Y3860000D02*
X7850000D01*
X7775000Y3885000D02*
X7800000Y3860000D01*
X7775000Y3885000D02*
Y3935000D01*
X7800000Y3960000D01*
X7750000Y3860000D02*
X7775000Y3885000D01*
X7700000Y3860000D02*
X7750000D01*
X7675000Y3885000D02*
X7700000Y3860000D01*
X7675000Y3885000D02*
Y3935000D01*
X7700000Y3960000D01*
X7750000D01*
X7775000Y3935000D01*
X7875000Y3885000D02*
Y3935000D01*
X7850000Y3860000D02*
X7875000Y3885000D01*
X7850000Y3960000D02*
X7875000Y3935000D01*
X7800000Y3960000D02*
X7850000D01*
X6650000Y3860000D02*
X6675000Y3885000D01*
X6600000Y3860000D02*
X6650000D01*
X6575000Y3885000D02*
X6600000Y3860000D01*
X6575000Y3885000D02*
Y3935000D01*
X6600000Y3960000D01*
X6650000D01*
X6675000Y3935000D01*
X6750000Y2580000D02*
X6775000Y2605000D01*
X6700000Y2580000D02*
X6750000D01*
X6675000Y2605000D02*
X6700000Y2580000D01*
X6675000Y2605000D02*
Y2655000D01*
X6700000Y2680000D01*
X6750000D01*
X6775000Y2655000D01*
X6900000Y2580000D02*
X6950000D01*
X6875000Y2605000D02*
X6900000Y2580000D01*
X6875000Y2605000D02*
Y2655000D01*
X6900000Y2680000D01*
X6850000Y2580000D02*
X6875000Y2605000D01*
X6800000Y2580000D02*
X6850000D01*
X6775000Y2605000D02*
X6800000Y2580000D01*
X6775000Y2605000D02*
Y2655000D01*
X6800000Y2680000D01*
X6850000D01*
X6875000Y2655000D01*
X7050000Y2580000D02*
X7075000Y2605000D01*
X7000000Y2580000D02*
X7050000D01*
X6975000Y2605000D02*
X7000000Y2580000D01*
X6975000Y2605000D02*
Y2655000D01*
X7000000Y2680000D01*
X7050000D01*
X7075000Y2655000D01*
X6950000Y2580000D02*
X6975000Y2605000D01*
X6950000Y2680000D02*
X6975000Y2655000D01*
X6900000Y2680000D02*
X6950000D01*
X7200000Y2580000D02*
X7250000D01*
X7175000Y2605000D02*
X7200000Y2580000D01*
X7175000Y2605000D02*
Y2655000D01*
X7200000Y2680000D01*
X7150000Y2580000D02*
X7175000Y2605000D01*
X7100000Y2580000D02*
X7150000D01*
X7075000Y2605000D02*
X7100000Y2580000D01*
X7075000Y2605000D02*
Y2655000D01*
X7100000Y2680000D01*
X7150000D01*
X7175000Y2655000D01*
X7350000Y2580000D02*
X7375000Y2605000D01*
X7300000Y2580000D02*
X7350000D01*
X7275000Y2605000D02*
X7300000Y2580000D01*
X7275000Y2605000D02*
Y2655000D01*
X7300000Y2680000D01*
X7350000D01*
X7375000Y2655000D01*
X7250000Y2580000D02*
X7275000Y2605000D01*
X7250000Y2680000D02*
X7275000Y2655000D01*
X7200000Y2680000D02*
X7250000D01*
X7500000Y2580000D02*
X7550000D01*
X7475000Y2605000D02*
X7500000Y2580000D01*
X7475000Y2605000D02*
Y2655000D01*
X7500000Y2680000D01*
X7450000Y2580000D02*
X7475000Y2605000D01*
X7400000Y2580000D02*
X7450000D01*
X7375000Y2605000D02*
X7400000Y2580000D01*
X7375000Y2605000D02*
Y2655000D01*
X7400000Y2680000D01*
X7450000D01*
X7475000Y2655000D01*
X7650000Y2580000D02*
X7675000Y2605000D01*
X7600000Y2580000D02*
X7650000D01*
X7575000Y2605000D02*
X7600000Y2580000D01*
X7575000Y2605000D02*
Y2655000D01*
X7600000Y2680000D01*
X7650000D01*
X7675000Y2655000D01*
X7550000Y2580000D02*
X7575000Y2605000D01*
X7550000Y2680000D02*
X7575000Y2655000D01*
X7500000Y2680000D02*
X7550000D01*
X7800000Y2580000D02*
X7850000D01*
X7775000Y2605000D02*
X7800000Y2580000D01*
X7775000Y2605000D02*
Y2655000D01*
X7800000Y2680000D01*
X7750000Y2580000D02*
X7775000Y2605000D01*
X7700000Y2580000D02*
X7750000D01*
X7675000Y2605000D02*
X7700000Y2580000D01*
X7675000Y2605000D02*
Y2655000D01*
X7700000Y2680000D01*
X7750000D01*
X7775000Y2655000D01*
X7875000Y2605000D02*
Y2655000D01*
X7850000Y2580000D02*
X7875000Y2605000D01*
X7850000Y2680000D02*
X7875000Y2655000D01*
X7800000Y2680000D02*
X7850000D01*
X6650000Y2580000D02*
X6675000Y2605000D01*
X6600000Y2580000D02*
X6650000D01*
X6575000Y2605000D02*
X6600000Y2580000D01*
X6575000Y2605000D02*
Y2655000D01*
X6600000Y2680000D01*
X6650000D01*
X6675000Y2655000D01*
X6600000Y4860000D02*
X6650000D01*
X6675000Y4835000D01*
X6650000Y4760000D02*
X6675000Y4785000D01*
X6575000Y4835000D02*
X6600000Y4860000D01*
X6575000Y4785000D02*
Y4835000D01*
Y4785000D02*
X6600000Y4760000D01*
X6650000D01*
X7600000Y4860000D02*
X7650000D01*
X7675000Y4835000D01*
X7650000Y4760000D02*
X7675000Y4785000D01*
Y4835000D01*
X7550000Y4860000D02*
X7575000Y4835000D01*
X7500000Y4860000D02*
X7550000D01*
X7475000Y4835000D02*
X7500000Y4860000D01*
X7475000Y4785000D02*
Y4835000D01*
Y4785000D02*
X7500000Y4760000D01*
X7550000D01*
X7575000Y4785000D01*
Y4835000D02*
X7600000Y4860000D01*
X7575000Y4785000D02*
Y4835000D01*
Y4785000D02*
X7600000Y4760000D01*
X7650000D01*
X7300000Y4860000D02*
X7350000D01*
X7375000Y4835000D01*
X7350000Y4760000D02*
X7375000Y4785000D01*
X7450000Y4860000D02*
X7475000Y4835000D01*
X7400000Y4860000D02*
X7450000D01*
X7375000Y4835000D02*
X7400000Y4860000D01*
X7375000Y4785000D02*
Y4835000D01*
Y4785000D02*
X7400000Y4760000D01*
X7450000D01*
X7475000Y4785000D01*
X7250000Y4860000D02*
X7275000Y4835000D01*
X7200000Y4860000D02*
X7250000D01*
X7175000Y4835000D02*
X7200000Y4860000D01*
X7175000Y4785000D02*
Y4835000D01*
Y4785000D02*
X7200000Y4760000D01*
X7250000D01*
X7275000Y4785000D01*
Y4835000D02*
X7300000Y4860000D01*
X7275000Y4785000D02*
Y4835000D01*
Y4785000D02*
X7300000Y4760000D01*
X7350000D01*
X7000000Y4860000D02*
X7050000D01*
X7075000Y4835000D01*
X7050000Y4760000D02*
X7075000Y4785000D01*
X7150000Y4860000D02*
X7175000Y4835000D01*
X7100000Y4860000D02*
X7150000D01*
X7075000Y4835000D02*
X7100000Y4860000D01*
X7075000Y4785000D02*
Y4835000D01*
Y4785000D02*
X7100000Y4760000D01*
X7150000D01*
X7175000Y4785000D01*
X6950000Y4860000D02*
X6975000Y4835000D01*
X6900000Y4860000D02*
X6950000D01*
X6875000Y4835000D02*
X6900000Y4860000D01*
X6875000Y4785000D02*
Y4835000D01*
Y4785000D02*
X6900000Y4760000D01*
X6950000D01*
X6975000Y4785000D01*
Y4835000D02*
X7000000Y4860000D01*
X6975000Y4785000D02*
Y4835000D01*
Y4785000D02*
X7000000Y4760000D01*
X7050000D01*
X6700000Y4860000D02*
X6750000D01*
X6775000Y4835000D01*
X6750000Y4760000D02*
X6775000Y4785000D01*
X6850000Y4860000D02*
X6875000Y4835000D01*
X6800000Y4860000D02*
X6850000D01*
X6775000Y4835000D02*
X6800000Y4860000D01*
X6775000Y4785000D02*
Y4835000D01*
Y4785000D02*
X6800000Y4760000D01*
X6850000D01*
X6875000Y4785000D01*
X6675000Y4835000D02*
X6700000Y4860000D01*
X6675000Y4785000D02*
Y4835000D01*
Y4785000D02*
X6700000Y4760000D01*
X6750000D01*
X6700000Y2225000D02*
X6750000D01*
X6675000Y2250000D02*
X6700000Y2225000D01*
X6675000Y2250000D02*
Y2300000D01*
X6700000Y2325000D01*
X6850000Y2225000D02*
X6875000Y2250000D01*
X6800000Y2225000D02*
X6850000D01*
X6775000Y2250000D02*
X6800000Y2225000D01*
X6775000Y2250000D02*
Y2300000D01*
X6800000Y2325000D01*
X6850000D01*
X6875000Y2300000D01*
X6750000Y2225000D02*
X6775000Y2250000D01*
X6750000Y2325000D02*
X6775000Y2300000D01*
X6700000Y2325000D02*
X6750000D01*
X7000000Y2225000D02*
X7050000D01*
X6975000Y2250000D02*
X7000000Y2225000D01*
X6975000Y2250000D02*
Y2300000D01*
X7000000Y2325000D01*
X6950000Y2225000D02*
X6975000Y2250000D01*
X6900000Y2225000D02*
X6950000D01*
X6875000Y2250000D02*
X6900000Y2225000D01*
X6875000Y2250000D02*
Y2300000D01*
X6900000Y2325000D01*
X6950000D01*
X6975000Y2300000D01*
X7150000Y2225000D02*
X7175000Y2250000D01*
X7100000Y2225000D02*
X7150000D01*
X7075000Y2250000D02*
X7100000Y2225000D01*
X7075000Y2250000D02*
Y2300000D01*
X7100000Y2325000D01*
X7150000D01*
X7175000Y2300000D01*
X7050000Y2225000D02*
X7075000Y2250000D01*
X7050000Y2325000D02*
X7075000Y2300000D01*
X7000000Y2325000D02*
X7050000D01*
X7300000Y2225000D02*
X7350000D01*
X7275000Y2250000D02*
X7300000Y2225000D01*
X7275000Y2250000D02*
Y2300000D01*
X7300000Y2325000D01*
X7250000Y2225000D02*
X7275000Y2250000D01*
X7200000Y2225000D02*
X7250000D01*
X7175000Y2250000D02*
X7200000Y2225000D01*
X7175000Y2250000D02*
Y2300000D01*
X7200000Y2325000D01*
X7250000D01*
X7275000Y2300000D01*
X7450000Y2225000D02*
X7475000Y2250000D01*
X7400000Y2225000D02*
X7450000D01*
X7375000Y2250000D02*
X7400000Y2225000D01*
X7375000Y2250000D02*
Y2300000D01*
X7400000Y2325000D01*
X7450000D01*
X7475000Y2300000D01*
X7350000Y2225000D02*
X7375000Y2250000D01*
X7350000Y2325000D02*
X7375000Y2300000D01*
X7300000Y2325000D02*
X7350000D01*
X7600000Y2225000D02*
X7650000D01*
X7575000Y2250000D02*
X7600000Y2225000D01*
X7575000Y2250000D02*
Y2300000D01*
X7600000Y2325000D01*
X7550000Y2225000D02*
X7575000Y2250000D01*
X7500000Y2225000D02*
X7550000D01*
X7475000Y2250000D02*
X7500000Y2225000D01*
X7475000Y2250000D02*
Y2300000D01*
X7500000Y2325000D01*
X7550000D01*
X7575000Y2300000D01*
X7675000Y2250000D02*
Y2300000D01*
X7650000Y2225000D02*
X7675000Y2250000D01*
X7650000Y2325000D02*
X7675000Y2300000D01*
X7600000Y2325000D02*
X7650000D01*
X6600000Y2225000D02*
X6650000D01*
X6575000Y2250000D02*
X6600000Y2225000D01*
X6575000Y2250000D02*
Y2300000D01*
X6600000Y2325000D01*
X6650000Y2225000D02*
X6675000Y2250000D01*
X6650000Y2325000D02*
X6675000Y2300000D01*
X6600000Y2325000D02*
X6650000D01*
X6700000Y3480000D02*
X6750000D01*
X6675000Y3505000D02*
X6700000Y3480000D01*
X6675000Y3505000D02*
Y3555000D01*
X6700000Y3580000D01*
X6850000Y3480000D02*
X6875000Y3505000D01*
X6800000Y3480000D02*
X6850000D01*
X6775000Y3505000D02*
X6800000Y3480000D01*
X6775000Y3505000D02*
Y3555000D01*
X6800000Y3580000D01*
X6850000D01*
X6875000Y3555000D01*
X6750000Y3480000D02*
X6775000Y3505000D01*
X6750000Y3580000D02*
X6775000Y3555000D01*
X6700000Y3580000D02*
X6750000D01*
X7000000Y3480000D02*
X7050000D01*
X6975000Y3505000D02*
X7000000Y3480000D01*
X6975000Y3505000D02*
Y3555000D01*
X7000000Y3580000D01*
X6950000Y3480000D02*
X6975000Y3505000D01*
X6900000Y3480000D02*
X6950000D01*
X6875000Y3505000D02*
X6900000Y3480000D01*
X6875000Y3505000D02*
Y3555000D01*
X6900000Y3580000D01*
X6950000D01*
X6975000Y3555000D01*
X7150000Y3480000D02*
X7175000Y3505000D01*
X7100000Y3480000D02*
X7150000D01*
X7075000Y3505000D02*
X7100000Y3480000D01*
X7075000Y3505000D02*
Y3555000D01*
X7100000Y3580000D01*
X7150000D01*
X7175000Y3555000D01*
X7050000Y3480000D02*
X7075000Y3505000D01*
X7050000Y3580000D02*
X7075000Y3555000D01*
X7000000Y3580000D02*
X7050000D01*
X7300000Y3480000D02*
X7350000D01*
X7275000Y3505000D02*
X7300000Y3480000D01*
X7275000Y3505000D02*
Y3555000D01*
X7300000Y3580000D01*
X7250000Y3480000D02*
X7275000Y3505000D01*
X7200000Y3480000D02*
X7250000D01*
X7175000Y3505000D02*
X7200000Y3480000D01*
X7175000Y3505000D02*
Y3555000D01*
X7200000Y3580000D01*
X7250000D01*
X7275000Y3555000D01*
X7450000Y3480000D02*
X7475000Y3505000D01*
X7400000Y3480000D02*
X7450000D01*
X7375000Y3505000D02*
X7400000Y3480000D01*
X7375000Y3505000D02*
Y3555000D01*
X7400000Y3580000D01*
X7450000D01*
X7475000Y3555000D01*
X7350000Y3480000D02*
X7375000Y3505000D01*
X7350000Y3580000D02*
X7375000Y3555000D01*
X7300000Y3580000D02*
X7350000D01*
X7600000Y3480000D02*
X7650000D01*
X7575000Y3505000D02*
X7600000Y3480000D01*
X7575000Y3505000D02*
Y3555000D01*
X7600000Y3580000D01*
X7550000Y3480000D02*
X7575000Y3505000D01*
X7500000Y3480000D02*
X7550000D01*
X7475000Y3505000D02*
X7500000Y3480000D01*
X7475000Y3505000D02*
Y3555000D01*
X7500000Y3580000D01*
X7550000D01*
X7575000Y3555000D01*
X7675000Y3505000D02*
Y3555000D01*
X7650000Y3480000D02*
X7675000Y3505000D01*
X7650000Y3580000D02*
X7675000Y3555000D01*
X7600000Y3580000D02*
X7650000D01*
X6600000Y3480000D02*
X6650000D01*
X6575000Y3505000D02*
X6600000Y3480000D01*
X6575000Y3505000D02*
Y3555000D01*
X6600000Y3580000D01*
X6650000Y3480000D02*
X6675000Y3505000D01*
X6650000Y3580000D02*
X6675000Y3555000D01*
X6600000Y3580000D02*
X6650000D01*
Y1425000D02*
X6675000Y1400000D01*
X6600000Y1425000D02*
X6650000D01*
X6575000Y1400000D02*
X6600000Y1425000D01*
X6575000Y1350000D02*
Y1400000D01*
Y1350000D02*
X6600000Y1325000D01*
X6650000D01*
X6675000Y1350000D01*
X7800000Y1425000D02*
X7850000D01*
X7875000Y1400000D01*
X7850000Y1325000D02*
X7875000Y1350000D01*
Y1400000D01*
X7750000Y1425000D02*
X7775000Y1400000D01*
X7700000Y1425000D02*
X7750000D01*
X7675000Y1400000D02*
X7700000Y1425000D01*
X7675000Y1350000D02*
Y1400000D01*
Y1350000D02*
X7700000Y1325000D01*
X7750000D01*
X7775000Y1350000D01*
Y1400000D02*
X7800000Y1425000D01*
X7775000Y1350000D02*
Y1400000D01*
Y1350000D02*
X7800000Y1325000D01*
X7850000D01*
X7500000Y1425000D02*
X7550000D01*
X7575000Y1400000D01*
X7550000Y1325000D02*
X7575000Y1350000D01*
X7650000Y1425000D02*
X7675000Y1400000D01*
X7600000Y1425000D02*
X7650000D01*
X7575000Y1400000D02*
X7600000Y1425000D01*
X7575000Y1350000D02*
Y1400000D01*
Y1350000D02*
X7600000Y1325000D01*
X7650000D01*
X7675000Y1350000D01*
X7450000Y1425000D02*
X7475000Y1400000D01*
X7400000Y1425000D02*
X7450000D01*
X7375000Y1400000D02*
X7400000Y1425000D01*
X7375000Y1350000D02*
Y1400000D01*
Y1350000D02*
X7400000Y1325000D01*
X7450000D01*
X7475000Y1350000D01*
Y1400000D02*
X7500000Y1425000D01*
X7475000Y1350000D02*
Y1400000D01*
Y1350000D02*
X7500000Y1325000D01*
X7550000D01*
X7200000Y1425000D02*
X7250000D01*
X7275000Y1400000D01*
X7250000Y1325000D02*
X7275000Y1350000D01*
X7350000Y1425000D02*
X7375000Y1400000D01*
X7300000Y1425000D02*
X7350000D01*
X7275000Y1400000D02*
X7300000Y1425000D01*
X7275000Y1350000D02*
Y1400000D01*
Y1350000D02*
X7300000Y1325000D01*
X7350000D01*
X7375000Y1350000D01*
X7150000Y1425000D02*
X7175000Y1400000D01*
X7100000Y1425000D02*
X7150000D01*
X7075000Y1400000D02*
X7100000Y1425000D01*
X7075000Y1350000D02*
Y1400000D01*
Y1350000D02*
X7100000Y1325000D01*
X7150000D01*
X7175000Y1350000D01*
Y1400000D02*
X7200000Y1425000D01*
X7175000Y1350000D02*
Y1400000D01*
Y1350000D02*
X7200000Y1325000D01*
X7250000D01*
X6900000Y1425000D02*
X6950000D01*
X6975000Y1400000D01*
X6950000Y1325000D02*
X6975000Y1350000D01*
X7050000Y1425000D02*
X7075000Y1400000D01*
X7000000Y1425000D02*
X7050000D01*
X6975000Y1400000D02*
X7000000Y1425000D01*
X6975000Y1350000D02*
Y1400000D01*
Y1350000D02*
X7000000Y1325000D01*
X7050000D01*
X7075000Y1350000D01*
X6850000Y1425000D02*
X6875000Y1400000D01*
X6800000Y1425000D02*
X6850000D01*
X6775000Y1400000D02*
X6800000Y1425000D01*
X6775000Y1350000D02*
Y1400000D01*
Y1350000D02*
X6800000Y1325000D01*
X6850000D01*
X6875000Y1350000D01*
Y1400000D02*
X6900000Y1425000D01*
X6875000Y1350000D02*
Y1400000D01*
Y1350000D02*
X6900000Y1325000D01*
X6950000D01*
X6750000Y1425000D02*
X6775000Y1400000D01*
X6700000Y1425000D02*
X6750000D01*
X6675000Y1400000D02*
X6700000Y1425000D01*
X6675000Y1350000D02*
Y1400000D01*
Y1350000D02*
X6700000Y1325000D01*
X6750000D01*
X6775000Y1350000D01*
D72*
X5692520Y2710197D02*
X5702520D01*
X5692520D02*
X5697520Y2720197D01*
X5702520Y2710197D01*
X5692520Y2790039D02*
X5702520D01*
X5692520D02*
X5697520Y2780039D01*
X5702520Y2790039D01*
X5697520Y2670197D02*
Y2720197D01*
Y2780039D02*
Y2830039D01*
X5682520Y2720197D02*
X5805000D01*
X5682520Y2780039D02*
X5805000D01*
X5592520Y2569961D02*
X5602520D01*
X5592520D02*
X5597520Y2559961D01*
X5602520Y2569961D01*
X5592520Y2770039D02*
X5602520D01*
X5592520D02*
X5597520Y2780039D01*
X5602520Y2770039D01*
X5597520Y2559961D02*
Y2780039D01*
X5582520Y2559961D02*
X5805000D01*
X5582520Y2780039D02*
X5805000D01*
X5737520Y2388961D02*
Y2398961D01*
Y2388961D02*
X5747520Y2393961D01*
X5737520Y2398961D02*
X5747520Y2393961D01*
X5872480Y2388961D02*
Y2398961D01*
X5862480Y2393961D02*
X5872480Y2388961D01*
X5862480Y2393961D02*
X5872480Y2398961D01*
X5697520Y2393961D02*
X5747520D01*
X5862480D02*
X5912480D01*
X5747520Y2378961D02*
Y2543961D01*
X5862480Y2378961D02*
Y2543961D01*
X5762913Y2488961D02*
Y2498961D01*
Y2488961D02*
X5772913Y2493961D01*
X5762913Y2498961D02*
X5772913Y2493961D01*
X5847087Y2488961D02*
Y2498961D01*
X5837087Y2493961D02*
X5847087Y2488961D01*
X5837087Y2493961D02*
X5847087Y2498961D01*
X5722913Y2493961D02*
X5772913D01*
X5837087D02*
X5887087D01*
X5772913Y2478961D02*
Y2543961D01*
X5837087Y2478961D02*
Y2543961D01*
X6677402Y1573000D02*
X6902402D01*
X6677402Y1677000D02*
X6902402D01*
X6692402Y1523000D02*
Y1573000D01*
Y1677000D02*
Y1727000D01*
Y1573000D02*
X6697402Y1563000D01*
X6687402D02*
X6692402Y1573000D01*
X6687402Y1563000D02*
X6697402D01*
X6692402Y1677000D02*
X6697402Y1687000D01*
X6687402D02*
X6692402Y1677000D01*
X6687402Y1687000D02*
X6697402D01*
X6752402Y1573000D02*
X6902402D01*
X6752402Y1597000D02*
X6902402D01*
X6767402Y1523000D02*
Y1573000D01*
Y1597000D02*
Y1647000D01*
Y1573000D02*
X6772402Y1563000D01*
X6762402D02*
X6767402Y1573000D01*
X6762402Y1563000D02*
X6772402D01*
X6767402Y1597000D02*
X6772402Y1607000D01*
X6762402D02*
X6767402Y1597000D01*
X6762402Y1607000D02*
X6772402D01*
X6939803Y1677000D02*
Y1792000D01*
X6865000Y1677000D02*
Y1792000D01*
X6939803Y1777000D02*
X6989803D01*
X6815000D02*
X6865000D01*
X6939803D02*
X6949803Y1772000D01*
X6939803Y1777000D02*
X6949803Y1782000D01*
Y1772000D02*
Y1782000D01*
X6855000Y1772000D02*
X6865000Y1777000D01*
X6855000Y1782000D02*
X6865000Y1777000D01*
X6855000Y1772000D02*
Y1782000D01*
X6912402Y1458000D02*
Y1573000D01*
X6892402Y1458000D02*
Y1573000D01*
X6912402Y1473000D02*
X6962402D01*
X6842402D02*
X6892402D01*
X6912402D02*
X6922402Y1468000D01*
X6912402Y1473000D02*
X6922402Y1478000D01*
Y1468000D02*
Y1478000D01*
X6882402Y1468000D02*
X6892402Y1473000D01*
X6882402Y1478000D02*
X6892402Y1473000D01*
X6882402Y1468000D02*
Y1478000D01*
X6962402Y1358000D02*
Y1597500D01*
X6842402Y1358000D02*
Y1597500D01*
X6962402Y1373000D02*
X7012402D01*
X6792402D02*
X6842402D01*
X6962402D02*
X6972402Y1368000D01*
X6962402Y1373000D02*
X6972402Y1378000D01*
Y1368000D02*
Y1378000D01*
X6832402Y1368000D02*
X6842402Y1373000D01*
X6832402Y1378000D02*
X6842402Y1373000D01*
X6832402Y1368000D02*
Y1378000D01*
X6902402Y1597500D02*
X7077402D01*
X6902402Y1652500D02*
X7077402D01*
X7062402Y1547500D02*
Y1597500D01*
Y1652500D02*
Y1702500D01*
Y1597500D02*
X7067402Y1587500D01*
X7057402D02*
X7062402Y1597500D01*
X7057402Y1587500D02*
X7067402D01*
X7062402Y1652500D02*
X7067402Y1662500D01*
X7057402D02*
X7062402Y1652500D01*
X7057402Y1662500D02*
X7067402D01*
X7130000Y2932500D02*
X7140000D01*
X7130000D02*
X7135000Y2922500D01*
X7140000Y2932500D01*
X7130000Y2857500D02*
X7140000D01*
X7130000D02*
X7135000Y2867500D01*
X7140000Y2857500D01*
X7135000Y2922500D02*
Y2972500D01*
Y2817500D02*
Y2867500D01*
X6975000Y2922500D02*
X7150000D01*
X6975000Y2867500D02*
X7150000D01*
X6905000Y2638000D02*
Y2648000D01*
X6915000Y2643000D01*
X6905000Y2638000D02*
X6915000Y2643000D01*
X7045000Y2638000D02*
Y2648000D01*
X7035000Y2643000D02*
X7045000Y2648000D01*
X7035000Y2643000D02*
X7045000Y2638000D01*
X6865000Y2643000D02*
X6915000D01*
X7035000D02*
X7085000D01*
X6915000Y2628000D02*
Y2867500D01*
X7035000Y2628000D02*
Y2867500D01*
X6955000Y2738000D02*
Y2748000D01*
X6965000Y2743000D01*
X6955000Y2738000D02*
X6965000Y2743000D01*
X6995000Y2738000D02*
Y2748000D01*
X6985000Y2743000D02*
X6995000Y2748000D01*
X6985000Y2743000D02*
X6995000Y2738000D01*
X6915000Y2743000D02*
X6965000D01*
X6985000D02*
X7035000D01*
X6965000Y2728000D02*
Y2843000D01*
X6985000Y2728000D02*
Y2843000D01*
X6927598Y3042000D02*
Y3052000D01*
X6937598Y3047000D01*
X6927598Y3042000D02*
X6937598Y3047000D01*
X7022402Y3042000D02*
Y3052000D01*
X7012402Y3047000D02*
X7022402Y3052000D01*
X7012402Y3047000D02*
X7022402Y3042000D01*
X6887598Y3047000D02*
X6937598D01*
X7012402D02*
X7062402D01*
X6937598Y2947000D02*
Y3062000D01*
X7012402Y2947000D02*
Y3062000D01*
X6835000Y2877000D02*
X6845000D01*
X6835000D02*
X6840000Y2867000D01*
X6845000Y2877000D01*
X6835000Y2833000D02*
X6845000D01*
X6835000D02*
X6840000Y2843000D01*
X6845000Y2833000D01*
X6840000Y2867000D02*
Y2917000D01*
Y2793000D02*
Y2843000D01*
X6825000Y2867000D02*
X6975000D01*
X6825000Y2843000D02*
X6975000D01*
X6760000Y2957000D02*
X6770000D01*
X6760000D02*
X6765000Y2947000D01*
X6770000Y2957000D01*
X6760000Y2833000D02*
X6770000D01*
X6760000D02*
X6765000Y2843000D01*
X6770000Y2833000D01*
X6765000Y2947000D02*
Y2997000D01*
Y2793000D02*
Y2843000D01*
X6750000Y2947000D02*
X6975000D01*
X6750000Y2843000D02*
X6975000D01*
X6788661Y4177500D02*
X6798661D01*
X6793661Y4187500D02*
X6798661Y4177500D01*
X6788661D02*
X6793661Y4187500D01*
X6788661Y4252500D02*
X6798661D01*
X6793661Y4242500D02*
X6798661Y4252500D01*
X6788661D02*
X6793661Y4242500D01*
Y4137500D02*
Y4187500D01*
Y4242500D02*
Y4292500D01*
X6778661Y4187500D02*
X6953661D01*
X6778661Y4242500D02*
X6953661D01*
X7023661Y4462000D02*
Y4472000D01*
X7013661Y4467000D02*
X7023661Y4462000D01*
X7013661Y4467000D02*
X7023661Y4472000D01*
X6883661Y4462000D02*
Y4472000D01*
Y4462000D02*
X6893661Y4467000D01*
X6883661Y4472000D02*
X6893661Y4467000D01*
X7013661D02*
X7063661D01*
X6843661D02*
X6893661D01*
X7013661Y4242500D02*
Y4482000D01*
X6893661Y4242500D02*
Y4482000D01*
X6973661Y4362000D02*
Y4372000D01*
X6963661Y4367000D02*
X6973661Y4362000D01*
X6963661Y4367000D02*
X6973661Y4372000D01*
X6933661Y4362000D02*
Y4372000D01*
Y4362000D02*
X6943661Y4367000D01*
X6933661Y4372000D02*
X6943661Y4367000D01*
X6963661D02*
X7013661D01*
X6893661D02*
X6943661D01*
X6963661Y4267000D02*
Y4382000D01*
X6943661Y4267000D02*
Y4382000D01*
X7001063Y4058000D02*
Y4068000D01*
X6991063Y4063000D02*
X7001063Y4058000D01*
X6991063Y4063000D02*
X7001063Y4068000D01*
X6906260Y4058000D02*
Y4068000D01*
Y4058000D02*
X6916260Y4063000D01*
X6906260Y4068000D02*
X6916260Y4063000D01*
X6991063D02*
X7041063D01*
X6866260D02*
X6916260D01*
X6991063Y4048000D02*
Y4163000D01*
X6916260Y4048000D02*
Y4163000D01*
X7083661Y4233000D02*
X7093661D01*
X7088661Y4243000D02*
X7093661Y4233000D01*
X7083661D02*
X7088661Y4243000D01*
X7083661Y4277000D02*
X7093661D01*
X7088661Y4267000D02*
X7093661Y4277000D01*
X7083661D02*
X7088661Y4267000D01*
Y4193000D02*
Y4243000D01*
Y4267000D02*
Y4317000D01*
X6953661Y4243000D02*
X7103661D01*
X6953661Y4267000D02*
X7103661D01*
X7158661Y4153000D02*
X7168661D01*
X7163661Y4163000D02*
X7168661Y4153000D01*
X7158661D02*
X7163661Y4163000D01*
X7158661Y4277000D02*
X7168661D01*
X7163661Y4267000D02*
X7168661Y4277000D01*
X7158661D02*
X7163661Y4267000D01*
Y4113000D02*
Y4163000D01*
Y4267000D02*
Y4317000D01*
X6953661Y4163000D02*
X7178661D01*
X6953661Y4267000D02*
X7178661D01*
D76*
X4957000Y2205000D02*
Y2295000D01*
Y2205000D02*
X5153000D01*
Y2295000D01*
X4957000D02*
X5153000D01*
X7310000Y2025000D02*
X7360000D01*
Y2135000D01*
X7310000D02*
X7360000D01*
X7310000Y2025000D02*
Y2135000D01*
X7185000Y2025000D02*
X7235000D01*
Y2135000D01*
X7185000D02*
X7235000D01*
X7185000Y2025000D02*
Y2135000D01*
X6600000Y2045000D02*
X6650000D01*
Y2155000D01*
X6600000D02*
X6650000D01*
X6600000Y2045000D02*
Y2155000D01*
X6755000Y2045000D02*
X6805000D01*
Y2155000D01*
X6755000D02*
X6805000D01*
X6755000Y2045000D02*
Y2155000D01*
X6855000Y3335000D02*
X6905000D01*
Y3445000D01*
X6855000D02*
X6905000D01*
X6855000Y3335000D02*
Y3445000D01*
X6990000Y3335000D02*
X7040000D01*
Y3445000D01*
X6990000D02*
X7040000D01*
X6990000Y3335000D02*
Y3445000D01*
X7355000Y3315000D02*
X7405000D01*
Y3425000D01*
X7355000D02*
X7405000D01*
X7355000Y3315000D02*
Y3425000D01*
X7225000Y3305000D02*
X7275000D01*
Y3415000D01*
X7225000D02*
X7275000D01*
X7225000Y3305000D02*
Y3415000D01*
X7205000Y4575000D02*
X7255000D01*
Y4685000D01*
X7205000D02*
X7255000D01*
X7205000Y4575000D02*
Y4685000D01*
X7120000Y4575000D02*
X7170000D01*
Y4685000D01*
X7120000D02*
X7170000D01*
X7120000Y4575000D02*
Y4685000D01*
X7000000Y4570000D02*
X7050000D01*
Y4680000D01*
X7000000D02*
X7050000D01*
X7000000Y4570000D02*
Y4680000D01*
X6895000Y4570000D02*
X6945000D01*
Y4680000D01*
X6895000D02*
X6945000D01*
X6895000Y4570000D02*
Y4680000D01*
X1575000Y1545000D02*
Y1595000D01*
X1465000D02*
X1575000D01*
X1465000Y1545000D02*
Y1595000D01*
Y1545000D02*
X1575000D01*
X1480000Y1190000D02*
X1530000D01*
X1480000Y1080000D02*
Y1190000D01*
Y1080000D02*
X1530000D01*
Y1190000D01*
X4400000Y1240000D02*
X4450000D01*
Y1350000D01*
X4400000D02*
X4450000D01*
X4400000Y1240000D02*
Y1350000D01*
X3940000Y1430000D02*
X3990000D01*
X3940000Y1320000D02*
Y1430000D01*
Y1320000D02*
X3990000D01*
Y1430000D01*
X3865000Y1320000D02*
Y1430000D01*
X3815000Y1320000D02*
X3865000D01*
X3815000D02*
Y1430000D01*
X3865000D01*
X960000Y1165000D02*
Y1275000D01*
X1010000D01*
Y1165000D02*
Y1275000D01*
X960000Y1165000D02*
X1010000D01*
X852000Y1610000D02*
X1048000D01*
Y1520000D02*
Y1610000D01*
X852000Y1520000D02*
X1048000D01*
X852000D02*
Y1610000D01*
X4845000Y3500000D02*
Y3610000D01*
X4895000D01*
Y3500000D02*
Y3610000D01*
X4845000Y3500000D02*
X4895000D01*
X4595000D02*
Y3610000D01*
X4645000D01*
Y3500000D02*
Y3610000D01*
X4595000Y3500000D02*
X4645000D01*
X4855000Y3845000D02*
Y3955000D01*
X4905000D01*
Y3845000D02*
Y3955000D01*
X4855000Y3845000D02*
X4905000D01*
X4605000Y3850000D02*
Y3960000D01*
X4655000D01*
Y3850000D02*
Y3960000D01*
X4605000Y3850000D02*
X4655000D01*
X5805000Y4970000D02*
X5855000D01*
Y5080000D01*
X5805000D02*
X5855000D01*
X5805000Y4970000D02*
Y5080000D01*
X5950000Y4965000D02*
X6000000D01*
Y5075000D01*
X5950000D02*
X6000000D01*
X5950000Y4965000D02*
Y5075000D01*
X5965000Y5130000D02*
Y5180000D01*
X5855000D02*
X5965000D01*
X5855000Y5130000D02*
Y5180000D01*
Y5130000D02*
X5965000D01*
X5970000Y5260000D02*
Y5310000D01*
X5860000D02*
X5970000D01*
X5860000Y5260000D02*
Y5310000D01*
Y5260000D02*
X5970000D01*
X4050000Y4960000D02*
X4100000D01*
Y5070000D01*
X4050000D02*
X4100000D01*
X4050000Y4960000D02*
Y5070000D01*
X3910000Y4960000D02*
X3960000D01*
Y5070000D01*
X3910000D02*
X3960000D01*
X3910000Y4960000D02*
Y5070000D01*
X1430000Y4645000D02*
Y4755000D01*
X1480000D01*
Y4645000D02*
Y4755000D01*
X1430000Y4645000D02*
X1480000D01*
X1295000D02*
Y4755000D01*
X1345000D01*
Y4645000D02*
Y4755000D01*
X1295000Y4645000D02*
X1345000D01*
X3790000Y4665000D02*
Y4775000D01*
X3740000Y4665000D02*
X3790000D01*
X3740000D02*
Y4775000D01*
X3790000D01*
X3950000Y4665000D02*
Y4775000D01*
X3900000Y4665000D02*
X3950000D01*
X3900000D02*
Y4775000D01*
X3950000D01*
X3665000Y1415000D02*
Y1525000D01*
X3615000Y1415000D02*
X3665000D01*
X3615000D02*
Y1525000D01*
X3665000D01*
X3550000Y1420000D02*
Y1530000D01*
X3500000Y1420000D02*
X3550000D01*
X3500000D02*
Y1530000D01*
X3550000D01*
X3280000Y5265000D02*
X3390000D01*
Y5215000D02*
Y5265000D01*
X3280000Y5215000D02*
X3390000D01*
X3280000D02*
Y5265000D01*
X3945000Y5300000D02*
X4055000D01*
Y5250000D02*
Y5300000D01*
X3945000Y5250000D02*
X4055000D01*
X3945000D02*
Y5300000D01*
X2515000Y4645000D02*
X2625000D01*
Y4595000D02*
Y4645000D01*
X2515000Y4595000D02*
X2625000D01*
X2515000D02*
Y4645000D01*
Y4805000D02*
X2625000D01*
Y4755000D02*
Y4805000D01*
X2515000Y4755000D02*
X2625000D01*
X2515000D02*
Y4805000D01*
X2545000Y4860000D02*
Y4970000D01*
X2495000Y4860000D02*
X2545000D01*
X2495000D02*
Y4970000D01*
X2545000D01*
X2690000Y4860000D02*
Y4970000D01*
X2640000Y4860000D02*
X2690000D01*
X2640000D02*
Y4970000D01*
X2690000D01*
X2065000Y4865000D02*
Y4975000D01*
X2015000Y4865000D02*
X2065000D01*
X2015000D02*
Y4975000D01*
X2065000D01*
X1935000Y4865000D02*
Y4975000D01*
X1885000Y4865000D02*
X1935000D01*
X1885000D02*
Y4975000D01*
X1935000D01*
X1910000Y4790000D02*
X2020000D01*
Y4740000D02*
Y4790000D01*
X1910000Y4740000D02*
X2020000D01*
X1910000D02*
Y4790000D01*
X1920000Y4630000D02*
X2030000D01*
X1920000D02*
Y4680000D01*
X2030000D01*
Y4630000D02*
Y4680000D01*
X5435000Y4910000D02*
X5545000D01*
Y4860000D02*
Y4910000D01*
X5435000Y4860000D02*
X5545000D01*
X5435000D02*
Y4910000D01*
X2090000Y1565000D02*
X2200000D01*
X2090000D02*
Y1615000D01*
X2200000D01*
Y1565000D02*
Y1615000D01*
X2100000Y1310000D02*
Y1420000D01*
X2050000Y1310000D02*
X2100000D01*
X2050000D02*
Y1420000D01*
X2100000D01*
X2225000Y1310000D02*
Y1420000D01*
X2175000Y1310000D02*
X2225000D01*
X2175000D02*
Y1420000D01*
X2225000D01*
X4995000Y2380000D02*
X5105000D01*
Y2330000D02*
Y2380000D01*
X4995000Y2330000D02*
X5105000D01*
X4995000D02*
Y2380000D01*
X4840000Y2330000D02*
X4950000D01*
X4840000D02*
Y2380000D01*
X4950000D01*
Y2330000D02*
Y2380000D01*
X5165000Y2265000D02*
Y2375000D01*
X5215000D01*
Y2265000D02*
Y2375000D01*
X5165000Y2265000D02*
X5215000D01*
X5295000Y2270000D02*
Y2380000D01*
X5345000D01*
Y2270000D02*
Y2380000D01*
X5295000Y2270000D02*
X5345000D01*
X5425000Y2265000D02*
Y2375000D01*
X5475000D01*
Y2265000D02*
Y2375000D01*
X5425000Y2265000D02*
X5475000D01*
X6840000Y2020000D02*
X6950000D01*
X6840000D02*
Y2070000D01*
X6950000D01*
Y2020000D02*
Y2070000D01*
X6990000Y2020000D02*
X7100000D01*
X6990000D02*
Y2070000D01*
X7100000D01*
Y2020000D02*
Y2070000D01*
X6850000Y1790000D02*
Y1900000D01*
X6900000D01*
Y1790000D02*
Y1900000D01*
X6850000Y1790000D02*
X6900000D01*
X6540000Y2845000D02*
Y2955000D01*
X6490000Y2845000D02*
X6540000D01*
X6490000D02*
Y2955000D01*
X6540000D01*
X6630000Y2845000D02*
Y2955000D01*
X6580000Y2845000D02*
X6630000D01*
X6580000D02*
Y2955000D01*
X6630000D01*
X6740000Y2990000D02*
X6850000D01*
X6740000D02*
Y3040000D01*
X6850000D01*
Y2990000D02*
Y3040000D01*
X6555000Y4150000D02*
Y4260000D01*
X6505000Y4150000D02*
X6555000D01*
X6505000D02*
Y4260000D01*
X6555000D01*
X6460000Y4150000D02*
Y4260000D01*
X6410000Y4150000D02*
X6460000D01*
X6410000D02*
Y4260000D01*
X6460000D01*
X6760000Y4020000D02*
X6870000D01*
X6760000D02*
Y4070000D01*
X6870000D01*
Y4020000D02*
Y4070000D01*
X5095000Y3840000D02*
X5145000D01*
Y3950000D01*
X5095000D02*
X5145000D01*
X5095000Y3840000D02*
Y3950000D01*
X3035000Y1390000D02*
X3085000D01*
X3035000Y1280000D02*
Y1390000D01*
Y1280000D02*
X3085000D01*
Y1390000D01*
X3150000Y5085000D02*
X3200000D01*
X3150000Y4975000D02*
Y5085000D01*
Y4975000D02*
X3200000D01*
Y5085000D01*
X3270000D02*
X3320000D01*
X3270000Y4975000D02*
Y5085000D01*
Y4975000D02*
X3320000D01*
Y5085000D01*
X2910000Y1390000D02*
X2960000D01*
X2910000Y1280000D02*
Y1390000D01*
Y1280000D02*
X2960000D01*
Y1390000D01*
%TF.MD5,967600c9d839563236833a4a808abcda*%
M02*
