%TF.GenerationSoftware,Altium Limited,Altium Designer,20.2.5 (213)*%
G04 Layer_Color=65535*
%FSLAX26Y26*%
%MOIN*%
%TF.SameCoordinates,9BAFD9CD-774C-4051-972E-F2DD54F50950*%
%TF.FilePolarity,Positive*%
%TF.FileFunction,Legend,Top*%
%TF.Part,Single*%
G01*
G75*
%TA.AperFunction,NonConductor*%
%ADD57C,0.015748*%
%ADD58C,0.007874*%
%ADD59C,0.006000*%
%ADD60C,0.005000*%
G36*
X1913429Y914564D02*
Y830000D01*
X1874793D01*
Y914564D01*
X1794602Y1040681D01*
X1837613D01*
X1893746Y949920D01*
X1894111D01*
X1950244Y1040681D01*
X1993255D01*
X1913429Y914564D01*
D02*
G37*
G36*
X2100053Y936069D02*
X2195188Y830000D01*
X2145616D01*
X2060323Y924770D01*
X2059959D01*
Y830000D01*
X2021322D01*
Y1040681D01*
X2059959D01*
Y944453D01*
X2060323D01*
X2139784Y1040681D01*
X2187898D01*
X2100053Y936069D01*
D02*
G37*
G36*
X1766536Y830000D02*
X1727899D01*
Y936434D01*
Y936798D01*
Y937528D01*
Y938986D01*
Y940808D01*
Y942995D01*
Y945547D01*
Y948827D01*
X1728264Y952107D01*
Y960126D01*
X1728628Y969604D01*
X1728993Y979809D01*
X1729722Y991109D01*
X1728264D01*
Y990745D01*
X1727899Y989651D01*
X1727170Y987464D01*
X1726441Y985277D01*
X1725348Y981996D01*
X1724254Y978716D01*
X1723160Y974707D01*
X1721703Y970697D01*
Y970332D01*
X1720974Y968875D01*
X1720609Y966688D01*
X1719515Y963771D01*
X1718422Y960491D01*
X1717329Y956846D01*
X1714412Y948827D01*
X1670672Y830000D01*
X1645887D01*
X1602147Y948827D01*
Y949192D01*
X1601418Y950649D01*
X1600688Y952837D01*
X1599595Y955753D01*
X1598502Y959033D01*
X1597408Y962678D01*
X1594492Y970697D01*
Y971062D01*
X1594128Y972519D01*
X1593399Y974707D01*
X1592669Y977622D01*
X1591576Y980538D01*
X1590483Y984183D01*
X1588295Y991109D01*
X1586838D01*
Y990745D01*
Y989651D01*
X1587202Y988193D01*
Y986006D01*
Y983455D01*
X1587566Y980538D01*
Y977258D01*
X1587931Y973249D01*
X1588295Y964865D01*
X1588660Y955753D01*
X1589024Y946275D01*
Y936798D01*
Y830000D01*
X1550388D01*
Y1040681D01*
X1603969D01*
X1640419Y940079D01*
Y939715D01*
X1640784Y938986D01*
X1641148Y937528D01*
X1641877Y935705D01*
X1642970Y933518D01*
X1643699Y930602D01*
X1644793Y927686D01*
X1645887Y924041D01*
X1648438Y916022D01*
X1651354Y906909D01*
X1654634Y897068D01*
X1657551Y886497D01*
X1658644D01*
Y886862D01*
X1659008Y887591D01*
X1659373Y889049D01*
X1659737Y890871D01*
X1660466Y893058D01*
X1661560Y895975D01*
X1662289Y898890D01*
X1663382Y902535D01*
X1665934Y910554D01*
X1668850Y919303D01*
X1672130Y929144D01*
X1675775Y939715D01*
X1712226Y1040681D01*
X1766536D01*
Y830000D01*
D02*
G37*
G36*
X1411149D02*
X1372512D01*
Y936434D01*
Y936798D01*
Y937528D01*
Y938986D01*
Y940808D01*
Y942995D01*
Y945547D01*
Y948827D01*
X1372876Y952107D01*
Y960126D01*
X1373241Y969604D01*
X1373605Y979809D01*
X1374334Y991109D01*
X1372876D01*
Y990745D01*
X1372512Y989651D01*
X1371783Y987464D01*
X1371053Y985277D01*
X1369960Y981996D01*
X1368867Y978716D01*
X1367773Y974707D01*
X1366315Y970697D01*
Y970332D01*
X1365586Y968875D01*
X1365222Y966688D01*
X1364128Y963771D01*
X1363034Y960491D01*
X1361941Y956846D01*
X1359025Y948827D01*
X1315285Y830000D01*
X1290499D01*
X1246759Y948827D01*
Y949192D01*
X1246030Y950649D01*
X1245301Y952837D01*
X1244207Y955753D01*
X1243114Y959033D01*
X1242021Y962678D01*
X1239104Y970697D01*
Y971062D01*
X1238740Y972519D01*
X1238011Y974707D01*
X1237282Y977622D01*
X1236188Y980538D01*
X1235095Y984183D01*
X1232908Y991109D01*
X1231450D01*
Y990745D01*
Y989651D01*
X1231814Y988193D01*
Y986006D01*
Y983455D01*
X1232179Y980538D01*
Y977258D01*
X1232543Y973249D01*
X1232908Y964865D01*
X1233273Y955753D01*
X1233637Y946275D01*
Y936798D01*
Y830000D01*
X1195000D01*
Y1040681D01*
X1248582D01*
X1285032Y940079D01*
Y939715D01*
X1285396Y938986D01*
X1285761Y937528D01*
X1286489Y935705D01*
X1287583Y933518D01*
X1288312Y930602D01*
X1289406Y927686D01*
X1290499Y924041D01*
X1293051Y916022D01*
X1295966Y906909D01*
X1299247Y897068D01*
X1302163Y886497D01*
X1303256D01*
Y886862D01*
X1303621Y887591D01*
X1303986Y889049D01*
X1304350Y890871D01*
X1305079Y893058D01*
X1306172Y895975D01*
X1306901Y898890D01*
X1307995Y902535D01*
X1310546Y910554D01*
X1313463Y919303D01*
X1316743Y929144D01*
X1320388Y939715D01*
X1356838Y1040681D01*
X1411149D01*
Y830000D01*
D02*
G37*
G36*
X1500086D02*
X1461449D01*
Y1040681D01*
X1500086D01*
Y830000D01*
D02*
G37*
D57*
X2905749Y4464724D02*
G03*
X2905749Y4464724I-7874J0D01*
G01*
D58*
X3323937Y1019803D02*
G03*
X3323937Y1019803I-3937J0D01*
G01*
X5637756Y2563622D02*
Y2867756D01*
X5232244Y2415984D02*
Y2867756D01*
X5283543Y3141457D02*
X5476457D01*
X5283543Y2948543D02*
X5476457D01*
X4033858Y1151260D02*
Y1483938D01*
X4250394D01*
Y1066614D02*
Y1483938D01*
X4150000Y1066614D02*
X4250394D01*
X1516378Y1407087D02*
X1563622D01*
Y1292913D02*
Y1407087D01*
X1516378Y1292913D02*
X1563622D01*
X1516378D02*
Y1407087D01*
X1471102Y1409055D02*
X1502598D01*
X6084606Y1185000D02*
Y1380275D01*
X6285394D01*
Y1089724D02*
Y1380275D01*
X6185000Y1089724D02*
X6285394D01*
X6015394Y1099724D02*
Y1295000D01*
X5814606Y1099724D02*
X6015394D01*
X5814606D02*
Y1390276D01*
X5915000D01*
X5514606Y1180000D02*
Y1375275D01*
X5715394D01*
Y1084724D02*
Y1375275D01*
X5615000Y1084724D02*
X5715394D01*
X2985000Y4607874D02*
X3101142D01*
Y5340158D01*
X2884606D02*
X3101142D01*
X2884606Y4692520D02*
Y5340158D01*
X6613070Y4276024D02*
X6652440D01*
X6666220Y4157520D02*
Y4272480D01*
Y4157520D02*
X6693780D01*
Y4272480D01*
X6666220D02*
X6693780D01*
X6059606Y5317126D02*
X6160000D01*
X6059606Y4899802D02*
Y5317126D01*
Y4899802D02*
X6276142D01*
Y5232480D01*
X1130000Y4651614D02*
X1230394D01*
Y5068938D01*
X1013858D02*
X1230394D01*
X1013858Y4736260D02*
Y5068938D01*
X7111024Y1887558D02*
Y1926928D01*
X6992520Y1873780D02*
X7107480D01*
X6992520Y1846220D02*
Y1873780D01*
Y1846220D02*
X7107480D01*
Y1873780D01*
X6673070Y2961024D02*
X6712440D01*
X6726220Y2842520D02*
Y2957480D01*
Y2842520D02*
X6753780D01*
Y2957480D01*
X6726220D02*
X6753780D01*
X3464606Y4687520D02*
Y5335158D01*
X3681142D01*
Y4602874D02*
Y5335158D01*
X3565000Y4602874D02*
X3681142D01*
X2218858Y4710000D02*
Y5042678D01*
X2435394D01*
Y4625354D02*
Y5042678D01*
X2335000Y4625354D02*
X2435394D01*
X1608858Y4717520D02*
Y5050198D01*
X1825394D01*
Y4632874D02*
Y5050198D01*
X1725000Y4632874D02*
X1825394D01*
X6552524Y2180321D02*
Y2219679D01*
X6572202D01*
X6578762Y2213119D01*
Y2200000D01*
X6572202Y2193440D01*
X6552524D01*
X6565643D02*
X6578762Y2180321D01*
X6591881Y2213119D02*
X6598440Y2219679D01*
X6611560D01*
X6618119Y2213119D01*
Y2206559D01*
X6611560Y2200000D01*
X6618119Y2193440D01*
Y2186881D01*
X6611560Y2180321D01*
X6598440D01*
X6591881Y2186881D01*
Y2193440D01*
X6598440Y2200000D01*
X6591881Y2206559D01*
Y2213119D01*
X6598440Y2200000D02*
X6611560D01*
X6631238Y2186881D02*
X6637798Y2180321D01*
X6650917D01*
X6657476Y2186881D01*
Y2213119D01*
X6650917Y2219679D01*
X6637798D01*
X6631238Y2213119D01*
Y2206559D01*
X6637798Y2200000D01*
X6657476D01*
X6737524Y2175321D02*
Y2214679D01*
X6757202D01*
X6763762Y2208119D01*
Y2195000D01*
X6757202Y2188440D01*
X6737524D01*
X6750643D02*
X6763762Y2175321D01*
X6776881Y2208119D02*
X6783440Y2214679D01*
X6796560D01*
X6803119Y2208119D01*
Y2201559D01*
X6796560Y2195000D01*
X6803119Y2188440D01*
Y2181881D01*
X6796560Y2175321D01*
X6783440D01*
X6776881Y2181881D01*
Y2188440D01*
X6783440Y2195000D01*
X6776881Y2201559D01*
Y2208119D01*
X6783440Y2195000D02*
X6796560D01*
X6816238Y2208119D02*
X6822798Y2214679D01*
X6835917D01*
X6842476Y2208119D01*
Y2201559D01*
X6835917Y2195000D01*
X6842476Y2188440D01*
Y2181881D01*
X6835917Y2175321D01*
X6822798D01*
X6816238Y2181881D01*
Y2188440D01*
X6822798Y2195000D01*
X6816238Y2201559D01*
Y2208119D01*
X6822798Y2195000D02*
X6835917D01*
X7167524Y1970321D02*
Y2009679D01*
X7187202D01*
X7193762Y2003119D01*
Y1990000D01*
X7187202Y1983440D01*
X7167524D01*
X7180643D02*
X7193762Y1970321D01*
X7206881Y2003119D02*
X7213440Y2009679D01*
X7226560D01*
X7233119Y2003119D01*
Y1996560D01*
X7226560Y1990000D01*
X7233119Y1983440D01*
Y1976881D01*
X7226560Y1970321D01*
X7213440D01*
X7206881Y1976881D01*
Y1983440D01*
X7213440Y1990000D01*
X7206881Y1996560D01*
Y2003119D01*
X7213440Y1990000D02*
X7226560D01*
X7246238Y2009679D02*
X7272476D01*
Y2003119D01*
X7246238Y1976881D01*
Y1970321D01*
X7307524Y2155321D02*
Y2194679D01*
X7327202D01*
X7333762Y2188119D01*
Y2175000D01*
X7327202Y2168440D01*
X7307524D01*
X7320643D02*
X7333762Y2155321D01*
X7346881Y2188119D02*
X7353440Y2194679D01*
X7366560D01*
X7373119Y2188119D01*
Y2181559D01*
X7366560Y2175000D01*
X7373119Y2168440D01*
Y2161881D01*
X7366560Y2155321D01*
X7353440D01*
X7346881Y2161881D01*
Y2168440D01*
X7353440Y2175000D01*
X7346881Y2181559D01*
Y2188119D01*
X7353440Y2175000D02*
X7366560D01*
X7412476Y2194679D02*
X7399357Y2188119D01*
X7386238Y2175000D01*
Y2161881D01*
X7392798Y2155321D01*
X7405917D01*
X7412476Y2161881D01*
Y2168440D01*
X7405917Y2175000D01*
X7386238D01*
X6837524Y3285321D02*
Y3324679D01*
X6857202D01*
X6863762Y3318119D01*
Y3305000D01*
X6857202Y3298440D01*
X6837524D01*
X6850643D02*
X6863762Y3285321D01*
X6876881Y3318119D02*
X6883440Y3324679D01*
X6896560D01*
X6903119Y3318119D01*
Y3311559D01*
X6896560Y3305000D01*
X6903119Y3298440D01*
Y3291881D01*
X6896560Y3285321D01*
X6883440D01*
X6876881Y3291881D01*
Y3298440D01*
X6883440Y3305000D01*
X6876881Y3311559D01*
Y3318119D01*
X6883440Y3305000D02*
X6896560D01*
X6942476Y3324679D02*
X6916238D01*
Y3305000D01*
X6929357Y3311559D01*
X6935917D01*
X6942476Y3305000D01*
Y3291881D01*
X6935917Y3285321D01*
X6922798D01*
X6916238Y3291881D01*
X6987524Y3285321D02*
Y3324679D01*
X7007202D01*
X7013762Y3318119D01*
Y3305000D01*
X7007202Y3298440D01*
X6987524D01*
X7000643D02*
X7013762Y3285321D01*
X7026881Y3318119D02*
X7033440Y3324679D01*
X7046560D01*
X7053119Y3318119D01*
Y3311559D01*
X7046560Y3305000D01*
X7053119Y3298440D01*
Y3291881D01*
X7046560Y3285321D01*
X7033440D01*
X7026881Y3291881D01*
Y3298440D01*
X7033440Y3305000D01*
X7026881Y3311559D01*
Y3318119D01*
X7033440Y3305000D02*
X7046560D01*
X7085917Y3285321D02*
Y3324679D01*
X7066238Y3305000D01*
X7092476D01*
X7357524Y3440321D02*
Y3479679D01*
X7377202D01*
X7383762Y3473119D01*
Y3460000D01*
X7377202Y3453440D01*
X7357524D01*
X7370643D02*
X7383762Y3440321D01*
X7396881Y3473119D02*
X7403440Y3479679D01*
X7416560D01*
X7423119Y3473119D01*
Y3466559D01*
X7416560Y3460000D01*
X7423119Y3453440D01*
Y3446881D01*
X7416560Y3440321D01*
X7403440D01*
X7396881Y3446881D01*
Y3453440D01*
X7403440Y3460000D01*
X7396881Y3466559D01*
Y3473119D01*
X7403440Y3460000D02*
X7416560D01*
X7436238Y3473119D02*
X7442798Y3479679D01*
X7455917D01*
X7462476Y3473119D01*
Y3466559D01*
X7455917Y3460000D01*
X7449357D01*
X7455917D01*
X7462476Y3453440D01*
Y3446881D01*
X7455917Y3440321D01*
X7442798D01*
X7436238Y3446881D01*
X7197524Y3430321D02*
Y3469679D01*
X7217202D01*
X7223762Y3463119D01*
Y3450000D01*
X7217202Y3443440D01*
X7197524D01*
X7210643D02*
X7223762Y3430321D01*
X7236881Y3463119D02*
X7243440Y3469679D01*
X7256560D01*
X7263119Y3463119D01*
Y3456559D01*
X7256560Y3450000D01*
X7263119Y3443440D01*
Y3436881D01*
X7256560Y3430321D01*
X7243440D01*
X7236881Y3436881D01*
Y3443440D01*
X7243440Y3450000D01*
X7236881Y3456559D01*
Y3463119D01*
X7243440Y3450000D02*
X7256560D01*
X7302476Y3430321D02*
X7276238D01*
X7302476Y3456559D01*
Y3463119D01*
X7295917Y3469679D01*
X7282798D01*
X7276238Y3463119D01*
X6854083Y4690321D02*
Y4729679D01*
X6873762D01*
X6880321Y4723119D01*
Y4710000D01*
X6873762Y4703440D01*
X6854083D01*
X6867202D02*
X6880321Y4690321D01*
X6893440Y4723119D02*
X6900000Y4729679D01*
X6913119D01*
X6919679Y4723119D01*
Y4716560D01*
X6913119Y4710000D01*
X6919679Y4703440D01*
Y4696881D01*
X6913119Y4690321D01*
X6900000D01*
X6893440Y4696881D01*
Y4703440D01*
X6900000Y4710000D01*
X6893440Y4716560D01*
Y4723119D01*
X6900000Y4710000D02*
X6913119D01*
X6932798Y4690321D02*
X6945917D01*
X6939358D01*
Y4729679D01*
X6932798Y4723119D01*
X6977524Y4690321D02*
Y4729679D01*
X6997202D01*
X7003762Y4723119D01*
Y4710000D01*
X6997202Y4703440D01*
X6977524D01*
X6990643D02*
X7003762Y4690321D01*
X7016881Y4723119D02*
X7023440Y4729679D01*
X7036560D01*
X7043119Y4723119D01*
Y4716560D01*
X7036560Y4710000D01*
X7043119Y4703440D01*
Y4696881D01*
X7036560Y4690321D01*
X7023440D01*
X7016881Y4696881D01*
Y4703440D01*
X7023440Y4710000D01*
X7016881Y4716560D01*
Y4723119D01*
X7023440Y4710000D02*
X7036560D01*
X7056238Y4723119D02*
X7062798Y4729679D01*
X7075917D01*
X7082476Y4723119D01*
Y4696881D01*
X7075917Y4690321D01*
X7062798D01*
X7056238Y4696881D01*
Y4723119D01*
X7302524Y4595321D02*
Y4634679D01*
X7322202D01*
X7328762Y4628119D01*
Y4615000D01*
X7322202Y4608440D01*
X7302524D01*
X7315643D02*
X7328762Y4595321D01*
X7341881Y4634679D02*
X7368119D01*
Y4628119D01*
X7341881Y4601881D01*
Y4595321D01*
X7381238Y4601881D02*
X7387798Y4595321D01*
X7400917D01*
X7407476Y4601881D01*
Y4628119D01*
X7400917Y4634679D01*
X7387798D01*
X7381238Y4628119D01*
Y4621560D01*
X7387798Y4615000D01*
X7407476D01*
X7132524Y4505321D02*
Y4544679D01*
X7152202D01*
X7158762Y4538119D01*
Y4525000D01*
X7152202Y4518440D01*
X7132524D01*
X7145643D02*
X7158762Y4505321D01*
X7171881Y4544679D02*
X7198119D01*
Y4538119D01*
X7171881Y4511881D01*
Y4505321D01*
X7211238Y4538119D02*
X7217798Y4544679D01*
X7230917D01*
X7237476Y4538119D01*
Y4531560D01*
X7230917Y4525000D01*
X7237476Y4518440D01*
Y4511881D01*
X7230917Y4505321D01*
X7217798D01*
X7211238Y4511881D01*
Y4518440D01*
X7217798Y4525000D01*
X7211238Y4531560D01*
Y4538119D01*
X7217798Y4525000D02*
X7230917D01*
X6611285Y2399679D02*
X6598166D01*
X6604726D01*
Y2366881D01*
X6598166Y2360321D01*
X6591607D01*
X6585047Y2366881D01*
X6624404Y2360321D02*
Y2399679D01*
X6644083D01*
X6650643Y2393119D01*
Y2380000D01*
X6644083Y2373440D01*
X6624404D01*
X6663762Y2360321D02*
Y2399679D01*
X6676881Y2386559D01*
X6690000Y2399679D01*
Y2360321D01*
X6703119Y2393119D02*
X6709679Y2399679D01*
X6722798D01*
X6729357Y2393119D01*
Y2386559D01*
X6722798Y2380000D01*
X6716238D01*
X6722798D01*
X6729357Y2373440D01*
Y2366881D01*
X6722798Y2360321D01*
X6709679D01*
X6703119Y2366881D01*
X6742477Y2380000D02*
X6768715D01*
X6781834Y2360321D02*
X6794953D01*
X6788394D01*
Y2399679D01*
X6781834Y2393119D01*
X6868440Y1731881D02*
Y1758119D01*
X6861881Y1764679D01*
X6848762D01*
X6842202Y1758119D01*
Y1731881D01*
X6848762Y1725321D01*
X6861881D01*
X6855321Y1738440D02*
X6868440Y1725321D01*
X6861881D02*
X6868440Y1731881D01*
X6907798Y1764679D02*
X6894679Y1758119D01*
X6881560Y1745000D01*
Y1731881D01*
X6888119Y1725321D01*
X6901238D01*
X6907798Y1731881D01*
Y1738440D01*
X6901238Y1745000D01*
X6881560D01*
X5028762Y2208119D02*
X5022202Y2214679D01*
X5009083D01*
X5002524Y2208119D01*
Y2181881D01*
X5009083Y2175321D01*
X5022202D01*
X5028762Y2181881D01*
X5041881Y2214679D02*
X5068119D01*
Y2208119D01*
X5041881Y2181881D01*
Y2175321D01*
X5081238Y2214679D02*
X5107476D01*
Y2208119D01*
X5081238Y2181881D01*
Y2175321D01*
X1457524Y1615321D02*
Y1654679D01*
X1477202D01*
X1483762Y1648119D01*
Y1635000D01*
X1477202Y1628440D01*
X1457524D01*
X1470643D02*
X1483762Y1615321D01*
X1496881Y1654679D02*
X1523119D01*
Y1648119D01*
X1496881Y1621881D01*
Y1615321D01*
X1536238Y1654679D02*
X1562476D01*
Y1648119D01*
X1536238Y1621881D01*
Y1615321D01*
X1472524Y1200321D02*
Y1239679D01*
X1492202D01*
X1498762Y1233119D01*
Y1220000D01*
X1492202Y1213440D01*
X1472524D01*
X1485643D02*
X1498762Y1200321D01*
X1511881Y1239679D02*
X1538119D01*
Y1233119D01*
X1511881Y1206881D01*
Y1200321D01*
X1577476Y1239679D02*
X1564357Y1233119D01*
X1551238Y1220000D01*
Y1206881D01*
X1557798Y1200321D01*
X1570917D01*
X1577476Y1206881D01*
Y1213440D01*
X1570917Y1220000D01*
X1551238D01*
X1494238Y1454560D02*
Y1480798D01*
X1487679Y1487357D01*
X1474560D01*
X1468000Y1480798D01*
Y1454560D01*
X1474560Y1448000D01*
X1487679D01*
X1481119Y1461119D02*
X1494238Y1448000D01*
X1487679D02*
X1494238Y1454560D01*
X1507357Y1487357D02*
X1533596D01*
Y1480798D01*
X1507357Y1454560D01*
Y1448000D01*
X1213166Y1542958D02*
Y1503601D01*
Y1523280D01*
X1239404D01*
Y1542958D01*
Y1503601D01*
X1278762Y1542958D02*
X1252524D01*
Y1503601D01*
X1278762D01*
X1252524Y1523280D02*
X1265643D01*
X1291881Y1503601D02*
Y1542958D01*
X1305000Y1529839D01*
X1318119Y1542958D01*
Y1503601D01*
X1331238Y1497042D02*
X1357476D01*
X1370596Y1542958D02*
Y1503601D01*
X1396834D01*
X6603005Y3829679D02*
X6589886D01*
X6596446D01*
Y3796881D01*
X6589886Y3790321D01*
X6583327D01*
X6576767Y3796881D01*
X6616125Y3790321D02*
Y3829679D01*
X6635803D01*
X6642363Y3823119D01*
Y3810000D01*
X6635803Y3803440D01*
X6616125D01*
X6655482Y3790321D02*
Y3829679D01*
X6668601Y3816559D01*
X6681720Y3829679D01*
Y3790321D01*
X6694839D02*
X6707958D01*
X6701399D01*
Y3829679D01*
X6694839Y3823119D01*
X6727637Y3810000D02*
X6753875D01*
X6793233Y3790321D02*
X6766995D01*
X6793233Y3816559D01*
Y3823119D01*
X6786673Y3829679D01*
X6773554D01*
X6766995Y3823119D01*
X3787203Y4499679D02*
X3813441D01*
X3800322D01*
Y4460321D01*
X3826560Y4499679D02*
Y4460321D01*
X3846239D01*
X3852799Y4466881D01*
Y4473440D01*
X3846239Y4480000D01*
X3826560D01*
X3846239D01*
X3852799Y4486560D01*
Y4493119D01*
X3846239Y4499679D01*
X3826560D01*
X952524Y1620321D02*
Y1659679D01*
X972202D01*
X978762Y1653119D01*
Y1640000D01*
X972202Y1633440D01*
X952524D01*
X965643D02*
X978762Y1620321D01*
X991881Y1659679D02*
X1018119D01*
Y1653119D01*
X991881Y1626881D01*
Y1620321D01*
X1057476Y1659679D02*
X1031238D01*
Y1640000D01*
X1044357Y1646560D01*
X1050917D01*
X1057476Y1640000D01*
Y1626881D01*
X1050917Y1620321D01*
X1037798D01*
X1031238Y1626881D01*
X2642523Y4760321D02*
Y4799679D01*
X2662202D01*
X2668762Y4793119D01*
Y4780000D01*
X2662202Y4773440D01*
X2642523D01*
X2655643D02*
X2668762Y4760321D01*
X2708119Y4799679D02*
X2695000Y4793119D01*
X2681881Y4780000D01*
Y4766881D01*
X2688441Y4760321D01*
X2701560D01*
X2708119Y4766881D01*
Y4773440D01*
X2701560Y4780000D01*
X2681881D01*
X2721238Y4793119D02*
X2727798Y4799679D01*
X2740917D01*
X2747477Y4793119D01*
Y4766881D01*
X2740917Y4760321D01*
X2727798D01*
X2721238Y4766881D01*
Y4793119D01*
X2522523Y4540321D02*
Y4579679D01*
X2542202D01*
X2548762Y4573119D01*
Y4560000D01*
X2542202Y4553440D01*
X2522523D01*
X2535643D02*
X2548762Y4540321D01*
X2588119Y4579679D02*
X2561881D01*
Y4560000D01*
X2575000Y4566560D01*
X2581560D01*
X2588119Y4560000D01*
Y4546881D01*
X2581560Y4540321D01*
X2568441D01*
X2561881Y4546881D01*
X2601238D02*
X2607798Y4540321D01*
X2620917D01*
X2627477Y4546881D01*
Y4573119D01*
X2620917Y4579679D01*
X2607798D01*
X2601238Y4573119D01*
Y4566560D01*
X2607798Y4560000D01*
X2627477D01*
X5862524Y5190321D02*
Y5229679D01*
X5882202D01*
X5888762Y5223119D01*
Y5210000D01*
X5882202Y5203440D01*
X5862524D01*
X5875643D02*
X5888762Y5190321D01*
X5928119Y5229679D02*
X5901881D01*
Y5210000D01*
X5915000Y5216560D01*
X5921560D01*
X5928119Y5210000D01*
Y5196881D01*
X5921560Y5190321D01*
X5908440D01*
X5901881Y5196881D01*
X5941238Y5223119D02*
X5947798Y5229679D01*
X5960917D01*
X5967476Y5223119D01*
Y5216560D01*
X5960917Y5210000D01*
X5967476Y5203440D01*
Y5196881D01*
X5960917Y5190321D01*
X5947798D01*
X5941238Y5196881D01*
Y5203440D01*
X5947798Y5210000D01*
X5941238Y5216560D01*
Y5223119D01*
X5947798Y5210000D02*
X5960917D01*
X5862524Y5325321D02*
Y5364679D01*
X5882202D01*
X5888762Y5358119D01*
Y5345000D01*
X5882202Y5338440D01*
X5862524D01*
X5875643D02*
X5888762Y5325321D01*
X5928119Y5364679D02*
X5901881D01*
Y5345000D01*
X5915000Y5351560D01*
X5921560D01*
X5928119Y5345000D01*
Y5331881D01*
X5921560Y5325321D01*
X5908440D01*
X5901881Y5331881D01*
X5941238Y5364679D02*
X5967476D01*
Y5358119D01*
X5941238Y5331881D01*
Y5325321D01*
X2032524Y4745321D02*
Y4784679D01*
X2052202D01*
X2058762Y4778119D01*
Y4765000D01*
X2052202Y4758440D01*
X2032524D01*
X2045643D02*
X2058762Y4745321D01*
X2098119Y4784679D02*
X2071881D01*
Y4765000D01*
X2085000Y4771560D01*
X2091560D01*
X2098119Y4765000D01*
Y4751881D01*
X2091560Y4745321D01*
X2078441D01*
X2071881Y4751881D01*
X2137477Y4784679D02*
X2124357Y4778119D01*
X2111238Y4765000D01*
Y4751881D01*
X2117798Y4745321D01*
X2130917D01*
X2137477Y4751881D01*
Y4758440D01*
X2130917Y4765000D01*
X2111238D01*
X1902524Y4565321D02*
Y4604679D01*
X1922202D01*
X1928762Y4598119D01*
Y4585000D01*
X1922202Y4578440D01*
X1902524D01*
X1915643D02*
X1928762Y4565321D01*
X1968119Y4604679D02*
X1941881D01*
Y4585000D01*
X1955000Y4591560D01*
X1961560D01*
X1968119Y4585000D01*
Y4571881D01*
X1961560Y4565321D01*
X1948440D01*
X1941881Y4571881D01*
X2007476Y4604679D02*
X1981238D01*
Y4585000D01*
X1994357Y4591560D01*
X2000917D01*
X2007476Y4585000D01*
Y4571881D01*
X2000917Y4565321D01*
X1987798D01*
X1981238Y4571881D01*
X5099000Y3982000D02*
Y4021357D01*
X5118679D01*
X5125238Y4014798D01*
Y4001679D01*
X5118679Y3995119D01*
X5099000D01*
X5112119D02*
X5125238Y3982000D01*
X5158036D02*
Y4021357D01*
X5138357Y4001679D01*
X5164596D01*
X5177715Y4014798D02*
X5184274Y4021357D01*
X5197394D01*
X5203953Y4014798D01*
Y4008238D01*
X5197394Y4001679D01*
X5203953Y3995119D01*
Y3988560D01*
X5197394Y3982000D01*
X5184274D01*
X5177715Y3988560D01*
Y3995119D01*
X5184274Y4001679D01*
X5177715Y4008238D01*
Y4014798D01*
X5184274Y4001679D02*
X5197394D01*
X4837524Y3970321D02*
Y4009679D01*
X4857202D01*
X4863762Y4003119D01*
Y3990000D01*
X4857202Y3983440D01*
X4837524D01*
X4850643D02*
X4863762Y3970321D01*
X4896560D02*
Y4009679D01*
X4876881Y3990000D01*
X4903119D01*
X4916238Y4009679D02*
X4942476D01*
Y4003119D01*
X4916238Y3976881D01*
Y3970321D01*
X4582524Y3980321D02*
Y4019679D01*
X4602202D01*
X4608762Y4013119D01*
Y4000000D01*
X4602202Y3993440D01*
X4582524D01*
X4595643D02*
X4608762Y3980321D01*
X4641560D02*
Y4019679D01*
X4621881Y4000000D01*
X4648119D01*
X4687476Y4019679D02*
X4674357Y4013119D01*
X4661238Y4000000D01*
Y3986881D01*
X4667798Y3980321D01*
X4680917D01*
X4687476Y3986881D01*
Y3993440D01*
X4680917Y4000000D01*
X4661238D01*
X2087523Y1630321D02*
Y1669679D01*
X2107202D01*
X2113762Y1663119D01*
Y1650000D01*
X2107202Y1643440D01*
X2087523D01*
X2100643D02*
X2113762Y1630321D01*
X2146560D02*
Y1669679D01*
X2126881Y1650000D01*
X2153119D01*
X2185917Y1630321D02*
Y1669679D01*
X2166238Y1650000D01*
X2192477D01*
X3952523Y5310321D02*
Y5349679D01*
X3972202D01*
X3978762Y5343119D01*
Y5330000D01*
X3972202Y5323440D01*
X3952523D01*
X3965643D02*
X3978762Y5310321D01*
X4011560D02*
Y5349679D01*
X3991881Y5330000D01*
X4018119D01*
X4031238Y5343119D02*
X4037798Y5349679D01*
X4050917D01*
X4057477Y5343119D01*
Y5336560D01*
X4050917Y5330000D01*
X4044357D01*
X4050917D01*
X4057477Y5323440D01*
Y5316881D01*
X4050917Y5310321D01*
X4037798D01*
X4031238Y5316881D01*
X4389083Y1375321D02*
Y1414679D01*
X4408762D01*
X4415321Y1408119D01*
Y1395000D01*
X4408762Y1388440D01*
X4389083D01*
X4402202D02*
X4415321Y1375321D01*
X4448119D02*
Y1414679D01*
X4428440Y1395000D01*
X4454679D01*
X4467798Y1375321D02*
X4480917D01*
X4474358D01*
Y1414679D01*
X4467798Y1408119D01*
X5457524Y4795321D02*
Y4834679D01*
X5477202D01*
X5483762Y4828119D01*
Y4815000D01*
X5477202Y4808440D01*
X5457524D01*
X5470643D02*
X5483762Y4795321D01*
X5496881Y4828119D02*
X5503440Y4834679D01*
X5516560D01*
X5523119Y4828119D01*
Y4821560D01*
X5516560Y4815000D01*
X5510000D01*
X5516560D01*
X5523119Y4808440D01*
Y4801881D01*
X5516560Y4795321D01*
X5503440D01*
X5496881Y4801881D01*
X5536238D02*
X5542798Y4795321D01*
X5555917D01*
X5562476Y4801881D01*
Y4828119D01*
X5555917Y4834679D01*
X5542798D01*
X5536238Y4828119D01*
Y4821560D01*
X5542798Y4815000D01*
X5562476D01*
X3287523Y5275321D02*
Y5314679D01*
X3307202D01*
X3313762Y5308119D01*
Y5295000D01*
X3307202Y5288440D01*
X3287523D01*
X3300643D02*
X3313762Y5275321D01*
X3353119D02*
X3326881D01*
X3353119Y5301560D01*
Y5308119D01*
X3346560Y5314679D01*
X3333441D01*
X3326881Y5308119D01*
X3392477Y5275321D02*
X3366238D01*
X3392477Y5301560D01*
Y5308119D01*
X3385917Y5314679D01*
X3372798D01*
X3366238Y5308119D01*
X6820803Y2090321D02*
Y2129679D01*
X6840482D01*
X6847042Y2123119D01*
Y2110000D01*
X6840482Y2103440D01*
X6820803D01*
X6833922D02*
X6847042Y2090321D01*
X6860161D02*
X6873280D01*
X6866720D01*
Y2129679D01*
X6860161Y2123119D01*
X6892958Y2096881D02*
X6899518Y2090321D01*
X6912637D01*
X6919197Y2096881D01*
Y2123119D01*
X6912637Y2129679D01*
X6899518D01*
X6892958Y2123119D01*
Y2116559D01*
X6899518Y2110000D01*
X6919197D01*
X4565803Y3620321D02*
Y3659679D01*
X4585482D01*
X4592042Y3653119D01*
Y3640000D01*
X4585482Y3633440D01*
X4565803D01*
X4578922D02*
X4592042Y3620321D01*
X4605161D02*
X4618280D01*
X4611720D01*
Y3659679D01*
X4605161Y3653119D01*
X4637958D02*
X4644518Y3659679D01*
X4657637D01*
X4664197Y3653119D01*
Y3646559D01*
X4657637Y3640000D01*
X4664197Y3633440D01*
Y3626881D01*
X4657637Y3620321D01*
X4644518D01*
X4637958Y3626881D01*
Y3633440D01*
X4644518Y3640000D01*
X4637958Y3646559D01*
Y3653119D01*
X4644518Y3640000D02*
X4657637D01*
X4830803Y3625321D02*
Y3664679D01*
X4850482D01*
X4857042Y3658119D01*
Y3645000D01*
X4850482Y3638440D01*
X4830803D01*
X4843922D02*
X4857042Y3625321D01*
X4870161D02*
X4883280D01*
X4876720D01*
Y3664679D01*
X4870161Y3658119D01*
X4902958Y3664679D02*
X4929197D01*
Y3658119D01*
X4902958Y3631881D01*
Y3625321D01*
X6980803Y2090321D02*
Y2129679D01*
X7000482D01*
X7007042Y2123119D01*
Y2110000D01*
X7000482Y2103440D01*
X6980803D01*
X6993922D02*
X7007042Y2090321D01*
X7020161D02*
X7033280D01*
X7026720D01*
Y2129679D01*
X7020161Y2123119D01*
X7079197Y2129679D02*
X7066078Y2123119D01*
X7052958Y2110000D01*
Y2096881D01*
X7059518Y2090321D01*
X7072637D01*
X7079197Y2096881D01*
Y2103440D01*
X7072637Y2110000D01*
X7052958D01*
X6820803Y1920321D02*
Y1959679D01*
X6840482D01*
X6847042Y1953119D01*
Y1940000D01*
X6840482Y1933440D01*
X6820803D01*
X6833922D02*
X6847042Y1920321D01*
X6860161D02*
X6873280D01*
X6866720D01*
Y1959679D01*
X6860161Y1953119D01*
X6919197Y1959679D02*
X6892958D01*
Y1940000D01*
X6906078Y1946560D01*
X6912637D01*
X6919197Y1940000D01*
Y1926881D01*
X6912637Y1920321D01*
X6899518D01*
X6892958Y1926881D01*
X6415803Y2795321D02*
Y2834679D01*
X6435482D01*
X6442042Y2828119D01*
Y2815000D01*
X6435482Y2808440D01*
X6415803D01*
X6428922D02*
X6442042Y2795321D01*
X6455161D02*
X6468280D01*
X6461720D01*
Y2834679D01*
X6455161Y2828119D01*
X6507637Y2795321D02*
Y2834679D01*
X6487958Y2815000D01*
X6514197D01*
X6560803Y2790321D02*
Y2829679D01*
X6580482D01*
X6587042Y2823119D01*
Y2810000D01*
X6580482Y2803440D01*
X6560803D01*
X6573922D02*
X6587042Y2790321D01*
X6600161D02*
X6613280D01*
X6606720D01*
Y2829679D01*
X6600161Y2823119D01*
X6632958D02*
X6639518Y2829679D01*
X6652637D01*
X6659197Y2823119D01*
Y2816559D01*
X6652637Y2810000D01*
X6646078D01*
X6652637D01*
X6659197Y2803440D01*
Y2796881D01*
X6652637Y2790321D01*
X6639518D01*
X6632958Y2796881D01*
X6632363Y2995321D02*
Y3034679D01*
X6652042D01*
X6658601Y3028119D01*
Y3015000D01*
X6652042Y3008440D01*
X6632363D01*
X6645482D02*
X6658601Y2995321D01*
X6671720D02*
X6684839D01*
X6678280D01*
Y3034679D01*
X6671720Y3028119D01*
X6704518Y2995321D02*
X6717637D01*
X6711078D01*
Y3034679D01*
X6704518Y3028119D01*
X6465321Y4242798D02*
X6504679D01*
Y4223119D01*
X6498119Y4216560D01*
X6485000D01*
X6478440Y4223119D01*
Y4242798D01*
Y4229679D02*
X6465321Y4216560D01*
X6504679Y4203440D02*
Y4177202D01*
X6498119D01*
X6471881Y4203440D01*
X6465321D01*
X6512202Y4275321D02*
Y4314679D01*
X6531881D01*
X6538440Y4308119D01*
Y4295000D01*
X6531881Y4288440D01*
X6512202D01*
X6525321D02*
X6538440Y4275321D01*
X6577798Y4314679D02*
X6551560D01*
Y4295000D01*
X6564679Y4301560D01*
X6571238D01*
X6577798Y4295000D01*
Y4281881D01*
X6571238Y4275321D01*
X6558119D01*
X6551560Y4281881D01*
X6777202Y3965321D02*
Y4004679D01*
X6796881D01*
X6803440Y3998119D01*
Y3985000D01*
X6796881Y3978440D01*
X6777202D01*
X6790321D02*
X6803440Y3965321D01*
X6836238D02*
Y4004679D01*
X6816560Y3985000D01*
X6842798D01*
X5427202Y2210321D02*
Y2249679D01*
X5446881D01*
X5453440Y2243119D01*
Y2230000D01*
X5446881Y2223440D01*
X5427202D01*
X5440321D02*
X5453440Y2210321D01*
X5466560Y2243119D02*
X5473119Y2249679D01*
X5486238D01*
X5492798Y2243119D01*
Y2236559D01*
X5486238Y2230000D01*
X5479679D01*
X5486238D01*
X5492798Y2223440D01*
Y2216881D01*
X5486238Y2210321D01*
X5473119D01*
X5466560Y2216881D01*
X5282202Y2215321D02*
Y2254679D01*
X5301881D01*
X5308440Y2248119D01*
Y2235000D01*
X5301881Y2228440D01*
X5282202D01*
X5295321D02*
X5308440Y2215321D01*
X5347798D02*
X5321560D01*
X5347798Y2241559D01*
Y2248119D01*
X5341238Y2254679D01*
X5328119D01*
X5321560Y2248119D01*
X5163762Y2210321D02*
Y2249679D01*
X5183440D01*
X5190000Y2243119D01*
Y2230000D01*
X5183440Y2223440D01*
X5163762D01*
X5176881D02*
X5190000Y2210321D01*
X5203119D02*
X5216238D01*
X5209679D01*
Y2249679D01*
X5203119Y2243119D01*
X7068440Y1961881D02*
Y1988119D01*
X7061881Y1994679D01*
X7048762D01*
X7042202Y1988119D01*
Y1961881D01*
X7048762Y1955321D01*
X7061881D01*
X7055321Y1968440D02*
X7068440Y1955321D01*
X7061881D02*
X7068440Y1961881D01*
X7107798Y1994679D02*
X7081560D01*
Y1975000D01*
X7094679Y1981560D01*
X7101238D01*
X7107798Y1975000D01*
Y1961881D01*
X7101238Y1955321D01*
X7088119D01*
X7081560Y1961881D01*
X6996560Y2803119D02*
Y2776881D01*
X7003119Y2770321D01*
X7016238D01*
X7022798Y2776881D01*
Y2803119D01*
X7016238Y2809678D01*
X7003119D01*
X7009679Y2796559D02*
X6996560Y2809678D01*
X7003119D02*
X6996560Y2803119D01*
X6963762Y2809678D02*
Y2770321D01*
X6983440Y2790000D01*
X6957202D01*
X6728440Y2776881D02*
Y2803119D01*
X6721881Y2809679D01*
X6708762D01*
X6702202Y2803119D01*
Y2776881D01*
X6708762Y2770321D01*
X6721881D01*
X6715321Y2783440D02*
X6728440Y2770321D01*
X6721881D02*
X6728440Y2776881D01*
X6741560Y2803119D02*
X6748119Y2809679D01*
X6761238D01*
X6767798Y2803119D01*
Y2796559D01*
X6761238Y2790000D01*
X6754679D01*
X6761238D01*
X6767798Y2783440D01*
Y2776881D01*
X6761238Y2770321D01*
X6748119D01*
X6741560Y2776881D01*
X6913440Y4296881D02*
Y4323119D01*
X6906881Y4329679D01*
X6893762D01*
X6887202Y4323119D01*
Y4296881D01*
X6893762Y4290321D01*
X6906881D01*
X6900321Y4303440D02*
X6913440Y4290321D01*
X6906881D02*
X6913440Y4296881D01*
X6952798Y4290321D02*
X6926560D01*
X6952798Y4316560D01*
Y4323119D01*
X6946238Y4329679D01*
X6933119D01*
X6926560Y4323119D01*
X6640000Y4301881D02*
Y4328119D01*
X6633440Y4334679D01*
X6620321D01*
X6613762Y4328119D01*
Y4301881D01*
X6620321Y4295321D01*
X6633440D01*
X6626881Y4308440D02*
X6640000Y4295321D01*
X6633440D02*
X6640000Y4301881D01*
X6653119Y4295321D02*
X6666238D01*
X6659679D01*
Y4334679D01*
X6653119Y4328119D01*
X5338762Y3129679D02*
Y3090321D01*
X5365000D01*
X5378119D02*
X5391238D01*
X5384679D01*
Y3129679D01*
X5378119Y3123119D01*
X6606238Y1495357D02*
X6593119D01*
X6599679D01*
Y1462560D01*
X6593119Y1456000D01*
X6586560D01*
X6580000Y1462560D01*
X6619357Y1456000D02*
Y1495357D01*
X6639036D01*
X6645596Y1488798D01*
Y1475679D01*
X6639036Y1469119D01*
X6619357D01*
X6658715Y1456000D02*
Y1495357D01*
X6671834Y1482238D01*
X6684953Y1495357D01*
Y1456000D01*
X6698072Y1488798D02*
X6704632Y1495357D01*
X6717751D01*
X6724310Y1488798D01*
Y1482238D01*
X6717751Y1475679D01*
X6711191D01*
X6717751D01*
X6724310Y1469119D01*
Y1462560D01*
X6717751Y1456000D01*
X6704632D01*
X6698072Y1462560D01*
X6737430Y1475679D02*
X6763668D01*
X6803025Y1456000D02*
X6776787D01*
X6803025Y1482238D01*
Y1488798D01*
X6796466Y1495357D01*
X6783347D01*
X6776787Y1488798D01*
X6609726Y2559679D02*
X6596606D01*
X6603166D01*
Y2526881D01*
X6596606Y2520321D01*
X6590047D01*
X6583487Y2526881D01*
X6622845Y2520321D02*
Y2559679D01*
X6642524D01*
X6649083Y2553119D01*
Y2540000D01*
X6642524Y2533440D01*
X6622845D01*
X6662202Y2520321D02*
Y2559679D01*
X6675321Y2546559D01*
X6688440Y2559679D01*
Y2520321D01*
X6727798D02*
X6701560D01*
X6727798Y2546559D01*
Y2553119D01*
X6721238Y2559679D01*
X6708119D01*
X6701560Y2553119D01*
X6740917Y2540000D02*
X6767155D01*
X6806513Y2520321D02*
X6780274D01*
X6806513Y2546559D01*
Y2553119D01*
X6799953Y2559679D01*
X6786834D01*
X6780274Y2553119D01*
X6641285Y3629679D02*
X6628166D01*
X6634726D01*
Y3596881D01*
X6628166Y3590321D01*
X6621607D01*
X6615047Y3596881D01*
X6654404Y3590321D02*
Y3629679D01*
X6674083D01*
X6680643Y3623119D01*
Y3610000D01*
X6674083Y3603440D01*
X6654404D01*
X6693762Y3590321D02*
Y3629679D01*
X6706881Y3616559D01*
X6720000Y3629679D01*
Y3590321D01*
X6759357D02*
X6733119D01*
X6759357Y3616559D01*
Y3623119D01*
X6752798Y3629679D01*
X6739679D01*
X6733119Y3623119D01*
X6772477Y3610000D02*
X6798715D01*
X6811834Y3590321D02*
X6824953D01*
X6818394D01*
Y3629679D01*
X6811834Y3623119D01*
X6640643Y4739679D02*
X6627524D01*
X6634083D01*
Y4706881D01*
X6627524Y4700321D01*
X6620964D01*
X6614404Y4706881D01*
X6653762Y4700321D02*
Y4739679D01*
X6673440D01*
X6680000Y4733119D01*
Y4720000D01*
X6673440Y4713440D01*
X6653762D01*
X6693119Y4700321D02*
Y4739679D01*
X6706238Y4726560D01*
X6719357Y4739679D01*
Y4700321D01*
X6732477D02*
X6745596D01*
X6739036D01*
Y4739679D01*
X6732477Y4733119D01*
X2242238Y5120357D02*
X2229119D01*
X2235679D01*
Y5087560D01*
X2229119Y5081000D01*
X2222560D01*
X2216000Y5087560D01*
X2255357Y5081000D02*
Y5120357D01*
X2268477Y5107238D01*
X2281596Y5120357D01*
Y5081000D01*
X2294715Y5113798D02*
X2301274Y5120357D01*
X2314394D01*
X2320953Y5113798D01*
Y5107238D01*
X2314394Y5100679D01*
X2307834D01*
X2314394D01*
X2320953Y5094119D01*
Y5087560D01*
X2314394Y5081000D01*
X2301274D01*
X2294715Y5087560D01*
X2360310Y5120357D02*
X2334072D01*
Y5081000D01*
X2360310D01*
X2334072Y5100679D02*
X2347191D01*
X6083238Y5395357D02*
X6070119D01*
X6076679D01*
Y5362560D01*
X6070119Y5356000D01*
X6063560D01*
X6057000Y5362560D01*
X6096357Y5356000D02*
Y5395357D01*
X6109476Y5382238D01*
X6122596Y5395357D01*
Y5356000D01*
X6161953D02*
X6135715D01*
X6161953Y5382238D01*
Y5388798D01*
X6155394Y5395357D01*
X6142274D01*
X6135715Y5388798D01*
X6201310Y5395357D02*
X6175072D01*
Y5356000D01*
X6201310D01*
X6175072Y5375679D02*
X6188191D01*
X1632238Y5128357D02*
X1619119D01*
X1625679D01*
Y5095560D01*
X1619119Y5089000D01*
X1612560D01*
X1606000Y5095560D01*
X1645357Y5089000D02*
Y5128357D01*
X1658476Y5115238D01*
X1671596Y5128357D01*
Y5089000D01*
X1684715D02*
X1697834D01*
X1691274D01*
Y5128357D01*
X1684715Y5121798D01*
X1743751Y5128357D02*
X1717513D01*
Y5089000D01*
X1743751D01*
X1717513Y5108679D02*
X1730632D01*
X1021606Y5142958D02*
X1008487D01*
X1015047D01*
Y5110161D01*
X1008487Y5103601D01*
X1001928D01*
X995368Y5110161D01*
X1034726Y5097042D02*
X1060964D01*
X1074083Y5142958D02*
Y5110161D01*
X1080643Y5103601D01*
X1093762D01*
X1100321Y5110161D01*
Y5142958D01*
X1113440Y5103601D02*
Y5129839D01*
X1126560Y5142958D01*
X1139679Y5129839D01*
Y5103601D01*
Y5123280D01*
X1113440D01*
X1152798Y5103601D02*
Y5142958D01*
X1172477D01*
X1179036Y5136399D01*
Y5123280D01*
X1172477Y5116720D01*
X1152798D01*
X1165917D02*
X1179036Y5103601D01*
X1192155Y5142958D02*
X1218393D01*
X1205274D01*
Y5103601D01*
X1231513D02*
X1244632D01*
X1238072D01*
Y5142958D01*
X1231513Y5136399D01*
X745000Y1124679D02*
X731881D01*
X738441D01*
Y1091881D01*
X731881Y1085321D01*
X725321D01*
X718762Y1091881D01*
X758119Y1085321D02*
X771238D01*
X764679D01*
Y1124679D01*
X758119Y1118119D01*
X4830803Y3124679D02*
X4843922D01*
X4837363D01*
Y3085321D01*
X4830803D01*
X4843922D01*
X4889839Y3118119D02*
X4883280Y3124679D01*
X4870161D01*
X4863601Y3118119D01*
Y3091881D01*
X4870161Y3085321D01*
X4883280D01*
X4889839Y3091881D01*
X4929197Y3085321D02*
X4902958D01*
X4929197Y3111559D01*
Y3118119D01*
X4922637Y3124679D01*
X4909518D01*
X4902958Y3118119D01*
X4046767Y1552958D02*
Y1513601D01*
Y1533280D01*
X4073005D01*
Y1552958D01*
Y1513601D01*
X4086125D02*
Y1552958D01*
X4105803D01*
X4112363Y1546399D01*
Y1533280D01*
X4105803Y1526720D01*
X4086125D01*
X4125482Y1507042D02*
X4151720D01*
X4164839Y1552958D02*
X4177958D01*
X4171399D01*
Y1513601D01*
X4164839D01*
X4177958D01*
X4223875D02*
X4197637D01*
X4223875Y1539839D01*
Y1546399D01*
X4217316Y1552958D01*
X4204197D01*
X4197637Y1546399D01*
X4263233D02*
X4256673Y1552958D01*
X4243554D01*
X4236995Y1546399D01*
Y1520161D01*
X4243554Y1513601D01*
X4256673D01*
X4263233Y1520161D01*
X4742845Y1502958D02*
Y1463601D01*
Y1483280D01*
X4769083D01*
Y1502958D01*
Y1463601D01*
X4782202Y1502958D02*
Y1463601D01*
X4808440D01*
X4821560Y1457042D02*
X4847798D01*
X4887155Y1502958D02*
X4860917D01*
Y1463601D01*
X4887155D01*
X4860917Y1483280D02*
X4874036D01*
X2959130Y5397958D02*
Y5358601D01*
Y5378280D01*
X2985368D01*
Y5397958D01*
Y5358601D01*
X2998487Y5352042D02*
X3024726D01*
X3037845Y5397958D02*
Y5365161D01*
X3044404Y5358601D01*
X3057523D01*
X3064083Y5365161D01*
Y5397958D01*
X3103440Y5391399D02*
X3096881Y5397958D01*
X3083762D01*
X3077202Y5391399D01*
Y5384839D01*
X3083762Y5378280D01*
X3096881D01*
X3103440Y5371720D01*
Y5365161D01*
X3096881Y5358601D01*
X3083762D01*
X3077202Y5365161D01*
X3116560Y5358601D02*
Y5384839D01*
X3129679Y5397958D01*
X3142798Y5384839D01*
Y5358601D01*
Y5378280D01*
X3116560D01*
X3155917Y5358601D02*
Y5397958D01*
X3175596D01*
X3182155Y5391399D01*
Y5378280D01*
X3175596Y5371720D01*
X3155917D01*
X3169036D02*
X3182155Y5358601D01*
X3195274Y5397958D02*
X3221513D01*
X3208394D01*
Y5358601D01*
X3260870D02*
X3234632D01*
X3260870Y5384839D01*
Y5391399D01*
X3254311Y5397958D01*
X3241191D01*
X3234632Y5391399D01*
X3217000Y1690357D02*
Y1651000D01*
Y1670679D01*
X3243238D01*
Y1690357D01*
Y1651000D01*
X3256357Y1644440D02*
X3282596D01*
X3321953Y1683798D02*
X3315394Y1690357D01*
X3302274D01*
X3295715Y1683798D01*
Y1677238D01*
X3302274Y1670679D01*
X3315394D01*
X3321953Y1664119D01*
Y1657560D01*
X3315394Y1651000D01*
X3302274D01*
X3295715Y1657560D01*
X3335072Y1651000D02*
Y1690357D01*
X3354751D01*
X3361310Y1683798D01*
Y1670679D01*
X3354751Y1664119D01*
X3335072D01*
X3374430Y1690357D02*
X3387549D01*
X3380989D01*
Y1651000D01*
X3374430D01*
X3387549D01*
X5404726Y5352958D02*
Y5313601D01*
Y5333280D01*
X5430964D01*
Y5352958D01*
Y5313601D01*
X5444083Y5307042D02*
X5470321D01*
X5509679Y5346399D02*
X5503119Y5352958D01*
X5490000D01*
X5483440Y5346399D01*
Y5339839D01*
X5490000Y5333280D01*
X5503119D01*
X5509679Y5326720D01*
Y5320161D01*
X5503119Y5313601D01*
X5490000D01*
X5483440Y5320161D01*
X5549036Y5352958D02*
X5535917D01*
X5542477D01*
Y5320161D01*
X5535917Y5313601D01*
X5529358D01*
X5522798Y5320161D01*
X5568715Y5313601D02*
Y5346399D01*
Y5333280D01*
X5562155D01*
X5575274D01*
X5568715D01*
Y5346399D01*
X5575274Y5352958D01*
X6103166Y1461698D02*
Y1422341D01*
Y1442020D01*
X6129404D01*
Y1461698D01*
Y1422341D01*
X6142524Y1415782D02*
X6168762D01*
X6181881Y1422341D02*
Y1461698D01*
X6195000Y1448579D01*
X6208119Y1461698D01*
Y1422341D01*
X6221238Y1455139D02*
X6227798Y1461698D01*
X6240917D01*
X6247476Y1455139D01*
Y1448579D01*
X6240917Y1442020D01*
X6234357D01*
X6240917D01*
X6247476Y1435460D01*
Y1428901D01*
X6240917Y1422341D01*
X6227798D01*
X6221238Y1428901D01*
X6260596Y1422341D02*
Y1461698D01*
X6280274D01*
X6286834Y1455139D01*
Y1442020D01*
X6280274Y1435460D01*
X6260596D01*
X5833166Y1062958D02*
Y1023601D01*
Y1043280D01*
X5859404D01*
Y1062958D01*
Y1023601D01*
X5872524Y1017041D02*
X5898762D01*
X5911881Y1023601D02*
Y1062958D01*
X5925000Y1049839D01*
X5938119Y1062958D01*
Y1023601D01*
X5977476D02*
X5951238D01*
X5977476Y1049839D01*
Y1056399D01*
X5970917Y1062958D01*
X5957798D01*
X5951238Y1056399D01*
X5990596Y1023601D02*
Y1062958D01*
X6010274D01*
X6016834Y1056399D01*
Y1043280D01*
X6010274Y1036720D01*
X5990596D01*
X5526446Y1472958D02*
Y1433601D01*
Y1453280D01*
X5552684D01*
Y1472958D01*
Y1433601D01*
X5565803Y1427041D02*
X5592042D01*
X5605161Y1433601D02*
Y1472958D01*
X5618280Y1459839D01*
X5631399Y1472958D01*
Y1433601D01*
X5644518D02*
X5657637D01*
X5651078D01*
Y1472958D01*
X5644518Y1466399D01*
X5677316Y1433601D02*
Y1472958D01*
X5696995D01*
X5703554Y1466399D01*
Y1453280D01*
X5696995Y1446720D01*
X5677316D01*
X2538487Y1572958D02*
Y1533601D01*
Y1553280D01*
X2564726D01*
Y1572958D01*
Y1533601D01*
X2577845Y1527042D02*
X2604083D01*
X2617202Y1572958D02*
Y1533601D01*
X2643440D01*
X2682798Y1572958D02*
X2656560D01*
Y1533601D01*
X2682798D01*
X2656560Y1553280D02*
X2669679D01*
X2695917Y1572958D02*
Y1533601D01*
X2715596D01*
X2722155Y1540161D01*
Y1566399D01*
X2715596Y1572958D01*
X2695917D01*
X2735274Y1533601D02*
Y1572958D01*
X2754953D01*
X2761513Y1566399D01*
Y1553280D01*
X2754953Y1546720D01*
X2735274D01*
X1773809Y1609218D02*
Y1569861D01*
Y1589540D01*
X1800047D01*
Y1609218D01*
Y1569861D01*
X1813166Y1563302D02*
X1839404D01*
X1852524Y1609218D02*
Y1569861D01*
X1878762D01*
X1918119Y1609218D02*
X1891881D01*
Y1569861D01*
X1918119D01*
X1891881Y1589540D02*
X1905000D01*
X1931238Y1609218D02*
Y1569861D01*
X1950917D01*
X1957476Y1576421D01*
Y1602659D01*
X1950917Y1609218D01*
X1931238D01*
X1970596Y1563302D02*
X1996834D01*
X2036191Y1602659D02*
X2029632Y1609218D01*
X2016513D01*
X2009953Y1602659D01*
Y1596099D01*
X2016513Y1589540D01*
X2029632D01*
X2036191Y1582980D01*
Y1576421D01*
X2029632Y1569861D01*
X2016513D01*
X2009953Y1576421D01*
X4382845Y4882958D02*
Y4843601D01*
Y4863280D01*
X4409083D01*
Y4882958D01*
Y4843601D01*
X4422202Y4837042D02*
X4448440D01*
X4461560Y4882958D02*
Y4843601D01*
Y4863280D01*
X4487798D01*
Y4882958D01*
Y4843601D01*
X4527155Y4882958D02*
X4500917D01*
Y4843601D01*
X4527155D01*
X4500917Y4863280D02*
X4514036D01*
X3462000Y5413357D02*
Y5374000D01*
Y5393679D01*
X3488238D01*
Y5413357D01*
Y5374000D01*
X3501357D02*
X3514477D01*
X3507917D01*
Y5413357D01*
X3501357Y5406798D01*
X5866238Y2525321D02*
Y2564678D01*
X5846560D01*
X5840000Y2558119D01*
Y2531881D01*
X5846560Y2525321D01*
X5866238D01*
X5826881Y2564678D02*
X5813762D01*
X5820321D01*
Y2525321D01*
X5826881Y2531881D01*
X3180238Y5149798D02*
X3173679Y5156357D01*
X3160560D01*
X3154000Y5149798D01*
Y5123560D01*
X3160560Y5117000D01*
X3173679D01*
X3180238Y5123560D01*
X3193357Y5149798D02*
X3199917Y5156357D01*
X3213036D01*
X3219596Y5149798D01*
Y5143238D01*
X3213036Y5136679D01*
X3206477D01*
X3213036D01*
X3219596Y5130119D01*
Y5123560D01*
X3213036Y5117000D01*
X3199917D01*
X3193357Y5123560D01*
X3232715Y5156357D02*
X3258953D01*
Y5149798D01*
X3232715Y5123560D01*
Y5117000D01*
X3300238Y5149798D02*
X3293679Y5156357D01*
X3280560D01*
X3274000Y5149798D01*
Y5123560D01*
X3280560Y5117000D01*
X3293679D01*
X3300238Y5123560D01*
X3313357Y5149798D02*
X3319917Y5156357D01*
X3333036D01*
X3339596Y5149798D01*
Y5143238D01*
X3333036Y5136679D01*
X3326477D01*
X3333036D01*
X3339596Y5130119D01*
Y5123560D01*
X3333036Y5117000D01*
X3319917D01*
X3313357Y5123560D01*
X3378953Y5156357D02*
X3365834Y5149798D01*
X3352715Y5136679D01*
Y5123560D01*
X3359274Y5117000D01*
X3372394D01*
X3378953Y5123560D01*
Y5130119D01*
X3372394Y5136679D01*
X3352715D01*
X868762Y1283119D02*
X862202Y1289679D01*
X849083D01*
X842524Y1283119D01*
Y1256881D01*
X849083Y1250321D01*
X862202D01*
X868762Y1256881D01*
X881881Y1283119D02*
X888441Y1289679D01*
X901560D01*
X908119Y1283119D01*
Y1276560D01*
X901560Y1270000D01*
X895000D01*
X901560D01*
X908119Y1263440D01*
Y1256881D01*
X901560Y1250321D01*
X888441D01*
X881881Y1256881D01*
X940917Y1250321D02*
Y1289679D01*
X921238Y1270000D01*
X947476D01*
X3913762Y4838119D02*
X3907202Y4844679D01*
X3894083D01*
X3887523Y4838119D01*
Y4811881D01*
X3894083Y4805321D01*
X3907202D01*
X3913762Y4811881D01*
X3926881Y4838119D02*
X3933441Y4844679D01*
X3946560D01*
X3953119Y4838119D01*
Y4831560D01*
X3946560Y4825000D01*
X3940000D01*
X3946560D01*
X3953119Y4818440D01*
Y4811881D01*
X3946560Y4805321D01*
X3933441D01*
X3926881Y4811881D01*
X3966238Y4838119D02*
X3972798Y4844679D01*
X3985917D01*
X3992477Y4838119D01*
Y4811881D01*
X3985917Y4805321D01*
X3972798D01*
X3966238Y4811881D01*
Y4838119D01*
X3748762Y4843119D02*
X3742202Y4849679D01*
X3729083D01*
X3722523Y4843119D01*
Y4816881D01*
X3729083Y4810321D01*
X3742202D01*
X3748762Y4816881D01*
X3788119Y4810321D02*
X3761881D01*
X3788119Y4836560D01*
Y4843119D01*
X3781560Y4849679D01*
X3768441D01*
X3761881Y4843119D01*
X3801238Y4816881D02*
X3807798Y4810321D01*
X3820917D01*
X3827477Y4816881D01*
Y4843119D01*
X3820917Y4849679D01*
X3807798D01*
X3801238Y4843119D01*
Y4836560D01*
X3807798Y4830000D01*
X3827477D01*
X3498762Y1578119D02*
X3492202Y1584679D01*
X3479083D01*
X3472523Y1578119D01*
Y1551881D01*
X3479083Y1545321D01*
X3492202D01*
X3498762Y1551881D01*
X3538119Y1545321D02*
X3511881D01*
X3538119Y1571560D01*
Y1578119D01*
X3531560Y1584679D01*
X3518441D01*
X3511881Y1578119D01*
X3570917Y1545321D02*
Y1584679D01*
X3551238Y1565000D01*
X3577477D01*
X3638762Y1583119D02*
X3632202Y1589679D01*
X3619083D01*
X3612523Y1583119D01*
Y1556881D01*
X3619083Y1550321D01*
X3632202D01*
X3638762Y1556881D01*
X3678119Y1550321D02*
X3651881D01*
X3678119Y1576560D01*
Y1583119D01*
X3671560Y1589679D01*
X3658441D01*
X3651881Y1583119D01*
X3691238D02*
X3697798Y1589679D01*
X3710917D01*
X3717477Y1583119D01*
Y1576560D01*
X3710917Y1570000D01*
X3704357D01*
X3710917D01*
X3717477Y1563440D01*
Y1556881D01*
X3710917Y1550321D01*
X3697798D01*
X3691238Y1556881D01*
X3065238Y1454798D02*
X3058679Y1461357D01*
X3045560D01*
X3039000Y1454798D01*
Y1428560D01*
X3045560Y1422000D01*
X3058679D01*
X3065238Y1428560D01*
X3104596Y1422000D02*
X3078357D01*
X3104596Y1448238D01*
Y1454798D01*
X3098036Y1461357D01*
X3084917D01*
X3078357Y1454798D01*
X3143953Y1422000D02*
X3117715D01*
X3143953Y1448238D01*
Y1454798D01*
X3137394Y1461357D01*
X3124274D01*
X3117715Y1454798D01*
X2940238D02*
X2933679Y1461357D01*
X2920560D01*
X2914000Y1454798D01*
Y1428560D01*
X2920560Y1422000D01*
X2933679D01*
X2940238Y1428560D01*
X2979596Y1422000D02*
X2953357D01*
X2979596Y1448238D01*
Y1454798D01*
X2973036Y1461357D01*
X2959917D01*
X2953357Y1454798D01*
X2992715Y1422000D02*
X3005834D01*
X2999274D01*
Y1461357D01*
X2992715Y1454798D01*
X3808762Y1483119D02*
X3802202Y1489679D01*
X3789083D01*
X3782523Y1483119D01*
Y1456881D01*
X3789083Y1450321D01*
X3802202D01*
X3808762Y1456881D01*
X3848119Y1450321D02*
X3821881D01*
X3848119Y1476560D01*
Y1483119D01*
X3841560Y1489679D01*
X3828441D01*
X3821881Y1483119D01*
X3861238D02*
X3867798Y1489679D01*
X3880917D01*
X3887477Y1483119D01*
Y1456881D01*
X3880917Y1450321D01*
X3867798D01*
X3861238Y1456881D01*
Y1483119D01*
X3942041Y1488119D02*
X3935482Y1494679D01*
X3922363D01*
X3915803Y1488119D01*
Y1461881D01*
X3922363Y1455321D01*
X3935482D01*
X3942041Y1461881D01*
X3955161Y1455321D02*
X3968280D01*
X3961720D01*
Y1494679D01*
X3955161Y1488119D01*
X3987959Y1461881D02*
X3994518Y1455321D01*
X4007637D01*
X4014197Y1461881D01*
Y1488119D01*
X4007637Y1494679D01*
X3994518D01*
X3987959Y1488119D01*
Y1481560D01*
X3994518Y1475000D01*
X4014197D01*
X3902041Y5123119D02*
X3895482Y5129679D01*
X3882363D01*
X3875803Y5123119D01*
Y5096881D01*
X3882363Y5090321D01*
X3895482D01*
X3902041Y5096881D01*
X3915161Y5090321D02*
X3928280D01*
X3921720D01*
Y5129679D01*
X3915161Y5123119D01*
X3947959D02*
X3954518Y5129679D01*
X3967637D01*
X3974197Y5123119D01*
Y5116560D01*
X3967637Y5110000D01*
X3974197Y5103440D01*
Y5096881D01*
X3967637Y5090321D01*
X3954518D01*
X3947959Y5096881D01*
Y5103440D01*
X3954518Y5110000D01*
X3947959Y5116560D01*
Y5123119D01*
X3954518Y5110000D02*
X3967637D01*
X4072041Y5123119D02*
X4065482Y5129679D01*
X4052363D01*
X4045803Y5123119D01*
Y5096881D01*
X4052363Y5090321D01*
X4065482D01*
X4072041Y5096881D01*
X4085161Y5090321D02*
X4098280D01*
X4091720D01*
Y5129679D01*
X4085161Y5123119D01*
X4117958Y5129679D02*
X4144197D01*
Y5123119D01*
X4117958Y5096881D01*
Y5090321D01*
X1292042Y4808119D02*
X1285482Y4814679D01*
X1272363D01*
X1265803Y4808119D01*
Y4781881D01*
X1272363Y4775321D01*
X1285482D01*
X1292042Y4781881D01*
X1305161Y4775321D02*
X1318280D01*
X1311720D01*
Y4814679D01*
X1305161Y4808119D01*
X1364197Y4814679D02*
X1351078Y4808119D01*
X1337958Y4795000D01*
Y4781881D01*
X1344518Y4775321D01*
X1357637D01*
X1364197Y4781881D01*
Y4788440D01*
X1357637Y4795000D01*
X1337958D01*
X1432042Y4808119D02*
X1425482Y4814679D01*
X1412363D01*
X1405803Y4808119D01*
Y4781881D01*
X1412363Y4775321D01*
X1425482D01*
X1432042Y4781881D01*
X1445161Y4775321D02*
X1458280D01*
X1451720D01*
Y4814679D01*
X1445161Y4808119D01*
X1504197Y4814679D02*
X1477958D01*
Y4795000D01*
X1491078Y4801560D01*
X1497637D01*
X1504197Y4795000D01*
Y4781881D01*
X1497637Y4775321D01*
X1484518D01*
X1477958Y4781881D01*
X2052041Y1273119D02*
X2045482Y1279679D01*
X2032363D01*
X2025803Y1273119D01*
Y1246881D01*
X2032363Y1240321D01*
X2045482D01*
X2052041Y1246881D01*
X2065161Y1240321D02*
X2078280D01*
X2071720D01*
Y1279679D01*
X2065161Y1273119D01*
X2117637Y1240321D02*
Y1279679D01*
X2097959Y1260000D01*
X2124197D01*
X2202041Y1273119D02*
X2195482Y1279679D01*
X2182363D01*
X2175803Y1273119D01*
Y1246881D01*
X2182363Y1240321D01*
X2195482D01*
X2202041Y1246881D01*
X2215161Y1240321D02*
X2228280D01*
X2221720D01*
Y1279679D01*
X2215161Y1273119D01*
X2247959D02*
X2254518Y1279679D01*
X2267637D01*
X2274197Y1273119D01*
Y1266560D01*
X2267637Y1260000D01*
X2261078D01*
X2267637D01*
X2274197Y1253440D01*
Y1246881D01*
X2267637Y1240321D01*
X2254518D01*
X2247959Y1246881D01*
X2027042Y5028119D02*
X2020482Y5034679D01*
X2007363D01*
X2000803Y5028119D01*
Y5001881D01*
X2007363Y4995321D01*
X2020482D01*
X2027042Y5001881D01*
X2040161Y4995321D02*
X2053280D01*
X2046720D01*
Y5034679D01*
X2040161Y5028119D01*
X2099197Y4995321D02*
X2072959D01*
X2099197Y5021560D01*
Y5028119D01*
X2092637Y5034679D01*
X2079518D01*
X2072959Y5028119D01*
X1878601D02*
X1872042Y5034679D01*
X1858922D01*
X1852363Y5028119D01*
Y5001881D01*
X1858922Y4995321D01*
X1872042D01*
X1878601Y5001881D01*
X1891720Y4995321D02*
X1904839D01*
X1898280D01*
Y5034679D01*
X1891720Y5028119D01*
X1924518Y4995321D02*
X1937637D01*
X1931078D01*
Y5034679D01*
X1924518Y5028119D01*
X5823440Y4943119D02*
X5816881Y4949679D01*
X5803762D01*
X5797202Y4943119D01*
Y4916881D01*
X5803762Y4910321D01*
X5816881D01*
X5823440Y4916881D01*
X5836560D02*
X5843119Y4910321D01*
X5856238D01*
X5862798Y4916881D01*
Y4943119D01*
X5856238Y4949679D01*
X5843119D01*
X5836560Y4943119D01*
Y4936560D01*
X5843119Y4930000D01*
X5862798D01*
X5968440Y4943119D02*
X5961881Y4949679D01*
X5948762D01*
X5942202Y4943119D01*
Y4916881D01*
X5948762Y4910321D01*
X5961881D01*
X5968440Y4916881D01*
X5981560Y4943119D02*
X5988119Y4949679D01*
X6001238D01*
X6007798Y4943119D01*
Y4936560D01*
X6001238Y4930000D01*
X6007798Y4923440D01*
Y4916881D01*
X6001238Y4910321D01*
X5988119D01*
X5981560Y4916881D01*
Y4923440D01*
X5988119Y4930000D01*
X5981560Y4936560D01*
Y4943119D01*
X5988119Y4930000D02*
X6001238D01*
X2663440Y5023119D02*
X2656881Y5029679D01*
X2643762D01*
X2637202Y5023119D01*
Y4996881D01*
X2643762Y4990321D01*
X2656881D01*
X2663440Y4996881D01*
X2676560Y5029679D02*
X2702798D01*
Y5023119D01*
X2676560Y4996881D01*
Y4990321D01*
X2518440Y5023119D02*
X2511881Y5029679D01*
X2498762D01*
X2492202Y5023119D01*
Y4996881D01*
X2498762Y4990321D01*
X2511881D01*
X2518440Y4996881D01*
X2557798Y5029679D02*
X2544679Y5023119D01*
X2531560Y5010000D01*
Y4996881D01*
X2538119Y4990321D01*
X2551238D01*
X2557798Y4996881D01*
Y5003440D01*
X2551238Y5010000D01*
X2531560D01*
X4888440Y2298119D02*
X4881881Y2304679D01*
X4868762D01*
X4862202Y2298119D01*
Y2271881D01*
X4868762Y2265321D01*
X4881881D01*
X4888440Y2271881D01*
X4901560Y2298119D02*
X4908119Y2304679D01*
X4921238D01*
X4927798Y2298119D01*
Y2291559D01*
X4921238Y2285000D01*
X4914679D01*
X4921238D01*
X4927798Y2278440D01*
Y2271881D01*
X4921238Y2265321D01*
X4908119D01*
X4901560Y2271881D01*
X5361881Y2648440D02*
X5355321Y2641881D01*
Y2628762D01*
X5361881Y2622202D01*
X5388119D01*
X5394679Y2628762D01*
Y2641881D01*
X5388119Y2648440D01*
X5394679Y2687798D02*
Y2661559D01*
X5368440Y2687798D01*
X5361881D01*
X5355321Y2681238D01*
Y2668119D01*
X5361881Y2661559D01*
X5050000Y2423119D02*
X5043440Y2429679D01*
X5030321D01*
X5023762Y2423119D01*
Y2396881D01*
X5030321Y2390321D01*
X5043440D01*
X5050000Y2396881D01*
X5063119Y2390321D02*
X5076238D01*
X5069679D01*
Y2429679D01*
X5063119Y2423119D01*
D59*
X5742520Y2785039D02*
X5759813D01*
X5850187D02*
X5867480D01*
Y2554961D02*
Y2785039D01*
X5742520Y2554961D02*
X5759813D01*
X5742520D02*
Y2785039D01*
X5780000Y2810039D02*
X5830000D01*
X5800000D02*
X5805000Y2840039D01*
X5795000Y2810039D02*
X5805000Y2840039D01*
X5790000Y2810039D02*
X5805000Y2840039D01*
X5785000Y2810039D02*
X5805000Y2840039D01*
X5780000Y2810039D02*
X5805000Y2840039D01*
X5810000Y2810039D01*
X5805000Y2840039D02*
X5815000Y2810039D01*
X5805000Y2840039D02*
X5820000Y2810039D01*
X5805000Y2840039D02*
X5825000Y2810039D01*
X5805000Y2840039D02*
X5830000Y2810039D01*
X5780000Y2840039D02*
X5830000D01*
X5805000Y2800039D02*
Y2850039D01*
X5850187Y2554961D02*
X5867480D01*
X6889100Y1657500D02*
X6915703D01*
X6837402Y1592500D02*
Y1657500D01*
Y1592500D02*
X6878302D01*
X6967402D02*
Y1657500D01*
X6926502Y1592500D02*
X6967402D01*
X6999100Y2862500D02*
X7040000D01*
Y2927500D01*
X6910000Y2862500D02*
X6950900D01*
X6910000D02*
Y2927500D01*
X6961698D02*
X6988302D01*
X6888661Y4247500D02*
X6929561D01*
X6888661Y4182500D02*
Y4247500D01*
X6977761D02*
X7018661D01*
Y4182500D02*
Y4247500D01*
X6940360Y4182500D02*
X6966963D01*
X2001142Y1139056D02*
Y1520944D01*
X1784606Y1139056D02*
X2001142D01*
X1784606D02*
Y1520944D01*
X2001142D01*
X1860000Y1069056D02*
X1885000Y1129056D01*
X1860000Y1069056D02*
X1910000D01*
X1885000Y1129056D02*
X1910000Y1069056D01*
X1431142Y1157795D02*
Y1460944D01*
X1214606Y1157795D02*
X1431142D01*
X1214606D02*
Y1460944D01*
X1431142D01*
X1290000Y1087795D02*
X1315000Y1147795D01*
X1290000Y1087795D02*
X1340000D01*
X1315000Y1147795D02*
X1340000Y1087795D01*
X4668858Y1149056D02*
Y1452204D01*
X4885394D01*
Y1149056D02*
Y1452204D01*
X4668858Y1149056D02*
X4885394D01*
X4785000Y1462204D02*
X4810000Y1522204D01*
X4760000D02*
X4810000D01*
X4760000D02*
X4785000Y1462204D01*
X4333858Y4915316D02*
Y5297204D01*
X4550394D01*
Y4915316D02*
Y5297204D01*
X4333858Y4915316D02*
X4550394D01*
X4450000Y5307204D02*
X4475000Y5367204D01*
X4425000D02*
X4475000D01*
X4425000D02*
X4450000Y5307204D01*
X710000Y1309094D02*
X735000Y1249094D01*
X685000D02*
X735000D01*
X685000D02*
X710000Y1309094D01*
X668084Y1699016D02*
X832048D01*
X612756Y1363562D02*
Y1654548D01*
X668084Y1319094D02*
X832048D01*
Y1699016D01*
X2650000Y1187796D02*
X2675000Y1127796D01*
X2625000D02*
X2675000D01*
X2625000D02*
X2650000Y1187796D01*
X2549606Y1500944D02*
X2766142D01*
X2549606Y1197796D02*
Y1500944D01*
Y1197796D02*
X2766142D01*
Y1500944D01*
X5465000Y5345944D02*
X5490000Y5285944D01*
X5465000Y5345944D02*
X5515000D01*
X5490000Y5285944D02*
X5515000Y5345944D01*
X5373858Y4972796D02*
X5590394D01*
Y5275944D01*
X5373858D02*
X5590394D01*
X5373858Y4972796D02*
Y5275944D01*
D60*
X402600Y1810788D02*
Y4409212D01*
X4221496Y1810788D02*
Y4409212D01*
X402600Y1810788D02*
X4221496D01*
X402600Y4409212D02*
X4221496D01*
X3219606Y1042874D02*
Y1113740D01*
X3255040D01*
Y1535000D01*
X3219606D02*
X3255040D01*
X3219606D02*
Y1605866D01*
Y1042874D02*
X3436142D01*
Y1605866D01*
X3219606D02*
X3436142D01*
%TF.MD5,140cae2e78c6ccfa28d58b029785e133*%
M02*
