%TF.GenerationSoftware,Altium Limited,Altium Designer,20.2.5 (213)*%
G04 Layer_Color=255*
%FSLAX26Y26*%
%MOIN*%
%TF.SameCoordinates,9BAFD9CD-774C-4051-972E-F2DD54F50950*%
%TF.FilePolarity,Positive*%
%TF.FileFunction,Pads,Bot*%
%TF.Part,Single*%
G01*
G75*
%TA.AperFunction,ComponentPad*%
%ADD26C,0.060000*%
%ADD27C,0.045276*%
%ADD28R,0.045276X0.045276*%
%ADD29R,0.053150X0.053150*%
%ADD30C,0.053150*%
%ADD31C,0.059370*%
%ADD32R,0.059370X0.059370*%
%ADD33R,0.064961X0.064961*%
%ADD34C,0.064961*%
%ADD35R,0.059843X0.059843*%
%ADD36C,0.059843*%
%ADD37C,0.050000*%
%ADD38R,0.051496X0.051496*%
%ADD39C,0.051496*%
%TA.AperFunction,ViaPad*%
%ADD40C,0.060000*%
D26*
X7825000Y3910000D02*
D03*
X7725000D02*
D03*
X7625000D02*
D03*
X7525000D02*
D03*
X7425000D02*
D03*
X7325000D02*
D03*
X7225000D02*
D03*
X7125000D02*
D03*
X7025000D02*
D03*
X6925000D02*
D03*
X6825000D02*
D03*
X6725000D02*
D03*
X6625000D02*
D03*
X7825000Y2630000D02*
D03*
X7725000D02*
D03*
X7625000D02*
D03*
X7525000D02*
D03*
X7425000D02*
D03*
X7325000D02*
D03*
X7225000D02*
D03*
X7125000D02*
D03*
X7025000D02*
D03*
X6925000D02*
D03*
X6825000D02*
D03*
X6725000D02*
D03*
X6625000D02*
D03*
Y4810000D02*
D03*
X6725000D02*
D03*
X6825000D02*
D03*
X6925000D02*
D03*
X7025000D02*
D03*
X7125000D02*
D03*
X7225000D02*
D03*
X7325000D02*
D03*
X7425000D02*
D03*
X7525000D02*
D03*
X7625000D02*
D03*
Y2275000D02*
D03*
X7525000D02*
D03*
X7425000D02*
D03*
X7325000D02*
D03*
X7225000D02*
D03*
X7125000D02*
D03*
X7025000D02*
D03*
X6925000D02*
D03*
X6825000D02*
D03*
X6725000D02*
D03*
X6625000D02*
D03*
X7625000Y3530000D02*
D03*
X7525000D02*
D03*
X7425000D02*
D03*
X7325000D02*
D03*
X7225000D02*
D03*
X7125000D02*
D03*
X7025000D02*
D03*
X6925000D02*
D03*
X6825000D02*
D03*
X6725000D02*
D03*
X6625000D02*
D03*
Y1375000D02*
D03*
X6725000D02*
D03*
X6825000D02*
D03*
X6925000D02*
D03*
X7025000D02*
D03*
X7125000D02*
D03*
X7225000D02*
D03*
X7325000D02*
D03*
X7425000D02*
D03*
X7525000D02*
D03*
X7625000D02*
D03*
X7725000D02*
D03*
X7825000D02*
D03*
D27*
X1885000Y1408740D02*
D03*
Y1330000D02*
D03*
X1315000Y1348740D02*
D03*
X4785000Y1261260D02*
D03*
X4450000Y5027520D02*
D03*
Y5106260D02*
D03*
X2650000Y1388740D02*
D03*
X5490000Y5085000D02*
D03*
D28*
X1885000Y1251260D02*
D03*
X1315000Y1270000D02*
D03*
X4785000Y1340000D02*
D03*
X4450000Y5185000D02*
D03*
X2650000Y1310000D02*
D03*
X5490000Y5163740D02*
D03*
D29*
X4150000Y1151260D02*
D03*
X2985000Y4692520D02*
D03*
X6160000Y5232480D02*
D03*
X1130000Y4736260D02*
D03*
X3565000Y4687520D02*
D03*
X2335000Y4710000D02*
D03*
X1725000Y4717520D02*
D03*
D30*
X4150000Y1230000D02*
D03*
Y1308740D02*
D03*
Y1387480D02*
D03*
X2985000Y5243702D02*
D03*
Y5164960D02*
D03*
Y5086220D02*
D03*
Y5007480D02*
D03*
Y4928740D02*
D03*
Y4850000D02*
D03*
Y4771260D02*
D03*
X6160000Y4996260D02*
D03*
Y5075000D02*
D03*
Y5153740D02*
D03*
X1130000Y4972480D02*
D03*
Y4893740D02*
D03*
Y4815000D02*
D03*
X3565000Y4766260D02*
D03*
Y4845000D02*
D03*
Y4923740D02*
D03*
Y5002480D02*
D03*
Y5081220D02*
D03*
Y5159960D02*
D03*
Y5238700D02*
D03*
X2335000Y4788740D02*
D03*
Y4867480D02*
D03*
Y4946220D02*
D03*
X1725000Y4796260D02*
D03*
Y4875000D02*
D03*
Y4953740D02*
D03*
D31*
X490000Y2060000D02*
D03*
Y2160000D02*
D03*
X590000Y2060000D02*
D03*
Y2160000D02*
D03*
X690000Y2060000D02*
D03*
Y2160000D02*
D03*
X790000Y2060000D02*
D03*
Y2160000D02*
D03*
X890000Y2060000D02*
D03*
Y2160000D02*
D03*
X990000Y2060000D02*
D03*
Y2160000D02*
D03*
X1090000Y2060000D02*
D03*
Y2160000D02*
D03*
X1190000Y2060000D02*
D03*
Y2160000D02*
D03*
X1290000Y2060000D02*
D03*
Y2160000D02*
D03*
X1390000Y2060000D02*
D03*
Y2160000D02*
D03*
X1490000Y2060000D02*
D03*
Y2160000D02*
D03*
X1590000Y2060000D02*
D03*
Y2160000D02*
D03*
X1690000Y2060000D02*
D03*
Y2160000D02*
D03*
X1790000Y2060000D02*
D03*
Y2160000D02*
D03*
X1890000Y2060000D02*
D03*
Y2160000D02*
D03*
X1990000Y2060000D02*
D03*
Y2160000D02*
D03*
X2090000Y2060000D02*
D03*
Y2160000D02*
D03*
X2190000Y2060000D02*
D03*
Y2160000D02*
D03*
X2290000Y2060000D02*
D03*
Y2160000D02*
D03*
X2390000Y2060000D02*
D03*
Y2160000D02*
D03*
X2490000Y2060000D02*
D03*
Y2160000D02*
D03*
X2590000Y2060000D02*
D03*
Y2160000D02*
D03*
X2690000Y2060000D02*
D03*
Y2160000D02*
D03*
X2790000Y2060000D02*
D03*
Y2160000D02*
D03*
X2890000Y2060000D02*
D03*
X490000Y4060000D02*
D03*
Y4160000D02*
D03*
X590000Y4060000D02*
D03*
Y4160000D02*
D03*
X690000Y4060000D02*
D03*
Y4160000D02*
D03*
X790000Y4060000D02*
D03*
Y4160000D02*
D03*
X890000Y4060000D02*
D03*
Y4160000D02*
D03*
X990000Y4060000D02*
D03*
Y4160000D02*
D03*
X1090000Y4060000D02*
D03*
Y4160000D02*
D03*
X1190000Y4060000D02*
D03*
Y4160000D02*
D03*
X1290000Y4060000D02*
D03*
Y4160000D02*
D03*
X1390000Y4060000D02*
D03*
Y4160000D02*
D03*
X1490000Y4060000D02*
D03*
Y4160000D02*
D03*
X1590000Y4060000D02*
D03*
Y4160000D02*
D03*
X1690000Y4060000D02*
D03*
Y4160000D02*
D03*
X1790000Y4060000D02*
D03*
Y4160000D02*
D03*
X1890000Y4060000D02*
D03*
Y4160000D02*
D03*
X1990000Y4060000D02*
D03*
Y4160000D02*
D03*
X2090000Y4060000D02*
D03*
Y4160000D02*
D03*
X2190000Y4060000D02*
D03*
Y4160000D02*
D03*
X2290000Y4060000D02*
D03*
Y4160000D02*
D03*
X2390000Y4060000D02*
D03*
Y4160000D02*
D03*
X2490000Y4060000D02*
D03*
Y4160000D02*
D03*
X2590000Y4060000D02*
D03*
Y4160000D02*
D03*
X2690000Y4060000D02*
D03*
Y4160000D02*
D03*
X2790000Y4060000D02*
D03*
Y4160000D02*
D03*
X2890000Y4060000D02*
D03*
D32*
Y2160000D02*
D03*
Y4160000D02*
D03*
D33*
X6185000Y1185000D02*
D03*
X5915000Y1295000D02*
D03*
X5615000Y1180000D02*
D03*
D34*
X6185000Y1285000D02*
D03*
X5915000Y1195000D02*
D03*
X5615000Y1280000D02*
D03*
D35*
X710000Y1450000D02*
D03*
D36*
Y1568110D02*
D03*
D37*
X632834Y1331890D02*
D03*
Y1686220D02*
D03*
D38*
X3320000Y1127520D02*
D03*
D39*
Y1206260D02*
D03*
Y1285000D02*
D03*
Y1363740D02*
D03*
Y1442480D02*
D03*
Y1521220D02*
D03*
D40*
X830000Y900000D02*
D03*
X7620000D02*
D03*
X7625000Y5220000D02*
D03*
X830000D02*
D03*
%TF.MD5,96ab9ff78080871e136fe8a7b9295c8c*%
M02*
