%TF.GenerationSoftware,Altium Limited,Altium Designer,20.2.5 (213)*%
G04 Layer_Color=65535*
%FSLAX26Y26*%
%MOIN*%
%TF.SameCoordinates,9BAFD9CD-774C-4051-972E-F2DD54F50950*%
%TF.FilePolarity,Positive*%
%TF.FileFunction,Other,Mechanical_3*%
%TF.Part,Single*%
G01*
G75*
%TA.AperFunction,NonConductor*%
%ADD75C,0.004000*%
G36*
X5946500Y5269250D02*
X5932000D01*
Y5300750D01*
X5946500D01*
Y5269250D01*
D02*
G37*
G36*
X5898000D02*
X5883500D01*
Y5300750D01*
X5898000D01*
Y5269250D01*
D02*
G37*
G36*
X4031500Y5259250D02*
X4017000D01*
Y5290750D01*
X4031500D01*
Y5259250D01*
D02*
G37*
G36*
X3983000D02*
X3968500D01*
Y5290750D01*
X3983000D01*
Y5259250D01*
D02*
G37*
G36*
X3366500Y5224250D02*
X3352000D01*
Y5255750D01*
X3366500D01*
Y5224250D01*
D02*
G37*
G36*
X3318000D02*
X3303500D01*
Y5255750D01*
X3318000D01*
Y5224250D01*
D02*
G37*
G36*
X5941500Y5139250D02*
X5927000D01*
Y5170750D01*
X5941500D01*
Y5139250D01*
D02*
G37*
G36*
X5893000D02*
X5878500D01*
Y5170750D01*
X5893000D01*
Y5139250D01*
D02*
G37*
G36*
X3310750Y5047000D02*
X3279250D01*
Y5061500D01*
X3310750D01*
Y5047000D01*
D02*
G37*
G36*
X3190750D02*
X3159250D01*
Y5061500D01*
X3190750D01*
Y5047000D01*
D02*
G37*
G36*
X5845750Y5042000D02*
X5814250D01*
Y5056500D01*
X5845750D01*
Y5042000D01*
D02*
G37*
G36*
X5990750Y5037000D02*
X5959250D01*
Y5051500D01*
X5990750D01*
Y5037000D01*
D02*
G37*
G36*
X4090750Y5032000D02*
X4059250D01*
Y5046500D01*
X4090750D01*
Y5032000D01*
D02*
G37*
G36*
X3950750D02*
X3919250D01*
Y5046500D01*
X3950750D01*
Y5032000D01*
D02*
G37*
G36*
X3310750Y4998500D02*
X3279250D01*
Y5013000D01*
X3310750D01*
Y4998500D01*
D02*
G37*
G36*
X3190750D02*
X3159250D01*
Y5013000D01*
X3190750D01*
Y4998500D01*
D02*
G37*
G36*
X5845750Y4993500D02*
X5814250D01*
Y5008000D01*
X5845750D01*
Y4993500D01*
D02*
G37*
G36*
X5990750Y4988500D02*
X5959250D01*
Y5003000D01*
X5990750D01*
Y4988500D01*
D02*
G37*
G36*
X4090750Y4983500D02*
X4059250D01*
Y4998000D01*
X4090750D01*
Y4983500D01*
D02*
G37*
G36*
X3950750D02*
X3919250D01*
Y4998000D01*
X3950750D01*
Y4983500D01*
D02*
G37*
G36*
X2055750Y4937000D02*
X2024250D01*
Y4951500D01*
X2055750D01*
Y4937000D01*
D02*
G37*
G36*
X1925750D02*
X1894250D01*
Y4951500D01*
X1925750D01*
Y4937000D01*
D02*
G37*
G36*
X2680750Y4932000D02*
X2649250D01*
Y4946500D01*
X2680750D01*
Y4932000D01*
D02*
G37*
G36*
X2535750D02*
X2504250D01*
Y4946500D01*
X2535750D01*
Y4932000D01*
D02*
G37*
G36*
X2055750Y4888500D02*
X2024250D01*
Y4903000D01*
X2055750D01*
Y4888500D01*
D02*
G37*
G36*
X1925750D02*
X1894250D01*
Y4903000D01*
X1925750D01*
Y4888500D01*
D02*
G37*
G36*
X2680750Y4883500D02*
X2649250D01*
Y4898000D01*
X2680750D01*
Y4883500D01*
D02*
G37*
G36*
X2535750D02*
X2504250D01*
Y4898000D01*
X2535750D01*
Y4883500D01*
D02*
G37*
G36*
X5521500Y4869250D02*
X5507000D01*
Y4900750D01*
X5521500D01*
Y4869250D01*
D02*
G37*
G36*
X5473000D02*
X5458500D01*
Y4900750D01*
X5473000D01*
Y4869250D01*
D02*
G37*
G36*
X7635000Y4800000D02*
X7615000D01*
Y4820000D01*
X7635000D01*
Y4800000D01*
D02*
G37*
G36*
X7535000D02*
X7515000D01*
Y4820000D01*
X7535000D01*
Y4800000D01*
D02*
G37*
G36*
X7435000D02*
X7415000D01*
Y4820000D01*
X7435000D01*
Y4800000D01*
D02*
G37*
G36*
X7335000D02*
X7315000D01*
Y4820000D01*
X7335000D01*
Y4800000D01*
D02*
G37*
G36*
X7235000D02*
X7215000D01*
Y4820000D01*
X7235000D01*
Y4800000D01*
D02*
G37*
G36*
X7135000D02*
X7115000D01*
Y4820000D01*
X7135000D01*
Y4800000D01*
D02*
G37*
G36*
X7035000D02*
X7015000D01*
Y4820000D01*
X7035000D01*
Y4800000D01*
D02*
G37*
G36*
X6935000D02*
X6915000D01*
Y4820000D01*
X6935000D01*
Y4800000D01*
D02*
G37*
G36*
X6835000D02*
X6815000D01*
Y4820000D01*
X6835000D01*
Y4800000D01*
D02*
G37*
G36*
X6735000D02*
X6715000D01*
Y4820000D01*
X6735000D01*
Y4800000D01*
D02*
G37*
G36*
X6635000D02*
X6615000D01*
Y4820000D01*
X6635000D01*
Y4800000D01*
D02*
G37*
G36*
X2601500Y4764250D02*
X2587000D01*
Y4795750D01*
X2601500D01*
Y4764250D01*
D02*
G37*
G36*
X2553000D02*
X2538500D01*
Y4795750D01*
X2553000D01*
Y4764250D01*
D02*
G37*
G36*
X1996500Y4749250D02*
X1982000D01*
Y4780750D01*
X1996500D01*
Y4749250D01*
D02*
G37*
G36*
X1948000D02*
X1933500D01*
Y4780750D01*
X1948000D01*
Y4749250D01*
D02*
G37*
G36*
X3940750Y4737000D02*
X3909250D01*
Y4751500D01*
X3940750D01*
Y4737000D01*
D02*
G37*
G36*
X3780750D02*
X3749250D01*
Y4751500D01*
X3780750D01*
Y4737000D01*
D02*
G37*
G36*
X1470750Y4717000D02*
X1439250D01*
Y4731500D01*
X1470750D01*
Y4717000D01*
D02*
G37*
G36*
X1335750D02*
X1304250D01*
Y4731500D01*
X1335750D01*
Y4717000D01*
D02*
G37*
G36*
X3940750Y4688500D02*
X3909250D01*
Y4703000D01*
X3940750D01*
Y4688500D01*
D02*
G37*
G36*
X3780750D02*
X3749250D01*
Y4703000D01*
X3780750D01*
Y4688500D01*
D02*
G37*
G36*
X1470750Y4668500D02*
X1439250D01*
Y4683000D01*
X1470750D01*
Y4668500D01*
D02*
G37*
G36*
X1335750D02*
X1304250D01*
Y4683000D01*
X1335750D01*
Y4668500D01*
D02*
G37*
G36*
X7245750Y4647000D02*
X7214250D01*
Y4661500D01*
X7245750D01*
Y4647000D01*
D02*
G37*
G36*
X7160750D02*
X7129250D01*
Y4661500D01*
X7160750D01*
Y4647000D01*
D02*
G37*
G36*
X7040750Y4642000D02*
X7009250D01*
Y4656500D01*
X7040750D01*
Y4642000D01*
D02*
G37*
G36*
X6935750D02*
X6904250D01*
Y4656500D01*
X6935750D01*
Y4642000D01*
D02*
G37*
G36*
X2006500Y4639250D02*
X1992000D01*
Y4670750D01*
X2006500D01*
Y4639250D01*
D02*
G37*
G36*
X1958000D02*
X1943500D01*
Y4670750D01*
X1958000D01*
Y4639250D01*
D02*
G37*
G36*
X2601500Y4604250D02*
X2587000D01*
Y4635750D01*
X2601500D01*
Y4604250D01*
D02*
G37*
G36*
X2553000D02*
X2538500D01*
Y4635750D01*
X2553000D01*
Y4604250D01*
D02*
G37*
G36*
X7245750Y4598500D02*
X7214250D01*
Y4613000D01*
X7245750D01*
Y4598500D01*
D02*
G37*
G36*
X7160750D02*
X7129250D01*
Y4613000D01*
X7160750D01*
Y4598500D01*
D02*
G37*
G36*
X7040750Y4593500D02*
X7009250D01*
Y4608000D01*
X7040750D01*
Y4593500D01*
D02*
G37*
G36*
X6935750D02*
X6904250D01*
Y4608000D01*
X6935750D01*
Y4593500D01*
D02*
G37*
G36*
X6545750Y4222000D02*
X6514250D01*
Y4236500D01*
X6545750D01*
Y4222000D01*
D02*
G37*
G36*
X6450750D02*
X6419250D01*
Y4236500D01*
X6450750D01*
Y4222000D01*
D02*
G37*
G36*
X6545750Y4173500D02*
X6514250D01*
Y4188000D01*
X6545750D01*
Y4173500D01*
D02*
G37*
G36*
X6450750D02*
X6419250D01*
Y4188000D01*
X6450750D01*
Y4173500D01*
D02*
G37*
G36*
X6846500Y4029250D02*
X6832000D01*
Y4060750D01*
X6846500D01*
Y4029250D01*
D02*
G37*
G36*
X6798000D02*
X6783500D01*
Y4060750D01*
X6798000D01*
Y4029250D01*
D02*
G37*
G36*
X4645750Y3922000D02*
X4614250D01*
Y3936500D01*
X4645750D01*
Y3922000D01*
D02*
G37*
G36*
X4895750Y3917000D02*
X4864250D01*
Y3931500D01*
X4895750D01*
Y3917000D01*
D02*
G37*
G36*
X5135750Y3912000D02*
X5104250D01*
Y3926500D01*
X5135750D01*
Y3912000D01*
D02*
G37*
G36*
X7835000Y3900000D02*
X7815000D01*
Y3920000D01*
X7835000D01*
Y3900000D01*
D02*
G37*
G36*
X7735000D02*
X7715000D01*
Y3920000D01*
X7735000D01*
Y3900000D01*
D02*
G37*
G36*
X7635000D02*
X7615000D01*
Y3920000D01*
X7635000D01*
Y3900000D01*
D02*
G37*
G36*
X7535000D02*
X7515000D01*
Y3920000D01*
X7535000D01*
Y3900000D01*
D02*
G37*
G36*
X7435000D02*
X7415000D01*
Y3920000D01*
X7435000D01*
Y3900000D01*
D02*
G37*
G36*
X7335000D02*
X7315000D01*
Y3920000D01*
X7335000D01*
Y3900000D01*
D02*
G37*
G36*
X7235000D02*
X7215000D01*
Y3920000D01*
X7235000D01*
Y3900000D01*
D02*
G37*
G36*
X7135000D02*
X7115000D01*
Y3920000D01*
X7135000D01*
Y3900000D01*
D02*
G37*
G36*
X7035000D02*
X7015000D01*
Y3920000D01*
X7035000D01*
Y3900000D01*
D02*
G37*
G36*
X6935000D02*
X6915000D01*
Y3920000D01*
X6935000D01*
Y3900000D01*
D02*
G37*
G36*
X6835000D02*
X6815000D01*
Y3920000D01*
X6835000D01*
Y3900000D01*
D02*
G37*
G36*
X6735000D02*
X6715000D01*
Y3920000D01*
X6735000D01*
Y3900000D01*
D02*
G37*
G36*
X6635000D02*
X6615000D01*
Y3920000D01*
X6635000D01*
Y3900000D01*
D02*
G37*
G36*
X4645750Y3873500D02*
X4614250D01*
Y3888000D01*
X4645750D01*
Y3873500D01*
D02*
G37*
G36*
X4895750Y3868500D02*
X4864250D01*
Y3883000D01*
X4895750D01*
Y3868500D01*
D02*
G37*
G36*
X5135750Y3863500D02*
X5104250D01*
Y3878000D01*
X5135750D01*
Y3863500D01*
D02*
G37*
G36*
X4885750Y3572000D02*
X4854250D01*
Y3586500D01*
X4885750D01*
Y3572000D01*
D02*
G37*
G36*
X4635750D02*
X4604250D01*
Y3586500D01*
X4635750D01*
Y3572000D01*
D02*
G37*
G36*
X4885750Y3523500D02*
X4854250D01*
Y3538000D01*
X4885750D01*
Y3523500D01*
D02*
G37*
G36*
X4635750D02*
X4604250D01*
Y3538000D01*
X4635750D01*
Y3523500D01*
D02*
G37*
G36*
X7635000Y3520000D02*
X7615000D01*
Y3540000D01*
X7635000D01*
Y3520000D01*
D02*
G37*
G36*
X7535000D02*
X7515000D01*
Y3540000D01*
X7535000D01*
Y3520000D01*
D02*
G37*
G36*
X7435000D02*
X7415000D01*
Y3540000D01*
X7435000D01*
Y3520000D01*
D02*
G37*
G36*
X7335000D02*
X7315000D01*
Y3540000D01*
X7335000D01*
Y3520000D01*
D02*
G37*
G36*
X7235000D02*
X7215000D01*
Y3540000D01*
X7235000D01*
Y3520000D01*
D02*
G37*
G36*
X7135000D02*
X7115000D01*
Y3540000D01*
X7135000D01*
Y3520000D01*
D02*
G37*
G36*
X7035000D02*
X7015000D01*
Y3540000D01*
X7035000D01*
Y3520000D01*
D02*
G37*
G36*
X6935000D02*
X6915000D01*
Y3540000D01*
X6935000D01*
Y3520000D01*
D02*
G37*
G36*
X6835000D02*
X6815000D01*
Y3540000D01*
X6835000D01*
Y3520000D01*
D02*
G37*
G36*
X6735000D02*
X6715000D01*
Y3540000D01*
X6735000D01*
Y3520000D01*
D02*
G37*
G36*
X6635000D02*
X6615000D01*
Y3540000D01*
X6635000D01*
Y3520000D01*
D02*
G37*
G36*
X7030750Y3407000D02*
X6999250D01*
Y3421500D01*
X7030750D01*
Y3407000D01*
D02*
G37*
G36*
X6895750D02*
X6864250D01*
Y3421500D01*
X6895750D01*
Y3407000D01*
D02*
G37*
G36*
X7395750Y3387000D02*
X7364250D01*
Y3401500D01*
X7395750D01*
Y3387000D01*
D02*
G37*
G36*
X7265750Y3377000D02*
X7234250D01*
Y3391500D01*
X7265750D01*
Y3377000D01*
D02*
G37*
G36*
X7030750Y3358500D02*
X6999250D01*
Y3373000D01*
X7030750D01*
Y3358500D01*
D02*
G37*
G36*
X6895750D02*
X6864250D01*
Y3373000D01*
X6895750D01*
Y3358500D01*
D02*
G37*
G36*
X7395750Y3338500D02*
X7364250D01*
Y3353000D01*
X7395750D01*
Y3338500D01*
D02*
G37*
G36*
X7265750Y3328500D02*
X7234250D01*
Y3343000D01*
X7265750D01*
Y3328500D01*
D02*
G37*
G36*
X6826500Y2999250D02*
X6812000D01*
Y3030750D01*
X6826500D01*
Y2999250D01*
D02*
G37*
G36*
X6778000D02*
X6763500D01*
Y3030750D01*
X6778000D01*
Y2999250D01*
D02*
G37*
G36*
X6620750Y2917000D02*
X6589250D01*
Y2931500D01*
X6620750D01*
Y2917000D01*
D02*
G37*
G36*
X6530750D02*
X6499250D01*
Y2931500D01*
X6530750D01*
Y2917000D01*
D02*
G37*
G36*
X6620750Y2868500D02*
X6589250D01*
Y2883000D01*
X6620750D01*
Y2868500D01*
D02*
G37*
G36*
X6530750D02*
X6499250D01*
Y2883000D01*
X6530750D01*
Y2868500D01*
D02*
G37*
G36*
X7835000Y2620000D02*
X7815000D01*
Y2640000D01*
X7835000D01*
Y2620000D01*
D02*
G37*
G36*
X7735000D02*
X7715000D01*
Y2640000D01*
X7735000D01*
Y2620000D01*
D02*
G37*
G36*
X7635000D02*
X7615000D01*
Y2640000D01*
X7635000D01*
Y2620000D01*
D02*
G37*
G36*
X7535000D02*
X7515000D01*
Y2640000D01*
X7535000D01*
Y2620000D01*
D02*
G37*
G36*
X7435000D02*
X7415000D01*
Y2640000D01*
X7435000D01*
Y2620000D01*
D02*
G37*
G36*
X7335000D02*
X7315000D01*
Y2640000D01*
X7335000D01*
Y2620000D01*
D02*
G37*
G36*
X7235000D02*
X7215000D01*
Y2640000D01*
X7235000D01*
Y2620000D01*
D02*
G37*
G36*
X7135000D02*
X7115000D01*
Y2640000D01*
X7135000D01*
Y2620000D01*
D02*
G37*
G36*
X7035000D02*
X7015000D01*
Y2640000D01*
X7035000D01*
Y2620000D01*
D02*
G37*
G36*
X6935000D02*
X6915000D01*
Y2640000D01*
X6935000D01*
Y2620000D01*
D02*
G37*
G36*
X6835000D02*
X6815000D01*
Y2640000D01*
X6835000D01*
Y2620000D01*
D02*
G37*
G36*
X6735000D02*
X6715000D01*
Y2640000D01*
X6735000D01*
Y2620000D01*
D02*
G37*
G36*
X6635000D02*
X6615000D01*
Y2640000D01*
X6635000D01*
Y2620000D01*
D02*
G37*
G36*
X5335750Y2342000D02*
X5304250D01*
Y2356500D01*
X5335750D01*
Y2342000D01*
D02*
G37*
G36*
X5081500Y2339250D02*
X5067000D01*
Y2370750D01*
X5081500D01*
Y2339250D01*
D02*
G37*
G36*
X5033000D02*
X5018500D01*
Y2370750D01*
X5033000D01*
Y2339250D01*
D02*
G37*
G36*
X4926500D02*
X4912000D01*
Y2370750D01*
X4926500D01*
Y2339250D01*
D02*
G37*
G36*
X4878000D02*
X4863500D01*
Y2370750D01*
X4878000D01*
Y2339250D01*
D02*
G37*
G36*
X5465750Y2337000D02*
X5434250D01*
Y2351500D01*
X5465750D01*
Y2337000D01*
D02*
G37*
G36*
X5205750D02*
X5174250D01*
Y2351500D01*
X5205750D01*
Y2337000D01*
D02*
G37*
G36*
X5335750Y2293500D02*
X5304250D01*
Y2308000D01*
X5335750D01*
Y2293500D01*
D02*
G37*
G36*
X5465750Y2288500D02*
X5434250D01*
Y2303000D01*
X5465750D01*
Y2288500D01*
D02*
G37*
G36*
X5205750D02*
X5174250D01*
Y2303000D01*
X5205750D01*
Y2288500D01*
D02*
G37*
G36*
X7635000Y2265000D02*
X7615000D01*
Y2285000D01*
X7635000D01*
Y2265000D01*
D02*
G37*
G36*
X7535000D02*
X7515000D01*
Y2285000D01*
X7535000D01*
Y2265000D01*
D02*
G37*
G36*
X7435000D02*
X7415000D01*
Y2285000D01*
X7435000D01*
Y2265000D01*
D02*
G37*
G36*
X7335000D02*
X7315000D01*
Y2285000D01*
X7335000D01*
Y2265000D01*
D02*
G37*
G36*
X7235000D02*
X7215000D01*
Y2285000D01*
X7235000D01*
Y2265000D01*
D02*
G37*
G36*
X7135000D02*
X7115000D01*
Y2285000D01*
X7135000D01*
Y2265000D01*
D02*
G37*
G36*
X7035000D02*
X7015000D01*
Y2285000D01*
X7035000D01*
Y2265000D01*
D02*
G37*
G36*
X6935000D02*
X6915000D01*
Y2285000D01*
X6935000D01*
Y2265000D01*
D02*
G37*
G36*
X6835000D02*
X6815000D01*
Y2285000D01*
X6835000D01*
Y2265000D01*
D02*
G37*
G36*
X6735000D02*
X6715000D01*
Y2285000D01*
X6735000D01*
Y2265000D01*
D02*
G37*
G36*
X6635000D02*
X6615000D01*
Y2285000D01*
X6635000D01*
Y2265000D01*
D02*
G37*
G36*
X5117990Y2218500D02*
X5090440D01*
Y2281500D01*
X5117990D01*
Y2218500D01*
D02*
G37*
G36*
X5019570D02*
X4992010D01*
Y2281500D01*
X5019570D01*
Y2218500D01*
D02*
G37*
G36*
X6795750Y2117000D02*
X6764250D01*
Y2131500D01*
X6795750D01*
Y2117000D01*
D02*
G37*
G36*
X6640750D02*
X6609250D01*
Y2131500D01*
X6640750D01*
Y2117000D01*
D02*
G37*
G36*
X7350750Y2097000D02*
X7319250D01*
Y2111500D01*
X7350750D01*
Y2097000D01*
D02*
G37*
G36*
X7225750D02*
X7194250D01*
Y2111500D01*
X7225750D01*
Y2097000D01*
D02*
G37*
G36*
X6795750Y2068500D02*
X6764250D01*
Y2083000D01*
X6795750D01*
Y2068500D01*
D02*
G37*
G36*
X6640750D02*
X6609250D01*
Y2083000D01*
X6640750D01*
Y2068500D01*
D02*
G37*
G36*
X7350750Y2048500D02*
X7319250D01*
Y2063000D01*
X7350750D01*
Y2048500D01*
D02*
G37*
G36*
X7225750D02*
X7194250D01*
Y2063000D01*
X7225750D01*
Y2048500D01*
D02*
G37*
G36*
X7076500Y2029250D02*
X7062000D01*
Y2060750D01*
X7076500D01*
Y2029250D01*
D02*
G37*
G36*
X7028000D02*
X7013500D01*
Y2060750D01*
X7028000D01*
Y2029250D01*
D02*
G37*
G36*
X6926500D02*
X6912000D01*
Y2060750D01*
X6926500D01*
Y2029250D01*
D02*
G37*
G36*
X6878000D02*
X6863500D01*
Y2060750D01*
X6878000D01*
Y2029250D01*
D02*
G37*
G36*
X6890750Y1862000D02*
X6859250D01*
Y1876500D01*
X6890750D01*
Y1862000D01*
D02*
G37*
G36*
Y1813500D02*
X6859250D01*
Y1828000D01*
X6890750D01*
Y1813500D01*
D02*
G37*
G36*
X2176500Y1574250D02*
X2162000D01*
Y1605750D01*
X2176500D01*
Y1574250D01*
D02*
G37*
G36*
X2128000D02*
X2113500D01*
Y1605750D01*
X2128000D01*
Y1574250D01*
D02*
G37*
G36*
X1551500Y1554250D02*
X1537000D01*
Y1585750D01*
X1551500D01*
Y1554250D01*
D02*
G37*
G36*
X1503000D02*
X1488500D01*
Y1585750D01*
X1503000D01*
Y1554250D01*
D02*
G37*
G36*
X1012990Y1533500D02*
X985440D01*
Y1596500D01*
X1012990D01*
Y1533500D01*
D02*
G37*
G36*
X914570D02*
X887010D01*
Y1596500D01*
X914570D01*
Y1533500D01*
D02*
G37*
G36*
X3540750Y1492000D02*
X3509250D01*
Y1506500D01*
X3540750D01*
Y1492000D01*
D02*
G37*
G36*
X3655750Y1487000D02*
X3624250D01*
Y1501500D01*
X3655750D01*
Y1487000D01*
D02*
G37*
G36*
X3540750Y1443500D02*
X3509250D01*
Y1458000D01*
X3540750D01*
Y1443500D01*
D02*
G37*
G36*
X3655750Y1438500D02*
X3624250D01*
Y1453000D01*
X3655750D01*
Y1438500D01*
D02*
G37*
G36*
X3980750Y1392000D02*
X3949250D01*
Y1406500D01*
X3980750D01*
Y1392000D01*
D02*
G37*
G36*
X3855750D02*
X3824250D01*
Y1406500D01*
X3855750D01*
Y1392000D01*
D02*
G37*
G36*
X2215750Y1382000D02*
X2184250D01*
Y1396500D01*
X2215750D01*
Y1382000D01*
D02*
G37*
G36*
X2090750D02*
X2059250D01*
Y1396500D01*
X2090750D01*
Y1382000D01*
D02*
G37*
G36*
X7835000Y1365000D02*
X7815000D01*
Y1385000D01*
X7835000D01*
Y1365000D01*
D02*
G37*
G36*
X7735000D02*
X7715000D01*
Y1385000D01*
X7735000D01*
Y1365000D01*
D02*
G37*
G36*
X7635000D02*
X7615000D01*
Y1385000D01*
X7635000D01*
Y1365000D01*
D02*
G37*
G36*
X7535000D02*
X7515000D01*
Y1385000D01*
X7535000D01*
Y1365000D01*
D02*
G37*
G36*
X7435000D02*
X7415000D01*
Y1385000D01*
X7435000D01*
Y1365000D01*
D02*
G37*
G36*
X7335000D02*
X7315000D01*
Y1385000D01*
X7335000D01*
Y1365000D01*
D02*
G37*
G36*
X7235000D02*
X7215000D01*
Y1385000D01*
X7235000D01*
Y1365000D01*
D02*
G37*
G36*
X7135000D02*
X7115000D01*
Y1385000D01*
X7135000D01*
Y1365000D01*
D02*
G37*
G36*
X7035000D02*
X7015000D01*
Y1385000D01*
X7035000D01*
Y1365000D01*
D02*
G37*
G36*
X6935000D02*
X6915000D01*
Y1385000D01*
X6935000D01*
Y1365000D01*
D02*
G37*
G36*
X6835000D02*
X6815000D01*
Y1385000D01*
X6835000D01*
Y1365000D01*
D02*
G37*
G36*
X6735000D02*
X6715000D01*
Y1385000D01*
X6735000D01*
Y1365000D01*
D02*
G37*
G36*
X6635000D02*
X6615000D01*
Y1385000D01*
X6635000D01*
Y1365000D01*
D02*
G37*
G36*
X3075750Y1352000D02*
X3044250D01*
Y1366500D01*
X3075750D01*
Y1352000D01*
D02*
G37*
G36*
X2950750D02*
X2919250D01*
Y1366500D01*
X2950750D01*
Y1352000D01*
D02*
G37*
G36*
X3980750Y1343500D02*
X3949250D01*
Y1358000D01*
X3980750D01*
Y1343500D01*
D02*
G37*
G36*
X3855750D02*
X3824250D01*
Y1358000D01*
X3855750D01*
Y1343500D01*
D02*
G37*
G36*
X2215750Y1333500D02*
X2184250D01*
Y1348000D01*
X2215750D01*
Y1333500D01*
D02*
G37*
G36*
X2090750D02*
X2059250D01*
Y1348000D01*
X2090750D01*
Y1333500D01*
D02*
G37*
G36*
X4440750Y1312000D02*
X4409250D01*
Y1326500D01*
X4440750D01*
Y1312000D01*
D02*
G37*
G36*
X3075750Y1303500D02*
X3044250D01*
Y1318000D01*
X3075750D01*
Y1303500D01*
D02*
G37*
G36*
X2950750D02*
X2919250D01*
Y1318000D01*
X2950750D01*
Y1303500D01*
D02*
G37*
G36*
X4440750Y1263500D02*
X4409250D01*
Y1278000D01*
X4440750D01*
Y1263500D01*
D02*
G37*
G36*
X1000750Y1237000D02*
X969250D01*
Y1251500D01*
X1000750D01*
Y1237000D01*
D02*
G37*
G36*
Y1188500D02*
X969250D01*
Y1203000D01*
X1000750D01*
Y1188500D01*
D02*
G37*
G36*
X1520750Y1152000D02*
X1489250D01*
Y1166500D01*
X1520750D01*
Y1152000D01*
D02*
G37*
G36*
Y1103500D02*
X1489250D01*
Y1118000D01*
X1520750D01*
Y1103500D01*
D02*
G37*
D75*
X5013060Y2278060D02*
X5096440D01*
X5013060Y2221940D02*
X5096440D01*
X7322950Y2062990D02*
Y2097010D01*
X7347050Y2062990D02*
Y2097010D01*
X7197950Y2062990D02*
Y2097010D01*
X7222050Y2062990D02*
Y2097010D01*
X6612950Y2082990D02*
Y2117010D01*
X6637050Y2082990D02*
Y2117010D01*
X6767950Y2082990D02*
Y2117010D01*
X6792050Y2082990D02*
Y2117010D01*
X6867950Y3372990D02*
Y3407010D01*
X6892050Y3372990D02*
Y3407010D01*
X7002950Y3372990D02*
Y3407010D01*
X7027050Y3372990D02*
Y3407010D01*
X7367950Y3352990D02*
Y3387010D01*
X7392050Y3352990D02*
Y3387010D01*
X7237950Y3342990D02*
Y3377010D01*
X7262050Y3342990D02*
Y3377010D01*
X7217950Y4612990D02*
Y4647010D01*
X7242050Y4612990D02*
Y4647010D01*
X7132950Y4612990D02*
Y4647010D01*
X7157050Y4612990D02*
Y4647010D01*
X7012950Y4607990D02*
Y4642010D01*
X7037050Y4607990D02*
Y4642010D01*
X6907950Y4607990D02*
Y4642010D01*
X6932050Y4607990D02*
Y4642010D01*
X1502990Y1557950D02*
X1537010D01*
X1502990Y1582050D02*
X1537010D01*
X1517050Y1117990D02*
Y1152010D01*
X1492950Y1117990D02*
Y1152010D01*
X4412950Y1277990D02*
Y1312010D01*
X4437050Y1277990D02*
Y1312010D01*
X3977050Y1357990D02*
Y1392010D01*
X3952950Y1357990D02*
Y1392010D01*
X3827950Y1357990D02*
Y1392010D01*
X3852050Y1357990D02*
Y1392010D01*
X997050Y1202990D02*
Y1237010D01*
X972950Y1202990D02*
Y1237010D01*
X908060Y1536940D02*
X991440D01*
X908060Y1593060D02*
X991440D01*
X4882050Y3537990D02*
Y3572010D01*
X4857950Y3537990D02*
Y3572010D01*
X4632050Y3537990D02*
Y3572010D01*
X4607950Y3537990D02*
Y3572010D01*
X4892050Y3882990D02*
Y3917010D01*
X4867950Y3882990D02*
Y3917010D01*
X4642050Y3887990D02*
Y3922010D01*
X4617950Y3887990D02*
Y3922010D01*
X5817950Y5007990D02*
Y5042010D01*
X5842050Y5007990D02*
Y5042010D01*
X5962950Y5002990D02*
Y5037010D01*
X5987050Y5002990D02*
Y5037010D01*
X5892990Y5142950D02*
X5927010D01*
X5892990Y5167050D02*
X5927010D01*
X5897990Y5272950D02*
X5932010D01*
X5897990Y5297050D02*
X5932010D01*
X4062950Y4997990D02*
Y5032010D01*
X4087050Y4997990D02*
Y5032010D01*
X3922950Y4997990D02*
Y5032010D01*
X3947050Y4997990D02*
Y5032010D01*
X1467050Y4682990D02*
Y4717010D01*
X1442950Y4682990D02*
Y4717010D01*
X1332050Y4682990D02*
Y4717010D01*
X1307950Y4682990D02*
Y4717010D01*
X3752950Y4702990D02*
Y4737010D01*
X3777050Y4702990D02*
Y4737010D01*
X3912950Y4702990D02*
Y4737010D01*
X3937050Y4702990D02*
Y4737010D01*
X3627950Y1452990D02*
Y1487010D01*
X3652050Y1452990D02*
Y1487010D01*
X3512950Y1457990D02*
Y1492010D01*
X3537050Y1457990D02*
Y1492010D01*
X3317990Y5227950D02*
X3352010D01*
X3317990Y5252050D02*
X3352010D01*
X3982990Y5262950D02*
X4017010D01*
X3982990Y5287050D02*
X4017010D01*
X2552990Y4607950D02*
X2587010D01*
X2552990Y4632050D02*
X2587010D01*
X2552990Y4767950D02*
X2587010D01*
X2552990Y4792050D02*
X2587010D01*
X2507950Y4897990D02*
Y4932010D01*
X2532050Y4897990D02*
Y4932010D01*
X2652950Y4897990D02*
Y4932010D01*
X2677050Y4897990D02*
Y4932010D01*
X2027950Y4902990D02*
Y4937010D01*
X2052050Y4902990D02*
Y4937010D01*
X1897950Y4902990D02*
Y4937010D01*
X1922050Y4902990D02*
Y4937010D01*
X1947990Y4752950D02*
X1982010D01*
X1947990Y4777050D02*
X1982010D01*
X1957990Y4667050D02*
X1992010D01*
X1957990Y4642950D02*
X1992010D01*
X5472990Y4872950D02*
X5507010D01*
X5472990Y4897050D02*
X5507010D01*
X2127990Y1602050D02*
X2162010D01*
X2127990Y1577950D02*
X2162010D01*
X2062950Y1347990D02*
Y1382010D01*
X2087050Y1347990D02*
Y1382010D01*
X2187950Y1347990D02*
Y1382010D01*
X2212050Y1347990D02*
Y1382010D01*
X5032990Y2342950D02*
X5067010D01*
X5032990Y2367050D02*
X5067010D01*
X4877990D02*
X4912010D01*
X4877990Y2342950D02*
X4912010D01*
X5202050Y2302990D02*
Y2337010D01*
X5177950Y2302990D02*
Y2337010D01*
X5332050Y2307990D02*
Y2342010D01*
X5307950Y2307990D02*
Y2342010D01*
X5462050Y2302990D02*
Y2337010D01*
X5437950Y2302990D02*
Y2337010D01*
X6877990Y2057050D02*
X6912010D01*
X6877990Y2032950D02*
X6912010D01*
X7027990Y2057050D02*
X7062010D01*
X7027990Y2032950D02*
X7062010D01*
X6887050Y1827990D02*
Y1862010D01*
X6862950Y1827990D02*
Y1862010D01*
X6502950Y2882990D02*
Y2917010D01*
X6527050Y2882990D02*
Y2917010D01*
X6592950Y2882990D02*
Y2917010D01*
X6617050Y2882990D02*
Y2917010D01*
X6777990Y3027050D02*
X6812010D01*
X6777990Y3002950D02*
X6812010D01*
X6517950Y4187990D02*
Y4222010D01*
X6542050Y4187990D02*
Y4222010D01*
X6422950Y4187990D02*
Y4222010D01*
X6447050Y4187990D02*
Y4222010D01*
X6797990Y4057050D02*
X6832010D01*
X6797990Y4032950D02*
X6832010D01*
X5107950Y3877990D02*
Y3912010D01*
X5132050Y3877990D02*
Y3912010D01*
X3072050Y1317990D02*
Y1352010D01*
X3047950Y1317990D02*
Y1352010D01*
X3187050Y5012990D02*
Y5047010D01*
X3162950Y5012990D02*
Y5047010D01*
X3307050Y5012990D02*
Y5047010D01*
X3282950Y5012990D02*
Y5047010D01*
X2947050Y1317990D02*
Y1352010D01*
X2922950Y1317990D02*
Y1352010D01*
%TF.MD5,946ccdc9cde67c3fd6bca8b2c5daf3a4*%
M02*
