%TF.GenerationSoftware,Altium Limited,Altium Designer,20.2.5 (213)*%
G04 Layer_Color=16711935*
%FSLAX26Y26*%
%MOIN*%
%TF.SameCoordinates,9BAFD9CD-774C-4051-972E-F2DD54F50950*%
%TF.FilePolarity,Negative*%
%TF.FileFunction,Soldermask,Bot*%
%TF.Part,Single*%
G01*
G75*
%TA.AperFunction,ComponentPad*%
%ADD42C,0.068000*%
%ADD43C,0.051276*%
%ADD44R,0.051276X0.051276*%
%ADD45R,0.061150X0.061150*%
%ADD46C,0.061150*%
%ADD47C,0.067370*%
%ADD48R,0.067370X0.067370*%
%ADD49R,0.072961X0.072961*%
%ADD50C,0.072961*%
%ADD51R,0.065843X0.065843*%
%ADD52C,0.065843*%
%ADD53C,0.056000*%
%ADD54R,0.059496X0.059496*%
%ADD55C,0.059496*%
%TA.AperFunction,ViaPad*%
%ADD56C,0.068000*%
D42*
X7825000Y3910000D02*
D03*
X7725000D02*
D03*
X7625000D02*
D03*
X7525000D02*
D03*
X7425000D02*
D03*
X7325000D02*
D03*
X7225000D02*
D03*
X7125000D02*
D03*
X7025000D02*
D03*
X6925000D02*
D03*
X6825000D02*
D03*
X6725000D02*
D03*
X6625000D02*
D03*
X7825000Y2630000D02*
D03*
X7725000D02*
D03*
X7625000D02*
D03*
X7525000D02*
D03*
X7425000D02*
D03*
X7325000D02*
D03*
X7225000D02*
D03*
X7125000D02*
D03*
X7025000D02*
D03*
X6925000D02*
D03*
X6825000D02*
D03*
X6725000D02*
D03*
X6625000D02*
D03*
Y4810000D02*
D03*
X6725000D02*
D03*
X6825000D02*
D03*
X6925000D02*
D03*
X7025000D02*
D03*
X7125000D02*
D03*
X7225000D02*
D03*
X7325000D02*
D03*
X7425000D02*
D03*
X7525000D02*
D03*
X7625000D02*
D03*
Y2275000D02*
D03*
X7525000D02*
D03*
X7425000D02*
D03*
X7325000D02*
D03*
X7225000D02*
D03*
X7125000D02*
D03*
X7025000D02*
D03*
X6925000D02*
D03*
X6825000D02*
D03*
X6725000D02*
D03*
X6625000D02*
D03*
X7625000Y3530000D02*
D03*
X7525000D02*
D03*
X7425000D02*
D03*
X7325000D02*
D03*
X7225000D02*
D03*
X7125000D02*
D03*
X7025000D02*
D03*
X6925000D02*
D03*
X6825000D02*
D03*
X6725000D02*
D03*
X6625000D02*
D03*
Y1375000D02*
D03*
X6725000D02*
D03*
X6825000D02*
D03*
X6925000D02*
D03*
X7025000D02*
D03*
X7125000D02*
D03*
X7225000D02*
D03*
X7325000D02*
D03*
X7425000D02*
D03*
X7525000D02*
D03*
X7625000D02*
D03*
X7725000D02*
D03*
X7825000D02*
D03*
D43*
X1885000Y1408740D02*
D03*
Y1330000D02*
D03*
X1315000Y1348740D02*
D03*
X4785000Y1261260D02*
D03*
X4450000Y5027520D02*
D03*
Y5106260D02*
D03*
X2650000Y1388740D02*
D03*
X5490000Y5085000D02*
D03*
D44*
X1885000Y1251260D02*
D03*
X1315000Y1270000D02*
D03*
X4785000Y1340000D02*
D03*
X4450000Y5185000D02*
D03*
X2650000Y1310000D02*
D03*
X5490000Y5163740D02*
D03*
D45*
X4150000Y1151260D02*
D03*
X2985000Y4692520D02*
D03*
X6160000Y5232480D02*
D03*
X1130000Y4736260D02*
D03*
X3565000Y4687520D02*
D03*
X2335000Y4710000D02*
D03*
X1725000Y4717520D02*
D03*
D46*
X4150000Y1230000D02*
D03*
Y1308740D02*
D03*
Y1387480D02*
D03*
X2985000Y5243702D02*
D03*
Y5164960D02*
D03*
Y5086220D02*
D03*
Y5007480D02*
D03*
Y4928740D02*
D03*
Y4850000D02*
D03*
Y4771260D02*
D03*
X6160000Y4996260D02*
D03*
Y5075000D02*
D03*
Y5153740D02*
D03*
X1130000Y4972480D02*
D03*
Y4893740D02*
D03*
Y4815000D02*
D03*
X3565000Y4766260D02*
D03*
Y4845000D02*
D03*
Y4923740D02*
D03*
Y5002480D02*
D03*
Y5081220D02*
D03*
Y5159960D02*
D03*
Y5238700D02*
D03*
X2335000Y4788740D02*
D03*
Y4867480D02*
D03*
Y4946220D02*
D03*
X1725000Y4796260D02*
D03*
Y4875000D02*
D03*
Y4953740D02*
D03*
D47*
X490000Y2060000D02*
D03*
Y2160000D02*
D03*
X590000Y2060000D02*
D03*
Y2160000D02*
D03*
X690000Y2060000D02*
D03*
Y2160000D02*
D03*
X790000Y2060000D02*
D03*
Y2160000D02*
D03*
X890000Y2060000D02*
D03*
Y2160000D02*
D03*
X990000Y2060000D02*
D03*
Y2160000D02*
D03*
X1090000Y2060000D02*
D03*
Y2160000D02*
D03*
X1190000Y2060000D02*
D03*
Y2160000D02*
D03*
X1290000Y2060000D02*
D03*
Y2160000D02*
D03*
X1390000Y2060000D02*
D03*
Y2160000D02*
D03*
X1490000Y2060000D02*
D03*
Y2160000D02*
D03*
X1590000Y2060000D02*
D03*
Y2160000D02*
D03*
X1690000Y2060000D02*
D03*
Y2160000D02*
D03*
X1790000Y2060000D02*
D03*
Y2160000D02*
D03*
X1890000Y2060000D02*
D03*
Y2160000D02*
D03*
X1990000Y2060000D02*
D03*
Y2160000D02*
D03*
X2090000Y2060000D02*
D03*
Y2160000D02*
D03*
X2190000Y2060000D02*
D03*
Y2160000D02*
D03*
X2290000Y2060000D02*
D03*
Y2160000D02*
D03*
X2390000Y2060000D02*
D03*
Y2160000D02*
D03*
X2490000Y2060000D02*
D03*
Y2160000D02*
D03*
X2590000Y2060000D02*
D03*
Y2160000D02*
D03*
X2690000Y2060000D02*
D03*
Y2160000D02*
D03*
X2790000Y2060000D02*
D03*
Y2160000D02*
D03*
X2890000Y2060000D02*
D03*
X490000Y4060000D02*
D03*
Y4160000D02*
D03*
X590000Y4060000D02*
D03*
Y4160000D02*
D03*
X690000Y4060000D02*
D03*
Y4160000D02*
D03*
X790000Y4060000D02*
D03*
Y4160000D02*
D03*
X890000Y4060000D02*
D03*
Y4160000D02*
D03*
X990000Y4060000D02*
D03*
Y4160000D02*
D03*
X1090000Y4060000D02*
D03*
Y4160000D02*
D03*
X1190000Y4060000D02*
D03*
Y4160000D02*
D03*
X1290000Y4060000D02*
D03*
Y4160000D02*
D03*
X1390000Y4060000D02*
D03*
Y4160000D02*
D03*
X1490000Y4060000D02*
D03*
Y4160000D02*
D03*
X1590000Y4060000D02*
D03*
Y4160000D02*
D03*
X1690000Y4060000D02*
D03*
Y4160000D02*
D03*
X1790000Y4060000D02*
D03*
Y4160000D02*
D03*
X1890000Y4060000D02*
D03*
Y4160000D02*
D03*
X1990000Y4060000D02*
D03*
Y4160000D02*
D03*
X2090000Y4060000D02*
D03*
Y4160000D02*
D03*
X2190000Y4060000D02*
D03*
Y4160000D02*
D03*
X2290000Y4060000D02*
D03*
Y4160000D02*
D03*
X2390000Y4060000D02*
D03*
Y4160000D02*
D03*
X2490000Y4060000D02*
D03*
Y4160000D02*
D03*
X2590000Y4060000D02*
D03*
Y4160000D02*
D03*
X2690000Y4060000D02*
D03*
Y4160000D02*
D03*
X2790000Y4060000D02*
D03*
Y4160000D02*
D03*
X2890000Y4060000D02*
D03*
D48*
Y2160000D02*
D03*
Y4160000D02*
D03*
D49*
X6185000Y1185000D02*
D03*
X5915000Y1295000D02*
D03*
X5615000Y1180000D02*
D03*
D50*
X6185000Y1285000D02*
D03*
X5915000Y1195000D02*
D03*
X5615000Y1280000D02*
D03*
D51*
X710000Y1450000D02*
D03*
D52*
Y1568110D02*
D03*
D53*
X632834Y1331890D02*
D03*
Y1686220D02*
D03*
D54*
X3320000Y1127520D02*
D03*
D55*
Y1206260D02*
D03*
Y1285000D02*
D03*
Y1363740D02*
D03*
Y1442480D02*
D03*
Y1521220D02*
D03*
D56*
X830000Y900000D02*
D03*
X7620000D02*
D03*
X7625000Y5220000D02*
D03*
X830000D02*
D03*
%TF.MD5,436b83f98e9b74b8d6dac6609dd2a888*%
M02*
