G04 #@! TF.FileFunction,Copper,L2,Bot,Signal*
%FSLAX46Y46*%
G04 Gerber Fmt 4.6, Leading zero omitted, Abs format (unit mm)*
G04 Created by KiCad (PCBNEW 4.0.2-stable) date 09/06/16 16:45:41*
%MOMM*%
G01*
G04 APERTURE LIST*
%ADD10C,0.100000*%
%ADD11R,3.500120X3.500120*%
%ADD12C,3.810000*%
%ADD13R,1.524000X1.524000*%
%ADD14C,1.524000*%
%ADD15C,3.400000*%
%ADD16C,2.540000*%
%ADD17R,2.000000X2.600000*%
%ADD18O,2.000000X2.600000*%
%ADD19C,0.600000*%
%ADD20C,0.500000*%
%ADD21C,0.250000*%
%ADD22C,0.300000*%
%ADD23C,0.350000*%
%ADD24C,0.254000*%
G04 APERTURE END LIST*
D10*
D11*
X109400000Y-63799480D03*
X109400000Y-57800000D03*
X104701000Y-60799740D03*
D12*
X156303000Y-135600000D03*
X181703000Y-135600000D03*
D13*
X174591000Y-133060000D03*
D14*
X171797000Y-133060000D03*
X169130000Y-133060000D03*
X166336000Y-133060000D03*
X163542000Y-133060000D03*
X173194000Y-135600000D03*
X170400000Y-135600000D03*
X167733000Y-135600000D03*
X164939000Y-135600000D03*
D15*
X177182000Y-87650000D03*
X177182000Y-99080000D03*
D14*
X170832000Y-97810000D03*
X168292000Y-97175000D03*
X170832000Y-95270000D03*
X168292000Y-94635000D03*
X170832000Y-92730000D03*
X168292000Y-92095000D03*
X170832000Y-90190000D03*
D16*
X174134000Y-85618000D03*
X174134000Y-101112000D03*
D14*
X180300000Y-97150000D03*
X181820000Y-89580000D03*
X181820000Y-99690000D03*
X180300000Y-87040000D03*
X168292000Y-89555000D03*
D15*
X177140000Y-106570000D03*
X177140000Y-118000000D03*
D14*
X170790000Y-116730000D03*
X168250000Y-116095000D03*
X170790000Y-114190000D03*
X168250000Y-113555000D03*
X170790000Y-111650000D03*
X168250000Y-111015000D03*
X170790000Y-109110000D03*
D16*
X174092000Y-104538000D03*
X174092000Y-120032000D03*
D14*
X180258000Y-116070000D03*
X181778000Y-108500000D03*
X181778000Y-118610000D03*
X180258000Y-105960000D03*
X168250000Y-108475000D03*
D17*
X132060000Y-145500000D03*
D18*
X134600000Y-145500000D03*
X137140000Y-145500000D03*
X139680000Y-145500000D03*
D17*
X161800000Y-54600000D03*
D18*
X164340000Y-54600000D03*
D17*
X168260000Y-54600000D03*
D18*
X170800000Y-54600000D03*
D14*
X155000000Y-58400000D03*
X155000000Y-55860000D03*
X155000000Y-60940000D03*
D17*
X110400000Y-145400000D03*
D18*
X107860000Y-145400000D03*
D17*
X116800000Y-145400000D03*
D18*
X114260000Y-145400000D03*
D19*
X121120000Y-107910000D03*
X121120000Y-97750000D03*
X130010000Y-90130000D03*
X138900000Y-97750000D03*
X138900000Y-107910000D03*
X130010000Y-115530000D03*
X132800000Y-134400000D03*
X134525000Y-134400000D03*
X134525000Y-132675000D03*
X132800000Y-132675000D03*
X153500000Y-115750000D03*
X152500000Y-109750000D03*
X152350000Y-92750000D03*
X153500000Y-98500000D03*
X130250000Y-135500000D03*
X169500000Y-71250000D03*
X129500000Y-139500000D03*
X126800000Y-136200000D03*
X179750000Y-112000000D03*
X143500000Y-127000000D03*
X109750000Y-104250000D03*
X130500000Y-137250000D03*
X128500000Y-134750000D03*
X118750000Y-136750000D03*
X142250000Y-88250000D03*
X173250000Y-95750000D03*
X161500000Y-98500000D03*
X161500000Y-110000000D03*
X161500000Y-114750000D03*
X161500000Y-121750000D03*
X161500000Y-90500000D03*
X111035000Y-103465000D03*
X150500000Y-133500000D03*
X144000000Y-130500000D03*
X142212500Y-134287500D03*
X168500000Y-138875020D03*
X149500000Y-113250000D03*
X149000000Y-115000000D03*
X149250000Y-116250000D03*
X150500000Y-109250000D03*
X151500000Y-112250000D03*
X149250000Y-117500000D03*
X122000000Y-140750000D03*
X128500000Y-132250000D03*
X123037500Y-132287500D03*
X130000000Y-129025010D03*
X128500000Y-127500000D03*
X131500000Y-129650020D03*
X131000000Y-127000000D03*
X128250000Y-130250000D03*
X131750000Y-126000000D03*
D20*
X126800000Y-136200000D02*
X126300000Y-136200000D01*
D21*
X179750000Y-112000000D02*
X180000000Y-112000000D01*
X180000000Y-112000000D02*
X180049999Y-111950001D01*
X180049999Y-111950001D02*
X182299999Y-111950001D01*
X182299999Y-111950001D02*
X184000000Y-110250000D01*
X184000000Y-110250000D02*
X184000000Y-107250000D01*
X184000000Y-107250000D02*
X182710000Y-105960000D01*
X182710000Y-105960000D02*
X180258000Y-105960000D01*
X111000000Y-124000000D02*
X121750000Y-134750000D01*
X121750000Y-134750000D02*
X128500000Y-134750000D01*
X111000000Y-105924264D02*
X111000000Y-124000000D01*
X109750000Y-104250000D02*
X109750000Y-104674264D01*
X109750000Y-104674264D02*
X111000000Y-105924264D01*
X130500000Y-137250000D02*
X137750000Y-137250000D01*
X137750000Y-137250000D02*
X140750000Y-134250000D01*
X140750000Y-134250000D02*
X140750000Y-129750000D01*
X140750000Y-129750000D02*
X143500000Y-127000000D01*
X129250000Y-137250000D02*
X130500000Y-137250000D01*
X128500000Y-136500000D02*
X129250000Y-137250000D01*
X128500000Y-135174264D02*
X128500000Y-136500000D01*
X128500000Y-134750000D02*
X128500000Y-135174264D01*
D20*
X119049999Y-137049999D02*
X118750000Y-136750000D01*
X146500000Y-135500002D02*
X144000001Y-138000001D01*
X142250000Y-88250000D02*
X146500000Y-92500000D01*
X146500000Y-92500000D02*
X146500000Y-135500002D01*
X120000001Y-138000001D02*
X119049999Y-137049999D01*
X144000001Y-138000001D02*
X120000001Y-138000001D01*
D21*
X161500000Y-114750000D02*
X161500000Y-121750000D01*
X161500000Y-110000000D02*
X161500000Y-114750000D01*
X161500000Y-98500000D02*
X161500000Y-110000000D01*
X161500000Y-90500000D02*
X161500000Y-98500000D01*
X161500000Y-110000000D02*
X161799999Y-109700001D01*
X161799999Y-109700001D02*
X162549999Y-109700001D01*
X173000000Y-113500000D02*
X172310000Y-114190000D01*
X162549999Y-109700001D02*
X165500000Y-106750000D01*
X165500000Y-106750000D02*
X171500000Y-106750000D01*
X171500000Y-106750000D02*
X173000000Y-108250000D01*
X173000000Y-108250000D02*
X173000000Y-113500000D01*
X172310000Y-114190000D02*
X170790000Y-114190000D01*
X164250000Y-99750000D02*
X163000000Y-98500000D01*
X163000000Y-98500000D02*
X161500000Y-98500000D01*
X171500000Y-99750000D02*
X164250000Y-99750000D01*
X173250000Y-98000000D02*
X171500000Y-99750000D01*
X173250000Y-95750000D02*
X173250000Y-98000000D01*
D20*
X111035000Y-103465000D02*
X110465000Y-103465000D01*
X108750000Y-101750000D02*
X108750000Y-83750000D01*
X163750000Y-79250000D02*
X172750000Y-88250000D01*
X110465000Y-103465000D02*
X108750000Y-101750000D01*
X108750000Y-83750000D02*
X113250000Y-79250000D01*
X113250000Y-79250000D02*
X163750000Y-79250000D01*
X172750000Y-88250000D02*
X172750000Y-94750000D01*
X172750000Y-94750000D02*
X172230000Y-95270000D01*
X172230000Y-95270000D02*
X170832000Y-95270000D01*
D21*
X170750000Y-130500000D02*
X171797000Y-131547000D01*
X171797000Y-131547000D02*
X171797000Y-133060000D01*
X153500000Y-130500000D02*
X170750000Y-130500000D01*
X150500000Y-133500000D02*
X153500000Y-130500000D01*
X142512499Y-131987501D02*
X144000000Y-130500000D01*
X142212500Y-134287500D02*
X142512499Y-133987501D01*
X142512499Y-133987501D02*
X142512499Y-131987501D01*
X168799999Y-138575021D02*
X168500000Y-138875020D01*
X170400000Y-136975020D02*
X168799999Y-138575021D01*
X170400000Y-135600000D02*
X170400000Y-136975020D01*
D22*
X149000000Y-113750000D02*
X149500000Y-113250000D01*
X149000000Y-115000000D02*
X149000000Y-113750000D01*
X150500000Y-115000000D02*
X149250000Y-116250000D01*
X150500000Y-109250000D02*
X150500000Y-115000000D01*
X151500000Y-115250000D02*
X151500000Y-112250000D01*
X149250000Y-117500000D02*
X151500000Y-115250000D01*
D23*
X135000000Y-140750000D02*
X137140000Y-142890000D01*
X137140000Y-142890000D02*
X137140000Y-145500000D01*
X122000000Y-140750000D02*
X135000000Y-140750000D01*
D21*
X128462500Y-132287500D02*
X128500000Y-132250000D01*
X123037500Y-132287500D02*
X128462500Y-132287500D01*
X129750000Y-128750000D02*
X129750000Y-128775010D01*
X129750000Y-128775010D02*
X130000000Y-129025010D01*
X128500000Y-127500000D02*
X129750000Y-128750000D01*
X131000000Y-129250000D02*
X131400020Y-129650020D01*
X131400020Y-129650020D02*
X131500000Y-129650020D01*
X131000000Y-127000000D02*
X131000000Y-129250000D01*
X127874999Y-129874999D02*
X128250000Y-130250000D01*
X128750000Y-126000000D02*
X127874999Y-126875001D01*
X127874999Y-126875001D02*
X127874999Y-129874999D01*
X131750000Y-126000000D02*
X128750000Y-126000000D01*
D24*
G36*
X187373000Y-144707102D02*
X187169161Y-144502907D01*
X186476595Y-144215328D01*
X185726695Y-144214674D01*
X185033628Y-144501043D01*
X184502907Y-145030839D01*
X184215328Y-145723405D01*
X184214674Y-146473305D01*
X184501043Y-147166372D01*
X184707311Y-147373000D01*
X137642276Y-147373000D01*
X137765687Y-147348452D01*
X138296120Y-146994029D01*
X138650543Y-146463596D01*
X138775000Y-145837909D01*
X138775000Y-145162091D01*
X138650543Y-144536404D01*
X138296120Y-144005971D01*
X137950000Y-143774702D01*
X137950000Y-142890000D01*
X137888342Y-142580026D01*
X137800549Y-142448635D01*
X137712756Y-142317243D01*
X135572756Y-140177244D01*
X135309974Y-140001658D01*
X135000000Y-139940000D01*
X122487441Y-139940000D01*
X122186799Y-139815162D01*
X121814833Y-139814838D01*
X121471057Y-139956883D01*
X121207808Y-140219673D01*
X121065162Y-140563201D01*
X121064838Y-140935167D01*
X121206883Y-141278943D01*
X121469673Y-141542192D01*
X121813201Y-141684838D01*
X122185167Y-141685162D01*
X122488083Y-141560000D01*
X134664488Y-141560000D01*
X136330000Y-143225513D01*
X136330000Y-143774702D01*
X135983880Y-144005971D01*
X135870000Y-144176405D01*
X135756120Y-144005971D01*
X135225687Y-143651548D01*
X134600000Y-143527091D01*
X133974313Y-143651548D01*
X133615808Y-143891093D01*
X133524090Y-143748559D01*
X133311890Y-143603569D01*
X133060000Y-143552560D01*
X131060000Y-143552560D01*
X130824683Y-143596838D01*
X130608559Y-143735910D01*
X130463569Y-143948110D01*
X130412560Y-144200000D01*
X130412560Y-146800000D01*
X130456838Y-147035317D01*
X130595910Y-147251441D01*
X130773818Y-147373000D01*
X105192898Y-147373000D01*
X105397093Y-147169161D01*
X105684672Y-146476595D01*
X105685326Y-145726695D01*
X105410718Y-145062091D01*
X106225000Y-145062091D01*
X106225000Y-145737909D01*
X106349457Y-146363596D01*
X106703880Y-146894029D01*
X107234313Y-147248452D01*
X107860000Y-147372909D01*
X108485687Y-147248452D01*
X108844192Y-147008907D01*
X108935910Y-147151441D01*
X109148110Y-147296431D01*
X109400000Y-147347440D01*
X111400000Y-147347440D01*
X111635317Y-147303162D01*
X111851441Y-147164090D01*
X111996431Y-146951890D01*
X112047440Y-146700000D01*
X112047440Y-145062091D01*
X112625000Y-145062091D01*
X112625000Y-145737909D01*
X112749457Y-146363596D01*
X113103880Y-146894029D01*
X113634313Y-147248452D01*
X114260000Y-147372909D01*
X114885687Y-147248452D01*
X115244192Y-147008907D01*
X115335910Y-147151441D01*
X115548110Y-147296431D01*
X115800000Y-147347440D01*
X117800000Y-147347440D01*
X118035317Y-147303162D01*
X118251441Y-147164090D01*
X118396431Y-146951890D01*
X118447440Y-146700000D01*
X118447440Y-144100000D01*
X118403162Y-143864683D01*
X118264090Y-143648559D01*
X118051890Y-143503569D01*
X117800000Y-143452560D01*
X115800000Y-143452560D01*
X115564683Y-143496838D01*
X115348559Y-143635910D01*
X115243049Y-143790329D01*
X114885687Y-143551548D01*
X114260000Y-143427091D01*
X113634313Y-143551548D01*
X113103880Y-143905971D01*
X112749457Y-144436404D01*
X112625000Y-145062091D01*
X112047440Y-145062091D01*
X112047440Y-144100000D01*
X112003162Y-143864683D01*
X111864090Y-143648559D01*
X111651890Y-143503569D01*
X111400000Y-143452560D01*
X109400000Y-143452560D01*
X109164683Y-143496838D01*
X108948559Y-143635910D01*
X108843049Y-143790329D01*
X108485687Y-143551548D01*
X107860000Y-143427091D01*
X107234313Y-143551548D01*
X106703880Y-143905971D01*
X106349457Y-144436404D01*
X106225000Y-145062091D01*
X105410718Y-145062091D01*
X105398957Y-145033628D01*
X104869161Y-144502907D01*
X104176595Y-144215328D01*
X103426695Y-144214674D01*
X102733628Y-144501043D01*
X102627000Y-144607485D01*
X102627000Y-83750000D01*
X107864999Y-83750000D01*
X107865000Y-83750005D01*
X107865000Y-101749995D01*
X107864999Y-101750000D01*
X107921190Y-102032484D01*
X107932367Y-102088675D01*
X107999860Y-102189686D01*
X108124210Y-102375790D01*
X109213173Y-103464753D01*
X108957808Y-103719673D01*
X108815162Y-104063201D01*
X108814838Y-104435167D01*
X108956883Y-104778943D01*
X109024245Y-104846422D01*
X109047852Y-104965103D01*
X109212599Y-105211665D01*
X110240000Y-106239066D01*
X110240000Y-124000000D01*
X110297852Y-124290839D01*
X110462599Y-124537401D01*
X121212599Y-135287401D01*
X121459161Y-135452148D01*
X121750000Y-135510000D01*
X127740000Y-135510000D01*
X127740000Y-136500000D01*
X127797852Y-136790839D01*
X127962599Y-137037401D01*
X128040199Y-137115001D01*
X120366580Y-137115001D01*
X119675789Y-136424209D01*
X119675786Y-136424207D01*
X119592745Y-136341165D01*
X119543117Y-136221057D01*
X119280327Y-135957808D01*
X118936799Y-135815162D01*
X118564833Y-135814838D01*
X118221057Y-135956883D01*
X117957808Y-136219673D01*
X117815162Y-136563201D01*
X117814838Y-136935167D01*
X117956883Y-137278943D01*
X118219673Y-137542192D01*
X118340987Y-137592566D01*
X118424207Y-137675786D01*
X118424209Y-137675789D01*
X119374209Y-138625788D01*
X119374211Y-138625791D01*
X119661326Y-138817634D01*
X119717517Y-138828811D01*
X120000001Y-138885002D01*
X120000006Y-138885001D01*
X143999996Y-138885001D01*
X144000001Y-138885002D01*
X144282485Y-138828811D01*
X144338676Y-138817634D01*
X144625791Y-138625791D01*
X147125787Y-136125794D01*
X147125790Y-136125792D01*
X147141005Y-136103021D01*
X153762560Y-136103021D01*
X154148437Y-137036915D01*
X154862327Y-137752052D01*
X155795546Y-138139559D01*
X156806021Y-138140440D01*
X157739915Y-137754563D01*
X158455052Y-137040673D01*
X158842559Y-136107454D01*
X158843440Y-135096979D01*
X158457563Y-134163085D01*
X157743673Y-133447948D01*
X156810454Y-133060441D01*
X155799979Y-133059560D01*
X154866085Y-133445437D01*
X154150948Y-134159327D01*
X153763441Y-135092546D01*
X153762560Y-136103021D01*
X147141005Y-136103021D01*
X147317633Y-135838677D01*
X147385000Y-135500002D01*
X147385000Y-133685167D01*
X149564838Y-133685167D01*
X149706883Y-134028943D01*
X149969673Y-134292192D01*
X150313201Y-134434838D01*
X150685167Y-134435162D01*
X151028943Y-134293117D01*
X151292192Y-134030327D01*
X151434838Y-133686799D01*
X151434879Y-133639923D01*
X153814802Y-131260000D01*
X170435198Y-131260000D01*
X171037000Y-131861802D01*
X171037000Y-131862469D01*
X171006697Y-131874990D01*
X170613371Y-132267630D01*
X170463394Y-132628815D01*
X170315010Y-132269697D01*
X169922370Y-131876371D01*
X169409100Y-131663243D01*
X168853339Y-131662758D01*
X168339697Y-131874990D01*
X167946371Y-132267630D01*
X167733243Y-132780900D01*
X167733241Y-132783336D01*
X167521010Y-132269697D01*
X167128370Y-131876371D01*
X166615100Y-131663243D01*
X166059339Y-131662758D01*
X165545697Y-131874990D01*
X165152371Y-132267630D01*
X164939243Y-132780900D01*
X164938758Y-133336661D01*
X165150990Y-133850303D01*
X165543630Y-134243629D01*
X166056900Y-134456757D01*
X166612661Y-134457242D01*
X167126303Y-134245010D01*
X167519629Y-133852370D01*
X167732757Y-133339100D01*
X167732759Y-133336664D01*
X167944990Y-133850303D01*
X168337630Y-134243629D01*
X168850900Y-134456757D01*
X169406661Y-134457242D01*
X169920303Y-134245010D01*
X170313629Y-133852370D01*
X170463606Y-133491185D01*
X170611990Y-133850303D01*
X171004630Y-134243629D01*
X171517900Y-134456757D01*
X172073661Y-134457242D01*
X172587303Y-134245010D01*
X172980629Y-133852370D01*
X173181560Y-133368474D01*
X173181560Y-133822000D01*
X173225838Y-134057317D01*
X173319653Y-134203109D01*
X172917339Y-134202758D01*
X172403697Y-134414990D01*
X172010371Y-134807630D01*
X171797243Y-135320900D01*
X171797241Y-135323336D01*
X171585010Y-134809697D01*
X171192370Y-134416371D01*
X170679100Y-134203243D01*
X170123339Y-134202758D01*
X169609697Y-134414990D01*
X169216371Y-134807630D01*
X169066394Y-135168815D01*
X168918010Y-134809697D01*
X168525370Y-134416371D01*
X168012100Y-134203243D01*
X167456339Y-134202758D01*
X166942697Y-134414990D01*
X166549371Y-134807630D01*
X166336243Y-135320900D01*
X166336241Y-135323336D01*
X166124010Y-134809697D01*
X165731370Y-134416371D01*
X165218100Y-134203243D01*
X164662339Y-134202758D01*
X164148697Y-134414990D01*
X163755371Y-134807630D01*
X163542243Y-135320900D01*
X163541758Y-135876661D01*
X163753990Y-136390303D01*
X164146630Y-136783629D01*
X164659900Y-136996757D01*
X165215661Y-136997242D01*
X165729303Y-136785010D01*
X166122629Y-136392370D01*
X166335757Y-135879100D01*
X166335759Y-135876664D01*
X166547990Y-136390303D01*
X166940630Y-136783629D01*
X167453900Y-136996757D01*
X168009661Y-136997242D01*
X168523303Y-136785010D01*
X168916629Y-136392370D01*
X169066606Y-136031185D01*
X169214990Y-136390303D01*
X169562149Y-136738069D01*
X168360320Y-137939898D01*
X168314833Y-137939858D01*
X167971057Y-138081903D01*
X167707808Y-138344693D01*
X167565162Y-138688221D01*
X167564838Y-139060187D01*
X167706883Y-139403963D01*
X167969673Y-139667212D01*
X168313201Y-139809858D01*
X168685167Y-139810182D01*
X169028943Y-139668137D01*
X169292192Y-139405347D01*
X169434838Y-139061819D01*
X169434879Y-139014943D01*
X170937401Y-137512421D01*
X171102148Y-137265859D01*
X171160000Y-136975020D01*
X171160000Y-136797531D01*
X171190303Y-136785010D01*
X171583629Y-136392370D01*
X171796757Y-135879100D01*
X171796759Y-135876664D01*
X172008990Y-136390303D01*
X172401630Y-136783629D01*
X172914900Y-136996757D01*
X173470661Y-136997242D01*
X173984303Y-136785010D01*
X174377629Y-136392370D01*
X174497777Y-136103021D01*
X179162560Y-136103021D01*
X179548437Y-137036915D01*
X180262327Y-137752052D01*
X181195546Y-138139559D01*
X182206021Y-138140440D01*
X183139915Y-137754563D01*
X183855052Y-137040673D01*
X184242559Y-136107454D01*
X184243440Y-135096979D01*
X183857563Y-134163085D01*
X183143673Y-133447948D01*
X182210454Y-133060441D01*
X181199979Y-133059560D01*
X180266085Y-133445437D01*
X179550948Y-134159327D01*
X179163441Y-135092546D01*
X179162560Y-136103021D01*
X174497777Y-136103021D01*
X174590757Y-135879100D01*
X174591242Y-135323339D01*
X174379010Y-134809697D01*
X174039346Y-134469440D01*
X175353000Y-134469440D01*
X175588317Y-134425162D01*
X175804441Y-134286090D01*
X175949431Y-134073890D01*
X176000440Y-133822000D01*
X176000440Y-132298000D01*
X175956162Y-132062683D01*
X175817090Y-131846559D01*
X175604890Y-131701569D01*
X175353000Y-131650560D01*
X173829000Y-131650560D01*
X173593683Y-131694838D01*
X173377559Y-131833910D01*
X173232569Y-132046110D01*
X173181560Y-132298000D01*
X173181560Y-132752646D01*
X172982010Y-132269697D01*
X172589370Y-131876371D01*
X172557000Y-131862930D01*
X172557000Y-131547000D01*
X172499148Y-131256161D01*
X172334401Y-131009599D01*
X171287401Y-129962599D01*
X171040839Y-129797852D01*
X170750000Y-129740000D01*
X153500000Y-129740000D01*
X153209161Y-129797852D01*
X152962599Y-129962599D01*
X150360320Y-132564878D01*
X150314833Y-132564838D01*
X149971057Y-132706883D01*
X149707808Y-132969673D01*
X149565162Y-133313201D01*
X149564838Y-133685167D01*
X147385000Y-133685167D01*
X147385000Y-115185167D01*
X148064838Y-115185167D01*
X148206883Y-115528943D01*
X148440027Y-115762494D01*
X148315162Y-116063201D01*
X148314838Y-116435167D01*
X148456883Y-116778943D01*
X148552710Y-116874937D01*
X148457808Y-116969673D01*
X148315162Y-117313201D01*
X148314838Y-117685167D01*
X148456883Y-118028943D01*
X148719673Y-118292192D01*
X149063201Y-118434838D01*
X149435167Y-118435162D01*
X149778943Y-118293117D01*
X150042192Y-118030327D01*
X150184838Y-117686799D01*
X150184848Y-117675310D01*
X152055076Y-115805081D01*
X152055079Y-115805079D01*
X152225245Y-115550406D01*
X152260134Y-115375010D01*
X152285001Y-115250000D01*
X152285000Y-115249995D01*
X152285000Y-112787506D01*
X152292192Y-112780327D01*
X152434838Y-112436799D01*
X152435162Y-112064833D01*
X152293117Y-111721057D01*
X152030327Y-111457808D01*
X151686799Y-111315162D01*
X151314833Y-111314838D01*
X151285000Y-111327165D01*
X151285000Y-109787506D01*
X151292192Y-109780327D01*
X151434838Y-109436799D01*
X151435162Y-109064833D01*
X151293117Y-108721057D01*
X151030327Y-108457808D01*
X150686799Y-108315162D01*
X150314833Y-108314838D01*
X149971057Y-108456883D01*
X149707808Y-108719673D01*
X149565162Y-109063201D01*
X149564838Y-109435167D01*
X149706883Y-109778943D01*
X149715000Y-109787074D01*
X149715000Y-112326872D01*
X149686799Y-112315162D01*
X149314833Y-112314838D01*
X148971057Y-112456883D01*
X148707808Y-112719673D01*
X148565162Y-113063201D01*
X148565152Y-113074690D01*
X148444921Y-113194921D01*
X148274755Y-113449593D01*
X148254702Y-113550406D01*
X148215000Y-113750000D01*
X148215000Y-114462494D01*
X148207808Y-114469673D01*
X148065162Y-114813201D01*
X148064838Y-115185167D01*
X147385000Y-115185167D01*
X147385000Y-92500005D01*
X147385001Y-92500000D01*
X147317633Y-92161326D01*
X147317633Y-92161325D01*
X147125790Y-91874210D01*
X147125787Y-91874208D01*
X143092744Y-87841164D01*
X143043117Y-87721057D01*
X142780327Y-87457808D01*
X142436799Y-87315162D01*
X142064833Y-87314838D01*
X141721057Y-87456883D01*
X141457808Y-87719673D01*
X141315162Y-88063201D01*
X141314838Y-88435167D01*
X141456883Y-88778943D01*
X141719673Y-89042192D01*
X141840986Y-89092566D01*
X145615000Y-92866579D01*
X145615000Y-135133423D01*
X143633421Y-137115001D01*
X138959801Y-137115001D01*
X141287401Y-134787401D01*
X141361538Y-134676447D01*
X141419383Y-134816443D01*
X141682173Y-135079692D01*
X142025701Y-135222338D01*
X142397667Y-135222662D01*
X142741443Y-135080617D01*
X143004692Y-134817827D01*
X143147338Y-134474299D01*
X143147421Y-134378951D01*
X143214647Y-134278340D01*
X143272499Y-133987501D01*
X143272499Y-132302303D01*
X144139680Y-131435122D01*
X144185167Y-131435162D01*
X144528943Y-131293117D01*
X144792192Y-131030327D01*
X144934838Y-130686799D01*
X144935162Y-130314833D01*
X144793117Y-129971057D01*
X144530327Y-129707808D01*
X144186799Y-129565162D01*
X143814833Y-129564838D01*
X143471057Y-129706883D01*
X143207808Y-129969673D01*
X143065162Y-130313201D01*
X143065121Y-130360077D01*
X141975098Y-131450100D01*
X141810351Y-131696662D01*
X141752499Y-131987501D01*
X141752499Y-133465897D01*
X141683557Y-133494383D01*
X141510000Y-133667637D01*
X141510000Y-130064802D01*
X143639680Y-127935122D01*
X143685167Y-127935162D01*
X144028943Y-127793117D01*
X144292192Y-127530327D01*
X144434838Y-127186799D01*
X144435162Y-126814833D01*
X144293117Y-126471057D01*
X144030327Y-126207808D01*
X143686799Y-126065162D01*
X143314833Y-126064838D01*
X142971057Y-126206883D01*
X142707808Y-126469673D01*
X142565162Y-126813201D01*
X142565121Y-126860077D01*
X140212599Y-129212599D01*
X140047852Y-129459161D01*
X139990000Y-129750000D01*
X139990000Y-133935198D01*
X137435198Y-136490000D01*
X131062463Y-136490000D01*
X131030327Y-136457808D01*
X130686799Y-136315162D01*
X130314833Y-136314838D01*
X129971057Y-136456883D01*
X129937882Y-136490000D01*
X129564802Y-136490000D01*
X129260000Y-136185198D01*
X129260000Y-135312463D01*
X129292192Y-135280327D01*
X129434838Y-134936799D01*
X129435162Y-134564833D01*
X129293117Y-134221057D01*
X129030327Y-133957808D01*
X128686799Y-133815162D01*
X128314833Y-133814838D01*
X127971057Y-133956883D01*
X127937882Y-133990000D01*
X122064802Y-133990000D01*
X120547469Y-132472667D01*
X122102338Y-132472667D01*
X122244383Y-132816443D01*
X122507173Y-133079692D01*
X122850701Y-133222338D01*
X123222667Y-133222662D01*
X123566443Y-133080617D01*
X123599618Y-133047500D01*
X127982456Y-133047500D01*
X128313201Y-133184838D01*
X128685167Y-133185162D01*
X129028943Y-133043117D01*
X129292192Y-132780327D01*
X129434838Y-132436799D01*
X129435162Y-132064833D01*
X129293117Y-131721057D01*
X129030327Y-131457808D01*
X128686799Y-131315162D01*
X128314833Y-131314838D01*
X127971057Y-131456883D01*
X127900317Y-131527500D01*
X123599963Y-131527500D01*
X123567827Y-131495308D01*
X123224299Y-131352662D01*
X122852333Y-131352338D01*
X122508557Y-131494383D01*
X122245308Y-131757173D01*
X122102662Y-132100701D01*
X122102338Y-132472667D01*
X120547469Y-132472667D01*
X114949803Y-126875001D01*
X127114999Y-126875001D01*
X127114999Y-129874999D01*
X127172851Y-130165838D01*
X127314887Y-130378411D01*
X127314838Y-130435167D01*
X127456883Y-130778943D01*
X127719673Y-131042192D01*
X128063201Y-131184838D01*
X128435167Y-131185162D01*
X128778943Y-131043117D01*
X129042192Y-130780327D01*
X129184838Y-130436799D01*
X129185162Y-130064833D01*
X129043117Y-129721057D01*
X128780327Y-129457808D01*
X128634999Y-129397462D01*
X128634999Y-128709801D01*
X129064899Y-129139701D01*
X129064838Y-129210177D01*
X129206883Y-129553953D01*
X129469673Y-129817202D01*
X129813201Y-129959848D01*
X130185167Y-129960172D01*
X130503739Y-129828541D01*
X130603180Y-129927982D01*
X130706883Y-130178963D01*
X130969673Y-130442212D01*
X131313201Y-130584858D01*
X131685167Y-130585182D01*
X132028943Y-130443137D01*
X132292192Y-130180347D01*
X132434838Y-129836819D01*
X132435162Y-129464853D01*
X132293117Y-129121077D01*
X132030327Y-128857828D01*
X131760000Y-128745578D01*
X131760000Y-127562463D01*
X131792192Y-127530327D01*
X131934838Y-127186799D01*
X131935057Y-126935162D01*
X131935167Y-126935162D01*
X132278943Y-126793117D01*
X132542192Y-126530327D01*
X132684838Y-126186799D01*
X132685162Y-125814833D01*
X132543117Y-125471057D01*
X132280327Y-125207808D01*
X131936799Y-125065162D01*
X131564833Y-125064838D01*
X131221057Y-125206883D01*
X131187882Y-125240000D01*
X128750000Y-125240000D01*
X128459160Y-125297852D01*
X128212599Y-125462599D01*
X127337598Y-126337600D01*
X127172851Y-126584162D01*
X127114999Y-126875001D01*
X114949803Y-126875001D01*
X111760000Y-123685198D01*
X111760000Y-105924264D01*
X111702148Y-105633425D01*
X111537401Y-105386863D01*
X110656231Y-104505693D01*
X110684838Y-104436799D01*
X110684914Y-104350000D01*
X110728178Y-104350000D01*
X110848201Y-104399838D01*
X111220167Y-104400162D01*
X111563943Y-104258117D01*
X111827192Y-103995327D01*
X111969838Y-103651799D01*
X111970162Y-103279833D01*
X111828117Y-102936057D01*
X111565327Y-102672808D01*
X111221799Y-102530162D01*
X110849833Y-102529838D01*
X110801421Y-102549842D01*
X109635000Y-101383420D01*
X109635000Y-84116580D01*
X113616579Y-80135000D01*
X163383420Y-80135000D01*
X171865000Y-88616579D01*
X171865000Y-89247421D01*
X171624370Y-89006371D01*
X171111100Y-88793243D01*
X170555339Y-88792758D01*
X170041697Y-89004990D01*
X169689173Y-89356899D01*
X169689242Y-89278339D01*
X169477010Y-88764697D01*
X169084370Y-88371371D01*
X168571100Y-88158243D01*
X168015339Y-88157758D01*
X167501697Y-88369990D01*
X167108371Y-88762630D01*
X166895243Y-89275900D01*
X166894758Y-89831661D01*
X167106990Y-90345303D01*
X167499630Y-90738629D01*
X167707512Y-90824949D01*
X167501697Y-90909990D01*
X167108371Y-91302630D01*
X166895243Y-91815900D01*
X166894758Y-92371661D01*
X167106990Y-92885303D01*
X167499630Y-93278629D01*
X167707512Y-93364949D01*
X167501697Y-93449990D01*
X167108371Y-93842630D01*
X166895243Y-94355900D01*
X166894758Y-94911661D01*
X167106990Y-95425303D01*
X167499630Y-95818629D01*
X167707512Y-95904949D01*
X167501697Y-95989990D01*
X167108371Y-96382630D01*
X166895243Y-96895900D01*
X166894758Y-97451661D01*
X167106990Y-97965303D01*
X167499630Y-98358629D01*
X168012900Y-98571757D01*
X168568661Y-98572242D01*
X169082303Y-98360010D01*
X169434827Y-98008101D01*
X169434758Y-98086661D01*
X169646990Y-98600303D01*
X170036007Y-98990000D01*
X164564802Y-98990000D01*
X163537401Y-97962599D01*
X163290839Y-97797852D01*
X163000000Y-97740000D01*
X162260000Y-97740000D01*
X162260000Y-91062463D01*
X162292192Y-91030327D01*
X162434838Y-90686799D01*
X162435162Y-90314833D01*
X162293117Y-89971057D01*
X162030327Y-89707808D01*
X161686799Y-89565162D01*
X161314833Y-89564838D01*
X160971057Y-89706883D01*
X160707808Y-89969673D01*
X160565162Y-90313201D01*
X160564838Y-90685167D01*
X160706883Y-91028943D01*
X160740000Y-91062118D01*
X160740000Y-97937537D01*
X160707808Y-97969673D01*
X160565162Y-98313201D01*
X160564838Y-98685167D01*
X160706883Y-99028943D01*
X160740000Y-99062118D01*
X160740000Y-109437537D01*
X160707808Y-109469673D01*
X160565162Y-109813201D01*
X160564838Y-110185167D01*
X160706883Y-110528943D01*
X160740000Y-110562118D01*
X160740000Y-114187537D01*
X160707808Y-114219673D01*
X160565162Y-114563201D01*
X160564838Y-114935167D01*
X160706883Y-115278943D01*
X160740000Y-115312118D01*
X160740000Y-121187537D01*
X160707808Y-121219673D01*
X160565162Y-121563201D01*
X160564838Y-121935167D01*
X160706883Y-122278943D01*
X160969673Y-122542192D01*
X161313201Y-122684838D01*
X161685167Y-122685162D01*
X162028943Y-122543117D01*
X162292192Y-122280327D01*
X162434838Y-121936799D01*
X162435162Y-121564833D01*
X162293117Y-121221057D01*
X162260000Y-121187882D01*
X162260000Y-120409265D01*
X172186670Y-120409265D01*
X172476078Y-121109686D01*
X173011495Y-121646039D01*
X173711410Y-121936668D01*
X174469265Y-121937330D01*
X175169686Y-121647922D01*
X175706039Y-121112505D01*
X175996668Y-120412590D01*
X175996982Y-120053677D01*
X176673502Y-120334593D01*
X177602422Y-120335404D01*
X178460943Y-119980671D01*
X179118362Y-119324398D01*
X179300126Y-118886661D01*
X180380758Y-118886661D01*
X180592990Y-119400303D01*
X180985630Y-119793629D01*
X181498900Y-120006757D01*
X182054661Y-120007242D01*
X182568303Y-119795010D01*
X182961629Y-119402370D01*
X183174757Y-118889100D01*
X183175242Y-118333339D01*
X182963010Y-117819697D01*
X182570370Y-117426371D01*
X182057100Y-117213243D01*
X181501339Y-117212758D01*
X180987697Y-117424990D01*
X180594371Y-117817630D01*
X180381243Y-118330900D01*
X180380758Y-118886661D01*
X179300126Y-118886661D01*
X179474593Y-118466498D01*
X179475404Y-117537578D01*
X179282123Y-117069801D01*
X179465630Y-117253629D01*
X179978900Y-117466757D01*
X180534661Y-117467242D01*
X181048303Y-117255010D01*
X181441629Y-116862370D01*
X181654757Y-116349100D01*
X181655242Y-115793339D01*
X181443010Y-115279697D01*
X181050370Y-114886371D01*
X180537100Y-114673243D01*
X179981339Y-114672758D01*
X179467697Y-114884990D01*
X179074371Y-115277630D01*
X178861243Y-115790900D01*
X178860758Y-116346661D01*
X178911538Y-116469559D01*
X178464398Y-116021638D01*
X177606498Y-115665407D01*
X176677578Y-115664596D01*
X175819057Y-116019329D01*
X175161638Y-116675602D01*
X174805407Y-117533502D01*
X174804768Y-118265264D01*
X174472590Y-118127332D01*
X173714735Y-118126670D01*
X173014314Y-118416078D01*
X172477961Y-118951495D01*
X172187332Y-119651410D01*
X172186670Y-120409265D01*
X162260000Y-120409265D01*
X162260000Y-115312463D01*
X162292192Y-115280327D01*
X162434838Y-114936799D01*
X162435162Y-114564833D01*
X162293117Y-114221057D01*
X162260000Y-114187882D01*
X162260000Y-110562463D01*
X162292192Y-110530327D01*
X162321394Y-110460001D01*
X162549999Y-110460001D01*
X162840838Y-110402149D01*
X163087400Y-110237402D01*
X165814802Y-107510000D01*
X167239303Y-107510000D01*
X167066371Y-107682630D01*
X166853243Y-108195900D01*
X166852758Y-108751661D01*
X167064990Y-109265303D01*
X167457630Y-109658629D01*
X167665512Y-109744949D01*
X167459697Y-109829990D01*
X167066371Y-110222630D01*
X166853243Y-110735900D01*
X166852758Y-111291661D01*
X167064990Y-111805303D01*
X167457630Y-112198629D01*
X167665512Y-112284949D01*
X167459697Y-112369990D01*
X167066371Y-112762630D01*
X166853243Y-113275900D01*
X166852758Y-113831661D01*
X167064990Y-114345303D01*
X167457630Y-114738629D01*
X167665512Y-114824949D01*
X167459697Y-114909990D01*
X167066371Y-115302630D01*
X166853243Y-115815900D01*
X166852758Y-116371661D01*
X167064990Y-116885303D01*
X167457630Y-117278629D01*
X167970900Y-117491757D01*
X168526661Y-117492242D01*
X169040303Y-117280010D01*
X169392827Y-116928101D01*
X169392758Y-117006661D01*
X169604990Y-117520303D01*
X169997630Y-117913629D01*
X170510900Y-118126757D01*
X171066661Y-118127242D01*
X171580303Y-117915010D01*
X171973629Y-117522370D01*
X172186757Y-117009100D01*
X172187242Y-116453339D01*
X171975010Y-115939697D01*
X171582370Y-115546371D01*
X171374488Y-115460051D01*
X171580303Y-115375010D01*
X171973629Y-114982370D01*
X171987070Y-114950000D01*
X172310000Y-114950000D01*
X172600839Y-114892148D01*
X172847401Y-114727401D01*
X173537401Y-114037401D01*
X173702148Y-113790840D01*
X173760000Y-113500000D01*
X173760000Y-108250000D01*
X173749239Y-108195900D01*
X173702148Y-107959160D01*
X173537401Y-107712599D01*
X172037401Y-106212599D01*
X171790839Y-106047852D01*
X171500000Y-105990000D01*
X165500000Y-105990000D01*
X165257414Y-106038254D01*
X165209160Y-106047852D01*
X164962599Y-106212599D01*
X162260000Y-108915198D01*
X162260000Y-104915265D01*
X172186670Y-104915265D01*
X172476078Y-105615686D01*
X173011495Y-106152039D01*
X173711410Y-106442668D01*
X174469265Y-106443330D01*
X174805232Y-106304511D01*
X174804596Y-107032422D01*
X175159329Y-107890943D01*
X175815602Y-108548362D01*
X176673502Y-108904593D01*
X177602422Y-108905404D01*
X177914004Y-108776661D01*
X180380758Y-108776661D01*
X180592990Y-109290303D01*
X180985630Y-109683629D01*
X181498900Y-109896757D01*
X182054661Y-109897242D01*
X182568303Y-109685010D01*
X182961629Y-109292370D01*
X183174757Y-108779100D01*
X183175242Y-108223339D01*
X182963010Y-107709697D01*
X182570370Y-107316371D01*
X182057100Y-107103243D01*
X181501339Y-107102758D01*
X180987697Y-107314990D01*
X180594371Y-107707630D01*
X180381243Y-108220900D01*
X180380758Y-108776661D01*
X177914004Y-108776661D01*
X178460943Y-108550671D01*
X179118362Y-107894398D01*
X179440543Y-107118499D01*
X179465630Y-107143629D01*
X179978900Y-107356757D01*
X180534661Y-107357242D01*
X181048303Y-107145010D01*
X181441629Y-106752370D01*
X181455070Y-106720000D01*
X182395198Y-106720000D01*
X183240000Y-107564803D01*
X183240000Y-109935198D01*
X181985197Y-111190001D01*
X180237443Y-111190001D01*
X179936799Y-111065162D01*
X179564833Y-111064838D01*
X179221057Y-111206883D01*
X178957808Y-111469673D01*
X178815162Y-111813201D01*
X178814838Y-112185167D01*
X178956883Y-112528943D01*
X179219673Y-112792192D01*
X179563201Y-112934838D01*
X179935167Y-112935162D01*
X180278943Y-112793117D01*
X180362204Y-112710001D01*
X182299999Y-112710001D01*
X182590838Y-112652149D01*
X182837400Y-112487402D01*
X184537401Y-110787401D01*
X184702148Y-110540840D01*
X184729735Y-110402149D01*
X184760000Y-110250000D01*
X184760000Y-107250000D01*
X184702148Y-106959161D01*
X184647480Y-106877345D01*
X184537401Y-106712598D01*
X183247401Y-105422599D01*
X183000839Y-105257852D01*
X182710000Y-105200000D01*
X181455531Y-105200000D01*
X181443010Y-105169697D01*
X181050370Y-104776371D01*
X180537100Y-104563243D01*
X179981339Y-104562758D01*
X179467697Y-104774990D01*
X179074371Y-105167630D01*
X179064094Y-105192381D01*
X178464398Y-104591638D01*
X177606498Y-104235407D01*
X176677578Y-104234596D01*
X175997020Y-104515796D01*
X175997330Y-104160735D01*
X175707922Y-103460314D01*
X175172505Y-102923961D01*
X174955407Y-102833814D01*
X175211686Y-102727922D01*
X175748039Y-102192505D01*
X176038668Y-101492590D01*
X176038982Y-101133677D01*
X176715502Y-101414593D01*
X177644422Y-101415404D01*
X178502943Y-101060671D01*
X179160362Y-100404398D01*
X179342126Y-99966661D01*
X180422758Y-99966661D01*
X180634990Y-100480303D01*
X181027630Y-100873629D01*
X181540900Y-101086757D01*
X182096661Y-101087242D01*
X182610303Y-100875010D01*
X183003629Y-100482370D01*
X183216757Y-99969100D01*
X183217242Y-99413339D01*
X183005010Y-98899697D01*
X182612370Y-98506371D01*
X182099100Y-98293243D01*
X181543339Y-98292758D01*
X181029697Y-98504990D01*
X180636371Y-98897630D01*
X180423243Y-99410900D01*
X180422758Y-99966661D01*
X179342126Y-99966661D01*
X179516593Y-99546498D01*
X179517404Y-98617578D01*
X179324123Y-98149801D01*
X179507630Y-98333629D01*
X180020900Y-98546757D01*
X180576661Y-98547242D01*
X181090303Y-98335010D01*
X181483629Y-97942370D01*
X181696757Y-97429100D01*
X181697242Y-96873339D01*
X181485010Y-96359697D01*
X181092370Y-95966371D01*
X180579100Y-95753243D01*
X180023339Y-95752758D01*
X179509697Y-95964990D01*
X179116371Y-96357630D01*
X178903243Y-96870900D01*
X178902758Y-97426661D01*
X178953538Y-97549559D01*
X178506398Y-97101638D01*
X177648498Y-96745407D01*
X176719578Y-96744596D01*
X175861057Y-97099329D01*
X175203638Y-97755602D01*
X174847407Y-98613502D01*
X174846768Y-99345264D01*
X174514590Y-99207332D01*
X173756735Y-99206670D01*
X173056314Y-99496078D01*
X172519961Y-100031495D01*
X172229332Y-100731410D01*
X172228670Y-101489265D01*
X172518078Y-102189686D01*
X173053495Y-102726039D01*
X173270593Y-102816186D01*
X173014314Y-102922078D01*
X172477961Y-103457495D01*
X172187332Y-104157410D01*
X172186670Y-104915265D01*
X162260000Y-104915265D01*
X162260000Y-99260000D01*
X162685198Y-99260000D01*
X163712599Y-100287401D01*
X163959161Y-100452148D01*
X164250000Y-100510000D01*
X171500000Y-100510000D01*
X171790839Y-100452148D01*
X172037401Y-100287401D01*
X173787401Y-98537401D01*
X173952148Y-98290839D01*
X174010000Y-98000000D01*
X174010000Y-96312463D01*
X174042192Y-96280327D01*
X174184838Y-95936799D01*
X174185162Y-95564833D01*
X174043117Y-95221057D01*
X173780327Y-94957808D01*
X173607906Y-94886212D01*
X173635001Y-94750000D01*
X173635000Y-94749995D01*
X173635000Y-88250005D01*
X173635001Y-88250000D01*
X173567633Y-87911326D01*
X173567633Y-87911325D01*
X173375790Y-87624210D01*
X173375787Y-87624208D01*
X171746845Y-85995265D01*
X172228670Y-85995265D01*
X172518078Y-86695686D01*
X173053495Y-87232039D01*
X173753410Y-87522668D01*
X174511265Y-87523330D01*
X174847232Y-87384511D01*
X174846596Y-88112422D01*
X175201329Y-88970943D01*
X175857602Y-89628362D01*
X176715502Y-89984593D01*
X177644422Y-89985404D01*
X177956004Y-89856661D01*
X180422758Y-89856661D01*
X180634990Y-90370303D01*
X181027630Y-90763629D01*
X181540900Y-90976757D01*
X182096661Y-90977242D01*
X182610303Y-90765010D01*
X183003629Y-90372370D01*
X183216757Y-89859100D01*
X183217242Y-89303339D01*
X183005010Y-88789697D01*
X182612370Y-88396371D01*
X182099100Y-88183243D01*
X181543339Y-88182758D01*
X181029697Y-88394990D01*
X180636371Y-88787630D01*
X180423243Y-89300900D01*
X180422758Y-89856661D01*
X177956004Y-89856661D01*
X178502943Y-89630671D01*
X179160362Y-88974398D01*
X179482543Y-88198499D01*
X179507630Y-88223629D01*
X180020900Y-88436757D01*
X180576661Y-88437242D01*
X181090303Y-88225010D01*
X181483629Y-87832370D01*
X181696757Y-87319100D01*
X181697242Y-86763339D01*
X181485010Y-86249697D01*
X181092370Y-85856371D01*
X180579100Y-85643243D01*
X180023339Y-85642758D01*
X179509697Y-85854990D01*
X179116371Y-86247630D01*
X179106094Y-86272381D01*
X178506398Y-85671638D01*
X177648498Y-85315407D01*
X176719578Y-85314596D01*
X176039020Y-85595796D01*
X176039330Y-85240735D01*
X175749922Y-84540314D01*
X175214505Y-84003961D01*
X174514590Y-83713332D01*
X173756735Y-83712670D01*
X173056314Y-84002078D01*
X172519961Y-84537495D01*
X172229332Y-85237410D01*
X172228670Y-85995265D01*
X171746845Y-85995265D01*
X164375790Y-78624210D01*
X164088675Y-78432367D01*
X164032484Y-78421190D01*
X163750000Y-78364999D01*
X163749995Y-78365000D01*
X113250005Y-78365000D01*
X113250000Y-78364999D01*
X112967516Y-78421190D01*
X112911325Y-78432367D01*
X112624210Y-78624210D01*
X112624208Y-78624213D01*
X108124210Y-83124210D01*
X107932367Y-83411325D01*
X107932367Y-83411326D01*
X107864999Y-83750000D01*
X102627000Y-83750000D01*
X102627000Y-62049420D01*
X107002500Y-62049420D01*
X107002500Y-65549540D01*
X107046778Y-65784857D01*
X107185850Y-66000981D01*
X107398050Y-66145971D01*
X107649940Y-66196980D01*
X111150060Y-66196980D01*
X111385377Y-66152702D01*
X111601501Y-66013630D01*
X111746491Y-65801430D01*
X111797500Y-65549540D01*
X111797500Y-62049420D01*
X111753222Y-61814103D01*
X111614150Y-61597979D01*
X111401950Y-61452989D01*
X111150060Y-61401980D01*
X107649940Y-61401980D01*
X107414623Y-61446258D01*
X107198499Y-61585330D01*
X107053509Y-61797530D01*
X107002500Y-62049420D01*
X102627000Y-62049420D01*
X102627000Y-58676661D01*
X153602758Y-58676661D01*
X153814990Y-59190303D01*
X154207630Y-59583629D01*
X154415512Y-59669949D01*
X154209697Y-59754990D01*
X153816371Y-60147630D01*
X153603243Y-60660900D01*
X153602758Y-61216661D01*
X153814990Y-61730303D01*
X154207630Y-62123629D01*
X154720900Y-62336757D01*
X155276661Y-62337242D01*
X155790303Y-62125010D01*
X156183629Y-61732370D01*
X156396757Y-61219100D01*
X156397242Y-60663339D01*
X156185010Y-60149697D01*
X155792370Y-59756371D01*
X155584488Y-59670051D01*
X155790303Y-59585010D01*
X156183629Y-59192370D01*
X156396757Y-58679100D01*
X156397242Y-58123339D01*
X156185010Y-57609697D01*
X155792370Y-57216371D01*
X155279100Y-57003243D01*
X154723339Y-57002758D01*
X154209697Y-57214990D01*
X153816371Y-57607630D01*
X153603243Y-58120900D01*
X153602758Y-58676661D01*
X102627000Y-58676661D01*
X102627000Y-55673305D01*
X103414674Y-55673305D01*
X103701043Y-56366372D01*
X104230839Y-56897093D01*
X104923405Y-57184672D01*
X105673305Y-57185326D01*
X106366372Y-56898957D01*
X106897093Y-56369161D01*
X107184672Y-55676595D01*
X107185326Y-54926695D01*
X106898957Y-54233628D01*
X106369161Y-53702907D01*
X105676595Y-53415328D01*
X104926695Y-53414674D01*
X104233628Y-53701043D01*
X103702907Y-54230839D01*
X103415328Y-54923405D01*
X103414674Y-55673305D01*
X102627000Y-55673305D01*
X102627000Y-53300000D01*
X160152560Y-53300000D01*
X160152560Y-55900000D01*
X160196838Y-56135317D01*
X160335910Y-56351441D01*
X160548110Y-56496431D01*
X160800000Y-56547440D01*
X162800000Y-56547440D01*
X163035317Y-56503162D01*
X163251441Y-56364090D01*
X163356951Y-56209671D01*
X163714313Y-56448452D01*
X164340000Y-56572909D01*
X164965687Y-56448452D01*
X165496120Y-56094029D01*
X165850543Y-55563596D01*
X165975000Y-54937909D01*
X165975000Y-54262091D01*
X165850543Y-53636404D01*
X165625766Y-53300000D01*
X166612560Y-53300000D01*
X166612560Y-55900000D01*
X166656838Y-56135317D01*
X166795910Y-56351441D01*
X167008110Y-56496431D01*
X167260000Y-56547440D01*
X169260000Y-56547440D01*
X169495317Y-56503162D01*
X169711441Y-56364090D01*
X169816951Y-56209671D01*
X170174313Y-56448452D01*
X170800000Y-56572909D01*
X171425687Y-56448452D01*
X171956120Y-56094029D01*
X172237237Y-55673305D01*
X182814674Y-55673305D01*
X183101043Y-56366372D01*
X183630839Y-56897093D01*
X184323405Y-57184672D01*
X185073305Y-57185326D01*
X185766372Y-56898957D01*
X186297093Y-56369161D01*
X186584672Y-55676595D01*
X186585326Y-54926695D01*
X186298957Y-54233628D01*
X185769161Y-53702907D01*
X185076595Y-53415328D01*
X184326695Y-53414674D01*
X183633628Y-53701043D01*
X183102907Y-54230839D01*
X182815328Y-54923405D01*
X182814674Y-55673305D01*
X172237237Y-55673305D01*
X172310543Y-55563596D01*
X172435000Y-54937909D01*
X172435000Y-54262091D01*
X172310543Y-53636404D01*
X171956120Y-53105971D01*
X171425687Y-52751548D01*
X170800000Y-52627091D01*
X170174313Y-52751548D01*
X169815808Y-52991093D01*
X169724090Y-52848559D01*
X169511890Y-52703569D01*
X169260000Y-52652560D01*
X167260000Y-52652560D01*
X167024683Y-52696838D01*
X166808559Y-52835910D01*
X166663569Y-53048110D01*
X166612560Y-53300000D01*
X165625766Y-53300000D01*
X165496120Y-53105971D01*
X164965687Y-52751548D01*
X164340000Y-52627091D01*
X163714313Y-52751548D01*
X163355808Y-52991093D01*
X163264090Y-52848559D01*
X163051890Y-52703569D01*
X162800000Y-52652560D01*
X160800000Y-52652560D01*
X160564683Y-52696838D01*
X160348559Y-52835910D01*
X160203569Y-53048110D01*
X160152560Y-53300000D01*
X102627000Y-53300000D01*
X102627000Y-52627000D01*
X187373000Y-52627000D01*
X187373000Y-144707102D01*
X187373000Y-144707102D01*
G37*
X187373000Y-144707102D02*
X187169161Y-144502907D01*
X186476595Y-144215328D01*
X185726695Y-144214674D01*
X185033628Y-144501043D01*
X184502907Y-145030839D01*
X184215328Y-145723405D01*
X184214674Y-146473305D01*
X184501043Y-147166372D01*
X184707311Y-147373000D01*
X137642276Y-147373000D01*
X137765687Y-147348452D01*
X138296120Y-146994029D01*
X138650543Y-146463596D01*
X138775000Y-145837909D01*
X138775000Y-145162091D01*
X138650543Y-144536404D01*
X138296120Y-144005971D01*
X137950000Y-143774702D01*
X137950000Y-142890000D01*
X137888342Y-142580026D01*
X137800549Y-142448635D01*
X137712756Y-142317243D01*
X135572756Y-140177244D01*
X135309974Y-140001658D01*
X135000000Y-139940000D01*
X122487441Y-139940000D01*
X122186799Y-139815162D01*
X121814833Y-139814838D01*
X121471057Y-139956883D01*
X121207808Y-140219673D01*
X121065162Y-140563201D01*
X121064838Y-140935167D01*
X121206883Y-141278943D01*
X121469673Y-141542192D01*
X121813201Y-141684838D01*
X122185167Y-141685162D01*
X122488083Y-141560000D01*
X134664488Y-141560000D01*
X136330000Y-143225513D01*
X136330000Y-143774702D01*
X135983880Y-144005971D01*
X135870000Y-144176405D01*
X135756120Y-144005971D01*
X135225687Y-143651548D01*
X134600000Y-143527091D01*
X133974313Y-143651548D01*
X133615808Y-143891093D01*
X133524090Y-143748559D01*
X133311890Y-143603569D01*
X133060000Y-143552560D01*
X131060000Y-143552560D01*
X130824683Y-143596838D01*
X130608559Y-143735910D01*
X130463569Y-143948110D01*
X130412560Y-144200000D01*
X130412560Y-146800000D01*
X130456838Y-147035317D01*
X130595910Y-147251441D01*
X130773818Y-147373000D01*
X105192898Y-147373000D01*
X105397093Y-147169161D01*
X105684672Y-146476595D01*
X105685326Y-145726695D01*
X105410718Y-145062091D01*
X106225000Y-145062091D01*
X106225000Y-145737909D01*
X106349457Y-146363596D01*
X106703880Y-146894029D01*
X107234313Y-147248452D01*
X107860000Y-147372909D01*
X108485687Y-147248452D01*
X108844192Y-147008907D01*
X108935910Y-147151441D01*
X109148110Y-147296431D01*
X109400000Y-147347440D01*
X111400000Y-147347440D01*
X111635317Y-147303162D01*
X111851441Y-147164090D01*
X111996431Y-146951890D01*
X112047440Y-146700000D01*
X112047440Y-145062091D01*
X112625000Y-145062091D01*
X112625000Y-145737909D01*
X112749457Y-146363596D01*
X113103880Y-146894029D01*
X113634313Y-147248452D01*
X114260000Y-147372909D01*
X114885687Y-147248452D01*
X115244192Y-147008907D01*
X115335910Y-147151441D01*
X115548110Y-147296431D01*
X115800000Y-147347440D01*
X117800000Y-147347440D01*
X118035317Y-147303162D01*
X118251441Y-147164090D01*
X118396431Y-146951890D01*
X118447440Y-146700000D01*
X118447440Y-144100000D01*
X118403162Y-143864683D01*
X118264090Y-143648559D01*
X118051890Y-143503569D01*
X117800000Y-143452560D01*
X115800000Y-143452560D01*
X115564683Y-143496838D01*
X115348559Y-143635910D01*
X115243049Y-143790329D01*
X114885687Y-143551548D01*
X114260000Y-143427091D01*
X113634313Y-143551548D01*
X113103880Y-143905971D01*
X112749457Y-144436404D01*
X112625000Y-145062091D01*
X112047440Y-145062091D01*
X112047440Y-144100000D01*
X112003162Y-143864683D01*
X111864090Y-143648559D01*
X111651890Y-143503569D01*
X111400000Y-143452560D01*
X109400000Y-143452560D01*
X109164683Y-143496838D01*
X108948559Y-143635910D01*
X108843049Y-143790329D01*
X108485687Y-143551548D01*
X107860000Y-143427091D01*
X107234313Y-143551548D01*
X106703880Y-143905971D01*
X106349457Y-144436404D01*
X106225000Y-145062091D01*
X105410718Y-145062091D01*
X105398957Y-145033628D01*
X104869161Y-144502907D01*
X104176595Y-144215328D01*
X103426695Y-144214674D01*
X102733628Y-144501043D01*
X102627000Y-144607485D01*
X102627000Y-83750000D01*
X107864999Y-83750000D01*
X107865000Y-83750005D01*
X107865000Y-101749995D01*
X107864999Y-101750000D01*
X107921190Y-102032484D01*
X107932367Y-102088675D01*
X107999860Y-102189686D01*
X108124210Y-102375790D01*
X109213173Y-103464753D01*
X108957808Y-103719673D01*
X108815162Y-104063201D01*
X108814838Y-104435167D01*
X108956883Y-104778943D01*
X109024245Y-104846422D01*
X109047852Y-104965103D01*
X109212599Y-105211665D01*
X110240000Y-106239066D01*
X110240000Y-124000000D01*
X110297852Y-124290839D01*
X110462599Y-124537401D01*
X121212599Y-135287401D01*
X121459161Y-135452148D01*
X121750000Y-135510000D01*
X127740000Y-135510000D01*
X127740000Y-136500000D01*
X127797852Y-136790839D01*
X127962599Y-137037401D01*
X128040199Y-137115001D01*
X120366580Y-137115001D01*
X119675789Y-136424209D01*
X119675786Y-136424207D01*
X119592745Y-136341165D01*
X119543117Y-136221057D01*
X119280327Y-135957808D01*
X118936799Y-135815162D01*
X118564833Y-135814838D01*
X118221057Y-135956883D01*
X117957808Y-136219673D01*
X117815162Y-136563201D01*
X117814838Y-136935167D01*
X117956883Y-137278943D01*
X118219673Y-137542192D01*
X118340987Y-137592566D01*
X118424207Y-137675786D01*
X118424209Y-137675789D01*
X119374209Y-138625788D01*
X119374211Y-138625791D01*
X119661326Y-138817634D01*
X119717517Y-138828811D01*
X120000001Y-138885002D01*
X120000006Y-138885001D01*
X143999996Y-138885001D01*
X144000001Y-138885002D01*
X144282485Y-138828811D01*
X144338676Y-138817634D01*
X144625791Y-138625791D01*
X147125787Y-136125794D01*
X147125790Y-136125792D01*
X147141005Y-136103021D01*
X153762560Y-136103021D01*
X154148437Y-137036915D01*
X154862327Y-137752052D01*
X155795546Y-138139559D01*
X156806021Y-138140440D01*
X157739915Y-137754563D01*
X158455052Y-137040673D01*
X158842559Y-136107454D01*
X158843440Y-135096979D01*
X158457563Y-134163085D01*
X157743673Y-133447948D01*
X156810454Y-133060441D01*
X155799979Y-133059560D01*
X154866085Y-133445437D01*
X154150948Y-134159327D01*
X153763441Y-135092546D01*
X153762560Y-136103021D01*
X147141005Y-136103021D01*
X147317633Y-135838677D01*
X147385000Y-135500002D01*
X147385000Y-133685167D01*
X149564838Y-133685167D01*
X149706883Y-134028943D01*
X149969673Y-134292192D01*
X150313201Y-134434838D01*
X150685167Y-134435162D01*
X151028943Y-134293117D01*
X151292192Y-134030327D01*
X151434838Y-133686799D01*
X151434879Y-133639923D01*
X153814802Y-131260000D01*
X170435198Y-131260000D01*
X171037000Y-131861802D01*
X171037000Y-131862469D01*
X171006697Y-131874990D01*
X170613371Y-132267630D01*
X170463394Y-132628815D01*
X170315010Y-132269697D01*
X169922370Y-131876371D01*
X169409100Y-131663243D01*
X168853339Y-131662758D01*
X168339697Y-131874990D01*
X167946371Y-132267630D01*
X167733243Y-132780900D01*
X167733241Y-132783336D01*
X167521010Y-132269697D01*
X167128370Y-131876371D01*
X166615100Y-131663243D01*
X166059339Y-131662758D01*
X165545697Y-131874990D01*
X165152371Y-132267630D01*
X164939243Y-132780900D01*
X164938758Y-133336661D01*
X165150990Y-133850303D01*
X165543630Y-134243629D01*
X166056900Y-134456757D01*
X166612661Y-134457242D01*
X167126303Y-134245010D01*
X167519629Y-133852370D01*
X167732757Y-133339100D01*
X167732759Y-133336664D01*
X167944990Y-133850303D01*
X168337630Y-134243629D01*
X168850900Y-134456757D01*
X169406661Y-134457242D01*
X169920303Y-134245010D01*
X170313629Y-133852370D01*
X170463606Y-133491185D01*
X170611990Y-133850303D01*
X171004630Y-134243629D01*
X171517900Y-134456757D01*
X172073661Y-134457242D01*
X172587303Y-134245010D01*
X172980629Y-133852370D01*
X173181560Y-133368474D01*
X173181560Y-133822000D01*
X173225838Y-134057317D01*
X173319653Y-134203109D01*
X172917339Y-134202758D01*
X172403697Y-134414990D01*
X172010371Y-134807630D01*
X171797243Y-135320900D01*
X171797241Y-135323336D01*
X171585010Y-134809697D01*
X171192370Y-134416371D01*
X170679100Y-134203243D01*
X170123339Y-134202758D01*
X169609697Y-134414990D01*
X169216371Y-134807630D01*
X169066394Y-135168815D01*
X168918010Y-134809697D01*
X168525370Y-134416371D01*
X168012100Y-134203243D01*
X167456339Y-134202758D01*
X166942697Y-134414990D01*
X166549371Y-134807630D01*
X166336243Y-135320900D01*
X166336241Y-135323336D01*
X166124010Y-134809697D01*
X165731370Y-134416371D01*
X165218100Y-134203243D01*
X164662339Y-134202758D01*
X164148697Y-134414990D01*
X163755371Y-134807630D01*
X163542243Y-135320900D01*
X163541758Y-135876661D01*
X163753990Y-136390303D01*
X164146630Y-136783629D01*
X164659900Y-136996757D01*
X165215661Y-136997242D01*
X165729303Y-136785010D01*
X166122629Y-136392370D01*
X166335757Y-135879100D01*
X166335759Y-135876664D01*
X166547990Y-136390303D01*
X166940630Y-136783629D01*
X167453900Y-136996757D01*
X168009661Y-136997242D01*
X168523303Y-136785010D01*
X168916629Y-136392370D01*
X169066606Y-136031185D01*
X169214990Y-136390303D01*
X169562149Y-136738069D01*
X168360320Y-137939898D01*
X168314833Y-137939858D01*
X167971057Y-138081903D01*
X167707808Y-138344693D01*
X167565162Y-138688221D01*
X167564838Y-139060187D01*
X167706883Y-139403963D01*
X167969673Y-139667212D01*
X168313201Y-139809858D01*
X168685167Y-139810182D01*
X169028943Y-139668137D01*
X169292192Y-139405347D01*
X169434838Y-139061819D01*
X169434879Y-139014943D01*
X170937401Y-137512421D01*
X171102148Y-137265859D01*
X171160000Y-136975020D01*
X171160000Y-136797531D01*
X171190303Y-136785010D01*
X171583629Y-136392370D01*
X171796757Y-135879100D01*
X171796759Y-135876664D01*
X172008990Y-136390303D01*
X172401630Y-136783629D01*
X172914900Y-136996757D01*
X173470661Y-136997242D01*
X173984303Y-136785010D01*
X174377629Y-136392370D01*
X174497777Y-136103021D01*
X179162560Y-136103021D01*
X179548437Y-137036915D01*
X180262327Y-137752052D01*
X181195546Y-138139559D01*
X182206021Y-138140440D01*
X183139915Y-137754563D01*
X183855052Y-137040673D01*
X184242559Y-136107454D01*
X184243440Y-135096979D01*
X183857563Y-134163085D01*
X183143673Y-133447948D01*
X182210454Y-133060441D01*
X181199979Y-133059560D01*
X180266085Y-133445437D01*
X179550948Y-134159327D01*
X179163441Y-135092546D01*
X179162560Y-136103021D01*
X174497777Y-136103021D01*
X174590757Y-135879100D01*
X174591242Y-135323339D01*
X174379010Y-134809697D01*
X174039346Y-134469440D01*
X175353000Y-134469440D01*
X175588317Y-134425162D01*
X175804441Y-134286090D01*
X175949431Y-134073890D01*
X176000440Y-133822000D01*
X176000440Y-132298000D01*
X175956162Y-132062683D01*
X175817090Y-131846559D01*
X175604890Y-131701569D01*
X175353000Y-131650560D01*
X173829000Y-131650560D01*
X173593683Y-131694838D01*
X173377559Y-131833910D01*
X173232569Y-132046110D01*
X173181560Y-132298000D01*
X173181560Y-132752646D01*
X172982010Y-132269697D01*
X172589370Y-131876371D01*
X172557000Y-131862930D01*
X172557000Y-131547000D01*
X172499148Y-131256161D01*
X172334401Y-131009599D01*
X171287401Y-129962599D01*
X171040839Y-129797852D01*
X170750000Y-129740000D01*
X153500000Y-129740000D01*
X153209161Y-129797852D01*
X152962599Y-129962599D01*
X150360320Y-132564878D01*
X150314833Y-132564838D01*
X149971057Y-132706883D01*
X149707808Y-132969673D01*
X149565162Y-133313201D01*
X149564838Y-133685167D01*
X147385000Y-133685167D01*
X147385000Y-115185167D01*
X148064838Y-115185167D01*
X148206883Y-115528943D01*
X148440027Y-115762494D01*
X148315162Y-116063201D01*
X148314838Y-116435167D01*
X148456883Y-116778943D01*
X148552710Y-116874937D01*
X148457808Y-116969673D01*
X148315162Y-117313201D01*
X148314838Y-117685167D01*
X148456883Y-118028943D01*
X148719673Y-118292192D01*
X149063201Y-118434838D01*
X149435167Y-118435162D01*
X149778943Y-118293117D01*
X150042192Y-118030327D01*
X150184838Y-117686799D01*
X150184848Y-117675310D01*
X152055076Y-115805081D01*
X152055079Y-115805079D01*
X152225245Y-115550406D01*
X152260134Y-115375010D01*
X152285001Y-115250000D01*
X152285000Y-115249995D01*
X152285000Y-112787506D01*
X152292192Y-112780327D01*
X152434838Y-112436799D01*
X152435162Y-112064833D01*
X152293117Y-111721057D01*
X152030327Y-111457808D01*
X151686799Y-111315162D01*
X151314833Y-111314838D01*
X151285000Y-111327165D01*
X151285000Y-109787506D01*
X151292192Y-109780327D01*
X151434838Y-109436799D01*
X151435162Y-109064833D01*
X151293117Y-108721057D01*
X151030327Y-108457808D01*
X150686799Y-108315162D01*
X150314833Y-108314838D01*
X149971057Y-108456883D01*
X149707808Y-108719673D01*
X149565162Y-109063201D01*
X149564838Y-109435167D01*
X149706883Y-109778943D01*
X149715000Y-109787074D01*
X149715000Y-112326872D01*
X149686799Y-112315162D01*
X149314833Y-112314838D01*
X148971057Y-112456883D01*
X148707808Y-112719673D01*
X148565162Y-113063201D01*
X148565152Y-113074690D01*
X148444921Y-113194921D01*
X148274755Y-113449593D01*
X148254702Y-113550406D01*
X148215000Y-113750000D01*
X148215000Y-114462494D01*
X148207808Y-114469673D01*
X148065162Y-114813201D01*
X148064838Y-115185167D01*
X147385000Y-115185167D01*
X147385000Y-92500005D01*
X147385001Y-92500000D01*
X147317633Y-92161326D01*
X147317633Y-92161325D01*
X147125790Y-91874210D01*
X147125787Y-91874208D01*
X143092744Y-87841164D01*
X143043117Y-87721057D01*
X142780327Y-87457808D01*
X142436799Y-87315162D01*
X142064833Y-87314838D01*
X141721057Y-87456883D01*
X141457808Y-87719673D01*
X141315162Y-88063201D01*
X141314838Y-88435167D01*
X141456883Y-88778943D01*
X141719673Y-89042192D01*
X141840986Y-89092566D01*
X145615000Y-92866579D01*
X145615000Y-135133423D01*
X143633421Y-137115001D01*
X138959801Y-137115001D01*
X141287401Y-134787401D01*
X141361538Y-134676447D01*
X141419383Y-134816443D01*
X141682173Y-135079692D01*
X142025701Y-135222338D01*
X142397667Y-135222662D01*
X142741443Y-135080617D01*
X143004692Y-134817827D01*
X143147338Y-134474299D01*
X143147421Y-134378951D01*
X143214647Y-134278340D01*
X143272499Y-133987501D01*
X143272499Y-132302303D01*
X144139680Y-131435122D01*
X144185167Y-131435162D01*
X144528943Y-131293117D01*
X144792192Y-131030327D01*
X144934838Y-130686799D01*
X144935162Y-130314833D01*
X144793117Y-129971057D01*
X144530327Y-129707808D01*
X144186799Y-129565162D01*
X143814833Y-129564838D01*
X143471057Y-129706883D01*
X143207808Y-129969673D01*
X143065162Y-130313201D01*
X143065121Y-130360077D01*
X141975098Y-131450100D01*
X141810351Y-131696662D01*
X141752499Y-131987501D01*
X141752499Y-133465897D01*
X141683557Y-133494383D01*
X141510000Y-133667637D01*
X141510000Y-130064802D01*
X143639680Y-127935122D01*
X143685167Y-127935162D01*
X144028943Y-127793117D01*
X144292192Y-127530327D01*
X144434838Y-127186799D01*
X144435162Y-126814833D01*
X144293117Y-126471057D01*
X144030327Y-126207808D01*
X143686799Y-126065162D01*
X143314833Y-126064838D01*
X142971057Y-126206883D01*
X142707808Y-126469673D01*
X142565162Y-126813201D01*
X142565121Y-126860077D01*
X140212599Y-129212599D01*
X140047852Y-129459161D01*
X139990000Y-129750000D01*
X139990000Y-133935198D01*
X137435198Y-136490000D01*
X131062463Y-136490000D01*
X131030327Y-136457808D01*
X130686799Y-136315162D01*
X130314833Y-136314838D01*
X129971057Y-136456883D01*
X129937882Y-136490000D01*
X129564802Y-136490000D01*
X129260000Y-136185198D01*
X129260000Y-135312463D01*
X129292192Y-135280327D01*
X129434838Y-134936799D01*
X129435162Y-134564833D01*
X129293117Y-134221057D01*
X129030327Y-133957808D01*
X128686799Y-133815162D01*
X128314833Y-133814838D01*
X127971057Y-133956883D01*
X127937882Y-133990000D01*
X122064802Y-133990000D01*
X120547469Y-132472667D01*
X122102338Y-132472667D01*
X122244383Y-132816443D01*
X122507173Y-133079692D01*
X122850701Y-133222338D01*
X123222667Y-133222662D01*
X123566443Y-133080617D01*
X123599618Y-133047500D01*
X127982456Y-133047500D01*
X128313201Y-133184838D01*
X128685167Y-133185162D01*
X129028943Y-133043117D01*
X129292192Y-132780327D01*
X129434838Y-132436799D01*
X129435162Y-132064833D01*
X129293117Y-131721057D01*
X129030327Y-131457808D01*
X128686799Y-131315162D01*
X128314833Y-131314838D01*
X127971057Y-131456883D01*
X127900317Y-131527500D01*
X123599963Y-131527500D01*
X123567827Y-131495308D01*
X123224299Y-131352662D01*
X122852333Y-131352338D01*
X122508557Y-131494383D01*
X122245308Y-131757173D01*
X122102662Y-132100701D01*
X122102338Y-132472667D01*
X120547469Y-132472667D01*
X114949803Y-126875001D01*
X127114999Y-126875001D01*
X127114999Y-129874999D01*
X127172851Y-130165838D01*
X127314887Y-130378411D01*
X127314838Y-130435167D01*
X127456883Y-130778943D01*
X127719673Y-131042192D01*
X128063201Y-131184838D01*
X128435167Y-131185162D01*
X128778943Y-131043117D01*
X129042192Y-130780327D01*
X129184838Y-130436799D01*
X129185162Y-130064833D01*
X129043117Y-129721057D01*
X128780327Y-129457808D01*
X128634999Y-129397462D01*
X128634999Y-128709801D01*
X129064899Y-129139701D01*
X129064838Y-129210177D01*
X129206883Y-129553953D01*
X129469673Y-129817202D01*
X129813201Y-129959848D01*
X130185167Y-129960172D01*
X130503739Y-129828541D01*
X130603180Y-129927982D01*
X130706883Y-130178963D01*
X130969673Y-130442212D01*
X131313201Y-130584858D01*
X131685167Y-130585182D01*
X132028943Y-130443137D01*
X132292192Y-130180347D01*
X132434838Y-129836819D01*
X132435162Y-129464853D01*
X132293117Y-129121077D01*
X132030327Y-128857828D01*
X131760000Y-128745578D01*
X131760000Y-127562463D01*
X131792192Y-127530327D01*
X131934838Y-127186799D01*
X131935057Y-126935162D01*
X131935167Y-126935162D01*
X132278943Y-126793117D01*
X132542192Y-126530327D01*
X132684838Y-126186799D01*
X132685162Y-125814833D01*
X132543117Y-125471057D01*
X132280327Y-125207808D01*
X131936799Y-125065162D01*
X131564833Y-125064838D01*
X131221057Y-125206883D01*
X131187882Y-125240000D01*
X128750000Y-125240000D01*
X128459160Y-125297852D01*
X128212599Y-125462599D01*
X127337598Y-126337600D01*
X127172851Y-126584162D01*
X127114999Y-126875001D01*
X114949803Y-126875001D01*
X111760000Y-123685198D01*
X111760000Y-105924264D01*
X111702148Y-105633425D01*
X111537401Y-105386863D01*
X110656231Y-104505693D01*
X110684838Y-104436799D01*
X110684914Y-104350000D01*
X110728178Y-104350000D01*
X110848201Y-104399838D01*
X111220167Y-104400162D01*
X111563943Y-104258117D01*
X111827192Y-103995327D01*
X111969838Y-103651799D01*
X111970162Y-103279833D01*
X111828117Y-102936057D01*
X111565327Y-102672808D01*
X111221799Y-102530162D01*
X110849833Y-102529838D01*
X110801421Y-102549842D01*
X109635000Y-101383420D01*
X109635000Y-84116580D01*
X113616579Y-80135000D01*
X163383420Y-80135000D01*
X171865000Y-88616579D01*
X171865000Y-89247421D01*
X171624370Y-89006371D01*
X171111100Y-88793243D01*
X170555339Y-88792758D01*
X170041697Y-89004990D01*
X169689173Y-89356899D01*
X169689242Y-89278339D01*
X169477010Y-88764697D01*
X169084370Y-88371371D01*
X168571100Y-88158243D01*
X168015339Y-88157758D01*
X167501697Y-88369990D01*
X167108371Y-88762630D01*
X166895243Y-89275900D01*
X166894758Y-89831661D01*
X167106990Y-90345303D01*
X167499630Y-90738629D01*
X167707512Y-90824949D01*
X167501697Y-90909990D01*
X167108371Y-91302630D01*
X166895243Y-91815900D01*
X166894758Y-92371661D01*
X167106990Y-92885303D01*
X167499630Y-93278629D01*
X167707512Y-93364949D01*
X167501697Y-93449990D01*
X167108371Y-93842630D01*
X166895243Y-94355900D01*
X166894758Y-94911661D01*
X167106990Y-95425303D01*
X167499630Y-95818629D01*
X167707512Y-95904949D01*
X167501697Y-95989990D01*
X167108371Y-96382630D01*
X166895243Y-96895900D01*
X166894758Y-97451661D01*
X167106990Y-97965303D01*
X167499630Y-98358629D01*
X168012900Y-98571757D01*
X168568661Y-98572242D01*
X169082303Y-98360010D01*
X169434827Y-98008101D01*
X169434758Y-98086661D01*
X169646990Y-98600303D01*
X170036007Y-98990000D01*
X164564802Y-98990000D01*
X163537401Y-97962599D01*
X163290839Y-97797852D01*
X163000000Y-97740000D01*
X162260000Y-97740000D01*
X162260000Y-91062463D01*
X162292192Y-91030327D01*
X162434838Y-90686799D01*
X162435162Y-90314833D01*
X162293117Y-89971057D01*
X162030327Y-89707808D01*
X161686799Y-89565162D01*
X161314833Y-89564838D01*
X160971057Y-89706883D01*
X160707808Y-89969673D01*
X160565162Y-90313201D01*
X160564838Y-90685167D01*
X160706883Y-91028943D01*
X160740000Y-91062118D01*
X160740000Y-97937537D01*
X160707808Y-97969673D01*
X160565162Y-98313201D01*
X160564838Y-98685167D01*
X160706883Y-99028943D01*
X160740000Y-99062118D01*
X160740000Y-109437537D01*
X160707808Y-109469673D01*
X160565162Y-109813201D01*
X160564838Y-110185167D01*
X160706883Y-110528943D01*
X160740000Y-110562118D01*
X160740000Y-114187537D01*
X160707808Y-114219673D01*
X160565162Y-114563201D01*
X160564838Y-114935167D01*
X160706883Y-115278943D01*
X160740000Y-115312118D01*
X160740000Y-121187537D01*
X160707808Y-121219673D01*
X160565162Y-121563201D01*
X160564838Y-121935167D01*
X160706883Y-122278943D01*
X160969673Y-122542192D01*
X161313201Y-122684838D01*
X161685167Y-122685162D01*
X162028943Y-122543117D01*
X162292192Y-122280327D01*
X162434838Y-121936799D01*
X162435162Y-121564833D01*
X162293117Y-121221057D01*
X162260000Y-121187882D01*
X162260000Y-120409265D01*
X172186670Y-120409265D01*
X172476078Y-121109686D01*
X173011495Y-121646039D01*
X173711410Y-121936668D01*
X174469265Y-121937330D01*
X175169686Y-121647922D01*
X175706039Y-121112505D01*
X175996668Y-120412590D01*
X175996982Y-120053677D01*
X176673502Y-120334593D01*
X177602422Y-120335404D01*
X178460943Y-119980671D01*
X179118362Y-119324398D01*
X179300126Y-118886661D01*
X180380758Y-118886661D01*
X180592990Y-119400303D01*
X180985630Y-119793629D01*
X181498900Y-120006757D01*
X182054661Y-120007242D01*
X182568303Y-119795010D01*
X182961629Y-119402370D01*
X183174757Y-118889100D01*
X183175242Y-118333339D01*
X182963010Y-117819697D01*
X182570370Y-117426371D01*
X182057100Y-117213243D01*
X181501339Y-117212758D01*
X180987697Y-117424990D01*
X180594371Y-117817630D01*
X180381243Y-118330900D01*
X180380758Y-118886661D01*
X179300126Y-118886661D01*
X179474593Y-118466498D01*
X179475404Y-117537578D01*
X179282123Y-117069801D01*
X179465630Y-117253629D01*
X179978900Y-117466757D01*
X180534661Y-117467242D01*
X181048303Y-117255010D01*
X181441629Y-116862370D01*
X181654757Y-116349100D01*
X181655242Y-115793339D01*
X181443010Y-115279697D01*
X181050370Y-114886371D01*
X180537100Y-114673243D01*
X179981339Y-114672758D01*
X179467697Y-114884990D01*
X179074371Y-115277630D01*
X178861243Y-115790900D01*
X178860758Y-116346661D01*
X178911538Y-116469559D01*
X178464398Y-116021638D01*
X177606498Y-115665407D01*
X176677578Y-115664596D01*
X175819057Y-116019329D01*
X175161638Y-116675602D01*
X174805407Y-117533502D01*
X174804768Y-118265264D01*
X174472590Y-118127332D01*
X173714735Y-118126670D01*
X173014314Y-118416078D01*
X172477961Y-118951495D01*
X172187332Y-119651410D01*
X172186670Y-120409265D01*
X162260000Y-120409265D01*
X162260000Y-115312463D01*
X162292192Y-115280327D01*
X162434838Y-114936799D01*
X162435162Y-114564833D01*
X162293117Y-114221057D01*
X162260000Y-114187882D01*
X162260000Y-110562463D01*
X162292192Y-110530327D01*
X162321394Y-110460001D01*
X162549999Y-110460001D01*
X162840838Y-110402149D01*
X163087400Y-110237402D01*
X165814802Y-107510000D01*
X167239303Y-107510000D01*
X167066371Y-107682630D01*
X166853243Y-108195900D01*
X166852758Y-108751661D01*
X167064990Y-109265303D01*
X167457630Y-109658629D01*
X167665512Y-109744949D01*
X167459697Y-109829990D01*
X167066371Y-110222630D01*
X166853243Y-110735900D01*
X166852758Y-111291661D01*
X167064990Y-111805303D01*
X167457630Y-112198629D01*
X167665512Y-112284949D01*
X167459697Y-112369990D01*
X167066371Y-112762630D01*
X166853243Y-113275900D01*
X166852758Y-113831661D01*
X167064990Y-114345303D01*
X167457630Y-114738629D01*
X167665512Y-114824949D01*
X167459697Y-114909990D01*
X167066371Y-115302630D01*
X166853243Y-115815900D01*
X166852758Y-116371661D01*
X167064990Y-116885303D01*
X167457630Y-117278629D01*
X167970900Y-117491757D01*
X168526661Y-117492242D01*
X169040303Y-117280010D01*
X169392827Y-116928101D01*
X169392758Y-117006661D01*
X169604990Y-117520303D01*
X169997630Y-117913629D01*
X170510900Y-118126757D01*
X171066661Y-118127242D01*
X171580303Y-117915010D01*
X171973629Y-117522370D01*
X172186757Y-117009100D01*
X172187242Y-116453339D01*
X171975010Y-115939697D01*
X171582370Y-115546371D01*
X171374488Y-115460051D01*
X171580303Y-115375010D01*
X171973629Y-114982370D01*
X171987070Y-114950000D01*
X172310000Y-114950000D01*
X172600839Y-114892148D01*
X172847401Y-114727401D01*
X173537401Y-114037401D01*
X173702148Y-113790840D01*
X173760000Y-113500000D01*
X173760000Y-108250000D01*
X173749239Y-108195900D01*
X173702148Y-107959160D01*
X173537401Y-107712599D01*
X172037401Y-106212599D01*
X171790839Y-106047852D01*
X171500000Y-105990000D01*
X165500000Y-105990000D01*
X165257414Y-106038254D01*
X165209160Y-106047852D01*
X164962599Y-106212599D01*
X162260000Y-108915198D01*
X162260000Y-104915265D01*
X172186670Y-104915265D01*
X172476078Y-105615686D01*
X173011495Y-106152039D01*
X173711410Y-106442668D01*
X174469265Y-106443330D01*
X174805232Y-106304511D01*
X174804596Y-107032422D01*
X175159329Y-107890943D01*
X175815602Y-108548362D01*
X176673502Y-108904593D01*
X177602422Y-108905404D01*
X177914004Y-108776661D01*
X180380758Y-108776661D01*
X180592990Y-109290303D01*
X180985630Y-109683629D01*
X181498900Y-109896757D01*
X182054661Y-109897242D01*
X182568303Y-109685010D01*
X182961629Y-109292370D01*
X183174757Y-108779100D01*
X183175242Y-108223339D01*
X182963010Y-107709697D01*
X182570370Y-107316371D01*
X182057100Y-107103243D01*
X181501339Y-107102758D01*
X180987697Y-107314990D01*
X180594371Y-107707630D01*
X180381243Y-108220900D01*
X180380758Y-108776661D01*
X177914004Y-108776661D01*
X178460943Y-108550671D01*
X179118362Y-107894398D01*
X179440543Y-107118499D01*
X179465630Y-107143629D01*
X179978900Y-107356757D01*
X180534661Y-107357242D01*
X181048303Y-107145010D01*
X181441629Y-106752370D01*
X181455070Y-106720000D01*
X182395198Y-106720000D01*
X183240000Y-107564803D01*
X183240000Y-109935198D01*
X181985197Y-111190001D01*
X180237443Y-111190001D01*
X179936799Y-111065162D01*
X179564833Y-111064838D01*
X179221057Y-111206883D01*
X178957808Y-111469673D01*
X178815162Y-111813201D01*
X178814838Y-112185167D01*
X178956883Y-112528943D01*
X179219673Y-112792192D01*
X179563201Y-112934838D01*
X179935167Y-112935162D01*
X180278943Y-112793117D01*
X180362204Y-112710001D01*
X182299999Y-112710001D01*
X182590838Y-112652149D01*
X182837400Y-112487402D01*
X184537401Y-110787401D01*
X184702148Y-110540840D01*
X184729735Y-110402149D01*
X184760000Y-110250000D01*
X184760000Y-107250000D01*
X184702148Y-106959161D01*
X184647480Y-106877345D01*
X184537401Y-106712598D01*
X183247401Y-105422599D01*
X183000839Y-105257852D01*
X182710000Y-105200000D01*
X181455531Y-105200000D01*
X181443010Y-105169697D01*
X181050370Y-104776371D01*
X180537100Y-104563243D01*
X179981339Y-104562758D01*
X179467697Y-104774990D01*
X179074371Y-105167630D01*
X179064094Y-105192381D01*
X178464398Y-104591638D01*
X177606498Y-104235407D01*
X176677578Y-104234596D01*
X175997020Y-104515796D01*
X175997330Y-104160735D01*
X175707922Y-103460314D01*
X175172505Y-102923961D01*
X174955407Y-102833814D01*
X175211686Y-102727922D01*
X175748039Y-102192505D01*
X176038668Y-101492590D01*
X176038982Y-101133677D01*
X176715502Y-101414593D01*
X177644422Y-101415404D01*
X178502943Y-101060671D01*
X179160362Y-100404398D01*
X179342126Y-99966661D01*
X180422758Y-99966661D01*
X180634990Y-100480303D01*
X181027630Y-100873629D01*
X181540900Y-101086757D01*
X182096661Y-101087242D01*
X182610303Y-100875010D01*
X183003629Y-100482370D01*
X183216757Y-99969100D01*
X183217242Y-99413339D01*
X183005010Y-98899697D01*
X182612370Y-98506371D01*
X182099100Y-98293243D01*
X181543339Y-98292758D01*
X181029697Y-98504990D01*
X180636371Y-98897630D01*
X180423243Y-99410900D01*
X180422758Y-99966661D01*
X179342126Y-99966661D01*
X179516593Y-99546498D01*
X179517404Y-98617578D01*
X179324123Y-98149801D01*
X179507630Y-98333629D01*
X180020900Y-98546757D01*
X180576661Y-98547242D01*
X181090303Y-98335010D01*
X181483629Y-97942370D01*
X181696757Y-97429100D01*
X181697242Y-96873339D01*
X181485010Y-96359697D01*
X181092370Y-95966371D01*
X180579100Y-95753243D01*
X180023339Y-95752758D01*
X179509697Y-95964990D01*
X179116371Y-96357630D01*
X178903243Y-96870900D01*
X178902758Y-97426661D01*
X178953538Y-97549559D01*
X178506398Y-97101638D01*
X177648498Y-96745407D01*
X176719578Y-96744596D01*
X175861057Y-97099329D01*
X175203638Y-97755602D01*
X174847407Y-98613502D01*
X174846768Y-99345264D01*
X174514590Y-99207332D01*
X173756735Y-99206670D01*
X173056314Y-99496078D01*
X172519961Y-100031495D01*
X172229332Y-100731410D01*
X172228670Y-101489265D01*
X172518078Y-102189686D01*
X173053495Y-102726039D01*
X173270593Y-102816186D01*
X173014314Y-102922078D01*
X172477961Y-103457495D01*
X172187332Y-104157410D01*
X172186670Y-104915265D01*
X162260000Y-104915265D01*
X162260000Y-99260000D01*
X162685198Y-99260000D01*
X163712599Y-100287401D01*
X163959161Y-100452148D01*
X164250000Y-100510000D01*
X171500000Y-100510000D01*
X171790839Y-100452148D01*
X172037401Y-100287401D01*
X173787401Y-98537401D01*
X173952148Y-98290839D01*
X174010000Y-98000000D01*
X174010000Y-96312463D01*
X174042192Y-96280327D01*
X174184838Y-95936799D01*
X174185162Y-95564833D01*
X174043117Y-95221057D01*
X173780327Y-94957808D01*
X173607906Y-94886212D01*
X173635001Y-94750000D01*
X173635000Y-94749995D01*
X173635000Y-88250005D01*
X173635001Y-88250000D01*
X173567633Y-87911326D01*
X173567633Y-87911325D01*
X173375790Y-87624210D01*
X173375787Y-87624208D01*
X171746845Y-85995265D01*
X172228670Y-85995265D01*
X172518078Y-86695686D01*
X173053495Y-87232039D01*
X173753410Y-87522668D01*
X174511265Y-87523330D01*
X174847232Y-87384511D01*
X174846596Y-88112422D01*
X175201329Y-88970943D01*
X175857602Y-89628362D01*
X176715502Y-89984593D01*
X177644422Y-89985404D01*
X177956004Y-89856661D01*
X180422758Y-89856661D01*
X180634990Y-90370303D01*
X181027630Y-90763629D01*
X181540900Y-90976757D01*
X182096661Y-90977242D01*
X182610303Y-90765010D01*
X183003629Y-90372370D01*
X183216757Y-89859100D01*
X183217242Y-89303339D01*
X183005010Y-88789697D01*
X182612370Y-88396371D01*
X182099100Y-88183243D01*
X181543339Y-88182758D01*
X181029697Y-88394990D01*
X180636371Y-88787630D01*
X180423243Y-89300900D01*
X180422758Y-89856661D01*
X177956004Y-89856661D01*
X178502943Y-89630671D01*
X179160362Y-88974398D01*
X179482543Y-88198499D01*
X179507630Y-88223629D01*
X180020900Y-88436757D01*
X180576661Y-88437242D01*
X181090303Y-88225010D01*
X181483629Y-87832370D01*
X181696757Y-87319100D01*
X181697242Y-86763339D01*
X181485010Y-86249697D01*
X181092370Y-85856371D01*
X180579100Y-85643243D01*
X180023339Y-85642758D01*
X179509697Y-85854990D01*
X179116371Y-86247630D01*
X179106094Y-86272381D01*
X178506398Y-85671638D01*
X177648498Y-85315407D01*
X176719578Y-85314596D01*
X176039020Y-85595796D01*
X176039330Y-85240735D01*
X175749922Y-84540314D01*
X175214505Y-84003961D01*
X174514590Y-83713332D01*
X173756735Y-83712670D01*
X173056314Y-84002078D01*
X172519961Y-84537495D01*
X172229332Y-85237410D01*
X172228670Y-85995265D01*
X171746845Y-85995265D01*
X164375790Y-78624210D01*
X164088675Y-78432367D01*
X164032484Y-78421190D01*
X163750000Y-78364999D01*
X163749995Y-78365000D01*
X113250005Y-78365000D01*
X113250000Y-78364999D01*
X112967516Y-78421190D01*
X112911325Y-78432367D01*
X112624210Y-78624210D01*
X112624208Y-78624213D01*
X108124210Y-83124210D01*
X107932367Y-83411325D01*
X107932367Y-83411326D01*
X107864999Y-83750000D01*
X102627000Y-83750000D01*
X102627000Y-62049420D01*
X107002500Y-62049420D01*
X107002500Y-65549540D01*
X107046778Y-65784857D01*
X107185850Y-66000981D01*
X107398050Y-66145971D01*
X107649940Y-66196980D01*
X111150060Y-66196980D01*
X111385377Y-66152702D01*
X111601501Y-66013630D01*
X111746491Y-65801430D01*
X111797500Y-65549540D01*
X111797500Y-62049420D01*
X111753222Y-61814103D01*
X111614150Y-61597979D01*
X111401950Y-61452989D01*
X111150060Y-61401980D01*
X107649940Y-61401980D01*
X107414623Y-61446258D01*
X107198499Y-61585330D01*
X107053509Y-61797530D01*
X107002500Y-62049420D01*
X102627000Y-62049420D01*
X102627000Y-58676661D01*
X153602758Y-58676661D01*
X153814990Y-59190303D01*
X154207630Y-59583629D01*
X154415512Y-59669949D01*
X154209697Y-59754990D01*
X153816371Y-60147630D01*
X153603243Y-60660900D01*
X153602758Y-61216661D01*
X153814990Y-61730303D01*
X154207630Y-62123629D01*
X154720900Y-62336757D01*
X155276661Y-62337242D01*
X155790303Y-62125010D01*
X156183629Y-61732370D01*
X156396757Y-61219100D01*
X156397242Y-60663339D01*
X156185010Y-60149697D01*
X155792370Y-59756371D01*
X155584488Y-59670051D01*
X155790303Y-59585010D01*
X156183629Y-59192370D01*
X156396757Y-58679100D01*
X156397242Y-58123339D01*
X156185010Y-57609697D01*
X155792370Y-57216371D01*
X155279100Y-57003243D01*
X154723339Y-57002758D01*
X154209697Y-57214990D01*
X153816371Y-57607630D01*
X153603243Y-58120900D01*
X153602758Y-58676661D01*
X102627000Y-58676661D01*
X102627000Y-55673305D01*
X103414674Y-55673305D01*
X103701043Y-56366372D01*
X104230839Y-56897093D01*
X104923405Y-57184672D01*
X105673305Y-57185326D01*
X106366372Y-56898957D01*
X106897093Y-56369161D01*
X107184672Y-55676595D01*
X107185326Y-54926695D01*
X106898957Y-54233628D01*
X106369161Y-53702907D01*
X105676595Y-53415328D01*
X104926695Y-53414674D01*
X104233628Y-53701043D01*
X103702907Y-54230839D01*
X103415328Y-54923405D01*
X103414674Y-55673305D01*
X102627000Y-55673305D01*
X102627000Y-53300000D01*
X160152560Y-53300000D01*
X160152560Y-55900000D01*
X160196838Y-56135317D01*
X160335910Y-56351441D01*
X160548110Y-56496431D01*
X160800000Y-56547440D01*
X162800000Y-56547440D01*
X163035317Y-56503162D01*
X163251441Y-56364090D01*
X163356951Y-56209671D01*
X163714313Y-56448452D01*
X164340000Y-56572909D01*
X164965687Y-56448452D01*
X165496120Y-56094029D01*
X165850543Y-55563596D01*
X165975000Y-54937909D01*
X165975000Y-54262091D01*
X165850543Y-53636404D01*
X165625766Y-53300000D01*
X166612560Y-53300000D01*
X166612560Y-55900000D01*
X166656838Y-56135317D01*
X166795910Y-56351441D01*
X167008110Y-56496431D01*
X167260000Y-56547440D01*
X169260000Y-56547440D01*
X169495317Y-56503162D01*
X169711441Y-56364090D01*
X169816951Y-56209671D01*
X170174313Y-56448452D01*
X170800000Y-56572909D01*
X171425687Y-56448452D01*
X171956120Y-56094029D01*
X172237237Y-55673305D01*
X182814674Y-55673305D01*
X183101043Y-56366372D01*
X183630839Y-56897093D01*
X184323405Y-57184672D01*
X185073305Y-57185326D01*
X185766372Y-56898957D01*
X186297093Y-56369161D01*
X186584672Y-55676595D01*
X186585326Y-54926695D01*
X186298957Y-54233628D01*
X185769161Y-53702907D01*
X185076595Y-53415328D01*
X184326695Y-53414674D01*
X183633628Y-53701043D01*
X183102907Y-54230839D01*
X182815328Y-54923405D01*
X182814674Y-55673305D01*
X172237237Y-55673305D01*
X172310543Y-55563596D01*
X172435000Y-54937909D01*
X172435000Y-54262091D01*
X172310543Y-53636404D01*
X171956120Y-53105971D01*
X171425687Y-52751548D01*
X170800000Y-52627091D01*
X170174313Y-52751548D01*
X169815808Y-52991093D01*
X169724090Y-52848559D01*
X169511890Y-52703569D01*
X169260000Y-52652560D01*
X167260000Y-52652560D01*
X167024683Y-52696838D01*
X166808559Y-52835910D01*
X166663569Y-53048110D01*
X166612560Y-53300000D01*
X165625766Y-53300000D01*
X165496120Y-53105971D01*
X164965687Y-52751548D01*
X164340000Y-52627091D01*
X163714313Y-52751548D01*
X163355808Y-52991093D01*
X163264090Y-52848559D01*
X163051890Y-52703569D01*
X162800000Y-52652560D01*
X160800000Y-52652560D01*
X160564683Y-52696838D01*
X160348559Y-52835910D01*
X160203569Y-53048110D01*
X160152560Y-53300000D01*
X102627000Y-53300000D01*
X102627000Y-52627000D01*
X187373000Y-52627000D01*
X187373000Y-144707102D01*
M02*
