G04 #@! TF.FileFunction,Copper,L1,Top,Signal*
%FSLAX46Y46*%
G04 Gerber Fmt 4.6, Leading zero omitted, Abs format (unit mm)*
G04 Created by KiCad (PCBNEW 4.0.2-stable) date 09/06/16 16:45:41*
%MOMM*%
G01*
G04 APERTURE LIST*
%ADD10C,0.100000*%
%ADD11R,0.750000X0.800000*%
%ADD12R,0.800000X0.750000*%
%ADD13R,1.600200X4.000500*%
%ADD14R,1.000000X1.600000*%
%ADD15R,1.600000X1.000000*%
%ADD16R,3.500120X3.500120*%
%ADD17R,0.450000X0.590000*%
%ADD18R,3.200000X2.600000*%
%ADD19R,1.198880X1.198880*%
%ADD20C,3.810000*%
%ADD21R,1.524000X1.524000*%
%ADD22C,1.524000*%
%ADD23C,3.400000*%
%ADD24C,2.540000*%
%ADD25R,0.500000X0.500000*%
%ADD26R,2.900680X5.400040*%
%ADD27R,1.198880X0.599440*%
%ADD28R,2.000000X2.600000*%
%ADD29O,2.000000X2.600000*%
%ADD30R,0.900000X0.500000*%
%ADD31R,0.900000X1.700000*%
%ADD32R,0.500000X0.900000*%
%ADD33R,1.270000X0.900000*%
%ADD34R,0.800000X1.450000*%
%ADD35R,4.600000X1.100000*%
%ADD36R,9.400000X10.800000*%
%ADD37R,0.700000X0.250000*%
%ADD38R,0.250000X0.700000*%
%ADD39R,1.725000X1.725000*%
%ADD40R,3.000000X0.900000*%
%ADD41R,0.900000X3.000000*%
%ADD42R,2.300000X3.000000*%
%ADD43R,10.000000X2.000000*%
%ADD44R,2.000000X6.150000*%
%ADD45R,2.032000X3.657600*%
%ADD46R,2.032000X1.016000*%
%ADD47R,0.600000X1.500000*%
%ADD48C,0.600000*%
%ADD49C,0.250000*%
%ADD50C,0.500000*%
%ADD51C,1.000000*%
%ADD52C,0.300000*%
%ADD53C,0.350000*%
%ADD54C,0.254000*%
G04 APERTURE END LIST*
D10*
D11*
X118200000Y-53750000D03*
X118200000Y-52250000D03*
D12*
X103450000Y-68000000D03*
X104950000Y-68000000D03*
D13*
X129200000Y-70749460D03*
X129200000Y-76850540D03*
X152800000Y-70949460D03*
X152800000Y-77050540D03*
D11*
X124800000Y-138950000D03*
X124800000Y-137450000D03*
X126800000Y-133650000D03*
X126800000Y-135150000D03*
X127500000Y-138500000D03*
X127500000Y-140000000D03*
D12*
X134550000Y-139600000D03*
X133050000Y-139600000D03*
X137750000Y-139600000D03*
X136250000Y-139600000D03*
D14*
X174062242Y-64291594D03*
X177062242Y-64291594D03*
X174062242Y-67691594D03*
X177062242Y-67691594D03*
D12*
X155000000Y-97000000D03*
X153500000Y-97000000D03*
X155000000Y-109750000D03*
X153500000Y-109750000D03*
X155000000Y-92250000D03*
X153500000Y-92250000D03*
X155000000Y-114750000D03*
X153500000Y-114750000D03*
D15*
X149400000Y-145700000D03*
X149400000Y-142700000D03*
D12*
X174250000Y-72250000D03*
X175750000Y-72250000D03*
X158000000Y-121500000D03*
X159500000Y-121500000D03*
X174250000Y-79750000D03*
X175750000Y-79750000D03*
D14*
X185500000Y-82000000D03*
X182500000Y-82000000D03*
D16*
X109400000Y-63799480D03*
X109400000Y-57800000D03*
X104701000Y-60799740D03*
D17*
X111200000Y-71745000D03*
X111200000Y-73855000D03*
D18*
X141200000Y-77400000D03*
X141200000Y-70200000D03*
D19*
X105649020Y-96200000D03*
X103550980Y-96200000D03*
X105449020Y-111600000D03*
X103350980Y-111600000D03*
X105449020Y-114200000D03*
X103350980Y-114200000D03*
X105449020Y-116800000D03*
X103350980Y-116800000D03*
X105449020Y-119600000D03*
X103350980Y-119600000D03*
X105449020Y-122600000D03*
X103350980Y-122600000D03*
D20*
X156303000Y-135600000D03*
X181703000Y-135600000D03*
D21*
X174591000Y-133060000D03*
D22*
X171797000Y-133060000D03*
X169130000Y-133060000D03*
X166336000Y-133060000D03*
X163542000Y-133060000D03*
X173194000Y-135600000D03*
X170400000Y-135600000D03*
X167733000Y-135600000D03*
X164939000Y-135600000D03*
D23*
X177182000Y-87650000D03*
X177182000Y-99080000D03*
D22*
X170832000Y-97810000D03*
X168292000Y-97175000D03*
X170832000Y-95270000D03*
X168292000Y-94635000D03*
X170832000Y-92730000D03*
X168292000Y-92095000D03*
X170832000Y-90190000D03*
D24*
X174134000Y-85618000D03*
X174134000Y-101112000D03*
D22*
X180300000Y-97150000D03*
X181820000Y-89580000D03*
X181820000Y-99690000D03*
X180300000Y-87040000D03*
X168292000Y-89555000D03*
D23*
X177140000Y-106570000D03*
X177140000Y-118000000D03*
D22*
X170790000Y-116730000D03*
X168250000Y-116095000D03*
X170790000Y-114190000D03*
X168250000Y-113555000D03*
X170790000Y-111650000D03*
X168250000Y-111015000D03*
X170790000Y-109110000D03*
D24*
X174092000Y-104538000D03*
X174092000Y-120032000D03*
D22*
X180258000Y-116070000D03*
X181778000Y-108500000D03*
X181778000Y-118610000D03*
X180258000Y-105960000D03*
X168250000Y-108475000D03*
D25*
X126500000Y-130400000D03*
X126500000Y-129400000D03*
X126500000Y-128400000D03*
X123250000Y-130250000D03*
X123250000Y-129250000D03*
X123250000Y-128250000D03*
D26*
X138249540Y-60600000D03*
X148150460Y-60600000D03*
D27*
X174250000Y-76701040D03*
X174250000Y-75298960D03*
D28*
X132060000Y-145500000D03*
D29*
X134600000Y-145500000D03*
X137140000Y-145500000D03*
X139680000Y-145500000D03*
D28*
X161800000Y-54600000D03*
D29*
X164340000Y-54600000D03*
D28*
X168260000Y-54600000D03*
D29*
X170800000Y-54600000D03*
D30*
X107750000Y-102750000D03*
X107750000Y-101250000D03*
D31*
X103750000Y-73600000D03*
X106650000Y-73600000D03*
D32*
X109550000Y-96200000D03*
X108050000Y-96200000D03*
X109550000Y-110600000D03*
X108050000Y-110600000D03*
X109550000Y-112800000D03*
X108050000Y-112800000D03*
X109550000Y-115000000D03*
X108050000Y-115000000D03*
X109550000Y-117200000D03*
X108050000Y-117200000D03*
X109600000Y-119600000D03*
X108100000Y-119600000D03*
X109150000Y-106000000D03*
X107650000Y-106000000D03*
X155000000Y-87500000D03*
X153500000Y-87500000D03*
X155250000Y-105000000D03*
X153750000Y-105000000D03*
D30*
X159250000Y-90500000D03*
X159250000Y-89000000D03*
X159250000Y-92250000D03*
X159250000Y-93750000D03*
X159250000Y-98500000D03*
X159250000Y-100000000D03*
X159250000Y-97000000D03*
X159250000Y-95500000D03*
X159250000Y-108500000D03*
X159250000Y-107000000D03*
X159250000Y-110000000D03*
X159250000Y-111500000D03*
X159250000Y-116250000D03*
X159250000Y-117750000D03*
X159250000Y-114750000D03*
X159250000Y-113250000D03*
D22*
X155000000Y-58400000D03*
X155000000Y-55860000D03*
X155000000Y-60940000D03*
D33*
X103000000Y-102600000D03*
X103000000Y-106800000D03*
D34*
X101115000Y-101325000D03*
X101115000Y-108075000D03*
D35*
X129550000Y-58400000D03*
X129550000Y-60100000D03*
X129550000Y-63500000D03*
D36*
X120400000Y-61800000D03*
D35*
X129550000Y-61800000D03*
X129550000Y-65200000D03*
D37*
X136062500Y-135287500D03*
X136062500Y-134787500D03*
X136062500Y-134287500D03*
X136062500Y-133787500D03*
X136062500Y-133287500D03*
X136062500Y-132787500D03*
X136062500Y-132287500D03*
X136062500Y-131787500D03*
D38*
X135412500Y-131137500D03*
X134912500Y-131137500D03*
X134412500Y-131137500D03*
X133912500Y-131137500D03*
X133412500Y-131137500D03*
X132912500Y-131137500D03*
X132412500Y-131137500D03*
X131912500Y-131137500D03*
D37*
X131262500Y-131787500D03*
X131262500Y-132287500D03*
X131262500Y-132787500D03*
X131262500Y-133287500D03*
X131262500Y-133787500D03*
X131262500Y-134287500D03*
X131262500Y-134787500D03*
X131262500Y-135287500D03*
D38*
X131912500Y-135937500D03*
X132412500Y-135937500D03*
X132912500Y-135937500D03*
X133412500Y-135937500D03*
X133912500Y-135937500D03*
X134412500Y-135937500D03*
X134912500Y-135937500D03*
X135412500Y-135937500D03*
D39*
X132800000Y-132675000D03*
X132800000Y-134400000D03*
X134525000Y-132675000D03*
X134525000Y-134400000D03*
D40*
X113920000Y-88225000D03*
X113920000Y-89495000D03*
X113920000Y-90765000D03*
X113920000Y-92035000D03*
X113920000Y-93305000D03*
X113920000Y-94575000D03*
X113920000Y-95845000D03*
X113920000Y-97115000D03*
X113920000Y-98385000D03*
X113920000Y-99655000D03*
X113920000Y-100925000D03*
X113920000Y-102195000D03*
X113920000Y-103465000D03*
X113920000Y-104735000D03*
X113920000Y-106005000D03*
X113920000Y-107275000D03*
X113920000Y-108545000D03*
X113920000Y-109815000D03*
X113920000Y-111085000D03*
X113920000Y-112355000D03*
X113920000Y-113625000D03*
X113920000Y-114895000D03*
X113920000Y-116165000D03*
X113920000Y-117435000D03*
D41*
X120485000Y-122170000D03*
X121755000Y-122170000D03*
X123025000Y-122170000D03*
X124295000Y-122170000D03*
X125565000Y-122170000D03*
X126835000Y-122170000D03*
X128105000Y-122170000D03*
X129375000Y-122170000D03*
X130645000Y-122170000D03*
X131915000Y-122170000D03*
X133185000Y-122170000D03*
X134455000Y-122170000D03*
X135725000Y-122170000D03*
X136995000Y-122170000D03*
X138265000Y-122170000D03*
X139535000Y-122170000D03*
D40*
X146100000Y-117435000D03*
X146100000Y-116165000D03*
X146100000Y-114895000D03*
X146100000Y-113625000D03*
X146100000Y-112355000D03*
X146100000Y-111085000D03*
X146100000Y-109815000D03*
X146100000Y-108545000D03*
X146100000Y-107275000D03*
X146100000Y-106005000D03*
X146100000Y-104735000D03*
X146100000Y-103465000D03*
X146100000Y-102195000D03*
X146100000Y-100925000D03*
X146100000Y-99655000D03*
X146100000Y-98385000D03*
X146100000Y-97115000D03*
X146100000Y-95845000D03*
X146100000Y-94575000D03*
X146100000Y-93305000D03*
X146100000Y-92035000D03*
X146100000Y-90765000D03*
X146100000Y-89495000D03*
X146100000Y-88225000D03*
D41*
X139535000Y-83490000D03*
X138265000Y-83490000D03*
X136995000Y-83490000D03*
X135725000Y-83490000D03*
X134455000Y-83490000D03*
X133185000Y-83490000D03*
X131915000Y-83490000D03*
X130645000Y-83490000D03*
X129375000Y-83490000D03*
X128105000Y-83490000D03*
X126835000Y-83490000D03*
X125565000Y-83490000D03*
X124295000Y-83490000D03*
X123025000Y-83490000D03*
X121755000Y-83490000D03*
X120485000Y-83490000D03*
D42*
X118580000Y-83490000D03*
X118580000Y-122170000D03*
X141440000Y-122170000D03*
X141440000Y-83490000D03*
D43*
X130010000Y-90130000D03*
X130010000Y-115530000D03*
D44*
X121120000Y-97750000D03*
X121120000Y-107910000D03*
X138900000Y-107910000D03*
X138900000Y-97750000D03*
D45*
X162860242Y-66691594D03*
D46*
X169464242Y-66691594D03*
X169464242Y-64405594D03*
X169464242Y-68977594D03*
D12*
X116141628Y-127200000D03*
X114641628Y-127200000D03*
X110800000Y-127200000D03*
X112300000Y-127200000D03*
D11*
X118400000Y-133450000D03*
X118400000Y-134950000D03*
D12*
X108550000Y-127200000D03*
X107050000Y-127200000D03*
X114650000Y-139600000D03*
X116150000Y-139600000D03*
D28*
X110400000Y-145400000D03*
D29*
X107860000Y-145400000D03*
D28*
X116800000Y-145400000D03*
D29*
X114260000Y-145400000D03*
D47*
X115931628Y-131436066D03*
X114661628Y-131436066D03*
X113391628Y-131436066D03*
X112121628Y-131436066D03*
X110851628Y-131436066D03*
X109581628Y-131436066D03*
X108311628Y-131436066D03*
X107041628Y-131436066D03*
X107041628Y-136836066D03*
X108311628Y-136836066D03*
X109581628Y-136836066D03*
X110851628Y-136836066D03*
X112121628Y-136836066D03*
X113391628Y-136836066D03*
X114661628Y-136836066D03*
X115931628Y-136836066D03*
D31*
X185650000Y-124000000D03*
X182750000Y-124000000D03*
D48*
X121120000Y-107910000D03*
X121120000Y-97750000D03*
X130010000Y-90130000D03*
X138900000Y-97750000D03*
X138900000Y-107910000D03*
X130010000Y-115530000D03*
X132800000Y-134400000D03*
X134525000Y-134400000D03*
X134525000Y-132675000D03*
X132800000Y-132675000D03*
X153500000Y-115750000D03*
X152500000Y-109750000D03*
X152350000Y-92750000D03*
X153500000Y-98500000D03*
X130250000Y-135500000D03*
X169500000Y-71250000D03*
X129500000Y-139500000D03*
X126800000Y-136200000D03*
X179750000Y-112000000D03*
X143500000Y-127000000D03*
X109750000Y-104250000D03*
X130500000Y-137250000D03*
X128500000Y-134750000D03*
X118750000Y-136750000D03*
X142250000Y-88250000D03*
X173250000Y-95750000D03*
X161500000Y-98500000D03*
X161500000Y-110000000D03*
X161500000Y-114750000D03*
X161500000Y-121750000D03*
X161500000Y-90500000D03*
X111035000Y-103465000D03*
X150500000Y-133500000D03*
X144000000Y-130500000D03*
X142212500Y-134287500D03*
X168500000Y-138875020D03*
X149500000Y-113250000D03*
X149000000Y-115000000D03*
X149250000Y-116250000D03*
X150500000Y-109250000D03*
X151500000Y-112250000D03*
X149250000Y-117500000D03*
X122000000Y-140750000D03*
X128500000Y-132250000D03*
X123037500Y-132287500D03*
X130000000Y-129025010D03*
X128500000Y-127500000D03*
X131500000Y-129650020D03*
X131000000Y-127000000D03*
X128250000Y-130250000D03*
X131750000Y-126000000D03*
D49*
X153500000Y-114750000D02*
X153500000Y-115750000D01*
X153500000Y-109750000D02*
X152500000Y-109750000D01*
X153500000Y-92250000D02*
X152850000Y-92250000D01*
X152850000Y-92250000D02*
X152350000Y-92750000D01*
X153500000Y-97000000D02*
X153500000Y-98500000D01*
X130462500Y-135287500D02*
X130250000Y-135500000D01*
X131262500Y-135287500D02*
X130462500Y-135287500D01*
D50*
X169500000Y-70021352D02*
X169500000Y-71250000D01*
X169464242Y-68977594D02*
X169464242Y-69985594D01*
X169464242Y-69985594D02*
X169500000Y-70021352D01*
X129000000Y-140000000D02*
X129500000Y-139500000D01*
X127500000Y-140000000D02*
X129000000Y-140000000D01*
X126800000Y-135150000D02*
X126800000Y-136200000D01*
X114650000Y-139600000D02*
X114650000Y-136847694D01*
X114650000Y-136847694D02*
X114661628Y-136836066D01*
D51*
X138265000Y-83490000D02*
X139535000Y-83490000D01*
X136995000Y-83490000D02*
X138265000Y-83490000D01*
X135725000Y-83490000D02*
X136995000Y-83490000D01*
X134455000Y-83490000D02*
X135725000Y-83490000D01*
X133185000Y-83490000D02*
X134455000Y-83490000D01*
X131915000Y-83490000D02*
X133185000Y-83490000D01*
X130645000Y-83490000D02*
X131915000Y-83490000D01*
X129375000Y-83490000D02*
X130645000Y-83490000D01*
X128105000Y-83490000D02*
X129375000Y-83490000D01*
X126835000Y-83490000D02*
X128105000Y-83490000D01*
X125565000Y-83490000D02*
X126835000Y-83490000D01*
X124295000Y-83490000D02*
X125565000Y-83490000D01*
X123025000Y-83490000D02*
X124295000Y-83490000D01*
X121755000Y-83490000D02*
X123025000Y-83490000D01*
X120485000Y-83490000D02*
X121755000Y-83490000D01*
X129550000Y-58400000D02*
X123800000Y-58400000D01*
X123800000Y-58400000D02*
X120400000Y-61800000D01*
X120400000Y-61800000D02*
X129550000Y-61800000D01*
X100600000Y-68000000D02*
X100600000Y-73600000D01*
X100600000Y-73600000D02*
X100600000Y-99800000D01*
X103750000Y-73600000D02*
X100600000Y-73600000D01*
X189400000Y-50600000D02*
X118200000Y-50600000D01*
X118200000Y-50600000D02*
X100600000Y-50600000D01*
X118200000Y-52250000D02*
X118200000Y-50600000D01*
X100600000Y-50600000D02*
X100600000Y-68000000D01*
X103450000Y-68000000D02*
X102050000Y-68000000D01*
X102050000Y-68000000D02*
X100600000Y-68000000D01*
X189400000Y-124000000D02*
X189400000Y-81800000D01*
X189400000Y-81800000D02*
X189400000Y-50600000D01*
X185500000Y-82000000D02*
X189200000Y-82000000D01*
X189200000Y-82000000D02*
X189400000Y-81800000D01*
X189400000Y-149400000D02*
X189400000Y-124000000D01*
X185650000Y-124000000D02*
X189400000Y-124000000D01*
X100800000Y-149400000D02*
X149400000Y-149400000D01*
X149400000Y-149400000D02*
X189400000Y-149400000D01*
X149400000Y-145700000D02*
X149400000Y-149400000D01*
X101115000Y-108075000D02*
X101115000Y-109800000D01*
X101115000Y-109800000D02*
X100600000Y-110315000D01*
X100600000Y-110315000D02*
X100600000Y-149200000D01*
X100600000Y-149200000D02*
X100800000Y-149400000D01*
X100600000Y-99800000D02*
X101115000Y-100315000D01*
X101115000Y-100315000D02*
X101115000Y-101325000D01*
X129200000Y-70749460D02*
X129200000Y-65550000D01*
X129200000Y-65550000D02*
X129550000Y-65200000D01*
X119505000Y-71745000D02*
X120500540Y-70749460D01*
X120500540Y-70749460D02*
X129200000Y-70749460D01*
X111200000Y-71745000D02*
X119505000Y-71745000D01*
X109400000Y-67400000D02*
X111200000Y-69200000D01*
X111200000Y-69200000D02*
X111200000Y-71745000D01*
X109400000Y-63799480D02*
X109400000Y-67400000D01*
X106000000Y-66975000D02*
X106000000Y-64449420D01*
X106000000Y-64449420D02*
X106649940Y-63799480D01*
X106649940Y-63799480D02*
X109400000Y-63799480D01*
X104950000Y-68000000D02*
X104975000Y-68000000D01*
X104975000Y-68000000D02*
X106000000Y-66975000D01*
X160060000Y-60940000D02*
X161800000Y-59200000D01*
X161800000Y-59200000D02*
X161800000Y-54600000D01*
X155000000Y-60940000D02*
X160060000Y-60940000D01*
X152000000Y-66250000D02*
X152800000Y-67050000D01*
X152800000Y-67050000D02*
X152800000Y-70949460D01*
X150100440Y-66250000D02*
X152000000Y-66250000D01*
X148150460Y-60600000D02*
X148150460Y-64300020D01*
X148150460Y-64300020D02*
X150100440Y-66250000D01*
X151100000Y-60600000D02*
X151440000Y-60940000D01*
X151440000Y-60940000D02*
X155000000Y-60940000D01*
X148150460Y-60600000D02*
X151100000Y-60600000D01*
X148150460Y-60600000D02*
X148150460Y-61849680D01*
D49*
X133412500Y-135937500D02*
X133412500Y-137087500D01*
X133412500Y-137087500D02*
X131750000Y-138750000D01*
X130250000Y-141250000D02*
X125500000Y-141250000D01*
X131750000Y-138750000D02*
X131750000Y-139750000D01*
X131750000Y-139750000D02*
X130250000Y-141250000D01*
X125500000Y-141250000D02*
X124800000Y-140550000D01*
X124800000Y-140550000D02*
X124800000Y-138950000D01*
X129000000Y-135500000D02*
X129712500Y-134787500D01*
X129712500Y-134787500D02*
X131262500Y-134787500D01*
X129000000Y-136000000D02*
X129000000Y-135500000D01*
X127550000Y-137450000D02*
X129000000Y-136000000D01*
X124800000Y-137450000D02*
X127550000Y-137450000D01*
X179750000Y-112000000D02*
X178250000Y-112000000D01*
X143799999Y-126700001D02*
X143500000Y-127000000D01*
X178250000Y-112000000D02*
X166500000Y-123750000D01*
X166500000Y-123750000D02*
X146750000Y-123750000D01*
X146750000Y-123750000D02*
X143799999Y-126700001D01*
X109750000Y-101750000D02*
X109750000Y-104250000D01*
X109250000Y-101250000D02*
X109750000Y-101750000D01*
X107750000Y-101250000D02*
X109250000Y-101250000D01*
X131262500Y-134287500D02*
X131262500Y-133787500D01*
X131977180Y-137250000D02*
X132412500Y-136814680D01*
X132412500Y-136814680D02*
X132412500Y-135937500D01*
X130500000Y-137250000D02*
X131977180Y-137250000D01*
X128962500Y-134287500D02*
X128500000Y-134750000D01*
X131262500Y-134287500D02*
X128962500Y-134287500D01*
D52*
X174250000Y-79750000D02*
X174250000Y-81750000D01*
X174250000Y-81750000D02*
X175500000Y-83000000D01*
X175500000Y-83000000D02*
X179000000Y-83000000D01*
X179000000Y-83000000D02*
X180300000Y-84300000D01*
X180300000Y-84300000D02*
X180300000Y-87040000D01*
X185500000Y-104000000D02*
X183540000Y-105960000D01*
X183540000Y-105960000D02*
X180258000Y-105960000D01*
X185500000Y-89750000D02*
X185500000Y-104000000D01*
X182750000Y-87000000D02*
X185500000Y-89750000D01*
X181417630Y-87000000D02*
X182750000Y-87000000D01*
X180300000Y-87040000D02*
X181377630Y-87040000D01*
X181377630Y-87040000D02*
X181417630Y-87000000D01*
D49*
X128400000Y-133650000D02*
X128537500Y-133787500D01*
X128537500Y-133787500D02*
X131262500Y-133787500D01*
X126800000Y-133650000D02*
X128400000Y-133650000D01*
D50*
X174250000Y-76701040D02*
X174250000Y-79750000D01*
D49*
X131363590Y-138500000D02*
X132912500Y-136951090D01*
X132912500Y-136951090D02*
X132912500Y-135937500D01*
X127500000Y-138500000D02*
X131363590Y-138500000D01*
X134412500Y-137662500D02*
X134550000Y-137800000D01*
X134550000Y-137800000D02*
X134550000Y-139600000D01*
X134412500Y-135937500D02*
X134412500Y-137662500D01*
X133050000Y-138700000D02*
X133912500Y-137837500D01*
X133912500Y-137837500D02*
X133912500Y-137087500D01*
X133050000Y-139600000D02*
X133050000Y-138700000D01*
X133912500Y-135937500D02*
X133912500Y-137087500D01*
X134912500Y-137162500D02*
X136250000Y-138500000D01*
X136250000Y-138500000D02*
X136250000Y-139600000D01*
X134912500Y-135937500D02*
X134912500Y-137162500D01*
D50*
X118400000Y-134950000D02*
X118400000Y-135150000D01*
X118400000Y-135150000D02*
X118750000Y-135500000D01*
X118750000Y-135500000D02*
X118750000Y-136325736D01*
X118750000Y-136325736D02*
X118750000Y-136750000D01*
X142250000Y-88250000D02*
X146075000Y-88250000D01*
X146075000Y-88250000D02*
X146100000Y-88225000D01*
D51*
X165000000Y-62250000D02*
X167155594Y-64405594D01*
X167155594Y-64405594D02*
X169464242Y-64405594D01*
X161750000Y-62250000D02*
X165000000Y-62250000D01*
X160000000Y-64000000D02*
X161750000Y-62250000D01*
X160000000Y-81750000D02*
X160000000Y-64000000D01*
X159125000Y-82625000D02*
X160000000Y-81750000D01*
X150250000Y-82625000D02*
X159125000Y-82625000D01*
X146100000Y-88225000D02*
X146100000Y-86775000D01*
X146100000Y-86775000D02*
X150250000Y-82625000D01*
X146100000Y-89495000D02*
X146100000Y-88225000D01*
D53*
X118600000Y-139600000D02*
X124500000Y-145500000D01*
X124500000Y-145500000D02*
X132060000Y-145500000D01*
X116150000Y-139600000D02*
X118600000Y-139600000D01*
D50*
X116150000Y-139600000D02*
X116150000Y-138725000D01*
X116150000Y-138725000D02*
X115931628Y-138506628D01*
X115931628Y-138506628D02*
X115931628Y-136836066D01*
X115931628Y-136836066D02*
X115931628Y-135568372D01*
X115931628Y-135568372D02*
X116550000Y-134950000D01*
X116550000Y-134950000D02*
X118400000Y-134950000D01*
D51*
X169464242Y-64405594D02*
X173948242Y-64405594D01*
X173948242Y-64405594D02*
X174062242Y-64291594D01*
X170800000Y-58700000D02*
X169464242Y-60035758D01*
X169464242Y-60035758D02*
X169464242Y-64405594D01*
X170800000Y-54600000D02*
X170800000Y-58700000D01*
X161750000Y-84500000D02*
X162860242Y-83389758D01*
X162860242Y-83389758D02*
X162860242Y-66691594D01*
X152500000Y-84500000D02*
X161750000Y-84500000D01*
X151500000Y-85500000D02*
X152500000Y-84500000D01*
X151500000Y-87865000D02*
X151500000Y-85500000D01*
X146100000Y-90765000D02*
X148600000Y-90765000D01*
X148600000Y-90765000D02*
X151500000Y-87865000D01*
X146100000Y-90765000D02*
X146100000Y-92035000D01*
D50*
X174250000Y-72250000D02*
X174250000Y-75298960D01*
X174062242Y-67691594D02*
X174062242Y-72062242D01*
X174062242Y-72062242D02*
X174250000Y-72250000D01*
D51*
X169464242Y-66691594D02*
X171480242Y-66691594D01*
X171480242Y-66691594D02*
X172480242Y-67691594D01*
X172480242Y-67691594D02*
X174062242Y-67691594D01*
X169464242Y-66691594D02*
X162860242Y-66691594D01*
D49*
X159500000Y-121500000D02*
X161250000Y-121500000D01*
X161250000Y-121500000D02*
X161500000Y-121750000D01*
X159250000Y-110000000D02*
X161500000Y-110000000D01*
X172770000Y-95270000D02*
X173250000Y-95750000D01*
X170832000Y-95270000D02*
X172770000Y-95270000D01*
X159950000Y-98500000D02*
X161500000Y-98500000D01*
X159250000Y-98500000D02*
X159950000Y-98500000D01*
X159250000Y-114750000D02*
X161500000Y-114750000D01*
X159250000Y-90500000D02*
X161500000Y-90500000D01*
D50*
X113920000Y-103465000D02*
X111035000Y-103465000D01*
D52*
X159250000Y-97000000D02*
X159250000Y-98500000D01*
X155000000Y-97000000D02*
X155700000Y-97000000D01*
X155700000Y-97000000D02*
X159250000Y-97000000D01*
X159250000Y-90500000D02*
X159250000Y-92250000D01*
X155000000Y-92250000D02*
X155700000Y-92250000D01*
X155700000Y-92250000D02*
X159250000Y-92250000D01*
X159250000Y-116250000D02*
X159250000Y-114750000D01*
X159250000Y-110000000D02*
X159250000Y-108500000D01*
X157000000Y-109750000D02*
X157250000Y-110000000D01*
X157250000Y-110000000D02*
X159250000Y-110000000D01*
X155000000Y-109750000D02*
X157000000Y-109750000D01*
X155000000Y-114750000D02*
X159250000Y-114750000D01*
D51*
X138249540Y-60600000D02*
X138249540Y-64300020D01*
X141200000Y-67250480D02*
X141200000Y-70200000D01*
X138249540Y-64300020D02*
X141200000Y-67250480D01*
X129550000Y-63500000D02*
X132850000Y-63500000D01*
X132850000Y-63500000D02*
X135750000Y-60600000D01*
X135750000Y-60600000D02*
X138249540Y-60600000D01*
D50*
X108050000Y-96200000D02*
X105649020Y-96200000D01*
X107000000Y-111148460D02*
X107000000Y-110900000D01*
X107000000Y-110900000D02*
X107300000Y-110600000D01*
X107300000Y-110600000D02*
X108050000Y-110600000D01*
X105449020Y-111600000D02*
X106548460Y-111600000D01*
X106548460Y-111600000D02*
X107000000Y-111148460D01*
X105449020Y-114200000D02*
X106548460Y-114200000D01*
X107000000Y-113100000D02*
X107300000Y-112800000D01*
X107300000Y-112800000D02*
X108050000Y-112800000D01*
X106548460Y-114200000D02*
X107000000Y-113748460D01*
X107000000Y-113748460D02*
X107000000Y-113100000D01*
X105449020Y-116800000D02*
X106548460Y-116800000D01*
X107000000Y-115300000D02*
X107300000Y-115000000D01*
X106548460Y-116800000D02*
X107000000Y-116348460D01*
X107000000Y-116348460D02*
X107000000Y-115300000D01*
X107300000Y-115000000D02*
X108050000Y-115000000D01*
X107000000Y-117500000D02*
X107300000Y-117200000D01*
X107300000Y-117200000D02*
X108050000Y-117200000D01*
X107000000Y-119148460D02*
X107000000Y-117500000D01*
X105449020Y-119600000D02*
X106548460Y-119600000D01*
X106548460Y-119600000D02*
X107000000Y-119148460D01*
X105449020Y-122600000D02*
X106548460Y-122600000D01*
X106548460Y-122600000D02*
X108100000Y-121048460D01*
X108100000Y-121048460D02*
X108100000Y-119600000D01*
D49*
X149287500Y-132287500D02*
X150500000Y-133500000D01*
X136062500Y-132287500D02*
X149287500Y-132287500D01*
X136062500Y-135287500D02*
X138037500Y-135287500D01*
X138037500Y-135287500D02*
X142500000Y-139750000D01*
X176000000Y-139750000D02*
X178250000Y-137500000D01*
X142500000Y-139750000D02*
X176000000Y-139750000D01*
X178250000Y-137500000D02*
X178250000Y-132250000D01*
X178250000Y-132250000D02*
X176250000Y-130250000D01*
X176250000Y-130250000D02*
X170250000Y-130250000D01*
X170250000Y-130250000D02*
X169130000Y-131370000D01*
X169130000Y-131370000D02*
X169130000Y-133060000D01*
X165500000Y-130500000D02*
X166336000Y-131336000D01*
X166336000Y-131336000D02*
X166336000Y-133060000D01*
X144000000Y-130500000D02*
X165500000Y-130500000D01*
X138310320Y-134287500D02*
X142212500Y-134287500D01*
X136062500Y-134287500D02*
X138310320Y-134287500D01*
X138310320Y-134287500D02*
X138347820Y-134250000D01*
X136062500Y-132787500D02*
X145037500Y-132787500D01*
X145037500Y-132787500D02*
X150500000Y-138250000D01*
X173194000Y-137306000D02*
X173194000Y-135600000D01*
X150500000Y-138250000D02*
X172250000Y-138250000D01*
X172250000Y-138250000D02*
X173194000Y-137306000D01*
X136062500Y-134787500D02*
X138173910Y-134787500D01*
X168075736Y-138875020D02*
X168500000Y-138875020D01*
X142261430Y-138875020D02*
X168075736Y-138875020D01*
X138173910Y-134787500D02*
X142261430Y-138875020D01*
X167500000Y-137500000D02*
X167733000Y-137267000D01*
X167733000Y-137267000D02*
X167733000Y-135600000D01*
X164250000Y-137500000D02*
X167500000Y-137500000D01*
X158537500Y-131787500D02*
X164250000Y-137500000D01*
X136062500Y-131787500D02*
X158537500Y-131787500D01*
D52*
X170250000Y-100000000D02*
X170832000Y-99418000D01*
X170832000Y-99418000D02*
X170832000Y-97810000D01*
X159250000Y-100000000D02*
X170250000Y-100000000D01*
X152405000Y-99655000D02*
X152750000Y-100000000D01*
X152750000Y-100000000D02*
X159250000Y-100000000D01*
X146100000Y-99655000D02*
X152405000Y-99655000D01*
X163250000Y-95500000D02*
X164925000Y-97175000D01*
X164925000Y-97175000D02*
X168292000Y-97175000D01*
X159250000Y-95500000D02*
X163250000Y-95500000D01*
X149865000Y-98385000D02*
X152750000Y-95500000D01*
X152750000Y-95500000D02*
X159250000Y-95500000D01*
X146100000Y-98385000D02*
X149865000Y-98385000D01*
X170000000Y-87250000D02*
X170832000Y-88082000D01*
X170832000Y-88082000D02*
X170832000Y-89112370D01*
X170832000Y-89112370D02*
X170832000Y-90190000D01*
X161750000Y-87250000D02*
X170000000Y-87250000D01*
X159250000Y-89000000D02*
X160000000Y-89000000D01*
X160000000Y-89000000D02*
X161750000Y-87250000D01*
X146100000Y-95845000D02*
X147900000Y-95845000D01*
X147900000Y-95845000D02*
X154745000Y-89000000D01*
X154745000Y-89000000D02*
X158500000Y-89000000D01*
X158500000Y-89000000D02*
X159250000Y-89000000D01*
X175500000Y-90250000D02*
X180072370Y-90250000D01*
X180072370Y-90250000D02*
X180742370Y-89580000D01*
X180742370Y-89580000D02*
X181820000Y-89580000D01*
X171500000Y-86250000D02*
X175500000Y-90250000D01*
X156800000Y-86250000D02*
X171500000Y-86250000D01*
X155000000Y-87500000D02*
X155550000Y-87500000D01*
X155550000Y-87500000D02*
X156800000Y-86250000D01*
X165750000Y-90500000D02*
X166695000Y-89555000D01*
X166695000Y-89555000D02*
X168292000Y-89555000D01*
X165750000Y-92250000D02*
X165750000Y-90500000D01*
X164250000Y-93750000D02*
X165750000Y-92250000D01*
X159250000Y-93750000D02*
X164250000Y-93750000D01*
X149385000Y-97115000D02*
X152750000Y-93750000D01*
X152750000Y-93750000D02*
X159250000Y-93750000D01*
X146100000Y-97115000D02*
X149385000Y-97115000D01*
D50*
X167987000Y-89250000D02*
X168292000Y-89555000D01*
D52*
X159250000Y-117750000D02*
X169770000Y-117750000D01*
X169770000Y-117750000D02*
X170790000Y-116730000D01*
X146100000Y-113625000D02*
X148875000Y-113625000D01*
X148875000Y-113625000D02*
X153000000Y-117750000D01*
X153000000Y-117750000D02*
X159250000Y-117750000D01*
X162750000Y-113250000D02*
X165595000Y-116095000D01*
X165595000Y-116095000D02*
X168250000Y-116095000D01*
X159250000Y-113250000D02*
X162750000Y-113250000D01*
X149500000Y-113250000D02*
X159250000Y-113250000D01*
X148005000Y-115000000D02*
X149000000Y-115000000D01*
X146100000Y-114895000D02*
X147900000Y-114895000D01*
X147900000Y-114895000D02*
X148005000Y-115000000D01*
X159250000Y-107000000D02*
X170250000Y-107000000D01*
X170250000Y-107000000D02*
X170790000Y-107540000D01*
X170790000Y-107540000D02*
X170790000Y-109110000D01*
X149250000Y-116250000D02*
X146185000Y-116250000D01*
X146185000Y-116250000D02*
X146100000Y-116165000D01*
X151000000Y-109250000D02*
X150500000Y-109250000D01*
X153250000Y-107000000D02*
X151000000Y-109250000D01*
X159250000Y-107000000D02*
X153250000Y-107000000D01*
D50*
X170750000Y-108508000D02*
X171432000Y-109190000D01*
D52*
X179000000Y-109750000D02*
X180250000Y-108500000D01*
X180250000Y-108500000D02*
X181778000Y-108500000D01*
X174750000Y-109750000D02*
X179000000Y-109750000D01*
X170000000Y-105000000D02*
X174750000Y-109750000D01*
X155250000Y-105000000D02*
X170000000Y-105000000D01*
X159250000Y-111500000D02*
X162250000Y-111500000D01*
X162250000Y-111500000D02*
X165275000Y-108475000D01*
X165275000Y-108475000D02*
X168250000Y-108475000D01*
X151500000Y-112250000D02*
X152250000Y-111500000D01*
X152250000Y-111500000D02*
X159250000Y-111500000D01*
X147965000Y-117500000D02*
X149250000Y-117500000D01*
X146100000Y-117435000D02*
X147900000Y-117435000D01*
X147900000Y-117435000D02*
X147965000Y-117500000D01*
D53*
X133750000Y-142750000D02*
X134600000Y-143600000D01*
X134600000Y-143600000D02*
X134600000Y-145500000D01*
X125000000Y-142750000D02*
X133750000Y-142750000D01*
X123250000Y-141000000D02*
X125000000Y-142750000D01*
X123250000Y-136500000D02*
X123250000Y-141000000D01*
X125000000Y-134750000D02*
X123250000Y-136500000D01*
X125000000Y-133000000D02*
X125000000Y-134750000D01*
X126500000Y-131500000D02*
X125000000Y-133000000D01*
X126500000Y-130400000D02*
X126500000Y-131500000D01*
D52*
X125565000Y-122170000D02*
X125565000Y-129015000D01*
X125565000Y-129015000D02*
X125950000Y-129400000D01*
X125950000Y-129400000D02*
X126500000Y-129400000D01*
D49*
X133650000Y-128400000D02*
X134412500Y-129162500D01*
X134412500Y-129162500D02*
X134412500Y-131137500D01*
X126500000Y-128400000D02*
X133650000Y-128400000D01*
D53*
X122000000Y-136250000D02*
X122000000Y-140750000D01*
X123900000Y-134350000D02*
X122000000Y-136250000D01*
X123900000Y-131500000D02*
X123900000Y-134350000D01*
X123250000Y-130250000D02*
X123250000Y-130850000D01*
X123250000Y-130850000D02*
X123900000Y-131500000D01*
D52*
X123250000Y-129250000D02*
X123800000Y-129250000D01*
X123800000Y-129250000D02*
X124295000Y-128755000D01*
X124295000Y-128755000D02*
X124295000Y-122170000D01*
D49*
X128500000Y-132250000D02*
X131225000Y-132250000D01*
X131225000Y-132250000D02*
X131262500Y-132287500D01*
X122000000Y-131250000D02*
X123037500Y-132287500D01*
X122000000Y-128750000D02*
X122000000Y-131250000D01*
X122500000Y-128250000D02*
X122000000Y-128750000D01*
X123250000Y-128250000D02*
X122500000Y-128250000D01*
D51*
X164340000Y-54600000D02*
X168260000Y-54600000D01*
D50*
X104285000Y-102750000D02*
X107750000Y-102750000D01*
X103000000Y-102600000D02*
X104135000Y-102600000D01*
X104135000Y-102600000D02*
X104285000Y-102750000D01*
X107750000Y-104950000D02*
X107750000Y-102750000D01*
X107650000Y-106000000D02*
X107650000Y-105050000D01*
X107650000Y-105050000D02*
X107750000Y-104950000D01*
X110500000Y-100000000D02*
X111425000Y-100925000D01*
X111425000Y-100925000D02*
X113920000Y-100925000D01*
X110500000Y-98100000D02*
X110500000Y-100000000D01*
X109550000Y-96200000D02*
X109550000Y-97150000D01*
X109550000Y-97150000D02*
X110500000Y-98100000D01*
X111500000Y-112000000D02*
X111855000Y-112355000D01*
X111855000Y-112355000D02*
X113920000Y-112355000D01*
X111500000Y-111250000D02*
X111500000Y-112000000D01*
X110850000Y-110600000D02*
X111500000Y-111250000D01*
X109550000Y-110600000D02*
X110850000Y-110600000D01*
X110550000Y-112800000D02*
X111375000Y-113625000D01*
X111375000Y-113625000D02*
X113920000Y-113625000D01*
X109550000Y-112800000D02*
X110550000Y-112800000D01*
X111250000Y-115000000D02*
X111355000Y-114895000D01*
X111355000Y-114895000D02*
X113920000Y-114895000D01*
X109550000Y-115000000D02*
X111250000Y-115000000D01*
X110300000Y-117200000D02*
X111335000Y-116165000D01*
X111335000Y-116165000D02*
X113920000Y-116165000D01*
X109550000Y-117200000D02*
X110300000Y-117200000D01*
X111250000Y-118000000D02*
X111815000Y-117435000D01*
X111815000Y-117435000D02*
X113920000Y-117435000D01*
X111250000Y-118700000D02*
X111250000Y-118000000D01*
X109600000Y-119600000D02*
X110350000Y-119600000D01*
X110350000Y-119600000D02*
X111250000Y-118700000D01*
X109150000Y-106000000D02*
X113915000Y-106000000D01*
X113915000Y-106000000D02*
X113920000Y-106005000D01*
D52*
X153000000Y-89250000D02*
X153500000Y-88750000D01*
X153500000Y-88750000D02*
X153500000Y-87500000D01*
X151955000Y-89250000D02*
X153000000Y-89250000D01*
X146100000Y-93305000D02*
X147900000Y-93305000D01*
X147900000Y-93305000D02*
X151955000Y-89250000D01*
X149225000Y-107275000D02*
X151500000Y-105000000D01*
X151500000Y-105000000D02*
X153750000Y-105000000D01*
X146100000Y-107275000D02*
X149225000Y-107275000D01*
D51*
X151250000Y-57000000D02*
X152650000Y-58400000D01*
X152650000Y-58400000D02*
X155000000Y-58400000D01*
X151250000Y-55500000D02*
X151250000Y-57000000D01*
X149000000Y-53250000D02*
X151250000Y-55500000D01*
X136250000Y-53250000D02*
X149000000Y-53250000D01*
X134750000Y-54750000D02*
X136250000Y-53250000D01*
X134750000Y-58500000D02*
X134750000Y-54750000D01*
X133150000Y-60100000D02*
X134750000Y-58500000D01*
X129550000Y-60100000D02*
X133150000Y-60100000D01*
D49*
X134000000Y-127750000D02*
X134912500Y-128662500D01*
X134912500Y-128662500D02*
X134912500Y-131137500D01*
X130000000Y-127750000D02*
X134000000Y-127750000D01*
X128105000Y-125855000D02*
X130000000Y-127750000D01*
X128105000Y-122170000D02*
X128105000Y-125855000D01*
X133525010Y-129025010D02*
X133912500Y-129412500D01*
X133912500Y-129412500D02*
X133912500Y-131137500D01*
X130000000Y-129025010D02*
X133525010Y-129025010D01*
X127250000Y-126250000D02*
X128500000Y-127500000D01*
X127250000Y-124335000D02*
X127250000Y-126250000D01*
X126835000Y-122170000D02*
X126835000Y-123920000D01*
X126835000Y-123920000D02*
X127250000Y-124335000D01*
X131500000Y-129650020D02*
X132412500Y-130562520D01*
X132412500Y-130562520D02*
X132412500Y-131137500D01*
X129500000Y-125500000D02*
X131000000Y-127000000D01*
X129500000Y-124045000D02*
X129500000Y-125500000D01*
X129375000Y-122170000D02*
X129375000Y-123920000D01*
X129375000Y-123920000D02*
X129500000Y-124045000D01*
X128250000Y-130250000D02*
X128250000Y-130674264D01*
X128250000Y-130674264D02*
X129363236Y-131787500D01*
X129363236Y-131787500D02*
X131262500Y-131787500D01*
X131750000Y-124085000D02*
X131750000Y-126000000D01*
X131915000Y-122170000D02*
X131915000Y-123920000D01*
X131915000Y-123920000D02*
X131750000Y-124085000D01*
D50*
X116141628Y-129108372D02*
X115931628Y-129318372D01*
X115931628Y-129318372D02*
X115931628Y-131436066D01*
X116141628Y-127200000D02*
X116141628Y-129108372D01*
X114641628Y-127200000D02*
X114641628Y-128075000D01*
X114641628Y-128075000D02*
X113391628Y-129325000D01*
X113391628Y-129325000D02*
X113391628Y-131436066D01*
X110800000Y-127200000D02*
X110800000Y-131384438D01*
X110800000Y-131384438D02*
X110851628Y-131436066D01*
X112300000Y-129450000D02*
X112121628Y-129628372D01*
X112121628Y-129628372D02*
X112121628Y-131436066D01*
X112300000Y-127200000D02*
X112300000Y-129450000D01*
X114661628Y-131436066D02*
X114661628Y-132686066D01*
X114661628Y-132686066D02*
X115425562Y-133450000D01*
X115425562Y-133450000D02*
X118400000Y-133450000D01*
X108550000Y-128550000D02*
X109581628Y-129581628D01*
X109581628Y-129581628D02*
X109581628Y-131436066D01*
X108550000Y-127200000D02*
X108550000Y-128550000D01*
D53*
X110400000Y-140600000D02*
X110851628Y-140148372D01*
X110851628Y-140148372D02*
X110851628Y-136836066D01*
X110400000Y-145400000D02*
X110400000Y-140600000D01*
X107860000Y-141390000D02*
X109581628Y-139668372D01*
X109581628Y-139668372D02*
X109581628Y-136836066D01*
X107860000Y-145400000D02*
X107860000Y-141390000D01*
X116250000Y-141250000D02*
X116800000Y-141800000D01*
X116800000Y-141800000D02*
X116800000Y-145400000D01*
X114849998Y-141250000D02*
X116250000Y-141250000D01*
X113391628Y-136836066D02*
X113391628Y-139791630D01*
X113391628Y-139791630D02*
X114849998Y-141250000D01*
X112121628Y-140371628D02*
X114260000Y-142510000D01*
X114260000Y-142510000D02*
X114260000Y-145400000D01*
X112121628Y-136836066D02*
X112121628Y-140371628D01*
D54*
G36*
X187373000Y-80865000D02*
X186539018Y-80865000D01*
X186464090Y-80748559D01*
X186251890Y-80603569D01*
X186000000Y-80552560D01*
X185000000Y-80552560D01*
X184764683Y-80596838D01*
X184548559Y-80735910D01*
X184403569Y-80948110D01*
X184352560Y-81200000D01*
X184352560Y-82800000D01*
X184396838Y-83035317D01*
X184535910Y-83251441D01*
X184748110Y-83396431D01*
X185000000Y-83447440D01*
X186000000Y-83447440D01*
X186235317Y-83403162D01*
X186451441Y-83264090D01*
X186539644Y-83135000D01*
X187373000Y-83135000D01*
X187373000Y-122865000D01*
X186671192Y-122865000D01*
X186564090Y-122698559D01*
X186351890Y-122553569D01*
X186100000Y-122502560D01*
X185200000Y-122502560D01*
X184964683Y-122546838D01*
X184748559Y-122685910D01*
X184603569Y-122898110D01*
X184552560Y-123150000D01*
X184552560Y-123811174D01*
X184515000Y-124000000D01*
X184552560Y-124188826D01*
X184552560Y-124850000D01*
X184596838Y-125085317D01*
X184735910Y-125301441D01*
X184948110Y-125446431D01*
X185200000Y-125497440D01*
X186100000Y-125497440D01*
X186335317Y-125453162D01*
X186551441Y-125314090D01*
X186673808Y-125135000D01*
X187373000Y-125135000D01*
X187373000Y-144707102D01*
X187169161Y-144502907D01*
X186476595Y-144215328D01*
X185726695Y-144214674D01*
X185033628Y-144501043D01*
X184502907Y-145030839D01*
X184215328Y-145723405D01*
X184214674Y-146473305D01*
X184501043Y-147166372D01*
X184707311Y-147373000D01*
X150535000Y-147373000D01*
X150535000Y-146739018D01*
X150651441Y-146664090D01*
X150796431Y-146451890D01*
X150847440Y-146200000D01*
X150847440Y-145200000D01*
X150803162Y-144964683D01*
X150664090Y-144748559D01*
X150451890Y-144603569D01*
X150200000Y-144552560D01*
X148600000Y-144552560D01*
X148364683Y-144596838D01*
X148148559Y-144735910D01*
X148003569Y-144948110D01*
X147952560Y-145200000D01*
X147952560Y-146200000D01*
X147996838Y-146435317D01*
X148135910Y-146651441D01*
X148265000Y-146739644D01*
X148265000Y-147373000D01*
X137642276Y-147373000D01*
X137765687Y-147348452D01*
X138296120Y-146994029D01*
X138650543Y-146463596D01*
X138775000Y-145837909D01*
X138775000Y-145162091D01*
X138650543Y-144536404D01*
X138296120Y-144005971D01*
X137765687Y-143651548D01*
X137140000Y-143527091D01*
X136514313Y-143651548D01*
X135983880Y-144005971D01*
X135870000Y-144176405D01*
X135756120Y-144005971D01*
X135410000Y-143774702D01*
X135410000Y-143600000D01*
X135409371Y-143596838D01*
X135348343Y-143290027D01*
X135172757Y-143027244D01*
X134322756Y-142177244D01*
X134222078Y-142109973D01*
X134059974Y-142001658D01*
X133750000Y-141940000D01*
X130559020Y-141940000D01*
X130787401Y-141787401D01*
X132171208Y-140403594D01*
X132185910Y-140426441D01*
X132398110Y-140571431D01*
X132650000Y-140622440D01*
X133450000Y-140622440D01*
X133685317Y-140578162D01*
X133799978Y-140504380D01*
X133898110Y-140571431D01*
X134150000Y-140622440D01*
X134950000Y-140622440D01*
X135185317Y-140578162D01*
X135401441Y-140439090D01*
X135402390Y-140437701D01*
X135598110Y-140571431D01*
X135850000Y-140622440D01*
X136650000Y-140622440D01*
X136885317Y-140578162D01*
X137101441Y-140439090D01*
X137246431Y-140226890D01*
X137297440Y-139975000D01*
X137297440Y-139225000D01*
X137253162Y-138989683D01*
X137114090Y-138773559D01*
X137010000Y-138702437D01*
X137010000Y-138500000D01*
X136952148Y-138209161D01*
X136787401Y-137962599D01*
X135724547Y-136899745D01*
X135772817Y-136890662D01*
X135988941Y-136751590D01*
X136133931Y-136539390D01*
X136184940Y-136287500D01*
X136184940Y-136059940D01*
X136412500Y-136059940D01*
X136478613Y-136047500D01*
X137722698Y-136047500D01*
X141962599Y-140287401D01*
X142209161Y-140452148D01*
X142500000Y-140510000D01*
X176000000Y-140510000D01*
X176290839Y-140452148D01*
X176537401Y-140287401D01*
X178787401Y-138037401D01*
X178952148Y-137790839D01*
X179010000Y-137500000D01*
X179010000Y-136103021D01*
X179162560Y-136103021D01*
X179548437Y-137036915D01*
X180262327Y-137752052D01*
X181195546Y-138139559D01*
X182206021Y-138140440D01*
X183139915Y-137754563D01*
X183855052Y-137040673D01*
X184242559Y-136107454D01*
X184243440Y-135096979D01*
X183857563Y-134163085D01*
X183143673Y-133447948D01*
X182210454Y-133060441D01*
X181199979Y-133059560D01*
X180266085Y-133445437D01*
X179550948Y-134159327D01*
X179163441Y-135092546D01*
X179162560Y-136103021D01*
X179010000Y-136103021D01*
X179010000Y-132250000D01*
X178952148Y-131959161D01*
X178787401Y-131712599D01*
X176787401Y-129712599D01*
X176540839Y-129547852D01*
X176250000Y-129490000D01*
X170250000Y-129490000D01*
X169959160Y-129547852D01*
X169712599Y-129712599D01*
X168592599Y-130832599D01*
X168427852Y-131079161D01*
X168370000Y-131370000D01*
X168370000Y-131862469D01*
X168339697Y-131874990D01*
X167946371Y-132267630D01*
X167733243Y-132780900D01*
X167733241Y-132783336D01*
X167521010Y-132269697D01*
X167128370Y-131876371D01*
X167096000Y-131862930D01*
X167096000Y-131336000D01*
X167038148Y-131045161D01*
X166873401Y-130798599D01*
X166037401Y-129962599D01*
X165790839Y-129797852D01*
X165500000Y-129740000D01*
X144562463Y-129740000D01*
X144530327Y-129707808D01*
X144186799Y-129565162D01*
X143814833Y-129564838D01*
X143471057Y-129706883D01*
X143207808Y-129969673D01*
X143065162Y-130313201D01*
X143064838Y-130685167D01*
X143206287Y-131027500D01*
X136473931Y-131027500D01*
X136412500Y-131015060D01*
X136184940Y-131015060D01*
X136184940Y-130787500D01*
X136140662Y-130552183D01*
X136001590Y-130336059D01*
X135789390Y-130191069D01*
X135672500Y-130167398D01*
X135672500Y-128662500D01*
X135614648Y-128371661D01*
X135449901Y-128125099D01*
X134537401Y-127212599D01*
X134290839Y-127047852D01*
X134000000Y-126990000D01*
X131935009Y-126990000D01*
X131935057Y-126935162D01*
X131935167Y-126935162D01*
X132278943Y-126793117D01*
X132542192Y-126530327D01*
X132684838Y-126186799D01*
X132685162Y-125814833D01*
X132543117Y-125471057D01*
X132510000Y-125437882D01*
X132510000Y-124371198D01*
X132568455Y-124283714D01*
X132735000Y-124317440D01*
X133635000Y-124317440D01*
X133826792Y-124281352D01*
X134005000Y-124317440D01*
X134905000Y-124317440D01*
X135096792Y-124281352D01*
X135275000Y-124317440D01*
X136175000Y-124317440D01*
X136366792Y-124281352D01*
X136545000Y-124317440D01*
X137445000Y-124317440D01*
X137680317Y-124273162D01*
X137896441Y-124134090D01*
X138041431Y-123921890D01*
X138092440Y-123670000D01*
X138092440Y-120670000D01*
X139642560Y-120670000D01*
X139642560Y-123670000D01*
X139686838Y-123905317D01*
X139825910Y-124121441D01*
X140038110Y-124266431D01*
X140290000Y-124317440D01*
X142590000Y-124317440D01*
X142825317Y-124273162D01*
X143041441Y-124134090D01*
X143186431Y-123921890D01*
X143237440Y-123670000D01*
X143237440Y-121125000D01*
X158452560Y-121125000D01*
X158452560Y-121875000D01*
X158496838Y-122110317D01*
X158635910Y-122326441D01*
X158848110Y-122471431D01*
X159100000Y-122522440D01*
X159900000Y-122522440D01*
X160135317Y-122478162D01*
X160351441Y-122339090D01*
X160405481Y-122260000D01*
X160699056Y-122260000D01*
X160706883Y-122278943D01*
X160969673Y-122542192D01*
X161313201Y-122684838D01*
X161685167Y-122685162D01*
X162028943Y-122543117D01*
X162292192Y-122280327D01*
X162434838Y-121936799D01*
X162435162Y-121564833D01*
X162293117Y-121221057D01*
X162030327Y-120957808D01*
X161686799Y-120815162D01*
X161566589Y-120815057D01*
X161540839Y-120797852D01*
X161250000Y-120740000D01*
X160406844Y-120740000D01*
X160364090Y-120673559D01*
X160151890Y-120528569D01*
X159900000Y-120477560D01*
X159100000Y-120477560D01*
X158864683Y-120521838D01*
X158648559Y-120660910D01*
X158503569Y-120873110D01*
X158452560Y-121125000D01*
X143237440Y-121125000D01*
X143237440Y-120670000D01*
X143193162Y-120434683D01*
X143054090Y-120218559D01*
X142841890Y-120073569D01*
X142590000Y-120022560D01*
X140290000Y-120022560D01*
X140054683Y-120066838D01*
X139838559Y-120205910D01*
X139693569Y-120418110D01*
X139642560Y-120670000D01*
X138092440Y-120670000D01*
X138048162Y-120434683D01*
X137909090Y-120218559D01*
X137696890Y-120073569D01*
X137445000Y-120022560D01*
X136545000Y-120022560D01*
X136353208Y-120058648D01*
X136175000Y-120022560D01*
X135275000Y-120022560D01*
X135083208Y-120058648D01*
X134905000Y-120022560D01*
X134005000Y-120022560D01*
X133813208Y-120058648D01*
X133635000Y-120022560D01*
X132735000Y-120022560D01*
X132543208Y-120058648D01*
X132365000Y-120022560D01*
X131465000Y-120022560D01*
X131273208Y-120058648D01*
X131095000Y-120022560D01*
X130195000Y-120022560D01*
X130003208Y-120058648D01*
X129825000Y-120022560D01*
X128925000Y-120022560D01*
X128733208Y-120058648D01*
X128555000Y-120022560D01*
X127655000Y-120022560D01*
X127463208Y-120058648D01*
X127285000Y-120022560D01*
X126385000Y-120022560D01*
X126193208Y-120058648D01*
X126015000Y-120022560D01*
X125115000Y-120022560D01*
X124923208Y-120058648D01*
X124745000Y-120022560D01*
X123845000Y-120022560D01*
X123653208Y-120058648D01*
X123475000Y-120022560D01*
X122575000Y-120022560D01*
X122339683Y-120066838D01*
X122123559Y-120205910D01*
X121978569Y-120418110D01*
X121927560Y-120670000D01*
X121927560Y-123670000D01*
X121971838Y-123905317D01*
X122110910Y-124121441D01*
X122323110Y-124266431D01*
X122575000Y-124317440D01*
X123475000Y-124317440D01*
X123510000Y-124310854D01*
X123510000Y-127354585D01*
X123500000Y-127352560D01*
X123000000Y-127352560D01*
X122764683Y-127396838D01*
X122619905Y-127490000D01*
X122500000Y-127490000D01*
X122209161Y-127547852D01*
X121962599Y-127712599D01*
X121462599Y-128212599D01*
X121297852Y-128459161D01*
X121240000Y-128750000D01*
X121240000Y-131250000D01*
X121297852Y-131540839D01*
X121462599Y-131787401D01*
X122102378Y-132427180D01*
X122102338Y-132472667D01*
X122244383Y-132816443D01*
X122507173Y-133079692D01*
X122850701Y-133222338D01*
X123090000Y-133222546D01*
X123090000Y-134014487D01*
X121427244Y-135677244D01*
X121251658Y-135940026D01*
X121190000Y-136250000D01*
X121190000Y-140262559D01*
X121065162Y-140563201D01*
X121064852Y-140919339D01*
X119172756Y-139027244D01*
X119118272Y-138990839D01*
X118909974Y-138851658D01*
X118600000Y-138790000D01*
X117035000Y-138790000D01*
X117035000Y-138725005D01*
X117035001Y-138725000D01*
X116967633Y-138386326D01*
X116967633Y-138386325D01*
X116816628Y-138160329D01*
X116816628Y-137854686D01*
X116828059Y-137837956D01*
X116879068Y-137586066D01*
X116879068Y-136086066D01*
X116845248Y-135906331D01*
X116916579Y-135835000D01*
X117610025Y-135835000D01*
X117773110Y-135946431D01*
X117865000Y-135965039D01*
X117865000Y-136443178D01*
X117815162Y-136563201D01*
X117814838Y-136935167D01*
X117956883Y-137278943D01*
X118219673Y-137542192D01*
X118563201Y-137684838D01*
X118935167Y-137685162D01*
X119278943Y-137543117D01*
X119542192Y-137280327D01*
X119684838Y-136936799D01*
X119685162Y-136564833D01*
X119635000Y-136443431D01*
X119635000Y-135500005D01*
X119635001Y-135500000D01*
X119570850Y-135177500D01*
X119567633Y-135161325D01*
X119422440Y-134944027D01*
X119422440Y-134550000D01*
X119378162Y-134314683D01*
X119304380Y-134200022D01*
X119371431Y-134101890D01*
X119422440Y-133850000D01*
X119422440Y-133050000D01*
X119378162Y-132814683D01*
X119239090Y-132598559D01*
X119026890Y-132453569D01*
X118775000Y-132402560D01*
X118025000Y-132402560D01*
X117789683Y-132446838D01*
X117606054Y-132565000D01*
X116741254Y-132565000D01*
X116828059Y-132437956D01*
X116879068Y-132186066D01*
X116879068Y-130686066D01*
X116834790Y-130450749D01*
X116816628Y-130422524D01*
X116816628Y-129660514D01*
X116959261Y-129447047D01*
X116991017Y-129287401D01*
X117026629Y-129108372D01*
X117026628Y-129108367D01*
X117026628Y-127989975D01*
X117138059Y-127826890D01*
X117189068Y-127575000D01*
X117189068Y-126825000D01*
X117144790Y-126589683D01*
X117005718Y-126373559D01*
X116793518Y-126228569D01*
X116541628Y-126177560D01*
X115741628Y-126177560D01*
X115506311Y-126221838D01*
X115391650Y-126295620D01*
X115293518Y-126228569D01*
X115041628Y-126177560D01*
X114241628Y-126177560D01*
X114006311Y-126221838D01*
X113790187Y-126360910D01*
X113645197Y-126573110D01*
X113594188Y-126825000D01*
X113594188Y-127575000D01*
X113638466Y-127810317D01*
X113644835Y-127820214D01*
X113185000Y-128280048D01*
X113185000Y-127989975D01*
X113296431Y-127826890D01*
X113347440Y-127575000D01*
X113347440Y-126825000D01*
X113303162Y-126589683D01*
X113164090Y-126373559D01*
X112951890Y-126228569D01*
X112700000Y-126177560D01*
X111900000Y-126177560D01*
X111664683Y-126221838D01*
X111550022Y-126295620D01*
X111451890Y-126228569D01*
X111200000Y-126177560D01*
X110400000Y-126177560D01*
X110164683Y-126221838D01*
X109948559Y-126360910D01*
X109803569Y-126573110D01*
X109752560Y-126825000D01*
X109752560Y-127575000D01*
X109796838Y-127810317D01*
X109915000Y-127993946D01*
X109915000Y-128663421D01*
X109435000Y-128183420D01*
X109435000Y-127989975D01*
X109546431Y-127826890D01*
X109597440Y-127575000D01*
X109597440Y-126825000D01*
X109553162Y-126589683D01*
X109414090Y-126373559D01*
X109201890Y-126228569D01*
X108950000Y-126177560D01*
X108150000Y-126177560D01*
X107914683Y-126221838D01*
X107698559Y-126360910D01*
X107553569Y-126573110D01*
X107502560Y-126825000D01*
X107502560Y-127575000D01*
X107546838Y-127810317D01*
X107665000Y-127993946D01*
X107665000Y-128549995D01*
X107664999Y-128550000D01*
X107712222Y-128787401D01*
X107732367Y-128888675D01*
X107887652Y-129121077D01*
X107924210Y-129175790D01*
X108696628Y-129948207D01*
X108696628Y-130055839D01*
X108611628Y-130038626D01*
X108011628Y-130038626D01*
X107776311Y-130082904D01*
X107677100Y-130146744D01*
X107593518Y-130089635D01*
X107341628Y-130038626D01*
X106741628Y-130038626D01*
X106506311Y-130082904D01*
X106290187Y-130221976D01*
X106145197Y-130434176D01*
X106094188Y-130686066D01*
X106094188Y-132186066D01*
X106138466Y-132421383D01*
X106277538Y-132637507D01*
X106489738Y-132782497D01*
X106741628Y-132833506D01*
X107341628Y-132833506D01*
X107576945Y-132789228D01*
X107676156Y-132725388D01*
X107759738Y-132782497D01*
X108011628Y-132833506D01*
X108611628Y-132833506D01*
X108846945Y-132789228D01*
X108946156Y-132725388D01*
X109029738Y-132782497D01*
X109281628Y-132833506D01*
X109881628Y-132833506D01*
X110116945Y-132789228D01*
X110216156Y-132725388D01*
X110299738Y-132782497D01*
X110551628Y-132833506D01*
X111151628Y-132833506D01*
X111386945Y-132789228D01*
X111486156Y-132725388D01*
X111569738Y-132782497D01*
X111821628Y-132833506D01*
X112421628Y-132833506D01*
X112656945Y-132789228D01*
X112756156Y-132725388D01*
X112839738Y-132782497D01*
X113091628Y-132833506D01*
X113691628Y-132833506D01*
X113801831Y-132812770D01*
X113828701Y-132947852D01*
X113843995Y-133024741D01*
X113994574Y-133250099D01*
X114035838Y-133311856D01*
X114799770Y-134075787D01*
X114799772Y-134075790D01*
X115086887Y-134267633D01*
X115116086Y-134273441D01*
X115425562Y-134335001D01*
X115425567Y-134335000D01*
X115913421Y-134335000D01*
X115305838Y-134942582D01*
X115113995Y-135229697D01*
X115113995Y-135229698D01*
X115046627Y-135568372D01*
X115046628Y-135568377D01*
X115046628Y-135817446D01*
X115035197Y-135834176D01*
X114984188Y-136086066D01*
X114984188Y-137586066D01*
X115028466Y-137821383D01*
X115046628Y-137849608D01*
X115046628Y-138506623D01*
X115046627Y-138506628D01*
X115082749Y-138688221D01*
X115113995Y-138845303D01*
X115176737Y-138939203D01*
X115153569Y-138973110D01*
X115102560Y-139225000D01*
X115102560Y-139975000D01*
X115146838Y-140210317D01*
X115285910Y-140426441D01*
X115305754Y-140440000D01*
X115185511Y-140440000D01*
X114201628Y-139456118D01*
X114201628Y-137964452D01*
X114288059Y-137837956D01*
X114339068Y-137586066D01*
X114339068Y-136086066D01*
X114294790Y-135850749D01*
X114155718Y-135634625D01*
X113943518Y-135489635D01*
X113691628Y-135438626D01*
X113091628Y-135438626D01*
X112856311Y-135482904D01*
X112757100Y-135546744D01*
X112673518Y-135489635D01*
X112421628Y-135438626D01*
X111821628Y-135438626D01*
X111586311Y-135482904D01*
X111487100Y-135546744D01*
X111403518Y-135489635D01*
X111151628Y-135438626D01*
X110551628Y-135438626D01*
X110316311Y-135482904D01*
X110217100Y-135546744D01*
X110133518Y-135489635D01*
X109881628Y-135438626D01*
X109281628Y-135438626D01*
X109046311Y-135482904D01*
X108947100Y-135546744D01*
X108863518Y-135489635D01*
X108611628Y-135438626D01*
X108011628Y-135438626D01*
X107776311Y-135482904D01*
X107677100Y-135546744D01*
X107593518Y-135489635D01*
X107341628Y-135438626D01*
X106741628Y-135438626D01*
X106506311Y-135482904D01*
X106290187Y-135621976D01*
X106145197Y-135834176D01*
X106094188Y-136086066D01*
X106094188Y-137586066D01*
X106138466Y-137821383D01*
X106277538Y-138037507D01*
X106489738Y-138182497D01*
X106741628Y-138233506D01*
X107341628Y-138233506D01*
X107576945Y-138189228D01*
X107676156Y-138125388D01*
X107759738Y-138182497D01*
X108011628Y-138233506D01*
X108611628Y-138233506D01*
X108771628Y-138203400D01*
X108771628Y-139332859D01*
X107287244Y-140817244D01*
X107111658Y-141080026D01*
X107050000Y-141390000D01*
X107050000Y-143674702D01*
X106703880Y-143905971D01*
X106349457Y-144436404D01*
X106225000Y-145062091D01*
X106225000Y-145737909D01*
X106349457Y-146363596D01*
X106703880Y-146894029D01*
X107234313Y-147248452D01*
X107860000Y-147372909D01*
X108485687Y-147248452D01*
X108844192Y-147008907D01*
X108935910Y-147151441D01*
X109148110Y-147296431D01*
X109400000Y-147347440D01*
X111400000Y-147347440D01*
X111635317Y-147303162D01*
X111851441Y-147164090D01*
X111996431Y-146951890D01*
X112047440Y-146700000D01*
X112047440Y-144100000D01*
X112003162Y-143864683D01*
X111864090Y-143648559D01*
X111651890Y-143503569D01*
X111400000Y-143452560D01*
X111210000Y-143452560D01*
X111210000Y-140935513D01*
X111409585Y-140735928D01*
X111479685Y-140840839D01*
X111548872Y-140944384D01*
X113450000Y-142845513D01*
X113450000Y-143674702D01*
X113103880Y-143905971D01*
X112749457Y-144436404D01*
X112625000Y-145062091D01*
X112625000Y-145737909D01*
X112749457Y-146363596D01*
X113103880Y-146894029D01*
X113634313Y-147248452D01*
X114260000Y-147372909D01*
X114885687Y-147248452D01*
X115244192Y-147008907D01*
X115335910Y-147151441D01*
X115548110Y-147296431D01*
X115800000Y-147347440D01*
X117800000Y-147347440D01*
X118035317Y-147303162D01*
X118251441Y-147164090D01*
X118396431Y-146951890D01*
X118447440Y-146700000D01*
X118447440Y-144100000D01*
X118403162Y-143864683D01*
X118264090Y-143648559D01*
X118051890Y-143503569D01*
X117800000Y-143452560D01*
X117610000Y-143452560D01*
X117610000Y-141800000D01*
X117548342Y-141490026D01*
X117453671Y-141348342D01*
X117372756Y-141227243D01*
X116822756Y-140677244D01*
X116709592Y-140601630D01*
X116698826Y-140594436D01*
X116785317Y-140578162D01*
X117001441Y-140439090D01*
X117021317Y-140410000D01*
X118264488Y-140410000D01*
X123927243Y-146072756D01*
X124040366Y-146148342D01*
X124190026Y-146248342D01*
X124500000Y-146310000D01*
X130412560Y-146310000D01*
X130412560Y-146800000D01*
X130456838Y-147035317D01*
X130595910Y-147251441D01*
X130773818Y-147373000D01*
X105192898Y-147373000D01*
X105397093Y-147169161D01*
X105684672Y-146476595D01*
X105685326Y-145726695D01*
X105398957Y-145033628D01*
X104869161Y-144502907D01*
X104176595Y-144215328D01*
X103426695Y-144214674D01*
X102733628Y-144501043D01*
X102627000Y-144607485D01*
X102627000Y-111000560D01*
X104202140Y-111000560D01*
X104202140Y-112199440D01*
X104246418Y-112434757D01*
X104385490Y-112650881D01*
X104597690Y-112795871D01*
X104849580Y-112846880D01*
X106048460Y-112846880D01*
X106169894Y-112824031D01*
X106140508Y-112971760D01*
X106048460Y-112953120D01*
X104849580Y-112953120D01*
X104614263Y-112997398D01*
X104398139Y-113136470D01*
X104253149Y-113348670D01*
X104202140Y-113600560D01*
X104202140Y-114799440D01*
X104246418Y-115034757D01*
X104385490Y-115250881D01*
X104597690Y-115395871D01*
X104849580Y-115446880D01*
X106048460Y-115446880D01*
X106115000Y-115434360D01*
X106115000Y-115566595D01*
X106048460Y-115553120D01*
X104849580Y-115553120D01*
X104614263Y-115597398D01*
X104398139Y-115736470D01*
X104253149Y-115948670D01*
X104202140Y-116200560D01*
X104202140Y-117399440D01*
X104246418Y-117634757D01*
X104385490Y-117850881D01*
X104597690Y-117995871D01*
X104849580Y-118046880D01*
X106048460Y-118046880D01*
X106115000Y-118034360D01*
X106115000Y-118366595D01*
X106048460Y-118353120D01*
X104849580Y-118353120D01*
X104614263Y-118397398D01*
X104398139Y-118536470D01*
X104253149Y-118748670D01*
X104202140Y-119000560D01*
X104202140Y-120199440D01*
X104246418Y-120434757D01*
X104385490Y-120650881D01*
X104597690Y-120795871D01*
X104849580Y-120846880D01*
X106048460Y-120846880D01*
X106283777Y-120802602D01*
X106499901Y-120663530D01*
X106633434Y-120468098D01*
X106861812Y-120422670D01*
X106887135Y-120417633D01*
X107174250Y-120225790D01*
X107215000Y-120185040D01*
X107215000Y-120681881D01*
X106414652Y-121482228D01*
X106300350Y-121404129D01*
X106048460Y-121353120D01*
X104849580Y-121353120D01*
X104614263Y-121397398D01*
X104398139Y-121536470D01*
X104253149Y-121748670D01*
X104202140Y-122000560D01*
X104202140Y-123199440D01*
X104246418Y-123434757D01*
X104385490Y-123650881D01*
X104597690Y-123795871D01*
X104849580Y-123846880D01*
X106048460Y-123846880D01*
X106283777Y-123802602D01*
X106499901Y-123663530D01*
X106633434Y-123468098D01*
X106830944Y-123428810D01*
X106887135Y-123417633D01*
X107174250Y-123225790D01*
X108725787Y-121674252D01*
X108725790Y-121674250D01*
X108917633Y-121387135D01*
X108928810Y-121330944D01*
X108985001Y-121048460D01*
X108985000Y-121048455D01*
X108985000Y-120569146D01*
X109098110Y-120646431D01*
X109350000Y-120697440D01*
X109850000Y-120697440D01*
X109995830Y-120670000D01*
X116782560Y-120670000D01*
X116782560Y-123670000D01*
X116826838Y-123905317D01*
X116965910Y-124121441D01*
X117178110Y-124266431D01*
X117430000Y-124317440D01*
X119730000Y-124317440D01*
X119965317Y-124273162D01*
X120181441Y-124134090D01*
X120326431Y-123921890D01*
X120377440Y-123670000D01*
X120377440Y-120670000D01*
X120333162Y-120434683D01*
X120194090Y-120218559D01*
X119981890Y-120073569D01*
X119730000Y-120022560D01*
X117430000Y-120022560D01*
X117194683Y-120066838D01*
X116978559Y-120205910D01*
X116833569Y-120418110D01*
X116782560Y-120670000D01*
X109995830Y-120670000D01*
X110085317Y-120653162D01*
X110301441Y-120514090D01*
X110321317Y-120485000D01*
X110349995Y-120485000D01*
X110350000Y-120485001D01*
X110663352Y-120422670D01*
X110688675Y-120417633D01*
X110975790Y-120225790D01*
X111875787Y-119325792D01*
X111875790Y-119325790D01*
X112067633Y-119038675D01*
X112084414Y-118954314D01*
X112135001Y-118700000D01*
X112135000Y-118699995D01*
X112135000Y-118458808D01*
X112168110Y-118481431D01*
X112420000Y-118532440D01*
X115420000Y-118532440D01*
X115655317Y-118488162D01*
X115871441Y-118349090D01*
X116016431Y-118136890D01*
X116067440Y-117885000D01*
X116067440Y-116985000D01*
X116031352Y-116793208D01*
X116067440Y-116615000D01*
X116067440Y-115715000D01*
X116031352Y-115523208D01*
X116067440Y-115345000D01*
X116067440Y-114530000D01*
X124362560Y-114530000D01*
X124362560Y-116530000D01*
X124406838Y-116765317D01*
X124545910Y-116981441D01*
X124758110Y-117126431D01*
X125010000Y-117177440D01*
X135010000Y-117177440D01*
X135245317Y-117133162D01*
X135461441Y-116994090D01*
X135606431Y-116781890D01*
X135657440Y-116530000D01*
X135657440Y-114530000D01*
X135613162Y-114294683D01*
X135474090Y-114078559D01*
X135261890Y-113933569D01*
X135010000Y-113882560D01*
X125010000Y-113882560D01*
X124774683Y-113926838D01*
X124558559Y-114065910D01*
X124413569Y-114278110D01*
X124362560Y-114530000D01*
X116067440Y-114530000D01*
X116067440Y-114445000D01*
X116031352Y-114253208D01*
X116067440Y-114075000D01*
X116067440Y-113175000D01*
X116031352Y-112983208D01*
X116067440Y-112805000D01*
X116067440Y-111905000D01*
X116031352Y-111713208D01*
X116067440Y-111535000D01*
X116067440Y-110635000D01*
X116031352Y-110443208D01*
X116067440Y-110265000D01*
X116067440Y-109365000D01*
X116023162Y-109129683D01*
X115884090Y-108913559D01*
X115671890Y-108768569D01*
X115420000Y-108717560D01*
X112420000Y-108717560D01*
X112184683Y-108761838D01*
X111968559Y-108900910D01*
X111823569Y-109113110D01*
X111772560Y-109365000D01*
X111772560Y-110265000D01*
X111773946Y-110272367D01*
X111475790Y-109974210D01*
X111368273Y-109902370D01*
X111188675Y-109782367D01*
X111132484Y-109771190D01*
X110850000Y-109714999D01*
X110849995Y-109715000D01*
X110274669Y-109715000D01*
X110264090Y-109698559D01*
X110051890Y-109553569D01*
X109800000Y-109502560D01*
X109300000Y-109502560D01*
X109064683Y-109546838D01*
X108848559Y-109685910D01*
X108800866Y-109755711D01*
X108764090Y-109698559D01*
X108551890Y-109553569D01*
X108300000Y-109502560D01*
X107800000Y-109502560D01*
X107564683Y-109546838D01*
X107348559Y-109685910D01*
X107328683Y-109715000D01*
X107300005Y-109715000D01*
X107300000Y-109714999D01*
X107017516Y-109771190D01*
X106961325Y-109782367D01*
X106674210Y-109974210D01*
X106674208Y-109974213D01*
X106374210Y-110274210D01*
X106288945Y-110401819D01*
X106048460Y-110353120D01*
X104849580Y-110353120D01*
X104614263Y-110397398D01*
X104398139Y-110536470D01*
X104253149Y-110748670D01*
X104202140Y-111000560D01*
X102627000Y-111000560D01*
X102627000Y-103697440D01*
X103635000Y-103697440D01*
X103870317Y-103653162D01*
X103989795Y-103576280D01*
X104002516Y-103578810D01*
X104285000Y-103635001D01*
X104285005Y-103635000D01*
X106865000Y-103635000D01*
X106865000Y-104662486D01*
X106832367Y-104711325D01*
X106832367Y-104711326D01*
X106764999Y-105050000D01*
X106765000Y-105050005D01*
X106765000Y-105488569D01*
X106752560Y-105550000D01*
X106752560Y-106450000D01*
X106796838Y-106685317D01*
X106935910Y-106901441D01*
X107148110Y-107046431D01*
X107400000Y-107097440D01*
X107900000Y-107097440D01*
X108135317Y-107053162D01*
X108351441Y-106914090D01*
X108399134Y-106844289D01*
X108435910Y-106901441D01*
X108648110Y-107046431D01*
X108900000Y-107097440D01*
X109400000Y-107097440D01*
X109635317Y-107053162D01*
X109851441Y-106914090D01*
X109871317Y-106885000D01*
X111772560Y-106885000D01*
X111772560Y-107725000D01*
X111816838Y-107960317D01*
X111955910Y-108176441D01*
X112168110Y-108321431D01*
X112420000Y-108372440D01*
X115420000Y-108372440D01*
X115655317Y-108328162D01*
X115871441Y-108189090D01*
X116016431Y-107976890D01*
X116067440Y-107725000D01*
X116067440Y-106825000D01*
X116031352Y-106633208D01*
X116067440Y-106455000D01*
X116067440Y-105555000D01*
X116031352Y-105363208D01*
X116067440Y-105185000D01*
X116067440Y-104835000D01*
X119472560Y-104835000D01*
X119472560Y-110985000D01*
X119516838Y-111220317D01*
X119655910Y-111436441D01*
X119868110Y-111581431D01*
X120120000Y-111632440D01*
X122120000Y-111632440D01*
X122355317Y-111588162D01*
X122571441Y-111449090D01*
X122716431Y-111236890D01*
X122767440Y-110985000D01*
X122767440Y-104835000D01*
X137252560Y-104835000D01*
X137252560Y-110985000D01*
X137296838Y-111220317D01*
X137435910Y-111436441D01*
X137648110Y-111581431D01*
X137900000Y-111632440D01*
X139900000Y-111632440D01*
X140135317Y-111588162D01*
X140351441Y-111449090D01*
X140496431Y-111236890D01*
X140547440Y-110985000D01*
X140547440Y-104835000D01*
X140503162Y-104599683D01*
X140364090Y-104383559D01*
X140151890Y-104238569D01*
X139900000Y-104187560D01*
X137900000Y-104187560D01*
X137664683Y-104231838D01*
X137448559Y-104370910D01*
X137303569Y-104583110D01*
X137252560Y-104835000D01*
X122767440Y-104835000D01*
X122723162Y-104599683D01*
X122584090Y-104383559D01*
X122371890Y-104238569D01*
X122120000Y-104187560D01*
X120120000Y-104187560D01*
X119884683Y-104231838D01*
X119668559Y-104370910D01*
X119523569Y-104583110D01*
X119472560Y-104835000D01*
X116067440Y-104835000D01*
X116067440Y-104285000D01*
X116031352Y-104093208D01*
X116067440Y-103915000D01*
X116067440Y-103015000D01*
X116031352Y-102823208D01*
X116067440Y-102645000D01*
X116067440Y-101745000D01*
X116031352Y-101553208D01*
X116067440Y-101375000D01*
X116067440Y-100475000D01*
X116031352Y-100283208D01*
X116067440Y-100105000D01*
X116067440Y-99205000D01*
X116031352Y-99013208D01*
X116067440Y-98835000D01*
X116067440Y-97935000D01*
X116031352Y-97743208D01*
X116067440Y-97565000D01*
X116067440Y-96665000D01*
X116031352Y-96473208D01*
X116067440Y-96295000D01*
X116067440Y-95395000D01*
X116031352Y-95203208D01*
X116067440Y-95025000D01*
X116067440Y-94675000D01*
X119472560Y-94675000D01*
X119472560Y-100825000D01*
X119516838Y-101060317D01*
X119655910Y-101276441D01*
X119868110Y-101421431D01*
X120120000Y-101472440D01*
X122120000Y-101472440D01*
X122355317Y-101428162D01*
X122571441Y-101289090D01*
X122716431Y-101076890D01*
X122767440Y-100825000D01*
X122767440Y-94675000D01*
X137252560Y-94675000D01*
X137252560Y-100825000D01*
X137296838Y-101060317D01*
X137435910Y-101276441D01*
X137648110Y-101421431D01*
X137900000Y-101472440D01*
X139900000Y-101472440D01*
X140135317Y-101428162D01*
X140351441Y-101289090D01*
X140496431Y-101076890D01*
X140547440Y-100825000D01*
X140547440Y-94675000D01*
X140503162Y-94439683D01*
X140364090Y-94223559D01*
X140151890Y-94078569D01*
X139900000Y-94027560D01*
X137900000Y-94027560D01*
X137664683Y-94071838D01*
X137448559Y-94210910D01*
X137303569Y-94423110D01*
X137252560Y-94675000D01*
X122767440Y-94675000D01*
X122723162Y-94439683D01*
X122584090Y-94223559D01*
X122371890Y-94078569D01*
X122120000Y-94027560D01*
X120120000Y-94027560D01*
X119884683Y-94071838D01*
X119668559Y-94210910D01*
X119523569Y-94423110D01*
X119472560Y-94675000D01*
X116067440Y-94675000D01*
X116067440Y-94125000D01*
X116031352Y-93933208D01*
X116067440Y-93755000D01*
X116067440Y-92855000D01*
X116031352Y-92663208D01*
X116067440Y-92485000D01*
X116067440Y-91585000D01*
X116031352Y-91393208D01*
X116067440Y-91215000D01*
X116067440Y-90315000D01*
X116031352Y-90123208D01*
X116067440Y-89945000D01*
X116067440Y-89130000D01*
X124362560Y-89130000D01*
X124362560Y-91130000D01*
X124406838Y-91365317D01*
X124545910Y-91581441D01*
X124758110Y-91726431D01*
X125010000Y-91777440D01*
X135010000Y-91777440D01*
X135245317Y-91733162D01*
X135461441Y-91594090D01*
X135606431Y-91381890D01*
X135657440Y-91130000D01*
X135657440Y-89130000D01*
X135613162Y-88894683D01*
X135474090Y-88678559D01*
X135261890Y-88533569D01*
X135010000Y-88482560D01*
X125010000Y-88482560D01*
X124774683Y-88526838D01*
X124558559Y-88665910D01*
X124413569Y-88878110D01*
X124362560Y-89130000D01*
X116067440Y-89130000D01*
X116067440Y-89045000D01*
X116023162Y-88809683D01*
X115884090Y-88593559D01*
X115671890Y-88448569D01*
X115420000Y-88397560D01*
X112420000Y-88397560D01*
X112184683Y-88441838D01*
X111968559Y-88580910D01*
X111823569Y-88793110D01*
X111772560Y-89045000D01*
X111772560Y-89945000D01*
X111808648Y-90136792D01*
X111772560Y-90315000D01*
X111772560Y-91215000D01*
X111808648Y-91406792D01*
X111772560Y-91585000D01*
X111772560Y-92485000D01*
X111808648Y-92676792D01*
X111772560Y-92855000D01*
X111772560Y-93755000D01*
X111808648Y-93946792D01*
X111772560Y-94125000D01*
X111772560Y-95025000D01*
X111808648Y-95216792D01*
X111772560Y-95395000D01*
X111772560Y-96295000D01*
X111808648Y-96486792D01*
X111772560Y-96665000D01*
X111772560Y-97565000D01*
X111808648Y-97756792D01*
X111772560Y-97935000D01*
X111772560Y-98835000D01*
X111808648Y-99026792D01*
X111772560Y-99205000D01*
X111772560Y-100020981D01*
X111385000Y-99633420D01*
X111385000Y-98100005D01*
X111385001Y-98100000D01*
X111317633Y-97761326D01*
X111317633Y-97761325D01*
X111125790Y-97474210D01*
X111125787Y-97474208D01*
X110435000Y-96783420D01*
X110435000Y-96711431D01*
X110447440Y-96650000D01*
X110447440Y-95750000D01*
X110403162Y-95514683D01*
X110264090Y-95298559D01*
X110051890Y-95153569D01*
X109800000Y-95102560D01*
X109300000Y-95102560D01*
X109064683Y-95146838D01*
X108848559Y-95285910D01*
X108800866Y-95355711D01*
X108764090Y-95298559D01*
X108551890Y-95153569D01*
X108300000Y-95102560D01*
X107800000Y-95102560D01*
X107564683Y-95146838D01*
X107348559Y-95285910D01*
X107328683Y-95315000D01*
X106819292Y-95315000D01*
X106712550Y-95149119D01*
X106500350Y-95004129D01*
X106248460Y-94953120D01*
X105049580Y-94953120D01*
X104814263Y-94997398D01*
X104598139Y-95136470D01*
X104453149Y-95348670D01*
X104402140Y-95600560D01*
X104402140Y-96799440D01*
X104446418Y-97034757D01*
X104585490Y-97250881D01*
X104797690Y-97395871D01*
X105049580Y-97446880D01*
X106248460Y-97446880D01*
X106483777Y-97402602D01*
X106699901Y-97263530D01*
X106821885Y-97085000D01*
X107325331Y-97085000D01*
X107335910Y-97101441D01*
X107548110Y-97246431D01*
X107800000Y-97297440D01*
X108300000Y-97297440D01*
X108535317Y-97253162D01*
X108668475Y-97167477D01*
X108713907Y-97395871D01*
X108732367Y-97488675D01*
X108853577Y-97670079D01*
X108924210Y-97775790D01*
X109615000Y-98466579D01*
X109615000Y-99999995D01*
X109614999Y-100000000D01*
X109662676Y-100239683D01*
X109682367Y-100338675D01*
X109847841Y-100586326D01*
X109874210Y-100625790D01*
X110799208Y-101550787D01*
X110799210Y-101550790D01*
X110991054Y-101678975D01*
X111086326Y-101742634D01*
X111425000Y-101810001D01*
X111425005Y-101810000D01*
X111772560Y-101810000D01*
X111772560Y-102580000D01*
X111341822Y-102580000D01*
X111221799Y-102530162D01*
X110849833Y-102529838D01*
X110510000Y-102670254D01*
X110510000Y-101750000D01*
X110452148Y-101459161D01*
X110287401Y-101212599D01*
X109787401Y-100712599D01*
X109540839Y-100547852D01*
X109250000Y-100490000D01*
X108578386Y-100490000D01*
X108451890Y-100403569D01*
X108200000Y-100352560D01*
X107300000Y-100352560D01*
X107064683Y-100396838D01*
X106848559Y-100535910D01*
X106703569Y-100748110D01*
X106652560Y-101000000D01*
X106652560Y-101500000D01*
X106696838Y-101735317D01*
X106780287Y-101865000D01*
X104597345Y-101865000D01*
X104473675Y-101782367D01*
X104417484Y-101771190D01*
X104135000Y-101714999D01*
X104134995Y-101715000D01*
X104109669Y-101715000D01*
X104099090Y-101698559D01*
X103886890Y-101553569D01*
X103635000Y-101502560D01*
X102627000Y-101502560D01*
X102627000Y-81990000D01*
X116782560Y-81990000D01*
X116782560Y-84990000D01*
X116826838Y-85225317D01*
X116965910Y-85441441D01*
X117178110Y-85586431D01*
X117430000Y-85637440D01*
X119730000Y-85637440D01*
X119965317Y-85593162D01*
X120181441Y-85454090D01*
X120326431Y-85241890D01*
X120377440Y-84990000D01*
X120377440Y-81990000D01*
X139642560Y-81990000D01*
X139642560Y-84990000D01*
X139686838Y-85225317D01*
X139825910Y-85441441D01*
X140038110Y-85586431D01*
X140290000Y-85637440D01*
X142590000Y-85637440D01*
X142825317Y-85593162D01*
X143041441Y-85454090D01*
X143186431Y-85241890D01*
X143237440Y-84990000D01*
X143237440Y-81990000D01*
X143193162Y-81754683D01*
X143054090Y-81538559D01*
X142841890Y-81393569D01*
X142590000Y-81342560D01*
X140290000Y-81342560D01*
X140054683Y-81386838D01*
X139838559Y-81525910D01*
X139693569Y-81738110D01*
X139642560Y-81990000D01*
X120377440Y-81990000D01*
X120333162Y-81754683D01*
X120194090Y-81538559D01*
X119981890Y-81393569D01*
X119730000Y-81342560D01*
X117430000Y-81342560D01*
X117194683Y-81386838D01*
X116978559Y-81525910D01*
X116833569Y-81738110D01*
X116782560Y-81990000D01*
X102627000Y-81990000D01*
X102627000Y-74735000D01*
X102728808Y-74735000D01*
X102835910Y-74901441D01*
X103048110Y-75046431D01*
X103300000Y-75097440D01*
X104200000Y-75097440D01*
X104435317Y-75053162D01*
X104651441Y-74914090D01*
X104796431Y-74701890D01*
X104847440Y-74450000D01*
X104847440Y-73788826D01*
X104885000Y-73600000D01*
X104847440Y-73411174D01*
X104847440Y-72750000D01*
X104803162Y-72514683D01*
X104664090Y-72298559D01*
X104451890Y-72153569D01*
X104200000Y-72102560D01*
X103300000Y-72102560D01*
X103064683Y-72146838D01*
X102848559Y-72285910D01*
X102726192Y-72465000D01*
X102627000Y-72465000D01*
X102627000Y-69135000D01*
X103450000Y-69135000D01*
X103884346Y-69048603D01*
X103952314Y-69003188D01*
X104085317Y-68978162D01*
X104199978Y-68904380D01*
X104298110Y-68971431D01*
X104444535Y-69001083D01*
X104515654Y-69048603D01*
X104950000Y-69135000D01*
X104975000Y-69135000D01*
X105409346Y-69048603D01*
X105487114Y-68996640D01*
X105585317Y-68978162D01*
X105801441Y-68839090D01*
X105931738Y-68648394D01*
X106802566Y-67777566D01*
X106864533Y-67684826D01*
X107048603Y-67409346D01*
X107135000Y-66975000D01*
X107135000Y-65921958D01*
X107185850Y-66000981D01*
X107398050Y-66145971D01*
X107649940Y-66196980D01*
X108265000Y-66196980D01*
X108265000Y-67400000D01*
X108351397Y-67834346D01*
X108505515Y-68065000D01*
X108597434Y-68202566D01*
X110065000Y-69670132D01*
X110065000Y-71745000D01*
X110151397Y-72179346D01*
X110397434Y-72547566D01*
X110765654Y-72793603D01*
X111200000Y-72880000D01*
X119505000Y-72880000D01*
X119939346Y-72793603D01*
X120307566Y-72547566D01*
X120970672Y-71884460D01*
X127752460Y-71884460D01*
X127752460Y-72749710D01*
X127796738Y-72985027D01*
X127935810Y-73201151D01*
X128148010Y-73346141D01*
X128399900Y-73397150D01*
X130000100Y-73397150D01*
X130235417Y-73352872D01*
X130451541Y-73213800D01*
X130596531Y-73001600D01*
X130647540Y-72749710D01*
X130647540Y-68749210D01*
X130603262Y-68513893D01*
X130464190Y-68297769D01*
X130335000Y-68209497D01*
X130335000Y-66397440D01*
X131850000Y-66397440D01*
X132085317Y-66353162D01*
X132301441Y-66214090D01*
X132446431Y-66001890D01*
X132497440Y-65750000D01*
X132497440Y-64650000D01*
X132494618Y-64635000D01*
X132850000Y-64635000D01*
X133284346Y-64548603D01*
X133652566Y-64302566D01*
X136151760Y-61803372D01*
X136151760Y-63300020D01*
X136196038Y-63535337D01*
X136335110Y-63751461D01*
X136547310Y-63896451D01*
X136799200Y-63947460D01*
X137114540Y-63947460D01*
X137114540Y-64300020D01*
X137200937Y-64734366D01*
X137334649Y-64934480D01*
X137446974Y-65102586D01*
X140065000Y-67720613D01*
X140065000Y-68252560D01*
X139600000Y-68252560D01*
X139364683Y-68296838D01*
X139148559Y-68435910D01*
X139003569Y-68648110D01*
X138952560Y-68900000D01*
X138952560Y-71500000D01*
X138996838Y-71735317D01*
X139135910Y-71951441D01*
X139348110Y-72096431D01*
X139600000Y-72147440D01*
X142800000Y-72147440D01*
X143035317Y-72103162D01*
X143251441Y-71964090D01*
X143396431Y-71751890D01*
X143447440Y-71500000D01*
X143447440Y-68900000D01*
X143403162Y-68664683D01*
X143264090Y-68448559D01*
X143051890Y-68303569D01*
X142800000Y-68252560D01*
X142335000Y-68252560D01*
X142335000Y-67250480D01*
X142324878Y-67199594D01*
X142248604Y-66816135D01*
X142002567Y-66447914D01*
X139502112Y-63947460D01*
X139699880Y-63947460D01*
X139935197Y-63903182D01*
X140151321Y-63764110D01*
X140296311Y-63551910D01*
X140347320Y-63300020D01*
X140347320Y-57899980D01*
X140303042Y-57664663D01*
X140163970Y-57448539D01*
X139951770Y-57303549D01*
X139699880Y-57252540D01*
X136799200Y-57252540D01*
X136563883Y-57296818D01*
X136347759Y-57435890D01*
X136202769Y-57648090D01*
X136151760Y-57899980D01*
X136151760Y-59465000D01*
X135750000Y-59465000D01*
X135322677Y-59550000D01*
X135315654Y-59551397D01*
X135279734Y-59575398D01*
X135552566Y-59302566D01*
X135798604Y-58934345D01*
X135885000Y-58500000D01*
X135885000Y-55220132D01*
X136720132Y-54385000D01*
X148529868Y-54385000D01*
X150115000Y-55970133D01*
X150115000Y-57000000D01*
X150201397Y-57434346D01*
X150346426Y-57651397D01*
X150447434Y-57802566D01*
X151847434Y-59202566D01*
X152215654Y-59448603D01*
X152650000Y-59535000D01*
X154159086Y-59535000D01*
X154207630Y-59583629D01*
X154415512Y-59669949D01*
X154209697Y-59754990D01*
X154159600Y-59805000D01*
X151910132Y-59805000D01*
X151902566Y-59797434D01*
X151829485Y-59748603D01*
X151534346Y-59551397D01*
X151100000Y-59465000D01*
X150248240Y-59465000D01*
X150248240Y-57899980D01*
X150203962Y-57664663D01*
X150064890Y-57448539D01*
X149852690Y-57303549D01*
X149600800Y-57252540D01*
X146700120Y-57252540D01*
X146464803Y-57296818D01*
X146248679Y-57435890D01*
X146103689Y-57648090D01*
X146052680Y-57899980D01*
X146052680Y-63300020D01*
X146096958Y-63535337D01*
X146236030Y-63751461D01*
X146448230Y-63896451D01*
X146700120Y-63947460D01*
X147015460Y-63947460D01*
X147015460Y-64300020D01*
X147101857Y-64734366D01*
X147235569Y-64934480D01*
X147347894Y-65102586D01*
X149297874Y-67052566D01*
X149666094Y-67298603D01*
X150100440Y-67385000D01*
X151529868Y-67385000D01*
X151665000Y-67520132D01*
X151665000Y-68410128D01*
X151548459Y-68485120D01*
X151403469Y-68697320D01*
X151352460Y-68949210D01*
X151352460Y-72949710D01*
X151396738Y-73185027D01*
X151535810Y-73401151D01*
X151748010Y-73546141D01*
X151999900Y-73597150D01*
X153600100Y-73597150D01*
X153835417Y-73552872D01*
X154051541Y-73413800D01*
X154196531Y-73201600D01*
X154247540Y-72949710D01*
X154247540Y-68949210D01*
X154203262Y-68713893D01*
X154064190Y-68497769D01*
X153935000Y-68409497D01*
X153935000Y-67050000D01*
X153848603Y-66615654D01*
X153602566Y-66247434D01*
X152802566Y-65447434D01*
X152646994Y-65343484D01*
X152434346Y-65201397D01*
X152000000Y-65115000D01*
X150570572Y-65115000D01*
X149403032Y-63947460D01*
X149600800Y-63947460D01*
X149836117Y-63903182D01*
X150052241Y-63764110D01*
X150197231Y-63551910D01*
X150248240Y-63300020D01*
X150248240Y-61735000D01*
X150629868Y-61735000D01*
X150637434Y-61742566D01*
X151005655Y-61988604D01*
X151440000Y-62075000D01*
X154159086Y-62075000D01*
X154207630Y-62123629D01*
X154720900Y-62336757D01*
X155276661Y-62337242D01*
X155790303Y-62125010D01*
X155840400Y-62075000D01*
X160060000Y-62075000D01*
X160384394Y-62010474D01*
X159197434Y-63197434D01*
X158951397Y-63565654D01*
X158865000Y-64000000D01*
X158865000Y-81279868D01*
X158654868Y-81490000D01*
X150250000Y-81490000D01*
X149815654Y-81576397D01*
X149447434Y-81822434D01*
X145297434Y-85972434D01*
X145051397Y-86340654D01*
X144965000Y-86775000D01*
X144965000Y-87127560D01*
X144600000Y-87127560D01*
X144364683Y-87171838D01*
X144148559Y-87310910D01*
X144111601Y-87365000D01*
X142556822Y-87365000D01*
X142436799Y-87315162D01*
X142064833Y-87314838D01*
X141721057Y-87456883D01*
X141457808Y-87719673D01*
X141315162Y-88063201D01*
X141314838Y-88435167D01*
X141456883Y-88778943D01*
X141719673Y-89042192D01*
X142063201Y-89184838D01*
X142435167Y-89185162D01*
X142556569Y-89135000D01*
X143952560Y-89135000D01*
X143952560Y-89945000D01*
X143988648Y-90136792D01*
X143952560Y-90315000D01*
X143952560Y-91215000D01*
X143988648Y-91406792D01*
X143952560Y-91585000D01*
X143952560Y-92485000D01*
X143988648Y-92676792D01*
X143952560Y-92855000D01*
X143952560Y-93755000D01*
X143988648Y-93946792D01*
X143952560Y-94125000D01*
X143952560Y-95025000D01*
X143988648Y-95216792D01*
X143952560Y-95395000D01*
X143952560Y-96295000D01*
X143988648Y-96486792D01*
X143952560Y-96665000D01*
X143952560Y-97565000D01*
X143988648Y-97756792D01*
X143952560Y-97935000D01*
X143952560Y-98835000D01*
X143988648Y-99026792D01*
X143952560Y-99205000D01*
X143952560Y-100105000D01*
X143988648Y-100296792D01*
X143952560Y-100475000D01*
X143952560Y-101375000D01*
X143988648Y-101566792D01*
X143952560Y-101745000D01*
X143952560Y-102645000D01*
X143988648Y-102836792D01*
X143952560Y-103015000D01*
X143952560Y-103915000D01*
X143988648Y-104106792D01*
X143952560Y-104285000D01*
X143952560Y-105185000D01*
X143988648Y-105376792D01*
X143952560Y-105555000D01*
X143952560Y-106455000D01*
X143988648Y-106646792D01*
X143952560Y-106825000D01*
X143952560Y-107725000D01*
X143988648Y-107916792D01*
X143952560Y-108095000D01*
X143952560Y-108995000D01*
X143988648Y-109186792D01*
X143952560Y-109365000D01*
X143952560Y-110265000D01*
X143988648Y-110456792D01*
X143952560Y-110635000D01*
X143952560Y-111535000D01*
X143988648Y-111726792D01*
X143952560Y-111905000D01*
X143952560Y-112805000D01*
X143988648Y-112996792D01*
X143952560Y-113175000D01*
X143952560Y-114075000D01*
X143988648Y-114266792D01*
X143952560Y-114445000D01*
X143952560Y-115345000D01*
X143988648Y-115536792D01*
X143952560Y-115715000D01*
X143952560Y-116615000D01*
X143988648Y-116806792D01*
X143952560Y-116985000D01*
X143952560Y-117885000D01*
X143996838Y-118120317D01*
X144135910Y-118336441D01*
X144348110Y-118481431D01*
X144600000Y-118532440D01*
X147600000Y-118532440D01*
X147835317Y-118488162D01*
X148051441Y-118349090D01*
X148095232Y-118285000D01*
X148712494Y-118285000D01*
X148719673Y-118292192D01*
X149063201Y-118434838D01*
X149435167Y-118435162D01*
X149778943Y-118293117D01*
X150042192Y-118030327D01*
X150184838Y-117686799D01*
X150185162Y-117314833D01*
X150043117Y-116971057D01*
X149947290Y-116875063D01*
X150042192Y-116780327D01*
X150184838Y-116436799D01*
X150185162Y-116064833D01*
X150171422Y-116031580D01*
X152444921Y-118305079D01*
X152699594Y-118475245D01*
X153000000Y-118535000D01*
X158458203Y-118535000D01*
X158548110Y-118596431D01*
X158800000Y-118647440D01*
X159700000Y-118647440D01*
X159935317Y-118603162D01*
X160041244Y-118535000D01*
X169770000Y-118535000D01*
X170070407Y-118475245D01*
X170325079Y-118305079D01*
X170505601Y-118124557D01*
X170510900Y-118126757D01*
X171047972Y-118127226D01*
X166185198Y-122990000D01*
X146750000Y-122990000D01*
X146507414Y-123038254D01*
X146459160Y-123047852D01*
X146212599Y-123212599D01*
X143360320Y-126064878D01*
X143314833Y-126064838D01*
X142971057Y-126206883D01*
X142707808Y-126469673D01*
X142565162Y-126813201D01*
X142564838Y-127185167D01*
X142706883Y-127528943D01*
X142969673Y-127792192D01*
X143313201Y-127934838D01*
X143685167Y-127935162D01*
X144028943Y-127793117D01*
X144292192Y-127530327D01*
X144434838Y-127186799D01*
X144434879Y-127139923D01*
X147064802Y-124510000D01*
X166500000Y-124510000D01*
X166790839Y-124452148D01*
X167037401Y-124287401D01*
X170915537Y-120409265D01*
X172186670Y-120409265D01*
X172476078Y-121109686D01*
X173011495Y-121646039D01*
X173711410Y-121936668D01*
X174469265Y-121937330D01*
X175169686Y-121647922D01*
X175706039Y-121112505D01*
X175996668Y-120412590D01*
X175996982Y-120053677D01*
X176673502Y-120334593D01*
X177602422Y-120335404D01*
X178460943Y-119980671D01*
X179118362Y-119324398D01*
X179300126Y-118886661D01*
X180380758Y-118886661D01*
X180592990Y-119400303D01*
X180985630Y-119793629D01*
X181498900Y-120006757D01*
X182054661Y-120007242D01*
X182568303Y-119795010D01*
X182961629Y-119402370D01*
X183174757Y-118889100D01*
X183175242Y-118333339D01*
X182963010Y-117819697D01*
X182570370Y-117426371D01*
X182057100Y-117213243D01*
X181501339Y-117212758D01*
X180987697Y-117424990D01*
X180594371Y-117817630D01*
X180381243Y-118330900D01*
X180380758Y-118886661D01*
X179300126Y-118886661D01*
X179474593Y-118466498D01*
X179475404Y-117537578D01*
X179282123Y-117069801D01*
X179465630Y-117253629D01*
X179978900Y-117466757D01*
X180534661Y-117467242D01*
X181048303Y-117255010D01*
X181441629Y-116862370D01*
X181654757Y-116349100D01*
X181655242Y-115793339D01*
X181443010Y-115279697D01*
X181050370Y-114886371D01*
X180537100Y-114673243D01*
X179981339Y-114672758D01*
X179467697Y-114884990D01*
X179074371Y-115277630D01*
X178861243Y-115790900D01*
X178860758Y-116346661D01*
X178911538Y-116469559D01*
X178464398Y-116021638D01*
X177606498Y-115665407D01*
X176677578Y-115664596D01*
X175819057Y-116019329D01*
X175161638Y-116675602D01*
X174805407Y-117533502D01*
X174804768Y-118265264D01*
X174472590Y-118127332D01*
X173714735Y-118126670D01*
X173014314Y-118416078D01*
X172477961Y-118951495D01*
X172187332Y-119651410D01*
X172186670Y-120409265D01*
X170915537Y-120409265D01*
X178564802Y-112760000D01*
X179187537Y-112760000D01*
X179219673Y-112792192D01*
X179563201Y-112934838D01*
X179935167Y-112935162D01*
X180278943Y-112793117D01*
X180542192Y-112530327D01*
X180684838Y-112186799D01*
X180685162Y-111814833D01*
X180543117Y-111471057D01*
X180280327Y-111207808D01*
X179936799Y-111065162D01*
X179564833Y-111064838D01*
X179221057Y-111206883D01*
X179187882Y-111240000D01*
X178250000Y-111240000D01*
X177959160Y-111297852D01*
X177712599Y-111462599D01*
X172186775Y-116988423D01*
X172187242Y-116453339D01*
X171975010Y-115939697D01*
X171582370Y-115546371D01*
X171374488Y-115460051D01*
X171580303Y-115375010D01*
X171973629Y-114982370D01*
X172186757Y-114469100D01*
X172187242Y-113913339D01*
X171975010Y-113399697D01*
X171582370Y-113006371D01*
X171374488Y-112920051D01*
X171580303Y-112835010D01*
X171973629Y-112442370D01*
X172186757Y-111929100D01*
X172187242Y-111373339D01*
X171975010Y-110859697D01*
X171582370Y-110466371D01*
X171374488Y-110380051D01*
X171580303Y-110295010D01*
X171973629Y-109902370D01*
X171991068Y-109860372D01*
X172057790Y-109815790D01*
X172249633Y-109528675D01*
X172317001Y-109190000D01*
X172249633Y-108851326D01*
X172105616Y-108635787D01*
X171975010Y-108319697D01*
X171582370Y-107926371D01*
X171575000Y-107923311D01*
X171575000Y-107685158D01*
X174194921Y-110305079D01*
X174449594Y-110475245D01*
X174750000Y-110535000D01*
X179000000Y-110535000D01*
X179300407Y-110475245D01*
X179555079Y-110305079D01*
X180575158Y-109285000D01*
X180590799Y-109285000D01*
X180592990Y-109290303D01*
X180985630Y-109683629D01*
X181498900Y-109896757D01*
X182054661Y-109897242D01*
X182568303Y-109685010D01*
X182961629Y-109292370D01*
X183174757Y-108779100D01*
X183175242Y-108223339D01*
X182963010Y-107709697D01*
X182570370Y-107316371D01*
X182057100Y-107103243D01*
X181501339Y-107102758D01*
X180987697Y-107314990D01*
X180594371Y-107707630D01*
X180591311Y-107715000D01*
X180250000Y-107715000D01*
X179949593Y-107774755D01*
X179694921Y-107944921D01*
X178674842Y-108965000D01*
X175075158Y-108965000D01*
X170555079Y-104444921D01*
X170300407Y-104274755D01*
X170000000Y-104215000D01*
X156039018Y-104215000D01*
X155964090Y-104098559D01*
X155751890Y-103953569D01*
X155500000Y-103902560D01*
X155000000Y-103902560D01*
X154764683Y-103946838D01*
X154548559Y-104085910D01*
X154500866Y-104155711D01*
X154464090Y-104098559D01*
X154251890Y-103953569D01*
X154000000Y-103902560D01*
X153500000Y-103902560D01*
X153264683Y-103946838D01*
X153048559Y-104085910D01*
X152960356Y-104215000D01*
X151500000Y-104215000D01*
X151199594Y-104274755D01*
X150944921Y-104444921D01*
X148899842Y-106490000D01*
X148240352Y-106490000D01*
X148247440Y-106455000D01*
X148247440Y-105555000D01*
X148211352Y-105363208D01*
X148247440Y-105185000D01*
X148247440Y-104285000D01*
X148211352Y-104093208D01*
X148247440Y-103915000D01*
X148247440Y-103015000D01*
X148211352Y-102823208D01*
X148247440Y-102645000D01*
X148247440Y-101745000D01*
X148211352Y-101553208D01*
X148247440Y-101375000D01*
X148247440Y-100475000D01*
X148240854Y-100440000D01*
X152079842Y-100440000D01*
X152194921Y-100555079D01*
X152449594Y-100725245D01*
X152750000Y-100785000D01*
X158458203Y-100785000D01*
X158548110Y-100846431D01*
X158800000Y-100897440D01*
X159700000Y-100897440D01*
X159935317Y-100853162D01*
X160041244Y-100785000D01*
X170250000Y-100785000D01*
X170550407Y-100725245D01*
X170805079Y-100555079D01*
X171387079Y-99973079D01*
X171557245Y-99718407D01*
X171617000Y-99418000D01*
X171617000Y-98997201D01*
X171622303Y-98995010D01*
X172015629Y-98602370D01*
X172228757Y-98089100D01*
X172229242Y-97533339D01*
X172017010Y-97019697D01*
X171624370Y-96626371D01*
X171416488Y-96540051D01*
X171622303Y-96455010D01*
X172015629Y-96062370D01*
X172029070Y-96030000D01*
X172354022Y-96030000D01*
X172456883Y-96278943D01*
X172719673Y-96542192D01*
X173063201Y-96684838D01*
X173435167Y-96685162D01*
X173778943Y-96543117D01*
X174042192Y-96280327D01*
X174184838Y-95936799D01*
X174185162Y-95564833D01*
X174043117Y-95221057D01*
X173780327Y-94957808D01*
X173436799Y-94815162D01*
X173389923Y-94815121D01*
X173307401Y-94732599D01*
X173060839Y-94567852D01*
X172770000Y-94510000D01*
X172029531Y-94510000D01*
X172017010Y-94479697D01*
X171624370Y-94086371D01*
X171416488Y-94000051D01*
X171622303Y-93915010D01*
X172015629Y-93522370D01*
X172228757Y-93009100D01*
X172229242Y-92453339D01*
X172017010Y-91939697D01*
X171624370Y-91546371D01*
X171416488Y-91460051D01*
X171622303Y-91375010D01*
X172015629Y-90982370D01*
X172228757Y-90469100D01*
X172229242Y-89913339D01*
X172017010Y-89399697D01*
X171624370Y-89006371D01*
X171617000Y-89003311D01*
X171617000Y-88082000D01*
X171557245Y-87781594D01*
X171387079Y-87526921D01*
X170895158Y-87035000D01*
X171174842Y-87035000D01*
X174944921Y-90805079D01*
X175199593Y-90975245D01*
X175500000Y-91035000D01*
X180072370Y-91035000D01*
X180372777Y-90975245D01*
X180627449Y-90805079D01*
X180848421Y-90584107D01*
X181027630Y-90763629D01*
X181540900Y-90976757D01*
X182096661Y-90977242D01*
X182610303Y-90765010D01*
X183003629Y-90372370D01*
X183216757Y-89859100D01*
X183217242Y-89303339D01*
X183005010Y-88789697D01*
X182612370Y-88396371D01*
X182099100Y-88183243D01*
X181543339Y-88182758D01*
X181029697Y-88394990D01*
X180636371Y-88787630D01*
X180623492Y-88818646D01*
X180441963Y-88854755D01*
X180187291Y-89024921D01*
X179747212Y-89465000D01*
X178668903Y-89465000D01*
X179160362Y-88974398D01*
X179482543Y-88198499D01*
X179507630Y-88223629D01*
X180020900Y-88436757D01*
X180576661Y-88437242D01*
X181090303Y-88225010D01*
X181483629Y-87832370D01*
X181496508Y-87801354D01*
X181578722Y-87785000D01*
X182424842Y-87785000D01*
X184715000Y-90075158D01*
X184715000Y-103674842D01*
X183214842Y-105175000D01*
X181445201Y-105175000D01*
X181443010Y-105169697D01*
X181050370Y-104776371D01*
X180537100Y-104563243D01*
X179981339Y-104562758D01*
X179467697Y-104774990D01*
X179074371Y-105167630D01*
X179064094Y-105192381D01*
X178464398Y-104591638D01*
X177606498Y-104235407D01*
X176677578Y-104234596D01*
X175997020Y-104515796D01*
X175997330Y-104160735D01*
X175707922Y-103460314D01*
X175172505Y-102923961D01*
X174955407Y-102833814D01*
X175211686Y-102727922D01*
X175748039Y-102192505D01*
X176038668Y-101492590D01*
X176038982Y-101133677D01*
X176715502Y-101414593D01*
X177644422Y-101415404D01*
X178502943Y-101060671D01*
X179160362Y-100404398D01*
X179342126Y-99966661D01*
X180422758Y-99966661D01*
X180634990Y-100480303D01*
X181027630Y-100873629D01*
X181540900Y-101086757D01*
X182096661Y-101087242D01*
X182610303Y-100875010D01*
X183003629Y-100482370D01*
X183216757Y-99969100D01*
X183217242Y-99413339D01*
X183005010Y-98899697D01*
X182612370Y-98506371D01*
X182099100Y-98293243D01*
X181543339Y-98292758D01*
X181029697Y-98504990D01*
X180636371Y-98897630D01*
X180423243Y-99410900D01*
X180422758Y-99966661D01*
X179342126Y-99966661D01*
X179516593Y-99546498D01*
X179517404Y-98617578D01*
X179324123Y-98149801D01*
X179507630Y-98333629D01*
X180020900Y-98546757D01*
X180576661Y-98547242D01*
X181090303Y-98335010D01*
X181483629Y-97942370D01*
X181696757Y-97429100D01*
X181697242Y-96873339D01*
X181485010Y-96359697D01*
X181092370Y-95966371D01*
X180579100Y-95753243D01*
X180023339Y-95752758D01*
X179509697Y-95964990D01*
X179116371Y-96357630D01*
X178903243Y-96870900D01*
X178902758Y-97426661D01*
X178953538Y-97549559D01*
X178506398Y-97101638D01*
X177648498Y-96745407D01*
X176719578Y-96744596D01*
X175861057Y-97099329D01*
X175203638Y-97755602D01*
X174847407Y-98613502D01*
X174846768Y-99345264D01*
X174514590Y-99207332D01*
X173756735Y-99206670D01*
X173056314Y-99496078D01*
X172519961Y-100031495D01*
X172229332Y-100731410D01*
X172228670Y-101489265D01*
X172518078Y-102189686D01*
X173053495Y-102726039D01*
X173270593Y-102816186D01*
X173014314Y-102922078D01*
X172477961Y-103457495D01*
X172187332Y-104157410D01*
X172186670Y-104915265D01*
X172476078Y-105615686D01*
X173011495Y-106152039D01*
X173711410Y-106442668D01*
X174469265Y-106443330D01*
X174805232Y-106304511D01*
X174804596Y-107032422D01*
X175159329Y-107890943D01*
X175815602Y-108548362D01*
X176673502Y-108904593D01*
X177602422Y-108905404D01*
X178460943Y-108550671D01*
X179118362Y-107894398D01*
X179440543Y-107118499D01*
X179465630Y-107143629D01*
X179978900Y-107356757D01*
X180534661Y-107357242D01*
X181048303Y-107145010D01*
X181441629Y-106752370D01*
X181444689Y-106745000D01*
X183540000Y-106745000D01*
X183840407Y-106685245D01*
X184095079Y-106515079D01*
X186055079Y-104555079D01*
X186225245Y-104300406D01*
X186285001Y-104000000D01*
X186285000Y-103999995D01*
X186285000Y-89750000D01*
X186261130Y-89630000D01*
X186225245Y-89449593D01*
X186055079Y-89194921D01*
X183305079Y-86444921D01*
X183050407Y-86274755D01*
X182750000Y-86215000D01*
X181450374Y-86215000D01*
X181092370Y-85856371D01*
X181085000Y-85853311D01*
X181085000Y-84300005D01*
X181085001Y-84300000D01*
X181025245Y-83999594D01*
X180855079Y-83744921D01*
X179555079Y-82444921D01*
X179300407Y-82274755D01*
X179000000Y-82215000D01*
X175825158Y-82215000D01*
X175035000Y-81424842D01*
X175035000Y-80631844D01*
X175101441Y-80589090D01*
X175246431Y-80376890D01*
X175297440Y-80125000D01*
X175297440Y-79375000D01*
X175253162Y-79139683D01*
X175135000Y-78956054D01*
X175135000Y-77571592D01*
X175300881Y-77464850D01*
X175445871Y-77252650D01*
X175496880Y-77000760D01*
X175496880Y-76401320D01*
X175452602Y-76166003D01*
X175344806Y-75998483D01*
X175445871Y-75850570D01*
X175496880Y-75598680D01*
X175496880Y-74999240D01*
X175452602Y-74763923D01*
X175313530Y-74547799D01*
X175135000Y-74425815D01*
X175135000Y-73039975D01*
X175246431Y-72876890D01*
X175297440Y-72625000D01*
X175297440Y-71875000D01*
X175253162Y-71639683D01*
X175114090Y-71423559D01*
X174947242Y-71309557D01*
X174947242Y-68998438D01*
X175013683Y-68955684D01*
X175158673Y-68743484D01*
X175209682Y-68491594D01*
X175209682Y-66891594D01*
X175165404Y-66656277D01*
X175026332Y-66440153D01*
X174814132Y-66295163D01*
X174562242Y-66244154D01*
X173562242Y-66244154D01*
X173326925Y-66288432D01*
X173110801Y-66427504D01*
X173022598Y-66556594D01*
X172950375Y-66556594D01*
X172282808Y-65889028D01*
X172209432Y-65840000D01*
X171914588Y-65642991D01*
X171480242Y-65556594D01*
X170581178Y-65556594D01*
X170543928Y-65549051D01*
X170588871Y-65540594D01*
X173096581Y-65540594D01*
X173098152Y-65543035D01*
X173310352Y-65688025D01*
X173562242Y-65739034D01*
X174562242Y-65739034D01*
X174797559Y-65694756D01*
X175013683Y-65555684D01*
X175158673Y-65343484D01*
X175209682Y-65091594D01*
X175209682Y-63491594D01*
X175165404Y-63256277D01*
X175026332Y-63040153D01*
X174814132Y-62895163D01*
X174562242Y-62844154D01*
X173562242Y-62844154D01*
X173326925Y-62888432D01*
X173110801Y-63027504D01*
X172965811Y-63239704D01*
X172959556Y-63270594D01*
X170599242Y-63270594D01*
X170599242Y-60505890D01*
X171602566Y-59502566D01*
X171638623Y-59448603D01*
X171848603Y-59134346D01*
X171935000Y-58700000D01*
X171935000Y-56108141D01*
X171956120Y-56094029D01*
X172237237Y-55673305D01*
X182814674Y-55673305D01*
X183101043Y-56366372D01*
X183630839Y-56897093D01*
X184323405Y-57184672D01*
X185073305Y-57185326D01*
X185766372Y-56898957D01*
X186297093Y-56369161D01*
X186584672Y-55676595D01*
X186585326Y-54926695D01*
X186298957Y-54233628D01*
X185769161Y-53702907D01*
X185076595Y-53415328D01*
X184326695Y-53414674D01*
X183633628Y-53701043D01*
X183102907Y-54230839D01*
X182815328Y-54923405D01*
X182814674Y-55673305D01*
X172237237Y-55673305D01*
X172310543Y-55563596D01*
X172435000Y-54937909D01*
X172435000Y-54262091D01*
X172310543Y-53636404D01*
X171956120Y-53105971D01*
X171425687Y-52751548D01*
X170800000Y-52627091D01*
X170174313Y-52751548D01*
X169815808Y-52991093D01*
X169724090Y-52848559D01*
X169511890Y-52703569D01*
X169260000Y-52652560D01*
X167260000Y-52652560D01*
X167024683Y-52696838D01*
X166808559Y-52835910D01*
X166663569Y-53048110D01*
X166612560Y-53300000D01*
X166612560Y-53465000D01*
X165736015Y-53465000D01*
X165496120Y-53105971D01*
X164965687Y-52751548D01*
X164340000Y-52627091D01*
X163714313Y-52751548D01*
X163355808Y-52991093D01*
X163264090Y-52848559D01*
X163051890Y-52703569D01*
X162800000Y-52652560D01*
X160800000Y-52652560D01*
X160564683Y-52696838D01*
X160348559Y-52835910D01*
X160203569Y-53048110D01*
X160152560Y-53300000D01*
X160152560Y-55900000D01*
X160196838Y-56135317D01*
X160335910Y-56351441D01*
X160548110Y-56496431D01*
X160665000Y-56520102D01*
X160665000Y-58729868D01*
X159589868Y-59805000D01*
X155840914Y-59805000D01*
X155792370Y-59756371D01*
X155584488Y-59670051D01*
X155790303Y-59585010D01*
X156183629Y-59192370D01*
X156396757Y-58679100D01*
X156397242Y-58123339D01*
X156185010Y-57609697D01*
X155792370Y-57216371D01*
X155279100Y-57003243D01*
X154723339Y-57002758D01*
X154209697Y-57214990D01*
X154159600Y-57265000D01*
X153120132Y-57265000D01*
X152385000Y-56529868D01*
X152385000Y-55500000D01*
X152365619Y-55402566D01*
X152298604Y-55065655D01*
X152052567Y-54697434D01*
X149982132Y-52627000D01*
X187373000Y-52627000D01*
X187373000Y-80865000D01*
X187373000Y-80865000D01*
G37*
X187373000Y-80865000D02*
X186539018Y-80865000D01*
X186464090Y-80748559D01*
X186251890Y-80603569D01*
X186000000Y-80552560D01*
X185000000Y-80552560D01*
X184764683Y-80596838D01*
X184548559Y-80735910D01*
X184403569Y-80948110D01*
X184352560Y-81200000D01*
X184352560Y-82800000D01*
X184396838Y-83035317D01*
X184535910Y-83251441D01*
X184748110Y-83396431D01*
X185000000Y-83447440D01*
X186000000Y-83447440D01*
X186235317Y-83403162D01*
X186451441Y-83264090D01*
X186539644Y-83135000D01*
X187373000Y-83135000D01*
X187373000Y-122865000D01*
X186671192Y-122865000D01*
X186564090Y-122698559D01*
X186351890Y-122553569D01*
X186100000Y-122502560D01*
X185200000Y-122502560D01*
X184964683Y-122546838D01*
X184748559Y-122685910D01*
X184603569Y-122898110D01*
X184552560Y-123150000D01*
X184552560Y-123811174D01*
X184515000Y-124000000D01*
X184552560Y-124188826D01*
X184552560Y-124850000D01*
X184596838Y-125085317D01*
X184735910Y-125301441D01*
X184948110Y-125446431D01*
X185200000Y-125497440D01*
X186100000Y-125497440D01*
X186335317Y-125453162D01*
X186551441Y-125314090D01*
X186673808Y-125135000D01*
X187373000Y-125135000D01*
X187373000Y-144707102D01*
X187169161Y-144502907D01*
X186476595Y-144215328D01*
X185726695Y-144214674D01*
X185033628Y-144501043D01*
X184502907Y-145030839D01*
X184215328Y-145723405D01*
X184214674Y-146473305D01*
X184501043Y-147166372D01*
X184707311Y-147373000D01*
X150535000Y-147373000D01*
X150535000Y-146739018D01*
X150651441Y-146664090D01*
X150796431Y-146451890D01*
X150847440Y-146200000D01*
X150847440Y-145200000D01*
X150803162Y-144964683D01*
X150664090Y-144748559D01*
X150451890Y-144603569D01*
X150200000Y-144552560D01*
X148600000Y-144552560D01*
X148364683Y-144596838D01*
X148148559Y-144735910D01*
X148003569Y-144948110D01*
X147952560Y-145200000D01*
X147952560Y-146200000D01*
X147996838Y-146435317D01*
X148135910Y-146651441D01*
X148265000Y-146739644D01*
X148265000Y-147373000D01*
X137642276Y-147373000D01*
X137765687Y-147348452D01*
X138296120Y-146994029D01*
X138650543Y-146463596D01*
X138775000Y-145837909D01*
X138775000Y-145162091D01*
X138650543Y-144536404D01*
X138296120Y-144005971D01*
X137765687Y-143651548D01*
X137140000Y-143527091D01*
X136514313Y-143651548D01*
X135983880Y-144005971D01*
X135870000Y-144176405D01*
X135756120Y-144005971D01*
X135410000Y-143774702D01*
X135410000Y-143600000D01*
X135409371Y-143596838D01*
X135348343Y-143290027D01*
X135172757Y-143027244D01*
X134322756Y-142177244D01*
X134222078Y-142109973D01*
X134059974Y-142001658D01*
X133750000Y-141940000D01*
X130559020Y-141940000D01*
X130787401Y-141787401D01*
X132171208Y-140403594D01*
X132185910Y-140426441D01*
X132398110Y-140571431D01*
X132650000Y-140622440D01*
X133450000Y-140622440D01*
X133685317Y-140578162D01*
X133799978Y-140504380D01*
X133898110Y-140571431D01*
X134150000Y-140622440D01*
X134950000Y-140622440D01*
X135185317Y-140578162D01*
X135401441Y-140439090D01*
X135402390Y-140437701D01*
X135598110Y-140571431D01*
X135850000Y-140622440D01*
X136650000Y-140622440D01*
X136885317Y-140578162D01*
X137101441Y-140439090D01*
X137246431Y-140226890D01*
X137297440Y-139975000D01*
X137297440Y-139225000D01*
X137253162Y-138989683D01*
X137114090Y-138773559D01*
X137010000Y-138702437D01*
X137010000Y-138500000D01*
X136952148Y-138209161D01*
X136787401Y-137962599D01*
X135724547Y-136899745D01*
X135772817Y-136890662D01*
X135988941Y-136751590D01*
X136133931Y-136539390D01*
X136184940Y-136287500D01*
X136184940Y-136059940D01*
X136412500Y-136059940D01*
X136478613Y-136047500D01*
X137722698Y-136047500D01*
X141962599Y-140287401D01*
X142209161Y-140452148D01*
X142500000Y-140510000D01*
X176000000Y-140510000D01*
X176290839Y-140452148D01*
X176537401Y-140287401D01*
X178787401Y-138037401D01*
X178952148Y-137790839D01*
X179010000Y-137500000D01*
X179010000Y-136103021D01*
X179162560Y-136103021D01*
X179548437Y-137036915D01*
X180262327Y-137752052D01*
X181195546Y-138139559D01*
X182206021Y-138140440D01*
X183139915Y-137754563D01*
X183855052Y-137040673D01*
X184242559Y-136107454D01*
X184243440Y-135096979D01*
X183857563Y-134163085D01*
X183143673Y-133447948D01*
X182210454Y-133060441D01*
X181199979Y-133059560D01*
X180266085Y-133445437D01*
X179550948Y-134159327D01*
X179163441Y-135092546D01*
X179162560Y-136103021D01*
X179010000Y-136103021D01*
X179010000Y-132250000D01*
X178952148Y-131959161D01*
X178787401Y-131712599D01*
X176787401Y-129712599D01*
X176540839Y-129547852D01*
X176250000Y-129490000D01*
X170250000Y-129490000D01*
X169959160Y-129547852D01*
X169712599Y-129712599D01*
X168592599Y-130832599D01*
X168427852Y-131079161D01*
X168370000Y-131370000D01*
X168370000Y-131862469D01*
X168339697Y-131874990D01*
X167946371Y-132267630D01*
X167733243Y-132780900D01*
X167733241Y-132783336D01*
X167521010Y-132269697D01*
X167128370Y-131876371D01*
X167096000Y-131862930D01*
X167096000Y-131336000D01*
X167038148Y-131045161D01*
X166873401Y-130798599D01*
X166037401Y-129962599D01*
X165790839Y-129797852D01*
X165500000Y-129740000D01*
X144562463Y-129740000D01*
X144530327Y-129707808D01*
X144186799Y-129565162D01*
X143814833Y-129564838D01*
X143471057Y-129706883D01*
X143207808Y-129969673D01*
X143065162Y-130313201D01*
X143064838Y-130685167D01*
X143206287Y-131027500D01*
X136473931Y-131027500D01*
X136412500Y-131015060D01*
X136184940Y-131015060D01*
X136184940Y-130787500D01*
X136140662Y-130552183D01*
X136001590Y-130336059D01*
X135789390Y-130191069D01*
X135672500Y-130167398D01*
X135672500Y-128662500D01*
X135614648Y-128371661D01*
X135449901Y-128125099D01*
X134537401Y-127212599D01*
X134290839Y-127047852D01*
X134000000Y-126990000D01*
X131935009Y-126990000D01*
X131935057Y-126935162D01*
X131935167Y-126935162D01*
X132278943Y-126793117D01*
X132542192Y-126530327D01*
X132684838Y-126186799D01*
X132685162Y-125814833D01*
X132543117Y-125471057D01*
X132510000Y-125437882D01*
X132510000Y-124371198D01*
X132568455Y-124283714D01*
X132735000Y-124317440D01*
X133635000Y-124317440D01*
X133826792Y-124281352D01*
X134005000Y-124317440D01*
X134905000Y-124317440D01*
X135096792Y-124281352D01*
X135275000Y-124317440D01*
X136175000Y-124317440D01*
X136366792Y-124281352D01*
X136545000Y-124317440D01*
X137445000Y-124317440D01*
X137680317Y-124273162D01*
X137896441Y-124134090D01*
X138041431Y-123921890D01*
X138092440Y-123670000D01*
X138092440Y-120670000D01*
X139642560Y-120670000D01*
X139642560Y-123670000D01*
X139686838Y-123905317D01*
X139825910Y-124121441D01*
X140038110Y-124266431D01*
X140290000Y-124317440D01*
X142590000Y-124317440D01*
X142825317Y-124273162D01*
X143041441Y-124134090D01*
X143186431Y-123921890D01*
X143237440Y-123670000D01*
X143237440Y-121125000D01*
X158452560Y-121125000D01*
X158452560Y-121875000D01*
X158496838Y-122110317D01*
X158635910Y-122326441D01*
X158848110Y-122471431D01*
X159100000Y-122522440D01*
X159900000Y-122522440D01*
X160135317Y-122478162D01*
X160351441Y-122339090D01*
X160405481Y-122260000D01*
X160699056Y-122260000D01*
X160706883Y-122278943D01*
X160969673Y-122542192D01*
X161313201Y-122684838D01*
X161685167Y-122685162D01*
X162028943Y-122543117D01*
X162292192Y-122280327D01*
X162434838Y-121936799D01*
X162435162Y-121564833D01*
X162293117Y-121221057D01*
X162030327Y-120957808D01*
X161686799Y-120815162D01*
X161566589Y-120815057D01*
X161540839Y-120797852D01*
X161250000Y-120740000D01*
X160406844Y-120740000D01*
X160364090Y-120673559D01*
X160151890Y-120528569D01*
X159900000Y-120477560D01*
X159100000Y-120477560D01*
X158864683Y-120521838D01*
X158648559Y-120660910D01*
X158503569Y-120873110D01*
X158452560Y-121125000D01*
X143237440Y-121125000D01*
X143237440Y-120670000D01*
X143193162Y-120434683D01*
X143054090Y-120218559D01*
X142841890Y-120073569D01*
X142590000Y-120022560D01*
X140290000Y-120022560D01*
X140054683Y-120066838D01*
X139838559Y-120205910D01*
X139693569Y-120418110D01*
X139642560Y-120670000D01*
X138092440Y-120670000D01*
X138048162Y-120434683D01*
X137909090Y-120218559D01*
X137696890Y-120073569D01*
X137445000Y-120022560D01*
X136545000Y-120022560D01*
X136353208Y-120058648D01*
X136175000Y-120022560D01*
X135275000Y-120022560D01*
X135083208Y-120058648D01*
X134905000Y-120022560D01*
X134005000Y-120022560D01*
X133813208Y-120058648D01*
X133635000Y-120022560D01*
X132735000Y-120022560D01*
X132543208Y-120058648D01*
X132365000Y-120022560D01*
X131465000Y-120022560D01*
X131273208Y-120058648D01*
X131095000Y-120022560D01*
X130195000Y-120022560D01*
X130003208Y-120058648D01*
X129825000Y-120022560D01*
X128925000Y-120022560D01*
X128733208Y-120058648D01*
X128555000Y-120022560D01*
X127655000Y-120022560D01*
X127463208Y-120058648D01*
X127285000Y-120022560D01*
X126385000Y-120022560D01*
X126193208Y-120058648D01*
X126015000Y-120022560D01*
X125115000Y-120022560D01*
X124923208Y-120058648D01*
X124745000Y-120022560D01*
X123845000Y-120022560D01*
X123653208Y-120058648D01*
X123475000Y-120022560D01*
X122575000Y-120022560D01*
X122339683Y-120066838D01*
X122123559Y-120205910D01*
X121978569Y-120418110D01*
X121927560Y-120670000D01*
X121927560Y-123670000D01*
X121971838Y-123905317D01*
X122110910Y-124121441D01*
X122323110Y-124266431D01*
X122575000Y-124317440D01*
X123475000Y-124317440D01*
X123510000Y-124310854D01*
X123510000Y-127354585D01*
X123500000Y-127352560D01*
X123000000Y-127352560D01*
X122764683Y-127396838D01*
X122619905Y-127490000D01*
X122500000Y-127490000D01*
X122209161Y-127547852D01*
X121962599Y-127712599D01*
X121462599Y-128212599D01*
X121297852Y-128459161D01*
X121240000Y-128750000D01*
X121240000Y-131250000D01*
X121297852Y-131540839D01*
X121462599Y-131787401D01*
X122102378Y-132427180D01*
X122102338Y-132472667D01*
X122244383Y-132816443D01*
X122507173Y-133079692D01*
X122850701Y-133222338D01*
X123090000Y-133222546D01*
X123090000Y-134014487D01*
X121427244Y-135677244D01*
X121251658Y-135940026D01*
X121190000Y-136250000D01*
X121190000Y-140262559D01*
X121065162Y-140563201D01*
X121064852Y-140919339D01*
X119172756Y-139027244D01*
X119118272Y-138990839D01*
X118909974Y-138851658D01*
X118600000Y-138790000D01*
X117035000Y-138790000D01*
X117035000Y-138725005D01*
X117035001Y-138725000D01*
X116967633Y-138386326D01*
X116967633Y-138386325D01*
X116816628Y-138160329D01*
X116816628Y-137854686D01*
X116828059Y-137837956D01*
X116879068Y-137586066D01*
X116879068Y-136086066D01*
X116845248Y-135906331D01*
X116916579Y-135835000D01*
X117610025Y-135835000D01*
X117773110Y-135946431D01*
X117865000Y-135965039D01*
X117865000Y-136443178D01*
X117815162Y-136563201D01*
X117814838Y-136935167D01*
X117956883Y-137278943D01*
X118219673Y-137542192D01*
X118563201Y-137684838D01*
X118935167Y-137685162D01*
X119278943Y-137543117D01*
X119542192Y-137280327D01*
X119684838Y-136936799D01*
X119685162Y-136564833D01*
X119635000Y-136443431D01*
X119635000Y-135500005D01*
X119635001Y-135500000D01*
X119570850Y-135177500D01*
X119567633Y-135161325D01*
X119422440Y-134944027D01*
X119422440Y-134550000D01*
X119378162Y-134314683D01*
X119304380Y-134200022D01*
X119371431Y-134101890D01*
X119422440Y-133850000D01*
X119422440Y-133050000D01*
X119378162Y-132814683D01*
X119239090Y-132598559D01*
X119026890Y-132453569D01*
X118775000Y-132402560D01*
X118025000Y-132402560D01*
X117789683Y-132446838D01*
X117606054Y-132565000D01*
X116741254Y-132565000D01*
X116828059Y-132437956D01*
X116879068Y-132186066D01*
X116879068Y-130686066D01*
X116834790Y-130450749D01*
X116816628Y-130422524D01*
X116816628Y-129660514D01*
X116959261Y-129447047D01*
X116991017Y-129287401D01*
X117026629Y-129108372D01*
X117026628Y-129108367D01*
X117026628Y-127989975D01*
X117138059Y-127826890D01*
X117189068Y-127575000D01*
X117189068Y-126825000D01*
X117144790Y-126589683D01*
X117005718Y-126373559D01*
X116793518Y-126228569D01*
X116541628Y-126177560D01*
X115741628Y-126177560D01*
X115506311Y-126221838D01*
X115391650Y-126295620D01*
X115293518Y-126228569D01*
X115041628Y-126177560D01*
X114241628Y-126177560D01*
X114006311Y-126221838D01*
X113790187Y-126360910D01*
X113645197Y-126573110D01*
X113594188Y-126825000D01*
X113594188Y-127575000D01*
X113638466Y-127810317D01*
X113644835Y-127820214D01*
X113185000Y-128280048D01*
X113185000Y-127989975D01*
X113296431Y-127826890D01*
X113347440Y-127575000D01*
X113347440Y-126825000D01*
X113303162Y-126589683D01*
X113164090Y-126373559D01*
X112951890Y-126228569D01*
X112700000Y-126177560D01*
X111900000Y-126177560D01*
X111664683Y-126221838D01*
X111550022Y-126295620D01*
X111451890Y-126228569D01*
X111200000Y-126177560D01*
X110400000Y-126177560D01*
X110164683Y-126221838D01*
X109948559Y-126360910D01*
X109803569Y-126573110D01*
X109752560Y-126825000D01*
X109752560Y-127575000D01*
X109796838Y-127810317D01*
X109915000Y-127993946D01*
X109915000Y-128663421D01*
X109435000Y-128183420D01*
X109435000Y-127989975D01*
X109546431Y-127826890D01*
X109597440Y-127575000D01*
X109597440Y-126825000D01*
X109553162Y-126589683D01*
X109414090Y-126373559D01*
X109201890Y-126228569D01*
X108950000Y-126177560D01*
X108150000Y-126177560D01*
X107914683Y-126221838D01*
X107698559Y-126360910D01*
X107553569Y-126573110D01*
X107502560Y-126825000D01*
X107502560Y-127575000D01*
X107546838Y-127810317D01*
X107665000Y-127993946D01*
X107665000Y-128549995D01*
X107664999Y-128550000D01*
X107712222Y-128787401D01*
X107732367Y-128888675D01*
X107887652Y-129121077D01*
X107924210Y-129175790D01*
X108696628Y-129948207D01*
X108696628Y-130055839D01*
X108611628Y-130038626D01*
X108011628Y-130038626D01*
X107776311Y-130082904D01*
X107677100Y-130146744D01*
X107593518Y-130089635D01*
X107341628Y-130038626D01*
X106741628Y-130038626D01*
X106506311Y-130082904D01*
X106290187Y-130221976D01*
X106145197Y-130434176D01*
X106094188Y-130686066D01*
X106094188Y-132186066D01*
X106138466Y-132421383D01*
X106277538Y-132637507D01*
X106489738Y-132782497D01*
X106741628Y-132833506D01*
X107341628Y-132833506D01*
X107576945Y-132789228D01*
X107676156Y-132725388D01*
X107759738Y-132782497D01*
X108011628Y-132833506D01*
X108611628Y-132833506D01*
X108846945Y-132789228D01*
X108946156Y-132725388D01*
X109029738Y-132782497D01*
X109281628Y-132833506D01*
X109881628Y-132833506D01*
X110116945Y-132789228D01*
X110216156Y-132725388D01*
X110299738Y-132782497D01*
X110551628Y-132833506D01*
X111151628Y-132833506D01*
X111386945Y-132789228D01*
X111486156Y-132725388D01*
X111569738Y-132782497D01*
X111821628Y-132833506D01*
X112421628Y-132833506D01*
X112656945Y-132789228D01*
X112756156Y-132725388D01*
X112839738Y-132782497D01*
X113091628Y-132833506D01*
X113691628Y-132833506D01*
X113801831Y-132812770D01*
X113828701Y-132947852D01*
X113843995Y-133024741D01*
X113994574Y-133250099D01*
X114035838Y-133311856D01*
X114799770Y-134075787D01*
X114799772Y-134075790D01*
X115086887Y-134267633D01*
X115116086Y-134273441D01*
X115425562Y-134335001D01*
X115425567Y-134335000D01*
X115913421Y-134335000D01*
X115305838Y-134942582D01*
X115113995Y-135229697D01*
X115113995Y-135229698D01*
X115046627Y-135568372D01*
X115046628Y-135568377D01*
X115046628Y-135817446D01*
X115035197Y-135834176D01*
X114984188Y-136086066D01*
X114984188Y-137586066D01*
X115028466Y-137821383D01*
X115046628Y-137849608D01*
X115046628Y-138506623D01*
X115046627Y-138506628D01*
X115082749Y-138688221D01*
X115113995Y-138845303D01*
X115176737Y-138939203D01*
X115153569Y-138973110D01*
X115102560Y-139225000D01*
X115102560Y-139975000D01*
X115146838Y-140210317D01*
X115285910Y-140426441D01*
X115305754Y-140440000D01*
X115185511Y-140440000D01*
X114201628Y-139456118D01*
X114201628Y-137964452D01*
X114288059Y-137837956D01*
X114339068Y-137586066D01*
X114339068Y-136086066D01*
X114294790Y-135850749D01*
X114155718Y-135634625D01*
X113943518Y-135489635D01*
X113691628Y-135438626D01*
X113091628Y-135438626D01*
X112856311Y-135482904D01*
X112757100Y-135546744D01*
X112673518Y-135489635D01*
X112421628Y-135438626D01*
X111821628Y-135438626D01*
X111586311Y-135482904D01*
X111487100Y-135546744D01*
X111403518Y-135489635D01*
X111151628Y-135438626D01*
X110551628Y-135438626D01*
X110316311Y-135482904D01*
X110217100Y-135546744D01*
X110133518Y-135489635D01*
X109881628Y-135438626D01*
X109281628Y-135438626D01*
X109046311Y-135482904D01*
X108947100Y-135546744D01*
X108863518Y-135489635D01*
X108611628Y-135438626D01*
X108011628Y-135438626D01*
X107776311Y-135482904D01*
X107677100Y-135546744D01*
X107593518Y-135489635D01*
X107341628Y-135438626D01*
X106741628Y-135438626D01*
X106506311Y-135482904D01*
X106290187Y-135621976D01*
X106145197Y-135834176D01*
X106094188Y-136086066D01*
X106094188Y-137586066D01*
X106138466Y-137821383D01*
X106277538Y-138037507D01*
X106489738Y-138182497D01*
X106741628Y-138233506D01*
X107341628Y-138233506D01*
X107576945Y-138189228D01*
X107676156Y-138125388D01*
X107759738Y-138182497D01*
X108011628Y-138233506D01*
X108611628Y-138233506D01*
X108771628Y-138203400D01*
X108771628Y-139332859D01*
X107287244Y-140817244D01*
X107111658Y-141080026D01*
X107050000Y-141390000D01*
X107050000Y-143674702D01*
X106703880Y-143905971D01*
X106349457Y-144436404D01*
X106225000Y-145062091D01*
X106225000Y-145737909D01*
X106349457Y-146363596D01*
X106703880Y-146894029D01*
X107234313Y-147248452D01*
X107860000Y-147372909D01*
X108485687Y-147248452D01*
X108844192Y-147008907D01*
X108935910Y-147151441D01*
X109148110Y-147296431D01*
X109400000Y-147347440D01*
X111400000Y-147347440D01*
X111635317Y-147303162D01*
X111851441Y-147164090D01*
X111996431Y-146951890D01*
X112047440Y-146700000D01*
X112047440Y-144100000D01*
X112003162Y-143864683D01*
X111864090Y-143648559D01*
X111651890Y-143503569D01*
X111400000Y-143452560D01*
X111210000Y-143452560D01*
X111210000Y-140935513D01*
X111409585Y-140735928D01*
X111479685Y-140840839D01*
X111548872Y-140944384D01*
X113450000Y-142845513D01*
X113450000Y-143674702D01*
X113103880Y-143905971D01*
X112749457Y-144436404D01*
X112625000Y-145062091D01*
X112625000Y-145737909D01*
X112749457Y-146363596D01*
X113103880Y-146894029D01*
X113634313Y-147248452D01*
X114260000Y-147372909D01*
X114885687Y-147248452D01*
X115244192Y-147008907D01*
X115335910Y-147151441D01*
X115548110Y-147296431D01*
X115800000Y-147347440D01*
X117800000Y-147347440D01*
X118035317Y-147303162D01*
X118251441Y-147164090D01*
X118396431Y-146951890D01*
X118447440Y-146700000D01*
X118447440Y-144100000D01*
X118403162Y-143864683D01*
X118264090Y-143648559D01*
X118051890Y-143503569D01*
X117800000Y-143452560D01*
X117610000Y-143452560D01*
X117610000Y-141800000D01*
X117548342Y-141490026D01*
X117453671Y-141348342D01*
X117372756Y-141227243D01*
X116822756Y-140677244D01*
X116709592Y-140601630D01*
X116698826Y-140594436D01*
X116785317Y-140578162D01*
X117001441Y-140439090D01*
X117021317Y-140410000D01*
X118264488Y-140410000D01*
X123927243Y-146072756D01*
X124040366Y-146148342D01*
X124190026Y-146248342D01*
X124500000Y-146310000D01*
X130412560Y-146310000D01*
X130412560Y-146800000D01*
X130456838Y-147035317D01*
X130595910Y-147251441D01*
X130773818Y-147373000D01*
X105192898Y-147373000D01*
X105397093Y-147169161D01*
X105684672Y-146476595D01*
X105685326Y-145726695D01*
X105398957Y-145033628D01*
X104869161Y-144502907D01*
X104176595Y-144215328D01*
X103426695Y-144214674D01*
X102733628Y-144501043D01*
X102627000Y-144607485D01*
X102627000Y-111000560D01*
X104202140Y-111000560D01*
X104202140Y-112199440D01*
X104246418Y-112434757D01*
X104385490Y-112650881D01*
X104597690Y-112795871D01*
X104849580Y-112846880D01*
X106048460Y-112846880D01*
X106169894Y-112824031D01*
X106140508Y-112971760D01*
X106048460Y-112953120D01*
X104849580Y-112953120D01*
X104614263Y-112997398D01*
X104398139Y-113136470D01*
X104253149Y-113348670D01*
X104202140Y-113600560D01*
X104202140Y-114799440D01*
X104246418Y-115034757D01*
X104385490Y-115250881D01*
X104597690Y-115395871D01*
X104849580Y-115446880D01*
X106048460Y-115446880D01*
X106115000Y-115434360D01*
X106115000Y-115566595D01*
X106048460Y-115553120D01*
X104849580Y-115553120D01*
X104614263Y-115597398D01*
X104398139Y-115736470D01*
X104253149Y-115948670D01*
X104202140Y-116200560D01*
X104202140Y-117399440D01*
X104246418Y-117634757D01*
X104385490Y-117850881D01*
X104597690Y-117995871D01*
X104849580Y-118046880D01*
X106048460Y-118046880D01*
X106115000Y-118034360D01*
X106115000Y-118366595D01*
X106048460Y-118353120D01*
X104849580Y-118353120D01*
X104614263Y-118397398D01*
X104398139Y-118536470D01*
X104253149Y-118748670D01*
X104202140Y-119000560D01*
X104202140Y-120199440D01*
X104246418Y-120434757D01*
X104385490Y-120650881D01*
X104597690Y-120795871D01*
X104849580Y-120846880D01*
X106048460Y-120846880D01*
X106283777Y-120802602D01*
X106499901Y-120663530D01*
X106633434Y-120468098D01*
X106861812Y-120422670D01*
X106887135Y-120417633D01*
X107174250Y-120225790D01*
X107215000Y-120185040D01*
X107215000Y-120681881D01*
X106414652Y-121482228D01*
X106300350Y-121404129D01*
X106048460Y-121353120D01*
X104849580Y-121353120D01*
X104614263Y-121397398D01*
X104398139Y-121536470D01*
X104253149Y-121748670D01*
X104202140Y-122000560D01*
X104202140Y-123199440D01*
X104246418Y-123434757D01*
X104385490Y-123650881D01*
X104597690Y-123795871D01*
X104849580Y-123846880D01*
X106048460Y-123846880D01*
X106283777Y-123802602D01*
X106499901Y-123663530D01*
X106633434Y-123468098D01*
X106830944Y-123428810D01*
X106887135Y-123417633D01*
X107174250Y-123225790D01*
X108725787Y-121674252D01*
X108725790Y-121674250D01*
X108917633Y-121387135D01*
X108928810Y-121330944D01*
X108985001Y-121048460D01*
X108985000Y-121048455D01*
X108985000Y-120569146D01*
X109098110Y-120646431D01*
X109350000Y-120697440D01*
X109850000Y-120697440D01*
X109995830Y-120670000D01*
X116782560Y-120670000D01*
X116782560Y-123670000D01*
X116826838Y-123905317D01*
X116965910Y-124121441D01*
X117178110Y-124266431D01*
X117430000Y-124317440D01*
X119730000Y-124317440D01*
X119965317Y-124273162D01*
X120181441Y-124134090D01*
X120326431Y-123921890D01*
X120377440Y-123670000D01*
X120377440Y-120670000D01*
X120333162Y-120434683D01*
X120194090Y-120218559D01*
X119981890Y-120073569D01*
X119730000Y-120022560D01*
X117430000Y-120022560D01*
X117194683Y-120066838D01*
X116978559Y-120205910D01*
X116833569Y-120418110D01*
X116782560Y-120670000D01*
X109995830Y-120670000D01*
X110085317Y-120653162D01*
X110301441Y-120514090D01*
X110321317Y-120485000D01*
X110349995Y-120485000D01*
X110350000Y-120485001D01*
X110663352Y-120422670D01*
X110688675Y-120417633D01*
X110975790Y-120225790D01*
X111875787Y-119325792D01*
X111875790Y-119325790D01*
X112067633Y-119038675D01*
X112084414Y-118954314D01*
X112135001Y-118700000D01*
X112135000Y-118699995D01*
X112135000Y-118458808D01*
X112168110Y-118481431D01*
X112420000Y-118532440D01*
X115420000Y-118532440D01*
X115655317Y-118488162D01*
X115871441Y-118349090D01*
X116016431Y-118136890D01*
X116067440Y-117885000D01*
X116067440Y-116985000D01*
X116031352Y-116793208D01*
X116067440Y-116615000D01*
X116067440Y-115715000D01*
X116031352Y-115523208D01*
X116067440Y-115345000D01*
X116067440Y-114530000D01*
X124362560Y-114530000D01*
X124362560Y-116530000D01*
X124406838Y-116765317D01*
X124545910Y-116981441D01*
X124758110Y-117126431D01*
X125010000Y-117177440D01*
X135010000Y-117177440D01*
X135245317Y-117133162D01*
X135461441Y-116994090D01*
X135606431Y-116781890D01*
X135657440Y-116530000D01*
X135657440Y-114530000D01*
X135613162Y-114294683D01*
X135474090Y-114078559D01*
X135261890Y-113933569D01*
X135010000Y-113882560D01*
X125010000Y-113882560D01*
X124774683Y-113926838D01*
X124558559Y-114065910D01*
X124413569Y-114278110D01*
X124362560Y-114530000D01*
X116067440Y-114530000D01*
X116067440Y-114445000D01*
X116031352Y-114253208D01*
X116067440Y-114075000D01*
X116067440Y-113175000D01*
X116031352Y-112983208D01*
X116067440Y-112805000D01*
X116067440Y-111905000D01*
X116031352Y-111713208D01*
X116067440Y-111535000D01*
X116067440Y-110635000D01*
X116031352Y-110443208D01*
X116067440Y-110265000D01*
X116067440Y-109365000D01*
X116023162Y-109129683D01*
X115884090Y-108913559D01*
X115671890Y-108768569D01*
X115420000Y-108717560D01*
X112420000Y-108717560D01*
X112184683Y-108761838D01*
X111968559Y-108900910D01*
X111823569Y-109113110D01*
X111772560Y-109365000D01*
X111772560Y-110265000D01*
X111773946Y-110272367D01*
X111475790Y-109974210D01*
X111368273Y-109902370D01*
X111188675Y-109782367D01*
X111132484Y-109771190D01*
X110850000Y-109714999D01*
X110849995Y-109715000D01*
X110274669Y-109715000D01*
X110264090Y-109698559D01*
X110051890Y-109553569D01*
X109800000Y-109502560D01*
X109300000Y-109502560D01*
X109064683Y-109546838D01*
X108848559Y-109685910D01*
X108800866Y-109755711D01*
X108764090Y-109698559D01*
X108551890Y-109553569D01*
X108300000Y-109502560D01*
X107800000Y-109502560D01*
X107564683Y-109546838D01*
X107348559Y-109685910D01*
X107328683Y-109715000D01*
X107300005Y-109715000D01*
X107300000Y-109714999D01*
X107017516Y-109771190D01*
X106961325Y-109782367D01*
X106674210Y-109974210D01*
X106674208Y-109974213D01*
X106374210Y-110274210D01*
X106288945Y-110401819D01*
X106048460Y-110353120D01*
X104849580Y-110353120D01*
X104614263Y-110397398D01*
X104398139Y-110536470D01*
X104253149Y-110748670D01*
X104202140Y-111000560D01*
X102627000Y-111000560D01*
X102627000Y-103697440D01*
X103635000Y-103697440D01*
X103870317Y-103653162D01*
X103989795Y-103576280D01*
X104002516Y-103578810D01*
X104285000Y-103635001D01*
X104285005Y-103635000D01*
X106865000Y-103635000D01*
X106865000Y-104662486D01*
X106832367Y-104711325D01*
X106832367Y-104711326D01*
X106764999Y-105050000D01*
X106765000Y-105050005D01*
X106765000Y-105488569D01*
X106752560Y-105550000D01*
X106752560Y-106450000D01*
X106796838Y-106685317D01*
X106935910Y-106901441D01*
X107148110Y-107046431D01*
X107400000Y-107097440D01*
X107900000Y-107097440D01*
X108135317Y-107053162D01*
X108351441Y-106914090D01*
X108399134Y-106844289D01*
X108435910Y-106901441D01*
X108648110Y-107046431D01*
X108900000Y-107097440D01*
X109400000Y-107097440D01*
X109635317Y-107053162D01*
X109851441Y-106914090D01*
X109871317Y-106885000D01*
X111772560Y-106885000D01*
X111772560Y-107725000D01*
X111816838Y-107960317D01*
X111955910Y-108176441D01*
X112168110Y-108321431D01*
X112420000Y-108372440D01*
X115420000Y-108372440D01*
X115655317Y-108328162D01*
X115871441Y-108189090D01*
X116016431Y-107976890D01*
X116067440Y-107725000D01*
X116067440Y-106825000D01*
X116031352Y-106633208D01*
X116067440Y-106455000D01*
X116067440Y-105555000D01*
X116031352Y-105363208D01*
X116067440Y-105185000D01*
X116067440Y-104835000D01*
X119472560Y-104835000D01*
X119472560Y-110985000D01*
X119516838Y-111220317D01*
X119655910Y-111436441D01*
X119868110Y-111581431D01*
X120120000Y-111632440D01*
X122120000Y-111632440D01*
X122355317Y-111588162D01*
X122571441Y-111449090D01*
X122716431Y-111236890D01*
X122767440Y-110985000D01*
X122767440Y-104835000D01*
X137252560Y-104835000D01*
X137252560Y-110985000D01*
X137296838Y-111220317D01*
X137435910Y-111436441D01*
X137648110Y-111581431D01*
X137900000Y-111632440D01*
X139900000Y-111632440D01*
X140135317Y-111588162D01*
X140351441Y-111449090D01*
X140496431Y-111236890D01*
X140547440Y-110985000D01*
X140547440Y-104835000D01*
X140503162Y-104599683D01*
X140364090Y-104383559D01*
X140151890Y-104238569D01*
X139900000Y-104187560D01*
X137900000Y-104187560D01*
X137664683Y-104231838D01*
X137448559Y-104370910D01*
X137303569Y-104583110D01*
X137252560Y-104835000D01*
X122767440Y-104835000D01*
X122723162Y-104599683D01*
X122584090Y-104383559D01*
X122371890Y-104238569D01*
X122120000Y-104187560D01*
X120120000Y-104187560D01*
X119884683Y-104231838D01*
X119668559Y-104370910D01*
X119523569Y-104583110D01*
X119472560Y-104835000D01*
X116067440Y-104835000D01*
X116067440Y-104285000D01*
X116031352Y-104093208D01*
X116067440Y-103915000D01*
X116067440Y-103015000D01*
X116031352Y-102823208D01*
X116067440Y-102645000D01*
X116067440Y-101745000D01*
X116031352Y-101553208D01*
X116067440Y-101375000D01*
X116067440Y-100475000D01*
X116031352Y-100283208D01*
X116067440Y-100105000D01*
X116067440Y-99205000D01*
X116031352Y-99013208D01*
X116067440Y-98835000D01*
X116067440Y-97935000D01*
X116031352Y-97743208D01*
X116067440Y-97565000D01*
X116067440Y-96665000D01*
X116031352Y-96473208D01*
X116067440Y-96295000D01*
X116067440Y-95395000D01*
X116031352Y-95203208D01*
X116067440Y-95025000D01*
X116067440Y-94675000D01*
X119472560Y-94675000D01*
X119472560Y-100825000D01*
X119516838Y-101060317D01*
X119655910Y-101276441D01*
X119868110Y-101421431D01*
X120120000Y-101472440D01*
X122120000Y-101472440D01*
X122355317Y-101428162D01*
X122571441Y-101289090D01*
X122716431Y-101076890D01*
X122767440Y-100825000D01*
X122767440Y-94675000D01*
X137252560Y-94675000D01*
X137252560Y-100825000D01*
X137296838Y-101060317D01*
X137435910Y-101276441D01*
X137648110Y-101421431D01*
X137900000Y-101472440D01*
X139900000Y-101472440D01*
X140135317Y-101428162D01*
X140351441Y-101289090D01*
X140496431Y-101076890D01*
X140547440Y-100825000D01*
X140547440Y-94675000D01*
X140503162Y-94439683D01*
X140364090Y-94223559D01*
X140151890Y-94078569D01*
X139900000Y-94027560D01*
X137900000Y-94027560D01*
X137664683Y-94071838D01*
X137448559Y-94210910D01*
X137303569Y-94423110D01*
X137252560Y-94675000D01*
X122767440Y-94675000D01*
X122723162Y-94439683D01*
X122584090Y-94223559D01*
X122371890Y-94078569D01*
X122120000Y-94027560D01*
X120120000Y-94027560D01*
X119884683Y-94071838D01*
X119668559Y-94210910D01*
X119523569Y-94423110D01*
X119472560Y-94675000D01*
X116067440Y-94675000D01*
X116067440Y-94125000D01*
X116031352Y-93933208D01*
X116067440Y-93755000D01*
X116067440Y-92855000D01*
X116031352Y-92663208D01*
X116067440Y-92485000D01*
X116067440Y-91585000D01*
X116031352Y-91393208D01*
X116067440Y-91215000D01*
X116067440Y-90315000D01*
X116031352Y-90123208D01*
X116067440Y-89945000D01*
X116067440Y-89130000D01*
X124362560Y-89130000D01*
X124362560Y-91130000D01*
X124406838Y-91365317D01*
X124545910Y-91581441D01*
X124758110Y-91726431D01*
X125010000Y-91777440D01*
X135010000Y-91777440D01*
X135245317Y-91733162D01*
X135461441Y-91594090D01*
X135606431Y-91381890D01*
X135657440Y-91130000D01*
X135657440Y-89130000D01*
X135613162Y-88894683D01*
X135474090Y-88678559D01*
X135261890Y-88533569D01*
X135010000Y-88482560D01*
X125010000Y-88482560D01*
X124774683Y-88526838D01*
X124558559Y-88665910D01*
X124413569Y-88878110D01*
X124362560Y-89130000D01*
X116067440Y-89130000D01*
X116067440Y-89045000D01*
X116023162Y-88809683D01*
X115884090Y-88593559D01*
X115671890Y-88448569D01*
X115420000Y-88397560D01*
X112420000Y-88397560D01*
X112184683Y-88441838D01*
X111968559Y-88580910D01*
X111823569Y-88793110D01*
X111772560Y-89045000D01*
X111772560Y-89945000D01*
X111808648Y-90136792D01*
X111772560Y-90315000D01*
X111772560Y-91215000D01*
X111808648Y-91406792D01*
X111772560Y-91585000D01*
X111772560Y-92485000D01*
X111808648Y-92676792D01*
X111772560Y-92855000D01*
X111772560Y-93755000D01*
X111808648Y-93946792D01*
X111772560Y-94125000D01*
X111772560Y-95025000D01*
X111808648Y-95216792D01*
X111772560Y-95395000D01*
X111772560Y-96295000D01*
X111808648Y-96486792D01*
X111772560Y-96665000D01*
X111772560Y-97565000D01*
X111808648Y-97756792D01*
X111772560Y-97935000D01*
X111772560Y-98835000D01*
X111808648Y-99026792D01*
X111772560Y-99205000D01*
X111772560Y-100020981D01*
X111385000Y-99633420D01*
X111385000Y-98100005D01*
X111385001Y-98100000D01*
X111317633Y-97761326D01*
X111317633Y-97761325D01*
X111125790Y-97474210D01*
X111125787Y-97474208D01*
X110435000Y-96783420D01*
X110435000Y-96711431D01*
X110447440Y-96650000D01*
X110447440Y-95750000D01*
X110403162Y-95514683D01*
X110264090Y-95298559D01*
X110051890Y-95153569D01*
X109800000Y-95102560D01*
X109300000Y-95102560D01*
X109064683Y-95146838D01*
X108848559Y-95285910D01*
X108800866Y-95355711D01*
X108764090Y-95298559D01*
X108551890Y-95153569D01*
X108300000Y-95102560D01*
X107800000Y-95102560D01*
X107564683Y-95146838D01*
X107348559Y-95285910D01*
X107328683Y-95315000D01*
X106819292Y-95315000D01*
X106712550Y-95149119D01*
X106500350Y-95004129D01*
X106248460Y-94953120D01*
X105049580Y-94953120D01*
X104814263Y-94997398D01*
X104598139Y-95136470D01*
X104453149Y-95348670D01*
X104402140Y-95600560D01*
X104402140Y-96799440D01*
X104446418Y-97034757D01*
X104585490Y-97250881D01*
X104797690Y-97395871D01*
X105049580Y-97446880D01*
X106248460Y-97446880D01*
X106483777Y-97402602D01*
X106699901Y-97263530D01*
X106821885Y-97085000D01*
X107325331Y-97085000D01*
X107335910Y-97101441D01*
X107548110Y-97246431D01*
X107800000Y-97297440D01*
X108300000Y-97297440D01*
X108535317Y-97253162D01*
X108668475Y-97167477D01*
X108713907Y-97395871D01*
X108732367Y-97488675D01*
X108853577Y-97670079D01*
X108924210Y-97775790D01*
X109615000Y-98466579D01*
X109615000Y-99999995D01*
X109614999Y-100000000D01*
X109662676Y-100239683D01*
X109682367Y-100338675D01*
X109847841Y-100586326D01*
X109874210Y-100625790D01*
X110799208Y-101550787D01*
X110799210Y-101550790D01*
X110991054Y-101678975D01*
X111086326Y-101742634D01*
X111425000Y-101810001D01*
X111425005Y-101810000D01*
X111772560Y-101810000D01*
X111772560Y-102580000D01*
X111341822Y-102580000D01*
X111221799Y-102530162D01*
X110849833Y-102529838D01*
X110510000Y-102670254D01*
X110510000Y-101750000D01*
X110452148Y-101459161D01*
X110287401Y-101212599D01*
X109787401Y-100712599D01*
X109540839Y-100547852D01*
X109250000Y-100490000D01*
X108578386Y-100490000D01*
X108451890Y-100403569D01*
X108200000Y-100352560D01*
X107300000Y-100352560D01*
X107064683Y-100396838D01*
X106848559Y-100535910D01*
X106703569Y-100748110D01*
X106652560Y-101000000D01*
X106652560Y-101500000D01*
X106696838Y-101735317D01*
X106780287Y-101865000D01*
X104597345Y-101865000D01*
X104473675Y-101782367D01*
X104417484Y-101771190D01*
X104135000Y-101714999D01*
X104134995Y-101715000D01*
X104109669Y-101715000D01*
X104099090Y-101698559D01*
X103886890Y-101553569D01*
X103635000Y-101502560D01*
X102627000Y-101502560D01*
X102627000Y-81990000D01*
X116782560Y-81990000D01*
X116782560Y-84990000D01*
X116826838Y-85225317D01*
X116965910Y-85441441D01*
X117178110Y-85586431D01*
X117430000Y-85637440D01*
X119730000Y-85637440D01*
X119965317Y-85593162D01*
X120181441Y-85454090D01*
X120326431Y-85241890D01*
X120377440Y-84990000D01*
X120377440Y-81990000D01*
X139642560Y-81990000D01*
X139642560Y-84990000D01*
X139686838Y-85225317D01*
X139825910Y-85441441D01*
X140038110Y-85586431D01*
X140290000Y-85637440D01*
X142590000Y-85637440D01*
X142825317Y-85593162D01*
X143041441Y-85454090D01*
X143186431Y-85241890D01*
X143237440Y-84990000D01*
X143237440Y-81990000D01*
X143193162Y-81754683D01*
X143054090Y-81538559D01*
X142841890Y-81393569D01*
X142590000Y-81342560D01*
X140290000Y-81342560D01*
X140054683Y-81386838D01*
X139838559Y-81525910D01*
X139693569Y-81738110D01*
X139642560Y-81990000D01*
X120377440Y-81990000D01*
X120333162Y-81754683D01*
X120194090Y-81538559D01*
X119981890Y-81393569D01*
X119730000Y-81342560D01*
X117430000Y-81342560D01*
X117194683Y-81386838D01*
X116978559Y-81525910D01*
X116833569Y-81738110D01*
X116782560Y-81990000D01*
X102627000Y-81990000D01*
X102627000Y-74735000D01*
X102728808Y-74735000D01*
X102835910Y-74901441D01*
X103048110Y-75046431D01*
X103300000Y-75097440D01*
X104200000Y-75097440D01*
X104435317Y-75053162D01*
X104651441Y-74914090D01*
X104796431Y-74701890D01*
X104847440Y-74450000D01*
X104847440Y-73788826D01*
X104885000Y-73600000D01*
X104847440Y-73411174D01*
X104847440Y-72750000D01*
X104803162Y-72514683D01*
X104664090Y-72298559D01*
X104451890Y-72153569D01*
X104200000Y-72102560D01*
X103300000Y-72102560D01*
X103064683Y-72146838D01*
X102848559Y-72285910D01*
X102726192Y-72465000D01*
X102627000Y-72465000D01*
X102627000Y-69135000D01*
X103450000Y-69135000D01*
X103884346Y-69048603D01*
X103952314Y-69003188D01*
X104085317Y-68978162D01*
X104199978Y-68904380D01*
X104298110Y-68971431D01*
X104444535Y-69001083D01*
X104515654Y-69048603D01*
X104950000Y-69135000D01*
X104975000Y-69135000D01*
X105409346Y-69048603D01*
X105487114Y-68996640D01*
X105585317Y-68978162D01*
X105801441Y-68839090D01*
X105931738Y-68648394D01*
X106802566Y-67777566D01*
X106864533Y-67684826D01*
X107048603Y-67409346D01*
X107135000Y-66975000D01*
X107135000Y-65921958D01*
X107185850Y-66000981D01*
X107398050Y-66145971D01*
X107649940Y-66196980D01*
X108265000Y-66196980D01*
X108265000Y-67400000D01*
X108351397Y-67834346D01*
X108505515Y-68065000D01*
X108597434Y-68202566D01*
X110065000Y-69670132D01*
X110065000Y-71745000D01*
X110151397Y-72179346D01*
X110397434Y-72547566D01*
X110765654Y-72793603D01*
X111200000Y-72880000D01*
X119505000Y-72880000D01*
X119939346Y-72793603D01*
X120307566Y-72547566D01*
X120970672Y-71884460D01*
X127752460Y-71884460D01*
X127752460Y-72749710D01*
X127796738Y-72985027D01*
X127935810Y-73201151D01*
X128148010Y-73346141D01*
X128399900Y-73397150D01*
X130000100Y-73397150D01*
X130235417Y-73352872D01*
X130451541Y-73213800D01*
X130596531Y-73001600D01*
X130647540Y-72749710D01*
X130647540Y-68749210D01*
X130603262Y-68513893D01*
X130464190Y-68297769D01*
X130335000Y-68209497D01*
X130335000Y-66397440D01*
X131850000Y-66397440D01*
X132085317Y-66353162D01*
X132301441Y-66214090D01*
X132446431Y-66001890D01*
X132497440Y-65750000D01*
X132497440Y-64650000D01*
X132494618Y-64635000D01*
X132850000Y-64635000D01*
X133284346Y-64548603D01*
X133652566Y-64302566D01*
X136151760Y-61803372D01*
X136151760Y-63300020D01*
X136196038Y-63535337D01*
X136335110Y-63751461D01*
X136547310Y-63896451D01*
X136799200Y-63947460D01*
X137114540Y-63947460D01*
X137114540Y-64300020D01*
X137200937Y-64734366D01*
X137334649Y-64934480D01*
X137446974Y-65102586D01*
X140065000Y-67720613D01*
X140065000Y-68252560D01*
X139600000Y-68252560D01*
X139364683Y-68296838D01*
X139148559Y-68435910D01*
X139003569Y-68648110D01*
X138952560Y-68900000D01*
X138952560Y-71500000D01*
X138996838Y-71735317D01*
X139135910Y-71951441D01*
X139348110Y-72096431D01*
X139600000Y-72147440D01*
X142800000Y-72147440D01*
X143035317Y-72103162D01*
X143251441Y-71964090D01*
X143396431Y-71751890D01*
X143447440Y-71500000D01*
X143447440Y-68900000D01*
X143403162Y-68664683D01*
X143264090Y-68448559D01*
X143051890Y-68303569D01*
X142800000Y-68252560D01*
X142335000Y-68252560D01*
X142335000Y-67250480D01*
X142324878Y-67199594D01*
X142248604Y-66816135D01*
X142002567Y-66447914D01*
X139502112Y-63947460D01*
X139699880Y-63947460D01*
X139935197Y-63903182D01*
X140151321Y-63764110D01*
X140296311Y-63551910D01*
X140347320Y-63300020D01*
X140347320Y-57899980D01*
X140303042Y-57664663D01*
X140163970Y-57448539D01*
X139951770Y-57303549D01*
X139699880Y-57252540D01*
X136799200Y-57252540D01*
X136563883Y-57296818D01*
X136347759Y-57435890D01*
X136202769Y-57648090D01*
X136151760Y-57899980D01*
X136151760Y-59465000D01*
X135750000Y-59465000D01*
X135322677Y-59550000D01*
X135315654Y-59551397D01*
X135279734Y-59575398D01*
X135552566Y-59302566D01*
X135798604Y-58934345D01*
X135885000Y-58500000D01*
X135885000Y-55220132D01*
X136720132Y-54385000D01*
X148529868Y-54385000D01*
X150115000Y-55970133D01*
X150115000Y-57000000D01*
X150201397Y-57434346D01*
X150346426Y-57651397D01*
X150447434Y-57802566D01*
X151847434Y-59202566D01*
X152215654Y-59448603D01*
X152650000Y-59535000D01*
X154159086Y-59535000D01*
X154207630Y-59583629D01*
X154415512Y-59669949D01*
X154209697Y-59754990D01*
X154159600Y-59805000D01*
X151910132Y-59805000D01*
X151902566Y-59797434D01*
X151829485Y-59748603D01*
X151534346Y-59551397D01*
X151100000Y-59465000D01*
X150248240Y-59465000D01*
X150248240Y-57899980D01*
X150203962Y-57664663D01*
X150064890Y-57448539D01*
X149852690Y-57303549D01*
X149600800Y-57252540D01*
X146700120Y-57252540D01*
X146464803Y-57296818D01*
X146248679Y-57435890D01*
X146103689Y-57648090D01*
X146052680Y-57899980D01*
X146052680Y-63300020D01*
X146096958Y-63535337D01*
X146236030Y-63751461D01*
X146448230Y-63896451D01*
X146700120Y-63947460D01*
X147015460Y-63947460D01*
X147015460Y-64300020D01*
X147101857Y-64734366D01*
X147235569Y-64934480D01*
X147347894Y-65102586D01*
X149297874Y-67052566D01*
X149666094Y-67298603D01*
X150100440Y-67385000D01*
X151529868Y-67385000D01*
X151665000Y-67520132D01*
X151665000Y-68410128D01*
X151548459Y-68485120D01*
X151403469Y-68697320D01*
X151352460Y-68949210D01*
X151352460Y-72949710D01*
X151396738Y-73185027D01*
X151535810Y-73401151D01*
X151748010Y-73546141D01*
X151999900Y-73597150D01*
X153600100Y-73597150D01*
X153835417Y-73552872D01*
X154051541Y-73413800D01*
X154196531Y-73201600D01*
X154247540Y-72949710D01*
X154247540Y-68949210D01*
X154203262Y-68713893D01*
X154064190Y-68497769D01*
X153935000Y-68409497D01*
X153935000Y-67050000D01*
X153848603Y-66615654D01*
X153602566Y-66247434D01*
X152802566Y-65447434D01*
X152646994Y-65343484D01*
X152434346Y-65201397D01*
X152000000Y-65115000D01*
X150570572Y-65115000D01*
X149403032Y-63947460D01*
X149600800Y-63947460D01*
X149836117Y-63903182D01*
X150052241Y-63764110D01*
X150197231Y-63551910D01*
X150248240Y-63300020D01*
X150248240Y-61735000D01*
X150629868Y-61735000D01*
X150637434Y-61742566D01*
X151005655Y-61988604D01*
X151440000Y-62075000D01*
X154159086Y-62075000D01*
X154207630Y-62123629D01*
X154720900Y-62336757D01*
X155276661Y-62337242D01*
X155790303Y-62125010D01*
X155840400Y-62075000D01*
X160060000Y-62075000D01*
X160384394Y-62010474D01*
X159197434Y-63197434D01*
X158951397Y-63565654D01*
X158865000Y-64000000D01*
X158865000Y-81279868D01*
X158654868Y-81490000D01*
X150250000Y-81490000D01*
X149815654Y-81576397D01*
X149447434Y-81822434D01*
X145297434Y-85972434D01*
X145051397Y-86340654D01*
X144965000Y-86775000D01*
X144965000Y-87127560D01*
X144600000Y-87127560D01*
X144364683Y-87171838D01*
X144148559Y-87310910D01*
X144111601Y-87365000D01*
X142556822Y-87365000D01*
X142436799Y-87315162D01*
X142064833Y-87314838D01*
X141721057Y-87456883D01*
X141457808Y-87719673D01*
X141315162Y-88063201D01*
X141314838Y-88435167D01*
X141456883Y-88778943D01*
X141719673Y-89042192D01*
X142063201Y-89184838D01*
X142435167Y-89185162D01*
X142556569Y-89135000D01*
X143952560Y-89135000D01*
X143952560Y-89945000D01*
X143988648Y-90136792D01*
X143952560Y-90315000D01*
X143952560Y-91215000D01*
X143988648Y-91406792D01*
X143952560Y-91585000D01*
X143952560Y-92485000D01*
X143988648Y-92676792D01*
X143952560Y-92855000D01*
X143952560Y-93755000D01*
X143988648Y-93946792D01*
X143952560Y-94125000D01*
X143952560Y-95025000D01*
X143988648Y-95216792D01*
X143952560Y-95395000D01*
X143952560Y-96295000D01*
X143988648Y-96486792D01*
X143952560Y-96665000D01*
X143952560Y-97565000D01*
X143988648Y-97756792D01*
X143952560Y-97935000D01*
X143952560Y-98835000D01*
X143988648Y-99026792D01*
X143952560Y-99205000D01*
X143952560Y-100105000D01*
X143988648Y-100296792D01*
X143952560Y-100475000D01*
X143952560Y-101375000D01*
X143988648Y-101566792D01*
X143952560Y-101745000D01*
X143952560Y-102645000D01*
X143988648Y-102836792D01*
X143952560Y-103015000D01*
X143952560Y-103915000D01*
X143988648Y-104106792D01*
X143952560Y-104285000D01*
X143952560Y-105185000D01*
X143988648Y-105376792D01*
X143952560Y-105555000D01*
X143952560Y-106455000D01*
X143988648Y-106646792D01*
X143952560Y-106825000D01*
X143952560Y-107725000D01*
X143988648Y-107916792D01*
X143952560Y-108095000D01*
X143952560Y-108995000D01*
X143988648Y-109186792D01*
X143952560Y-109365000D01*
X143952560Y-110265000D01*
X143988648Y-110456792D01*
X143952560Y-110635000D01*
X143952560Y-111535000D01*
X143988648Y-111726792D01*
X143952560Y-111905000D01*
X143952560Y-112805000D01*
X143988648Y-112996792D01*
X143952560Y-113175000D01*
X143952560Y-114075000D01*
X143988648Y-114266792D01*
X143952560Y-114445000D01*
X143952560Y-115345000D01*
X143988648Y-115536792D01*
X143952560Y-115715000D01*
X143952560Y-116615000D01*
X143988648Y-116806792D01*
X143952560Y-116985000D01*
X143952560Y-117885000D01*
X143996838Y-118120317D01*
X144135910Y-118336441D01*
X144348110Y-118481431D01*
X144600000Y-118532440D01*
X147600000Y-118532440D01*
X147835317Y-118488162D01*
X148051441Y-118349090D01*
X148095232Y-118285000D01*
X148712494Y-118285000D01*
X148719673Y-118292192D01*
X149063201Y-118434838D01*
X149435167Y-118435162D01*
X149778943Y-118293117D01*
X150042192Y-118030327D01*
X150184838Y-117686799D01*
X150185162Y-117314833D01*
X150043117Y-116971057D01*
X149947290Y-116875063D01*
X150042192Y-116780327D01*
X150184838Y-116436799D01*
X150185162Y-116064833D01*
X150171422Y-116031580D01*
X152444921Y-118305079D01*
X152699594Y-118475245D01*
X153000000Y-118535000D01*
X158458203Y-118535000D01*
X158548110Y-118596431D01*
X158800000Y-118647440D01*
X159700000Y-118647440D01*
X159935317Y-118603162D01*
X160041244Y-118535000D01*
X169770000Y-118535000D01*
X170070407Y-118475245D01*
X170325079Y-118305079D01*
X170505601Y-118124557D01*
X170510900Y-118126757D01*
X171047972Y-118127226D01*
X166185198Y-122990000D01*
X146750000Y-122990000D01*
X146507414Y-123038254D01*
X146459160Y-123047852D01*
X146212599Y-123212599D01*
X143360320Y-126064878D01*
X143314833Y-126064838D01*
X142971057Y-126206883D01*
X142707808Y-126469673D01*
X142565162Y-126813201D01*
X142564838Y-127185167D01*
X142706883Y-127528943D01*
X142969673Y-127792192D01*
X143313201Y-127934838D01*
X143685167Y-127935162D01*
X144028943Y-127793117D01*
X144292192Y-127530327D01*
X144434838Y-127186799D01*
X144434879Y-127139923D01*
X147064802Y-124510000D01*
X166500000Y-124510000D01*
X166790839Y-124452148D01*
X167037401Y-124287401D01*
X170915537Y-120409265D01*
X172186670Y-120409265D01*
X172476078Y-121109686D01*
X173011495Y-121646039D01*
X173711410Y-121936668D01*
X174469265Y-121937330D01*
X175169686Y-121647922D01*
X175706039Y-121112505D01*
X175996668Y-120412590D01*
X175996982Y-120053677D01*
X176673502Y-120334593D01*
X177602422Y-120335404D01*
X178460943Y-119980671D01*
X179118362Y-119324398D01*
X179300126Y-118886661D01*
X180380758Y-118886661D01*
X180592990Y-119400303D01*
X180985630Y-119793629D01*
X181498900Y-120006757D01*
X182054661Y-120007242D01*
X182568303Y-119795010D01*
X182961629Y-119402370D01*
X183174757Y-118889100D01*
X183175242Y-118333339D01*
X182963010Y-117819697D01*
X182570370Y-117426371D01*
X182057100Y-117213243D01*
X181501339Y-117212758D01*
X180987697Y-117424990D01*
X180594371Y-117817630D01*
X180381243Y-118330900D01*
X180380758Y-118886661D01*
X179300126Y-118886661D01*
X179474593Y-118466498D01*
X179475404Y-117537578D01*
X179282123Y-117069801D01*
X179465630Y-117253629D01*
X179978900Y-117466757D01*
X180534661Y-117467242D01*
X181048303Y-117255010D01*
X181441629Y-116862370D01*
X181654757Y-116349100D01*
X181655242Y-115793339D01*
X181443010Y-115279697D01*
X181050370Y-114886371D01*
X180537100Y-114673243D01*
X179981339Y-114672758D01*
X179467697Y-114884990D01*
X179074371Y-115277630D01*
X178861243Y-115790900D01*
X178860758Y-116346661D01*
X178911538Y-116469559D01*
X178464398Y-116021638D01*
X177606498Y-115665407D01*
X176677578Y-115664596D01*
X175819057Y-116019329D01*
X175161638Y-116675602D01*
X174805407Y-117533502D01*
X174804768Y-118265264D01*
X174472590Y-118127332D01*
X173714735Y-118126670D01*
X173014314Y-118416078D01*
X172477961Y-118951495D01*
X172187332Y-119651410D01*
X172186670Y-120409265D01*
X170915537Y-120409265D01*
X178564802Y-112760000D01*
X179187537Y-112760000D01*
X179219673Y-112792192D01*
X179563201Y-112934838D01*
X179935167Y-112935162D01*
X180278943Y-112793117D01*
X180542192Y-112530327D01*
X180684838Y-112186799D01*
X180685162Y-111814833D01*
X180543117Y-111471057D01*
X180280327Y-111207808D01*
X179936799Y-111065162D01*
X179564833Y-111064838D01*
X179221057Y-111206883D01*
X179187882Y-111240000D01*
X178250000Y-111240000D01*
X177959160Y-111297852D01*
X177712599Y-111462599D01*
X172186775Y-116988423D01*
X172187242Y-116453339D01*
X171975010Y-115939697D01*
X171582370Y-115546371D01*
X171374488Y-115460051D01*
X171580303Y-115375010D01*
X171973629Y-114982370D01*
X172186757Y-114469100D01*
X172187242Y-113913339D01*
X171975010Y-113399697D01*
X171582370Y-113006371D01*
X171374488Y-112920051D01*
X171580303Y-112835010D01*
X171973629Y-112442370D01*
X172186757Y-111929100D01*
X172187242Y-111373339D01*
X171975010Y-110859697D01*
X171582370Y-110466371D01*
X171374488Y-110380051D01*
X171580303Y-110295010D01*
X171973629Y-109902370D01*
X171991068Y-109860372D01*
X172057790Y-109815790D01*
X172249633Y-109528675D01*
X172317001Y-109190000D01*
X172249633Y-108851326D01*
X172105616Y-108635787D01*
X171975010Y-108319697D01*
X171582370Y-107926371D01*
X171575000Y-107923311D01*
X171575000Y-107685158D01*
X174194921Y-110305079D01*
X174449594Y-110475245D01*
X174750000Y-110535000D01*
X179000000Y-110535000D01*
X179300407Y-110475245D01*
X179555079Y-110305079D01*
X180575158Y-109285000D01*
X180590799Y-109285000D01*
X180592990Y-109290303D01*
X180985630Y-109683629D01*
X181498900Y-109896757D01*
X182054661Y-109897242D01*
X182568303Y-109685010D01*
X182961629Y-109292370D01*
X183174757Y-108779100D01*
X183175242Y-108223339D01*
X182963010Y-107709697D01*
X182570370Y-107316371D01*
X182057100Y-107103243D01*
X181501339Y-107102758D01*
X180987697Y-107314990D01*
X180594371Y-107707630D01*
X180591311Y-107715000D01*
X180250000Y-107715000D01*
X179949593Y-107774755D01*
X179694921Y-107944921D01*
X178674842Y-108965000D01*
X175075158Y-108965000D01*
X170555079Y-104444921D01*
X170300407Y-104274755D01*
X170000000Y-104215000D01*
X156039018Y-104215000D01*
X155964090Y-104098559D01*
X155751890Y-103953569D01*
X155500000Y-103902560D01*
X155000000Y-103902560D01*
X154764683Y-103946838D01*
X154548559Y-104085910D01*
X154500866Y-104155711D01*
X154464090Y-104098559D01*
X154251890Y-103953569D01*
X154000000Y-103902560D01*
X153500000Y-103902560D01*
X153264683Y-103946838D01*
X153048559Y-104085910D01*
X152960356Y-104215000D01*
X151500000Y-104215000D01*
X151199594Y-104274755D01*
X150944921Y-104444921D01*
X148899842Y-106490000D01*
X148240352Y-106490000D01*
X148247440Y-106455000D01*
X148247440Y-105555000D01*
X148211352Y-105363208D01*
X148247440Y-105185000D01*
X148247440Y-104285000D01*
X148211352Y-104093208D01*
X148247440Y-103915000D01*
X148247440Y-103015000D01*
X148211352Y-102823208D01*
X148247440Y-102645000D01*
X148247440Y-101745000D01*
X148211352Y-101553208D01*
X148247440Y-101375000D01*
X148247440Y-100475000D01*
X148240854Y-100440000D01*
X152079842Y-100440000D01*
X152194921Y-100555079D01*
X152449594Y-100725245D01*
X152750000Y-100785000D01*
X158458203Y-100785000D01*
X158548110Y-100846431D01*
X158800000Y-100897440D01*
X159700000Y-100897440D01*
X159935317Y-100853162D01*
X160041244Y-100785000D01*
X170250000Y-100785000D01*
X170550407Y-100725245D01*
X170805079Y-100555079D01*
X171387079Y-99973079D01*
X171557245Y-99718407D01*
X171617000Y-99418000D01*
X171617000Y-98997201D01*
X171622303Y-98995010D01*
X172015629Y-98602370D01*
X172228757Y-98089100D01*
X172229242Y-97533339D01*
X172017010Y-97019697D01*
X171624370Y-96626371D01*
X171416488Y-96540051D01*
X171622303Y-96455010D01*
X172015629Y-96062370D01*
X172029070Y-96030000D01*
X172354022Y-96030000D01*
X172456883Y-96278943D01*
X172719673Y-96542192D01*
X173063201Y-96684838D01*
X173435167Y-96685162D01*
X173778943Y-96543117D01*
X174042192Y-96280327D01*
X174184838Y-95936799D01*
X174185162Y-95564833D01*
X174043117Y-95221057D01*
X173780327Y-94957808D01*
X173436799Y-94815162D01*
X173389923Y-94815121D01*
X173307401Y-94732599D01*
X173060839Y-94567852D01*
X172770000Y-94510000D01*
X172029531Y-94510000D01*
X172017010Y-94479697D01*
X171624370Y-94086371D01*
X171416488Y-94000051D01*
X171622303Y-93915010D01*
X172015629Y-93522370D01*
X172228757Y-93009100D01*
X172229242Y-92453339D01*
X172017010Y-91939697D01*
X171624370Y-91546371D01*
X171416488Y-91460051D01*
X171622303Y-91375010D01*
X172015629Y-90982370D01*
X172228757Y-90469100D01*
X172229242Y-89913339D01*
X172017010Y-89399697D01*
X171624370Y-89006371D01*
X171617000Y-89003311D01*
X171617000Y-88082000D01*
X171557245Y-87781594D01*
X171387079Y-87526921D01*
X170895158Y-87035000D01*
X171174842Y-87035000D01*
X174944921Y-90805079D01*
X175199593Y-90975245D01*
X175500000Y-91035000D01*
X180072370Y-91035000D01*
X180372777Y-90975245D01*
X180627449Y-90805079D01*
X180848421Y-90584107D01*
X181027630Y-90763629D01*
X181540900Y-90976757D01*
X182096661Y-90977242D01*
X182610303Y-90765010D01*
X183003629Y-90372370D01*
X183216757Y-89859100D01*
X183217242Y-89303339D01*
X183005010Y-88789697D01*
X182612370Y-88396371D01*
X182099100Y-88183243D01*
X181543339Y-88182758D01*
X181029697Y-88394990D01*
X180636371Y-88787630D01*
X180623492Y-88818646D01*
X180441963Y-88854755D01*
X180187291Y-89024921D01*
X179747212Y-89465000D01*
X178668903Y-89465000D01*
X179160362Y-88974398D01*
X179482543Y-88198499D01*
X179507630Y-88223629D01*
X180020900Y-88436757D01*
X180576661Y-88437242D01*
X181090303Y-88225010D01*
X181483629Y-87832370D01*
X181496508Y-87801354D01*
X181578722Y-87785000D01*
X182424842Y-87785000D01*
X184715000Y-90075158D01*
X184715000Y-103674842D01*
X183214842Y-105175000D01*
X181445201Y-105175000D01*
X181443010Y-105169697D01*
X181050370Y-104776371D01*
X180537100Y-104563243D01*
X179981339Y-104562758D01*
X179467697Y-104774990D01*
X179074371Y-105167630D01*
X179064094Y-105192381D01*
X178464398Y-104591638D01*
X177606498Y-104235407D01*
X176677578Y-104234596D01*
X175997020Y-104515796D01*
X175997330Y-104160735D01*
X175707922Y-103460314D01*
X175172505Y-102923961D01*
X174955407Y-102833814D01*
X175211686Y-102727922D01*
X175748039Y-102192505D01*
X176038668Y-101492590D01*
X176038982Y-101133677D01*
X176715502Y-101414593D01*
X177644422Y-101415404D01*
X178502943Y-101060671D01*
X179160362Y-100404398D01*
X179342126Y-99966661D01*
X180422758Y-99966661D01*
X180634990Y-100480303D01*
X181027630Y-100873629D01*
X181540900Y-101086757D01*
X182096661Y-101087242D01*
X182610303Y-100875010D01*
X183003629Y-100482370D01*
X183216757Y-99969100D01*
X183217242Y-99413339D01*
X183005010Y-98899697D01*
X182612370Y-98506371D01*
X182099100Y-98293243D01*
X181543339Y-98292758D01*
X181029697Y-98504990D01*
X180636371Y-98897630D01*
X180423243Y-99410900D01*
X180422758Y-99966661D01*
X179342126Y-99966661D01*
X179516593Y-99546498D01*
X179517404Y-98617578D01*
X179324123Y-98149801D01*
X179507630Y-98333629D01*
X180020900Y-98546757D01*
X180576661Y-98547242D01*
X181090303Y-98335010D01*
X181483629Y-97942370D01*
X181696757Y-97429100D01*
X181697242Y-96873339D01*
X181485010Y-96359697D01*
X181092370Y-95966371D01*
X180579100Y-95753243D01*
X180023339Y-95752758D01*
X179509697Y-95964990D01*
X179116371Y-96357630D01*
X178903243Y-96870900D01*
X178902758Y-97426661D01*
X178953538Y-97549559D01*
X178506398Y-97101638D01*
X177648498Y-96745407D01*
X176719578Y-96744596D01*
X175861057Y-97099329D01*
X175203638Y-97755602D01*
X174847407Y-98613502D01*
X174846768Y-99345264D01*
X174514590Y-99207332D01*
X173756735Y-99206670D01*
X173056314Y-99496078D01*
X172519961Y-100031495D01*
X172229332Y-100731410D01*
X172228670Y-101489265D01*
X172518078Y-102189686D01*
X173053495Y-102726039D01*
X173270593Y-102816186D01*
X173014314Y-102922078D01*
X172477961Y-103457495D01*
X172187332Y-104157410D01*
X172186670Y-104915265D01*
X172476078Y-105615686D01*
X173011495Y-106152039D01*
X173711410Y-106442668D01*
X174469265Y-106443330D01*
X174805232Y-106304511D01*
X174804596Y-107032422D01*
X175159329Y-107890943D01*
X175815602Y-108548362D01*
X176673502Y-108904593D01*
X177602422Y-108905404D01*
X178460943Y-108550671D01*
X179118362Y-107894398D01*
X179440543Y-107118499D01*
X179465630Y-107143629D01*
X179978900Y-107356757D01*
X180534661Y-107357242D01*
X181048303Y-107145010D01*
X181441629Y-106752370D01*
X181444689Y-106745000D01*
X183540000Y-106745000D01*
X183840407Y-106685245D01*
X184095079Y-106515079D01*
X186055079Y-104555079D01*
X186225245Y-104300406D01*
X186285001Y-104000000D01*
X186285000Y-103999995D01*
X186285000Y-89750000D01*
X186261130Y-89630000D01*
X186225245Y-89449593D01*
X186055079Y-89194921D01*
X183305079Y-86444921D01*
X183050407Y-86274755D01*
X182750000Y-86215000D01*
X181450374Y-86215000D01*
X181092370Y-85856371D01*
X181085000Y-85853311D01*
X181085000Y-84300005D01*
X181085001Y-84300000D01*
X181025245Y-83999594D01*
X180855079Y-83744921D01*
X179555079Y-82444921D01*
X179300407Y-82274755D01*
X179000000Y-82215000D01*
X175825158Y-82215000D01*
X175035000Y-81424842D01*
X175035000Y-80631844D01*
X175101441Y-80589090D01*
X175246431Y-80376890D01*
X175297440Y-80125000D01*
X175297440Y-79375000D01*
X175253162Y-79139683D01*
X175135000Y-78956054D01*
X175135000Y-77571592D01*
X175300881Y-77464850D01*
X175445871Y-77252650D01*
X175496880Y-77000760D01*
X175496880Y-76401320D01*
X175452602Y-76166003D01*
X175344806Y-75998483D01*
X175445871Y-75850570D01*
X175496880Y-75598680D01*
X175496880Y-74999240D01*
X175452602Y-74763923D01*
X175313530Y-74547799D01*
X175135000Y-74425815D01*
X175135000Y-73039975D01*
X175246431Y-72876890D01*
X175297440Y-72625000D01*
X175297440Y-71875000D01*
X175253162Y-71639683D01*
X175114090Y-71423559D01*
X174947242Y-71309557D01*
X174947242Y-68998438D01*
X175013683Y-68955684D01*
X175158673Y-68743484D01*
X175209682Y-68491594D01*
X175209682Y-66891594D01*
X175165404Y-66656277D01*
X175026332Y-66440153D01*
X174814132Y-66295163D01*
X174562242Y-66244154D01*
X173562242Y-66244154D01*
X173326925Y-66288432D01*
X173110801Y-66427504D01*
X173022598Y-66556594D01*
X172950375Y-66556594D01*
X172282808Y-65889028D01*
X172209432Y-65840000D01*
X171914588Y-65642991D01*
X171480242Y-65556594D01*
X170581178Y-65556594D01*
X170543928Y-65549051D01*
X170588871Y-65540594D01*
X173096581Y-65540594D01*
X173098152Y-65543035D01*
X173310352Y-65688025D01*
X173562242Y-65739034D01*
X174562242Y-65739034D01*
X174797559Y-65694756D01*
X175013683Y-65555684D01*
X175158673Y-65343484D01*
X175209682Y-65091594D01*
X175209682Y-63491594D01*
X175165404Y-63256277D01*
X175026332Y-63040153D01*
X174814132Y-62895163D01*
X174562242Y-62844154D01*
X173562242Y-62844154D01*
X173326925Y-62888432D01*
X173110801Y-63027504D01*
X172965811Y-63239704D01*
X172959556Y-63270594D01*
X170599242Y-63270594D01*
X170599242Y-60505890D01*
X171602566Y-59502566D01*
X171638623Y-59448603D01*
X171848603Y-59134346D01*
X171935000Y-58700000D01*
X171935000Y-56108141D01*
X171956120Y-56094029D01*
X172237237Y-55673305D01*
X182814674Y-55673305D01*
X183101043Y-56366372D01*
X183630839Y-56897093D01*
X184323405Y-57184672D01*
X185073305Y-57185326D01*
X185766372Y-56898957D01*
X186297093Y-56369161D01*
X186584672Y-55676595D01*
X186585326Y-54926695D01*
X186298957Y-54233628D01*
X185769161Y-53702907D01*
X185076595Y-53415328D01*
X184326695Y-53414674D01*
X183633628Y-53701043D01*
X183102907Y-54230839D01*
X182815328Y-54923405D01*
X182814674Y-55673305D01*
X172237237Y-55673305D01*
X172310543Y-55563596D01*
X172435000Y-54937909D01*
X172435000Y-54262091D01*
X172310543Y-53636404D01*
X171956120Y-53105971D01*
X171425687Y-52751548D01*
X170800000Y-52627091D01*
X170174313Y-52751548D01*
X169815808Y-52991093D01*
X169724090Y-52848559D01*
X169511890Y-52703569D01*
X169260000Y-52652560D01*
X167260000Y-52652560D01*
X167024683Y-52696838D01*
X166808559Y-52835910D01*
X166663569Y-53048110D01*
X166612560Y-53300000D01*
X166612560Y-53465000D01*
X165736015Y-53465000D01*
X165496120Y-53105971D01*
X164965687Y-52751548D01*
X164340000Y-52627091D01*
X163714313Y-52751548D01*
X163355808Y-52991093D01*
X163264090Y-52848559D01*
X163051890Y-52703569D01*
X162800000Y-52652560D01*
X160800000Y-52652560D01*
X160564683Y-52696838D01*
X160348559Y-52835910D01*
X160203569Y-53048110D01*
X160152560Y-53300000D01*
X160152560Y-55900000D01*
X160196838Y-56135317D01*
X160335910Y-56351441D01*
X160548110Y-56496431D01*
X160665000Y-56520102D01*
X160665000Y-58729868D01*
X159589868Y-59805000D01*
X155840914Y-59805000D01*
X155792370Y-59756371D01*
X155584488Y-59670051D01*
X155790303Y-59585010D01*
X156183629Y-59192370D01*
X156396757Y-58679100D01*
X156397242Y-58123339D01*
X156185010Y-57609697D01*
X155792370Y-57216371D01*
X155279100Y-57003243D01*
X154723339Y-57002758D01*
X154209697Y-57214990D01*
X154159600Y-57265000D01*
X153120132Y-57265000D01*
X152385000Y-56529868D01*
X152385000Y-55500000D01*
X152365619Y-55402566D01*
X152298604Y-55065655D01*
X152052567Y-54697434D01*
X149982132Y-52627000D01*
X187373000Y-52627000D01*
X187373000Y-80865000D01*
G36*
X126477560Y-138900000D02*
X126521838Y-139135317D01*
X126660910Y-139351441D01*
X126873110Y-139496431D01*
X127125000Y-139547440D01*
X127875000Y-139547440D01*
X128110317Y-139503162D01*
X128326441Y-139364090D01*
X128397563Y-139260000D01*
X130990000Y-139260000D01*
X130990000Y-139435198D01*
X129935198Y-140490000D01*
X125814803Y-140490000D01*
X125560000Y-140235198D01*
X125560000Y-139856844D01*
X125626441Y-139814090D01*
X125771431Y-139601890D01*
X125822440Y-139350000D01*
X125822440Y-138550000D01*
X125778162Y-138314683D01*
X125710800Y-138210000D01*
X126477560Y-138210000D01*
X126477560Y-138900000D01*
X126477560Y-138900000D01*
G37*
X126477560Y-138900000D02*
X126521838Y-139135317D01*
X126660910Y-139351441D01*
X126873110Y-139496431D01*
X127125000Y-139547440D01*
X127875000Y-139547440D01*
X128110317Y-139503162D01*
X128326441Y-139364090D01*
X128397563Y-139260000D01*
X130990000Y-139260000D01*
X130990000Y-139435198D01*
X129935198Y-140490000D01*
X125814803Y-140490000D01*
X125560000Y-140235198D01*
X125560000Y-139856844D01*
X125626441Y-139814090D01*
X125771431Y-139601890D01*
X125822440Y-139350000D01*
X125822440Y-138550000D01*
X125778162Y-138314683D01*
X125710800Y-138210000D01*
X126477560Y-138210000D01*
X126477560Y-138900000D01*
G36*
X125821838Y-134285317D02*
X125960910Y-134501441D01*
X126173110Y-134646431D01*
X126425000Y-134697440D01*
X127175000Y-134697440D01*
X127410317Y-134653162D01*
X127570647Y-134549993D01*
X127565162Y-134563201D01*
X127564838Y-134935167D01*
X127706883Y-135278943D01*
X127969673Y-135542192D01*
X128240000Y-135654442D01*
X128240000Y-135685198D01*
X127235198Y-136690000D01*
X125697931Y-136690000D01*
X125639090Y-136598559D01*
X125426890Y-136453569D01*
X125175000Y-136402560D01*
X124492952Y-136402560D01*
X125572757Y-135322756D01*
X125748343Y-135059973D01*
X125777677Y-134912500D01*
X125810000Y-134750000D01*
X125810000Y-134222404D01*
X125821838Y-134285317D01*
X125821838Y-134285317D01*
G37*
X125821838Y-134285317D02*
X125960910Y-134501441D01*
X126173110Y-134646431D01*
X126425000Y-134697440D01*
X127175000Y-134697440D01*
X127410317Y-134653162D01*
X127570647Y-134549993D01*
X127565162Y-134563201D01*
X127564838Y-134935167D01*
X127706883Y-135278943D01*
X127969673Y-135542192D01*
X128240000Y-135654442D01*
X128240000Y-135685198D01*
X127235198Y-136690000D01*
X125697931Y-136690000D01*
X125639090Y-136598559D01*
X125426890Y-136453569D01*
X125175000Y-136402560D01*
X124492952Y-136402560D01*
X125572757Y-135322756D01*
X125748343Y-135059973D01*
X125777677Y-134912500D01*
X125810000Y-134750000D01*
X125810000Y-134222404D01*
X125821838Y-134285317D01*
G36*
X165576000Y-131650802D02*
X165576000Y-131862469D01*
X165545697Y-131874990D01*
X165152371Y-132267630D01*
X164939243Y-132780900D01*
X164938758Y-133336661D01*
X165150990Y-133850303D01*
X165543630Y-134243629D01*
X166056900Y-134456757D01*
X166612661Y-134457242D01*
X167126303Y-134245010D01*
X167519629Y-133852370D01*
X167732757Y-133339100D01*
X167732759Y-133336664D01*
X167944990Y-133850303D01*
X168337630Y-134243629D01*
X168850900Y-134456757D01*
X169406661Y-134457242D01*
X169920303Y-134245010D01*
X170313629Y-133852370D01*
X170463606Y-133491185D01*
X170611990Y-133850303D01*
X171004630Y-134243629D01*
X171517900Y-134456757D01*
X172073661Y-134457242D01*
X172587303Y-134245010D01*
X172980629Y-133852370D01*
X173181560Y-133368474D01*
X173181560Y-133822000D01*
X173225838Y-134057317D01*
X173319653Y-134203109D01*
X172917339Y-134202758D01*
X172403697Y-134414990D01*
X172010371Y-134807630D01*
X171797243Y-135320900D01*
X171797241Y-135323336D01*
X171585010Y-134809697D01*
X171192370Y-134416371D01*
X170679100Y-134203243D01*
X170123339Y-134202758D01*
X169609697Y-134414990D01*
X169216371Y-134807630D01*
X169066394Y-135168815D01*
X168918010Y-134809697D01*
X168525370Y-134416371D01*
X168012100Y-134203243D01*
X167456339Y-134202758D01*
X166942697Y-134414990D01*
X166549371Y-134807630D01*
X166336243Y-135320900D01*
X166336241Y-135323336D01*
X166124010Y-134809697D01*
X165731370Y-134416371D01*
X165218100Y-134203243D01*
X164662339Y-134202758D01*
X164148697Y-134414990D01*
X163755371Y-134807630D01*
X163542243Y-135320900D01*
X163541897Y-135717095D01*
X159084802Y-131260000D01*
X165185198Y-131260000D01*
X165576000Y-131650802D01*
X165576000Y-131650802D01*
G37*
X165576000Y-131650802D02*
X165576000Y-131862469D01*
X165545697Y-131874990D01*
X165152371Y-132267630D01*
X164939243Y-132780900D01*
X164938758Y-133336661D01*
X165150990Y-133850303D01*
X165543630Y-134243629D01*
X166056900Y-134456757D01*
X166612661Y-134457242D01*
X167126303Y-134245010D01*
X167519629Y-133852370D01*
X167732757Y-133339100D01*
X167732759Y-133336664D01*
X167944990Y-133850303D01*
X168337630Y-134243629D01*
X168850900Y-134456757D01*
X169406661Y-134457242D01*
X169920303Y-134245010D01*
X170313629Y-133852370D01*
X170463606Y-133491185D01*
X170611990Y-133850303D01*
X171004630Y-134243629D01*
X171517900Y-134456757D01*
X172073661Y-134457242D01*
X172587303Y-134245010D01*
X172980629Y-133852370D01*
X173181560Y-133368474D01*
X173181560Y-133822000D01*
X173225838Y-134057317D01*
X173319653Y-134203109D01*
X172917339Y-134202758D01*
X172403697Y-134414990D01*
X172010371Y-134807630D01*
X171797243Y-135320900D01*
X171797241Y-135323336D01*
X171585010Y-134809697D01*
X171192370Y-134416371D01*
X170679100Y-134203243D01*
X170123339Y-134202758D01*
X169609697Y-134414990D01*
X169216371Y-134807630D01*
X169066394Y-135168815D01*
X168918010Y-134809697D01*
X168525370Y-134416371D01*
X168012100Y-134203243D01*
X167456339Y-134202758D01*
X166942697Y-134414990D01*
X166549371Y-134807630D01*
X166336243Y-135320900D01*
X166336241Y-135323336D01*
X166124010Y-134809697D01*
X165731370Y-134416371D01*
X165218100Y-134203243D01*
X164662339Y-134202758D01*
X164148697Y-134414990D01*
X163755371Y-134807630D01*
X163542243Y-135320900D01*
X163541897Y-135717095D01*
X159084802Y-131260000D01*
X165185198Y-131260000D01*
X165576000Y-131650802D01*
G36*
X154003569Y-114123110D02*
X153952560Y-114375000D01*
X153952560Y-115125000D01*
X153996838Y-115360317D01*
X154135910Y-115576441D01*
X154348110Y-115721431D01*
X154600000Y-115772440D01*
X155400000Y-115772440D01*
X155635317Y-115728162D01*
X155851441Y-115589090D01*
X155888399Y-115535000D01*
X158349973Y-115535000D01*
X158348559Y-115535910D01*
X158203569Y-115748110D01*
X158152560Y-116000000D01*
X158152560Y-116500000D01*
X158196838Y-116735317D01*
X158335910Y-116951441D01*
X158355754Y-116965000D01*
X153325158Y-116965000D01*
X150395158Y-114035000D01*
X154063772Y-114035000D01*
X154003569Y-114123110D01*
X154003569Y-114123110D01*
G37*
X154003569Y-114123110D02*
X153952560Y-114375000D01*
X153952560Y-115125000D01*
X153996838Y-115360317D01*
X154135910Y-115576441D01*
X154348110Y-115721431D01*
X154600000Y-115772440D01*
X155400000Y-115772440D01*
X155635317Y-115728162D01*
X155851441Y-115589090D01*
X155888399Y-115535000D01*
X158349973Y-115535000D01*
X158348559Y-115535910D01*
X158203569Y-115748110D01*
X158152560Y-116000000D01*
X158152560Y-116500000D01*
X158196838Y-116735317D01*
X158335910Y-116951441D01*
X158355754Y-116965000D01*
X153325158Y-116965000D01*
X150395158Y-114035000D01*
X154063772Y-114035000D01*
X154003569Y-114123110D01*
G36*
X153035910Y-105901441D02*
X153248110Y-106046431D01*
X153500000Y-106097440D01*
X154000000Y-106097440D01*
X154235317Y-106053162D01*
X154451441Y-105914090D01*
X154499134Y-105844289D01*
X154535910Y-105901441D01*
X154748110Y-106046431D01*
X155000000Y-106097440D01*
X155500000Y-106097440D01*
X155735317Y-106053162D01*
X155951441Y-105914090D01*
X156039644Y-105785000D01*
X169674842Y-105785000D01*
X170104842Y-106215000D01*
X160041797Y-106215000D01*
X159951890Y-106153569D01*
X159700000Y-106102560D01*
X158800000Y-106102560D01*
X158564683Y-106146838D01*
X158458756Y-106215000D01*
X153250005Y-106215000D01*
X153250000Y-106214999D01*
X152949594Y-106274755D01*
X152694921Y-106444921D01*
X152694919Y-106444924D01*
X150784225Y-108355617D01*
X150686799Y-108315162D01*
X150314833Y-108314838D01*
X149971057Y-108456883D01*
X149707808Y-108719673D01*
X149565162Y-109063201D01*
X149564838Y-109435167D01*
X149706883Y-109778943D01*
X149969673Y-110042192D01*
X150313201Y-110184838D01*
X150685167Y-110185162D01*
X151028943Y-110043117D01*
X151046300Y-110025790D01*
X151300407Y-109975245D01*
X151555079Y-109805079D01*
X153575157Y-107785000D01*
X158349973Y-107785000D01*
X158348559Y-107785910D01*
X158203569Y-107998110D01*
X158152560Y-108250000D01*
X158152560Y-108750000D01*
X158196838Y-108985317D01*
X158335910Y-109201441D01*
X158355754Y-109215000D01*
X157575158Y-109215000D01*
X157555079Y-109194921D01*
X157300407Y-109024755D01*
X157000000Y-108965000D01*
X155890757Y-108965000D01*
X155864090Y-108923559D01*
X155651890Y-108778569D01*
X155400000Y-108727560D01*
X154600000Y-108727560D01*
X154364683Y-108771838D01*
X154148559Y-108910910D01*
X154003569Y-109123110D01*
X153952560Y-109375000D01*
X153952560Y-110125000D01*
X153996838Y-110360317D01*
X154135910Y-110576441D01*
X154338698Y-110715000D01*
X152250000Y-110715000D01*
X151949593Y-110774755D01*
X151694921Y-110944921D01*
X151324995Y-111314847D01*
X151314833Y-111314838D01*
X150971057Y-111456883D01*
X150707808Y-111719673D01*
X150565162Y-112063201D01*
X150564838Y-112435167D01*
X150577165Y-112465000D01*
X150037506Y-112465000D01*
X150030327Y-112457808D01*
X149686799Y-112315162D01*
X149314833Y-112314838D01*
X148971057Y-112456883D01*
X148707808Y-112719673D01*
X148657844Y-112840000D01*
X148240352Y-112840000D01*
X148247440Y-112805000D01*
X148247440Y-111905000D01*
X148211352Y-111713208D01*
X148247440Y-111535000D01*
X148247440Y-110635000D01*
X148211352Y-110443208D01*
X148247440Y-110265000D01*
X148247440Y-109365000D01*
X148211352Y-109173208D01*
X148247440Y-108995000D01*
X148247440Y-108095000D01*
X148240854Y-108060000D01*
X149225000Y-108060000D01*
X149525407Y-108000245D01*
X149780079Y-107830079D01*
X151825158Y-105785000D01*
X152960982Y-105785000D01*
X153035910Y-105901441D01*
X153035910Y-105901441D01*
G37*
X153035910Y-105901441D02*
X153248110Y-106046431D01*
X153500000Y-106097440D01*
X154000000Y-106097440D01*
X154235317Y-106053162D01*
X154451441Y-105914090D01*
X154499134Y-105844289D01*
X154535910Y-105901441D01*
X154748110Y-106046431D01*
X155000000Y-106097440D01*
X155500000Y-106097440D01*
X155735317Y-106053162D01*
X155951441Y-105914090D01*
X156039644Y-105785000D01*
X169674842Y-105785000D01*
X170104842Y-106215000D01*
X160041797Y-106215000D01*
X159951890Y-106153569D01*
X159700000Y-106102560D01*
X158800000Y-106102560D01*
X158564683Y-106146838D01*
X158458756Y-106215000D01*
X153250005Y-106215000D01*
X153250000Y-106214999D01*
X152949594Y-106274755D01*
X152694921Y-106444921D01*
X152694919Y-106444924D01*
X150784225Y-108355617D01*
X150686799Y-108315162D01*
X150314833Y-108314838D01*
X149971057Y-108456883D01*
X149707808Y-108719673D01*
X149565162Y-109063201D01*
X149564838Y-109435167D01*
X149706883Y-109778943D01*
X149969673Y-110042192D01*
X150313201Y-110184838D01*
X150685167Y-110185162D01*
X151028943Y-110043117D01*
X151046300Y-110025790D01*
X151300407Y-109975245D01*
X151555079Y-109805079D01*
X153575157Y-107785000D01*
X158349973Y-107785000D01*
X158348559Y-107785910D01*
X158203569Y-107998110D01*
X158152560Y-108250000D01*
X158152560Y-108750000D01*
X158196838Y-108985317D01*
X158335910Y-109201441D01*
X158355754Y-109215000D01*
X157575158Y-109215000D01*
X157555079Y-109194921D01*
X157300407Y-109024755D01*
X157000000Y-108965000D01*
X155890757Y-108965000D01*
X155864090Y-108923559D01*
X155651890Y-108778569D01*
X155400000Y-108727560D01*
X154600000Y-108727560D01*
X154364683Y-108771838D01*
X154148559Y-108910910D01*
X154003569Y-109123110D01*
X153952560Y-109375000D01*
X153952560Y-110125000D01*
X153996838Y-110360317D01*
X154135910Y-110576441D01*
X154338698Y-110715000D01*
X152250000Y-110715000D01*
X151949593Y-110774755D01*
X151694921Y-110944921D01*
X151324995Y-111314847D01*
X151314833Y-111314838D01*
X150971057Y-111456883D01*
X150707808Y-111719673D01*
X150565162Y-112063201D01*
X150564838Y-112435167D01*
X150577165Y-112465000D01*
X150037506Y-112465000D01*
X150030327Y-112457808D01*
X149686799Y-112315162D01*
X149314833Y-112314838D01*
X148971057Y-112456883D01*
X148707808Y-112719673D01*
X148657844Y-112840000D01*
X148240352Y-112840000D01*
X148247440Y-112805000D01*
X148247440Y-111905000D01*
X148211352Y-111713208D01*
X148247440Y-111535000D01*
X148247440Y-110635000D01*
X148211352Y-110443208D01*
X148247440Y-110265000D01*
X148247440Y-109365000D01*
X148211352Y-109173208D01*
X148247440Y-108995000D01*
X148247440Y-108095000D01*
X148240854Y-108060000D01*
X149225000Y-108060000D01*
X149525407Y-108000245D01*
X149780079Y-107830079D01*
X151825158Y-105785000D01*
X152960982Y-105785000D01*
X153035910Y-105901441D01*
G36*
X154003569Y-96373110D02*
X153952560Y-96625000D01*
X153952560Y-97375000D01*
X153996838Y-97610317D01*
X154135910Y-97826441D01*
X154348110Y-97971431D01*
X154600000Y-98022440D01*
X155400000Y-98022440D01*
X155635317Y-97978162D01*
X155851441Y-97839090D01*
X155888399Y-97785000D01*
X158349973Y-97785000D01*
X158348559Y-97785910D01*
X158203569Y-97998110D01*
X158152560Y-98250000D01*
X158152560Y-98750000D01*
X158196838Y-98985317D01*
X158335910Y-99201441D01*
X158355754Y-99215000D01*
X153075158Y-99215000D01*
X152960079Y-99099921D01*
X152705407Y-98929755D01*
X152405000Y-98870000D01*
X150490158Y-98870000D01*
X153075158Y-96285000D01*
X154063772Y-96285000D01*
X154003569Y-96373110D01*
X154003569Y-96373110D01*
G37*
X154003569Y-96373110D02*
X153952560Y-96625000D01*
X153952560Y-97375000D01*
X153996838Y-97610317D01*
X154135910Y-97826441D01*
X154348110Y-97971431D01*
X154600000Y-98022440D01*
X155400000Y-98022440D01*
X155635317Y-97978162D01*
X155851441Y-97839090D01*
X155888399Y-97785000D01*
X158349973Y-97785000D01*
X158348559Y-97785910D01*
X158203569Y-97998110D01*
X158152560Y-98250000D01*
X158152560Y-98750000D01*
X158196838Y-98985317D01*
X158335910Y-99201441D01*
X158355754Y-99215000D01*
X153075158Y-99215000D01*
X152960079Y-99099921D01*
X152705407Y-98929755D01*
X152405000Y-98870000D01*
X150490158Y-98870000D01*
X153075158Y-96285000D01*
X154063772Y-96285000D01*
X154003569Y-96373110D01*
G36*
X158348559Y-89785910D02*
X158203569Y-89998110D01*
X158152560Y-90250000D01*
X158152560Y-90750000D01*
X158196838Y-90985317D01*
X158335910Y-91201441D01*
X158465000Y-91289644D01*
X158465000Y-91460982D01*
X158458756Y-91465000D01*
X155890757Y-91465000D01*
X155864090Y-91423559D01*
X155651890Y-91278569D01*
X155400000Y-91227560D01*
X154600000Y-91227560D01*
X154364683Y-91271838D01*
X154148559Y-91410910D01*
X154003569Y-91623110D01*
X153952560Y-91875000D01*
X153952560Y-92625000D01*
X153996838Y-92860317D01*
X154064200Y-92965000D01*
X152750005Y-92965000D01*
X152750000Y-92964999D01*
X152449594Y-93024755D01*
X152194921Y-93194921D01*
X149059842Y-96330000D01*
X148525158Y-96330000D01*
X155070158Y-89785000D01*
X158349973Y-89785000D01*
X158348559Y-89785910D01*
X158348559Y-89785910D01*
G37*
X158348559Y-89785910D02*
X158203569Y-89998110D01*
X158152560Y-90250000D01*
X158152560Y-90750000D01*
X158196838Y-90985317D01*
X158335910Y-91201441D01*
X158465000Y-91289644D01*
X158465000Y-91460982D01*
X158458756Y-91465000D01*
X155890757Y-91465000D01*
X155864090Y-91423559D01*
X155651890Y-91278569D01*
X155400000Y-91227560D01*
X154600000Y-91227560D01*
X154364683Y-91271838D01*
X154148559Y-91410910D01*
X154003569Y-91623110D01*
X153952560Y-91875000D01*
X153952560Y-92625000D01*
X153996838Y-92860317D01*
X154064200Y-92965000D01*
X152750005Y-92965000D01*
X152750000Y-92964999D01*
X152449594Y-93024755D01*
X152194921Y-93194921D01*
X149059842Y-96330000D01*
X148525158Y-96330000D01*
X155070158Y-89785000D01*
X158349973Y-89785000D01*
X158348559Y-89785910D01*
G36*
X168448242Y-67847034D02*
X170480242Y-67847034D01*
X170588871Y-67826594D01*
X171010110Y-67826594D01*
X171677676Y-68494161D01*
X172045897Y-68740198D01*
X172480242Y-68826594D01*
X173023224Y-68826594D01*
X173098152Y-68943035D01*
X173177242Y-68997075D01*
X173177242Y-72062237D01*
X173177241Y-72062242D01*
X173202560Y-72189526D01*
X173202560Y-72625000D01*
X173246838Y-72860317D01*
X173365000Y-73043946D01*
X173365000Y-74428408D01*
X173199119Y-74535150D01*
X173054129Y-74747350D01*
X173003120Y-74999240D01*
X173003120Y-75598680D01*
X173047398Y-75833997D01*
X173155194Y-76001517D01*
X173054129Y-76149430D01*
X173003120Y-76401320D01*
X173003120Y-77000760D01*
X173047398Y-77236077D01*
X173186470Y-77452201D01*
X173365000Y-77574185D01*
X173365000Y-78960025D01*
X173253569Y-79123110D01*
X173202560Y-79375000D01*
X173202560Y-80125000D01*
X173246838Y-80360317D01*
X173385910Y-80576441D01*
X173465000Y-80630481D01*
X173465000Y-81750000D01*
X173524755Y-82050407D01*
X173694921Y-82305079D01*
X174944921Y-83555079D01*
X175199593Y-83725245D01*
X175500000Y-83785000D01*
X178674842Y-83785000D01*
X179515000Y-84625158D01*
X179515000Y-85852799D01*
X179509697Y-85854990D01*
X179116371Y-86247630D01*
X179106094Y-86272381D01*
X178506398Y-85671638D01*
X177648498Y-85315407D01*
X176719578Y-85314596D01*
X176039020Y-85595796D01*
X176039330Y-85240735D01*
X175749922Y-84540314D01*
X175214505Y-84003961D01*
X174514590Y-83713332D01*
X173756735Y-83712670D01*
X173056314Y-84002078D01*
X172519961Y-84537495D01*
X172229332Y-85237410D01*
X172228781Y-85868623D01*
X172055079Y-85694921D01*
X171800407Y-85524755D01*
X171500000Y-85465000D01*
X162309467Y-85465000D01*
X162552566Y-85302566D01*
X163662808Y-84192324D01*
X163908845Y-83824104D01*
X163995242Y-83389758D01*
X163995242Y-69145443D01*
X164111559Y-69123556D01*
X164327683Y-68984484D01*
X164472673Y-68772284D01*
X164523682Y-68520394D01*
X164523682Y-67826594D01*
X168347306Y-67826594D01*
X168448242Y-67847034D01*
X168448242Y-67847034D01*
G37*
X168448242Y-67847034D02*
X170480242Y-67847034D01*
X170588871Y-67826594D01*
X171010110Y-67826594D01*
X171677676Y-68494161D01*
X172045897Y-68740198D01*
X172480242Y-68826594D01*
X173023224Y-68826594D01*
X173098152Y-68943035D01*
X173177242Y-68997075D01*
X173177242Y-72062237D01*
X173177241Y-72062242D01*
X173202560Y-72189526D01*
X173202560Y-72625000D01*
X173246838Y-72860317D01*
X173365000Y-73043946D01*
X173365000Y-74428408D01*
X173199119Y-74535150D01*
X173054129Y-74747350D01*
X173003120Y-74999240D01*
X173003120Y-75598680D01*
X173047398Y-75833997D01*
X173155194Y-76001517D01*
X173054129Y-76149430D01*
X173003120Y-76401320D01*
X173003120Y-77000760D01*
X173047398Y-77236077D01*
X173186470Y-77452201D01*
X173365000Y-77574185D01*
X173365000Y-78960025D01*
X173253569Y-79123110D01*
X173202560Y-79375000D01*
X173202560Y-80125000D01*
X173246838Y-80360317D01*
X173385910Y-80576441D01*
X173465000Y-80630481D01*
X173465000Y-81750000D01*
X173524755Y-82050407D01*
X173694921Y-82305079D01*
X174944921Y-83555079D01*
X175199593Y-83725245D01*
X175500000Y-83785000D01*
X178674842Y-83785000D01*
X179515000Y-84625158D01*
X179515000Y-85852799D01*
X179509697Y-85854990D01*
X179116371Y-86247630D01*
X179106094Y-86272381D01*
X178506398Y-85671638D01*
X177648498Y-85315407D01*
X176719578Y-85314596D01*
X176039020Y-85595796D01*
X176039330Y-85240735D01*
X175749922Y-84540314D01*
X175214505Y-84003961D01*
X174514590Y-83713332D01*
X173756735Y-83712670D01*
X173056314Y-84002078D01*
X172519961Y-84537495D01*
X172229332Y-85237410D01*
X172228781Y-85868623D01*
X172055079Y-85694921D01*
X171800407Y-85524755D01*
X171500000Y-85465000D01*
X162309467Y-85465000D01*
X162552566Y-85302566D01*
X163662808Y-84192324D01*
X163908845Y-83824104D01*
X163995242Y-83389758D01*
X163995242Y-69145443D01*
X164111559Y-69123556D01*
X164327683Y-68984484D01*
X164472673Y-68772284D01*
X164523682Y-68520394D01*
X164523682Y-67826594D01*
X168347306Y-67826594D01*
X168448242Y-67847034D01*
G36*
X117151397Y-52684346D02*
X117196812Y-52752314D01*
X117221838Y-52885317D01*
X117360910Y-53101441D01*
X117573110Y-53246431D01*
X117737349Y-53279690D01*
X117765654Y-53298603D01*
X118200000Y-53385000D01*
X118634346Y-53298603D01*
X118660032Y-53281440D01*
X118810317Y-53253162D01*
X119026441Y-53114090D01*
X119171431Y-52901890D01*
X119201083Y-52755465D01*
X119248603Y-52684346D01*
X119260010Y-52627000D01*
X135267868Y-52627000D01*
X133947434Y-53947434D01*
X133701397Y-54315654D01*
X133615000Y-54750000D01*
X133615000Y-58029868D01*
X132679868Y-58965000D01*
X132118620Y-58965000D01*
X132101890Y-58953569D01*
X131850000Y-58902560D01*
X127250000Y-58902560D01*
X127014683Y-58946838D01*
X126798559Y-59085910D01*
X126653569Y-59298110D01*
X126602560Y-59550000D01*
X126602560Y-60650000D01*
X126646838Y-60885317D01*
X126785910Y-61101441D01*
X126998110Y-61246431D01*
X127250000Y-61297440D01*
X131850000Y-61297440D01*
X132085317Y-61253162D01*
X132113542Y-61235000D01*
X133150000Y-61235000D01*
X133584346Y-61148603D01*
X133620266Y-61124602D01*
X132379868Y-62365000D01*
X132118620Y-62365000D01*
X132101890Y-62353569D01*
X131850000Y-62302560D01*
X127250000Y-62302560D01*
X127014683Y-62346838D01*
X126798559Y-62485910D01*
X126653569Y-62698110D01*
X126602560Y-62950000D01*
X126602560Y-64050000D01*
X126646838Y-64285317D01*
X126687481Y-64348478D01*
X126653569Y-64398110D01*
X126602560Y-64650000D01*
X126602560Y-65750000D01*
X126646838Y-65985317D01*
X126785910Y-66201441D01*
X126998110Y-66346431D01*
X127250000Y-66397440D01*
X128065000Y-66397440D01*
X128065000Y-68210128D01*
X127948459Y-68285120D01*
X127803469Y-68497320D01*
X127752460Y-68749210D01*
X127752460Y-69614460D01*
X120500540Y-69614460D01*
X120066194Y-69700857D01*
X119697974Y-69946894D01*
X119034868Y-70610000D01*
X112335000Y-70610000D01*
X112335000Y-69200000D01*
X112248603Y-68765654D01*
X112002566Y-68397434D01*
X110535000Y-66929868D01*
X110535000Y-66196980D01*
X111150060Y-66196980D01*
X111385377Y-66152702D01*
X111601501Y-66013630D01*
X111746491Y-65801430D01*
X111797500Y-65549540D01*
X111797500Y-62049420D01*
X111753222Y-61814103D01*
X111614150Y-61597979D01*
X111401950Y-61452989D01*
X111150060Y-61401980D01*
X107649940Y-61401980D01*
X107414623Y-61446258D01*
X107198499Y-61585330D01*
X107053509Y-61797530D01*
X107002500Y-62049420D01*
X107002500Y-62664480D01*
X106649940Y-62664480D01*
X106215594Y-62750877D01*
X105847374Y-62996914D01*
X105197434Y-63646854D01*
X104951397Y-64015074D01*
X104865000Y-64449420D01*
X104865000Y-66504868D01*
X104355759Y-67014109D01*
X104314683Y-67021838D01*
X104200022Y-67095620D01*
X104101890Y-67028569D01*
X103955465Y-66998917D01*
X103884346Y-66951397D01*
X103450000Y-66865000D01*
X102627000Y-66865000D01*
X102627000Y-55673305D01*
X103414674Y-55673305D01*
X103701043Y-56366372D01*
X104230839Y-56897093D01*
X104923405Y-57184672D01*
X105673305Y-57185326D01*
X106366372Y-56898957D01*
X106897093Y-56369161D01*
X107184672Y-55676595D01*
X107185326Y-54926695D01*
X106898957Y-54233628D01*
X106369161Y-53702907D01*
X105676595Y-53415328D01*
X104926695Y-53414674D01*
X104233628Y-53701043D01*
X103702907Y-54230839D01*
X103415328Y-54923405D01*
X103414674Y-55673305D01*
X102627000Y-55673305D01*
X102627000Y-52627000D01*
X117139990Y-52627000D01*
X117151397Y-52684346D01*
X117151397Y-52684346D01*
G37*
X117151397Y-52684346D02*
X117196812Y-52752314D01*
X117221838Y-52885317D01*
X117360910Y-53101441D01*
X117573110Y-53246431D01*
X117737349Y-53279690D01*
X117765654Y-53298603D01*
X118200000Y-53385000D01*
X118634346Y-53298603D01*
X118660032Y-53281440D01*
X118810317Y-53253162D01*
X119026441Y-53114090D01*
X119171431Y-52901890D01*
X119201083Y-52755465D01*
X119248603Y-52684346D01*
X119260010Y-52627000D01*
X135267868Y-52627000D01*
X133947434Y-53947434D01*
X133701397Y-54315654D01*
X133615000Y-54750000D01*
X133615000Y-58029868D01*
X132679868Y-58965000D01*
X132118620Y-58965000D01*
X132101890Y-58953569D01*
X131850000Y-58902560D01*
X127250000Y-58902560D01*
X127014683Y-58946838D01*
X126798559Y-59085910D01*
X126653569Y-59298110D01*
X126602560Y-59550000D01*
X126602560Y-60650000D01*
X126646838Y-60885317D01*
X126785910Y-61101441D01*
X126998110Y-61246431D01*
X127250000Y-61297440D01*
X131850000Y-61297440D01*
X132085317Y-61253162D01*
X132113542Y-61235000D01*
X133150000Y-61235000D01*
X133584346Y-61148603D01*
X133620266Y-61124602D01*
X132379868Y-62365000D01*
X132118620Y-62365000D01*
X132101890Y-62353569D01*
X131850000Y-62302560D01*
X127250000Y-62302560D01*
X127014683Y-62346838D01*
X126798559Y-62485910D01*
X126653569Y-62698110D01*
X126602560Y-62950000D01*
X126602560Y-64050000D01*
X126646838Y-64285317D01*
X126687481Y-64348478D01*
X126653569Y-64398110D01*
X126602560Y-64650000D01*
X126602560Y-65750000D01*
X126646838Y-65985317D01*
X126785910Y-66201441D01*
X126998110Y-66346431D01*
X127250000Y-66397440D01*
X128065000Y-66397440D01*
X128065000Y-68210128D01*
X127948459Y-68285120D01*
X127803469Y-68497320D01*
X127752460Y-68749210D01*
X127752460Y-69614460D01*
X120500540Y-69614460D01*
X120066194Y-69700857D01*
X119697974Y-69946894D01*
X119034868Y-70610000D01*
X112335000Y-70610000D01*
X112335000Y-69200000D01*
X112248603Y-68765654D01*
X112002566Y-68397434D01*
X110535000Y-66929868D01*
X110535000Y-66196980D01*
X111150060Y-66196980D01*
X111385377Y-66152702D01*
X111601501Y-66013630D01*
X111746491Y-65801430D01*
X111797500Y-65549540D01*
X111797500Y-62049420D01*
X111753222Y-61814103D01*
X111614150Y-61597979D01*
X111401950Y-61452989D01*
X111150060Y-61401980D01*
X107649940Y-61401980D01*
X107414623Y-61446258D01*
X107198499Y-61585330D01*
X107053509Y-61797530D01*
X107002500Y-62049420D01*
X107002500Y-62664480D01*
X106649940Y-62664480D01*
X106215594Y-62750877D01*
X105847374Y-62996914D01*
X105197434Y-63646854D01*
X104951397Y-64015074D01*
X104865000Y-64449420D01*
X104865000Y-66504868D01*
X104355759Y-67014109D01*
X104314683Y-67021838D01*
X104200022Y-67095620D01*
X104101890Y-67028569D01*
X103955465Y-66998917D01*
X103884346Y-66951397D01*
X103450000Y-66865000D01*
X102627000Y-66865000D01*
X102627000Y-55673305D01*
X103414674Y-55673305D01*
X103701043Y-56366372D01*
X104230839Y-56897093D01*
X104923405Y-57184672D01*
X105673305Y-57185326D01*
X106366372Y-56898957D01*
X106897093Y-56369161D01*
X107184672Y-55676595D01*
X107185326Y-54926695D01*
X106898957Y-54233628D01*
X106369161Y-53702907D01*
X105676595Y-53415328D01*
X104926695Y-53414674D01*
X104233628Y-53701043D01*
X103702907Y-54230839D01*
X103415328Y-54923405D01*
X103414674Y-55673305D01*
X102627000Y-55673305D01*
X102627000Y-52627000D01*
X117139990Y-52627000D01*
X117151397Y-52684346D01*
M02*
