G04 #@! TF.FileFunction,Legend,Bot*
%FSLAX46Y46*%
G04 Gerber Fmt 4.6, Leading zero omitted, Abs format (unit mm)*
G04 Created by KiCad (PCBNEW 4.0.2-stable) date 09/06/16 16:45:41*
%MOMM*%
G01*
G04 APERTURE LIST*
%ADD10C,0.100000*%
%ADD11C,0.300000*%
G04 APERTURE END LIST*
D10*
D11*
X187550000Y-155492857D02*
X187335714Y-155564286D01*
X187264286Y-155635714D01*
X187192857Y-155778571D01*
X187192857Y-155992857D01*
X187264286Y-156135714D01*
X187335714Y-156207143D01*
X187478572Y-156278571D01*
X188050000Y-156278571D01*
X188050000Y-154778571D01*
X187550000Y-154778571D01*
X187407143Y-154850000D01*
X187335714Y-154921429D01*
X187264286Y-155064286D01*
X187264286Y-155207143D01*
X187335714Y-155350000D01*
X187407143Y-155421429D01*
X187550000Y-155492857D01*
X188050000Y-155492857D01*
X186264286Y-154778571D02*
X185978572Y-154778571D01*
X185835714Y-154850000D01*
X185692857Y-154992857D01*
X185621429Y-155278571D01*
X185621429Y-155778571D01*
X185692857Y-156064286D01*
X185835714Y-156207143D01*
X185978572Y-156278571D01*
X186264286Y-156278571D01*
X186407143Y-156207143D01*
X186550000Y-156064286D01*
X186621429Y-155778571D01*
X186621429Y-155278571D01*
X186550000Y-154992857D01*
X186407143Y-154850000D01*
X186264286Y-154778571D01*
X185192857Y-154778571D02*
X184335714Y-154778571D01*
X184764285Y-156278571D02*
X184764285Y-154778571D01*
X179999999Y-127250000D02*
X179285713Y-127250000D01*
X180142856Y-127678571D02*
X179642856Y-126178571D01*
X179142856Y-127678571D01*
X178642856Y-126178571D02*
X178642856Y-127392857D01*
X178571428Y-127535714D01*
X178499999Y-127607143D01*
X178357142Y-127678571D01*
X178071428Y-127678571D01*
X177928570Y-127607143D01*
X177857142Y-127535714D01*
X177785713Y-127392857D01*
X177785713Y-126178571D01*
X177142856Y-127607143D02*
X176928570Y-127678571D01*
X176571427Y-127678571D01*
X176428570Y-127607143D01*
X176357141Y-127535714D01*
X176285713Y-127392857D01*
X176285713Y-127250000D01*
X176357141Y-127107143D01*
X176428570Y-127035714D01*
X176571427Y-126964286D01*
X176857141Y-126892857D01*
X176999999Y-126821429D01*
X177071427Y-126750000D01*
X177142856Y-126607143D01*
X177142856Y-126464286D01*
X177071427Y-126321429D01*
X176999999Y-126250000D01*
X176857141Y-126178571D01*
X176499999Y-126178571D01*
X176285713Y-126250000D01*
X174499999Y-127678571D02*
X174499999Y-126178571D01*
X173999999Y-127250000D01*
X173499999Y-126178571D01*
X173499999Y-127678571D01*
X172785713Y-127678571D02*
X172785713Y-126678571D01*
X172785713Y-126178571D02*
X172857142Y-126250000D01*
X172785713Y-126321429D01*
X172714285Y-126250000D01*
X172785713Y-126178571D01*
X172785713Y-126321429D01*
X171428570Y-127607143D02*
X171571427Y-127678571D01*
X171857141Y-127678571D01*
X171999999Y-127607143D01*
X172071427Y-127535714D01*
X172142856Y-127392857D01*
X172142856Y-126964286D01*
X172071427Y-126821429D01*
X171999999Y-126750000D01*
X171857141Y-126678571D01*
X171571427Y-126678571D01*
X171428570Y-126750000D01*
X170785713Y-127678571D02*
X170785713Y-126678571D01*
X170785713Y-126964286D02*
X170714285Y-126821429D01*
X170642856Y-126750000D01*
X170499999Y-126678571D01*
X170357142Y-126678571D01*
X169642856Y-127678571D02*
X169785714Y-127607143D01*
X169857142Y-127535714D01*
X169928571Y-127392857D01*
X169928571Y-126964286D01*
X169857142Y-126821429D01*
X169785714Y-126750000D01*
X169642856Y-126678571D01*
X169428571Y-126678571D01*
X169285714Y-126750000D01*
X169214285Y-126821429D01*
X169142856Y-126964286D01*
X169142856Y-127392857D01*
X169214285Y-127535714D01*
X169285714Y-127607143D01*
X169428571Y-127678571D01*
X169642856Y-127678571D01*
X168499999Y-127678571D02*
X168499999Y-126178571D01*
X167857142Y-127678571D02*
X167857142Y-126892857D01*
X167928571Y-126750000D01*
X168071428Y-126678571D01*
X168285713Y-126678571D01*
X168428571Y-126750000D01*
X168499999Y-126821429D01*
X166499999Y-127678571D02*
X166499999Y-126892857D01*
X166571428Y-126750000D01*
X166714285Y-126678571D01*
X166999999Y-126678571D01*
X167142856Y-126750000D01*
X166499999Y-127607143D02*
X166642856Y-127678571D01*
X166999999Y-127678571D01*
X167142856Y-127607143D01*
X167214285Y-127464286D01*
X167214285Y-127321429D01*
X167142856Y-127178571D01*
X166999999Y-127107143D01*
X166642856Y-127107143D01*
X166499999Y-127035714D01*
X165785713Y-127678571D02*
X165785713Y-126678571D01*
X165785713Y-126964286D02*
X165714285Y-126821429D01*
X165642856Y-126750000D01*
X165499999Y-126678571D01*
X165357142Y-126678571D01*
X164214285Y-127678571D02*
X164214285Y-126178571D01*
X164214285Y-127607143D02*
X164357142Y-127678571D01*
X164642856Y-127678571D01*
X164785714Y-127607143D01*
X164857142Y-127535714D01*
X164928571Y-127392857D01*
X164928571Y-126964286D01*
X164857142Y-126821429D01*
X164785714Y-126750000D01*
X164642856Y-126678571D01*
X164357142Y-126678571D01*
X164214285Y-126750000D01*
X162571428Y-126178571D02*
X161714285Y-126178571D01*
X162142856Y-127678571D02*
X162142856Y-126178571D01*
X160642857Y-127607143D02*
X160785714Y-127678571D01*
X161071428Y-127678571D01*
X161214285Y-127607143D01*
X161285714Y-127464286D01*
X161285714Y-126892857D01*
X161214285Y-126750000D01*
X161071428Y-126678571D01*
X160785714Y-126678571D01*
X160642857Y-126750000D01*
X160571428Y-126892857D01*
X160571428Y-127035714D01*
X161285714Y-127178571D01*
X159714285Y-127678571D02*
X159857143Y-127607143D01*
X159928571Y-127464286D01*
X159928571Y-126178571D01*
X158571429Y-127607143D02*
X158714286Y-127678571D01*
X159000000Y-127678571D01*
X159142857Y-127607143D01*
X159214286Y-127464286D01*
X159214286Y-126892857D01*
X159142857Y-126750000D01*
X159000000Y-126678571D01*
X158714286Y-126678571D01*
X158571429Y-126750000D01*
X158500000Y-126892857D01*
X158500000Y-127035714D01*
X159214286Y-127178571D01*
X156928572Y-126178571D02*
X156428572Y-127678571D01*
X155928572Y-126178571D01*
X154642858Y-127678571D02*
X155500001Y-127678571D01*
X155071429Y-127678571D02*
X155071429Y-126178571D01*
X155214286Y-126392857D01*
X155357144Y-126535714D01*
X155500001Y-126607143D01*
X154000001Y-127535714D02*
X153928573Y-127607143D01*
X154000001Y-127678571D01*
X154071430Y-127607143D01*
X154000001Y-127535714D01*
X154000001Y-127678571D01*
X153000001Y-126178571D02*
X152857144Y-126178571D01*
X152714287Y-126250000D01*
X152642858Y-126321429D01*
X152571429Y-126464286D01*
X152500001Y-126750000D01*
X152500001Y-127107143D01*
X152571429Y-127392857D01*
X152642858Y-127535714D01*
X152714287Y-127607143D01*
X152857144Y-127678571D01*
X153000001Y-127678571D01*
X153142858Y-127607143D01*
X153214287Y-127535714D01*
X153285715Y-127392857D01*
X153357144Y-127107143D01*
X153357144Y-126750000D01*
X153285715Y-126464286D01*
X153214287Y-126321429D01*
X153142858Y-126250000D01*
X153000001Y-126178571D01*
M02*
