G04 #@! TF.FileFunction,Soldermask,Top*
%FSLAX46Y46*%
G04 Gerber Fmt 4.6, Leading zero omitted, Abs format (unit mm)*
G04 Created by KiCad (PCBNEW 4.0.2-stable) date 09/06/16 16:45:41*
%MOMM*%
G01*
G04 APERTURE LIST*
%ADD10C,0.100000*%
%ADD11C,1.000000*%
%ADD12R,1.150000X1.200000*%
%ADD13R,1.200000X1.150000*%
%ADD14R,2.000200X4.400500*%
%ADD15R,1.400000X2.000000*%
%ADD16R,2.000000X1.400000*%
%ADD17R,3.900120X3.900120*%
%ADD18R,0.850000X0.990000*%
%ADD19R,3.600000X3.000000*%
%ADD20R,1.598880X1.598880*%
%ADD21C,4.210000*%
%ADD22R,1.924000X1.924000*%
%ADD23C,1.924000*%
%ADD24C,3.800000*%
%ADD25C,2.940000*%
%ADD26R,0.900000X0.900000*%
%ADD27R,3.300680X5.800040*%
%ADD28R,1.598880X0.999440*%
%ADD29R,2.400000X3.000000*%
%ADD30O,2.400000X3.000000*%
%ADD31R,1.300000X0.900000*%
%ADD32R,1.300000X2.100000*%
%ADD33R,0.900000X1.300000*%
%ADD34R,1.670000X1.300000*%
%ADD35R,1.200000X1.850000*%
%ADD36R,5.000000X1.500000*%
%ADD37R,9.800000X11.200000*%
%ADD38R,1.100000X0.650000*%
%ADD39R,0.650000X1.100000*%
%ADD40R,2.125000X2.125000*%
%ADD41R,3.400000X1.300000*%
%ADD42R,1.300000X3.400000*%
%ADD43R,2.700000X3.400000*%
%ADD44R,10.400000X2.400000*%
%ADD45R,2.400000X6.550000*%
%ADD46R,2.432000X4.057600*%
%ADD47R,2.432000X1.416000*%
%ADD48R,1.000000X1.900000*%
%ADD49C,2.900000*%
G04 APERTURE END LIST*
D10*
D11*
X101100000Y-100300000D02*
X101100000Y-100500000D01*
X100600000Y-99600000D02*
X101100000Y-100300000D01*
X100600000Y-50700000D02*
X100600000Y-99600000D01*
X101100000Y-109800000D02*
X101100000Y-108800000D01*
X100600000Y-110400000D02*
X101100000Y-109800000D01*
X100600000Y-149200000D02*
X100600000Y-110400000D01*
X100700000Y-149400000D02*
X100600000Y-149200000D01*
X189400000Y-149500000D02*
X100700000Y-149400000D01*
X189400000Y-50600000D02*
X189400000Y-149500000D01*
X100900000Y-50600000D02*
X189400000Y-50600000D01*
D12*
X118200000Y-53750000D03*
X118200000Y-52250000D03*
D13*
X103450000Y-68000000D03*
X104950000Y-68000000D03*
D14*
X129200000Y-70749460D03*
X129200000Y-76850540D03*
X152800000Y-70949460D03*
X152800000Y-77050540D03*
D12*
X124800000Y-138950000D03*
X124800000Y-137450000D03*
X126800000Y-133650000D03*
X126800000Y-135150000D03*
X127500000Y-138500000D03*
X127500000Y-140000000D03*
D13*
X134550000Y-139600000D03*
X133050000Y-139600000D03*
X137750000Y-139600000D03*
X136250000Y-139600000D03*
D15*
X174062242Y-64291594D03*
X177062242Y-64291594D03*
X174062242Y-67691594D03*
X177062242Y-67691594D03*
D13*
X155000000Y-97000000D03*
X153500000Y-97000000D03*
X155000000Y-109750000D03*
X153500000Y-109750000D03*
X155000000Y-92250000D03*
X153500000Y-92250000D03*
X155000000Y-114750000D03*
X153500000Y-114750000D03*
D16*
X149400000Y-145700000D03*
X149400000Y-142700000D03*
D13*
X174250000Y-72250000D03*
X175750000Y-72250000D03*
X158000000Y-121500000D03*
X159500000Y-121500000D03*
X174250000Y-79750000D03*
X175750000Y-79750000D03*
D15*
X185500000Y-82000000D03*
X182500000Y-82000000D03*
D17*
X109400000Y-63799480D03*
X109400000Y-57800000D03*
X104701000Y-60799740D03*
D18*
X111200000Y-71745000D03*
X111200000Y-73855000D03*
D19*
X141200000Y-77400000D03*
X141200000Y-70200000D03*
D20*
X105649020Y-96200000D03*
X103550980Y-96200000D03*
X105449020Y-111600000D03*
X103350980Y-111600000D03*
X105449020Y-114200000D03*
X103350980Y-114200000D03*
X105449020Y-116800000D03*
X103350980Y-116800000D03*
X105449020Y-119600000D03*
X103350980Y-119600000D03*
X105449020Y-122600000D03*
X103350980Y-122600000D03*
D21*
X156303000Y-135600000D03*
X181703000Y-135600000D03*
D22*
X174591000Y-133060000D03*
D23*
X171797000Y-133060000D03*
X169130000Y-133060000D03*
X166336000Y-133060000D03*
X163542000Y-133060000D03*
X173194000Y-135600000D03*
X170400000Y-135600000D03*
X167733000Y-135600000D03*
X164939000Y-135600000D03*
D24*
X177182000Y-87650000D03*
X177182000Y-99080000D03*
D23*
X170832000Y-97810000D03*
X168292000Y-97175000D03*
X170832000Y-95270000D03*
X168292000Y-94635000D03*
X170832000Y-92730000D03*
X168292000Y-92095000D03*
X170832000Y-90190000D03*
D25*
X174134000Y-85618000D03*
X174134000Y-101112000D03*
D23*
X180300000Y-97150000D03*
X181820000Y-89580000D03*
X181820000Y-99690000D03*
X180300000Y-87040000D03*
X168292000Y-89555000D03*
D24*
X177140000Y-106570000D03*
X177140000Y-118000000D03*
D23*
X170790000Y-116730000D03*
X168250000Y-116095000D03*
X170790000Y-114190000D03*
X168250000Y-113555000D03*
X170790000Y-111650000D03*
X168250000Y-111015000D03*
X170790000Y-109110000D03*
D25*
X174092000Y-104538000D03*
X174092000Y-120032000D03*
D23*
X180258000Y-116070000D03*
X181778000Y-108500000D03*
X181778000Y-118610000D03*
X180258000Y-105960000D03*
X168250000Y-108475000D03*
D26*
X126500000Y-130400000D03*
X126500000Y-129400000D03*
X126500000Y-128400000D03*
X123250000Y-130250000D03*
X123250000Y-129250000D03*
X123250000Y-128250000D03*
D27*
X138249540Y-60600000D03*
X148150460Y-60600000D03*
D28*
X174250000Y-76701040D03*
X174250000Y-75298960D03*
D29*
X132060000Y-145500000D03*
D30*
X134600000Y-145500000D03*
X137140000Y-145500000D03*
X139680000Y-145500000D03*
D29*
X161800000Y-54600000D03*
D30*
X164340000Y-54600000D03*
D29*
X168260000Y-54600000D03*
D30*
X170800000Y-54600000D03*
D31*
X107750000Y-102750000D03*
X107750000Y-101250000D03*
D32*
X103750000Y-73600000D03*
X106650000Y-73600000D03*
D33*
X109550000Y-96200000D03*
X108050000Y-96200000D03*
X109550000Y-110600000D03*
X108050000Y-110600000D03*
X109550000Y-112800000D03*
X108050000Y-112800000D03*
X109550000Y-115000000D03*
X108050000Y-115000000D03*
X109550000Y-117200000D03*
X108050000Y-117200000D03*
X109600000Y-119600000D03*
X108100000Y-119600000D03*
X109150000Y-106000000D03*
X107650000Y-106000000D03*
X155000000Y-87500000D03*
X153500000Y-87500000D03*
X155250000Y-105000000D03*
X153750000Y-105000000D03*
D31*
X159250000Y-90500000D03*
X159250000Y-89000000D03*
X159250000Y-92250000D03*
X159250000Y-93750000D03*
X159250000Y-98500000D03*
X159250000Y-100000000D03*
X159250000Y-97000000D03*
X159250000Y-95500000D03*
X159250000Y-108500000D03*
X159250000Y-107000000D03*
X159250000Y-110000000D03*
X159250000Y-111500000D03*
X159250000Y-116250000D03*
X159250000Y-117750000D03*
X159250000Y-114750000D03*
X159250000Y-113250000D03*
D23*
X155000000Y-58400000D03*
X155000000Y-55860000D03*
X155000000Y-60940000D03*
D34*
X103000000Y-102600000D03*
X103000000Y-106800000D03*
D35*
X101115000Y-101325000D03*
X101115000Y-108075000D03*
D36*
X129550000Y-58400000D03*
X129550000Y-60100000D03*
X129550000Y-63500000D03*
D37*
X120400000Y-61800000D03*
D36*
X129550000Y-61800000D03*
X129550000Y-65200000D03*
D38*
X136062500Y-135287500D03*
X136062500Y-134787500D03*
X136062500Y-134287500D03*
X136062500Y-133787500D03*
X136062500Y-133287500D03*
X136062500Y-132787500D03*
X136062500Y-132287500D03*
X136062500Y-131787500D03*
D39*
X135412500Y-131137500D03*
X134912500Y-131137500D03*
X134412500Y-131137500D03*
X133912500Y-131137500D03*
X133412500Y-131137500D03*
X132912500Y-131137500D03*
X132412500Y-131137500D03*
X131912500Y-131137500D03*
D38*
X131262500Y-131787500D03*
X131262500Y-132287500D03*
X131262500Y-132787500D03*
X131262500Y-133287500D03*
X131262500Y-133787500D03*
X131262500Y-134287500D03*
X131262500Y-134787500D03*
X131262500Y-135287500D03*
D39*
X131912500Y-135937500D03*
X132412500Y-135937500D03*
X132912500Y-135937500D03*
X133412500Y-135937500D03*
X133912500Y-135937500D03*
X134412500Y-135937500D03*
X134912500Y-135937500D03*
X135412500Y-135937500D03*
D40*
X132800000Y-132675000D03*
X132800000Y-134400000D03*
X134525000Y-132675000D03*
X134525000Y-134400000D03*
D41*
X113920000Y-88225000D03*
X113920000Y-89495000D03*
X113920000Y-90765000D03*
X113920000Y-92035000D03*
X113920000Y-93305000D03*
X113920000Y-94575000D03*
X113920000Y-95845000D03*
X113920000Y-97115000D03*
X113920000Y-98385000D03*
X113920000Y-99655000D03*
X113920000Y-100925000D03*
X113920000Y-102195000D03*
X113920000Y-103465000D03*
X113920000Y-104735000D03*
X113920000Y-106005000D03*
X113920000Y-107275000D03*
X113920000Y-108545000D03*
X113920000Y-109815000D03*
X113920000Y-111085000D03*
X113920000Y-112355000D03*
X113920000Y-113625000D03*
X113920000Y-114895000D03*
X113920000Y-116165000D03*
X113920000Y-117435000D03*
D42*
X120485000Y-122170000D03*
X121755000Y-122170000D03*
X123025000Y-122170000D03*
X124295000Y-122170000D03*
X125565000Y-122170000D03*
X126835000Y-122170000D03*
X128105000Y-122170000D03*
X129375000Y-122170000D03*
X130645000Y-122170000D03*
X131915000Y-122170000D03*
X133185000Y-122170000D03*
X134455000Y-122170000D03*
X135725000Y-122170000D03*
X136995000Y-122170000D03*
X138265000Y-122170000D03*
X139535000Y-122170000D03*
D41*
X146100000Y-117435000D03*
X146100000Y-116165000D03*
X146100000Y-114895000D03*
X146100000Y-113625000D03*
X146100000Y-112355000D03*
X146100000Y-111085000D03*
X146100000Y-109815000D03*
X146100000Y-108545000D03*
X146100000Y-107275000D03*
X146100000Y-106005000D03*
X146100000Y-104735000D03*
X146100000Y-103465000D03*
X146100000Y-102195000D03*
X146100000Y-100925000D03*
X146100000Y-99655000D03*
X146100000Y-98385000D03*
X146100000Y-97115000D03*
X146100000Y-95845000D03*
X146100000Y-94575000D03*
X146100000Y-93305000D03*
X146100000Y-92035000D03*
X146100000Y-90765000D03*
X146100000Y-89495000D03*
X146100000Y-88225000D03*
D42*
X139535000Y-83490000D03*
X138265000Y-83490000D03*
X136995000Y-83490000D03*
X135725000Y-83490000D03*
X134455000Y-83490000D03*
X133185000Y-83490000D03*
X131915000Y-83490000D03*
X130645000Y-83490000D03*
X129375000Y-83490000D03*
X128105000Y-83490000D03*
X126835000Y-83490000D03*
X125565000Y-83490000D03*
X124295000Y-83490000D03*
X123025000Y-83490000D03*
X121755000Y-83490000D03*
X120485000Y-83490000D03*
D43*
X118580000Y-83490000D03*
X118580000Y-122170000D03*
X141440000Y-122170000D03*
X141440000Y-83490000D03*
D44*
X130010000Y-90130000D03*
X130010000Y-115530000D03*
D45*
X121120000Y-97750000D03*
X121120000Y-107910000D03*
X138900000Y-107910000D03*
X138900000Y-97750000D03*
D46*
X162860242Y-66691594D03*
D47*
X169464242Y-66691594D03*
X169464242Y-64405594D03*
X169464242Y-68977594D03*
D13*
X116141628Y-127200000D03*
X114641628Y-127200000D03*
X110800000Y-127200000D03*
X112300000Y-127200000D03*
D12*
X118400000Y-133450000D03*
X118400000Y-134950000D03*
D13*
X108550000Y-127200000D03*
X107050000Y-127200000D03*
X114650000Y-139600000D03*
X116150000Y-139600000D03*
D29*
X110400000Y-145400000D03*
D30*
X107860000Y-145400000D03*
D29*
X116800000Y-145400000D03*
D30*
X114260000Y-145400000D03*
D48*
X115931628Y-131436066D03*
X114661628Y-131436066D03*
X113391628Y-131436066D03*
X112121628Y-131436066D03*
X110851628Y-131436066D03*
X109581628Y-131436066D03*
X108311628Y-131436066D03*
X107041628Y-131436066D03*
X107041628Y-136836066D03*
X108311628Y-136836066D03*
X109581628Y-136836066D03*
X110851628Y-136836066D03*
X112121628Y-136836066D03*
X113391628Y-136836066D03*
X114661628Y-136836066D03*
X115931628Y-136836066D03*
D32*
X185650000Y-124000000D03*
X182750000Y-124000000D03*
D49*
X184700000Y-55300000D03*
X105300000Y-55300000D03*
X103800000Y-146100000D03*
X186100000Y-146100000D03*
M02*
