G04 #@! TF.FileFunction,Paste,Top*
%FSLAX46Y46*%
G04 Gerber Fmt 4.6, Leading zero omitted, Abs format (unit mm)*
G04 Created by KiCad (PCBNEW 4.0.2-stable) date 09/06/16 16:45:41*
%MOMM*%
G01*
G04 APERTURE LIST*
%ADD10C,0.100000*%
%ADD11R,0.750000X0.800000*%
%ADD12R,0.800000X0.750000*%
%ADD13R,1.600200X4.000500*%
%ADD14R,1.000000X1.600000*%
%ADD15R,1.600000X1.000000*%
%ADD16R,0.450000X0.590000*%
%ADD17R,3.200000X2.600000*%
%ADD18R,1.198880X1.198880*%
%ADD19R,0.500000X0.500000*%
%ADD20R,2.900680X5.400040*%
%ADD21R,1.198880X0.599440*%
%ADD22R,0.900000X0.500000*%
%ADD23R,0.900000X1.700000*%
%ADD24R,0.500000X0.900000*%
%ADD25R,1.270000X0.900000*%
%ADD26R,0.800000X1.450000*%
%ADD27R,4.600000X1.100000*%
%ADD28R,9.400000X10.800000*%
%ADD29R,0.700000X0.250000*%
%ADD30R,0.250000X0.700000*%
%ADD31R,1.035000X1.035000*%
%ADD32R,3.000000X0.900000*%
%ADD33R,0.900000X3.000000*%
%ADD34R,2.300000X3.000000*%
%ADD35R,10.000000X2.000000*%
%ADD36R,2.000000X6.150000*%
%ADD37R,2.032000X3.657600*%
%ADD38R,2.032000X1.016000*%
%ADD39R,0.600000X1.500000*%
G04 APERTURE END LIST*
D10*
D11*
X118200000Y-53750000D03*
X118200000Y-52250000D03*
D12*
X103450000Y-68000000D03*
X104950000Y-68000000D03*
D13*
X129200000Y-70749460D03*
X129200000Y-76850540D03*
X152800000Y-70949460D03*
X152800000Y-77050540D03*
D11*
X124800000Y-138950000D03*
X124800000Y-137450000D03*
X126800000Y-133650000D03*
X126800000Y-135150000D03*
X127500000Y-138500000D03*
X127500000Y-140000000D03*
D12*
X134550000Y-139600000D03*
X133050000Y-139600000D03*
X137750000Y-139600000D03*
X136250000Y-139600000D03*
D14*
X174062242Y-64291594D03*
X177062242Y-64291594D03*
X174062242Y-67691594D03*
X177062242Y-67691594D03*
D12*
X155000000Y-97000000D03*
X153500000Y-97000000D03*
X155000000Y-109750000D03*
X153500000Y-109750000D03*
X155000000Y-92250000D03*
X153500000Y-92250000D03*
X155000000Y-114750000D03*
X153500000Y-114750000D03*
D15*
X149400000Y-145700000D03*
X149400000Y-142700000D03*
D12*
X174250000Y-72250000D03*
X175750000Y-72250000D03*
X158000000Y-121500000D03*
X159500000Y-121500000D03*
X174250000Y-79750000D03*
X175750000Y-79750000D03*
D14*
X185500000Y-82000000D03*
X182500000Y-82000000D03*
D16*
X111200000Y-71745000D03*
X111200000Y-73855000D03*
D17*
X141200000Y-77400000D03*
X141200000Y-70200000D03*
D18*
X105649020Y-96200000D03*
X103550980Y-96200000D03*
X105449020Y-111600000D03*
X103350980Y-111600000D03*
X105449020Y-114200000D03*
X103350980Y-114200000D03*
X105449020Y-116800000D03*
X103350980Y-116800000D03*
X105449020Y-119600000D03*
X103350980Y-119600000D03*
X105449020Y-122600000D03*
X103350980Y-122600000D03*
D19*
X126500000Y-130400000D03*
X126500000Y-129400000D03*
X126500000Y-128400000D03*
X123250000Y-130250000D03*
X123250000Y-129250000D03*
X123250000Y-128250000D03*
D20*
X138249540Y-60600000D03*
X148150460Y-60600000D03*
D21*
X174250000Y-76701040D03*
X174250000Y-75298960D03*
D22*
X107750000Y-102750000D03*
X107750000Y-101250000D03*
D23*
X103750000Y-73600000D03*
X106650000Y-73600000D03*
D24*
X109550000Y-96200000D03*
X108050000Y-96200000D03*
X109550000Y-110600000D03*
X108050000Y-110600000D03*
X109550000Y-112800000D03*
X108050000Y-112800000D03*
X109550000Y-115000000D03*
X108050000Y-115000000D03*
X109550000Y-117200000D03*
X108050000Y-117200000D03*
X109600000Y-119600000D03*
X108100000Y-119600000D03*
X109150000Y-106000000D03*
X107650000Y-106000000D03*
X155000000Y-87500000D03*
X153500000Y-87500000D03*
X155250000Y-105000000D03*
X153750000Y-105000000D03*
D22*
X159250000Y-90500000D03*
X159250000Y-89000000D03*
X159250000Y-92250000D03*
X159250000Y-93750000D03*
X159250000Y-98500000D03*
X159250000Y-100000000D03*
X159250000Y-97000000D03*
X159250000Y-95500000D03*
X159250000Y-108500000D03*
X159250000Y-107000000D03*
X159250000Y-110000000D03*
X159250000Y-111500000D03*
X159250000Y-116250000D03*
X159250000Y-117750000D03*
X159250000Y-114750000D03*
X159250000Y-113250000D03*
D25*
X103000000Y-102600000D03*
X103000000Y-106800000D03*
D26*
X101115000Y-101325000D03*
X101115000Y-108075000D03*
D27*
X129550000Y-58400000D03*
X129550000Y-60100000D03*
X129550000Y-63500000D03*
D28*
X120400000Y-61800000D03*
D27*
X129550000Y-61800000D03*
X129550000Y-65200000D03*
D29*
X136062500Y-135287500D03*
X136062500Y-134787500D03*
X136062500Y-134287500D03*
X136062500Y-133787500D03*
X136062500Y-133287500D03*
X136062500Y-132787500D03*
X136062500Y-132287500D03*
X136062500Y-131787500D03*
D30*
X135412500Y-131137500D03*
X134912500Y-131137500D03*
X134412500Y-131137500D03*
X133912500Y-131137500D03*
X133412500Y-131137500D03*
X132912500Y-131137500D03*
X132412500Y-131137500D03*
X131912500Y-131137500D03*
D29*
X131262500Y-131787500D03*
X131262500Y-132287500D03*
X131262500Y-132787500D03*
X131262500Y-133287500D03*
X131262500Y-133787500D03*
X131262500Y-134287500D03*
X131262500Y-134787500D03*
X131262500Y-135287500D03*
D30*
X131912500Y-135937500D03*
X132412500Y-135937500D03*
X132912500Y-135937500D03*
X133412500Y-135937500D03*
X133912500Y-135937500D03*
X134412500Y-135937500D03*
X134912500Y-135937500D03*
X135412500Y-135937500D03*
D31*
X132800000Y-132675000D03*
X132800000Y-134400000D03*
X134525000Y-132675000D03*
X134525000Y-134400000D03*
D32*
X113920000Y-88225000D03*
X113920000Y-89495000D03*
X113920000Y-90765000D03*
X113920000Y-92035000D03*
X113920000Y-93305000D03*
X113920000Y-94575000D03*
X113920000Y-95845000D03*
X113920000Y-97115000D03*
X113920000Y-98385000D03*
X113920000Y-99655000D03*
X113920000Y-100925000D03*
X113920000Y-102195000D03*
X113920000Y-103465000D03*
X113920000Y-104735000D03*
X113920000Y-106005000D03*
X113920000Y-107275000D03*
X113920000Y-108545000D03*
X113920000Y-109815000D03*
X113920000Y-111085000D03*
X113920000Y-112355000D03*
X113920000Y-113625000D03*
X113920000Y-114895000D03*
X113920000Y-116165000D03*
X113920000Y-117435000D03*
D33*
X120485000Y-122170000D03*
X121755000Y-122170000D03*
X123025000Y-122170000D03*
X124295000Y-122170000D03*
X125565000Y-122170000D03*
X126835000Y-122170000D03*
X128105000Y-122170000D03*
X129375000Y-122170000D03*
X130645000Y-122170000D03*
X131915000Y-122170000D03*
X133185000Y-122170000D03*
X134455000Y-122170000D03*
X135725000Y-122170000D03*
X136995000Y-122170000D03*
X138265000Y-122170000D03*
X139535000Y-122170000D03*
D32*
X146100000Y-117435000D03*
X146100000Y-116165000D03*
X146100000Y-114895000D03*
X146100000Y-113625000D03*
X146100000Y-112355000D03*
X146100000Y-111085000D03*
X146100000Y-109815000D03*
X146100000Y-108545000D03*
X146100000Y-107275000D03*
X146100000Y-106005000D03*
X146100000Y-104735000D03*
X146100000Y-103465000D03*
X146100000Y-102195000D03*
X146100000Y-100925000D03*
X146100000Y-99655000D03*
X146100000Y-98385000D03*
X146100000Y-97115000D03*
X146100000Y-95845000D03*
X146100000Y-94575000D03*
X146100000Y-93305000D03*
X146100000Y-92035000D03*
X146100000Y-90765000D03*
X146100000Y-89495000D03*
X146100000Y-88225000D03*
D33*
X139535000Y-83490000D03*
X138265000Y-83490000D03*
X136995000Y-83490000D03*
X135725000Y-83490000D03*
X134455000Y-83490000D03*
X133185000Y-83490000D03*
X131915000Y-83490000D03*
X130645000Y-83490000D03*
X129375000Y-83490000D03*
X128105000Y-83490000D03*
X126835000Y-83490000D03*
X125565000Y-83490000D03*
X124295000Y-83490000D03*
X123025000Y-83490000D03*
X121755000Y-83490000D03*
X120485000Y-83490000D03*
D34*
X118580000Y-83490000D03*
X118580000Y-122170000D03*
X141440000Y-122170000D03*
X141440000Y-83490000D03*
D35*
X130010000Y-90130000D03*
X130010000Y-115530000D03*
D36*
X121120000Y-97750000D03*
X121120000Y-107910000D03*
X138900000Y-107910000D03*
X138900000Y-97750000D03*
D37*
X162860242Y-66691594D03*
D38*
X169464242Y-66691594D03*
X169464242Y-64405594D03*
X169464242Y-68977594D03*
D12*
X116141628Y-127200000D03*
X114641628Y-127200000D03*
X110800000Y-127200000D03*
X112300000Y-127200000D03*
D11*
X118400000Y-133450000D03*
X118400000Y-134950000D03*
D12*
X108550000Y-127200000D03*
X107050000Y-127200000D03*
X114650000Y-139600000D03*
X116150000Y-139600000D03*
D39*
X115931628Y-131436066D03*
X114661628Y-131436066D03*
X113391628Y-131436066D03*
X112121628Y-131436066D03*
X110851628Y-131436066D03*
X109581628Y-131436066D03*
X108311628Y-131436066D03*
X107041628Y-131436066D03*
X107041628Y-136836066D03*
X108311628Y-136836066D03*
X109581628Y-136836066D03*
X110851628Y-136836066D03*
X112121628Y-136836066D03*
X113391628Y-136836066D03*
X114661628Y-136836066D03*
X115931628Y-136836066D03*
D23*
X185650000Y-124000000D03*
X182750000Y-124000000D03*
M02*
