G04 EAGLE Gerber RS-274X export*
G75*
%MOMM*%
%FSLAX34Y34*%
%LPD*%
%INCopper Layer 2*%
%IPPOS*%
%AMOC8*
5,1,8,0,0,1.08239X$1,22.5*%
G01*
%ADD10C,1.676400*%
%ADD11C,1.408000*%
%ADD12C,0.806400*%
%ADD13C,0.203200*%


D10*
X368204Y439191D03*
X393604Y439191D03*
X419004Y439191D03*
X444404Y439191D03*
D11*
X463525Y272730D03*
X463525Y292730D03*
X483525Y272730D03*
X483525Y292730D03*
X503525Y272730D03*
X503525Y292730D03*
X523525Y272730D03*
X523525Y292730D03*
D12*
X482500Y388750D03*
X511250Y386250D03*
X352500Y356250D03*
X344051Y311683D03*
D13*
X360918Y322958D02*
X365065Y327105D01*
X365065Y332970D01*
X360918Y322958D02*
X355325Y322958D01*
X352500Y345535D02*
X352500Y356250D01*
X355325Y322958D02*
X344051Y311683D01*
X365065Y332970D02*
X352500Y345535D01*
X550000Y347500D02*
X550000Y276816D01*
X525684Y252500D01*
X423750Y252500D01*
X408750Y267500D01*
D12*
X550000Y347500D03*
X408750Y267500D03*
X535498Y376782D03*
D13*
X406250Y292500D02*
X380498Y318252D01*
D12*
X482500Y377500D03*
X406250Y292500D03*
X321250Y390000D03*
D13*
X380498Y320740D02*
X380498Y318252D01*
X380498Y320740D02*
X377920Y323317D01*
X388330Y348317D02*
X388330Y354183D01*
X384183Y358330D01*
X379283Y358330D01*
X377920Y337907D02*
X377920Y323317D01*
X377920Y337907D02*
X388330Y348317D01*
X370830Y366783D02*
X370830Y371683D01*
X366683Y375830D01*
X331683Y375420D02*
X325817Y375420D01*
X331683Y375420D02*
X332093Y375830D01*
X366683Y375830D01*
X325817Y375420D02*
X321250Y379987D01*
X370830Y366783D02*
X379283Y358330D01*
X321250Y379987D02*
X321250Y390000D01*
X414748Y400657D02*
X414748Y401267D01*
X414748Y400657D02*
X396591Y382500D01*
X328750Y382500D01*
D12*
X481977Y362119D03*
X414748Y401267D03*
X328750Y382500D03*
X390000Y278750D03*
X542500Y340000D03*
X520000Y411250D03*
X427500Y277500D03*
X356250Y416250D03*
X357985Y330037D03*
D13*
X356250Y416250D02*
X379791Y416250D01*
X423587Y418374D02*
X444404Y439191D01*
D12*
X421349Y300281D03*
X480774Y343371D03*
D13*
X389575Y418374D02*
X389268Y418682D01*
X382223Y418682D02*
X379791Y416250D01*
X382223Y418682D02*
X389268Y418682D01*
X389575Y418374D02*
X423587Y418374D01*
D12*
X313597Y448948D03*
X292353Y355134D03*
D13*
X317450Y330037D01*
X357985Y330037D01*
D12*
X379395Y288118D03*
X302087Y401956D03*
X407617Y408447D03*
X506731Y425927D03*
X363750Y368750D03*
X491848Y321915D03*
D13*
X505419Y335486D01*
X510496Y335486D02*
X511030Y334952D01*
X510496Y335486D02*
X505419Y335486D01*
D12*
X511030Y334952D03*
D13*
X506731Y411612D02*
X506731Y425927D01*
X518330Y383317D02*
X511030Y376017D01*
X511030Y334952D01*
X518330Y400013D02*
X506731Y411612D01*
X518330Y400013D02*
X518330Y383317D01*
D12*
X443855Y264825D03*
D13*
X434580Y274100D01*
X434580Y280433D01*
X430433Y284580D01*
X455834Y455460D02*
X451429Y459864D01*
X353317Y423330D02*
X349170Y419183D01*
X349170Y399567D02*
X353317Y395420D01*
X349170Y399567D02*
X349170Y419183D01*
X432974Y436997D02*
X432974Y454111D01*
X430433Y284580D02*
X425407Y284580D01*
X396670Y313317D01*
X419307Y423330D02*
X432974Y436997D01*
X419307Y423330D02*
X353317Y423330D01*
X396670Y372907D02*
X396670Y313317D01*
X396670Y372907D02*
X440282Y416519D01*
X394589Y395420D02*
X353317Y395420D01*
X394589Y395420D02*
X407617Y408447D01*
X432974Y454111D02*
X438727Y459864D01*
X451429Y459864D01*
X449976Y416519D02*
X440282Y416519D01*
X455834Y422377D02*
X455834Y455460D01*
X455834Y422377D02*
X449976Y416519D01*
D12*
X415331Y322123D03*
D13*
X455208Y355208D02*
X455208Y360357D01*
X455208Y355208D02*
X452500Y352500D01*
X455208Y360357D02*
X475000Y380150D01*
X475000Y413217D01*
X485747Y423964D02*
X485747Y426004D01*
X485747Y423964D02*
X475000Y413217D01*
D12*
X452500Y352500D03*
X485747Y426004D03*
X298750Y455000D03*
X350794Y300012D03*
X301207Y360559D03*
D13*
X462500Y357500D02*
X466517Y357500D01*
X479017Y370000D01*
X486250Y370000D01*
X503750Y387500D01*
X503750Y392770D01*
X509431Y398450D01*
D12*
X462500Y357500D03*
X509431Y398450D03*
D13*
X406508Y370913D02*
X406508Y328333D01*
D12*
X406508Y328333D03*
X475297Y426121D03*
D13*
X456519Y386014D02*
X421608Y386014D01*
X475297Y420772D02*
X475297Y426121D01*
X457920Y387415D02*
X456519Y386014D01*
X457920Y387415D02*
X457920Y403395D01*
X475297Y420772D01*
X421608Y386014D02*
X406508Y370913D01*
D12*
X403750Y316250D03*
X385000Y326250D03*
D13*
X436390Y350632D02*
X443118Y350632D01*
X490893Y302857D01*
X529428Y302857D01*
X534237Y298048D01*
X534237Y267677D01*
X524060Y257500D01*
X511250Y257500D01*
X504875Y263875D01*
X503525Y272730D01*
D12*
X436390Y350632D03*
X381250Y351250D03*
X506870Y312569D03*
X367500Y352500D03*
X386335Y411602D03*
X465000Y392500D03*
X496289Y425925D03*
X356250Y402500D03*
D13*
X426250Y351250D02*
X452500Y377500D01*
D12*
X452500Y377500D03*
X426250Y351250D03*
X426250Y378893D03*
X437053Y378748D03*
X417500Y411250D03*
D13*
X427500Y340000D02*
X427500Y315635D01*
X450975Y292160D01*
X450975Y264025D01*
X457500Y257500D01*
X470826Y257500D01*
X483525Y272730D01*
D12*
X427500Y340000D03*
X557500Y326250D03*
X323714Y411409D03*
X444832Y338906D03*
X457787Y310256D03*
X298544Y443885D03*
X476812Y353013D03*
X312500Y411250D03*
M02*
