G04 EAGLE Gerber RS-274X export*
G75*
%MOMM*%
%FSLAX34Y34*%
%LPD*%
%INTop Copper*%
%IPPOS*%
%AMOC8*
5,1,8,0,0,1.08239X$1,22.5*%
G01*
%ADD10C,1.879600*%
%ADD11R,0.500000X0.800000*%
%ADD12R,0.350000X0.350000*%
%ADD13C,0.145000*%
%ADD14R,0.600000X1.500000*%
%ADD15R,1.200000X1.800000*%
%ADD16C,1.408000*%
%ADD17R,1.000000X1.000000*%
%ADD18R,0.700000X0.900000*%
%ADD19C,0.203200*%
%ADD20C,0.806400*%

G36*
X489697Y217885D02*
X489697Y217885D01*
X489712Y217884D01*
X534097Y218637D01*
X534212Y218658D01*
X534331Y218678D01*
X534335Y218680D01*
X534339Y218681D01*
X534442Y218738D01*
X534547Y218794D01*
X534551Y218798D01*
X534554Y218800D01*
X534634Y218887D01*
X534716Y218974D01*
X534718Y218978D01*
X534721Y218981D01*
X534769Y219089D01*
X534818Y219197D01*
X534819Y219203D01*
X534821Y219206D01*
X534822Y219220D01*
X534845Y219363D01*
X537044Y266667D01*
X550785Y273541D01*
X608806Y273541D01*
X608835Y273546D01*
X608865Y273543D01*
X608956Y273566D01*
X609049Y273581D01*
X609075Y273595D01*
X609104Y273602D01*
X609183Y273652D01*
X609266Y273696D01*
X609287Y273717D01*
X609312Y273733D01*
X609371Y273806D01*
X609435Y273874D01*
X609448Y273901D01*
X609467Y273924D01*
X609500Y274012D01*
X609539Y274097D01*
X609542Y274127D01*
X609553Y274155D01*
X609567Y274322D01*
X606991Y374260D01*
X606982Y374307D01*
X606983Y374354D01*
X606960Y374426D01*
X606945Y374502D01*
X606922Y374543D01*
X606908Y374588D01*
X606862Y374649D01*
X606825Y374716D01*
X606790Y374748D01*
X606762Y374786D01*
X606699Y374829D01*
X606642Y374881D01*
X606599Y374900D01*
X606560Y374927D01*
X606487Y374948D01*
X606416Y374979D01*
X606369Y374983D01*
X606324Y374996D01*
X606192Y374998D01*
X606171Y374999D01*
X606165Y374998D01*
X606156Y374998D01*
X552587Y369767D01*
X542781Y377127D01*
X542765Y377135D01*
X542752Y377147D01*
X542656Y377192D01*
X542563Y377241D01*
X542545Y377243D01*
X542529Y377251D01*
X542424Y377263D01*
X542320Y377279D01*
X542302Y377276D01*
X542284Y377278D01*
X542181Y377256D01*
X542077Y377238D01*
X542062Y377230D01*
X542044Y377226D01*
X541953Y377172D01*
X541861Y377122D01*
X541848Y377109D01*
X541833Y377100D01*
X541764Y377020D01*
X541692Y376943D01*
X541685Y376926D01*
X541673Y376913D01*
X541634Y376815D01*
X541590Y376719D01*
X541588Y376701D01*
X541581Y376685D01*
X541563Y376518D01*
X541563Y375576D01*
X540639Y373347D01*
X538890Y371597D01*
X538817Y371554D01*
X538813Y371549D01*
X538808Y371546D01*
X538733Y371455D01*
X538657Y371367D01*
X538655Y371361D01*
X538651Y371356D01*
X538609Y371247D01*
X538565Y371138D01*
X538564Y371131D01*
X538563Y371127D01*
X538562Y371108D01*
X538547Y370972D01*
X538547Y363580D01*
X538561Y363490D01*
X538568Y363399D01*
X538581Y363369D01*
X538586Y363338D01*
X538629Y363257D01*
X538665Y363173D01*
X538690Y363141D01*
X538701Y363120D01*
X538725Y363098D01*
X538770Y363042D01*
X548047Y353764D01*
X548142Y353696D01*
X548236Y353626D01*
X548242Y353624D01*
X548247Y353621D01*
X548359Y353586D01*
X548470Y353550D01*
X548476Y353550D01*
X548482Y353548D01*
X548600Y353551D01*
X548716Y353553D01*
X548723Y353555D01*
X548728Y353555D01*
X548745Y353561D01*
X548758Y353565D01*
X551206Y353565D01*
X553435Y352641D01*
X555141Y350935D01*
X556065Y348706D01*
X556065Y346294D01*
X555141Y344065D01*
X553435Y342359D01*
X551206Y341435D01*
X549326Y341435D01*
X549306Y341432D01*
X549287Y341434D01*
X549185Y341412D01*
X549083Y341396D01*
X549066Y341386D01*
X549046Y341382D01*
X548957Y341329D01*
X548866Y341280D01*
X548852Y341266D01*
X548835Y341256D01*
X548768Y341177D01*
X548696Y341102D01*
X548688Y341084D01*
X548675Y341069D01*
X548636Y340973D01*
X548593Y340879D01*
X548591Y340859D01*
X548583Y340841D01*
X548565Y340674D01*
X548565Y338794D01*
X547641Y336565D01*
X545935Y334859D01*
X543649Y333912D01*
X543628Y333904D01*
X543577Y333896D01*
X543514Y333862D01*
X543446Y333837D01*
X543405Y333805D01*
X543360Y333780D01*
X543310Y333729D01*
X543254Y333684D01*
X543226Y333640D01*
X543190Y333602D01*
X543160Y333537D01*
X543121Y333477D01*
X543108Y333426D01*
X543087Y333379D01*
X543079Y333308D01*
X543061Y333238D01*
X543065Y333186D01*
X543059Y333135D01*
X543075Y333064D01*
X543080Y332993D01*
X543101Y332945D01*
X543112Y332894D01*
X543149Y332832D01*
X543177Y332767D01*
X543221Y332711D01*
X543238Y332683D01*
X543256Y332668D01*
X543281Y332636D01*
X543584Y332334D01*
X543658Y332280D01*
X543727Y332221D01*
X543757Y332209D01*
X543783Y332190D01*
X543870Y332163D01*
X543955Y332129D01*
X543996Y332124D01*
X544018Y332118D01*
X544051Y332118D01*
X544122Y332111D01*
X551795Y332111D01*
X552751Y331154D01*
X552767Y331143D01*
X552780Y331127D01*
X552867Y331071D01*
X552951Y331011D01*
X552970Y331005D01*
X552987Y330994D01*
X553087Y330969D01*
X553186Y330939D01*
X553206Y330939D01*
X553225Y330934D01*
X553328Y330942D01*
X553432Y330945D01*
X553451Y330952D01*
X553470Y330953D01*
X553565Y330994D01*
X553663Y331029D01*
X553678Y331042D01*
X553697Y331050D01*
X553828Y331154D01*
X554065Y331391D01*
X556294Y332315D01*
X558706Y332315D01*
X560935Y331391D01*
X562641Y329685D01*
X563565Y327456D01*
X563565Y325044D01*
X562641Y322815D01*
X562022Y322195D01*
X561969Y322121D01*
X561909Y322051D01*
X561897Y322021D01*
X561878Y321995D01*
X561851Y321908D01*
X561817Y321823D01*
X561813Y321782D01*
X561806Y321760D01*
X561807Y321728D01*
X561799Y321657D01*
X561799Y316237D01*
X553633Y308072D01*
X553580Y307998D01*
X553521Y307928D01*
X553509Y307898D01*
X553490Y307872D01*
X553463Y307785D01*
X553429Y307700D01*
X553424Y307659D01*
X553418Y307637D01*
X553418Y307605D01*
X553410Y307534D01*
X553410Y304861D01*
X551795Y303245D01*
X540404Y303245D01*
X540334Y303234D01*
X540262Y303232D01*
X540213Y303214D01*
X540162Y303205D01*
X540098Y303172D01*
X540031Y303147D01*
X539990Y303115D01*
X539944Y303090D01*
X539895Y303038D01*
X539839Y302993D01*
X539811Y302950D01*
X539775Y302912D01*
X539745Y302847D01*
X539706Y302787D01*
X539693Y302736D01*
X539671Y302689D01*
X539663Y302618D01*
X539646Y302548D01*
X539650Y302496D01*
X539644Y302444D01*
X539659Y302374D01*
X539665Y302303D01*
X539685Y302255D01*
X539696Y302204D01*
X539733Y302142D01*
X539761Y302076D01*
X539806Y302021D01*
X539823Y301993D01*
X539840Y301978D01*
X539866Y301946D01*
X541040Y300772D01*
X541114Y300719D01*
X541183Y300659D01*
X541213Y300647D01*
X541240Y300628D01*
X541327Y300601D01*
X541411Y300567D01*
X541452Y300563D01*
X541475Y300556D01*
X541507Y300557D01*
X541578Y300549D01*
X555013Y300549D01*
X556799Y298763D01*
X556799Y292920D01*
X556802Y292900D01*
X556800Y292880D01*
X556822Y292779D01*
X556838Y292677D01*
X556848Y292659D01*
X556852Y292640D01*
X556905Y292551D01*
X556954Y292459D01*
X556968Y292446D01*
X556978Y292429D01*
X557057Y292361D01*
X557132Y292290D01*
X557150Y292282D01*
X557165Y292269D01*
X557261Y292230D01*
X557355Y292186D01*
X557375Y292184D01*
X557393Y292177D01*
X557560Y292158D01*
X558428Y292158D01*
X559619Y290968D01*
X559619Y280284D01*
X558428Y279093D01*
X549744Y279093D01*
X548553Y280284D01*
X548553Y280333D01*
X548552Y280342D01*
X548552Y280346D01*
X548549Y280358D01*
X548552Y280381D01*
X548529Y280478D01*
X548513Y280576D01*
X548502Y280597D01*
X548497Y280620D01*
X548445Y280705D01*
X548398Y280793D01*
X548381Y280809D01*
X548368Y280830D01*
X548292Y280894D01*
X548220Y280962D01*
X548198Y280972D01*
X548180Y280988D01*
X548087Y281024D01*
X547997Y281066D01*
X547973Y281069D01*
X547951Y281077D01*
X547851Y281082D01*
X547752Y281093D01*
X547729Y281088D01*
X547705Y281089D01*
X547609Y281062D01*
X547512Y281041D01*
X547491Y281028D01*
X547468Y281022D01*
X547386Y280966D01*
X547301Y280915D01*
X547285Y280896D01*
X547265Y280883D01*
X547206Y280803D01*
X547141Y280728D01*
X547132Y280705D01*
X547118Y280686D01*
X547057Y280530D01*
X546953Y280145D01*
X546619Y279566D01*
X546146Y279092D01*
X545567Y278758D01*
X544920Y278585D01*
X542609Y278585D01*
X542609Y284863D01*
X542606Y284883D01*
X542608Y284903D01*
X542586Y285004D01*
X542569Y285106D01*
X542560Y285124D01*
X542556Y285143D01*
X542503Y285232D01*
X542454Y285324D01*
X542440Y285337D01*
X542430Y285354D01*
X542351Y285422D01*
X542276Y285493D01*
X542258Y285501D01*
X542243Y285514D01*
X542146Y285553D01*
X542053Y285597D01*
X542033Y285599D01*
X542015Y285606D01*
X541848Y285625D01*
X541085Y285625D01*
X541085Y285626D01*
X541848Y285626D01*
X541868Y285630D01*
X541887Y285627D01*
X541989Y285649D01*
X542091Y285666D01*
X542108Y285675D01*
X542128Y285680D01*
X542217Y285733D01*
X542308Y285781D01*
X542322Y285796D01*
X542339Y285806D01*
X542406Y285885D01*
X542477Y285960D01*
X542486Y285978D01*
X542499Y285993D01*
X542537Y286089D01*
X542581Y286183D01*
X542583Y286202D01*
X542591Y286221D01*
X542609Y286388D01*
X542609Y292666D01*
X544920Y292666D01*
X545567Y292493D01*
X546146Y292159D01*
X546619Y291686D01*
X546953Y291106D01*
X547057Y290721D01*
X547067Y290699D01*
X547070Y290676D01*
X547117Y290588D01*
X547158Y290497D01*
X547174Y290479D01*
X547185Y290458D01*
X547257Y290390D01*
X547325Y290317D01*
X547346Y290305D01*
X547364Y290289D01*
X547454Y290247D01*
X547541Y290200D01*
X547565Y290195D01*
X547587Y290185D01*
X547686Y290174D01*
X547784Y290157D01*
X547808Y290161D01*
X547831Y290158D01*
X547928Y290179D01*
X548027Y290194D01*
X548048Y290205D01*
X548072Y290210D01*
X548157Y290261D01*
X548245Y290307D01*
X548262Y290324D01*
X548283Y290337D01*
X548347Y290412D01*
X548417Y290483D01*
X548427Y290505D01*
X548443Y290523D01*
X548480Y290616D01*
X548523Y290705D01*
X548526Y290729D01*
X548535Y290752D01*
X548553Y290918D01*
X548553Y290968D01*
X549744Y292158D01*
X549940Y292158D01*
X549960Y292162D01*
X549979Y292159D01*
X550081Y292181D01*
X550183Y292198D01*
X550200Y292207D01*
X550220Y292212D01*
X550309Y292265D01*
X550400Y292313D01*
X550414Y292328D01*
X550431Y292338D01*
X550498Y292416D01*
X550570Y292491D01*
X550578Y292510D01*
X550591Y292525D01*
X550630Y292621D01*
X550673Y292715D01*
X550675Y292734D01*
X550683Y292753D01*
X550701Y292920D01*
X550701Y293690D01*
X550698Y293710D01*
X550700Y293729D01*
X550678Y293831D01*
X550662Y293933D01*
X550652Y293950D01*
X550648Y293970D01*
X550595Y294059D01*
X550546Y294150D01*
X550532Y294164D01*
X550522Y294181D01*
X550443Y294248D01*
X550368Y294320D01*
X550350Y294328D01*
X550335Y294341D01*
X550239Y294380D01*
X550145Y294423D01*
X550125Y294425D01*
X550107Y294433D01*
X549940Y294451D01*
X534078Y294451D01*
X533988Y294437D01*
X533897Y294429D01*
X533867Y294417D01*
X533835Y294412D01*
X533755Y294369D01*
X533671Y294333D01*
X533639Y294307D01*
X533618Y294296D01*
X533596Y294273D01*
X533540Y294228D01*
X532820Y293509D01*
X532767Y293435D01*
X532708Y293365D01*
X532696Y293335D01*
X532677Y293309D01*
X532650Y293222D01*
X532616Y293137D01*
X532611Y293096D01*
X532604Y293074D01*
X532605Y293042D01*
X532597Y292970D01*
X532597Y290925D01*
X531216Y287591D01*
X528664Y285038D01*
X525251Y283625D01*
X525207Y283617D01*
X525150Y283588D01*
X525090Y283567D01*
X525042Y283530D01*
X524989Y283502D01*
X524945Y283456D01*
X524894Y283417D01*
X524861Y283367D01*
X524820Y283324D01*
X524793Y283266D01*
X524757Y283213D01*
X524741Y283155D01*
X524716Y283101D01*
X524709Y283037D01*
X524692Y282976D01*
X524696Y282916D01*
X524689Y282856D01*
X524703Y282794D01*
X524706Y282730D01*
X524729Y282675D01*
X524741Y282616D01*
X524774Y282561D01*
X524798Y282502D01*
X524837Y282456D01*
X524868Y282405D01*
X524916Y282364D01*
X524958Y282315D01*
X525009Y282284D01*
X525054Y282245D01*
X525114Y282221D01*
X525168Y282188D01*
X525252Y282166D01*
X525283Y282153D01*
X525307Y282150D01*
X525330Y282144D01*
X525768Y282075D01*
X527202Y281609D01*
X528546Y280924D01*
X529766Y280038D01*
X530832Y278971D01*
X531719Y277751D01*
X532403Y276408D01*
X532869Y274973D01*
X532983Y274253D01*
X524287Y274253D01*
X524267Y274250D01*
X524247Y274252D01*
X524146Y274230D01*
X524044Y274213D01*
X524026Y274204D01*
X524007Y274200D01*
X523918Y274147D01*
X523827Y274098D01*
X523813Y274084D01*
X523796Y274074D01*
X523728Y273995D01*
X523657Y273920D01*
X523649Y273902D01*
X523636Y273887D01*
X523597Y273791D01*
X523554Y273697D01*
X523551Y273677D01*
X523544Y273659D01*
X523525Y273492D01*
X523525Y272729D01*
X522763Y272729D01*
X522743Y272726D01*
X522723Y272728D01*
X522622Y272706D01*
X522520Y272689D01*
X522502Y272680D01*
X522483Y272676D01*
X522394Y272623D01*
X522302Y272574D01*
X522289Y272560D01*
X522272Y272550D01*
X522204Y272471D01*
X522133Y272396D01*
X522125Y272378D01*
X522112Y272363D01*
X522073Y272266D01*
X522029Y272173D01*
X522027Y272153D01*
X522020Y272135D01*
X522001Y271968D01*
X522001Y263271D01*
X521281Y263385D01*
X519847Y263851D01*
X518503Y264536D01*
X517283Y265422D01*
X516217Y266488D01*
X515330Y267709D01*
X514646Y269052D01*
X514180Y270487D01*
X514110Y270924D01*
X514090Y270985D01*
X514080Y271048D01*
X514052Y271101D01*
X514033Y271158D01*
X513995Y271209D01*
X513965Y271265D01*
X513922Y271306D01*
X513886Y271354D01*
X513833Y271391D01*
X513787Y271435D01*
X513732Y271460D01*
X513683Y271494D01*
X513621Y271511D01*
X513564Y271538D01*
X513504Y271545D01*
X513446Y271561D01*
X513383Y271558D01*
X513319Y271565D01*
X513260Y271553D01*
X513201Y271550D01*
X513141Y271527D01*
X513079Y271513D01*
X513027Y271482D01*
X512971Y271461D01*
X512922Y271420D01*
X512868Y271387D01*
X512829Y271341D01*
X512783Y271303D01*
X512749Y271249D01*
X512708Y271200D01*
X512685Y271144D01*
X512654Y271093D01*
X512640Y271031D01*
X512616Y270972D01*
X512615Y270969D01*
X511216Y267591D01*
X508664Y265038D01*
X505329Y263657D01*
X501720Y263657D01*
X498385Y265038D01*
X495833Y267591D01*
X494452Y270925D01*
X494452Y274535D01*
X495833Y277869D01*
X498385Y280421D01*
X501720Y281803D01*
X505329Y281803D01*
X508664Y280421D01*
X511216Y277869D01*
X512630Y274456D01*
X512637Y274412D01*
X512667Y274356D01*
X512688Y274295D01*
X512724Y274248D01*
X512752Y274195D01*
X512798Y274151D01*
X512837Y274100D01*
X512887Y274066D01*
X512930Y274025D01*
X512988Y273998D01*
X513041Y273963D01*
X513099Y273947D01*
X513154Y273922D01*
X513217Y273915D01*
X513279Y273898D01*
X513338Y273901D01*
X513398Y273894D01*
X513460Y273908D01*
X513524Y273912D01*
X513580Y273934D01*
X513638Y273947D01*
X513693Y273980D01*
X513752Y274003D01*
X513798Y274042D01*
X513849Y274073D01*
X513891Y274121D01*
X513940Y274163D01*
X513970Y274214D01*
X514009Y274260D01*
X514033Y274319D01*
X514066Y274374D01*
X514089Y274457D01*
X514101Y274488D01*
X514104Y274512D01*
X514110Y274536D01*
X514180Y274973D01*
X514646Y276408D01*
X515330Y277751D01*
X516217Y278971D01*
X517283Y280038D01*
X518503Y280924D01*
X519847Y281609D01*
X521281Y282075D01*
X521719Y282144D01*
X521779Y282164D01*
X521843Y282174D01*
X521895Y282202D01*
X521952Y282221D01*
X522004Y282260D01*
X522060Y282290D01*
X522101Y282333D01*
X522149Y282369D01*
X522185Y282422D01*
X522229Y282468D01*
X522254Y282522D01*
X522288Y282572D01*
X522306Y282633D01*
X522333Y282691D01*
X522339Y282751D01*
X522356Y282808D01*
X522353Y282872D01*
X522360Y282935D01*
X522347Y282994D01*
X522344Y283054D01*
X522321Y283113D01*
X522308Y283176D01*
X522277Y283227D01*
X522255Y283283D01*
X522214Y283332D01*
X522182Y283387D01*
X522136Y283426D01*
X522098Y283472D01*
X522043Y283505D01*
X521995Y283547D01*
X521939Y283569D01*
X521888Y283601D01*
X521826Y283615D01*
X521766Y283639D01*
X521764Y283639D01*
X518385Y285038D01*
X515833Y287591D01*
X514452Y290925D01*
X514452Y294535D01*
X515833Y297869D01*
X518385Y300421D01*
X520440Y301273D01*
X520523Y301324D01*
X520609Y301369D01*
X520627Y301388D01*
X520649Y301402D01*
X520711Y301477D01*
X520778Y301548D01*
X520789Y301571D01*
X520806Y301592D01*
X520841Y301683D01*
X520882Y301771D01*
X520885Y301797D01*
X520894Y301821D01*
X520898Y301919D01*
X520909Y302015D01*
X520903Y302041D01*
X520904Y302067D01*
X520877Y302160D01*
X520857Y302256D01*
X520843Y302278D01*
X520836Y302303D01*
X520780Y302383D01*
X520730Y302467D01*
X520711Y302484D01*
X520696Y302505D01*
X520618Y302563D01*
X520544Y302627D01*
X520519Y302636D01*
X520498Y302652D01*
X520406Y302682D01*
X520315Y302719D01*
X520283Y302722D01*
X520264Y302728D01*
X520231Y302728D01*
X520149Y302737D01*
X514473Y302737D01*
X513642Y302960D01*
X512897Y303390D01*
X512290Y303998D01*
X511860Y304742D01*
X511637Y305573D01*
X511637Y306921D01*
X511625Y306992D01*
X511624Y307064D01*
X511606Y307113D01*
X511597Y307164D01*
X511564Y307227D01*
X511539Y307295D01*
X511507Y307335D01*
X511482Y307381D01*
X511430Y307431D01*
X511385Y307487D01*
X511342Y307515D01*
X511304Y307551D01*
X511239Y307581D01*
X511178Y307620D01*
X511128Y307632D01*
X511081Y307654D01*
X511009Y307662D01*
X510940Y307680D01*
X510888Y307676D01*
X510836Y307681D01*
X510766Y307666D01*
X510695Y307661D01*
X510647Y307640D01*
X510596Y307629D01*
X510534Y307592D01*
X510468Y307564D01*
X510412Y307520D01*
X510385Y307503D01*
X510370Y307485D01*
X510337Y307459D01*
X510305Y307427D01*
X508076Y306504D01*
X505663Y306504D01*
X503434Y307427D01*
X501728Y309133D01*
X501137Y310561D01*
X501112Y310600D01*
X501097Y310644D01*
X501048Y310704D01*
X501007Y310771D01*
X500972Y310800D01*
X500943Y310836D01*
X500877Y310878D01*
X500818Y310927D01*
X500775Y310944D01*
X500736Y310969D01*
X500660Y310988D01*
X500588Y311016D01*
X500542Y311017D01*
X500498Y311029D01*
X500420Y311023D01*
X500342Y311026D01*
X500298Y311013D01*
X500252Y311010D01*
X500181Y310979D01*
X500106Y310957D01*
X500068Y310931D01*
X500026Y310913D01*
X499919Y310828D01*
X499904Y310817D01*
X499901Y310813D01*
X499895Y310808D01*
X499230Y310143D01*
X499176Y310069D01*
X499117Y310000D01*
X499105Y309969D01*
X499086Y309943D01*
X499059Y309856D01*
X499025Y309771D01*
X499021Y309731D01*
X499014Y309708D01*
X499015Y309676D01*
X499007Y309605D01*
X499007Y303357D01*
X497816Y302166D01*
X489132Y302166D01*
X487941Y303357D01*
X487941Y314041D01*
X489132Y315232D01*
X495380Y315232D01*
X495415Y315237D01*
X495423Y315236D01*
X495465Y315246D01*
X495471Y315247D01*
X495564Y315254D01*
X495592Y315266D01*
X495623Y315271D01*
X495650Y315286D01*
X495663Y315289D01*
X495713Y315318D01*
X495790Y315351D01*
X495820Y315376D01*
X495840Y315386D01*
X495857Y315404D01*
X495874Y315415D01*
X495888Y315431D01*
X495920Y315457D01*
X495924Y315461D01*
X495965Y315518D01*
X496009Y315565D01*
X496017Y315581D01*
X496034Y315602D01*
X496047Y315633D01*
X496067Y315661D01*
X496091Y315741D01*
X496113Y315788D01*
X496114Y315800D01*
X496126Y315830D01*
X496131Y315873D01*
X496138Y315896D01*
X496137Y315928D01*
X496145Y315997D01*
X496145Y372831D01*
X496130Y372921D01*
X496123Y373012D01*
X496110Y373041D01*
X496105Y373073D01*
X496062Y373154D01*
X496027Y373238D01*
X496001Y373270D01*
X495990Y373291D01*
X495967Y373313D01*
X495922Y373369D01*
X489938Y379352D01*
X489864Y379406D01*
X489795Y379465D01*
X489765Y379477D01*
X489739Y379496D01*
X489652Y379523D01*
X489567Y379557D01*
X489526Y379561D01*
X489503Y379568D01*
X489471Y379567D01*
X489400Y379575D01*
X489326Y379575D01*
X489306Y379572D01*
X489287Y379574D01*
X489185Y379552D01*
X489083Y379536D01*
X489066Y379526D01*
X489046Y379522D01*
X488957Y379469D01*
X488866Y379421D01*
X488852Y379406D01*
X488835Y379396D01*
X488768Y379317D01*
X488696Y379242D01*
X488688Y379224D01*
X488675Y379209D01*
X488636Y379113D01*
X488593Y379019D01*
X488591Y378999D01*
X488583Y378981D01*
X488565Y378814D01*
X488565Y376232D01*
X488544Y376150D01*
X488544Y376144D01*
X488543Y376138D01*
X488554Y376021D01*
X488563Y375905D01*
X488566Y375899D01*
X488566Y375893D01*
X488614Y375784D01*
X488659Y375678D01*
X488664Y375673D01*
X488666Y375668D01*
X488678Y375655D01*
X488764Y375547D01*
X491040Y373272D01*
X493049Y371263D01*
X493049Y334096D01*
X491263Y332310D01*
X488549Y332310D01*
X488529Y332307D01*
X488510Y332309D01*
X488408Y332287D01*
X488306Y332271D01*
X488289Y332261D01*
X488269Y332257D01*
X488180Y332204D01*
X488089Y332156D01*
X488075Y332141D01*
X488058Y332131D01*
X487991Y332052D01*
X487920Y331977D01*
X487911Y331959D01*
X487898Y331944D01*
X487859Y331848D01*
X487816Y331754D01*
X487814Y331734D01*
X487806Y331716D01*
X487788Y331549D01*
X487788Y322292D01*
X486597Y321102D01*
X479913Y321102D01*
X478675Y322340D01*
X478673Y322343D01*
X478669Y322362D01*
X478616Y322451D01*
X478567Y322542D01*
X478553Y322556D01*
X478543Y322573D01*
X478464Y322640D01*
X478389Y322712D01*
X478371Y322720D01*
X478356Y322733D01*
X478260Y322772D01*
X478166Y322815D01*
X478146Y322818D01*
X478128Y322825D01*
X477961Y322844D01*
X477421Y322844D01*
X476774Y323017D01*
X476195Y323351D01*
X475722Y323824D01*
X475387Y324404D01*
X475214Y325050D01*
X475214Y326260D01*
X477961Y326260D01*
X477981Y326263D01*
X478001Y326261D01*
X478102Y326283D01*
X478204Y326300D01*
X478221Y326309D01*
X478241Y326313D01*
X478330Y326366D01*
X478421Y326415D01*
X478435Y326429D01*
X478452Y326439D01*
X478519Y326518D01*
X478591Y326593D01*
X478599Y326611D01*
X478612Y326626D01*
X478651Y326723D01*
X478694Y326816D01*
X478696Y326836D01*
X478704Y326854D01*
X478722Y327021D01*
X478722Y327247D01*
X478719Y327267D01*
X478721Y327287D01*
X478699Y327388D01*
X478683Y327490D01*
X478673Y327508D01*
X478669Y327527D01*
X478616Y327616D01*
X478567Y327707D01*
X478553Y327721D01*
X478543Y327738D01*
X478464Y327806D01*
X478389Y327877D01*
X478371Y327885D01*
X478356Y327898D01*
X478260Y327937D01*
X478166Y327980D01*
X478146Y327983D01*
X478128Y327990D01*
X477961Y328009D01*
X475214Y328009D01*
X475214Y329219D01*
X475387Y329865D01*
X475722Y330444D01*
X476213Y330935D01*
X476227Y330943D01*
X476279Y330998D01*
X476338Y331045D01*
X476363Y331086D01*
X476396Y331121D01*
X476428Y331190D01*
X476468Y331254D01*
X476480Y331301D01*
X476500Y331344D01*
X476508Y331419D01*
X476526Y331493D01*
X476522Y331541D01*
X476527Y331589D01*
X476511Y331662D01*
X476504Y331738D01*
X476485Y331782D01*
X476475Y331829D01*
X476436Y331894D01*
X476406Y331963D01*
X476373Y331999D01*
X476349Y332040D01*
X476291Y332089D01*
X476240Y332145D01*
X476198Y332169D01*
X476162Y332200D01*
X476092Y332228D01*
X476026Y332265D01*
X475978Y332274D01*
X475934Y332292D01*
X475806Y332306D01*
X475784Y332310D01*
X475777Y332309D01*
X475767Y332310D01*
X472541Y332310D01*
X472471Y332299D01*
X472399Y332297D01*
X472350Y332279D01*
X472299Y332271D01*
X472235Y332237D01*
X472168Y332212D01*
X472127Y332180D01*
X472081Y332156D01*
X472032Y332104D01*
X471976Y332059D01*
X471948Y332015D01*
X471912Y331977D01*
X471882Y331912D01*
X471843Y331852D01*
X471830Y331801D01*
X471808Y331754D01*
X471800Y331683D01*
X471783Y331613D01*
X471787Y331561D01*
X471781Y331510D01*
X471796Y331440D01*
X471802Y331368D01*
X471822Y331320D01*
X471833Y331269D01*
X471870Y331208D01*
X471898Y331142D01*
X471943Y331086D01*
X471960Y331058D01*
X471977Y331043D01*
X472003Y331011D01*
X473288Y329726D01*
X473288Y324542D01*
X472777Y324031D01*
X472724Y323957D01*
X472664Y323888D01*
X472652Y323858D01*
X472633Y323832D01*
X472606Y323744D01*
X472572Y323660D01*
X472568Y323619D01*
X472561Y323596D01*
X472562Y323564D01*
X472554Y323493D01*
X472554Y320075D01*
X472569Y319985D01*
X472576Y319894D01*
X472588Y319864D01*
X472594Y319832D01*
X472636Y319752D01*
X472672Y319668D01*
X472698Y319636D01*
X472709Y319615D01*
X472732Y319593D01*
X472777Y319537D01*
X474209Y318105D01*
X474283Y318051D01*
X474352Y317992D01*
X474382Y317980D01*
X474409Y317961D01*
X474496Y317934D01*
X474580Y317900D01*
X474621Y317896D01*
X474644Y317889D01*
X474676Y317890D01*
X474747Y317882D01*
X475603Y317882D01*
X478030Y315455D01*
X478104Y315401D01*
X478173Y315342D01*
X478203Y315330D01*
X478230Y315311D01*
X478316Y315284D01*
X478401Y315250D01*
X478442Y315246D01*
X478465Y315239D01*
X478497Y315240D01*
X478568Y315232D01*
X484816Y315232D01*
X486007Y314041D01*
X486007Y303357D01*
X485515Y302865D01*
X485488Y302828D01*
X485454Y302797D01*
X485417Y302728D01*
X485371Y302665D01*
X485358Y302622D01*
X485336Y302581D01*
X485322Y302505D01*
X485299Y302430D01*
X485300Y302384D01*
X485292Y302339D01*
X485303Y302262D01*
X485305Y302184D01*
X485321Y302141D01*
X485328Y302096D01*
X485363Y302027D01*
X485390Y301953D01*
X485418Y301918D01*
X485439Y301877D01*
X485495Y301822D01*
X485543Y301761D01*
X485582Y301737D01*
X485615Y301704D01*
X485735Y301638D01*
X485750Y301628D01*
X485755Y301627D01*
X485762Y301623D01*
X488664Y300421D01*
X491216Y297869D01*
X492597Y294535D01*
X492597Y290925D01*
X491216Y287591D01*
X488664Y285038D01*
X485329Y283657D01*
X481720Y283657D01*
X478385Y285038D01*
X475833Y287591D01*
X474452Y290925D01*
X474452Y294535D01*
X475833Y297869D01*
X478385Y300421D01*
X479062Y300702D01*
X479145Y300753D01*
X479230Y300798D01*
X479248Y300817D01*
X479271Y300831D01*
X479333Y300906D01*
X479400Y300977D01*
X479411Y301001D01*
X479427Y301021D01*
X479462Y301112D01*
X479503Y301200D01*
X479506Y301226D01*
X479516Y301250D01*
X479520Y301348D01*
X479531Y301444D01*
X479525Y301470D01*
X479526Y301496D01*
X479499Y301589D01*
X479478Y301685D01*
X479465Y301707D01*
X479458Y301732D01*
X479402Y301812D01*
X479352Y301896D01*
X479332Y301913D01*
X479317Y301934D01*
X479239Y301992D01*
X479165Y302056D01*
X479141Y302066D01*
X479120Y302081D01*
X479027Y302111D01*
X478937Y302148D01*
X478905Y302151D01*
X478886Y302157D01*
X478853Y302157D01*
X478770Y302166D01*
X476132Y302166D01*
X474941Y303357D01*
X474941Y309605D01*
X474926Y309695D01*
X474919Y309786D01*
X474907Y309815D01*
X474901Y309847D01*
X474859Y309928D01*
X474823Y310012D01*
X474797Y310044D01*
X474786Y310065D01*
X474763Y310087D01*
X474718Y310143D01*
X473300Y311561D01*
X473226Y311614D01*
X473157Y311674D01*
X473126Y311686D01*
X473100Y311705D01*
X473013Y311732D01*
X472928Y311766D01*
X472887Y311770D01*
X472865Y311777D01*
X472833Y311776D01*
X472762Y311784D01*
X471906Y311784D01*
X466456Y317234D01*
X466456Y320340D01*
X466453Y320360D01*
X466455Y320380D01*
X466433Y320481D01*
X466417Y320583D01*
X466407Y320601D01*
X466403Y320620D01*
X466350Y320709D01*
X466301Y320800D01*
X466287Y320814D01*
X466277Y320831D01*
X466198Y320899D01*
X466123Y320970D01*
X466105Y320978D01*
X466090Y320991D01*
X465994Y321030D01*
X465900Y321073D01*
X465880Y321076D01*
X465862Y321083D01*
X465695Y321102D01*
X462413Y321102D01*
X461222Y322292D01*
X461222Y331549D01*
X461219Y331569D01*
X461221Y331589D01*
X461199Y331690D01*
X461183Y331792D01*
X461173Y331809D01*
X461169Y331829D01*
X461116Y331918D01*
X461067Y332009D01*
X461053Y332023D01*
X461043Y332040D01*
X460964Y332107D01*
X460889Y332179D01*
X460871Y332187D01*
X460856Y332200D01*
X460760Y332239D01*
X460666Y332282D01*
X460646Y332284D01*
X460628Y332292D01*
X460461Y332310D01*
X460060Y332310D01*
X460040Y332307D01*
X460021Y332309D01*
X459919Y332287D01*
X459817Y332271D01*
X459800Y332261D01*
X459780Y332257D01*
X459691Y332204D01*
X459600Y332156D01*
X459586Y332141D01*
X459569Y332131D01*
X459502Y332052D01*
X459430Y331977D01*
X459422Y331959D01*
X459409Y331944D01*
X459370Y331848D01*
X459327Y331754D01*
X459325Y331734D01*
X459317Y331716D01*
X459299Y331549D01*
X459299Y318737D01*
X458182Y317620D01*
X458140Y317562D01*
X458091Y317510D01*
X458069Y317463D01*
X458038Y317421D01*
X458017Y317352D01*
X457987Y317287D01*
X457981Y317235D01*
X457966Y317185D01*
X457968Y317114D01*
X457960Y317043D01*
X457971Y316992D01*
X457972Y316940D01*
X457997Y316872D01*
X458012Y316802D01*
X458039Y316757D01*
X458057Y316709D01*
X458102Y316653D01*
X458138Y316591D01*
X458178Y316557D01*
X458210Y316517D01*
X458271Y316478D01*
X458325Y316431D01*
X458374Y316412D01*
X458417Y316384D01*
X458487Y316366D01*
X458553Y316339D01*
X458625Y316331D01*
X458656Y316323D01*
X458679Y316325D01*
X458720Y316321D01*
X458993Y316321D01*
X461222Y315397D01*
X462928Y313691D01*
X463851Y311462D01*
X463851Y309050D01*
X462928Y306821D01*
X461222Y305115D01*
X458993Y304191D01*
X456580Y304191D01*
X454500Y305053D01*
X454455Y305064D01*
X454413Y305083D01*
X454336Y305092D01*
X454260Y305109D01*
X454214Y305105D01*
X454169Y305110D01*
X454093Y305094D01*
X454015Y305086D01*
X453973Y305068D01*
X453928Y305058D01*
X453862Y305018D01*
X453790Y304986D01*
X453757Y304955D01*
X453717Y304932D01*
X453667Y304873D01*
X453609Y304820D01*
X453587Y304780D01*
X453557Y304745D01*
X453528Y304673D01*
X453491Y304604D01*
X453483Y304559D01*
X453465Y304517D01*
X453450Y304380D01*
X453447Y304362D01*
X453448Y304357D01*
X453447Y304350D01*
X453447Y303649D01*
X452256Y302458D01*
X445572Y302458D01*
X444382Y303649D01*
X444382Y303947D01*
X444378Y303966D01*
X444380Y303986D01*
X444358Y304087D01*
X444342Y304189D01*
X444332Y304207D01*
X444328Y304226D01*
X444275Y304315D01*
X444227Y304407D01*
X444212Y304420D01*
X444202Y304438D01*
X444123Y304505D01*
X444048Y304576D01*
X444030Y304585D01*
X444015Y304597D01*
X443919Y304636D01*
X443825Y304680D01*
X443806Y304682D01*
X443787Y304689D01*
X443620Y304708D01*
X442572Y304708D01*
X441343Y305937D01*
X441342Y305946D01*
X441299Y306027D01*
X441263Y306111D01*
X441238Y306143D01*
X441227Y306164D01*
X441203Y306186D01*
X441159Y306242D01*
X440713Y306688D01*
X440635Y306743D01*
X440562Y306805D01*
X440536Y306815D01*
X440513Y306831D01*
X440422Y306859D01*
X440333Y306894D01*
X440305Y306895D01*
X440278Y306904D01*
X440182Y306901D01*
X440087Y306906D01*
X440060Y306898D01*
X440032Y306897D01*
X439942Y306865D01*
X439851Y306839D01*
X439827Y306823D01*
X439801Y306813D01*
X439726Y306753D01*
X439648Y306699D01*
X439631Y306677D01*
X439609Y306659D01*
X439557Y306579D01*
X439500Y306503D01*
X439487Y306470D01*
X439476Y306452D01*
X439468Y306420D01*
X439439Y306347D01*
X439282Y305760D01*
X438947Y305181D01*
X438474Y304708D01*
X437895Y304373D01*
X437249Y304200D01*
X436708Y304200D01*
X436689Y304197D01*
X436669Y304199D01*
X436568Y304177D01*
X436465Y304160D01*
X436448Y304151D01*
X436428Y304147D01*
X436339Y304093D01*
X436248Y304045D01*
X436234Y304031D01*
X436217Y304020D01*
X436150Y303942D01*
X436079Y303867D01*
X436070Y303849D01*
X436057Y303834D01*
X436019Y303737D01*
X436004Y303705D01*
X434756Y302458D01*
X428151Y302458D01*
X428106Y302450D01*
X428060Y302452D01*
X427985Y302431D01*
X427908Y302418D01*
X427868Y302397D01*
X427823Y302384D01*
X427759Y302339D01*
X427691Y302303D01*
X427659Y302270D01*
X427621Y302243D01*
X427575Y302181D01*
X427522Y302125D01*
X427502Y302083D01*
X427475Y302046D01*
X427451Y301972D01*
X427418Y301902D01*
X427413Y301856D01*
X427399Y301812D01*
X427399Y301734D01*
X427391Y301657D01*
X427401Y301612D01*
X427401Y301566D01*
X427414Y301523D01*
X427414Y299075D01*
X426733Y297432D01*
X426706Y297318D01*
X426678Y297205D01*
X426678Y297198D01*
X426677Y297192D01*
X426688Y297076D01*
X426697Y296959D01*
X426699Y296954D01*
X426700Y296947D01*
X426748Y296840D01*
X426793Y296733D01*
X426798Y296727D01*
X426800Y296723D01*
X426812Y296709D01*
X426898Y296602D01*
X428505Y294995D01*
X428579Y294942D01*
X428649Y294882D01*
X428679Y294870D01*
X428705Y294851D01*
X428792Y294825D01*
X428877Y294790D01*
X428918Y294786D01*
X428940Y294779D01*
X428972Y294780D01*
X429043Y294772D01*
X435291Y294772D01*
X436482Y293581D01*
X436482Y282897D01*
X435291Y281706D01*
X435060Y281706D01*
X435040Y281703D01*
X435021Y281705D01*
X434919Y281683D01*
X434817Y281667D01*
X434800Y281657D01*
X434780Y281653D01*
X434691Y281600D01*
X434600Y281552D01*
X434586Y281537D01*
X434569Y281527D01*
X434502Y281448D01*
X434430Y281373D01*
X434422Y281355D01*
X434409Y281340D01*
X434370Y281244D01*
X434327Y281150D01*
X434325Y281130D01*
X434317Y281112D01*
X434299Y280945D01*
X434299Y274030D01*
X434302Y274010D01*
X434300Y273990D01*
X434322Y273889D01*
X434338Y273787D01*
X434348Y273769D01*
X434352Y273750D01*
X434405Y273661D01*
X434454Y273569D01*
X434468Y273556D01*
X434478Y273539D01*
X434557Y273471D01*
X434632Y273400D01*
X434650Y273392D01*
X434665Y273379D01*
X434761Y273340D01*
X434855Y273296D01*
X434875Y273294D01*
X434893Y273287D01*
X435060Y273268D01*
X435860Y273268D01*
X437051Y272078D01*
X437051Y261394D01*
X435860Y260203D01*
X427176Y260203D01*
X425986Y261394D01*
X425986Y261443D01*
X425982Y261467D01*
X425984Y261490D01*
X425962Y261587D01*
X425946Y261686D01*
X425935Y261707D01*
X425929Y261730D01*
X425877Y261815D01*
X425831Y261903D01*
X425813Y261919D01*
X425801Y261940D01*
X425724Y262004D01*
X425652Y262072D01*
X425630Y262082D01*
X425612Y262098D01*
X425519Y262134D01*
X425429Y262176D01*
X425405Y262179D01*
X425383Y262187D01*
X425284Y262192D01*
X425185Y262203D01*
X425161Y262198D01*
X425137Y262199D01*
X425042Y262172D01*
X424944Y262151D01*
X424924Y262138D01*
X424901Y262132D01*
X424819Y262076D01*
X424733Y262025D01*
X424718Y262006D01*
X424698Y261993D01*
X424638Y261913D01*
X424573Y261838D01*
X424564Y261815D01*
X424550Y261796D01*
X424489Y261640D01*
X424386Y261255D01*
X424051Y260676D01*
X423578Y260202D01*
X422999Y259868D01*
X422353Y259695D01*
X420041Y259695D01*
X420041Y265973D01*
X420038Y265993D01*
X420040Y266013D01*
X420018Y266114D01*
X420002Y266216D01*
X419992Y266234D01*
X419988Y266253D01*
X419935Y266342D01*
X419887Y266434D01*
X419872Y266447D01*
X419862Y266464D01*
X419783Y266532D01*
X419708Y266603D01*
X419690Y266611D01*
X419675Y266624D01*
X419579Y266663D01*
X419485Y266707D01*
X419465Y266709D01*
X419447Y266716D01*
X419280Y266735D01*
X417756Y266735D01*
X417737Y266732D01*
X417717Y266734D01*
X417616Y266712D01*
X417514Y266695D01*
X417496Y266686D01*
X417476Y266681D01*
X417387Y266628D01*
X417296Y266580D01*
X417282Y266565D01*
X417265Y266555D01*
X417198Y266477D01*
X417127Y266402D01*
X417118Y266384D01*
X417105Y266368D01*
X417067Y266272D01*
X417023Y266178D01*
X417021Y266159D01*
X417014Y266140D01*
X416995Y265973D01*
X416995Y259695D01*
X414684Y259695D01*
X414038Y259868D01*
X413458Y260202D01*
X412985Y260676D01*
X412651Y261255D01*
X412563Y261583D01*
X412534Y261647D01*
X412515Y261714D01*
X412484Y261758D01*
X412461Y261808D01*
X412414Y261859D01*
X412374Y261916D01*
X412331Y261948D01*
X412294Y261988D01*
X412233Y262021D01*
X412177Y262063D01*
X412126Y262079D01*
X412078Y262105D01*
X412009Y262117D01*
X411943Y262139D01*
X411889Y262138D01*
X411836Y262148D01*
X411767Y262137D01*
X411697Y262136D01*
X411625Y262115D01*
X411592Y262110D01*
X411573Y262100D01*
X411536Y262090D01*
X409956Y261435D01*
X409379Y261435D01*
X409355Y261431D01*
X409330Y261434D01*
X409234Y261411D01*
X409136Y261396D01*
X409115Y261384D01*
X409091Y261378D01*
X409006Y261327D01*
X408919Y261280D01*
X408902Y261263D01*
X408881Y261250D01*
X408818Y261174D01*
X408750Y261102D01*
X408739Y261080D01*
X408724Y261061D01*
X408688Y260969D01*
X408646Y260879D01*
X408643Y260855D01*
X408634Y260832D01*
X408630Y260733D01*
X408619Y260635D01*
X408624Y260610D01*
X408623Y260586D01*
X408650Y260491D01*
X408671Y260394D01*
X408684Y260373D01*
X408691Y260349D01*
X408747Y260268D01*
X408797Y260183D01*
X408816Y260167D01*
X408830Y260147D01*
X408959Y260039D01*
X415848Y255479D01*
X415872Y255468D01*
X415893Y255451D01*
X416047Y255385D01*
X434292Y249853D01*
X434371Y249842D01*
X434449Y249823D01*
X434492Y249826D01*
X434536Y249820D01*
X434614Y249836D01*
X434694Y249842D01*
X434734Y249859D01*
X434777Y249867D01*
X434847Y249907D01*
X434920Y249938D01*
X434965Y249974D01*
X434991Y249989D01*
X435010Y250010D01*
X435051Y250043D01*
X435935Y250927D01*
X466753Y250927D01*
X466766Y250918D01*
X466839Y250859D01*
X466874Y250844D01*
X466892Y250832D01*
X466923Y250823D01*
X466993Y250793D01*
X477316Y247647D01*
X478730Y222210D01*
X478755Y222097D01*
X478778Y221983D01*
X478782Y221977D01*
X478784Y221970D01*
X478844Y221870D01*
X478901Y221770D01*
X478907Y221765D01*
X478911Y221759D01*
X478999Y221684D01*
X479086Y221607D01*
X479094Y221604D01*
X479098Y221600D01*
X479117Y221592D01*
X479237Y221534D01*
X489446Y217927D01*
X489497Y217918D01*
X489545Y217899D01*
X489661Y217889D01*
X489688Y217884D01*
X489697Y217885D01*
G37*
G36*
X421685Y335556D02*
X421685Y335556D01*
X421731Y335554D01*
X421806Y335576D01*
X421883Y335588D01*
X421923Y335610D01*
X421967Y335623D01*
X422031Y335667D01*
X422100Y335704D01*
X422132Y335737D01*
X422170Y335763D01*
X422216Y335825D01*
X422270Y335882D01*
X422289Y335924D01*
X422316Y335960D01*
X422340Y336034D01*
X422373Y336105D01*
X422378Y336151D01*
X422392Y336194D01*
X422392Y336272D01*
X422400Y336349D01*
X422391Y336394D01*
X422390Y336440D01*
X422352Y336572D01*
X422348Y336590D01*
X422345Y336594D01*
X422343Y336601D01*
X421435Y338794D01*
X421435Y341206D01*
X422359Y343435D01*
X423577Y344654D01*
X423604Y344691D01*
X423637Y344722D01*
X423675Y344790D01*
X423720Y344853D01*
X423734Y344897D01*
X423756Y344937D01*
X423770Y345014D01*
X423793Y345088D01*
X423791Y345134D01*
X423800Y345179D01*
X423788Y345256D01*
X423786Y345334D01*
X423771Y345377D01*
X423764Y345423D01*
X423729Y345492D01*
X423702Y345565D01*
X423673Y345601D01*
X423652Y345642D01*
X423597Y345697D01*
X423548Y345757D01*
X423510Y345782D01*
X423477Y345814D01*
X423357Y345880D01*
X423341Y345890D01*
X423336Y345892D01*
X423330Y345895D01*
X422815Y346109D01*
X421109Y347815D01*
X420185Y350044D01*
X420185Y352456D01*
X421115Y354701D01*
X421126Y354746D01*
X421145Y354788D01*
X421154Y354865D01*
X421171Y354941D01*
X421167Y354986D01*
X421172Y355032D01*
X421156Y355108D01*
X421148Y355186D01*
X421130Y355227D01*
X421120Y355272D01*
X421080Y355339D01*
X421048Y355410D01*
X421017Y355444D01*
X420994Y355483D01*
X420935Y355534D01*
X420882Y355591D01*
X420842Y355614D01*
X420807Y355643D01*
X420734Y355672D01*
X420666Y355710D01*
X420621Y355718D01*
X420579Y355735D01*
X420443Y355750D01*
X420424Y355754D01*
X420419Y355753D01*
X420412Y355754D01*
X413352Y355754D01*
X412732Y356374D01*
X412716Y356385D01*
X412703Y356401D01*
X412616Y356457D01*
X412532Y356517D01*
X412513Y356523D01*
X412496Y356534D01*
X412396Y356559D01*
X412297Y356589D01*
X412277Y356589D01*
X412258Y356594D01*
X412155Y356586D01*
X412051Y356583D01*
X412033Y356576D01*
X412013Y356575D01*
X411918Y356534D01*
X411820Y356499D01*
X411805Y356486D01*
X411786Y356478D01*
X411655Y356374D01*
X411036Y355754D01*
X403352Y355754D01*
X403091Y356014D01*
X403075Y356026D01*
X403063Y356042D01*
X402975Y356097D01*
X402891Y356158D01*
X402872Y356164D01*
X402856Y356175D01*
X402755Y356200D01*
X402656Y356230D01*
X402636Y356230D01*
X402617Y356235D01*
X402514Y356227D01*
X402410Y356224D01*
X402392Y356217D01*
X402372Y356215D01*
X402277Y356175D01*
X402179Y356139D01*
X402164Y356127D01*
X402146Y356119D01*
X402015Y356014D01*
X401754Y355753D01*
X401174Y355419D01*
X400528Y355246D01*
X398693Y355246D01*
X398693Y364548D01*
X398690Y364568D01*
X398692Y364588D01*
X398670Y364689D01*
X398653Y364791D01*
X398644Y364809D01*
X398640Y364828D01*
X398586Y364917D01*
X398538Y365008D01*
X398524Y365022D01*
X398513Y365039D01*
X398435Y365107D01*
X398360Y365178D01*
X398342Y365186D01*
X398327Y365199D01*
X398230Y365238D01*
X398137Y365281D01*
X398117Y365284D01*
X398099Y365291D01*
X398174Y365303D01*
X398192Y365313D01*
X398212Y365317D01*
X398301Y365370D01*
X398392Y365418D01*
X398406Y365433D01*
X398423Y365443D01*
X398490Y365522D01*
X398561Y365597D01*
X398570Y365615D01*
X398583Y365630D01*
X398621Y365726D01*
X398665Y365820D01*
X398667Y365839D01*
X398674Y365858D01*
X398693Y366025D01*
X398693Y375327D01*
X400528Y375327D01*
X401174Y375154D01*
X401754Y374820D01*
X402015Y374559D01*
X402031Y374547D01*
X402043Y374532D01*
X402130Y374476D01*
X402214Y374415D01*
X402233Y374409D01*
X402250Y374399D01*
X402350Y374373D01*
X402449Y374343D01*
X402469Y374343D01*
X402489Y374338D01*
X402592Y374347D01*
X402695Y374349D01*
X402714Y374356D01*
X402734Y374358D01*
X402829Y374398D01*
X402926Y374434D01*
X402942Y374446D01*
X402960Y374454D01*
X403091Y374559D01*
X403352Y374819D01*
X405192Y374819D01*
X405282Y374834D01*
X405373Y374841D01*
X405403Y374854D01*
X405435Y374859D01*
X405516Y374902D01*
X405600Y374937D01*
X405632Y374963D01*
X405652Y374974D01*
X405675Y374997D01*
X405731Y375042D01*
X419744Y389055D01*
X456928Y389055D01*
X457018Y389070D01*
X457109Y389077D01*
X457139Y389090D01*
X457171Y389095D01*
X457252Y389138D01*
X457336Y389173D01*
X457368Y389199D01*
X457388Y389210D01*
X457411Y389233D01*
X457467Y389278D01*
X458736Y390547D01*
X458804Y390642D01*
X458874Y390736D01*
X458876Y390742D01*
X458879Y390747D01*
X458914Y390859D01*
X458950Y390970D01*
X458950Y390976D01*
X458952Y390982D01*
X458949Y391100D01*
X458947Y391216D01*
X458945Y391223D01*
X458945Y391228D01*
X458939Y391245D01*
X458935Y391258D01*
X458935Y393316D01*
X458924Y393386D01*
X458922Y393458D01*
X458904Y393507D01*
X458896Y393558D01*
X458862Y393622D01*
X458837Y393689D01*
X458805Y393730D01*
X458780Y393776D01*
X458728Y393825D01*
X458684Y393881D01*
X458640Y393909D01*
X458602Y393945D01*
X458537Y393975D01*
X458477Y394014D01*
X458426Y394027D01*
X458379Y394049D01*
X458308Y394057D01*
X458238Y394074D01*
X458186Y394070D01*
X458135Y394076D01*
X458064Y394061D01*
X457993Y394055D01*
X457945Y394035D01*
X457894Y394024D01*
X457833Y393987D01*
X457767Y393959D01*
X457711Y393914D01*
X457683Y393897D01*
X457668Y393880D01*
X457636Y393854D01*
X457036Y393254D01*
X443352Y393254D01*
X442161Y394445D01*
X442161Y414129D01*
X443352Y415319D01*
X457006Y415319D01*
X457025Y415322D01*
X457045Y415320D01*
X457146Y415342D01*
X457248Y415359D01*
X457266Y415368D01*
X457285Y415373D01*
X457375Y415426D01*
X457466Y415474D01*
X457479Y415489D01*
X457497Y415499D01*
X457564Y415577D01*
X457635Y415652D01*
X457644Y415670D01*
X457657Y415686D01*
X457695Y415782D01*
X457739Y415876D01*
X457741Y415895D01*
X457748Y415914D01*
X457767Y416081D01*
X457767Y427360D01*
X457765Y427371D01*
X457767Y427381D01*
X457745Y427492D01*
X457727Y427603D01*
X457722Y427612D01*
X457720Y427623D01*
X457665Y427721D01*
X457612Y427820D01*
X457604Y427827D01*
X457599Y427837D01*
X457515Y427912D01*
X457434Y427990D01*
X457424Y427994D01*
X457416Y428001D01*
X457313Y428046D01*
X457211Y428093D01*
X457200Y428094D01*
X457190Y428099D01*
X457024Y428121D01*
X456614Y428131D01*
X456585Y428127D01*
X456556Y428130D01*
X456464Y428110D01*
X456370Y428097D01*
X456344Y428084D01*
X456316Y428078D01*
X456234Y428029D01*
X456150Y427987D01*
X456130Y427967D01*
X456105Y427952D01*
X456043Y427880D01*
X455977Y427813D01*
X455974Y427807D01*
X455973Y427807D01*
X455960Y427783D01*
X455945Y427765D01*
X455930Y427728D01*
X455892Y427660D01*
X454094Y423318D01*
X450879Y420103D01*
X446677Y418363D01*
X442130Y418363D01*
X437928Y420103D01*
X434713Y423318D01*
X432973Y427520D01*
X432973Y450863D01*
X434713Y455064D01*
X437948Y458300D01*
X437990Y458358D01*
X438039Y458410D01*
X438061Y458457D01*
X438092Y458499D01*
X438113Y458568D01*
X438143Y458633D01*
X438149Y458685D01*
X438164Y458734D01*
X438162Y458806D01*
X438170Y458877D01*
X438159Y458928D01*
X438158Y458980D01*
X438133Y459048D01*
X438118Y459118D01*
X438091Y459162D01*
X438073Y459211D01*
X438028Y459267D01*
X437992Y459329D01*
X437952Y459363D01*
X437920Y459403D01*
X437859Y459442D01*
X437805Y459489D01*
X437757Y459508D01*
X437713Y459536D01*
X437643Y459554D01*
X437577Y459581D01*
X437505Y459589D01*
X437474Y459596D01*
X437451Y459595D01*
X437410Y459599D01*
X425997Y459599D01*
X425926Y459588D01*
X425855Y459586D01*
X425806Y459568D01*
X425754Y459559D01*
X425691Y459526D01*
X425624Y459501D01*
X425583Y459469D01*
X425537Y459444D01*
X425488Y459392D01*
X425432Y459348D01*
X425403Y459304D01*
X425368Y459266D01*
X425337Y459201D01*
X425299Y459141D01*
X425286Y459090D01*
X425264Y459043D01*
X425256Y458972D01*
X425238Y458902D01*
X425243Y458850D01*
X425237Y458798D01*
X425252Y458728D01*
X425258Y458657D01*
X425278Y458609D01*
X425289Y458558D01*
X425326Y458497D01*
X425354Y458431D01*
X425399Y458375D01*
X425415Y458347D01*
X425433Y458332D01*
X425459Y458300D01*
X428694Y455064D01*
X430434Y450863D01*
X430434Y427520D01*
X428694Y423318D01*
X425479Y420103D01*
X421277Y418363D01*
X420003Y418363D01*
X419907Y418347D01*
X419810Y418338D01*
X419786Y418327D01*
X419761Y418323D01*
X419675Y418277D01*
X419586Y418238D01*
X419566Y418220D01*
X419543Y418208D01*
X419476Y418137D01*
X419404Y418071D01*
X419392Y418048D01*
X419374Y418030D01*
X419333Y417941D01*
X419286Y417856D01*
X419281Y417830D01*
X419270Y417806D01*
X419260Y417710D01*
X419242Y417614D01*
X419246Y417588D01*
X419243Y417562D01*
X419264Y417467D01*
X419278Y417371D01*
X419290Y417347D01*
X419295Y417322D01*
X419345Y417238D01*
X419389Y417151D01*
X419408Y417133D01*
X419422Y417111D01*
X419495Y417047D01*
X419565Y416979D01*
X419594Y416963D01*
X419608Y416951D01*
X419639Y416938D01*
X419712Y416898D01*
X420935Y416391D01*
X422641Y414685D01*
X423565Y412456D01*
X423565Y410044D01*
X422641Y407815D01*
X420935Y406109D01*
X420249Y405824D01*
X420232Y405814D01*
X420213Y405808D01*
X420128Y405749D01*
X420040Y405695D01*
X420027Y405679D01*
X420011Y405668D01*
X419949Y405585D01*
X419883Y405505D01*
X419876Y405487D01*
X419864Y405471D01*
X419832Y405372D01*
X419795Y405276D01*
X419794Y405256D01*
X419788Y405237D01*
X419789Y405133D01*
X419785Y405030D01*
X419790Y405011D01*
X419790Y404991D01*
X419837Y404830D01*
X420813Y402474D01*
X420813Y400061D01*
X419890Y397832D01*
X418184Y396126D01*
X415955Y395203D01*
X413542Y395203D01*
X411313Y396126D01*
X409607Y397832D01*
X408683Y400061D01*
X408683Y402474D01*
X409607Y404703D01*
X411313Y406409D01*
X411999Y406693D01*
X412016Y406704D01*
X412035Y406709D01*
X412120Y406768D01*
X412208Y406823D01*
X412221Y406838D01*
X412237Y406849D01*
X412299Y406933D01*
X412365Y407012D01*
X412372Y407031D01*
X412384Y407047D01*
X412416Y407146D01*
X412453Y407242D01*
X412454Y407262D01*
X412460Y407281D01*
X412459Y407384D01*
X412464Y407488D01*
X412458Y407507D01*
X412458Y407527D01*
X412411Y407688D01*
X411435Y410044D01*
X411435Y412518D01*
X411456Y412600D01*
X411456Y412606D01*
X411457Y412612D01*
X411446Y412729D01*
X411437Y412845D01*
X411434Y412851D01*
X411434Y412857D01*
X411386Y412965D01*
X411341Y413072D01*
X411336Y413077D01*
X411334Y413082D01*
X411321Y413096D01*
X411236Y413203D01*
X402745Y421693D01*
X402729Y421705D01*
X402717Y421720D01*
X402645Y421767D01*
X402619Y421788D01*
X402605Y421794D01*
X402546Y421837D01*
X402527Y421843D01*
X402510Y421853D01*
X402409Y421879D01*
X402310Y421909D01*
X402291Y421909D01*
X402271Y421913D01*
X402168Y421905D01*
X402065Y421903D01*
X402046Y421896D01*
X402026Y421894D01*
X401931Y421854D01*
X401834Y421818D01*
X401818Y421806D01*
X401800Y421798D01*
X401737Y421748D01*
X401729Y421744D01*
X401721Y421735D01*
X401669Y421693D01*
X400079Y420103D01*
X395877Y418363D01*
X391330Y418363D01*
X387128Y420103D01*
X383913Y423318D01*
X382173Y427520D01*
X382173Y450863D01*
X383913Y455064D01*
X387148Y458300D01*
X387190Y458358D01*
X387239Y458410D01*
X387261Y458457D01*
X387292Y458499D01*
X387313Y458568D01*
X387343Y458633D01*
X387349Y458685D01*
X387364Y458734D01*
X387362Y458806D01*
X387370Y458877D01*
X387359Y458928D01*
X387358Y458980D01*
X387333Y459048D01*
X387318Y459118D01*
X387291Y459162D01*
X387273Y459211D01*
X387228Y459267D01*
X387192Y459329D01*
X387152Y459363D01*
X387120Y459403D01*
X387059Y459442D01*
X387005Y459489D01*
X386957Y459508D01*
X386913Y459536D01*
X386843Y459554D01*
X386777Y459581D01*
X386705Y459589D01*
X386674Y459596D01*
X386651Y459595D01*
X386610Y459599D01*
X375704Y459599D01*
X375696Y459598D01*
X375688Y459599D01*
X375575Y459578D01*
X375461Y459559D01*
X375454Y459556D01*
X375446Y459554D01*
X375346Y459498D01*
X375244Y459444D01*
X375238Y459439D01*
X375231Y459435D01*
X375154Y459349D01*
X375075Y459266D01*
X375071Y459259D01*
X375066Y459253D01*
X375019Y459147D01*
X374971Y459043D01*
X374970Y459035D01*
X374967Y459028D01*
X374957Y458913D01*
X374944Y458798D01*
X374946Y458791D01*
X374945Y458783D01*
X374972Y458670D01*
X374996Y458558D01*
X375000Y458551D01*
X375002Y458543D01*
X375064Y458445D01*
X375122Y458347D01*
X375128Y458342D01*
X375133Y458335D01*
X375257Y458222D01*
X375981Y457696D01*
X377310Y456367D01*
X378414Y454847D01*
X379268Y453172D01*
X379848Y451385D01*
X380142Y449529D01*
X380142Y440715D01*
X368966Y440715D01*
X368946Y440711D01*
X368926Y440714D01*
X368825Y440692D01*
X368723Y440675D01*
X368705Y440666D01*
X368686Y440661D01*
X368597Y440608D01*
X368506Y440560D01*
X368492Y440545D01*
X368475Y440535D01*
X368407Y440456D01*
X368336Y440381D01*
X368328Y440363D01*
X368315Y440348D01*
X368276Y440252D01*
X368233Y440158D01*
X368230Y440139D01*
X368223Y440120D01*
X368204Y439953D01*
X368204Y439191D01*
X368203Y439191D01*
X368203Y439953D01*
X368199Y439973D01*
X368202Y439993D01*
X368180Y440094D01*
X368163Y440196D01*
X368154Y440214D01*
X368149Y440233D01*
X368096Y440322D01*
X368048Y440414D01*
X368033Y440427D01*
X368023Y440444D01*
X367944Y440512D01*
X367869Y440583D01*
X367851Y440591D01*
X367836Y440604D01*
X367740Y440643D01*
X367646Y440687D01*
X367627Y440689D01*
X367608Y440696D01*
X367441Y440715D01*
X356265Y440715D01*
X356265Y449529D01*
X356559Y451385D01*
X357139Y453172D01*
X357993Y454847D01*
X359097Y456367D01*
X360426Y457696D01*
X361150Y458222D01*
X361156Y458228D01*
X361163Y458232D01*
X361242Y458315D01*
X361323Y458397D01*
X361327Y458404D01*
X361332Y458410D01*
X361381Y458514D01*
X361432Y458618D01*
X361433Y458626D01*
X361436Y458633D01*
X361449Y458747D01*
X361464Y458862D01*
X361462Y458869D01*
X361463Y458877D01*
X361439Y458990D01*
X361417Y459103D01*
X361413Y459110D01*
X361411Y459118D01*
X361352Y459217D01*
X361295Y459317D01*
X361289Y459322D01*
X361285Y459329D01*
X361197Y459404D01*
X361111Y459480D01*
X361104Y459484D01*
X361098Y459489D01*
X360991Y459532D01*
X360885Y459577D01*
X360877Y459578D01*
X360870Y459581D01*
X360703Y459599D01*
X330396Y459599D01*
X330306Y459584D01*
X330215Y459577D01*
X330185Y459565D01*
X330153Y459559D01*
X330072Y459517D01*
X329988Y459481D01*
X329956Y459455D01*
X329936Y459444D01*
X329913Y459421D01*
X329857Y459376D01*
X329522Y459041D01*
X329469Y458967D01*
X329409Y458897D01*
X329397Y458867D01*
X329378Y458841D01*
X329351Y458754D01*
X329317Y458669D01*
X329313Y458628D01*
X329306Y458606D01*
X329307Y458574D01*
X329299Y458502D01*
X329299Y453354D01*
X329302Y453335D01*
X329300Y453315D01*
X329322Y453214D01*
X329338Y453112D01*
X329348Y453094D01*
X329352Y453075D01*
X329405Y452986D01*
X329454Y452894D01*
X329468Y452881D01*
X329478Y452863D01*
X329557Y452796D01*
X329632Y452725D01*
X329650Y452717D01*
X329665Y452704D01*
X329761Y452665D01*
X329855Y452621D01*
X329875Y452619D01*
X329893Y452612D01*
X330060Y452593D01*
X344976Y452593D01*
X347046Y450523D01*
X347046Y447974D01*
X345260Y446188D01*
X342734Y446188D01*
X342650Y446273D01*
X342576Y446326D01*
X342506Y446385D01*
X342476Y446397D01*
X342450Y446416D01*
X342363Y446443D01*
X342278Y446477D01*
X342237Y446482D01*
X342215Y446489D01*
X342183Y446488D01*
X342111Y446496D01*
X330060Y446496D01*
X330040Y446492D01*
X330021Y446495D01*
X329919Y446473D01*
X329817Y446456D01*
X329800Y446447D01*
X329780Y446442D01*
X329691Y446389D01*
X329600Y446341D01*
X329586Y446326D01*
X329569Y446316D01*
X329502Y446238D01*
X329430Y446163D01*
X329422Y446144D01*
X329409Y446129D01*
X329370Y446033D01*
X329327Y445939D01*
X329325Y445920D01*
X329317Y445901D01*
X329299Y445734D01*
X329299Y435906D01*
X329313Y435816D01*
X329321Y435725D01*
X329333Y435695D01*
X329338Y435663D01*
X329381Y435583D01*
X329417Y435499D01*
X329443Y435466D01*
X329454Y435446D01*
X329477Y435424D01*
X329522Y435368D01*
X330005Y434885D01*
X330021Y434873D01*
X330033Y434858D01*
X330120Y434802D01*
X330204Y434741D01*
X330223Y434735D01*
X330240Y434725D01*
X330341Y434699D01*
X330439Y434669D01*
X330459Y434669D01*
X330479Y434665D01*
X330582Y434673D01*
X330685Y434675D01*
X330704Y434682D01*
X330724Y434684D01*
X330819Y434724D01*
X330916Y434760D01*
X330932Y434772D01*
X330950Y434780D01*
X331081Y434885D01*
X331701Y435504D01*
X339385Y435504D01*
X340005Y434885D01*
X340021Y434873D01*
X340033Y434858D01*
X340120Y434802D01*
X340204Y434741D01*
X340223Y434735D01*
X340240Y434725D01*
X340341Y434699D01*
X340439Y434669D01*
X340459Y434669D01*
X340479Y434665D01*
X340582Y434673D01*
X340685Y434675D01*
X340704Y434682D01*
X340724Y434684D01*
X340819Y434724D01*
X340916Y434760D01*
X340932Y434772D01*
X340950Y434780D01*
X341081Y434885D01*
X341701Y435504D01*
X349385Y435504D01*
X350576Y434314D01*
X350576Y425301D01*
X350590Y425211D01*
X350598Y425120D01*
X350610Y425090D01*
X350615Y425058D01*
X350658Y424978D01*
X350694Y424894D01*
X350720Y424862D01*
X350730Y424841D01*
X350754Y424819D01*
X350799Y424763D01*
X353413Y422148D01*
X353507Y422081D01*
X353602Y422010D01*
X353608Y422008D01*
X353613Y422005D01*
X353724Y421970D01*
X353836Y421934D01*
X353842Y421934D01*
X353848Y421932D01*
X353965Y421935D01*
X354082Y421936D01*
X354089Y421938D01*
X354094Y421939D01*
X354112Y421945D01*
X354243Y421983D01*
X355044Y422315D01*
X357386Y422315D01*
X357398Y422317D01*
X357410Y422315D01*
X357519Y422336D01*
X357629Y422354D01*
X357639Y422360D01*
X357651Y422362D01*
X357748Y422418D01*
X357846Y422470D01*
X357854Y422478D01*
X357865Y422484D01*
X357939Y422568D01*
X358015Y422648D01*
X358021Y422659D01*
X358029Y422668D01*
X358072Y422770D01*
X358119Y422871D01*
X358120Y422883D01*
X358125Y422894D01*
X358134Y423005D01*
X358146Y423115D01*
X358144Y423127D01*
X358145Y423139D01*
X358118Y423247D01*
X358094Y423356D01*
X358088Y423366D01*
X358085Y423378D01*
X358002Y423524D01*
X357993Y423536D01*
X357139Y425211D01*
X356559Y426998D01*
X356265Y428854D01*
X356265Y437668D01*
X366680Y437668D01*
X366680Y417947D01*
X365408Y418149D01*
X363621Y418729D01*
X363136Y418977D01*
X363039Y419007D01*
X362945Y419044D01*
X362922Y419045D01*
X362901Y419051D01*
X362800Y419050D01*
X362699Y419054D01*
X362677Y419048D01*
X362655Y419047D01*
X362560Y419014D01*
X362463Y418985D01*
X362444Y418973D01*
X362423Y418965D01*
X362343Y418903D01*
X362261Y418845D01*
X362247Y418827D01*
X362230Y418814D01*
X362174Y418729D01*
X362114Y418648D01*
X362107Y418627D01*
X362095Y418608D01*
X362069Y418510D01*
X362038Y418414D01*
X362038Y418392D01*
X362032Y418370D01*
X362039Y418270D01*
X362040Y418168D01*
X362048Y418142D01*
X362049Y418125D01*
X362061Y418095D01*
X362087Y418007D01*
X362315Y417456D01*
X362315Y415044D01*
X361391Y412815D01*
X359685Y411109D01*
X357456Y410185D01*
X355044Y410185D01*
X352815Y411109D01*
X351109Y412815D01*
X350185Y415044D01*
X350185Y415678D01*
X350182Y415697D01*
X350184Y415717D01*
X350162Y415818D01*
X350146Y415921D01*
X350136Y415938D01*
X350132Y415958D01*
X350079Y416047D01*
X350030Y416138D01*
X350016Y416152D01*
X350006Y416169D01*
X349927Y416236D01*
X349852Y416307D01*
X349834Y416316D01*
X349819Y416329D01*
X349723Y416367D01*
X349629Y416411D01*
X349609Y416413D01*
X349591Y416421D01*
X349424Y416439D01*
X348810Y416439D01*
X348790Y416436D01*
X348771Y416438D01*
X348669Y416416D01*
X348567Y416399D01*
X348550Y416390D01*
X348530Y416386D01*
X348441Y416333D01*
X348350Y416284D01*
X348336Y416270D01*
X348319Y416260D01*
X348252Y416181D01*
X348180Y416106D01*
X348172Y416088D01*
X348159Y416073D01*
X348120Y415976D01*
X348077Y415883D01*
X348075Y415863D01*
X348067Y415844D01*
X348049Y415678D01*
X348049Y377828D01*
X348063Y377738D01*
X348071Y377647D01*
X348083Y377617D01*
X348088Y377585D01*
X348131Y377505D01*
X348167Y377421D01*
X348193Y377389D01*
X348204Y377368D01*
X348227Y377346D01*
X348272Y377290D01*
X349211Y376351D01*
X349269Y376309D01*
X349321Y376260D01*
X349368Y376238D01*
X349410Y376207D01*
X349479Y376186D01*
X349544Y376156D01*
X349596Y376150D01*
X349645Y376135D01*
X349717Y376137D01*
X349788Y376129D01*
X349839Y376140D01*
X349891Y376141D01*
X349959Y376166D01*
X350029Y376181D01*
X350073Y376208D01*
X350122Y376226D01*
X350178Y376271D01*
X350240Y376307D01*
X350274Y376347D01*
X350314Y376380D01*
X350353Y376440D01*
X350400Y376494D01*
X350419Y376543D01*
X350447Y376586D01*
X350465Y376656D01*
X350492Y376722D01*
X350500Y376794D01*
X350507Y376825D01*
X350506Y376848D01*
X350510Y376889D01*
X350510Y396814D01*
X351397Y397700D01*
X351408Y397716D01*
X351424Y397729D01*
X351480Y397816D01*
X351540Y397900D01*
X351546Y397919D01*
X351557Y397936D01*
X351582Y398036D01*
X351612Y398135D01*
X351612Y398155D01*
X351617Y398174D01*
X351609Y398277D01*
X351606Y398381D01*
X351599Y398400D01*
X351598Y398419D01*
X351557Y398514D01*
X351522Y398612D01*
X351509Y398627D01*
X351501Y398646D01*
X351397Y398777D01*
X351109Y399065D01*
X350185Y401294D01*
X350185Y403706D01*
X351109Y405935D01*
X352815Y407641D01*
X355044Y408565D01*
X357456Y408565D01*
X359685Y407641D01*
X361391Y405935D01*
X362315Y403706D01*
X362315Y401294D01*
X361388Y399057D01*
X361378Y399012D01*
X361358Y398971D01*
X361350Y398893D01*
X361332Y398818D01*
X361336Y398772D01*
X361331Y398726D01*
X361348Y398650D01*
X361355Y398573D01*
X361374Y398531D01*
X361384Y398486D01*
X361424Y398419D01*
X361455Y398348D01*
X361486Y398314D01*
X361510Y398275D01*
X361569Y398224D01*
X361622Y398167D01*
X361662Y398145D01*
X361697Y398115D01*
X361769Y398086D01*
X361837Y398048D01*
X361882Y398040D01*
X361925Y398023D01*
X362061Y398008D01*
X362079Y398005D01*
X362084Y398005D01*
X362092Y398004D01*
X365400Y398004D01*
X365419Y398008D01*
X365439Y398006D01*
X365540Y398028D01*
X365642Y398044D01*
X365660Y398054D01*
X365680Y398058D01*
X365769Y398111D01*
X365860Y398159D01*
X365874Y398174D01*
X365891Y398184D01*
X365958Y398263D01*
X366029Y398338D01*
X366038Y398356D01*
X366051Y398371D01*
X366089Y398467D01*
X366133Y398561D01*
X366135Y398580D01*
X366142Y398599D01*
X366161Y398766D01*
X366161Y414129D01*
X367352Y415319D01*
X381160Y415319D01*
X381251Y415334D01*
X381341Y415341D01*
X381371Y415354D01*
X381403Y415359D01*
X381484Y415402D01*
X381568Y415437D01*
X381600Y415463D01*
X381621Y415474D01*
X381643Y415497D01*
X381699Y415542D01*
X382900Y416743D01*
X385129Y417667D01*
X387541Y417667D01*
X389771Y416743D01*
X391477Y415037D01*
X392400Y412808D01*
X392400Y410395D01*
X391477Y408166D01*
X389771Y406460D01*
X387541Y405537D01*
X385129Y405537D01*
X383279Y406303D01*
X383234Y406314D01*
X383193Y406333D01*
X383115Y406342D01*
X383040Y406359D01*
X382994Y406355D01*
X382948Y406360D01*
X382872Y406344D01*
X382795Y406336D01*
X382753Y406318D01*
X382708Y406308D01*
X382641Y406268D01*
X382570Y406236D01*
X382536Y406205D01*
X382497Y406182D01*
X382446Y406123D01*
X382389Y406070D01*
X382367Y406030D01*
X382337Y405995D01*
X382308Y405923D01*
X382270Y405854D01*
X382262Y405809D01*
X382245Y405767D01*
X382230Y405631D01*
X382227Y405612D01*
X382227Y405607D01*
X382226Y405600D01*
X382226Y394445D01*
X381036Y393254D01*
X367337Y393254D01*
X367317Y393251D01*
X367297Y393253D01*
X367196Y393231D01*
X367094Y393214D01*
X367077Y393205D01*
X367057Y393201D01*
X366968Y393147D01*
X366877Y393099D01*
X366863Y393085D01*
X366846Y393074D01*
X366779Y392996D01*
X366707Y392921D01*
X366699Y392903D01*
X366686Y392887D01*
X366647Y392791D01*
X366604Y392698D01*
X366602Y392678D01*
X366594Y392659D01*
X366576Y392493D01*
X366576Y377130D01*
X365385Y375939D01*
X351460Y375939D01*
X351390Y375927D01*
X351318Y375926D01*
X351269Y375908D01*
X351218Y375899D01*
X351154Y375866D01*
X351087Y375841D01*
X351046Y375809D01*
X351000Y375784D01*
X350951Y375732D01*
X350895Y375687D01*
X350867Y375644D01*
X350831Y375606D01*
X350801Y375541D01*
X350762Y375481D01*
X350749Y375430D01*
X350727Y375383D01*
X350719Y375312D01*
X350702Y375242D01*
X350706Y375190D01*
X350700Y375138D01*
X350715Y375068D01*
X350721Y374997D01*
X350741Y374949D01*
X350752Y374898D01*
X350789Y374836D01*
X350817Y374770D01*
X350862Y374715D01*
X350879Y374687D01*
X350896Y374672D01*
X350922Y374639D01*
X361040Y364522D01*
X361114Y364469D01*
X361183Y364409D01*
X361213Y364397D01*
X361240Y364378D01*
X361327Y364351D01*
X361411Y364317D01*
X361452Y364313D01*
X361475Y364306D01*
X361507Y364307D01*
X361578Y364299D01*
X381400Y364299D01*
X381419Y364302D01*
X381439Y364300D01*
X381540Y364322D01*
X381642Y364338D01*
X381660Y364348D01*
X381680Y364352D01*
X381769Y364405D01*
X381860Y364454D01*
X381874Y364468D01*
X381891Y364478D01*
X381958Y364557D01*
X382029Y364632D01*
X382038Y364650D01*
X382051Y364665D01*
X382089Y364761D01*
X382133Y364855D01*
X382135Y364875D01*
X382142Y364893D01*
X382161Y365060D01*
X382161Y373629D01*
X383352Y374819D01*
X391036Y374819D01*
X391296Y374559D01*
X391312Y374547D01*
X391325Y374532D01*
X391412Y374476D01*
X391496Y374415D01*
X391515Y374409D01*
X391532Y374399D01*
X391632Y374373D01*
X391731Y374343D01*
X391751Y374343D01*
X391770Y374338D01*
X391873Y374347D01*
X391977Y374349D01*
X391996Y374356D01*
X392016Y374358D01*
X392111Y374398D01*
X392208Y374434D01*
X392223Y374446D01*
X392242Y374454D01*
X392373Y374559D01*
X392634Y374820D01*
X393213Y375154D01*
X393859Y375327D01*
X395694Y375327D01*
X395694Y366025D01*
X395698Y366005D01*
X395695Y365985D01*
X395717Y365884D01*
X395734Y365782D01*
X395743Y365764D01*
X395748Y365745D01*
X395801Y365656D01*
X395849Y365565D01*
X395864Y365551D01*
X395874Y365534D01*
X395953Y365466D01*
X396028Y365395D01*
X396046Y365387D01*
X396061Y365374D01*
X396157Y365335D01*
X396251Y365292D01*
X396270Y365289D01*
X396288Y365282D01*
X396213Y365270D01*
X396195Y365261D01*
X396176Y365256D01*
X396087Y365203D01*
X395996Y365155D01*
X395982Y365140D01*
X395965Y365130D01*
X395897Y365051D01*
X395826Y364976D01*
X395818Y364958D01*
X395805Y364943D01*
X395766Y364847D01*
X395723Y364753D01*
X395720Y364734D01*
X395713Y364715D01*
X395694Y364548D01*
X395694Y355212D01*
X395661Y355206D01*
X395598Y355173D01*
X395530Y355148D01*
X395489Y355115D01*
X395443Y355091D01*
X395394Y355039D01*
X395338Y354994D01*
X395310Y354950D01*
X395274Y354913D01*
X395244Y354848D01*
X395205Y354787D01*
X395192Y354737D01*
X395170Y354690D01*
X395163Y354618D01*
X395145Y354549D01*
X395149Y354497D01*
X395143Y354445D01*
X395159Y354375D01*
X395164Y354304D01*
X395185Y354256D01*
X395196Y354205D01*
X395232Y354143D01*
X395260Y354077D01*
X395305Y354021D01*
X395322Y353994D01*
X395340Y353978D01*
X395365Y353946D01*
X396040Y353272D01*
X396114Y353218D01*
X396183Y353159D01*
X396213Y353147D01*
X396240Y353128D01*
X396327Y353101D01*
X396411Y353067D01*
X396452Y353063D01*
X396475Y353056D01*
X396507Y353057D01*
X396578Y353049D01*
X401263Y353049D01*
X418540Y335772D01*
X418614Y335719D01*
X418683Y335659D01*
X418713Y335647D01*
X418740Y335628D01*
X418827Y335601D01*
X418911Y335567D01*
X418952Y335563D01*
X418975Y335556D01*
X419007Y335557D01*
X419078Y335549D01*
X421640Y335549D01*
X421685Y335556D01*
G37*
G36*
X396592Y279952D02*
X396592Y279952D01*
X396670Y279949D01*
X396714Y279961D01*
X396760Y279965D01*
X396831Y279995D01*
X396906Y280017D01*
X396944Y280043D01*
X396986Y280061D01*
X397093Y280147D01*
X397108Y280157D01*
X397111Y280161D01*
X397117Y280166D01*
X400691Y283740D01*
X411147Y283740D01*
X411167Y283743D01*
X411187Y283741D01*
X411288Y283763D01*
X411390Y283780D01*
X411408Y283789D01*
X411427Y283793D01*
X411516Y283847D01*
X411607Y283895D01*
X411621Y283909D01*
X411638Y283919D01*
X411706Y283998D01*
X411777Y284073D01*
X411785Y284091D01*
X411798Y284106D01*
X411837Y284202D01*
X411880Y284296D01*
X411883Y284316D01*
X411890Y284335D01*
X411909Y284501D01*
X411909Y286716D01*
X417187Y286716D01*
X417207Y286719D01*
X417227Y286717D01*
X417328Y286739D01*
X417430Y286756D01*
X417447Y286765D01*
X417467Y286769D01*
X417556Y286823D01*
X417647Y286871D01*
X417661Y286885D01*
X417678Y286895D01*
X417745Y286974D01*
X417817Y287049D01*
X417825Y287067D01*
X417838Y287082D01*
X417877Y287179D01*
X417920Y287272D01*
X417922Y287292D01*
X417930Y287311D01*
X417948Y287477D01*
X417948Y289001D01*
X417945Y289021D01*
X417947Y289041D01*
X417925Y289142D01*
X417909Y289244D01*
X417899Y289261D01*
X417895Y289281D01*
X417842Y289370D01*
X417794Y289461D01*
X417779Y289475D01*
X417769Y289492D01*
X417690Y289559D01*
X417615Y289631D01*
X417597Y289639D01*
X417582Y289652D01*
X417486Y289691D01*
X417392Y289734D01*
X417372Y289736D01*
X417354Y289744D01*
X417187Y289762D01*
X412189Y289762D01*
X412075Y289744D01*
X411958Y289727D01*
X411952Y289724D01*
X411946Y289723D01*
X411844Y289668D01*
X411739Y289615D01*
X411734Y289610D01*
X411729Y289608D01*
X411649Y289523D01*
X411567Y289439D01*
X411563Y289433D01*
X411560Y289429D01*
X411552Y289412D01*
X411486Y289292D01*
X411391Y289065D01*
X409685Y287359D01*
X407456Y286435D01*
X405044Y286435D01*
X402815Y287359D01*
X401109Y289065D01*
X400185Y291294D01*
X400185Y293706D01*
X401109Y295935D01*
X402858Y297685D01*
X402931Y297728D01*
X402935Y297733D01*
X402940Y297736D01*
X403015Y297827D01*
X403091Y297915D01*
X403093Y297921D01*
X403097Y297926D01*
X403139Y298034D01*
X403183Y298144D01*
X403184Y298151D01*
X403185Y298155D01*
X403186Y298174D01*
X403201Y298310D01*
X403201Y302359D01*
X421391Y320549D01*
X439672Y320549D01*
X439762Y320563D01*
X439853Y320571D01*
X439883Y320583D01*
X439915Y320588D01*
X439995Y320631D01*
X440079Y320667D01*
X440111Y320693D01*
X440132Y320704D01*
X440154Y320727D01*
X440210Y320772D01*
X440753Y321315D01*
X440765Y321331D01*
X440780Y321344D01*
X440837Y321431D01*
X440897Y321515D01*
X440903Y321534D01*
X440913Y321550D01*
X440939Y321651D01*
X440969Y321750D01*
X440969Y321770D01*
X440974Y321789D01*
X440966Y321892D01*
X440963Y321996D01*
X440956Y322014D01*
X440954Y322034D01*
X440914Y322129D01*
X440878Y322227D01*
X440866Y322242D01*
X440858Y322261D01*
X440753Y322391D01*
X439785Y323359D01*
X439785Y334043D01*
X439913Y334171D01*
X439925Y334187D01*
X439940Y334200D01*
X439996Y334287D01*
X440056Y334371D01*
X440062Y334390D01*
X440073Y334407D01*
X440098Y334507D01*
X440129Y334606D01*
X440128Y334626D01*
X440133Y334645D01*
X440125Y334748D01*
X440122Y334852D01*
X440116Y334871D01*
X440114Y334890D01*
X440074Y334985D01*
X440038Y335083D01*
X440026Y335098D01*
X440018Y335117D01*
X439913Y335248D01*
X439690Y335470D01*
X438767Y337699D01*
X438767Y340112D01*
X439690Y342341D01*
X441396Y344047D01*
X443625Y344970D01*
X446038Y344970D01*
X448267Y344047D01*
X449973Y342341D01*
X450896Y340112D01*
X450896Y337699D01*
X450007Y335552D01*
X449980Y335438D01*
X449952Y335325D01*
X449952Y335318D01*
X449951Y335312D01*
X449962Y335196D01*
X449971Y335080D01*
X449973Y335074D01*
X449974Y335067D01*
X450022Y334960D01*
X450067Y334853D01*
X450072Y334847D01*
X450074Y334843D01*
X450087Y334829D01*
X450172Y334722D01*
X450851Y334043D01*
X450851Y323810D01*
X450854Y323790D01*
X450852Y323771D01*
X450874Y323669D01*
X450891Y323567D01*
X450900Y323550D01*
X450904Y323530D01*
X450957Y323441D01*
X451006Y323350D01*
X451020Y323336D01*
X451030Y323319D01*
X451109Y323252D01*
X451184Y323180D01*
X451202Y323172D01*
X451217Y323159D01*
X451313Y323120D01*
X451407Y323077D01*
X451427Y323075D01*
X451445Y323067D01*
X451612Y323049D01*
X452440Y323049D01*
X452460Y323052D01*
X452479Y323050D01*
X452581Y323072D01*
X452683Y323088D01*
X452700Y323098D01*
X452720Y323102D01*
X452809Y323155D01*
X452900Y323204D01*
X452914Y323218D01*
X452931Y323228D01*
X452998Y323307D01*
X453070Y323382D01*
X453078Y323400D01*
X453091Y323415D01*
X453130Y323511D01*
X453173Y323605D01*
X453175Y323625D01*
X453183Y323643D01*
X453201Y323810D01*
X453201Y335013D01*
X456596Y338408D01*
X475323Y338408D01*
X475393Y338419D01*
X475465Y338421D01*
X475514Y338439D01*
X475565Y338448D01*
X475629Y338481D01*
X475696Y338506D01*
X475737Y338538D01*
X475783Y338563D01*
X475832Y338615D01*
X475888Y338659D01*
X475916Y338703D01*
X475952Y338741D01*
X475982Y338806D01*
X476021Y338866D01*
X476034Y338917D01*
X476056Y338964D01*
X476064Y339035D01*
X476081Y339105D01*
X476077Y339157D01*
X476083Y339209D01*
X476068Y339279D01*
X476062Y339350D01*
X476042Y339398D01*
X476031Y339449D01*
X475994Y339511D01*
X475966Y339576D01*
X475921Y339632D01*
X475904Y339660D01*
X475887Y339675D01*
X475861Y339707D01*
X475632Y339936D01*
X474709Y342165D01*
X474709Y344578D01*
X475387Y346215D01*
X475392Y346234D01*
X475401Y346251D01*
X475420Y346353D01*
X475443Y346454D01*
X475441Y346474D01*
X475445Y346493D01*
X475430Y346596D01*
X475420Y346699D01*
X475412Y346717D01*
X475409Y346737D01*
X475362Y346829D01*
X475320Y346924D01*
X475307Y346938D01*
X475298Y346956D01*
X475224Y347029D01*
X475154Y347105D01*
X475136Y347114D01*
X475122Y347128D01*
X474975Y347209D01*
X473376Y347871D01*
X471670Y349577D01*
X470747Y351806D01*
X470747Y354219D01*
X471670Y356448D01*
X473376Y358154D01*
X475619Y359083D01*
X475624Y359083D01*
X475699Y359105D01*
X475776Y359117D01*
X475816Y359139D01*
X475860Y359152D01*
X475924Y359196D01*
X475993Y359232D01*
X476025Y359266D01*
X476062Y359292D01*
X476109Y359354D01*
X476162Y359411D01*
X476182Y359452D01*
X476209Y359489D01*
X476233Y359563D01*
X476266Y359634D01*
X476271Y359679D01*
X476285Y359723D01*
X476284Y359801D01*
X476293Y359878D01*
X476283Y359923D01*
X476283Y359969D01*
X476245Y360100D01*
X476241Y360119D01*
X476238Y360123D01*
X476236Y360130D01*
X475912Y360912D01*
X475912Y362817D01*
X475900Y362888D01*
X475899Y362960D01*
X475881Y363009D01*
X475872Y363060D01*
X475839Y363123D01*
X475814Y363191D01*
X475782Y363231D01*
X475757Y363278D01*
X475705Y363327D01*
X475660Y363383D01*
X475617Y363411D01*
X475579Y363447D01*
X475514Y363477D01*
X475454Y363516D01*
X475403Y363529D01*
X475356Y363551D01*
X475285Y363558D01*
X475215Y363576D01*
X475163Y363572D01*
X475111Y363578D01*
X475041Y363562D01*
X474970Y363557D01*
X474922Y363536D01*
X474871Y363525D01*
X474809Y363489D01*
X474743Y363460D01*
X474687Y363416D01*
X474660Y363399D01*
X474645Y363381D01*
X474613Y363356D01*
X473593Y362336D01*
X468078Y362336D01*
X468007Y362325D01*
X467936Y362323D01*
X467887Y362305D01*
X467835Y362297D01*
X467772Y362263D01*
X467705Y362239D01*
X467664Y362206D01*
X467618Y362182D01*
X467569Y362130D01*
X467513Y362085D01*
X467484Y362041D01*
X467449Y362003D01*
X467418Y361938D01*
X467380Y361878D01*
X467367Y361828D01*
X467345Y361780D01*
X467337Y361709D01*
X467320Y361639D01*
X467324Y361588D01*
X467318Y361536D01*
X467333Y361466D01*
X467339Y361394D01*
X467359Y361346D01*
X467370Y361295D01*
X467407Y361234D01*
X467435Y361168D01*
X467480Y361112D01*
X467496Y361084D01*
X467514Y361069D01*
X467540Y361037D01*
X467641Y360935D01*
X468565Y358706D01*
X468565Y356294D01*
X467641Y354065D01*
X465935Y352359D01*
X463706Y351435D01*
X461294Y351435D01*
X459617Y352130D01*
X459573Y352140D01*
X459531Y352159D01*
X459454Y352168D01*
X459378Y352186D01*
X459332Y352181D01*
X459287Y352187D01*
X459210Y352170D01*
X459133Y352163D01*
X459091Y352144D01*
X459046Y352134D01*
X458979Y352094D01*
X458908Y352063D01*
X458874Y352032D01*
X458835Y352008D01*
X458784Y351949D01*
X458727Y351896D01*
X458705Y351856D01*
X458675Y351821D01*
X458646Y351749D01*
X458609Y351681D01*
X458600Y351636D01*
X458583Y351593D01*
X458568Y351457D01*
X458565Y351439D01*
X458566Y351434D01*
X458565Y351426D01*
X458565Y351294D01*
X457641Y349065D01*
X455935Y347359D01*
X453706Y346435D01*
X451294Y346435D01*
X449065Y347359D01*
X447359Y349065D01*
X446435Y351294D01*
X446435Y353706D01*
X447359Y355935D01*
X449065Y357641D01*
X451294Y358565D01*
X453706Y358565D01*
X455383Y357870D01*
X455427Y357860D01*
X455469Y357841D01*
X455546Y357832D01*
X455622Y357814D01*
X455668Y357819D01*
X455713Y357813D01*
X455790Y357830D01*
X455867Y357837D01*
X455909Y357856D01*
X455954Y357866D01*
X456021Y357906D01*
X456092Y357937D01*
X456126Y357968D01*
X456165Y357992D01*
X456216Y358051D01*
X456273Y358104D01*
X456295Y358144D01*
X456325Y358179D01*
X456354Y358251D01*
X456391Y358319D01*
X456400Y358364D01*
X456417Y358407D01*
X456432Y358543D01*
X456435Y358561D01*
X456434Y358566D01*
X456435Y358574D01*
X456435Y358706D01*
X457359Y360935D01*
X458796Y362373D01*
X458808Y362389D01*
X458823Y362402D01*
X458879Y362489D01*
X458940Y362573D01*
X458946Y362592D01*
X458956Y362609D01*
X458982Y362709D01*
X459012Y362808D01*
X459012Y362828D01*
X459016Y362847D01*
X459008Y362950D01*
X459006Y363054D01*
X458999Y363072D01*
X458997Y363092D01*
X458957Y363187D01*
X458921Y363285D01*
X458909Y363300D01*
X458901Y363319D01*
X458796Y363450D01*
X458719Y363527D01*
X458719Y373304D01*
X458707Y373375D01*
X458705Y373446D01*
X458687Y373495D01*
X458679Y373547D01*
X458645Y373610D01*
X458621Y373677D01*
X458588Y373718D01*
X458564Y373764D01*
X458512Y373813D01*
X458467Y373869D01*
X458423Y373898D01*
X458385Y373933D01*
X458320Y373964D01*
X458260Y374002D01*
X458210Y374015D01*
X458162Y374037D01*
X458091Y374045D01*
X458022Y374063D01*
X457970Y374058D01*
X457918Y374064D01*
X457848Y374049D01*
X457776Y374043D01*
X457729Y374023D01*
X457678Y374012D01*
X457616Y373975D01*
X457550Y373947D01*
X457494Y373902D01*
X457466Y373886D01*
X457451Y373868D01*
X457419Y373842D01*
X455935Y372359D01*
X453706Y371435D01*
X451294Y371435D01*
X449065Y372359D01*
X447359Y374065D01*
X446435Y376294D01*
X446435Y378706D01*
X447359Y380935D01*
X448081Y381658D01*
X448123Y381716D01*
X448173Y381768D01*
X448195Y381816D01*
X448225Y381858D01*
X448246Y381926D01*
X448276Y381991D01*
X448282Y382043D01*
X448297Y382093D01*
X448295Y382165D01*
X448303Y382236D01*
X448292Y382287D01*
X448291Y382339D01*
X448266Y382406D01*
X448251Y382476D01*
X448224Y382521D01*
X448206Y382570D01*
X448162Y382626D01*
X448125Y382687D01*
X448085Y382721D01*
X448053Y382762D01*
X447992Y382801D01*
X447938Y382847D01*
X447890Y382867D01*
X447846Y382895D01*
X447776Y382912D01*
X447710Y382939D01*
X447639Y382947D01*
X447607Y382955D01*
X447584Y382953D01*
X447543Y382958D01*
X443013Y382958D01*
X442968Y382950D01*
X442922Y382952D01*
X442847Y382931D01*
X442770Y382918D01*
X442730Y382897D01*
X442685Y382884D01*
X442621Y382839D01*
X442553Y382803D01*
X442521Y382770D01*
X442483Y382743D01*
X442437Y382681D01*
X442383Y382625D01*
X442364Y382583D01*
X442337Y382546D01*
X442312Y382472D01*
X442280Y382401D01*
X442275Y382356D01*
X442260Y382312D01*
X442261Y382234D01*
X442253Y382157D01*
X442262Y382112D01*
X442263Y382066D01*
X442301Y381935D01*
X442305Y381917D01*
X442307Y381912D01*
X442310Y381905D01*
X443118Y379954D01*
X443118Y377541D01*
X442194Y375312D01*
X441907Y375025D01*
X441895Y375009D01*
X441880Y374996D01*
X441824Y374909D01*
X441763Y374825D01*
X441757Y374806D01*
X441747Y374789D01*
X441721Y374689D01*
X441691Y374590D01*
X441691Y374570D01*
X441686Y374551D01*
X441695Y374448D01*
X441697Y374344D01*
X441704Y374325D01*
X441706Y374305D01*
X441746Y374210D01*
X441782Y374113D01*
X441794Y374097D01*
X441802Y374079D01*
X441907Y373948D01*
X442226Y373629D01*
X442226Y356945D01*
X440979Y355697D01*
X440967Y355681D01*
X440951Y355668D01*
X440895Y355581D01*
X440835Y355497D01*
X440829Y355478D01*
X440818Y355461D01*
X440793Y355361D01*
X440763Y355262D01*
X440763Y355242D01*
X440758Y355223D01*
X440766Y355120D01*
X440769Y355016D01*
X440776Y354997D01*
X440777Y354977D01*
X440818Y354883D01*
X440853Y354785D01*
X440866Y354769D01*
X440874Y354751D01*
X440979Y354620D01*
X441531Y354067D01*
X442455Y351838D01*
X442455Y349425D01*
X441531Y347196D01*
X439825Y345490D01*
X437596Y344567D01*
X435184Y344567D01*
X432955Y345490D01*
X431549Y346896D01*
X431533Y346907D01*
X431521Y346923D01*
X431433Y346979D01*
X431349Y347039D01*
X431330Y347045D01*
X431314Y347056D01*
X431213Y347081D01*
X431114Y347112D01*
X431094Y347111D01*
X431075Y347116D01*
X430972Y347108D01*
X430868Y347105D01*
X430850Y347098D01*
X430830Y347097D01*
X430735Y347057D01*
X430637Y347021D01*
X430622Y347008D01*
X430604Y347001D01*
X430473Y346896D01*
X430173Y346596D01*
X430146Y346559D01*
X430113Y346528D01*
X430075Y346460D01*
X430030Y346397D01*
X430016Y346353D01*
X429994Y346313D01*
X429980Y346236D01*
X429957Y346162D01*
X429959Y346116D01*
X429950Y346071D01*
X429962Y345994D01*
X429964Y345916D01*
X429979Y345873D01*
X429986Y345827D01*
X430021Y345758D01*
X430048Y345685D01*
X430077Y345649D01*
X430098Y345608D01*
X430153Y345553D01*
X430202Y345493D01*
X430240Y345468D01*
X430273Y345436D01*
X430393Y345370D01*
X430409Y345360D01*
X430414Y345358D01*
X430420Y345355D01*
X430935Y345141D01*
X432641Y343435D01*
X433565Y341206D01*
X433565Y338794D01*
X432641Y336565D01*
X432611Y336534D01*
X432569Y336476D01*
X432519Y336423D01*
X432497Y336376D01*
X432467Y336334D01*
X432446Y336265D01*
X432416Y336200D01*
X432410Y336149D01*
X432395Y336099D01*
X432396Y336027D01*
X432389Y335956D01*
X432400Y335905D01*
X432401Y335853D01*
X432426Y335786D01*
X432441Y335716D01*
X432467Y335671D01*
X432485Y335622D01*
X432530Y335566D01*
X432567Y335504D01*
X432607Y335471D01*
X432639Y335430D01*
X432699Y335391D01*
X432754Y335345D01*
X432802Y335325D01*
X432846Y335297D01*
X432915Y335279D01*
X432982Y335253D01*
X433053Y335245D01*
X433084Y335237D01*
X433108Y335239D01*
X433149Y335234D01*
X436660Y335234D01*
X437851Y334043D01*
X437851Y323359D01*
X436660Y322169D01*
X427976Y322169D01*
X426785Y323359D01*
X426785Y328588D01*
X426771Y328678D01*
X426763Y328769D01*
X426751Y328799D01*
X426746Y328831D01*
X426703Y328911D01*
X426667Y328995D01*
X426641Y329027D01*
X426631Y329048D01*
X426607Y329070D01*
X426562Y329126D01*
X426460Y329228D01*
X426386Y329281D01*
X426317Y329341D01*
X426287Y329353D01*
X426260Y329372D01*
X426173Y329399D01*
X426089Y329433D01*
X426048Y329437D01*
X426025Y329444D01*
X425993Y329443D01*
X425922Y329451D01*
X416237Y329451D01*
X398960Y346728D01*
X398886Y346781D01*
X398817Y346841D01*
X398787Y346853D01*
X398760Y346872D01*
X398673Y346899D01*
X398589Y346933D01*
X398548Y346937D01*
X398525Y346944D01*
X398493Y346943D01*
X398422Y346951D01*
X393737Y346951D01*
X388614Y352074D01*
X388556Y352116D01*
X388504Y352165D01*
X388457Y352187D01*
X388415Y352218D01*
X388346Y352239D01*
X388281Y352269D01*
X388229Y352275D01*
X388179Y352290D01*
X388108Y352288D01*
X388037Y352296D01*
X387986Y352285D01*
X387934Y352284D01*
X387866Y352259D01*
X387796Y352244D01*
X387751Y352217D01*
X387703Y352199D01*
X387647Y352154D01*
X387585Y352118D01*
X387551Y352078D01*
X387511Y352046D01*
X387472Y351985D01*
X387425Y351931D01*
X387406Y351882D01*
X387378Y351839D01*
X387360Y351769D01*
X387333Y351703D01*
X387325Y351631D01*
X387317Y351600D01*
X387319Y351577D01*
X387315Y351536D01*
X387315Y350044D01*
X386391Y347815D01*
X385196Y346620D01*
X385155Y346561D01*
X385105Y346509D01*
X385083Y346462D01*
X385053Y346420D01*
X385032Y346351D01*
X385002Y346286D01*
X384996Y346235D01*
X384981Y346185D01*
X384982Y346113D01*
X384975Y346042D01*
X384986Y345991D01*
X384987Y345939D01*
X385012Y345872D01*
X385027Y345802D01*
X385053Y345757D01*
X385071Y345708D01*
X385116Y345652D01*
X385153Y345590D01*
X385193Y345557D01*
X385225Y345516D01*
X385285Y345477D01*
X385340Y345431D01*
X385388Y345411D01*
X385432Y345383D01*
X385501Y345365D01*
X385568Y345339D01*
X385639Y345331D01*
X385671Y345323D01*
X385694Y345325D01*
X385735Y345320D01*
X397466Y345320D01*
X398657Y344129D01*
X398657Y332445D01*
X397466Y331255D01*
X396310Y331255D01*
X396290Y331251D01*
X396271Y331254D01*
X396169Y331232D01*
X396067Y331215D01*
X396050Y331206D01*
X396030Y331201D01*
X395941Y331148D01*
X395850Y331100D01*
X395836Y331085D01*
X395819Y331075D01*
X395752Y330996D01*
X395680Y330921D01*
X395672Y330903D01*
X395659Y330888D01*
X395620Y330792D01*
X395577Y330698D01*
X395575Y330679D01*
X395567Y330660D01*
X395549Y330493D01*
X395549Y306081D01*
X395552Y306062D01*
X395550Y306042D01*
X395572Y305941D01*
X395588Y305839D01*
X395598Y305821D01*
X395602Y305802D01*
X395655Y305713D01*
X395704Y305621D01*
X395718Y305608D01*
X395728Y305590D01*
X395807Y305523D01*
X395882Y305452D01*
X395900Y305443D01*
X395915Y305431D01*
X396011Y305392D01*
X396105Y305348D01*
X396125Y305346D01*
X396143Y305339D01*
X396310Y305320D01*
X397466Y305320D01*
X398657Y304129D01*
X398657Y292445D01*
X397466Y291255D01*
X395060Y291255D01*
X395040Y291251D01*
X395021Y291254D01*
X394919Y291232D01*
X394817Y291215D01*
X394800Y291206D01*
X394780Y291201D01*
X394691Y291148D01*
X394600Y291100D01*
X394586Y291085D01*
X394569Y291075D01*
X394502Y290996D01*
X394430Y290921D01*
X394422Y290903D01*
X394409Y290888D01*
X394370Y290792D01*
X394327Y290698D01*
X394325Y290679D01*
X394317Y290660D01*
X394299Y290493D01*
X394299Y283343D01*
X394301Y283327D01*
X394300Y283312D01*
X394314Y283246D01*
X394321Y283162D01*
X394333Y283133D01*
X394338Y283101D01*
X394351Y283078D01*
X394352Y283071D01*
X394369Y283043D01*
X394381Y283020D01*
X394417Y282936D01*
X394443Y282904D01*
X394454Y282883D01*
X394477Y282861D01*
X394522Y282805D01*
X395141Y282185D01*
X395876Y280413D01*
X395900Y280374D01*
X395916Y280331D01*
X395964Y280270D01*
X396005Y280204D01*
X396041Y280175D01*
X396069Y280139D01*
X396135Y280097D01*
X396195Y280047D01*
X396237Y280031D01*
X396276Y280006D01*
X396352Y279987D01*
X396424Y279959D01*
X396470Y279957D01*
X396515Y279946D01*
X396592Y279952D01*
G37*
G36*
X521835Y308108D02*
X521835Y308108D01*
X521855Y308106D01*
X521956Y308128D01*
X522058Y308145D01*
X522076Y308154D01*
X522096Y308158D01*
X522185Y308211D01*
X522276Y308260D01*
X522290Y308274D01*
X522307Y308284D01*
X522374Y308363D01*
X522445Y308438D01*
X522454Y308456D01*
X522467Y308471D01*
X522505Y308567D01*
X522549Y308661D01*
X522551Y308681D01*
X522559Y308699D01*
X522577Y308866D01*
X522577Y313619D01*
X527783Y313619D01*
X528613Y313396D01*
X529358Y312966D01*
X529718Y312606D01*
X529734Y312594D01*
X529747Y312579D01*
X529834Y312523D01*
X529918Y312463D01*
X529937Y312457D01*
X529953Y312446D01*
X530054Y312421D01*
X530153Y312390D01*
X530173Y312391D01*
X530192Y312386D01*
X530295Y312394D01*
X530399Y312397D01*
X530417Y312403D01*
X530437Y312405D01*
X530532Y312445D01*
X530630Y312481D01*
X530645Y312493D01*
X530664Y312501D01*
X530794Y312606D01*
X532710Y314522D01*
X535222Y317034D01*
X535275Y317107D01*
X535335Y317177D01*
X535347Y317207D01*
X535366Y317233D01*
X535392Y317320D01*
X535427Y317405D01*
X535431Y317446D01*
X535438Y317468D01*
X535437Y317501D01*
X535445Y317572D01*
X535445Y320995D01*
X536339Y321890D01*
X536351Y321906D01*
X536367Y321918D01*
X536423Y322005D01*
X536483Y322089D01*
X536489Y322108D01*
X536500Y322125D01*
X536525Y322226D01*
X536555Y322324D01*
X536555Y322344D01*
X536560Y322364D01*
X536552Y322467D01*
X536549Y322570D01*
X536542Y322589D01*
X536541Y322609D01*
X536500Y322704D01*
X536465Y322801D01*
X536452Y322817D01*
X536444Y322835D01*
X536339Y322966D01*
X535445Y323861D01*
X535445Y330495D01*
X535584Y330634D01*
X535595Y330650D01*
X535611Y330662D01*
X535667Y330750D01*
X535727Y330834D01*
X535733Y330852D01*
X535744Y330869D01*
X535769Y330970D01*
X535800Y331069D01*
X535799Y331089D01*
X535804Y331108D01*
X535796Y331211D01*
X535793Y331314D01*
X535786Y331333D01*
X535785Y331353D01*
X535744Y331448D01*
X535709Y331545D01*
X535696Y331561D01*
X535688Y331579D01*
X535584Y331710D01*
X532164Y335130D01*
X532164Y339958D01*
X532149Y340048D01*
X532142Y340139D01*
X532129Y340169D01*
X532124Y340201D01*
X532081Y340281D01*
X532046Y340365D01*
X532020Y340397D01*
X532009Y340418D01*
X531986Y340440D01*
X531941Y340496D01*
X506951Y365486D01*
X506951Y370922D01*
X506950Y370931D01*
X506950Y370934D01*
X506946Y370954D01*
X506937Y371012D01*
X506929Y371103D01*
X506917Y371133D01*
X506912Y371165D01*
X506869Y371245D01*
X506833Y371329D01*
X506807Y371361D01*
X506796Y371382D01*
X506773Y371404D01*
X506728Y371460D01*
X503542Y374647D01*
X503484Y374688D01*
X503432Y374738D01*
X503384Y374760D01*
X503342Y374790D01*
X503274Y374811D01*
X503209Y374841D01*
X503157Y374847D01*
X503107Y374863D01*
X503035Y374861D01*
X502964Y374869D01*
X502913Y374858D01*
X502861Y374856D01*
X502794Y374832D01*
X502724Y374816D01*
X502679Y374790D01*
X502630Y374772D01*
X502574Y374727D01*
X502513Y374690D01*
X502479Y374651D01*
X502438Y374618D01*
X502399Y374558D01*
X502353Y374503D01*
X502333Y374455D01*
X502305Y374411D01*
X502288Y374342D01*
X502261Y374275D01*
X502253Y374204D01*
X502245Y374173D01*
X502247Y374149D01*
X502242Y374108D01*
X502242Y318356D01*
X502245Y318341D01*
X502243Y318329D01*
X502249Y318302D01*
X502248Y318264D01*
X502269Y318190D01*
X502282Y318113D01*
X502303Y318072D01*
X502316Y318028D01*
X502361Y317964D01*
X502397Y317895D01*
X502430Y317864D01*
X502457Y317826D01*
X502519Y317780D01*
X502575Y317726D01*
X502617Y317707D01*
X502654Y317679D01*
X502728Y317655D01*
X502799Y317622D01*
X502844Y317617D01*
X502888Y317603D01*
X502966Y317604D01*
X503043Y317595D01*
X503088Y317605D01*
X503134Y317606D01*
X503265Y317644D01*
X503283Y317648D01*
X503288Y317650D01*
X503295Y317652D01*
X505663Y318633D01*
X508076Y318633D01*
X510305Y317710D01*
X512011Y316004D01*
X512891Y313880D01*
X512940Y313801D01*
X512983Y313718D01*
X513005Y313697D01*
X513021Y313671D01*
X513092Y313611D01*
X513159Y313546D01*
X513187Y313533D01*
X513210Y313514D01*
X513297Y313481D01*
X513381Y313440D01*
X513411Y313437D01*
X513440Y313426D01*
X513533Y313422D01*
X513625Y313411D01*
X513663Y313416D01*
X513685Y313415D01*
X513717Y313425D01*
X513791Y313436D01*
X514473Y313619D01*
X519678Y313619D01*
X519678Y308866D01*
X519682Y308846D01*
X519679Y308827D01*
X519701Y308725D01*
X519718Y308623D01*
X519727Y308606D01*
X519732Y308586D01*
X519785Y308497D01*
X519833Y308406D01*
X519848Y308392D01*
X519858Y308375D01*
X519937Y308308D01*
X520012Y308237D01*
X520030Y308228D01*
X520045Y308215D01*
X520141Y308176D01*
X520235Y308133D01*
X520254Y308131D01*
X520273Y308123D01*
X520440Y308105D01*
X521816Y308105D01*
X521835Y308108D01*
G37*
G36*
X531655Y381738D02*
X531655Y381738D01*
X531726Y381743D01*
X531774Y381764D01*
X531825Y381775D01*
X531887Y381812D01*
X531953Y381840D01*
X532009Y381884D01*
X532036Y381901D01*
X532052Y381919D01*
X534292Y382847D01*
X536366Y382847D01*
X536397Y382852D01*
X536428Y382849D01*
X536518Y382872D01*
X536609Y382886D01*
X536637Y382901D01*
X536667Y382909D01*
X536745Y382958D01*
X536826Y383002D01*
X536848Y383024D01*
X536874Y383041D01*
X536932Y383113D01*
X536996Y383180D01*
X537009Y383208D01*
X537029Y383232D01*
X537061Y383319D01*
X537099Y383403D01*
X537103Y383434D01*
X537114Y383463D01*
X537127Y383630D01*
X537080Y385256D01*
X537075Y385277D01*
X537078Y385308D01*
X537044Y386458D01*
X537029Y386536D01*
X537023Y386616D01*
X537006Y386657D01*
X537000Y386685D01*
X537000Y387633D01*
X536996Y387661D01*
X536998Y387682D01*
X536994Y387698D01*
X536994Y387732D01*
X536881Y388584D01*
X536897Y388625D01*
X536930Y388688D01*
X536939Y388740D01*
X536957Y388790D01*
X536966Y388902D01*
X536971Y388930D01*
X536969Y388941D01*
X536971Y388957D01*
X536146Y417046D01*
X536143Y417061D01*
X536144Y417076D01*
X536119Y417181D01*
X536099Y417287D01*
X536091Y417300D01*
X536088Y417315D01*
X536007Y417462D01*
X529948Y426049D01*
X529932Y426066D01*
X529920Y426087D01*
X529845Y426154D01*
X529776Y426224D01*
X529755Y426235D01*
X529737Y426251D01*
X529645Y426291D01*
X529556Y426336D01*
X529533Y426339D01*
X529511Y426349D01*
X529345Y426371D01*
X503133Y427005D01*
X503104Y427001D01*
X503076Y427005D01*
X502983Y426985D01*
X502890Y426972D01*
X502864Y426959D01*
X502835Y426952D01*
X502754Y426904D01*
X502670Y426862D01*
X502649Y426841D01*
X502624Y426826D01*
X502563Y426754D01*
X502496Y426688D01*
X502483Y426661D01*
X502464Y426639D01*
X502429Y426551D01*
X502387Y426467D01*
X502383Y426438D01*
X502372Y426411D01*
X502354Y426244D01*
X502354Y424719D01*
X501623Y422955D01*
X501613Y422910D01*
X501593Y422868D01*
X501585Y422791D01*
X501567Y422715D01*
X501571Y422669D01*
X501566Y422624D01*
X501583Y422548D01*
X501590Y422470D01*
X501609Y422428D01*
X501618Y422383D01*
X501658Y422317D01*
X501690Y422245D01*
X501721Y422212D01*
X501745Y422172D01*
X501804Y422122D01*
X501856Y422064D01*
X501897Y422042D01*
X501932Y422012D01*
X502004Y421983D01*
X502072Y421946D01*
X502117Y421938D01*
X502160Y421920D01*
X502296Y421905D01*
X502314Y421902D01*
X502319Y421903D01*
X502326Y421902D01*
X503593Y421902D01*
X504213Y421282D01*
X504229Y421271D01*
X504242Y421255D01*
X504329Y421199D01*
X504413Y421139D01*
X504432Y421133D01*
X504449Y421122D01*
X504549Y421097D01*
X504648Y421066D01*
X504668Y421067D01*
X504687Y421062D01*
X504790Y421070D01*
X504894Y421073D01*
X504913Y421080D01*
X504932Y421081D01*
X505027Y421121D01*
X505125Y421157D01*
X505140Y421170D01*
X505159Y421177D01*
X505290Y421282D01*
X505909Y421902D01*
X513593Y421902D01*
X514784Y420711D01*
X514784Y416449D01*
X514796Y416378D01*
X514798Y416306D01*
X514815Y416257D01*
X514824Y416206D01*
X514857Y416143D01*
X514882Y416075D01*
X514915Y416035D01*
X514939Y415989D01*
X514991Y415939D01*
X515036Y415883D01*
X515079Y415855D01*
X515117Y415819D01*
X515182Y415789D01*
X515243Y415750D01*
X515293Y415738D01*
X515340Y415716D01*
X515412Y415708D01*
X515481Y415690D01*
X515533Y415694D01*
X515585Y415688D01*
X515655Y415704D01*
X515726Y415709D01*
X515774Y415730D01*
X515825Y415741D01*
X515887Y415778D01*
X515953Y415806D01*
X516009Y415850D01*
X516036Y415867D01*
X516051Y415885D01*
X516084Y415910D01*
X516565Y416391D01*
X518794Y417315D01*
X521206Y417315D01*
X523435Y416391D01*
X525141Y414685D01*
X526065Y412456D01*
X526065Y410044D01*
X525141Y407815D01*
X523435Y406109D01*
X521206Y405185D01*
X518794Y405185D01*
X516565Y406109D01*
X516084Y406590D01*
X516025Y406631D01*
X515973Y406681D01*
X515926Y406703D01*
X515884Y406733D01*
X515815Y406754D01*
X515750Y406784D01*
X515699Y406790D01*
X515649Y406805D01*
X515577Y406804D01*
X515506Y406812D01*
X515455Y406800D01*
X515403Y406799D01*
X515336Y406775D01*
X515266Y406759D01*
X515221Y406733D01*
X515172Y406715D01*
X515116Y406670D01*
X515054Y406633D01*
X515021Y406594D01*
X514980Y406561D01*
X514941Y406501D01*
X514894Y406446D01*
X514875Y406398D01*
X514847Y406354D01*
X514829Y406285D01*
X514803Y406218D01*
X514795Y406147D01*
X514787Y406116D01*
X514789Y406092D01*
X514784Y406051D01*
X514784Y404027D01*
X514146Y403389D01*
X514134Y403373D01*
X514118Y403360D01*
X514089Y403314D01*
X514071Y403296D01*
X514058Y403267D01*
X514002Y403189D01*
X513996Y403170D01*
X513985Y403153D01*
X513960Y403053D01*
X513930Y402954D01*
X513930Y402934D01*
X513925Y402915D01*
X513933Y402812D01*
X513936Y402708D01*
X513943Y402689D01*
X513944Y402669D01*
X513985Y402574D01*
X514021Y402477D01*
X514033Y402461D01*
X514041Y402443D01*
X514146Y402312D01*
X514572Y401886D01*
X515495Y399657D01*
X515495Y397244D01*
X514572Y395015D01*
X512849Y393291D01*
X512822Y393254D01*
X512788Y393223D01*
X512751Y393155D01*
X512705Y393092D01*
X512692Y393048D01*
X512670Y393008D01*
X512656Y392931D01*
X512633Y392857D01*
X512634Y392811D01*
X512626Y392766D01*
X512637Y392689D01*
X512639Y392611D01*
X512655Y392568D01*
X512662Y392522D01*
X512697Y392453D01*
X512724Y392380D01*
X512752Y392344D01*
X512773Y392303D01*
X512829Y392248D01*
X512877Y392188D01*
X512916Y392163D01*
X512949Y392131D01*
X513069Y392065D01*
X513084Y392055D01*
X513089Y392054D01*
X513096Y392050D01*
X514685Y391391D01*
X516391Y389685D01*
X517315Y387456D01*
X517315Y385163D01*
X517318Y385144D01*
X517316Y385124D01*
X517338Y385022D01*
X517354Y384920D01*
X517364Y384903D01*
X517368Y384883D01*
X517421Y384794D01*
X517470Y384703D01*
X517484Y384689D01*
X517494Y384672D01*
X517573Y384605D01*
X517648Y384534D01*
X517666Y384525D01*
X517681Y384512D01*
X517777Y384474D01*
X517871Y384430D01*
X517891Y384428D01*
X517909Y384420D01*
X518076Y384402D01*
X529593Y384402D01*
X530784Y383211D01*
X530784Y382483D01*
X530796Y382412D01*
X530798Y382340D01*
X530815Y382291D01*
X530824Y382240D01*
X530857Y382177D01*
X530882Y382109D01*
X530915Y382069D01*
X530939Y382023D01*
X530991Y381973D01*
X531036Y381917D01*
X531080Y381889D01*
X531117Y381853D01*
X531182Y381823D01*
X531243Y381784D01*
X531293Y381772D01*
X531340Y381750D01*
X531412Y381742D01*
X531481Y381724D01*
X531533Y381728D01*
X531585Y381723D01*
X531655Y381738D01*
G37*
%LPC*%
G36*
X506885Y224279D02*
X506885Y224279D01*
X506869Y224278D01*
X506854Y224282D01*
X506687Y224279D01*
X506073Y224198D01*
X505939Y224301D01*
X505838Y224355D01*
X505738Y224411D01*
X505728Y224414D01*
X505722Y224417D01*
X505700Y224421D01*
X505575Y224451D01*
X504614Y224578D01*
X504499Y224574D01*
X504385Y224573D01*
X504375Y224570D01*
X504369Y224570D01*
X504348Y224562D01*
X504224Y224526D01*
X504068Y224462D01*
X503496Y224699D01*
X503481Y224703D01*
X503467Y224710D01*
X503304Y224750D01*
X502691Y224831D01*
X502588Y224965D01*
X502504Y225044D01*
X502422Y225124D01*
X502414Y225129D01*
X502409Y225133D01*
X502388Y225143D01*
X502275Y225205D01*
X501380Y225575D01*
X501268Y225602D01*
X501157Y225630D01*
X501147Y225630D01*
X501141Y225632D01*
X501119Y225630D01*
X500990Y225627D01*
X500823Y225605D01*
X500332Y225982D01*
X500318Y225989D01*
X500306Y226000D01*
X500159Y226081D01*
X499587Y226318D01*
X499523Y226474D01*
X499463Y226571D01*
X499404Y226670D01*
X499397Y226677D01*
X499393Y226683D01*
X499376Y226697D01*
X499283Y226786D01*
X498515Y227376D01*
X498413Y227430D01*
X498313Y227487D01*
X498304Y227489D01*
X498298Y227492D01*
X498276Y227496D01*
X498150Y227527D01*
X497984Y227549D01*
X497607Y228040D01*
X497595Y228051D01*
X497587Y228064D01*
X497466Y228180D01*
X496975Y228557D01*
X496953Y228724D01*
X496920Y228834D01*
X496889Y228945D01*
X496884Y228953D01*
X496882Y228960D01*
X496869Y228978D01*
X496802Y229088D01*
X496212Y229857D01*
X496129Y229935D01*
X496047Y230016D01*
X496038Y230021D01*
X496033Y230025D01*
X496013Y230035D01*
X495900Y230097D01*
X495744Y230161D01*
X495507Y230733D01*
X495499Y230747D01*
X495495Y230762D01*
X495408Y230905D01*
X495031Y231396D01*
X495053Y231563D01*
X495049Y231679D01*
X495048Y231793D01*
X495046Y231803D01*
X495045Y231809D01*
X495038Y231830D01*
X495002Y231954D01*
X494631Y232849D01*
X494570Y232947D01*
X494512Y233046D01*
X494505Y233053D01*
X494501Y233058D01*
X494484Y233073D01*
X494391Y233162D01*
X494257Y233264D01*
X494177Y233878D01*
X494172Y233893D01*
X494172Y233909D01*
X494125Y234070D01*
X493888Y234642D01*
X493953Y234798D01*
X493979Y234909D01*
X494008Y235021D01*
X494007Y235031D01*
X494009Y235037D01*
X494007Y235059D01*
X494004Y235188D01*
X493878Y236149D01*
X493844Y236259D01*
X493814Y236369D01*
X493808Y236378D01*
X493807Y236384D01*
X493794Y236403D01*
X493727Y236513D01*
X493624Y236647D01*
X493705Y237260D01*
X493705Y237276D01*
X493709Y237291D01*
X493705Y237459D01*
X493624Y238073D01*
X493727Y238206D01*
X493781Y238308D01*
X493838Y238408D01*
X493840Y238417D01*
X493843Y238423D01*
X493847Y238445D01*
X493878Y238570D01*
X494004Y239531D01*
X494000Y239646D01*
X493999Y239761D01*
X493997Y239770D01*
X493996Y239777D01*
X493989Y239798D01*
X493953Y239922D01*
X493888Y240077D01*
X494125Y240649D01*
X494129Y240665D01*
X494136Y240678D01*
X494177Y240841D01*
X494257Y241455D01*
X494391Y241557D01*
X494469Y241641D01*
X494550Y241723D01*
X494555Y241732D01*
X494559Y241737D01*
X494569Y241757D01*
X494631Y241870D01*
X495002Y242765D01*
X495009Y242799D01*
X495010Y242800D01*
X495010Y242803D01*
X495028Y242877D01*
X495056Y242988D01*
X495056Y242998D01*
X495058Y243005D01*
X495056Y243027D01*
X495053Y243156D01*
X495031Y243323D01*
X495408Y243814D01*
X495415Y243828D01*
X495426Y243839D01*
X495507Y243986D01*
X495744Y244558D01*
X495900Y244623D01*
X495998Y244683D01*
X496096Y244741D01*
X496103Y244749D01*
X496109Y244752D01*
X496123Y244769D01*
X496212Y244862D01*
X496802Y245631D01*
X496857Y245733D01*
X496913Y245832D01*
X496915Y245842D01*
X496918Y245848D01*
X496922Y245870D01*
X496953Y245995D01*
X496975Y246162D01*
X497466Y246539D01*
X497477Y246550D01*
X497491Y246558D01*
X497607Y246679D01*
X497984Y247171D01*
X498150Y247193D01*
X498261Y247226D01*
X498371Y247257D01*
X498379Y247262D01*
X498386Y247264D01*
X498404Y247277D01*
X498515Y247343D01*
X499283Y247933D01*
X499362Y248017D01*
X499442Y248099D01*
X499447Y248108D01*
X499452Y248113D01*
X499461Y248133D01*
X499523Y248246D01*
X499588Y248401D01*
X500159Y248638D01*
X500173Y248647D01*
X500188Y248651D01*
X500332Y248738D01*
X500823Y249115D01*
X500990Y249093D01*
X501066Y249095D01*
X501111Y249095D01*
X501119Y249096D01*
X501219Y249097D01*
X501229Y249100D01*
X501235Y249100D01*
X501256Y249108D01*
X501342Y249133D01*
X501353Y249135D01*
X501359Y249138D01*
X501380Y249144D01*
X502275Y249515D01*
X502373Y249575D01*
X502472Y249634D01*
X502479Y249641D01*
X502485Y249644D01*
X502499Y249662D01*
X502588Y249755D01*
X502691Y249888D01*
X503304Y249969D01*
X503319Y249974D01*
X503335Y249974D01*
X503496Y250020D01*
X504068Y250257D01*
X504224Y250193D01*
X504335Y250167D01*
X504447Y250138D01*
X504457Y250138D01*
X504463Y250137D01*
X504485Y250139D01*
X504615Y250141D01*
X505575Y250268D01*
X505685Y250301D01*
X505796Y250332D01*
X505804Y250337D01*
X505811Y250339D01*
X505829Y250352D01*
X505939Y250419D01*
X506073Y250521D01*
X506687Y250440D01*
X506702Y250441D01*
X506718Y250437D01*
X506885Y250440D01*
X507499Y250521D01*
X507633Y250419D01*
X507733Y250365D01*
X507834Y250308D01*
X507844Y250306D01*
X507849Y250303D01*
X507871Y250299D01*
X507997Y250268D01*
X508957Y250141D01*
X509072Y250145D01*
X509187Y250146D01*
X509196Y250149D01*
X509203Y250149D01*
X509224Y250157D01*
X509348Y250193D01*
X509503Y250257D01*
X510075Y250020D01*
X510091Y250017D01*
X510105Y250009D01*
X510267Y249969D01*
X510881Y249888D01*
X510984Y249755D01*
X511067Y249676D01*
X511149Y249596D01*
X511158Y249591D01*
X511163Y249586D01*
X511183Y249577D01*
X511296Y249515D01*
X512191Y249144D01*
X512257Y249129D01*
X512295Y249113D01*
X512339Y249108D01*
X512414Y249089D01*
X512425Y249089D01*
X512431Y249088D01*
X512453Y249090D01*
X512582Y249093D01*
X512749Y249115D01*
X513240Y248738D01*
X513254Y248730D01*
X513265Y248719D01*
X513412Y248638D01*
X513984Y248401D01*
X514049Y248246D01*
X514109Y248148D01*
X514168Y248049D01*
X514175Y248042D01*
X514178Y248037D01*
X514195Y248023D01*
X514289Y247933D01*
X515057Y247343D01*
X515159Y247289D01*
X515258Y247233D01*
X515268Y247230D01*
X515274Y247227D01*
X515296Y247223D01*
X515421Y247193D01*
X515588Y247171D01*
X515965Y246679D01*
X515977Y246669D01*
X515985Y246655D01*
X516106Y246539D01*
X516597Y246162D01*
X516619Y245995D01*
X516652Y245885D01*
X516683Y245775D01*
X516688Y245766D01*
X516690Y245760D01*
X516703Y245741D01*
X516770Y245631D01*
X517359Y244862D01*
X517443Y244784D01*
X517525Y244703D01*
X517534Y244699D01*
X517539Y244694D01*
X517559Y244685D01*
X517672Y244623D01*
X517827Y244558D01*
X518064Y243986D01*
X518073Y243973D01*
X518077Y243958D01*
X518164Y243814D01*
X518541Y243323D01*
X518519Y243156D01*
X518522Y243041D01*
X518523Y242926D01*
X518526Y242917D01*
X518526Y242910D01*
X518534Y242889D01*
X518570Y242765D01*
X518896Y241978D01*
X518905Y241964D01*
X518910Y241948D01*
X518969Y241860D01*
X519026Y241769D01*
X519039Y241759D01*
X519048Y241745D01*
X519177Y241637D01*
X519219Y241608D01*
X519361Y240893D01*
X519370Y240871D01*
X519405Y240751D01*
X519694Y240053D01*
X519681Y240016D01*
X519679Y239974D01*
X519674Y239950D01*
X519677Y239918D01*
X519674Y239849D01*
X519722Y239113D01*
X519729Y239082D01*
X519735Y239014D01*
X519879Y238291D01*
X519906Y238219D01*
X519919Y238158D01*
X519929Y238142D01*
X519935Y238120D01*
X519950Y238094D01*
X519852Y237350D01*
X519853Y237326D01*
X519847Y237201D01*
X519895Y236474D01*
X519861Y236435D01*
X519852Y236421D01*
X519840Y236410D01*
X519787Y236317D01*
X519731Y236227D01*
X519727Y236210D01*
X519719Y236196D01*
X519679Y236033D01*
X519568Y235188D01*
X519571Y235073D01*
X519572Y234959D01*
X519575Y234949D01*
X519575Y234942D01*
X519583Y234921D01*
X519619Y234798D01*
X519684Y234642D01*
X519447Y234070D01*
X519443Y234055D01*
X519435Y234041D01*
X519395Y233878D01*
X519314Y233264D01*
X519181Y233162D01*
X519102Y233078D01*
X519022Y232996D01*
X519017Y232987D01*
X519012Y232983D01*
X519003Y232963D01*
X518941Y232849D01*
X518570Y231954D01*
X518544Y231843D01*
X518515Y231731D01*
X518515Y231721D01*
X518514Y231715D01*
X518516Y231693D01*
X518519Y231563D01*
X518541Y231397D01*
X518164Y230905D01*
X518156Y230891D01*
X518145Y230880D01*
X518064Y230733D01*
X517827Y230161D01*
X517672Y230097D01*
X517575Y230037D01*
X517475Y229978D01*
X517468Y229971D01*
X517463Y229967D01*
X517449Y229950D01*
X517359Y229857D01*
X516770Y229088D01*
X516716Y228988D01*
X516659Y228887D01*
X516656Y228877D01*
X516653Y228872D01*
X516650Y228850D01*
X516619Y228724D01*
X516597Y228557D01*
X516106Y228180D01*
X516095Y228169D01*
X516081Y228161D01*
X515965Y228040D01*
X515588Y227549D01*
X515421Y227527D01*
X515312Y227494D01*
X515201Y227463D01*
X515192Y227458D01*
X515186Y227456D01*
X515168Y227443D01*
X515057Y227376D01*
X514289Y226786D01*
X514210Y226702D01*
X514130Y226621D01*
X514125Y226612D01*
X514120Y226607D01*
X514111Y226586D01*
X514049Y226474D01*
X513984Y226318D01*
X513412Y226081D01*
X513399Y226073D01*
X513384Y226069D01*
X513240Y225982D01*
X512749Y225605D01*
X512582Y225627D01*
X512468Y225623D01*
X512353Y225622D01*
X512343Y225619D01*
X512336Y225619D01*
X512315Y225611D01*
X512191Y225575D01*
X511296Y225205D01*
X511199Y225144D01*
X511100Y225086D01*
X511093Y225079D01*
X511087Y225075D01*
X511073Y225058D01*
X510984Y224965D01*
X510881Y224831D01*
X510267Y224750D01*
X510252Y224746D01*
X510237Y224746D01*
X510075Y224699D01*
X509504Y224462D01*
X509348Y224526D01*
X509237Y224552D01*
X509125Y224581D01*
X509115Y224581D01*
X509108Y224583D01*
X509087Y224581D01*
X508957Y224578D01*
X507997Y224451D01*
X507887Y224418D01*
X507776Y224387D01*
X507767Y224382D01*
X507761Y224380D01*
X507743Y224367D01*
X507633Y224301D01*
X507499Y224198D01*
X506885Y224279D01*
G37*
%LPD*%
%LPC*%
G36*
X501720Y283657D02*
X501720Y283657D01*
X498385Y285038D01*
X495833Y287591D01*
X494452Y290925D01*
X494452Y294535D01*
X495833Y297869D01*
X498385Y300421D01*
X501720Y301803D01*
X505329Y301803D01*
X508664Y300421D01*
X511216Y297869D01*
X512597Y294535D01*
X512597Y290925D01*
X511216Y287591D01*
X508664Y285038D01*
X505329Y283657D01*
X501720Y283657D01*
G37*
%LPD*%
%LPC*%
G36*
X461720Y283657D02*
X461720Y283657D01*
X458385Y285038D01*
X455833Y287591D01*
X454452Y290925D01*
X454452Y294535D01*
X455833Y297869D01*
X458385Y300421D01*
X461720Y301803D01*
X465329Y301803D01*
X468664Y300421D01*
X471216Y297869D01*
X472597Y294535D01*
X472597Y290925D01*
X471216Y287591D01*
X468664Y285038D01*
X465329Y283657D01*
X461720Y283657D01*
G37*
%LPD*%
%LPC*%
G36*
X461720Y263657D02*
X461720Y263657D01*
X458385Y265038D01*
X455833Y267591D01*
X454452Y270925D01*
X454452Y274535D01*
X455833Y277869D01*
X458385Y280421D01*
X461720Y281803D01*
X465329Y281803D01*
X468664Y280421D01*
X471216Y277869D01*
X472597Y274535D01*
X472597Y270925D01*
X471216Y267591D01*
X468664Y265038D01*
X465329Y263657D01*
X461720Y263657D01*
G37*
%LPD*%
%LPC*%
G36*
X481720Y263657D02*
X481720Y263657D01*
X478385Y265038D01*
X475833Y267591D01*
X474452Y270925D01*
X474452Y274535D01*
X475833Y277869D01*
X478385Y280421D01*
X481720Y281803D01*
X485329Y281803D01*
X488664Y280421D01*
X491216Y277869D01*
X492597Y274535D01*
X492597Y270925D01*
X491216Y267591D01*
X488664Y265038D01*
X485329Y263657D01*
X481720Y263657D01*
G37*
%LPD*%
%LPC*%
G36*
X402544Y310185D02*
X402544Y310185D01*
X400315Y311109D01*
X398609Y312815D01*
X397685Y315044D01*
X397685Y317456D01*
X398609Y319685D01*
X400315Y321391D01*
X402485Y322290D01*
X402524Y322315D01*
X402567Y322330D01*
X402628Y322379D01*
X402694Y322420D01*
X402723Y322455D01*
X402759Y322484D01*
X402801Y322550D01*
X402851Y322610D01*
X402867Y322652D01*
X402892Y322691D01*
X402911Y322767D01*
X402939Y322839D01*
X402941Y322885D01*
X402952Y322929D01*
X402946Y323007D01*
X402949Y323085D01*
X402937Y323129D01*
X402933Y323175D01*
X402903Y323246D01*
X402881Y323321D01*
X402855Y323359D01*
X402837Y323401D01*
X402751Y323508D01*
X402741Y323523D01*
X402737Y323526D01*
X402732Y323532D01*
X401366Y324897D01*
X400443Y327126D01*
X400443Y329539D01*
X401366Y331768D01*
X403072Y333474D01*
X405301Y334398D01*
X407714Y334398D01*
X409943Y333474D01*
X411649Y331768D01*
X412573Y329539D01*
X412573Y327126D01*
X411649Y324897D01*
X409943Y323191D01*
X407773Y322292D01*
X407734Y322268D01*
X407691Y322252D01*
X407630Y322204D01*
X407564Y322163D01*
X407535Y322127D01*
X407499Y322099D01*
X407457Y322033D01*
X407407Y321973D01*
X407391Y321931D01*
X407366Y321892D01*
X407347Y321816D01*
X407319Y321744D01*
X407317Y321698D01*
X407306Y321653D01*
X407312Y321576D01*
X407308Y321498D01*
X407321Y321454D01*
X407325Y321408D01*
X407355Y321337D01*
X407377Y321262D01*
X407403Y321224D01*
X407421Y321182D01*
X407507Y321075D01*
X407517Y321060D01*
X407521Y321057D01*
X407526Y321051D01*
X408891Y319685D01*
X409815Y317456D01*
X409815Y315044D01*
X408891Y312815D01*
X407185Y311109D01*
X404956Y310185D01*
X402544Y310185D01*
G37*
%LPD*%
%LPC*%
G36*
X369727Y437668D02*
X369727Y437668D01*
X380142Y437668D01*
X380142Y428854D01*
X379848Y426998D01*
X379268Y425211D01*
X378414Y423536D01*
X377310Y422016D01*
X375981Y420687D01*
X374461Y419582D01*
X372786Y418729D01*
X370999Y418149D01*
X369727Y417947D01*
X369727Y437668D01*
G37*
%LPD*%
%LPC*%
G36*
X513760Y322245D02*
X513760Y322245D01*
X512145Y323861D01*
X512145Y330495D01*
X513760Y332111D01*
X528495Y332111D01*
X530110Y330495D01*
X530110Y323861D01*
X528495Y322245D01*
X513760Y322245D01*
G37*
%LPD*%
G36*
X402298Y264654D02*
X402298Y264654D01*
X402319Y264653D01*
X402417Y264681D01*
X402516Y264704D01*
X402535Y264715D01*
X402555Y264721D01*
X402639Y264779D01*
X402726Y264833D01*
X402740Y264849D01*
X402757Y264862D01*
X402818Y264943D01*
X402884Y265022D01*
X402891Y265042D01*
X402904Y265059D01*
X402936Y265156D01*
X402973Y265251D01*
X402974Y265273D01*
X402980Y265293D01*
X402979Y265395D01*
X402984Y265497D01*
X402978Y265517D01*
X402978Y265539D01*
X402931Y265700D01*
X402685Y266294D01*
X402685Y268706D01*
X403609Y270935D01*
X405315Y272641D01*
X407544Y273565D01*
X409956Y273565D01*
X412172Y272647D01*
X412286Y272620D01*
X412399Y272592D01*
X412405Y272592D01*
X412411Y272591D01*
X412528Y272602D01*
X412644Y272611D01*
X412650Y272613D01*
X412656Y272614D01*
X412763Y272661D01*
X412871Y272707D01*
X412876Y272712D01*
X412881Y272714D01*
X412895Y272726D01*
X413002Y272812D01*
X413458Y273269D01*
X414038Y273603D01*
X414684Y273776D01*
X416995Y273776D01*
X416995Y267498D01*
X416998Y267478D01*
X416996Y267458D01*
X417018Y267357D01*
X417035Y267255D01*
X417044Y267237D01*
X417048Y267218D01*
X417102Y267129D01*
X417150Y267038D01*
X417164Y267024D01*
X417175Y267007D01*
X417253Y266939D01*
X417328Y266868D01*
X417346Y266860D01*
X417361Y266847D01*
X417458Y266808D01*
X417551Y266765D01*
X417571Y266762D01*
X417590Y266755D01*
X417756Y266736D01*
X419280Y266736D01*
X419300Y266740D01*
X419320Y266737D01*
X419421Y266759D01*
X419523Y266776D01*
X419540Y266785D01*
X419560Y266790D01*
X419649Y266843D01*
X419740Y266891D01*
X419754Y266906D01*
X419771Y266916D01*
X419838Y266995D01*
X419910Y267070D01*
X419918Y267088D01*
X419931Y267103D01*
X419970Y267199D01*
X420013Y267293D01*
X420015Y267312D01*
X420023Y267331D01*
X420041Y267498D01*
X420041Y273776D01*
X421339Y273776D01*
X421384Y273784D01*
X421430Y273782D01*
X421505Y273803D01*
X421581Y273816D01*
X421622Y273837D01*
X421666Y273850D01*
X421730Y273895D01*
X421799Y273931D01*
X421830Y273964D01*
X421868Y273991D01*
X421915Y274053D01*
X421968Y274109D01*
X421988Y274151D01*
X422015Y274188D01*
X422039Y274262D01*
X422072Y274333D01*
X422077Y274378D01*
X422091Y274422D01*
X422090Y274500D01*
X422099Y274577D01*
X422089Y274622D01*
X422089Y274668D01*
X422051Y274799D01*
X422047Y274817D01*
X422044Y274822D01*
X422042Y274829D01*
X421435Y276294D01*
X421435Y276881D01*
X421432Y276901D01*
X421434Y276921D01*
X421412Y277022D01*
X421396Y277124D01*
X421386Y277142D01*
X421382Y277161D01*
X421329Y277250D01*
X421280Y277341D01*
X421266Y277355D01*
X421256Y277372D01*
X421177Y277440D01*
X421102Y277511D01*
X421084Y277519D01*
X421069Y277532D01*
X420973Y277571D01*
X420879Y277614D01*
X420859Y277617D01*
X420841Y277624D01*
X420674Y277643D01*
X403532Y277643D01*
X403442Y277628D01*
X403351Y277621D01*
X403321Y277608D01*
X403289Y277603D01*
X403209Y277560D01*
X403125Y277524D01*
X403093Y277499D01*
X403072Y277488D01*
X403050Y277464D01*
X402994Y277420D01*
X396204Y270630D01*
X395572Y269997D01*
X395516Y269920D01*
X395454Y269846D01*
X395444Y269820D01*
X395428Y269798D01*
X395400Y269706D01*
X395365Y269617D01*
X395364Y269589D01*
X395356Y269563D01*
X395358Y269467D01*
X395354Y269371D01*
X395361Y269344D01*
X395362Y269317D01*
X395395Y269226D01*
X395421Y269134D01*
X395437Y269112D01*
X395447Y269086D01*
X395507Y269011D01*
X395561Y268932D01*
X395587Y268910D01*
X395600Y268894D01*
X395628Y268876D01*
X395690Y268824D01*
X401808Y264774D01*
X401827Y264765D01*
X401844Y264751D01*
X401939Y264715D01*
X402032Y264673D01*
X402053Y264671D01*
X402073Y264663D01*
X402175Y264659D01*
X402277Y264649D01*
X402298Y264654D01*
G37*
%LPC*%
G36*
X573976Y337500D02*
X573976Y337500D01*
X571755Y338420D01*
X570056Y340119D01*
X569137Y342339D01*
X569137Y344742D01*
X570056Y346963D01*
X571755Y348662D01*
X573976Y349582D01*
X576379Y349582D01*
X578599Y348662D01*
X580298Y346963D01*
X581218Y344742D01*
X581218Y342339D01*
X580298Y340119D01*
X578599Y338420D01*
X576379Y337500D01*
X573976Y337500D01*
G37*
%LPD*%
%LPC*%
G36*
X573976Y296000D02*
X573976Y296000D01*
X571755Y296920D01*
X570056Y298619D01*
X569137Y300839D01*
X569137Y303242D01*
X570056Y305463D01*
X571755Y307162D01*
X573976Y308082D01*
X576379Y308082D01*
X578599Y307162D01*
X580298Y305463D01*
X581218Y303242D01*
X581218Y300839D01*
X580298Y298619D01*
X578599Y296920D01*
X576379Y296000D01*
X573976Y296000D01*
G37*
%LPD*%
G36*
X412477Y294639D02*
X412477Y294639D01*
X412532Y294636D01*
X412598Y294656D01*
X412667Y294666D01*
X412736Y294696D01*
X412768Y294705D01*
X412786Y294718D01*
X412821Y294733D01*
X413469Y295107D01*
X414115Y295280D01*
X415936Y295280D01*
X416006Y295292D01*
X416078Y295293D01*
X416127Y295311D01*
X416178Y295320D01*
X416242Y295353D01*
X416309Y295378D01*
X416350Y295410D01*
X416396Y295435D01*
X416445Y295487D01*
X416501Y295532D01*
X416529Y295575D01*
X416565Y295613D01*
X416595Y295678D01*
X416634Y295738D01*
X416647Y295789D01*
X416669Y295836D01*
X416677Y295907D01*
X416694Y295977D01*
X416690Y296029D01*
X416696Y296081D01*
X416681Y296151D01*
X416675Y296222D01*
X416655Y296270D01*
X416644Y296321D01*
X416607Y296383D01*
X416579Y296449D01*
X416534Y296505D01*
X416517Y296532D01*
X416500Y296547D01*
X416474Y296580D01*
X416207Y296846D01*
X415284Y299075D01*
X415284Y301488D01*
X416207Y303717D01*
X417913Y305423D01*
X420143Y306346D01*
X422555Y306346D01*
X424784Y305423D01*
X425582Y304625D01*
X425640Y304583D01*
X425692Y304534D01*
X425739Y304512D01*
X425782Y304482D01*
X425850Y304460D01*
X425915Y304430D01*
X425967Y304424D01*
X426017Y304409D01*
X426089Y304411D01*
X426160Y304403D01*
X426211Y304414D01*
X426263Y304416D01*
X426330Y304440D01*
X426400Y304455D01*
X426445Y304482D01*
X426494Y304500D01*
X426550Y304545D01*
X426611Y304582D01*
X426645Y304621D01*
X426686Y304654D01*
X426724Y304714D01*
X426771Y304768D01*
X426791Y304817D01*
X426819Y304861D01*
X426836Y304930D01*
X426863Y304997D01*
X426871Y305068D01*
X426879Y305099D01*
X426877Y305122D01*
X426882Y305163D01*
X426882Y313455D01*
X426895Y313485D01*
X426901Y313537D01*
X426917Y313586D01*
X426915Y313658D01*
X426923Y313729D01*
X426912Y313780D01*
X426910Y313832D01*
X426886Y313900D01*
X426870Y313970D01*
X426844Y314014D01*
X426826Y314063D01*
X426781Y314119D01*
X426744Y314181D01*
X426705Y314215D01*
X426672Y314255D01*
X426612Y314294D01*
X426557Y314341D01*
X426509Y314360D01*
X426465Y314388D01*
X426396Y314406D01*
X426329Y314433D01*
X426258Y314441D01*
X426227Y314449D01*
X426204Y314447D01*
X426162Y314451D01*
X424232Y314451D01*
X424142Y314437D01*
X424051Y314429D01*
X424021Y314417D01*
X423989Y314412D01*
X423909Y314369D01*
X423825Y314333D01*
X423793Y314307D01*
X423772Y314296D01*
X423750Y314273D01*
X423694Y314228D01*
X409522Y300056D01*
X409469Y299982D01*
X409409Y299913D01*
X409397Y299883D01*
X409378Y299856D01*
X409351Y299769D01*
X409317Y299685D01*
X409313Y299644D01*
X409306Y299621D01*
X409307Y299589D01*
X409299Y299518D01*
X409299Y298310D01*
X409318Y298195D01*
X409335Y298079D01*
X409337Y298074D01*
X409338Y298067D01*
X409393Y297964D01*
X409446Y297860D01*
X409451Y297856D01*
X409454Y297850D01*
X409538Y297770D01*
X409622Y297688D01*
X409628Y297684D01*
X409632Y297681D01*
X409649Y297673D01*
X409660Y297667D01*
X411391Y295935D01*
X411737Y295101D01*
X411774Y295042D01*
X411802Y294978D01*
X411838Y294938D01*
X411867Y294892D01*
X411920Y294847D01*
X411967Y294796D01*
X412014Y294770D01*
X412056Y294735D01*
X412121Y294710D01*
X412182Y294676D01*
X412235Y294666D01*
X412286Y294647D01*
X412355Y294644D01*
X412424Y294631D01*
X412477Y294639D01*
G37*
%LPC*%
G36*
X525048Y271207D02*
X525048Y271207D01*
X532983Y271207D01*
X532869Y270487D01*
X532403Y269052D01*
X531719Y267709D01*
X530832Y266488D01*
X529766Y265422D01*
X528546Y264536D01*
X527202Y263851D01*
X525768Y263385D01*
X525048Y263271D01*
X525048Y271207D01*
G37*
%LPD*%
%LPC*%
G36*
X535045Y287149D02*
X535045Y287149D01*
X535045Y290460D01*
X535218Y291106D01*
X535553Y291686D01*
X536026Y292159D01*
X536605Y292493D01*
X537251Y292666D01*
X539563Y292666D01*
X539563Y287149D01*
X535045Y287149D01*
G37*
%LPD*%
%LPC*%
G36*
X537251Y278585D02*
X537251Y278585D01*
X536605Y278758D01*
X536026Y279092D01*
X535553Y279566D01*
X535218Y280145D01*
X535045Y280791D01*
X535045Y284102D01*
X539563Y284102D01*
X539563Y278585D01*
X537251Y278585D01*
G37*
%LPD*%
D10*
X368204Y429793D02*
X368204Y448589D01*
X393604Y448589D02*
X393604Y429793D01*
X419004Y429793D02*
X419004Y448589D01*
X444404Y448589D02*
X444404Y429793D01*
D11*
X448914Y308491D03*
X431414Y308491D03*
D12*
X435164Y308491D03*
X445164Y308491D03*
D11*
X465755Y327134D03*
X483255Y327134D03*
D12*
X479505Y327134D03*
X469505Y327134D03*
D13*
X538203Y310353D02*
X550653Y310353D01*
X550653Y306003D01*
X538203Y306003D01*
X538203Y310353D01*
X538203Y307380D02*
X550653Y307380D01*
X550653Y308757D02*
X538203Y308757D01*
X538203Y310134D02*
X550653Y310134D01*
X550653Y319853D02*
X538203Y319853D01*
X550653Y319853D02*
X550653Y315503D01*
X538203Y315503D01*
X538203Y319853D01*
X538203Y316880D02*
X550653Y316880D01*
X550653Y318257D02*
X538203Y318257D01*
X538203Y319634D02*
X550653Y319634D01*
X550653Y329353D02*
X538203Y329353D01*
X550653Y329353D02*
X550653Y325003D01*
X538203Y325003D01*
X538203Y329353D01*
X538203Y326380D02*
X550653Y326380D01*
X550653Y327757D02*
X538203Y327757D01*
X538203Y329134D02*
X550653Y329134D01*
X527353Y329353D02*
X514903Y329353D01*
X527353Y329353D02*
X527353Y325003D01*
X514903Y325003D01*
X514903Y329353D01*
X514903Y326380D02*
X527353Y326380D01*
X527353Y327757D02*
X514903Y327757D01*
X514903Y329134D02*
X527353Y329134D01*
X527353Y310353D02*
X514903Y310353D01*
X527353Y310353D02*
X527353Y306003D01*
X514903Y306003D01*
X514903Y310353D01*
X514903Y307380D02*
X527353Y307380D01*
X527353Y308757D02*
X514903Y308757D01*
X514903Y310134D02*
X527353Y310134D01*
D14*
X295543Y425972D03*
X305543Y425972D03*
X315543Y425972D03*
X325543Y425972D03*
X335543Y425972D03*
X345543Y425972D03*
D15*
X282543Y386972D03*
X358543Y386972D03*
D14*
X479751Y412369D03*
X489751Y412369D03*
X499751Y412369D03*
X509751Y412369D03*
D15*
X466751Y373369D03*
X522751Y373369D03*
D16*
X463525Y272730D03*
X463525Y292730D03*
X483525Y272730D03*
X483525Y292730D03*
X503525Y272730D03*
X503525Y292730D03*
X523525Y272730D03*
X523525Y292730D03*
D14*
X437194Y365287D03*
X427194Y365287D03*
X417194Y365287D03*
X407194Y365287D03*
X397194Y365287D03*
X387194Y365287D03*
D15*
X450194Y404287D03*
X374194Y404287D03*
D17*
X391624Y298287D03*
X375624Y298287D03*
X375624Y338287D03*
X391624Y338287D03*
D18*
X432318Y328701D03*
X445318Y328701D03*
X493474Y308699D03*
X480474Y308699D03*
X418518Y266736D03*
X431518Y266736D03*
X417949Y288239D03*
X430949Y288239D03*
X541086Y285626D03*
X554086Y285626D03*
D19*
X499194Y314419D02*
X499194Y374409D01*
X488626Y382624D02*
X482500Y388750D01*
X499194Y314419D02*
X493474Y308699D01*
D20*
X482500Y388750D03*
D19*
X488626Y382624D02*
X490978Y382624D01*
X499194Y374409D01*
D20*
X511250Y386250D03*
X352500Y356250D03*
X344051Y311683D03*
X550000Y347500D03*
X408750Y267500D03*
X535498Y376782D03*
D19*
X535498Y362002D01*
X550000Y347500D01*
X490000Y370000D02*
X482500Y377500D01*
X490000Y370000D02*
X490000Y335359D01*
X457859Y335359D01*
X456250Y333750D01*
X456250Y320000D01*
X443750Y320000D01*
X441250Y317500D01*
X422654Y317500D01*
X406250Y301096D01*
X406250Y292500D01*
D20*
X482500Y377500D03*
X406250Y292500D03*
X321250Y390000D03*
X481977Y362119D03*
X414748Y401267D03*
X328750Y382500D03*
D19*
X392500Y337500D02*
X392500Y298750D01*
X391624Y298287D01*
X392500Y337500D02*
X391624Y338287D01*
X391250Y297500D02*
X391250Y278750D01*
X390000Y278750D01*
X391250Y297500D02*
X391624Y298287D01*
D20*
X390000Y278750D03*
X542500Y340000D03*
D19*
X376250Y337500D02*
X376250Y298750D01*
X375624Y298287D01*
X376250Y337500D02*
X375624Y338287D01*
X427500Y332500D02*
X431250Y328750D01*
X427500Y332500D02*
X417500Y332500D01*
X400000Y350000D01*
X395000Y350000D01*
X386250Y358750D01*
X386250Y361250D02*
X386250Y365000D01*
X386250Y361250D02*
X386250Y358750D01*
X431250Y328750D02*
X432318Y328701D01*
X387194Y365287D02*
X386250Y365000D01*
X368750Y345000D02*
X375000Y338750D01*
X368750Y345000D02*
X363750Y345000D01*
X360000Y348750D01*
X360000Y361250D01*
X386250Y361250D01*
X375000Y338750D02*
X375624Y338287D01*
X386250Y361250D02*
X387194Y365287D01*
X345000Y426250D02*
X336250Y426250D01*
X335543Y425972D01*
X345000Y426250D02*
X345543Y425972D01*
X431250Y277500D02*
X431250Y267500D01*
X431250Y277500D02*
X431250Y287500D01*
X430949Y288239D01*
X431250Y267500D02*
X431518Y266736D01*
X553750Y286250D02*
X553750Y297500D01*
X540000Y297500D02*
X532500Y297500D01*
X540000Y297500D02*
X553750Y297500D01*
X532500Y297500D02*
X524796Y289796D01*
X553750Y286250D02*
X554086Y285626D01*
X524796Y289796D02*
X523525Y292730D01*
X541250Y315000D02*
X543750Y317500D01*
X541250Y315000D02*
X537500Y315000D01*
X533750Y311250D01*
X533750Y303750D01*
X540000Y297500D01*
X543750Y317500D02*
X544428Y317678D01*
X520000Y411250D02*
X510000Y411250D01*
X509751Y412369D01*
X431250Y277500D02*
X427500Y277500D01*
X355000Y416250D02*
X346250Y425000D01*
X355000Y416250D02*
X356250Y416250D01*
X346250Y425000D02*
X345543Y425972D01*
X345000Y376250D02*
X360000Y361250D01*
X345000Y376250D02*
X345000Y425000D01*
X345543Y425972D01*
D20*
X520000Y411250D03*
X427500Y277500D03*
X356250Y416250D03*
X357985Y330037D03*
D19*
X366287Y330037D01*
X375000Y338750D01*
X387067Y271670D02*
X392933Y271670D01*
X387067Y271670D02*
X382920Y275817D01*
X430260Y288239D02*
X430949Y288239D01*
X430260Y288239D02*
X422712Y280691D01*
X382920Y305103D02*
X357985Y330037D01*
X382920Y305103D02*
X382920Y275817D01*
X401954Y280691D02*
X422712Y280691D01*
X401954Y280691D02*
X392933Y271670D01*
D20*
X421349Y300281D03*
D19*
X421349Y297840D01*
X430949Y288239D01*
D20*
X480774Y343371D03*
X313597Y448948D03*
X292353Y355134D03*
D19*
X313597Y448948D02*
X313597Y453400D01*
X292353Y414351D02*
X292353Y355134D01*
X292353Y414351D02*
X289495Y417209D01*
X313597Y453400D02*
X304917Y462080D01*
X295817Y462080D01*
X289495Y455758D01*
X289495Y417209D01*
D20*
X379395Y288118D03*
D19*
X375624Y291889D01*
X375624Y298287D01*
D20*
X302087Y401956D03*
D19*
X314170Y389874D01*
X357985Y340752D02*
X357985Y330037D01*
X314170Y384567D02*
X314170Y389874D01*
X314170Y384567D02*
X357985Y340752D01*
X506726Y425725D02*
X506731Y425927D01*
D20*
X407617Y408447D03*
X506731Y425927D03*
X363750Y368750D03*
D19*
X479505Y327134D02*
X488257Y327134D01*
X491848Y323543D01*
X491848Y321915D01*
D20*
X491848Y321915D03*
X511030Y334952D03*
D19*
X435164Y308491D02*
X419430Y308491D01*
X414218Y303279D01*
X414218Y291970D01*
X417949Y288239D01*
X435164Y308491D02*
X438268Y305387D01*
X438268Y266441D01*
X438268Y256959D01*
X428295Y256959D01*
X418518Y266736D01*
X438268Y266441D02*
X442239Y266441D01*
X443855Y264825D01*
D20*
X443855Y264825D03*
X415331Y322123D03*
D19*
X490000Y421751D02*
X485747Y426004D01*
X490000Y421751D02*
X490000Y412500D01*
X489751Y412369D01*
D20*
X452500Y352500D03*
X485747Y426004D03*
D19*
X315000Y437493D02*
X298481Y454012D01*
X298481Y454731D01*
X298750Y455000D01*
X315000Y437493D02*
X315000Y426250D01*
X315543Y425972D01*
D20*
X298750Y455000D03*
X350794Y300012D03*
D19*
X347481Y303326D01*
X321224Y329583D02*
X301207Y349600D01*
X301207Y360559D01*
D20*
X301207Y360559D03*
D19*
X339419Y303326D02*
X347481Y303326D01*
X321224Y321521D02*
X321224Y329583D01*
X321224Y321521D02*
X339419Y303326D01*
X508480Y397500D02*
X509431Y398450D01*
X508480Y397500D02*
X503750Y397500D01*
X500000Y401250D01*
X500000Y411250D01*
X499751Y412369D01*
D20*
X462500Y357500D03*
X509431Y398450D03*
D19*
X480000Y419764D02*
X475297Y424467D01*
X475297Y426121D01*
X480000Y419764D02*
X480000Y412500D01*
X479751Y412369D01*
D20*
X406508Y328333D03*
X475297Y426121D03*
X403750Y316250D03*
X385000Y326250D03*
X436390Y350632D03*
X381250Y351250D03*
X506870Y312569D03*
X367500Y352500D03*
X386335Y411602D03*
D19*
X458506Y386006D02*
X465000Y392500D01*
X458506Y386006D02*
X421006Y386006D01*
X407500Y372500D01*
X407500Y366250D01*
X407194Y365287D01*
D20*
X465000Y392500D03*
X496289Y425925D03*
X356250Y402500D03*
D19*
X426250Y365000D02*
X426250Y351250D01*
X426250Y365000D02*
X427194Y365287D01*
D20*
X452500Y377500D03*
X426250Y351250D03*
D19*
X426250Y378893D02*
X425574Y378893D01*
X417500Y370818D01*
X417500Y366250D01*
X417194Y365287D01*
D20*
X426250Y378893D03*
D19*
X436042Y366438D02*
X437194Y365287D01*
X436042Y377737D02*
X437053Y378748D01*
X436042Y377737D02*
X436042Y366438D01*
D20*
X437053Y378748D03*
D19*
X417500Y411250D02*
X393750Y435000D01*
X393750Y438750D01*
X393604Y439191D01*
D20*
X417500Y411250D03*
X427500Y340000D03*
D19*
X545000Y308750D02*
X547500Y311250D01*
X552500Y311250D01*
X558750Y317500D01*
X558750Y326250D01*
X557500Y326250D02*
X545000Y326250D01*
X557500Y326250D02*
X558750Y326250D01*
X545000Y308750D02*
X544428Y308178D01*
X545000Y326250D02*
X544428Y327178D01*
X326250Y426250D02*
X326250Y449544D01*
X326250Y460080D01*
X448602Y462648D02*
X460816Y450434D01*
X460816Y417500D01*
X462500Y417500D01*
X470000Y410000D01*
X470000Y398750D01*
X472500Y398750D01*
X475000Y396250D01*
X486250Y396250D01*
X510000Y372500D01*
X510000Y366749D01*
X535213Y341536D02*
X535213Y336393D01*
X544428Y327178D01*
X535213Y341536D02*
X510000Y366749D01*
X326250Y426250D02*
X325543Y425972D01*
D20*
X557500Y326250D03*
D19*
X343997Y449237D02*
X343997Y449260D01*
X325543Y425972D02*
X325543Y413238D01*
X323714Y411409D01*
D20*
X323714Y411409D03*
D19*
X326250Y460080D02*
X328818Y462648D01*
X448602Y462648D01*
X343997Y449260D02*
X343713Y449544D01*
X326250Y449544D01*
X444832Y338906D02*
X445318Y328701D01*
D20*
X444832Y338906D03*
X457787Y310256D03*
D19*
X452984Y315582D02*
X445154Y315582D01*
X443221Y313649D01*
X443221Y308491D01*
X457787Y310256D02*
X457787Y310779D01*
X452984Y315582D01*
X445164Y308491D02*
X443221Y308491D01*
X469505Y318497D02*
X469505Y327134D01*
X469505Y318497D02*
X473169Y314833D01*
X474340Y314833D01*
X480474Y308699D01*
X298544Y443885D02*
X295000Y440341D01*
X295000Y426250D01*
X295543Y425972D01*
D20*
X298544Y443885D03*
D19*
X305000Y418750D02*
X312500Y411250D01*
X305000Y418750D02*
X305000Y425000D01*
X305543Y425972D01*
D20*
X476812Y353013D03*
X312500Y411250D03*
M02*
