G04 EAGLE Gerber RS-274X export*
G75*
%MOMM*%
%FSLAX34Y34*%
%LPD*%
%IN*%
%IPPOS*%
%AMOC8*
5,1,8,0,0,1.08239X$1,22.5*%
G01*
%ADD10C,0.254000*%


D10*
X234546Y428328D02*
X235227Y423151D01*
X267074Y372640D01*
X331288Y301229D01*
X408194Y249257D01*
X416555Y245760D01*
X435247Y242008D01*
X474292Y242008D01*
X474546Y222850D01*
X474887Y220262D01*
X475886Y217850D01*
X477475Y215779D01*
X479546Y214190D01*
X481958Y213191D01*
X484546Y212850D01*
X529546Y212850D01*
X532134Y213191D01*
X534546Y214190D01*
X536617Y215779D01*
X538206Y217850D01*
X539205Y220262D01*
X539546Y222850D01*
X539546Y257850D01*
X539850Y260159D01*
X540078Y260710D01*
X540344Y261171D01*
X543677Y265317D01*
X545270Y266773D01*
X545447Y266883D01*
X546958Y267509D01*
X549546Y267850D01*
X614546Y267850D01*
X617134Y268191D01*
X619546Y269190D01*
X621617Y270779D01*
X623206Y272850D01*
X624205Y275262D01*
X624546Y277850D01*
X624546Y367850D01*
X624205Y370438D01*
X623206Y372850D01*
X621617Y374921D01*
X619546Y376510D01*
X617134Y377509D01*
X614546Y377850D01*
X549546Y377850D01*
X546958Y378191D01*
X544546Y379190D01*
X542475Y380779D01*
X540886Y382850D01*
X539887Y385262D01*
X539546Y387850D01*
X539546Y422850D01*
X539205Y425438D01*
X538206Y427850D01*
X536617Y429921D01*
X533426Y432734D01*
X531014Y433733D01*
X530684Y433797D01*
X475684Y433797D01*
X472804Y433762D01*
X470392Y434761D01*
X467475Y435779D01*
X465886Y437850D01*
X464887Y440262D01*
X464546Y442850D01*
X464546Y457850D01*
X464205Y460438D01*
X463206Y462850D01*
X461617Y464921D01*
X457743Y469426D01*
X455331Y470425D01*
X454457Y470837D01*
X244457Y470837D01*
X243982Y470717D01*
X241570Y469718D01*
X237475Y464921D01*
X235886Y462850D01*
X234887Y460438D01*
X234546Y457850D01*
X234546Y428328D01*
X254046Y447850D02*
X254404Y445132D01*
X255453Y442600D01*
X257121Y440425D01*
X259296Y438757D01*
X261828Y437708D01*
X264546Y437350D01*
X267264Y437708D01*
X269796Y438757D01*
X271971Y440425D01*
X273639Y442600D01*
X274688Y445132D01*
X275046Y447850D01*
X274956Y449220D01*
X274688Y450567D01*
X273639Y453100D01*
X271971Y455274D01*
X269796Y456943D01*
X267264Y457992D01*
X264546Y458350D01*
X261828Y457992D01*
X259296Y456943D01*
X257121Y455274D01*
X255453Y453100D01*
X254404Y450567D01*
X254046Y447850D01*
X496286Y237360D02*
X496644Y234642D01*
X497693Y232110D01*
X499361Y229935D01*
X501536Y228267D01*
X504068Y227218D01*
X506786Y226860D01*
X509504Y227218D01*
X512036Y228267D01*
X514211Y229935D01*
X515879Y232110D01*
X516928Y234642D01*
X517286Y237360D01*
X517196Y238730D01*
X516928Y240077D01*
X515879Y242610D01*
X514211Y244784D01*
X512036Y246453D01*
X509504Y247502D01*
X506786Y247860D01*
X504068Y247502D01*
X501536Y246453D01*
X499361Y244784D01*
X497693Y242610D01*
X496644Y240077D01*
X496286Y237360D01*
X575407Y340041D02*
X575862Y340101D01*
X576305Y340219D01*
X576729Y340395D01*
X577126Y340624D01*
X577490Y340904D01*
X577814Y341228D01*
X578094Y341592D01*
X578323Y341990D01*
X578499Y342413D01*
X578617Y342857D01*
X578677Y343311D01*
X578677Y343770D01*
X578617Y344225D01*
X578499Y344668D01*
X578323Y345092D01*
X578094Y345490D01*
X577814Y345854D01*
X577490Y346178D01*
X577126Y346457D01*
X576729Y346687D01*
X576305Y346862D01*
X575862Y346981D01*
X575407Y347041D01*
X574948Y347041D01*
X574493Y346981D01*
X574050Y346862D01*
X573626Y346687D01*
X573229Y346457D01*
X572865Y346178D01*
X572540Y345854D01*
X572261Y345490D01*
X572032Y345092D01*
X571856Y344668D01*
X571737Y344225D01*
X571677Y343770D01*
X571677Y343311D01*
X571737Y342857D01*
X571856Y342413D01*
X572032Y341990D01*
X572261Y341592D01*
X572540Y341228D01*
X572865Y340904D01*
X573229Y340624D01*
X573626Y340395D01*
X574050Y340219D01*
X574493Y340101D01*
X574948Y340041D01*
X575407Y340041D01*
X575407Y298541D02*
X575862Y298601D01*
X576305Y298719D01*
X576729Y298895D01*
X577126Y299124D01*
X577490Y299404D01*
X577814Y299728D01*
X578094Y300092D01*
X578323Y300490D01*
X578499Y300913D01*
X578617Y301357D01*
X578677Y301811D01*
X578677Y302270D01*
X578617Y302725D01*
X578499Y303168D01*
X578323Y303592D01*
X578094Y303990D01*
X577814Y304354D01*
X577490Y304678D01*
X577126Y304957D01*
X576729Y305187D01*
X576305Y305362D01*
X575862Y305481D01*
X575407Y305541D01*
X574948Y305541D01*
X574493Y305481D01*
X574050Y305362D01*
X573626Y305187D01*
X573229Y304957D01*
X572865Y304678D01*
X572540Y304354D01*
X572261Y303990D01*
X572032Y303592D01*
X571856Y303168D01*
X571737Y302725D01*
X571677Y302270D01*
X571677Y301811D01*
X571737Y301357D01*
X571856Y300913D01*
X572032Y300490D01*
X572261Y300092D01*
X572540Y299728D01*
X572865Y299404D01*
X573229Y299124D01*
X573626Y298895D01*
X574050Y298719D01*
X574493Y298601D01*
X574948Y298541D01*
X575407Y298541D01*
M02*
