G04 EAGLE Gerber RS-274X export*
G75*
%MOMM*%
%FSLAX34Y34*%
%LPD*%
%INSolderpaste Top*%
%IPPOS*%
%AMOC8*
5,1,8,0,0,1.08239X$1,22.5*%
G01*
%ADD10R,0.350000X0.350000*%
%ADD11C,0.145000*%
%ADD12R,0.600000X1.500000*%
%ADD13R,1.200000X1.800000*%
%ADD14R,1.000000X1.000000*%
%ADD15R,0.700000X0.900000*%


D10*
X435164Y308491D03*
X445164Y308491D03*
X479505Y327134D03*
X469505Y327134D03*
D11*
X538203Y310353D02*
X550653Y310353D01*
X550653Y306003D01*
X538203Y306003D01*
X538203Y310353D01*
X538203Y307380D02*
X550653Y307380D01*
X550653Y308757D02*
X538203Y308757D01*
X538203Y310134D02*
X550653Y310134D01*
X550653Y319853D02*
X538203Y319853D01*
X550653Y319853D02*
X550653Y315503D01*
X538203Y315503D01*
X538203Y319853D01*
X538203Y316880D02*
X550653Y316880D01*
X550653Y318257D02*
X538203Y318257D01*
X538203Y319634D02*
X550653Y319634D01*
X550653Y329353D02*
X538203Y329353D01*
X550653Y329353D02*
X550653Y325003D01*
X538203Y325003D01*
X538203Y329353D01*
X538203Y326380D02*
X550653Y326380D01*
X550653Y327757D02*
X538203Y327757D01*
X538203Y329134D02*
X550653Y329134D01*
X527353Y329353D02*
X514903Y329353D01*
X527353Y329353D02*
X527353Y325003D01*
X514903Y325003D01*
X514903Y329353D01*
X514903Y326380D02*
X527353Y326380D01*
X527353Y327757D02*
X514903Y327757D01*
X514903Y329134D02*
X527353Y329134D01*
X527353Y310353D02*
X514903Y310353D01*
X527353Y310353D02*
X527353Y306003D01*
X514903Y306003D01*
X514903Y310353D01*
X514903Y307380D02*
X527353Y307380D01*
X527353Y308757D02*
X514903Y308757D01*
X514903Y310134D02*
X527353Y310134D01*
D12*
X295543Y425972D03*
X305543Y425972D03*
X315543Y425972D03*
X325543Y425972D03*
X335543Y425972D03*
X345543Y425972D03*
D13*
X282543Y386972D03*
X358543Y386972D03*
D12*
X479751Y412369D03*
X489751Y412369D03*
X499751Y412369D03*
X509751Y412369D03*
D13*
X466751Y373369D03*
X522751Y373369D03*
D12*
X437194Y365287D03*
X427194Y365287D03*
X417194Y365287D03*
X407194Y365287D03*
X397194Y365287D03*
X387194Y365287D03*
D13*
X450194Y404287D03*
X374194Y404287D03*
D14*
X391624Y298287D03*
X375624Y298287D03*
X375624Y338287D03*
X391624Y338287D03*
D15*
X432318Y328701D03*
X445318Y328701D03*
X493474Y308699D03*
X480474Y308699D03*
X418518Y266736D03*
X431518Y266736D03*
X417949Y288239D03*
X430949Y288239D03*
X541086Y285626D03*
X554086Y285626D03*
M02*
