G04 EAGLE Gerber RS-274X export*
G75*
%MOMM*%
%FSLAX34Y34*%
%LPD*%
%INSoldermask Top*%
%IPPOS*%
%AMOC8*
5,1,8,0,0,1.08239X$1,22.5*%
G01*
%ADD10C,2.082800*%
%ADD11R,0.553200X0.553200*%
%ADD12R,0.375000X0.350000*%
%ADD13R,0.500000X0.800000*%
%ADD14R,0.350000X0.350000*%
%ADD15C,0.344606*%
%ADD16R,0.803200X1.703200*%
%ADD17R,1.403200X2.003200*%
%ADD18C,1.611200*%
%ADD19R,1.203200X1.203200*%
%ADD20R,0.903200X1.103200*%
%ADD21C,0.903200*%
%ADD22C,1.009600*%


D10*
X368204Y429793D02*
X368204Y448589D01*
X393604Y448589D02*
X393604Y429793D01*
X419004Y429793D02*
X419004Y448589D01*
X444404Y448589D02*
X444404Y429793D01*
D11*
X435164Y308491D03*
X445164Y308491D03*
D12*
X445289Y308491D03*
D13*
X448914Y308491D03*
X431414Y308491D03*
D14*
X435164Y308491D03*
D11*
X479505Y327134D03*
X469505Y327134D03*
D12*
X469380Y327134D03*
D13*
X465755Y327134D03*
X483255Y327134D03*
D14*
X479505Y327134D03*
D15*
X538185Y310371D02*
X550671Y310371D01*
X550671Y305985D01*
X538185Y305985D01*
X538185Y310371D01*
X538185Y309259D02*
X550671Y309259D01*
X550671Y319871D02*
X538185Y319871D01*
X550671Y319871D02*
X550671Y315485D01*
X538185Y315485D01*
X538185Y319871D01*
X538185Y318759D02*
X550671Y318759D01*
X550671Y329371D02*
X538185Y329371D01*
X550671Y329371D02*
X550671Y324985D01*
X538185Y324985D01*
X538185Y329371D01*
X538185Y328259D02*
X550671Y328259D01*
X527371Y329371D02*
X514885Y329371D01*
X527371Y329371D02*
X527371Y324985D01*
X514885Y324985D01*
X514885Y329371D01*
X514885Y328259D02*
X527371Y328259D01*
X527371Y310371D02*
X514885Y310371D01*
X527371Y310371D02*
X527371Y305985D01*
X514885Y305985D01*
X514885Y310371D01*
X514885Y309259D02*
X527371Y309259D01*
D16*
X295543Y425972D03*
X305543Y425972D03*
X315543Y425972D03*
X325543Y425972D03*
X335543Y425972D03*
X345543Y425972D03*
D17*
X282543Y386972D03*
X358543Y386972D03*
D16*
X479751Y412369D03*
X489751Y412369D03*
X499751Y412369D03*
X509751Y412369D03*
D17*
X466751Y373369D03*
X522751Y373369D03*
D18*
X463525Y272730D03*
X463525Y292730D03*
X483525Y272730D03*
X483525Y292730D03*
X503525Y272730D03*
X503525Y292730D03*
X523525Y272730D03*
X523525Y292730D03*
D16*
X437194Y365287D03*
X427194Y365287D03*
X417194Y365287D03*
X407194Y365287D03*
X397194Y365287D03*
X387194Y365287D03*
D17*
X450194Y404287D03*
X374194Y404287D03*
D19*
X391624Y298287D03*
X375624Y298287D03*
X375624Y338287D03*
X391624Y338287D03*
D20*
X432318Y328701D03*
X445318Y328701D03*
X493474Y308699D03*
X480474Y308699D03*
X418518Y266736D03*
X431518Y266736D03*
X417949Y288239D03*
X430949Y288239D03*
X541086Y285626D03*
X554086Y285626D03*
D21*
X575177Y343541D03*
X575177Y302041D03*
D22*
X482500Y388750D03*
X511250Y386250D03*
X352500Y356250D03*
X344051Y311683D03*
X550000Y347500D03*
X408750Y267500D03*
X535498Y376782D03*
X482500Y377500D03*
X406250Y292500D03*
X321250Y390000D03*
X481977Y362119D03*
X414748Y401267D03*
X328750Y382500D03*
X390000Y278750D03*
X542500Y340000D03*
X520000Y411250D03*
X427500Y277500D03*
X356250Y416250D03*
X357985Y330037D03*
X421349Y300281D03*
X480774Y343371D03*
X313597Y448948D03*
X292353Y355134D03*
X379395Y288118D03*
X302087Y401956D03*
X407617Y408447D03*
X506731Y425927D03*
X363750Y368750D03*
X491848Y321915D03*
X511030Y334952D03*
X443855Y264825D03*
X415331Y322123D03*
X452500Y352500D03*
X485747Y426004D03*
X298750Y455000D03*
X350794Y300012D03*
X301207Y360559D03*
X462500Y357500D03*
X509431Y398450D03*
X406508Y328333D03*
X475297Y426121D03*
X403750Y316250D03*
X385000Y326250D03*
X436390Y350632D03*
X381250Y351250D03*
X506870Y312569D03*
X367500Y352500D03*
X386335Y411602D03*
X465000Y392500D03*
X496289Y425925D03*
X356250Y402500D03*
X452500Y377500D03*
X426250Y351250D03*
X426250Y378893D03*
X437053Y378748D03*
X417500Y411250D03*
X427500Y340000D03*
X557500Y326250D03*
X323714Y411409D03*
X444832Y338906D03*
X457787Y310256D03*
X298544Y443885D03*
X476812Y353013D03*
X312500Y411250D03*
M02*
