G04 EAGLE Gerber RS-274X export*
G75*
%MOMM*%
%FSLAX34Y34*%
%LPD*%
%INSolderpaste Bottom*%
%IPPOS*%
%AMOC8*
5,1,8,0,0,1.08239X$1,22.5*%
G01*
%ADD10R,1.475000X0.300000*%
%ADD11R,0.300000X1.475000*%
%ADD12R,1.600200X1.168400*%
%ADD13R,1.905000X1.092200*%
%ADD14R,1.950000X2.950000*%
%ADD15R,0.700000X0.900000*%
%ADD16R,0.900000X0.700000*%
%ADD17R,1.350000X0.400000*%
%ADD18R,1.900000X1.900000*%
%ADD19R,1.300000X1.500000*%
%ADD20R,1.600000X2.700000*%


D10*
X496949Y393593D03*
X496949Y388593D03*
X496949Y383593D03*
X496949Y378593D03*
X496949Y373593D03*
X496949Y368593D03*
X496949Y363593D03*
X496949Y358593D03*
X496949Y353593D03*
X496949Y348593D03*
X496949Y343593D03*
X496949Y338593D03*
D11*
X482069Y323713D03*
X477069Y323713D03*
X472069Y323713D03*
X467069Y323713D03*
X462069Y323713D03*
X457069Y323713D03*
X452069Y323713D03*
X447069Y323713D03*
X442069Y323713D03*
X437069Y323713D03*
X432069Y323713D03*
X427069Y323713D03*
D10*
X412189Y338593D03*
X412189Y343593D03*
X412189Y348593D03*
X412189Y353593D03*
X412189Y358593D03*
X412189Y363593D03*
X412189Y368593D03*
X412189Y373593D03*
X412189Y378593D03*
X412189Y383593D03*
X412189Y388593D03*
X412189Y393593D03*
D11*
X427069Y408473D03*
X432069Y408473D03*
X437069Y408473D03*
X442069Y408473D03*
X447069Y408473D03*
X452069Y408473D03*
X457069Y408473D03*
X462069Y408473D03*
X467069Y408473D03*
X472069Y408473D03*
X477069Y408473D03*
X482069Y408473D03*
D12*
X380218Y363258D03*
X380218Y378498D03*
X380218Y393738D03*
D13*
X405760Y304160D03*
X405760Y279776D03*
D14*
X339528Y422770D03*
X296528Y422770D03*
D15*
X519369Y348038D03*
X532369Y348038D03*
X534393Y330977D03*
X521393Y330977D03*
X536014Y313522D03*
X523014Y313522D03*
X357723Y340949D03*
X370723Y340949D03*
X373378Y319400D03*
X360378Y319400D03*
X378008Y301541D03*
X365008Y301541D03*
X310297Y393510D03*
X297297Y393510D03*
X310660Y373212D03*
X297660Y373212D03*
X348031Y393573D03*
X335031Y393573D03*
X350386Y373840D03*
X337386Y373840D03*
X519140Y365938D03*
X532140Y365938D03*
D16*
X438864Y290876D03*
X438864Y277876D03*
D17*
X572927Y335791D03*
X572927Y329291D03*
X572927Y322791D03*
X572927Y316291D03*
X572927Y309791D03*
D18*
X599677Y363291D03*
X599677Y334791D03*
X599677Y310791D03*
X599677Y282291D03*
D19*
X343028Y452709D03*
X326028Y452709D03*
D20*
G36*
X340392Y343473D02*
X350655Y331199D01*
X329942Y313881D01*
X319679Y326155D01*
X340392Y343473D01*
G37*
G36*
X322432Y364954D02*
X332695Y352680D01*
X311982Y335362D01*
X301719Y347636D01*
X322432Y364954D01*
G37*
M02*
