%TF.GenerationSoftware,KiCad,Pcbnew,(5.1.6)-1*%
%TF.CreationDate,2020-11-01T11:06:05+05:30*%
%TF.ProjectId,PZYEMD011,505a5945-4d44-4303-9131-2e6b69636164,rev?*%
%TF.SameCoordinates,Original*%
%TF.FileFunction,Soldermask,Top*%
%TF.FilePolarity,Negative*%
%FSLAX46Y46*%
G04 Gerber Fmt 4.6, Leading zero omitted, Abs format (unit mm)*
G04 Created by KiCad (PCBNEW (5.1.6)-1) date 2020-11-01 11:06:05*
%MOMM*%
%LPD*%
G01*
G04 APERTURE LIST*
%ADD10R,1.800000X1.800000*%
%ADD11O,1.800000X1.800000*%
%ADD12C,0.100000*%
%ADD13R,2.400000X2.400000*%
%ADD14C,3.300000*%
%ADD15R,0.750000X1.160000*%
%ADD16C,1.800000*%
%ADD17R,2.650000X1.500000*%
%ADD18R,1.500000X1.450000*%
%ADD19R,1.600000X1.600000*%
%ADD20R,1.160000X0.750000*%
%ADD21R,1.900000X1.100000*%
%ADD22R,1.300000X1.500000*%
%ADD23O,1.800000X2.100000*%
%ADD24R,2.300000X1.300000*%
%ADD25R,6.500000X5.900000*%
%ADD26R,0.900000X1.000000*%
%ADD27R,1.900000X2.600000*%
%ADD28R,2.000000X2.000000*%
%ADD29C,0.700000*%
%ADD30R,2.200000X0.500000*%
%ADD31O,2.250000X1.100000*%
%ADD32R,1.100000X1.500000*%
%ADD33C,0.254000*%
G04 APERTURE END LIST*
D10*
%TO.C,J9*%
X132500000Y-130000000D03*
D11*
X132500000Y-132540000D03*
%TD*%
D10*
%TO.C,J11*%
X117050000Y-130000000D03*
D11*
X117050000Y-132540000D03*
%TD*%
D12*
%TO.C,JP3*%
G36*
X102799398Y-112656111D02*
G01*
X102799398Y-112674534D01*
X102799157Y-112679435D01*
X102794347Y-112728266D01*
X102793627Y-112733119D01*
X102784055Y-112781244D01*
X102782863Y-112786005D01*
X102768619Y-112832960D01*
X102766966Y-112837579D01*
X102748189Y-112882912D01*
X102746091Y-112887349D01*
X102722960Y-112930622D01*
X102720438Y-112934829D01*
X102693178Y-112975628D01*
X102690254Y-112979570D01*
X102659126Y-113017499D01*
X102655831Y-113021134D01*
X102621134Y-113055831D01*
X102617499Y-113059126D01*
X102579570Y-113090254D01*
X102575628Y-113093178D01*
X102534829Y-113120438D01*
X102530622Y-113122960D01*
X102487349Y-113146091D01*
X102482912Y-113148189D01*
X102437579Y-113166966D01*
X102432960Y-113168619D01*
X102386005Y-113182863D01*
X102381244Y-113184055D01*
X102333119Y-113193627D01*
X102328266Y-113194347D01*
X102279435Y-113199157D01*
X102274534Y-113199398D01*
X102256111Y-113199398D01*
X102250000Y-113200000D01*
X101750000Y-113200000D01*
X101743889Y-113199398D01*
X101725466Y-113199398D01*
X101720565Y-113199157D01*
X101671734Y-113194347D01*
X101666881Y-113193627D01*
X101618756Y-113184055D01*
X101613995Y-113182863D01*
X101567040Y-113168619D01*
X101562421Y-113166966D01*
X101517088Y-113148189D01*
X101512651Y-113146091D01*
X101469378Y-113122960D01*
X101465171Y-113120438D01*
X101424372Y-113093178D01*
X101420430Y-113090254D01*
X101382501Y-113059126D01*
X101378866Y-113055831D01*
X101344169Y-113021134D01*
X101340874Y-113017499D01*
X101309746Y-112979570D01*
X101306822Y-112975628D01*
X101279562Y-112934829D01*
X101277040Y-112930622D01*
X101253909Y-112887349D01*
X101251811Y-112882912D01*
X101233034Y-112837579D01*
X101231381Y-112832960D01*
X101217137Y-112786005D01*
X101215945Y-112781244D01*
X101206373Y-112733119D01*
X101205653Y-112728266D01*
X101200843Y-112679435D01*
X101200602Y-112674534D01*
X101200602Y-112656111D01*
X101200000Y-112650000D01*
X101200000Y-112150000D01*
X101200961Y-112140245D01*
X101203806Y-112130866D01*
X101208427Y-112122221D01*
X101214645Y-112114645D01*
X101222221Y-112108427D01*
X101230866Y-112103806D01*
X101240245Y-112100961D01*
X101250000Y-112100000D01*
X102750000Y-112100000D01*
X102759755Y-112100961D01*
X102769134Y-112103806D01*
X102777779Y-112108427D01*
X102785355Y-112114645D01*
X102791573Y-112122221D01*
X102796194Y-112130866D01*
X102799039Y-112140245D01*
X102800000Y-112150000D01*
X102800000Y-112650000D01*
X102799398Y-112656111D01*
G37*
G36*
X102799039Y-111859755D02*
G01*
X102796194Y-111869134D01*
X102791573Y-111877779D01*
X102785355Y-111885355D01*
X102777779Y-111891573D01*
X102769134Y-111896194D01*
X102759755Y-111899039D01*
X102750000Y-111900000D01*
X101250000Y-111900000D01*
X101240245Y-111899039D01*
X101230866Y-111896194D01*
X101222221Y-111891573D01*
X101214645Y-111885355D01*
X101208427Y-111877779D01*
X101203806Y-111869134D01*
X101200961Y-111859755D01*
X101200000Y-111850000D01*
X101200000Y-111350000D01*
X101200602Y-111343889D01*
X101200602Y-111325466D01*
X101200843Y-111320565D01*
X101205653Y-111271734D01*
X101206373Y-111266881D01*
X101215945Y-111218756D01*
X101217137Y-111213995D01*
X101231381Y-111167040D01*
X101233034Y-111162421D01*
X101251811Y-111117088D01*
X101253909Y-111112651D01*
X101277040Y-111069378D01*
X101279562Y-111065171D01*
X101306822Y-111024372D01*
X101309746Y-111020430D01*
X101340874Y-110982501D01*
X101344169Y-110978866D01*
X101378866Y-110944169D01*
X101382501Y-110940874D01*
X101420430Y-110909746D01*
X101424372Y-110906822D01*
X101465171Y-110879562D01*
X101469378Y-110877040D01*
X101512651Y-110853909D01*
X101517088Y-110851811D01*
X101562421Y-110833034D01*
X101567040Y-110831381D01*
X101613995Y-110817137D01*
X101618756Y-110815945D01*
X101666881Y-110806373D01*
X101671734Y-110805653D01*
X101720565Y-110800843D01*
X101725466Y-110800602D01*
X101743889Y-110800602D01*
X101750000Y-110800000D01*
X102250000Y-110800000D01*
X102256111Y-110800602D01*
X102274534Y-110800602D01*
X102279435Y-110800843D01*
X102328266Y-110805653D01*
X102333119Y-110806373D01*
X102381244Y-110815945D01*
X102386005Y-110817137D01*
X102432960Y-110831381D01*
X102437579Y-110833034D01*
X102482912Y-110851811D01*
X102487349Y-110853909D01*
X102530622Y-110877040D01*
X102534829Y-110879562D01*
X102575628Y-110906822D01*
X102579570Y-110909746D01*
X102617499Y-110940874D01*
X102621134Y-110944169D01*
X102655831Y-110978866D01*
X102659126Y-110982501D01*
X102690254Y-111020430D01*
X102693178Y-111024372D01*
X102720438Y-111065171D01*
X102722960Y-111069378D01*
X102746091Y-111112651D01*
X102748189Y-111117088D01*
X102766966Y-111162421D01*
X102768619Y-111167040D01*
X102782863Y-111213995D01*
X102784055Y-111218756D01*
X102793627Y-111266881D01*
X102794347Y-111271734D01*
X102799157Y-111320565D01*
X102799398Y-111325466D01*
X102799398Y-111343889D01*
X102800000Y-111350000D01*
X102800000Y-111850000D01*
X102799039Y-111859755D01*
G37*
%TD*%
D11*
%TO.C,J14*%
X93960000Y-114000000D03*
D10*
X96500000Y-114000000D03*
%TD*%
%TO.C,R14*%
G36*
G01*
X97200000Y-87887500D02*
X97200000Y-88412500D01*
G75*
G02*
X96937500Y-88675000I-262500J0D01*
G01*
X96312500Y-88675000D01*
G75*
G02*
X96050000Y-88412500I0J262500D01*
G01*
X96050000Y-87887500D01*
G75*
G02*
X96312500Y-87625000I262500J0D01*
G01*
X96937500Y-87625000D01*
G75*
G02*
X97200000Y-87887500I0J-262500D01*
G01*
G37*
G36*
G01*
X95450000Y-87887500D02*
X95450000Y-88412500D01*
G75*
G02*
X95187500Y-88675000I-262500J0D01*
G01*
X94562500Y-88675000D01*
G75*
G02*
X94300000Y-88412500I0J262500D01*
G01*
X94300000Y-87887500D01*
G75*
G02*
X94562500Y-87625000I262500J0D01*
G01*
X95187500Y-87625000D01*
G75*
G02*
X95450000Y-87887500I0J-262500D01*
G01*
G37*
%TD*%
%TO.C,R15*%
G36*
G01*
X95450000Y-85387500D02*
X95450000Y-85912500D01*
G75*
G02*
X95187500Y-86175000I-262500J0D01*
G01*
X94562500Y-86175000D01*
G75*
G02*
X94300000Y-85912500I0J262500D01*
G01*
X94300000Y-85387500D01*
G75*
G02*
X94562500Y-85125000I262500J0D01*
G01*
X95187500Y-85125000D01*
G75*
G02*
X95450000Y-85387500I0J-262500D01*
G01*
G37*
G36*
G01*
X97200000Y-85387500D02*
X97200000Y-85912500D01*
G75*
G02*
X96937500Y-86175000I-262500J0D01*
G01*
X96312500Y-86175000D01*
G75*
G02*
X96050000Y-85912500I0J262500D01*
G01*
X96050000Y-85387500D01*
G75*
G02*
X96312500Y-85125000I262500J0D01*
G01*
X96937500Y-85125000D01*
G75*
G02*
X97200000Y-85387500I0J-262500D01*
G01*
G37*
%TD*%
D12*
%TO.C,U2*%
G36*
X111965809Y-79249759D02*
G01*
X111956054Y-79248798D01*
X111946442Y-79246886D01*
X111937063Y-79244041D01*
X111928007Y-79240290D01*
X111919362Y-79235669D01*
X111911211Y-79230222D01*
X111903635Y-79224004D01*
X111900001Y-79220710D01*
X111829290Y-79149999D01*
X111825996Y-79146365D01*
X111819778Y-79138789D01*
X111814331Y-79130638D01*
X111809710Y-79121993D01*
X111805959Y-79112937D01*
X111803114Y-79103558D01*
X111801202Y-79093946D01*
X111800241Y-79084191D01*
X111800000Y-79079289D01*
X111800000Y-79050000D01*
X111800241Y-79045098D01*
X111801202Y-79035343D01*
X111803114Y-79025731D01*
X111805959Y-79016352D01*
X111809710Y-79007296D01*
X111814331Y-78998651D01*
X111819778Y-78990500D01*
X111825996Y-78982924D01*
X111832924Y-78975996D01*
X111840500Y-78969778D01*
X111848651Y-78964331D01*
X111857296Y-78959710D01*
X111866352Y-78955959D01*
X111875731Y-78953114D01*
X111885343Y-78951202D01*
X111895098Y-78950241D01*
X111900000Y-78950000D01*
X112600000Y-78950000D01*
X112604902Y-78950241D01*
X112614657Y-78951202D01*
X112624269Y-78953114D01*
X112633648Y-78955959D01*
X112642704Y-78959710D01*
X112651349Y-78964331D01*
X112659500Y-78969778D01*
X112667076Y-78975996D01*
X112674004Y-78982924D01*
X112680222Y-78990500D01*
X112685669Y-78998651D01*
X112690290Y-79007296D01*
X112694041Y-79016352D01*
X112696886Y-79025731D01*
X112698798Y-79035343D01*
X112699759Y-79045098D01*
X112700000Y-79050000D01*
X112700000Y-79150000D01*
X112699759Y-79154902D01*
X112698798Y-79164657D01*
X112696886Y-79174269D01*
X112694041Y-79183648D01*
X112690290Y-79192704D01*
X112685669Y-79201349D01*
X112680222Y-79209500D01*
X112674004Y-79217076D01*
X112667076Y-79224004D01*
X112659500Y-79230222D01*
X112651349Y-79235669D01*
X112642704Y-79240290D01*
X112633648Y-79244041D01*
X112624269Y-79246886D01*
X112614657Y-79248798D01*
X112604902Y-79249759D01*
X112600000Y-79250000D01*
X111970711Y-79250000D01*
X111965809Y-79249759D01*
G37*
G36*
G01*
X112700000Y-78625000D02*
X112700000Y-78775000D01*
G75*
G02*
X112625000Y-78850000I-75000J0D01*
G01*
X111875000Y-78850000D01*
G75*
G02*
X111800000Y-78775000I0J75000D01*
G01*
X111800000Y-78625000D01*
G75*
G02*
X111875000Y-78550000I75000J0D01*
G01*
X112625000Y-78550000D01*
G75*
G02*
X112700000Y-78625000I0J-75000D01*
G01*
G37*
G36*
G01*
X112700000Y-78225000D02*
X112700000Y-78375000D01*
G75*
G02*
X112625000Y-78450000I-75000J0D01*
G01*
X111875000Y-78450000D01*
G75*
G02*
X111800000Y-78375000I0J75000D01*
G01*
X111800000Y-78225000D01*
G75*
G02*
X111875000Y-78150000I75000J0D01*
G01*
X112625000Y-78150000D01*
G75*
G02*
X112700000Y-78225000I0J-75000D01*
G01*
G37*
G36*
G01*
X112700000Y-77825000D02*
X112700000Y-77975000D01*
G75*
G02*
X112625000Y-78050000I-75000J0D01*
G01*
X111875000Y-78050000D01*
G75*
G02*
X111800000Y-77975000I0J75000D01*
G01*
X111800000Y-77825000D01*
G75*
G02*
X111875000Y-77750000I75000J0D01*
G01*
X112625000Y-77750000D01*
G75*
G02*
X112700000Y-77825000I0J-75000D01*
G01*
G37*
G36*
G01*
X112700000Y-77425000D02*
X112700000Y-77575000D01*
G75*
G02*
X112625000Y-77650000I-75000J0D01*
G01*
X111875000Y-77650000D01*
G75*
G02*
X111800000Y-77575000I0J75000D01*
G01*
X111800000Y-77425000D01*
G75*
G02*
X111875000Y-77350000I75000J0D01*
G01*
X112625000Y-77350000D01*
G75*
G02*
X112700000Y-77425000I0J-75000D01*
G01*
G37*
G36*
G01*
X112700000Y-77025000D02*
X112700000Y-77175000D01*
G75*
G02*
X112625000Y-77250000I-75000J0D01*
G01*
X111875000Y-77250000D01*
G75*
G02*
X111800000Y-77175000I0J75000D01*
G01*
X111800000Y-77025000D01*
G75*
G02*
X111875000Y-76950000I75000J0D01*
G01*
X112625000Y-76950000D01*
G75*
G02*
X112700000Y-77025000I0J-75000D01*
G01*
G37*
G36*
G01*
X112700000Y-76625000D02*
X112700000Y-76775000D01*
G75*
G02*
X112625000Y-76850000I-75000J0D01*
G01*
X111875000Y-76850000D01*
G75*
G02*
X111800000Y-76775000I0J75000D01*
G01*
X111800000Y-76625000D01*
G75*
G02*
X111875000Y-76550000I75000J0D01*
G01*
X112625000Y-76550000D01*
G75*
G02*
X112700000Y-76625000I0J-75000D01*
G01*
G37*
G36*
X111895098Y-76449759D02*
G01*
X111885343Y-76448798D01*
X111875731Y-76446886D01*
X111866352Y-76444041D01*
X111857296Y-76440290D01*
X111848651Y-76435669D01*
X111840500Y-76430222D01*
X111832924Y-76424004D01*
X111825996Y-76417076D01*
X111819778Y-76409500D01*
X111814331Y-76401349D01*
X111809710Y-76392704D01*
X111805959Y-76383648D01*
X111803114Y-76374269D01*
X111801202Y-76364657D01*
X111800241Y-76354902D01*
X111800000Y-76350000D01*
X111800000Y-76320711D01*
X111800241Y-76315809D01*
X111801202Y-76306054D01*
X111803114Y-76296442D01*
X111805959Y-76287063D01*
X111809710Y-76278007D01*
X111814331Y-76269362D01*
X111819778Y-76261211D01*
X111825996Y-76253635D01*
X111829290Y-76250001D01*
X111900001Y-76179290D01*
X111903635Y-76175996D01*
X111911211Y-76169778D01*
X111919362Y-76164331D01*
X111928007Y-76159710D01*
X111937063Y-76155959D01*
X111946442Y-76153114D01*
X111956054Y-76151202D01*
X111965809Y-76150241D01*
X111970711Y-76150000D01*
X112600000Y-76150000D01*
X112604902Y-76150241D01*
X112614657Y-76151202D01*
X112624269Y-76153114D01*
X112633648Y-76155959D01*
X112642704Y-76159710D01*
X112651349Y-76164331D01*
X112659500Y-76169778D01*
X112667076Y-76175996D01*
X112674004Y-76182924D01*
X112680222Y-76190500D01*
X112685669Y-76198651D01*
X112690290Y-76207296D01*
X112694041Y-76216352D01*
X112696886Y-76225731D01*
X112698798Y-76235343D01*
X112699759Y-76245098D01*
X112700000Y-76250000D01*
X112700000Y-76350000D01*
X112699759Y-76354902D01*
X112698798Y-76364657D01*
X112696886Y-76374269D01*
X112694041Y-76383648D01*
X112690290Y-76392704D01*
X112685669Y-76401349D01*
X112680222Y-76409500D01*
X112674004Y-76417076D01*
X112667076Y-76424004D01*
X112659500Y-76430222D01*
X112651349Y-76435669D01*
X112642704Y-76440290D01*
X112633648Y-76444041D01*
X112624269Y-76446886D01*
X112614657Y-76448798D01*
X112604902Y-76449759D01*
X112600000Y-76450000D01*
X111900000Y-76450000D01*
X111895098Y-76449759D01*
G37*
G36*
X111645098Y-76199759D02*
G01*
X111635343Y-76198798D01*
X111625731Y-76196886D01*
X111616352Y-76194041D01*
X111607296Y-76190290D01*
X111598651Y-76185669D01*
X111590500Y-76180222D01*
X111582924Y-76174004D01*
X111575996Y-76167076D01*
X111569778Y-76159500D01*
X111564331Y-76151349D01*
X111559710Y-76142704D01*
X111555959Y-76133648D01*
X111553114Y-76124269D01*
X111551202Y-76114657D01*
X111550241Y-76104902D01*
X111550000Y-76100000D01*
X111550000Y-75400000D01*
X111550241Y-75395098D01*
X111551202Y-75385343D01*
X111553114Y-75375731D01*
X111555959Y-75366352D01*
X111559710Y-75357296D01*
X111564331Y-75348651D01*
X111569778Y-75340500D01*
X111575996Y-75332924D01*
X111582924Y-75325996D01*
X111590500Y-75319778D01*
X111598651Y-75314331D01*
X111607296Y-75309710D01*
X111616352Y-75305959D01*
X111625731Y-75303114D01*
X111635343Y-75301202D01*
X111645098Y-75300241D01*
X111650000Y-75300000D01*
X111750000Y-75300000D01*
X111754902Y-75300241D01*
X111764657Y-75301202D01*
X111774269Y-75303114D01*
X111783648Y-75305959D01*
X111792704Y-75309710D01*
X111801349Y-75314331D01*
X111809500Y-75319778D01*
X111817076Y-75325996D01*
X111824004Y-75332924D01*
X111830222Y-75340500D01*
X111835669Y-75348651D01*
X111840290Y-75357296D01*
X111844041Y-75366352D01*
X111846886Y-75375731D01*
X111848798Y-75385343D01*
X111849759Y-75395098D01*
X111850000Y-75400000D01*
X111850000Y-76029289D01*
X111849759Y-76034191D01*
X111848798Y-76043946D01*
X111846886Y-76053558D01*
X111844041Y-76062937D01*
X111840290Y-76071993D01*
X111835669Y-76080638D01*
X111830222Y-76088789D01*
X111824004Y-76096365D01*
X111820710Y-76099999D01*
X111749999Y-76170710D01*
X111746365Y-76174004D01*
X111738789Y-76180222D01*
X111730638Y-76185669D01*
X111721993Y-76190290D01*
X111712937Y-76194041D01*
X111703558Y-76196886D01*
X111693946Y-76198798D01*
X111684191Y-76199759D01*
X111679289Y-76200000D01*
X111650000Y-76200000D01*
X111645098Y-76199759D01*
G37*
G36*
G01*
X111450000Y-75375000D02*
X111450000Y-76125000D01*
G75*
G02*
X111375000Y-76200000I-75000J0D01*
G01*
X111225000Y-76200000D01*
G75*
G02*
X111150000Y-76125000I0J75000D01*
G01*
X111150000Y-75375000D01*
G75*
G02*
X111225000Y-75300000I75000J0D01*
G01*
X111375000Y-75300000D01*
G75*
G02*
X111450000Y-75375000I0J-75000D01*
G01*
G37*
G36*
G01*
X111050000Y-75375000D02*
X111050000Y-76125000D01*
G75*
G02*
X110975000Y-76200000I-75000J0D01*
G01*
X110825000Y-76200000D01*
G75*
G02*
X110750000Y-76125000I0J75000D01*
G01*
X110750000Y-75375000D01*
G75*
G02*
X110825000Y-75300000I75000J0D01*
G01*
X110975000Y-75300000D01*
G75*
G02*
X111050000Y-75375000I0J-75000D01*
G01*
G37*
G36*
G01*
X110650000Y-75375000D02*
X110650000Y-76125000D01*
G75*
G02*
X110575000Y-76200000I-75000J0D01*
G01*
X110425000Y-76200000D01*
G75*
G02*
X110350000Y-76125000I0J75000D01*
G01*
X110350000Y-75375000D01*
G75*
G02*
X110425000Y-75300000I75000J0D01*
G01*
X110575000Y-75300000D01*
G75*
G02*
X110650000Y-75375000I0J-75000D01*
G01*
G37*
G36*
G01*
X110250000Y-75375000D02*
X110250000Y-76125000D01*
G75*
G02*
X110175000Y-76200000I-75000J0D01*
G01*
X110025000Y-76200000D01*
G75*
G02*
X109950000Y-76125000I0J75000D01*
G01*
X109950000Y-75375000D01*
G75*
G02*
X110025000Y-75300000I75000J0D01*
G01*
X110175000Y-75300000D01*
G75*
G02*
X110250000Y-75375000I0J-75000D01*
G01*
G37*
G36*
G01*
X109850000Y-75375000D02*
X109850000Y-76125000D01*
G75*
G02*
X109775000Y-76200000I-75000J0D01*
G01*
X109625000Y-76200000D01*
G75*
G02*
X109550000Y-76125000I0J75000D01*
G01*
X109550000Y-75375000D01*
G75*
G02*
X109625000Y-75300000I75000J0D01*
G01*
X109775000Y-75300000D01*
G75*
G02*
X109850000Y-75375000I0J-75000D01*
G01*
G37*
G36*
G01*
X109450000Y-75375000D02*
X109450000Y-76125000D01*
G75*
G02*
X109375000Y-76200000I-75000J0D01*
G01*
X109225000Y-76200000D01*
G75*
G02*
X109150000Y-76125000I0J75000D01*
G01*
X109150000Y-75375000D01*
G75*
G02*
X109225000Y-75300000I75000J0D01*
G01*
X109375000Y-75300000D01*
G75*
G02*
X109450000Y-75375000I0J-75000D01*
G01*
G37*
G36*
X108915809Y-76199759D02*
G01*
X108906054Y-76198798D01*
X108896442Y-76196886D01*
X108887063Y-76194041D01*
X108878007Y-76190290D01*
X108869362Y-76185669D01*
X108861211Y-76180222D01*
X108853635Y-76174004D01*
X108850001Y-76170710D01*
X108779290Y-76099999D01*
X108775996Y-76096365D01*
X108769778Y-76088789D01*
X108764331Y-76080638D01*
X108759710Y-76071993D01*
X108755959Y-76062937D01*
X108753114Y-76053558D01*
X108751202Y-76043946D01*
X108750241Y-76034191D01*
X108750000Y-76029289D01*
X108750000Y-75400000D01*
X108750241Y-75395098D01*
X108751202Y-75385343D01*
X108753114Y-75375731D01*
X108755959Y-75366352D01*
X108759710Y-75357296D01*
X108764331Y-75348651D01*
X108769778Y-75340500D01*
X108775996Y-75332924D01*
X108782924Y-75325996D01*
X108790500Y-75319778D01*
X108798651Y-75314331D01*
X108807296Y-75309710D01*
X108816352Y-75305959D01*
X108825731Y-75303114D01*
X108835343Y-75301202D01*
X108845098Y-75300241D01*
X108850000Y-75300000D01*
X108950000Y-75300000D01*
X108954902Y-75300241D01*
X108964657Y-75301202D01*
X108974269Y-75303114D01*
X108983648Y-75305959D01*
X108992704Y-75309710D01*
X109001349Y-75314331D01*
X109009500Y-75319778D01*
X109017076Y-75325996D01*
X109024004Y-75332924D01*
X109030222Y-75340500D01*
X109035669Y-75348651D01*
X109040290Y-75357296D01*
X109044041Y-75366352D01*
X109046886Y-75375731D01*
X109048798Y-75385343D01*
X109049759Y-75395098D01*
X109050000Y-75400000D01*
X109050000Y-76100000D01*
X109049759Y-76104902D01*
X109048798Y-76114657D01*
X109046886Y-76124269D01*
X109044041Y-76133648D01*
X109040290Y-76142704D01*
X109035669Y-76151349D01*
X109030222Y-76159500D01*
X109024004Y-76167076D01*
X109017076Y-76174004D01*
X109009500Y-76180222D01*
X109001349Y-76185669D01*
X108992704Y-76190290D01*
X108983648Y-76194041D01*
X108974269Y-76196886D01*
X108964657Y-76198798D01*
X108954902Y-76199759D01*
X108950000Y-76200000D01*
X108920711Y-76200000D01*
X108915809Y-76199759D01*
G37*
G36*
X107995098Y-76449759D02*
G01*
X107985343Y-76448798D01*
X107975731Y-76446886D01*
X107966352Y-76444041D01*
X107957296Y-76440290D01*
X107948651Y-76435669D01*
X107940500Y-76430222D01*
X107932924Y-76424004D01*
X107925996Y-76417076D01*
X107919778Y-76409500D01*
X107914331Y-76401349D01*
X107909710Y-76392704D01*
X107905959Y-76383648D01*
X107903114Y-76374269D01*
X107901202Y-76364657D01*
X107900241Y-76354902D01*
X107900000Y-76350000D01*
X107900000Y-76250000D01*
X107900241Y-76245098D01*
X107901202Y-76235343D01*
X107903114Y-76225731D01*
X107905959Y-76216352D01*
X107909710Y-76207296D01*
X107914331Y-76198651D01*
X107919778Y-76190500D01*
X107925996Y-76182924D01*
X107932924Y-76175996D01*
X107940500Y-76169778D01*
X107948651Y-76164331D01*
X107957296Y-76159710D01*
X107966352Y-76155959D01*
X107975731Y-76153114D01*
X107985343Y-76151202D01*
X107995098Y-76150241D01*
X108000000Y-76150000D01*
X108629289Y-76150000D01*
X108634191Y-76150241D01*
X108643946Y-76151202D01*
X108653558Y-76153114D01*
X108662937Y-76155959D01*
X108671993Y-76159710D01*
X108680638Y-76164331D01*
X108688789Y-76169778D01*
X108696365Y-76175996D01*
X108699999Y-76179290D01*
X108770710Y-76250001D01*
X108774004Y-76253635D01*
X108780222Y-76261211D01*
X108785669Y-76269362D01*
X108790290Y-76278007D01*
X108794041Y-76287063D01*
X108796886Y-76296442D01*
X108798798Y-76306054D01*
X108799759Y-76315809D01*
X108800000Y-76320711D01*
X108800000Y-76350000D01*
X108799759Y-76354902D01*
X108798798Y-76364657D01*
X108796886Y-76374269D01*
X108794041Y-76383648D01*
X108790290Y-76392704D01*
X108785669Y-76401349D01*
X108780222Y-76409500D01*
X108774004Y-76417076D01*
X108767076Y-76424004D01*
X108759500Y-76430222D01*
X108751349Y-76435669D01*
X108742704Y-76440290D01*
X108733648Y-76444041D01*
X108724269Y-76446886D01*
X108714657Y-76448798D01*
X108704902Y-76449759D01*
X108700000Y-76450000D01*
X108000000Y-76450000D01*
X107995098Y-76449759D01*
G37*
G36*
G01*
X108800000Y-76625000D02*
X108800000Y-76775000D01*
G75*
G02*
X108725000Y-76850000I-75000J0D01*
G01*
X107975000Y-76850000D01*
G75*
G02*
X107900000Y-76775000I0J75000D01*
G01*
X107900000Y-76625000D01*
G75*
G02*
X107975000Y-76550000I75000J0D01*
G01*
X108725000Y-76550000D01*
G75*
G02*
X108800000Y-76625000I0J-75000D01*
G01*
G37*
G36*
G01*
X108800000Y-77025000D02*
X108800000Y-77175000D01*
G75*
G02*
X108725000Y-77250000I-75000J0D01*
G01*
X107975000Y-77250000D01*
G75*
G02*
X107900000Y-77175000I0J75000D01*
G01*
X107900000Y-77025000D01*
G75*
G02*
X107975000Y-76950000I75000J0D01*
G01*
X108725000Y-76950000D01*
G75*
G02*
X108800000Y-77025000I0J-75000D01*
G01*
G37*
G36*
G01*
X108800000Y-77425000D02*
X108800000Y-77575000D01*
G75*
G02*
X108725000Y-77650000I-75000J0D01*
G01*
X107975000Y-77650000D01*
G75*
G02*
X107900000Y-77575000I0J75000D01*
G01*
X107900000Y-77425000D01*
G75*
G02*
X107975000Y-77350000I75000J0D01*
G01*
X108725000Y-77350000D01*
G75*
G02*
X108800000Y-77425000I0J-75000D01*
G01*
G37*
G36*
G01*
X108800000Y-77825000D02*
X108800000Y-77975000D01*
G75*
G02*
X108725000Y-78050000I-75000J0D01*
G01*
X107975000Y-78050000D01*
G75*
G02*
X107900000Y-77975000I0J75000D01*
G01*
X107900000Y-77825000D01*
G75*
G02*
X107975000Y-77750000I75000J0D01*
G01*
X108725000Y-77750000D01*
G75*
G02*
X108800000Y-77825000I0J-75000D01*
G01*
G37*
G36*
G01*
X108800000Y-78225000D02*
X108800000Y-78375000D01*
G75*
G02*
X108725000Y-78450000I-75000J0D01*
G01*
X107975000Y-78450000D01*
G75*
G02*
X107900000Y-78375000I0J75000D01*
G01*
X107900000Y-78225000D01*
G75*
G02*
X107975000Y-78150000I75000J0D01*
G01*
X108725000Y-78150000D01*
G75*
G02*
X108800000Y-78225000I0J-75000D01*
G01*
G37*
G36*
G01*
X108800000Y-78625000D02*
X108800000Y-78775000D01*
G75*
G02*
X108725000Y-78850000I-75000J0D01*
G01*
X107975000Y-78850000D01*
G75*
G02*
X107900000Y-78775000I0J75000D01*
G01*
X107900000Y-78625000D01*
G75*
G02*
X107975000Y-78550000I75000J0D01*
G01*
X108725000Y-78550000D01*
G75*
G02*
X108800000Y-78625000I0J-75000D01*
G01*
G37*
G36*
X107995098Y-79249759D02*
G01*
X107985343Y-79248798D01*
X107975731Y-79246886D01*
X107966352Y-79244041D01*
X107957296Y-79240290D01*
X107948651Y-79235669D01*
X107940500Y-79230222D01*
X107932924Y-79224004D01*
X107925996Y-79217076D01*
X107919778Y-79209500D01*
X107914331Y-79201349D01*
X107909710Y-79192704D01*
X107905959Y-79183648D01*
X107903114Y-79174269D01*
X107901202Y-79164657D01*
X107900241Y-79154902D01*
X107900000Y-79150000D01*
X107900000Y-79050000D01*
X107900241Y-79045098D01*
X107901202Y-79035343D01*
X107903114Y-79025731D01*
X107905959Y-79016352D01*
X107909710Y-79007296D01*
X107914331Y-78998651D01*
X107919778Y-78990500D01*
X107925996Y-78982924D01*
X107932924Y-78975996D01*
X107940500Y-78969778D01*
X107948651Y-78964331D01*
X107957296Y-78959710D01*
X107966352Y-78955959D01*
X107975731Y-78953114D01*
X107985343Y-78951202D01*
X107995098Y-78950241D01*
X108000000Y-78950000D01*
X108700000Y-78950000D01*
X108704902Y-78950241D01*
X108714657Y-78951202D01*
X108724269Y-78953114D01*
X108733648Y-78955959D01*
X108742704Y-78959710D01*
X108751349Y-78964331D01*
X108759500Y-78969778D01*
X108767076Y-78975996D01*
X108774004Y-78982924D01*
X108780222Y-78990500D01*
X108785669Y-78998651D01*
X108790290Y-79007296D01*
X108794041Y-79016352D01*
X108796886Y-79025731D01*
X108798798Y-79035343D01*
X108799759Y-79045098D01*
X108800000Y-79050000D01*
X108800000Y-79079289D01*
X108799759Y-79084191D01*
X108798798Y-79093946D01*
X108796886Y-79103558D01*
X108794041Y-79112937D01*
X108790290Y-79121993D01*
X108785669Y-79130638D01*
X108780222Y-79138789D01*
X108774004Y-79146365D01*
X108770710Y-79149999D01*
X108699999Y-79220710D01*
X108696365Y-79224004D01*
X108688789Y-79230222D01*
X108680638Y-79235669D01*
X108671993Y-79240290D01*
X108662937Y-79244041D01*
X108653558Y-79246886D01*
X108643946Y-79248798D01*
X108634191Y-79249759D01*
X108629289Y-79250000D01*
X108000000Y-79250000D01*
X107995098Y-79249759D01*
G37*
G36*
X108845098Y-80099759D02*
G01*
X108835343Y-80098798D01*
X108825731Y-80096886D01*
X108816352Y-80094041D01*
X108807296Y-80090290D01*
X108798651Y-80085669D01*
X108790500Y-80080222D01*
X108782924Y-80074004D01*
X108775996Y-80067076D01*
X108769778Y-80059500D01*
X108764331Y-80051349D01*
X108759710Y-80042704D01*
X108755959Y-80033648D01*
X108753114Y-80024269D01*
X108751202Y-80014657D01*
X108750241Y-80004902D01*
X108750000Y-80000000D01*
X108750000Y-79370711D01*
X108750241Y-79365809D01*
X108751202Y-79356054D01*
X108753114Y-79346442D01*
X108755959Y-79337063D01*
X108759710Y-79328007D01*
X108764331Y-79319362D01*
X108769778Y-79311211D01*
X108775996Y-79303635D01*
X108779290Y-79300001D01*
X108850001Y-79229290D01*
X108853635Y-79225996D01*
X108861211Y-79219778D01*
X108869362Y-79214331D01*
X108878007Y-79209710D01*
X108887063Y-79205959D01*
X108896442Y-79203114D01*
X108906054Y-79201202D01*
X108915809Y-79200241D01*
X108920711Y-79200000D01*
X108950000Y-79200000D01*
X108954902Y-79200241D01*
X108964657Y-79201202D01*
X108974269Y-79203114D01*
X108983648Y-79205959D01*
X108992704Y-79209710D01*
X109001349Y-79214331D01*
X109009500Y-79219778D01*
X109017076Y-79225996D01*
X109024004Y-79232924D01*
X109030222Y-79240500D01*
X109035669Y-79248651D01*
X109040290Y-79257296D01*
X109044041Y-79266352D01*
X109046886Y-79275731D01*
X109048798Y-79285343D01*
X109049759Y-79295098D01*
X109050000Y-79300000D01*
X109050000Y-80000000D01*
X109049759Y-80004902D01*
X109048798Y-80014657D01*
X109046886Y-80024269D01*
X109044041Y-80033648D01*
X109040290Y-80042704D01*
X109035669Y-80051349D01*
X109030222Y-80059500D01*
X109024004Y-80067076D01*
X109017076Y-80074004D01*
X109009500Y-80080222D01*
X109001349Y-80085669D01*
X108992704Y-80090290D01*
X108983648Y-80094041D01*
X108974269Y-80096886D01*
X108964657Y-80098798D01*
X108954902Y-80099759D01*
X108950000Y-80100000D01*
X108850000Y-80100000D01*
X108845098Y-80099759D01*
G37*
G36*
G01*
X109450000Y-79275000D02*
X109450000Y-80025000D01*
G75*
G02*
X109375000Y-80100000I-75000J0D01*
G01*
X109225000Y-80100000D01*
G75*
G02*
X109150000Y-80025000I0J75000D01*
G01*
X109150000Y-79275000D01*
G75*
G02*
X109225000Y-79200000I75000J0D01*
G01*
X109375000Y-79200000D01*
G75*
G02*
X109450000Y-79275000I0J-75000D01*
G01*
G37*
G36*
G01*
X109850000Y-79275000D02*
X109850000Y-80025000D01*
G75*
G02*
X109775000Y-80100000I-75000J0D01*
G01*
X109625000Y-80100000D01*
G75*
G02*
X109550000Y-80025000I0J75000D01*
G01*
X109550000Y-79275000D01*
G75*
G02*
X109625000Y-79200000I75000J0D01*
G01*
X109775000Y-79200000D01*
G75*
G02*
X109850000Y-79275000I0J-75000D01*
G01*
G37*
G36*
G01*
X110250000Y-79275000D02*
X110250000Y-80025000D01*
G75*
G02*
X110175000Y-80100000I-75000J0D01*
G01*
X110025000Y-80100000D01*
G75*
G02*
X109950000Y-80025000I0J75000D01*
G01*
X109950000Y-79275000D01*
G75*
G02*
X110025000Y-79200000I75000J0D01*
G01*
X110175000Y-79200000D01*
G75*
G02*
X110250000Y-79275000I0J-75000D01*
G01*
G37*
G36*
G01*
X110650000Y-79275000D02*
X110650000Y-80025000D01*
G75*
G02*
X110575000Y-80100000I-75000J0D01*
G01*
X110425000Y-80100000D01*
G75*
G02*
X110350000Y-80025000I0J75000D01*
G01*
X110350000Y-79275000D01*
G75*
G02*
X110425000Y-79200000I75000J0D01*
G01*
X110575000Y-79200000D01*
G75*
G02*
X110650000Y-79275000I0J-75000D01*
G01*
G37*
G36*
G01*
X111050000Y-79275000D02*
X111050000Y-80025000D01*
G75*
G02*
X110975000Y-80100000I-75000J0D01*
G01*
X110825000Y-80100000D01*
G75*
G02*
X110750000Y-80025000I0J75000D01*
G01*
X110750000Y-79275000D01*
G75*
G02*
X110825000Y-79200000I75000J0D01*
G01*
X110975000Y-79200000D01*
G75*
G02*
X111050000Y-79275000I0J-75000D01*
G01*
G37*
G36*
G01*
X111450000Y-79275000D02*
X111450000Y-80025000D01*
G75*
G02*
X111375000Y-80100000I-75000J0D01*
G01*
X111225000Y-80100000D01*
G75*
G02*
X111150000Y-80025000I0J75000D01*
G01*
X111150000Y-79275000D01*
G75*
G02*
X111225000Y-79200000I75000J0D01*
G01*
X111375000Y-79200000D01*
G75*
G02*
X111450000Y-79275000I0J-75000D01*
G01*
G37*
G36*
X111645098Y-80099759D02*
G01*
X111635343Y-80098798D01*
X111625731Y-80096886D01*
X111616352Y-80094041D01*
X111607296Y-80090290D01*
X111598651Y-80085669D01*
X111590500Y-80080222D01*
X111582924Y-80074004D01*
X111575996Y-80067076D01*
X111569778Y-80059500D01*
X111564331Y-80051349D01*
X111559710Y-80042704D01*
X111555959Y-80033648D01*
X111553114Y-80024269D01*
X111551202Y-80014657D01*
X111550241Y-80004902D01*
X111550000Y-80000000D01*
X111550000Y-79300000D01*
X111550241Y-79295098D01*
X111551202Y-79285343D01*
X111553114Y-79275731D01*
X111555959Y-79266352D01*
X111559710Y-79257296D01*
X111564331Y-79248651D01*
X111569778Y-79240500D01*
X111575996Y-79232924D01*
X111582924Y-79225996D01*
X111590500Y-79219778D01*
X111598651Y-79214331D01*
X111607296Y-79209710D01*
X111616352Y-79205959D01*
X111625731Y-79203114D01*
X111635343Y-79201202D01*
X111645098Y-79200241D01*
X111650000Y-79200000D01*
X111679289Y-79200000D01*
X111684191Y-79200241D01*
X111693946Y-79201202D01*
X111703558Y-79203114D01*
X111712937Y-79205959D01*
X111721993Y-79209710D01*
X111730638Y-79214331D01*
X111738789Y-79219778D01*
X111746365Y-79225996D01*
X111749999Y-79229290D01*
X111820710Y-79300001D01*
X111824004Y-79303635D01*
X111830222Y-79311211D01*
X111835669Y-79319362D01*
X111840290Y-79328007D01*
X111844041Y-79337063D01*
X111846886Y-79346442D01*
X111848798Y-79356054D01*
X111849759Y-79365809D01*
X111850000Y-79370711D01*
X111850000Y-80000000D01*
X111849759Y-80004902D01*
X111848798Y-80014657D01*
X111846886Y-80024269D01*
X111844041Y-80033648D01*
X111840290Y-80042704D01*
X111835669Y-80051349D01*
X111830222Y-80059500D01*
X111824004Y-80067076D01*
X111817076Y-80074004D01*
X111809500Y-80080222D01*
X111801349Y-80085669D01*
X111792704Y-80090290D01*
X111783648Y-80094041D01*
X111774269Y-80096886D01*
X111764657Y-80098798D01*
X111754902Y-80099759D01*
X111750000Y-80100000D01*
X111650000Y-80100000D01*
X111645098Y-80099759D01*
G37*
D13*
X110300000Y-77700000D03*
%TD*%
D14*
%TO.C,MH3*%
X141500000Y-131500000D03*
%TD*%
%TO.C,MH2*%
X141500000Y-48500000D03*
%TD*%
%TO.C,MH4*%
X93500000Y-131500000D03*
%TD*%
%TO.C,MH1*%
X93500000Y-48500000D03*
%TD*%
D15*
%TO.C,D1*%
X104075000Y-100225000D03*
X103125000Y-100225000D03*
X102175000Y-100225000D03*
X102175000Y-102425000D03*
X104075000Y-102425000D03*
X103125000Y-102425000D03*
%TD*%
D16*
%TO.C,J10*%
X126940000Y-96800000D03*
X129480000Y-96800000D03*
X132020000Y-96800000D03*
D10*
X134560000Y-96800000D03*
%TD*%
%TO.C,J1*%
X142250000Y-91160000D03*
D11*
X142250000Y-88620000D03*
X142250000Y-86080000D03*
X142250000Y-83540000D03*
X142250000Y-81000000D03*
%TD*%
D17*
%TO.C,J6*%
X118150000Y-57775000D03*
X118150000Y-60725000D03*
D18*
X116600000Y-59250000D03*
%TD*%
%TO.C,R4*%
G36*
G01*
X98762500Y-80875000D02*
X99287500Y-80875000D01*
G75*
G02*
X99550000Y-81137500I0J-262500D01*
G01*
X99550000Y-81762500D01*
G75*
G02*
X99287500Y-82025000I-262500J0D01*
G01*
X98762500Y-82025000D01*
G75*
G02*
X98500000Y-81762500I0J262500D01*
G01*
X98500000Y-81137500D01*
G75*
G02*
X98762500Y-80875000I262500J0D01*
G01*
G37*
G36*
G01*
X98762500Y-79125000D02*
X99287500Y-79125000D01*
G75*
G02*
X99550000Y-79387500I0J-262500D01*
G01*
X99550000Y-80012500D01*
G75*
G02*
X99287500Y-80275000I-262500J0D01*
G01*
X98762500Y-80275000D01*
G75*
G02*
X98500000Y-80012500I0J262500D01*
G01*
X98500000Y-79387500D01*
G75*
G02*
X98762500Y-79125000I262500J0D01*
G01*
G37*
%TD*%
%TO.C,C14*%
G36*
G01*
X97537500Y-82025000D02*
X97012500Y-82025000D01*
G75*
G02*
X96750000Y-81762500I0J262500D01*
G01*
X96750000Y-81137500D01*
G75*
G02*
X97012500Y-80875000I262500J0D01*
G01*
X97537500Y-80875000D01*
G75*
G02*
X97800000Y-81137500I0J-262500D01*
G01*
X97800000Y-81762500D01*
G75*
G02*
X97537500Y-82025000I-262500J0D01*
G01*
G37*
G36*
G01*
X97537500Y-80275000D02*
X97012500Y-80275000D01*
G75*
G02*
X96750000Y-80012500I0J262500D01*
G01*
X96750000Y-79387500D01*
G75*
G02*
X97012500Y-79125000I262500J0D01*
G01*
X97537500Y-79125000D01*
G75*
G02*
X97800000Y-79387500I0J-262500D01*
G01*
X97800000Y-80012500D01*
G75*
G02*
X97537500Y-80275000I-262500J0D01*
G01*
G37*
%TD*%
%TO.C,C1*%
G36*
G01*
X120675000Y-84712500D02*
X120675000Y-84187500D01*
G75*
G02*
X120937500Y-83925000I262500J0D01*
G01*
X121562500Y-83925000D01*
G75*
G02*
X121825000Y-84187500I0J-262500D01*
G01*
X121825000Y-84712500D01*
G75*
G02*
X121562500Y-84975000I-262500J0D01*
G01*
X120937500Y-84975000D01*
G75*
G02*
X120675000Y-84712500I0J262500D01*
G01*
G37*
G36*
G01*
X118925000Y-84712500D02*
X118925000Y-84187500D01*
G75*
G02*
X119187500Y-83925000I262500J0D01*
G01*
X119812500Y-83925000D01*
G75*
G02*
X120075000Y-84187500I0J-262500D01*
G01*
X120075000Y-84712500D01*
G75*
G02*
X119812500Y-84975000I-262500J0D01*
G01*
X119187500Y-84975000D01*
G75*
G02*
X118925000Y-84712500I0J262500D01*
G01*
G37*
%TD*%
%TO.C,C2*%
G36*
G01*
X118925000Y-82212500D02*
X118925000Y-81687500D01*
G75*
G02*
X119187500Y-81425000I262500J0D01*
G01*
X119812500Y-81425000D01*
G75*
G02*
X120075000Y-81687500I0J-262500D01*
G01*
X120075000Y-82212500D01*
G75*
G02*
X119812500Y-82475000I-262500J0D01*
G01*
X119187500Y-82475000D01*
G75*
G02*
X118925000Y-82212500I0J262500D01*
G01*
G37*
G36*
G01*
X120675000Y-82212500D02*
X120675000Y-81687500D01*
G75*
G02*
X120937500Y-81425000I262500J0D01*
G01*
X121562500Y-81425000D01*
G75*
G02*
X121825000Y-81687500I0J-262500D01*
G01*
X121825000Y-82212500D01*
G75*
G02*
X121562500Y-82475000I-262500J0D01*
G01*
X120937500Y-82475000D01*
G75*
G02*
X120675000Y-82212500I0J262500D01*
G01*
G37*
%TD*%
%TO.C,C5*%
G36*
G01*
X108987500Y-85800000D02*
X109512500Y-85800000D01*
G75*
G02*
X109775000Y-86062500I0J-262500D01*
G01*
X109775000Y-86687500D01*
G75*
G02*
X109512500Y-86950000I-262500J0D01*
G01*
X108987500Y-86950000D01*
G75*
G02*
X108725000Y-86687500I0J262500D01*
G01*
X108725000Y-86062500D01*
G75*
G02*
X108987500Y-85800000I262500J0D01*
G01*
G37*
G36*
G01*
X108987500Y-84050000D02*
X109512500Y-84050000D01*
G75*
G02*
X109775000Y-84312500I0J-262500D01*
G01*
X109775000Y-84937500D01*
G75*
G02*
X109512500Y-85200000I-262500J0D01*
G01*
X108987500Y-85200000D01*
G75*
G02*
X108725000Y-84937500I0J262500D01*
G01*
X108725000Y-84312500D01*
G75*
G02*
X108987500Y-84050000I262500J0D01*
G01*
G37*
%TD*%
%TO.C,C7*%
G36*
G01*
X107237500Y-85800000D02*
X107762500Y-85800000D01*
G75*
G02*
X108025000Y-86062500I0J-262500D01*
G01*
X108025000Y-86687500D01*
G75*
G02*
X107762500Y-86950000I-262500J0D01*
G01*
X107237500Y-86950000D01*
G75*
G02*
X106975000Y-86687500I0J262500D01*
G01*
X106975000Y-86062500D01*
G75*
G02*
X107237500Y-85800000I262500J0D01*
G01*
G37*
G36*
G01*
X107237500Y-84050000D02*
X107762500Y-84050000D01*
G75*
G02*
X108025000Y-84312500I0J-262500D01*
G01*
X108025000Y-84937500D01*
G75*
G02*
X107762500Y-85200000I-262500J0D01*
G01*
X107237500Y-85200000D01*
G75*
G02*
X106975000Y-84937500I0J262500D01*
G01*
X106975000Y-84312500D01*
G75*
G02*
X107237500Y-84050000I262500J0D01*
G01*
G37*
%TD*%
%TO.C,C11*%
G36*
G01*
X101700000Y-83487500D02*
X101700000Y-84012500D01*
G75*
G02*
X101437500Y-84275000I-262500J0D01*
G01*
X100812500Y-84275000D01*
G75*
G02*
X100550000Y-84012500I0J262500D01*
G01*
X100550000Y-83487500D01*
G75*
G02*
X100812500Y-83225000I262500J0D01*
G01*
X101437500Y-83225000D01*
G75*
G02*
X101700000Y-83487500I0J-262500D01*
G01*
G37*
G36*
G01*
X103450000Y-83487500D02*
X103450000Y-84012500D01*
G75*
G02*
X103187500Y-84275000I-262500J0D01*
G01*
X102562500Y-84275000D01*
G75*
G02*
X102300000Y-84012500I0J262500D01*
G01*
X102300000Y-83487500D01*
G75*
G02*
X102562500Y-83225000I262500J0D01*
G01*
X103187500Y-83225000D01*
G75*
G02*
X103450000Y-83487500I0J-262500D01*
G01*
G37*
%TD*%
%TO.C,C12*%
G36*
G01*
X104200000Y-79987500D02*
X104200000Y-80512500D01*
G75*
G02*
X103937500Y-80775000I-262500J0D01*
G01*
X103312500Y-80775000D01*
G75*
G02*
X103050000Y-80512500I0J262500D01*
G01*
X103050000Y-79987500D01*
G75*
G02*
X103312500Y-79725000I262500J0D01*
G01*
X103937500Y-79725000D01*
G75*
G02*
X104200000Y-79987500I0J-262500D01*
G01*
G37*
G36*
G01*
X102450000Y-79987500D02*
X102450000Y-80512500D01*
G75*
G02*
X102187500Y-80775000I-262500J0D01*
G01*
X101562500Y-80775000D01*
G75*
G02*
X101300000Y-80512500I0J262500D01*
G01*
X101300000Y-79987500D01*
G75*
G02*
X101562500Y-79725000I262500J0D01*
G01*
X102187500Y-79725000D01*
G75*
G02*
X102450000Y-79987500I0J-262500D01*
G01*
G37*
%TD*%
%TO.C,C13*%
G36*
G01*
X108793518Y-115225000D02*
X109706482Y-115225000D01*
G75*
G02*
X109975000Y-115493518I0J-268518D01*
G01*
X109975000Y-116631482D01*
G75*
G02*
X109706482Y-116900000I-268518J0D01*
G01*
X108793518Y-116900000D01*
G75*
G02*
X108525000Y-116631482I0J268518D01*
G01*
X108525000Y-115493518D01*
G75*
G02*
X108793518Y-115225000I268518J0D01*
G01*
G37*
G36*
G01*
X108793518Y-118100000D02*
X109706482Y-118100000D01*
G75*
G02*
X109975000Y-118368518I0J-268518D01*
G01*
X109975000Y-119506482D01*
G75*
G02*
X109706482Y-119775000I-268518J0D01*
G01*
X108793518Y-119775000D01*
G75*
G02*
X108525000Y-119506482I0J268518D01*
G01*
X108525000Y-118368518D01*
G75*
G02*
X108793518Y-118100000I268518J0D01*
G01*
G37*
%TD*%
%TO.C,C15*%
G36*
G01*
X116512500Y-70950000D02*
X115987500Y-70950000D01*
G75*
G02*
X115725000Y-70687500I0J262500D01*
G01*
X115725000Y-70062500D01*
G75*
G02*
X115987500Y-69800000I262500J0D01*
G01*
X116512500Y-69800000D01*
G75*
G02*
X116775000Y-70062500I0J-262500D01*
G01*
X116775000Y-70687500D01*
G75*
G02*
X116512500Y-70950000I-262500J0D01*
G01*
G37*
G36*
G01*
X116512500Y-72700000D02*
X115987500Y-72700000D01*
G75*
G02*
X115725000Y-72437500I0J262500D01*
G01*
X115725000Y-71812500D01*
G75*
G02*
X115987500Y-71550000I262500J0D01*
G01*
X116512500Y-71550000D01*
G75*
G02*
X116775000Y-71812500I0J-262500D01*
G01*
X116775000Y-72437500D01*
G75*
G02*
X116512500Y-72700000I-262500J0D01*
G01*
G37*
%TD*%
%TO.C,C16*%
G36*
G01*
X114762500Y-71700000D02*
X114237500Y-71700000D01*
G75*
G02*
X113975000Y-71437500I0J262500D01*
G01*
X113975000Y-70812500D01*
G75*
G02*
X114237500Y-70550000I262500J0D01*
G01*
X114762500Y-70550000D01*
G75*
G02*
X115025000Y-70812500I0J-262500D01*
G01*
X115025000Y-71437500D01*
G75*
G02*
X114762500Y-71700000I-262500J0D01*
G01*
G37*
G36*
G01*
X114762500Y-73450000D02*
X114237500Y-73450000D01*
G75*
G02*
X113975000Y-73187500I0J262500D01*
G01*
X113975000Y-72562500D01*
G75*
G02*
X114237500Y-72300000I262500J0D01*
G01*
X114762500Y-72300000D01*
G75*
G02*
X115025000Y-72562500I0J-262500D01*
G01*
X115025000Y-73187500D01*
G75*
G02*
X114762500Y-73450000I-262500J0D01*
G01*
G37*
%TD*%
%TO.C,C17*%
G36*
G01*
X106262500Y-72700000D02*
X105737500Y-72700000D01*
G75*
G02*
X105475000Y-72437500I0J262500D01*
G01*
X105475000Y-71812500D01*
G75*
G02*
X105737500Y-71550000I262500J0D01*
G01*
X106262500Y-71550000D01*
G75*
G02*
X106525000Y-71812500I0J-262500D01*
G01*
X106525000Y-72437500D01*
G75*
G02*
X106262500Y-72700000I-262500J0D01*
G01*
G37*
G36*
G01*
X106262500Y-70950000D02*
X105737500Y-70950000D01*
G75*
G02*
X105475000Y-70687500I0J262500D01*
G01*
X105475000Y-70062500D01*
G75*
G02*
X105737500Y-69800000I262500J0D01*
G01*
X106262500Y-69800000D01*
G75*
G02*
X106525000Y-70062500I0J-262500D01*
G01*
X106525000Y-70687500D01*
G75*
G02*
X106262500Y-70950000I-262500J0D01*
G01*
G37*
%TD*%
%TO.C,C18*%
G36*
G01*
X108012500Y-73450000D02*
X107487500Y-73450000D01*
G75*
G02*
X107225000Y-73187500I0J262500D01*
G01*
X107225000Y-72562500D01*
G75*
G02*
X107487500Y-72300000I262500J0D01*
G01*
X108012500Y-72300000D01*
G75*
G02*
X108275000Y-72562500I0J-262500D01*
G01*
X108275000Y-73187500D01*
G75*
G02*
X108012500Y-73450000I-262500J0D01*
G01*
G37*
G36*
G01*
X108012500Y-71700000D02*
X107487500Y-71700000D01*
G75*
G02*
X107225000Y-71437500I0J262500D01*
G01*
X107225000Y-70812500D01*
G75*
G02*
X107487500Y-70550000I262500J0D01*
G01*
X108012500Y-70550000D01*
G75*
G02*
X108275000Y-70812500I0J-262500D01*
G01*
X108275000Y-71437500D01*
G75*
G02*
X108012500Y-71700000I-262500J0D01*
G01*
G37*
%TD*%
%TO.C,D2*%
G36*
G01*
X90550000Y-70262500D02*
X90550000Y-69737500D01*
G75*
G02*
X90812500Y-69475000I262500J0D01*
G01*
X91437500Y-69475000D01*
G75*
G02*
X91700000Y-69737500I0J-262500D01*
G01*
X91700000Y-70262500D01*
G75*
G02*
X91437500Y-70525000I-262500J0D01*
G01*
X90812500Y-70525000D01*
G75*
G02*
X90550000Y-70262500I0J262500D01*
G01*
G37*
G36*
G01*
X92300000Y-70262500D02*
X92300000Y-69737500D01*
G75*
G02*
X92562500Y-69475000I262500J0D01*
G01*
X93187500Y-69475000D01*
G75*
G02*
X93450000Y-69737500I0J-262500D01*
G01*
X93450000Y-70262500D01*
G75*
G02*
X93187500Y-70525000I-262500J0D01*
G01*
X92562500Y-70525000D01*
G75*
G02*
X92300000Y-70262500I0J262500D01*
G01*
G37*
%TD*%
%TO.C,D3*%
G36*
G01*
X108512500Y-105450000D02*
X107987500Y-105450000D01*
G75*
G02*
X107725000Y-105187500I0J262500D01*
G01*
X107725000Y-104562500D01*
G75*
G02*
X107987500Y-104300000I262500J0D01*
G01*
X108512500Y-104300000D01*
G75*
G02*
X108775000Y-104562500I0J-262500D01*
G01*
X108775000Y-105187500D01*
G75*
G02*
X108512500Y-105450000I-262500J0D01*
G01*
G37*
G36*
G01*
X108512500Y-103700000D02*
X107987500Y-103700000D01*
G75*
G02*
X107725000Y-103437500I0J262500D01*
G01*
X107725000Y-102812500D01*
G75*
G02*
X107987500Y-102550000I262500J0D01*
G01*
X108512500Y-102550000D01*
G75*
G02*
X108775000Y-102812500I0J-262500D01*
G01*
X108775000Y-103437500D01*
G75*
G02*
X108512500Y-103700000I-262500J0D01*
G01*
G37*
%TD*%
%TO.C,D4*%
G36*
G01*
X92300000Y-67762500D02*
X92300000Y-67237500D01*
G75*
G02*
X92562500Y-66975000I262500J0D01*
G01*
X93187500Y-66975000D01*
G75*
G02*
X93450000Y-67237500I0J-262500D01*
G01*
X93450000Y-67762500D01*
G75*
G02*
X93187500Y-68025000I-262500J0D01*
G01*
X92562500Y-68025000D01*
G75*
G02*
X92300000Y-67762500I0J262500D01*
G01*
G37*
G36*
G01*
X90550000Y-67762500D02*
X90550000Y-67237500D01*
G75*
G02*
X90812500Y-66975000I262500J0D01*
G01*
X91437500Y-66975000D01*
G75*
G02*
X91700000Y-67237500I0J-262500D01*
G01*
X91700000Y-67762500D01*
G75*
G02*
X91437500Y-68025000I-262500J0D01*
G01*
X90812500Y-68025000D01*
G75*
G02*
X90550000Y-67762500I0J262500D01*
G01*
G37*
%TD*%
D10*
%TO.C,J3*%
X142250000Y-77330000D03*
D11*
X142250000Y-74790000D03*
X142250000Y-72250000D03*
X142250000Y-69710000D03*
X142250000Y-67170000D03*
X142250000Y-64630000D03*
%TD*%
%TO.C,J4*%
G36*
G01*
X97150000Y-105614706D02*
X97150000Y-106885294D01*
G75*
G02*
X96885294Y-107150000I-264706J0D01*
G01*
X95614706Y-107150000D01*
G75*
G02*
X95350000Y-106885294I0J264706D01*
G01*
X95350000Y-105614706D01*
G75*
G02*
X95614706Y-105350000I264706J0D01*
G01*
X96885294Y-105350000D01*
G75*
G02*
X97150000Y-105614706I0J-264706D01*
G01*
G37*
D16*
X96250000Y-103710000D03*
X96250000Y-101170000D03*
X96250000Y-98630000D03*
X96250000Y-96090000D03*
X93710000Y-106250000D03*
X93710000Y-103710000D03*
X93710000Y-101170000D03*
X93710000Y-98630000D03*
X93710000Y-96090000D03*
%TD*%
D10*
%TO.C,J5*%
X92550000Y-72950000D03*
D11*
X92550000Y-75490000D03*
X92550000Y-78030000D03*
X92550000Y-80570000D03*
X92550000Y-83110000D03*
X92550000Y-85650000D03*
X92550000Y-88190000D03*
%TD*%
D10*
%TO.C,J7*%
X126250000Y-130000000D03*
D11*
X126250000Y-132540000D03*
%TD*%
%TO.C,J8*%
X122500000Y-132540000D03*
D10*
X122500000Y-130000000D03*
%TD*%
D12*
%TO.C,JP1*%
G36*
X101200602Y-108093889D02*
G01*
X101200602Y-108075466D01*
X101200843Y-108070565D01*
X101205653Y-108021734D01*
X101206373Y-108016881D01*
X101215945Y-107968756D01*
X101217137Y-107963995D01*
X101231381Y-107917040D01*
X101233034Y-107912421D01*
X101251811Y-107867088D01*
X101253909Y-107862651D01*
X101277040Y-107819378D01*
X101279562Y-107815171D01*
X101306822Y-107774372D01*
X101309746Y-107770430D01*
X101340874Y-107732501D01*
X101344169Y-107728866D01*
X101378866Y-107694169D01*
X101382501Y-107690874D01*
X101420430Y-107659746D01*
X101424372Y-107656822D01*
X101465171Y-107629562D01*
X101469378Y-107627040D01*
X101512651Y-107603909D01*
X101517088Y-107601811D01*
X101562421Y-107583034D01*
X101567040Y-107581381D01*
X101613995Y-107567137D01*
X101618756Y-107565945D01*
X101666881Y-107556373D01*
X101671734Y-107555653D01*
X101720565Y-107550843D01*
X101725466Y-107550602D01*
X101743889Y-107550602D01*
X101750000Y-107550000D01*
X102250000Y-107550000D01*
X102256111Y-107550602D01*
X102274534Y-107550602D01*
X102279435Y-107550843D01*
X102328266Y-107555653D01*
X102333119Y-107556373D01*
X102381244Y-107565945D01*
X102386005Y-107567137D01*
X102432960Y-107581381D01*
X102437579Y-107583034D01*
X102482912Y-107601811D01*
X102487349Y-107603909D01*
X102530622Y-107627040D01*
X102534829Y-107629562D01*
X102575628Y-107656822D01*
X102579570Y-107659746D01*
X102617499Y-107690874D01*
X102621134Y-107694169D01*
X102655831Y-107728866D01*
X102659126Y-107732501D01*
X102690254Y-107770430D01*
X102693178Y-107774372D01*
X102720438Y-107815171D01*
X102722960Y-107819378D01*
X102746091Y-107862651D01*
X102748189Y-107867088D01*
X102766966Y-107912421D01*
X102768619Y-107917040D01*
X102782863Y-107963995D01*
X102784055Y-107968756D01*
X102793627Y-108016881D01*
X102794347Y-108021734D01*
X102799157Y-108070565D01*
X102799398Y-108075466D01*
X102799398Y-108093889D01*
X102800000Y-108100000D01*
X102800000Y-108600000D01*
X102799039Y-108609755D01*
X102796194Y-108619134D01*
X102791573Y-108627779D01*
X102785355Y-108635355D01*
X102777779Y-108641573D01*
X102769134Y-108646194D01*
X102759755Y-108649039D01*
X102750000Y-108650000D01*
X101250000Y-108650000D01*
X101240245Y-108649039D01*
X101230866Y-108646194D01*
X101222221Y-108641573D01*
X101214645Y-108635355D01*
X101208427Y-108627779D01*
X101203806Y-108619134D01*
X101200961Y-108609755D01*
X101200000Y-108600000D01*
X101200000Y-108100000D01*
X101200602Y-108093889D01*
G37*
G36*
X101200961Y-108890245D02*
G01*
X101203806Y-108880866D01*
X101208427Y-108872221D01*
X101214645Y-108864645D01*
X101222221Y-108858427D01*
X101230866Y-108853806D01*
X101240245Y-108850961D01*
X101250000Y-108850000D01*
X102750000Y-108850000D01*
X102759755Y-108850961D01*
X102769134Y-108853806D01*
X102777779Y-108858427D01*
X102785355Y-108864645D01*
X102791573Y-108872221D01*
X102796194Y-108880866D01*
X102799039Y-108890245D01*
X102800000Y-108900000D01*
X102800000Y-109400000D01*
X102799398Y-109406111D01*
X102799398Y-109424534D01*
X102799157Y-109429435D01*
X102794347Y-109478266D01*
X102793627Y-109483119D01*
X102784055Y-109531244D01*
X102782863Y-109536005D01*
X102768619Y-109582960D01*
X102766966Y-109587579D01*
X102748189Y-109632912D01*
X102746091Y-109637349D01*
X102722960Y-109680622D01*
X102720438Y-109684829D01*
X102693178Y-109725628D01*
X102690254Y-109729570D01*
X102659126Y-109767499D01*
X102655831Y-109771134D01*
X102621134Y-109805831D01*
X102617499Y-109809126D01*
X102579570Y-109840254D01*
X102575628Y-109843178D01*
X102534829Y-109870438D01*
X102530622Y-109872960D01*
X102487349Y-109896091D01*
X102482912Y-109898189D01*
X102437579Y-109916966D01*
X102432960Y-109918619D01*
X102386005Y-109932863D01*
X102381244Y-109934055D01*
X102333119Y-109943627D01*
X102328266Y-109944347D01*
X102279435Y-109949157D01*
X102274534Y-109949398D01*
X102256111Y-109949398D01*
X102250000Y-109950000D01*
X101750000Y-109950000D01*
X101743889Y-109949398D01*
X101725466Y-109949398D01*
X101720565Y-109949157D01*
X101671734Y-109944347D01*
X101666881Y-109943627D01*
X101618756Y-109934055D01*
X101613995Y-109932863D01*
X101567040Y-109918619D01*
X101562421Y-109916966D01*
X101517088Y-109898189D01*
X101512651Y-109896091D01*
X101469378Y-109872960D01*
X101465171Y-109870438D01*
X101424372Y-109843178D01*
X101420430Y-109840254D01*
X101382501Y-109809126D01*
X101378866Y-109805831D01*
X101344169Y-109771134D01*
X101340874Y-109767499D01*
X101309746Y-109729570D01*
X101306822Y-109725628D01*
X101279562Y-109684829D01*
X101277040Y-109680622D01*
X101253909Y-109637349D01*
X101251811Y-109632912D01*
X101233034Y-109587579D01*
X101231381Y-109582960D01*
X101217137Y-109536005D01*
X101215945Y-109531244D01*
X101206373Y-109483119D01*
X101205653Y-109478266D01*
X101200843Y-109429435D01*
X101200602Y-109424534D01*
X101200602Y-109406111D01*
X101200000Y-109400000D01*
X101200000Y-108900000D01*
X101200961Y-108890245D01*
G37*
%TD*%
%TO.C,JP2*%
G36*
X102799039Y-117509755D02*
G01*
X102796194Y-117519134D01*
X102791573Y-117527779D01*
X102785355Y-117535355D01*
X102777779Y-117541573D01*
X102769134Y-117546194D01*
X102759755Y-117549039D01*
X102750000Y-117550000D01*
X101250000Y-117550000D01*
X101240245Y-117549039D01*
X101230866Y-117546194D01*
X101222221Y-117541573D01*
X101214645Y-117535355D01*
X101208427Y-117527779D01*
X101203806Y-117519134D01*
X101200961Y-117509755D01*
X101200000Y-117500000D01*
X101200000Y-117000000D01*
X101200602Y-116993889D01*
X101200602Y-116975466D01*
X101200843Y-116970565D01*
X101205653Y-116921734D01*
X101206373Y-116916881D01*
X101215945Y-116868756D01*
X101217137Y-116863995D01*
X101231381Y-116817040D01*
X101233034Y-116812421D01*
X101251811Y-116767088D01*
X101253909Y-116762651D01*
X101277040Y-116719378D01*
X101279562Y-116715171D01*
X101306822Y-116674372D01*
X101309746Y-116670430D01*
X101340874Y-116632501D01*
X101344169Y-116628866D01*
X101378866Y-116594169D01*
X101382501Y-116590874D01*
X101420430Y-116559746D01*
X101424372Y-116556822D01*
X101465171Y-116529562D01*
X101469378Y-116527040D01*
X101512651Y-116503909D01*
X101517088Y-116501811D01*
X101562421Y-116483034D01*
X101567040Y-116481381D01*
X101613995Y-116467137D01*
X101618756Y-116465945D01*
X101666881Y-116456373D01*
X101671734Y-116455653D01*
X101720565Y-116450843D01*
X101725466Y-116450602D01*
X101743889Y-116450602D01*
X101750000Y-116450000D01*
X102250000Y-116450000D01*
X102256111Y-116450602D01*
X102274534Y-116450602D01*
X102279435Y-116450843D01*
X102328266Y-116455653D01*
X102333119Y-116456373D01*
X102381244Y-116465945D01*
X102386005Y-116467137D01*
X102432960Y-116481381D01*
X102437579Y-116483034D01*
X102482912Y-116501811D01*
X102487349Y-116503909D01*
X102530622Y-116527040D01*
X102534829Y-116529562D01*
X102575628Y-116556822D01*
X102579570Y-116559746D01*
X102617499Y-116590874D01*
X102621134Y-116594169D01*
X102655831Y-116628866D01*
X102659126Y-116632501D01*
X102690254Y-116670430D01*
X102693178Y-116674372D01*
X102720438Y-116715171D01*
X102722960Y-116719378D01*
X102746091Y-116762651D01*
X102748189Y-116767088D01*
X102766966Y-116812421D01*
X102768619Y-116817040D01*
X102782863Y-116863995D01*
X102784055Y-116868756D01*
X102793627Y-116916881D01*
X102794347Y-116921734D01*
X102799157Y-116970565D01*
X102799398Y-116975466D01*
X102799398Y-116993889D01*
X102800000Y-117000000D01*
X102800000Y-117500000D01*
X102799039Y-117509755D01*
G37*
G36*
X102799398Y-118306111D02*
G01*
X102799398Y-118324534D01*
X102799157Y-118329435D01*
X102794347Y-118378266D01*
X102793627Y-118383119D01*
X102784055Y-118431244D01*
X102782863Y-118436005D01*
X102768619Y-118482960D01*
X102766966Y-118487579D01*
X102748189Y-118532912D01*
X102746091Y-118537349D01*
X102722960Y-118580622D01*
X102720438Y-118584829D01*
X102693178Y-118625628D01*
X102690254Y-118629570D01*
X102659126Y-118667499D01*
X102655831Y-118671134D01*
X102621134Y-118705831D01*
X102617499Y-118709126D01*
X102579570Y-118740254D01*
X102575628Y-118743178D01*
X102534829Y-118770438D01*
X102530622Y-118772960D01*
X102487349Y-118796091D01*
X102482912Y-118798189D01*
X102437579Y-118816966D01*
X102432960Y-118818619D01*
X102386005Y-118832863D01*
X102381244Y-118834055D01*
X102333119Y-118843627D01*
X102328266Y-118844347D01*
X102279435Y-118849157D01*
X102274534Y-118849398D01*
X102256111Y-118849398D01*
X102250000Y-118850000D01*
X101750000Y-118850000D01*
X101743889Y-118849398D01*
X101725466Y-118849398D01*
X101720565Y-118849157D01*
X101671734Y-118844347D01*
X101666881Y-118843627D01*
X101618756Y-118834055D01*
X101613995Y-118832863D01*
X101567040Y-118818619D01*
X101562421Y-118816966D01*
X101517088Y-118798189D01*
X101512651Y-118796091D01*
X101469378Y-118772960D01*
X101465171Y-118770438D01*
X101424372Y-118743178D01*
X101420430Y-118740254D01*
X101382501Y-118709126D01*
X101378866Y-118705831D01*
X101344169Y-118671134D01*
X101340874Y-118667499D01*
X101309746Y-118629570D01*
X101306822Y-118625628D01*
X101279562Y-118584829D01*
X101277040Y-118580622D01*
X101253909Y-118537349D01*
X101251811Y-118532912D01*
X101233034Y-118487579D01*
X101231381Y-118482960D01*
X101217137Y-118436005D01*
X101215945Y-118431244D01*
X101206373Y-118383119D01*
X101205653Y-118378266D01*
X101200843Y-118329435D01*
X101200602Y-118324534D01*
X101200602Y-118306111D01*
X101200000Y-118300000D01*
X101200000Y-117800000D01*
X101200961Y-117790245D01*
X101203806Y-117780866D01*
X101208427Y-117772221D01*
X101214645Y-117764645D01*
X101222221Y-117758427D01*
X101230866Y-117753806D01*
X101240245Y-117750961D01*
X101250000Y-117750000D01*
X102750000Y-117750000D01*
X102759755Y-117750961D01*
X102769134Y-117753806D01*
X102777779Y-117758427D01*
X102785355Y-117764645D01*
X102791573Y-117772221D01*
X102796194Y-117780866D01*
X102799039Y-117790245D01*
X102800000Y-117800000D01*
X102800000Y-118300000D01*
X102799398Y-118306111D01*
G37*
%TD*%
%TO.C,L1*%
G36*
G01*
X112302500Y-85170000D02*
X112697500Y-85170000D01*
G75*
G02*
X112870000Y-85342500I0J-172500D01*
G01*
X112870000Y-85687500D01*
G75*
G02*
X112697500Y-85860000I-172500J0D01*
G01*
X112302500Y-85860000D01*
G75*
G02*
X112130000Y-85687500I0J172500D01*
G01*
X112130000Y-85342500D01*
G75*
G02*
X112302500Y-85170000I172500J0D01*
G01*
G37*
G36*
G01*
X112302500Y-86140000D02*
X112697500Y-86140000D01*
G75*
G02*
X112870000Y-86312500I0J-172500D01*
G01*
X112870000Y-86657500D01*
G75*
G02*
X112697500Y-86830000I-172500J0D01*
G01*
X112302500Y-86830000D01*
G75*
G02*
X112130000Y-86657500I0J172500D01*
G01*
X112130000Y-86312500D01*
G75*
G02*
X112302500Y-86140000I172500J0D01*
G01*
G37*
%TD*%
%TO.C,L2*%
G36*
G01*
X104052500Y-86140000D02*
X104447500Y-86140000D01*
G75*
G02*
X104620000Y-86312500I0J-172500D01*
G01*
X104620000Y-86657500D01*
G75*
G02*
X104447500Y-86830000I-172500J0D01*
G01*
X104052500Y-86830000D01*
G75*
G02*
X103880000Y-86657500I0J172500D01*
G01*
X103880000Y-86312500D01*
G75*
G02*
X104052500Y-86140000I172500J0D01*
G01*
G37*
G36*
G01*
X104052500Y-85170000D02*
X104447500Y-85170000D01*
G75*
G02*
X104620000Y-85342500I0J-172500D01*
G01*
X104620000Y-85687500D01*
G75*
G02*
X104447500Y-85860000I-172500J0D01*
G01*
X104052500Y-85860000D01*
G75*
G02*
X103880000Y-85687500I0J172500D01*
G01*
X103880000Y-85342500D01*
G75*
G02*
X104052500Y-85170000I172500J0D01*
G01*
G37*
%TD*%
%TO.C,L3*%
G36*
G01*
X101860000Y-85052500D02*
X101860000Y-85447500D01*
G75*
G02*
X101687500Y-85620000I-172500J0D01*
G01*
X101342500Y-85620000D01*
G75*
G02*
X101170000Y-85447500I0J172500D01*
G01*
X101170000Y-85052500D01*
G75*
G02*
X101342500Y-84880000I172500J0D01*
G01*
X101687500Y-84880000D01*
G75*
G02*
X101860000Y-85052500I0J-172500D01*
G01*
G37*
G36*
G01*
X102830000Y-85052500D02*
X102830000Y-85447500D01*
G75*
G02*
X102657500Y-85620000I-172500J0D01*
G01*
X102312500Y-85620000D01*
G75*
G02*
X102140000Y-85447500I0J172500D01*
G01*
X102140000Y-85052500D01*
G75*
G02*
X102312500Y-84880000I172500J0D01*
G01*
X102657500Y-84880000D01*
G75*
G02*
X102830000Y-85052500I0J-172500D01*
G01*
G37*
%TD*%
%TO.C,L4*%
G36*
G01*
X102830000Y-76802500D02*
X102830000Y-77197500D01*
G75*
G02*
X102657500Y-77370000I-172500J0D01*
G01*
X102312500Y-77370000D01*
G75*
G02*
X102140000Y-77197500I0J172500D01*
G01*
X102140000Y-76802500D01*
G75*
G02*
X102312500Y-76630000I172500J0D01*
G01*
X102657500Y-76630000D01*
G75*
G02*
X102830000Y-76802500I0J-172500D01*
G01*
G37*
G36*
G01*
X101860000Y-76802500D02*
X101860000Y-77197500D01*
G75*
G02*
X101687500Y-77370000I-172500J0D01*
G01*
X101342500Y-77370000D01*
G75*
G02*
X101170000Y-77197500I0J172500D01*
G01*
X101170000Y-76802500D01*
G75*
G02*
X101342500Y-76630000I172500J0D01*
G01*
X101687500Y-76630000D01*
G75*
G02*
X101860000Y-76802500I0J-172500D01*
G01*
G37*
%TD*%
%TO.C,L5*%
G36*
G01*
X117947500Y-70860000D02*
X117552500Y-70860000D01*
G75*
G02*
X117380000Y-70687500I0J172500D01*
G01*
X117380000Y-70342500D01*
G75*
G02*
X117552500Y-70170000I172500J0D01*
G01*
X117947500Y-70170000D01*
G75*
G02*
X118120000Y-70342500I0J-172500D01*
G01*
X118120000Y-70687500D01*
G75*
G02*
X117947500Y-70860000I-172500J0D01*
G01*
G37*
G36*
G01*
X117947500Y-71830000D02*
X117552500Y-71830000D01*
G75*
G02*
X117380000Y-71657500I0J172500D01*
G01*
X117380000Y-71312500D01*
G75*
G02*
X117552500Y-71140000I172500J0D01*
G01*
X117947500Y-71140000D01*
G75*
G02*
X118120000Y-71312500I0J-172500D01*
G01*
X118120000Y-71657500D01*
G75*
G02*
X117947500Y-71830000I-172500J0D01*
G01*
G37*
%TD*%
%TO.C,L6*%
G36*
G01*
X104697500Y-71830000D02*
X104302500Y-71830000D01*
G75*
G02*
X104130000Y-71657500I0J172500D01*
G01*
X104130000Y-71312500D01*
G75*
G02*
X104302500Y-71140000I172500J0D01*
G01*
X104697500Y-71140000D01*
G75*
G02*
X104870000Y-71312500I0J-172500D01*
G01*
X104870000Y-71657500D01*
G75*
G02*
X104697500Y-71830000I-172500J0D01*
G01*
G37*
G36*
G01*
X104697500Y-70860000D02*
X104302500Y-70860000D01*
G75*
G02*
X104130000Y-70687500I0J172500D01*
G01*
X104130000Y-70342500D01*
G75*
G02*
X104302500Y-70170000I172500J0D01*
G01*
X104697500Y-70170000D01*
G75*
G02*
X104870000Y-70342500I0J-172500D01*
G01*
X104870000Y-70687500D01*
G75*
G02*
X104697500Y-70860000I-172500J0D01*
G01*
G37*
%TD*%
%TO.C,L7*%
G36*
G01*
X110697500Y-72430000D02*
X110302500Y-72430000D01*
G75*
G02*
X110130000Y-72257500I0J172500D01*
G01*
X110130000Y-71912500D01*
G75*
G02*
X110302500Y-71740000I172500J0D01*
G01*
X110697500Y-71740000D01*
G75*
G02*
X110870000Y-71912500I0J-172500D01*
G01*
X110870000Y-72257500D01*
G75*
G02*
X110697500Y-72430000I-172500J0D01*
G01*
G37*
G36*
G01*
X110697500Y-71460000D02*
X110302500Y-71460000D01*
G75*
G02*
X110130000Y-71287500I0J172500D01*
G01*
X110130000Y-70942500D01*
G75*
G02*
X110302500Y-70770000I172500J0D01*
G01*
X110697500Y-70770000D01*
G75*
G02*
X110870000Y-70942500I0J-172500D01*
G01*
X110870000Y-71287500D01*
G75*
G02*
X110697500Y-71460000I-172500J0D01*
G01*
G37*
%TD*%
%TO.C,L8*%
G36*
G01*
X110697500Y-68160000D02*
X110302500Y-68160000D01*
G75*
G02*
X110130000Y-67987500I0J172500D01*
G01*
X110130000Y-67642500D01*
G75*
G02*
X110302500Y-67470000I172500J0D01*
G01*
X110697500Y-67470000D01*
G75*
G02*
X110870000Y-67642500I0J-172500D01*
G01*
X110870000Y-67987500D01*
G75*
G02*
X110697500Y-68160000I-172500J0D01*
G01*
G37*
G36*
G01*
X110697500Y-69130000D02*
X110302500Y-69130000D01*
G75*
G02*
X110130000Y-68957500I0J172500D01*
G01*
X110130000Y-68612500D01*
G75*
G02*
X110302500Y-68440000I172500J0D01*
G01*
X110697500Y-68440000D01*
G75*
G02*
X110870000Y-68612500I0J-172500D01*
G01*
X110870000Y-68957500D01*
G75*
G02*
X110697500Y-69130000I-172500J0D01*
G01*
G37*
%TD*%
%TO.C,L9*%
G36*
G01*
X110022500Y-56680000D02*
X109627500Y-56680000D01*
G75*
G02*
X109455000Y-56507500I0J172500D01*
G01*
X109455000Y-56162500D01*
G75*
G02*
X109627500Y-55990000I172500J0D01*
G01*
X110022500Y-55990000D01*
G75*
G02*
X110195000Y-56162500I0J-172500D01*
G01*
X110195000Y-56507500D01*
G75*
G02*
X110022500Y-56680000I-172500J0D01*
G01*
G37*
G36*
G01*
X110022500Y-55710000D02*
X109627500Y-55710000D01*
G75*
G02*
X109455000Y-55537500I0J172500D01*
G01*
X109455000Y-55192500D01*
G75*
G02*
X109627500Y-55020000I172500J0D01*
G01*
X110022500Y-55020000D01*
G75*
G02*
X110195000Y-55192500I0J-172500D01*
G01*
X110195000Y-55537500D01*
G75*
G02*
X110022500Y-55710000I-172500J0D01*
G01*
G37*
%TD*%
%TO.C,R1*%
G36*
G01*
X113912500Y-89325000D02*
X114437500Y-89325000D01*
G75*
G02*
X114700000Y-89587500I0J-262500D01*
G01*
X114700000Y-90212500D01*
G75*
G02*
X114437500Y-90475000I-262500J0D01*
G01*
X113912500Y-90475000D01*
G75*
G02*
X113650000Y-90212500I0J262500D01*
G01*
X113650000Y-89587500D01*
G75*
G02*
X113912500Y-89325000I262500J0D01*
G01*
G37*
G36*
G01*
X113912500Y-87575000D02*
X114437500Y-87575000D01*
G75*
G02*
X114700000Y-87837500I0J-262500D01*
G01*
X114700000Y-88462500D01*
G75*
G02*
X114437500Y-88725000I-262500J0D01*
G01*
X113912500Y-88725000D01*
G75*
G02*
X113650000Y-88462500I0J262500D01*
G01*
X113650000Y-87837500D01*
G75*
G02*
X113912500Y-87575000I262500J0D01*
G01*
G37*
%TD*%
%TO.C,R2*%
G36*
G01*
X115662500Y-87575000D02*
X116187500Y-87575000D01*
G75*
G02*
X116450000Y-87837500I0J-262500D01*
G01*
X116450000Y-88462500D01*
G75*
G02*
X116187500Y-88725000I-262500J0D01*
G01*
X115662500Y-88725000D01*
G75*
G02*
X115400000Y-88462500I0J262500D01*
G01*
X115400000Y-87837500D01*
G75*
G02*
X115662500Y-87575000I262500J0D01*
G01*
G37*
G36*
G01*
X115662500Y-89325000D02*
X116187500Y-89325000D01*
G75*
G02*
X116450000Y-89587500I0J-262500D01*
G01*
X116450000Y-90212500D01*
G75*
G02*
X116187500Y-90475000I-262500J0D01*
G01*
X115662500Y-90475000D01*
G75*
G02*
X115400000Y-90212500I0J262500D01*
G01*
X115400000Y-89587500D01*
G75*
G02*
X115662500Y-89325000I262500J0D01*
G01*
G37*
%TD*%
%TO.C,R3*%
G36*
G01*
X117412500Y-87575000D02*
X117937500Y-87575000D01*
G75*
G02*
X118200000Y-87837500I0J-262500D01*
G01*
X118200000Y-88462500D01*
G75*
G02*
X117937500Y-88725000I-262500J0D01*
G01*
X117412500Y-88725000D01*
G75*
G02*
X117150000Y-88462500I0J262500D01*
G01*
X117150000Y-87837500D01*
G75*
G02*
X117412500Y-87575000I262500J0D01*
G01*
G37*
G36*
G01*
X117412500Y-89325000D02*
X117937500Y-89325000D01*
G75*
G02*
X118200000Y-89587500I0J-262500D01*
G01*
X118200000Y-90212500D01*
G75*
G02*
X117937500Y-90475000I-262500J0D01*
G01*
X117412500Y-90475000D01*
G75*
G02*
X117150000Y-90212500I0J262500D01*
G01*
X117150000Y-89587500D01*
G75*
G02*
X117412500Y-89325000I262500J0D01*
G01*
G37*
%TD*%
%TO.C,R5*%
G36*
G01*
X97200000Y-69737500D02*
X97200000Y-70262500D01*
G75*
G02*
X96937500Y-70525000I-262500J0D01*
G01*
X96312500Y-70525000D01*
G75*
G02*
X96050000Y-70262500I0J262500D01*
G01*
X96050000Y-69737500D01*
G75*
G02*
X96312500Y-69475000I262500J0D01*
G01*
X96937500Y-69475000D01*
G75*
G02*
X97200000Y-69737500I0J-262500D01*
G01*
G37*
G36*
G01*
X95450000Y-69737500D02*
X95450000Y-70262500D01*
G75*
G02*
X95187500Y-70525000I-262500J0D01*
G01*
X94562500Y-70525000D01*
G75*
G02*
X94300000Y-70262500I0J262500D01*
G01*
X94300000Y-69737500D01*
G75*
G02*
X94562500Y-69475000I262500J0D01*
G01*
X95187500Y-69475000D01*
G75*
G02*
X95450000Y-69737500I0J-262500D01*
G01*
G37*
%TD*%
%TO.C,R6*%
G36*
G01*
X106512500Y-105450000D02*
X105987500Y-105450000D01*
G75*
G02*
X105725000Y-105187500I0J262500D01*
G01*
X105725000Y-104562500D01*
G75*
G02*
X105987500Y-104300000I262500J0D01*
G01*
X106512500Y-104300000D01*
G75*
G02*
X106775000Y-104562500I0J-262500D01*
G01*
X106775000Y-105187500D01*
G75*
G02*
X106512500Y-105450000I-262500J0D01*
G01*
G37*
G36*
G01*
X106512500Y-103700000D02*
X105987500Y-103700000D01*
G75*
G02*
X105725000Y-103437500I0J262500D01*
G01*
X105725000Y-102812500D01*
G75*
G02*
X105987500Y-102550000I262500J0D01*
G01*
X106512500Y-102550000D01*
G75*
G02*
X106775000Y-102812500I0J-262500D01*
G01*
X106775000Y-103437500D01*
G75*
G02*
X106512500Y-103700000I-262500J0D01*
G01*
G37*
%TD*%
%TO.C,R7*%
G36*
G01*
X97200000Y-67237500D02*
X97200000Y-67762500D01*
G75*
G02*
X96937500Y-68025000I-262500J0D01*
G01*
X96312500Y-68025000D01*
G75*
G02*
X96050000Y-67762500I0J262500D01*
G01*
X96050000Y-67237500D01*
G75*
G02*
X96312500Y-66975000I262500J0D01*
G01*
X96937500Y-66975000D01*
G75*
G02*
X97200000Y-67237500I0J-262500D01*
G01*
G37*
G36*
G01*
X95450000Y-67237500D02*
X95450000Y-67762500D01*
G75*
G02*
X95187500Y-68025000I-262500J0D01*
G01*
X94562500Y-68025000D01*
G75*
G02*
X94300000Y-67762500I0J262500D01*
G01*
X94300000Y-67237500D01*
G75*
G02*
X94562500Y-66975000I262500J0D01*
G01*
X95187500Y-66975000D01*
G75*
G02*
X95450000Y-67237500I0J-262500D01*
G01*
G37*
%TD*%
%TO.C,R10*%
G36*
G01*
X133350000Y-121687500D02*
X133350000Y-122212500D01*
G75*
G02*
X133087500Y-122475000I-262500J0D01*
G01*
X132462500Y-122475000D01*
G75*
G02*
X132200000Y-122212500I0J262500D01*
G01*
X132200000Y-121687500D01*
G75*
G02*
X132462500Y-121425000I262500J0D01*
G01*
X133087500Y-121425000D01*
G75*
G02*
X133350000Y-121687500I0J-262500D01*
G01*
G37*
G36*
G01*
X131600000Y-121687500D02*
X131600000Y-122212500D01*
G75*
G02*
X131337500Y-122475000I-262500J0D01*
G01*
X130712500Y-122475000D01*
G75*
G02*
X130450000Y-122212500I0J262500D01*
G01*
X130450000Y-121687500D01*
G75*
G02*
X130712500Y-121425000I262500J0D01*
G01*
X131337500Y-121425000D01*
G75*
G02*
X131600000Y-121687500I0J-262500D01*
G01*
G37*
%TD*%
%TO.C,R11*%
G36*
G01*
X131600000Y-123437500D02*
X131600000Y-123962500D01*
G75*
G02*
X131337500Y-124225000I-262500J0D01*
G01*
X130712500Y-124225000D01*
G75*
G02*
X130450000Y-123962500I0J262500D01*
G01*
X130450000Y-123437500D01*
G75*
G02*
X130712500Y-123175000I262500J0D01*
G01*
X131337500Y-123175000D01*
G75*
G02*
X131600000Y-123437500I0J-262500D01*
G01*
G37*
G36*
G01*
X133350000Y-123437500D02*
X133350000Y-123962500D01*
G75*
G02*
X133087500Y-124225000I-262500J0D01*
G01*
X132462500Y-124225000D01*
G75*
G02*
X132200000Y-123962500I0J262500D01*
G01*
X132200000Y-123437500D01*
G75*
G02*
X132462500Y-123175000I262500J0D01*
G01*
X133087500Y-123175000D01*
G75*
G02*
X133350000Y-123437500I0J-262500D01*
G01*
G37*
%TD*%
%TO.C,R12*%
G36*
G01*
X122200000Y-121387500D02*
X122200000Y-121912500D01*
G75*
G02*
X121937500Y-122175000I-262500J0D01*
G01*
X121312500Y-122175000D01*
G75*
G02*
X121050000Y-121912500I0J262500D01*
G01*
X121050000Y-121387500D01*
G75*
G02*
X121312500Y-121125000I262500J0D01*
G01*
X121937500Y-121125000D01*
G75*
G02*
X122200000Y-121387500I0J-262500D01*
G01*
G37*
G36*
G01*
X123950000Y-121387500D02*
X123950000Y-121912500D01*
G75*
G02*
X123687500Y-122175000I-262500J0D01*
G01*
X123062500Y-122175000D01*
G75*
G02*
X122800000Y-121912500I0J262500D01*
G01*
X122800000Y-121387500D01*
G75*
G02*
X123062500Y-121125000I262500J0D01*
G01*
X123687500Y-121125000D01*
G75*
G02*
X123950000Y-121387500I0J-262500D01*
G01*
G37*
%TD*%
%TO.C,R13*%
G36*
G01*
X122200000Y-123137500D02*
X122200000Y-123662500D01*
G75*
G02*
X121937500Y-123925000I-262500J0D01*
G01*
X121312500Y-123925000D01*
G75*
G02*
X121050000Y-123662500I0J262500D01*
G01*
X121050000Y-123137500D01*
G75*
G02*
X121312500Y-122875000I262500J0D01*
G01*
X121937500Y-122875000D01*
G75*
G02*
X122200000Y-123137500I0J-262500D01*
G01*
G37*
G36*
G01*
X123950000Y-123137500D02*
X123950000Y-123662500D01*
G75*
G02*
X123687500Y-123925000I-262500J0D01*
G01*
X123062500Y-123925000D01*
G75*
G02*
X122800000Y-123662500I0J262500D01*
G01*
X122800000Y-123137500D01*
G75*
G02*
X123062500Y-122875000I262500J0D01*
G01*
X123687500Y-122875000D01*
G75*
G02*
X123950000Y-123137500I0J-262500D01*
G01*
G37*
%TD*%
D19*
%TO.C,SW1*%
X109675001Y-91435001D03*
X101875001Y-91435001D03*
%TD*%
%TO.C,SW2*%
X101875001Y-96750000D03*
X109675001Y-96750000D03*
%TD*%
D20*
%TO.C,U3*%
X104650000Y-117050000D03*
X104650000Y-118000000D03*
X104650000Y-118950000D03*
X106850000Y-118950000D03*
X106850000Y-117050000D03*
%TD*%
D21*
%TO.C,Y1*%
X117375000Y-81950000D03*
X117375000Y-84450000D03*
%TD*%
D22*
%TO.C,Y2*%
X119350000Y-76550000D03*
X119350000Y-74350000D03*
X117650000Y-74350000D03*
X117650000Y-76550000D03*
%TD*%
%TO.C,C19*%
G36*
G01*
X110155000Y-73697500D02*
X110155000Y-73302500D01*
G75*
G02*
X110327500Y-73130000I172500J0D01*
G01*
X110672500Y-73130000D01*
G75*
G02*
X110845000Y-73302500I0J-172500D01*
G01*
X110845000Y-73697500D01*
G75*
G02*
X110672500Y-73870000I-172500J0D01*
G01*
X110327500Y-73870000D01*
G75*
G02*
X110155000Y-73697500I0J172500D01*
G01*
G37*
G36*
G01*
X111125000Y-73697500D02*
X111125000Y-73302500D01*
G75*
G02*
X111297500Y-73130000I172500J0D01*
G01*
X111642500Y-73130000D01*
G75*
G02*
X111815000Y-73302500I0J-172500D01*
G01*
X111815000Y-73697500D01*
G75*
G02*
X111642500Y-73870000I-172500J0D01*
G01*
X111297500Y-73870000D01*
G75*
G02*
X111125000Y-73697500I0J172500D01*
G01*
G37*
%TD*%
%TO.C,C20*%
G36*
G01*
X111125000Y-70147500D02*
X111125000Y-69752500D01*
G75*
G02*
X111297500Y-69580000I172500J0D01*
G01*
X111642500Y-69580000D01*
G75*
G02*
X111815000Y-69752500I0J-172500D01*
G01*
X111815000Y-70147500D01*
G75*
G02*
X111642500Y-70320000I-172500J0D01*
G01*
X111297500Y-70320000D01*
G75*
G02*
X111125000Y-70147500I0J172500D01*
G01*
G37*
G36*
G01*
X110155000Y-70147500D02*
X110155000Y-69752500D01*
G75*
G02*
X110327500Y-69580000I172500J0D01*
G01*
X110672500Y-69580000D01*
G75*
G02*
X110845000Y-69752500I0J-172500D01*
G01*
X110845000Y-70147500D01*
G75*
G02*
X110672500Y-70320000I-172500J0D01*
G01*
X110327500Y-70320000D01*
G75*
G02*
X110155000Y-70147500I0J172500D01*
G01*
G37*
%TD*%
%TO.C,C4*%
G36*
G01*
X110737500Y-86300000D02*
X111262500Y-86300000D01*
G75*
G02*
X111525000Y-86562500I0J-262500D01*
G01*
X111525000Y-87187500D01*
G75*
G02*
X111262500Y-87450000I-262500J0D01*
G01*
X110737500Y-87450000D01*
G75*
G02*
X110475000Y-87187500I0J262500D01*
G01*
X110475000Y-86562500D01*
G75*
G02*
X110737500Y-86300000I262500J0D01*
G01*
G37*
G36*
G01*
X110737500Y-84550000D02*
X111262500Y-84550000D01*
G75*
G02*
X111525000Y-84812500I0J-262500D01*
G01*
X111525000Y-85437500D01*
G75*
G02*
X111262500Y-85700000I-262500J0D01*
G01*
X110737500Y-85700000D01*
G75*
G02*
X110475000Y-85437500I0J262500D01*
G01*
X110475000Y-84812500D01*
G75*
G02*
X110737500Y-84550000I262500J0D01*
G01*
G37*
%TD*%
%TO.C,C6*%
G36*
G01*
X105487500Y-84550000D02*
X106012500Y-84550000D01*
G75*
G02*
X106275000Y-84812500I0J-262500D01*
G01*
X106275000Y-85437500D01*
G75*
G02*
X106012500Y-85700000I-262500J0D01*
G01*
X105487500Y-85700000D01*
G75*
G02*
X105225000Y-85437500I0J262500D01*
G01*
X105225000Y-84812500D01*
G75*
G02*
X105487500Y-84550000I262500J0D01*
G01*
G37*
G36*
G01*
X105487500Y-86300000D02*
X106012500Y-86300000D01*
G75*
G02*
X106275000Y-86562500I0J-262500D01*
G01*
X106275000Y-87187500D01*
G75*
G02*
X106012500Y-87450000I-262500J0D01*
G01*
X105487500Y-87450000D01*
G75*
G02*
X105225000Y-87187500I0J262500D01*
G01*
X105225000Y-86562500D01*
G75*
G02*
X105487500Y-86300000I262500J0D01*
G01*
G37*
%TD*%
%TO.C,C8*%
G36*
G01*
X104200000Y-81737500D02*
X104200000Y-82262500D01*
G75*
G02*
X103937500Y-82525000I-262500J0D01*
G01*
X103312500Y-82525000D01*
G75*
G02*
X103050000Y-82262500I0J262500D01*
G01*
X103050000Y-81737500D01*
G75*
G02*
X103312500Y-81475000I262500J0D01*
G01*
X103937500Y-81475000D01*
G75*
G02*
X104200000Y-81737500I0J-262500D01*
G01*
G37*
G36*
G01*
X102450000Y-81737500D02*
X102450000Y-82262500D01*
G75*
G02*
X102187500Y-82525000I-262500J0D01*
G01*
X101562500Y-82525000D01*
G75*
G02*
X101300000Y-82262500I0J262500D01*
G01*
X101300000Y-81737500D01*
G75*
G02*
X101562500Y-81475000I262500J0D01*
G01*
X102187500Y-81475000D01*
G75*
G02*
X102450000Y-81737500I0J-262500D01*
G01*
G37*
%TD*%
%TO.C,C9*%
G36*
G01*
X103450000Y-78237500D02*
X103450000Y-78762500D01*
G75*
G02*
X103187500Y-79025000I-262500J0D01*
G01*
X102562500Y-79025000D01*
G75*
G02*
X102300000Y-78762500I0J262500D01*
G01*
X102300000Y-78237500D01*
G75*
G02*
X102562500Y-77975000I262500J0D01*
G01*
X103187500Y-77975000D01*
G75*
G02*
X103450000Y-78237500I0J-262500D01*
G01*
G37*
G36*
G01*
X101700000Y-78237500D02*
X101700000Y-78762500D01*
G75*
G02*
X101437500Y-79025000I-262500J0D01*
G01*
X100812500Y-79025000D01*
G75*
G02*
X100550000Y-78762500I0J262500D01*
G01*
X100550000Y-78237500D01*
G75*
G02*
X100812500Y-77975000I262500J0D01*
G01*
X101437500Y-77975000D01*
G75*
G02*
X101700000Y-78237500I0J-262500D01*
G01*
G37*
%TD*%
%TO.C,C10*%
G36*
G01*
X106050000Y-114612500D02*
X106050000Y-114087500D01*
G75*
G02*
X106312500Y-113825000I262500J0D01*
G01*
X106937500Y-113825000D01*
G75*
G02*
X107200000Y-114087500I0J-262500D01*
G01*
X107200000Y-114612500D01*
G75*
G02*
X106937500Y-114875000I-262500J0D01*
G01*
X106312500Y-114875000D01*
G75*
G02*
X106050000Y-114612500I0J262500D01*
G01*
G37*
G36*
G01*
X104300000Y-114612500D02*
X104300000Y-114087500D01*
G75*
G02*
X104562500Y-113825000I262500J0D01*
G01*
X105187500Y-113825000D01*
G75*
G02*
X105450000Y-114087500I0J-262500D01*
G01*
X105450000Y-114612500D01*
G75*
G02*
X105187500Y-114875000I-262500J0D01*
G01*
X104562500Y-114875000D01*
G75*
G02*
X104300000Y-114612500I0J262500D01*
G01*
G37*
%TD*%
%TO.C,C3*%
G36*
G01*
X100793518Y-120975000D02*
X101706482Y-120975000D01*
G75*
G02*
X101975000Y-121243518I0J-268518D01*
G01*
X101975000Y-122381482D01*
G75*
G02*
X101706482Y-122650000I-268518J0D01*
G01*
X100793518Y-122650000D01*
G75*
G02*
X100525000Y-122381482I0J268518D01*
G01*
X100525000Y-121243518D01*
G75*
G02*
X100793518Y-120975000I268518J0D01*
G01*
G37*
G36*
G01*
X100793518Y-123850000D02*
X101706482Y-123850000D01*
G75*
G02*
X101975000Y-124118518I0J-268518D01*
G01*
X101975000Y-125256482D01*
G75*
G02*
X101706482Y-125525000I-268518J0D01*
G01*
X100793518Y-125525000D01*
G75*
G02*
X100525000Y-125256482I0J268518D01*
G01*
X100525000Y-124118518D01*
G75*
G02*
X100793518Y-123850000I268518J0D01*
G01*
G37*
%TD*%
%TO.C,C22*%
G36*
G01*
X108631482Y-130400000D02*
X107718518Y-130400000D01*
G75*
G02*
X107450000Y-130131482I0J268518D01*
G01*
X107450000Y-128993518D01*
G75*
G02*
X107718518Y-128725000I268518J0D01*
G01*
X108631482Y-128725000D01*
G75*
G02*
X108900000Y-128993518I0J-268518D01*
G01*
X108900000Y-130131482D01*
G75*
G02*
X108631482Y-130400000I-268518J0D01*
G01*
G37*
G36*
G01*
X108631482Y-133275000D02*
X107718518Y-133275000D01*
G75*
G02*
X107450000Y-133006482I0J268518D01*
G01*
X107450000Y-131868518D01*
G75*
G02*
X107718518Y-131600000I268518J0D01*
G01*
X108631482Y-131600000D01*
G75*
G02*
X108900000Y-131868518I0J-268518D01*
G01*
X108900000Y-133006482D01*
G75*
G02*
X108631482Y-133275000I-268518J0D01*
G01*
G37*
%TD*%
D11*
%TO.C,J2*%
X113750000Y-132540000D03*
D10*
X113750000Y-130000000D03*
%TD*%
%TO.C,J12*%
G36*
G01*
X104400000Y-131214706D02*
X104400000Y-132785294D01*
G75*
G02*
X104135294Y-133050000I-264706J0D01*
G01*
X102864706Y-133050000D01*
G75*
G02*
X102600000Y-132785294I0J264706D01*
G01*
X102600000Y-131214706D01*
G75*
G02*
X102864706Y-130950000I264706J0D01*
G01*
X104135294Y-130950000D01*
G75*
G02*
X104400000Y-131214706I0J-264706D01*
G01*
G37*
D23*
X101000000Y-132000000D03*
%TD*%
D10*
%TO.C,J13*%
X108750000Y-108000000D03*
D11*
X106210000Y-108000000D03*
%TD*%
D10*
%TO.C,J15*%
X96540000Y-117000000D03*
D11*
X94000000Y-117000000D03*
%TD*%
D12*
%TO.C,JP4*%
G36*
X108450961Y-112140245D02*
G01*
X108453806Y-112130866D01*
X108458427Y-112122221D01*
X108464645Y-112114645D01*
X108472221Y-112108427D01*
X108480866Y-112103806D01*
X108490245Y-112100961D01*
X108500000Y-112100000D01*
X110000000Y-112100000D01*
X110009755Y-112100961D01*
X110019134Y-112103806D01*
X110027779Y-112108427D01*
X110035355Y-112114645D01*
X110041573Y-112122221D01*
X110046194Y-112130866D01*
X110049039Y-112140245D01*
X110050000Y-112150000D01*
X110050000Y-112650000D01*
X110049398Y-112656111D01*
X110049398Y-112674534D01*
X110049157Y-112679435D01*
X110044347Y-112728266D01*
X110043627Y-112733119D01*
X110034055Y-112781244D01*
X110032863Y-112786005D01*
X110018619Y-112832960D01*
X110016966Y-112837579D01*
X109998189Y-112882912D01*
X109996091Y-112887349D01*
X109972960Y-112930622D01*
X109970438Y-112934829D01*
X109943178Y-112975628D01*
X109940254Y-112979570D01*
X109909126Y-113017499D01*
X109905831Y-113021134D01*
X109871134Y-113055831D01*
X109867499Y-113059126D01*
X109829570Y-113090254D01*
X109825628Y-113093178D01*
X109784829Y-113120438D01*
X109780622Y-113122960D01*
X109737349Y-113146091D01*
X109732912Y-113148189D01*
X109687579Y-113166966D01*
X109682960Y-113168619D01*
X109636005Y-113182863D01*
X109631244Y-113184055D01*
X109583119Y-113193627D01*
X109578266Y-113194347D01*
X109529435Y-113199157D01*
X109524534Y-113199398D01*
X109506111Y-113199398D01*
X109500000Y-113200000D01*
X109000000Y-113200000D01*
X108993889Y-113199398D01*
X108975466Y-113199398D01*
X108970565Y-113199157D01*
X108921734Y-113194347D01*
X108916881Y-113193627D01*
X108868756Y-113184055D01*
X108863995Y-113182863D01*
X108817040Y-113168619D01*
X108812421Y-113166966D01*
X108767088Y-113148189D01*
X108762651Y-113146091D01*
X108719378Y-113122960D01*
X108715171Y-113120438D01*
X108674372Y-113093178D01*
X108670430Y-113090254D01*
X108632501Y-113059126D01*
X108628866Y-113055831D01*
X108594169Y-113021134D01*
X108590874Y-113017499D01*
X108559746Y-112979570D01*
X108556822Y-112975628D01*
X108529562Y-112934829D01*
X108527040Y-112930622D01*
X108503909Y-112887349D01*
X108501811Y-112882912D01*
X108483034Y-112837579D01*
X108481381Y-112832960D01*
X108467137Y-112786005D01*
X108465945Y-112781244D01*
X108456373Y-112733119D01*
X108455653Y-112728266D01*
X108450843Y-112679435D01*
X108450602Y-112674534D01*
X108450602Y-112656111D01*
X108450000Y-112650000D01*
X108450000Y-112150000D01*
X108450961Y-112140245D01*
G37*
G36*
X108450602Y-111343889D02*
G01*
X108450602Y-111325466D01*
X108450843Y-111320565D01*
X108455653Y-111271734D01*
X108456373Y-111266881D01*
X108465945Y-111218756D01*
X108467137Y-111213995D01*
X108481381Y-111167040D01*
X108483034Y-111162421D01*
X108501811Y-111117088D01*
X108503909Y-111112651D01*
X108527040Y-111069378D01*
X108529562Y-111065171D01*
X108556822Y-111024372D01*
X108559746Y-111020430D01*
X108590874Y-110982501D01*
X108594169Y-110978866D01*
X108628866Y-110944169D01*
X108632501Y-110940874D01*
X108670430Y-110909746D01*
X108674372Y-110906822D01*
X108715171Y-110879562D01*
X108719378Y-110877040D01*
X108762651Y-110853909D01*
X108767088Y-110851811D01*
X108812421Y-110833034D01*
X108817040Y-110831381D01*
X108863995Y-110817137D01*
X108868756Y-110815945D01*
X108916881Y-110806373D01*
X108921734Y-110805653D01*
X108970565Y-110800843D01*
X108975466Y-110800602D01*
X108993889Y-110800602D01*
X109000000Y-110800000D01*
X109500000Y-110800000D01*
X109506111Y-110800602D01*
X109524534Y-110800602D01*
X109529435Y-110800843D01*
X109578266Y-110805653D01*
X109583119Y-110806373D01*
X109631244Y-110815945D01*
X109636005Y-110817137D01*
X109682960Y-110831381D01*
X109687579Y-110833034D01*
X109732912Y-110851811D01*
X109737349Y-110853909D01*
X109780622Y-110877040D01*
X109784829Y-110879562D01*
X109825628Y-110906822D01*
X109829570Y-110909746D01*
X109867499Y-110940874D01*
X109871134Y-110944169D01*
X109905831Y-110978866D01*
X109909126Y-110982501D01*
X109940254Y-111020430D01*
X109943178Y-111024372D01*
X109970438Y-111065171D01*
X109972960Y-111069378D01*
X109996091Y-111112651D01*
X109998189Y-111117088D01*
X110016966Y-111162421D01*
X110018619Y-111167040D01*
X110032863Y-111213995D01*
X110034055Y-111218756D01*
X110043627Y-111266881D01*
X110044347Y-111271734D01*
X110049157Y-111320565D01*
X110049398Y-111325466D01*
X110049398Y-111343889D01*
X110050000Y-111350000D01*
X110050000Y-111850000D01*
X110049039Y-111859755D01*
X110046194Y-111869134D01*
X110041573Y-111877779D01*
X110035355Y-111885355D01*
X110027779Y-111891573D01*
X110019134Y-111896194D01*
X110009755Y-111899039D01*
X110000000Y-111900000D01*
X108500000Y-111900000D01*
X108490245Y-111899039D01*
X108480866Y-111896194D01*
X108472221Y-111891573D01*
X108464645Y-111885355D01*
X108458427Y-111877779D01*
X108453806Y-111869134D01*
X108450961Y-111859755D01*
X108450000Y-111850000D01*
X108450000Y-111350000D01*
X108450602Y-111343889D01*
G37*
%TD*%
D11*
%TO.C,JP5*%
X114000000Y-117580000D03*
X114000000Y-115040000D03*
D10*
X114000000Y-112500000D03*
%TD*%
%TO.C,JP6*%
X114000000Y-108750000D03*
D11*
X114000000Y-106210000D03*
X114000000Y-103670000D03*
%TD*%
D24*
%TO.C,U1*%
X104050000Y-121720000D03*
X104050000Y-124000000D03*
X104050000Y-126280000D03*
D25*
X110350000Y-124000000D03*
%TD*%
D26*
%TO.C,Q1*%
X129500000Y-127500000D03*
X128550000Y-125500000D03*
X130450000Y-125500000D03*
%TD*%
%TO.C,Q2*%
X120950000Y-125250000D03*
X119050000Y-125250000D03*
X120000000Y-127250000D03*
%TD*%
D27*
%TO.C,D5*%
X98000000Y-121750000D03*
X98000000Y-125750000D03*
%TD*%
D28*
%TO.C,J16*%
X91750000Y-124650000D03*
D29*
X93900000Y-121500000D03*
D30*
X94750000Y-122850000D03*
X94750000Y-122200000D03*
X94750000Y-124800000D03*
X94750000Y-124150000D03*
X94750000Y-123500000D03*
D29*
X93900000Y-125500000D03*
D28*
X91750000Y-122350000D03*
D31*
X91750000Y-120675000D03*
X91750000Y-126325000D03*
D32*
X94000000Y-120300000D03*
X94000000Y-126700000D03*
%TD*%
%TO.C,R16*%
G36*
G01*
X118717544Y-119675000D02*
X120032456Y-119675000D01*
G75*
G02*
X120300000Y-119942544I0J-267544D01*
G01*
X120300000Y-120932456D01*
G75*
G02*
X120032456Y-121200000I-267544J0D01*
G01*
X118717544Y-121200000D01*
G75*
G02*
X118450000Y-120932456I0J267544D01*
G01*
X118450000Y-119942544D01*
G75*
G02*
X118717544Y-119675000I267544J0D01*
G01*
G37*
G36*
G01*
X118717544Y-122650000D02*
X120032456Y-122650000D01*
G75*
G02*
X120300000Y-122917544I0J-267544D01*
G01*
X120300000Y-123907456D01*
G75*
G02*
X120032456Y-124175000I-267544J0D01*
G01*
X118717544Y-124175000D01*
G75*
G02*
X118450000Y-123907456I0J267544D01*
G01*
X118450000Y-122917544D01*
G75*
G02*
X118717544Y-122650000I267544J0D01*
G01*
G37*
%TD*%
%TO.C,R17*%
G36*
G01*
X128192544Y-122925000D02*
X129507456Y-122925000D01*
G75*
G02*
X129775000Y-123192544I0J-267544D01*
G01*
X129775000Y-124182456D01*
G75*
G02*
X129507456Y-124450000I-267544J0D01*
G01*
X128192544Y-124450000D01*
G75*
G02*
X127925000Y-124182456I0J267544D01*
G01*
X127925000Y-123192544D01*
G75*
G02*
X128192544Y-122925000I267544J0D01*
G01*
G37*
G36*
G01*
X128192544Y-119950000D02*
X129507456Y-119950000D01*
G75*
G02*
X129775000Y-120217544I0J-267544D01*
G01*
X129775000Y-121207456D01*
G75*
G02*
X129507456Y-121475000I-267544J0D01*
G01*
X128192544Y-121475000D01*
G75*
G02*
X127925000Y-121207456I0J267544D01*
G01*
X127925000Y-120217544D01*
G75*
G02*
X128192544Y-119950000I267544J0D01*
G01*
G37*
%TD*%
%TO.C,C21*%
G36*
G01*
X110050000Y-66881250D02*
X110050000Y-66318750D01*
G75*
G02*
X110293750Y-66075000I243750J0D01*
G01*
X110781250Y-66075000D01*
G75*
G02*
X111025000Y-66318750I0J-243750D01*
G01*
X111025000Y-66881250D01*
G75*
G02*
X110781250Y-67125000I-243750J0D01*
G01*
X110293750Y-67125000D01*
G75*
G02*
X110050000Y-66881250I0J243750D01*
G01*
G37*
G36*
G01*
X111625000Y-66881250D02*
X111625000Y-66318750D01*
G75*
G02*
X111868750Y-66075000I243750J0D01*
G01*
X112356250Y-66075000D01*
G75*
G02*
X112600000Y-66318750I0J-243750D01*
G01*
X112600000Y-66881250D01*
G75*
G02*
X112356250Y-67125000I-243750J0D01*
G01*
X111868750Y-67125000D01*
G75*
G02*
X111625000Y-66881250I0J243750D01*
G01*
G37*
%TD*%
%TO.C,R8*%
G36*
G01*
X109543750Y-58750000D02*
X110106250Y-58750000D01*
G75*
G02*
X110350000Y-58993750I0J-243750D01*
G01*
X110350000Y-59481250D01*
G75*
G02*
X110106250Y-59725000I-243750J0D01*
G01*
X109543750Y-59725000D01*
G75*
G02*
X109300000Y-59481250I0J243750D01*
G01*
X109300000Y-58993750D01*
G75*
G02*
X109543750Y-58750000I243750J0D01*
G01*
G37*
G36*
G01*
X109543750Y-57175000D02*
X110106250Y-57175000D01*
G75*
G02*
X110350000Y-57418750I0J-243750D01*
G01*
X110350000Y-57906250D01*
G75*
G02*
X110106250Y-58150000I-243750J0D01*
G01*
X109543750Y-58150000D01*
G75*
G02*
X109300000Y-57906250I0J243750D01*
G01*
X109300000Y-57418750D01*
G75*
G02*
X109543750Y-57175000I243750J0D01*
G01*
G37*
%TD*%
%TO.C,R9*%
G36*
G01*
X111887500Y-58968750D02*
X111887500Y-59531250D01*
G75*
G02*
X111643750Y-59775000I-243750J0D01*
G01*
X111156250Y-59775000D01*
G75*
G02*
X110912500Y-59531250I0J243750D01*
G01*
X110912500Y-58968750D01*
G75*
G02*
X111156250Y-58725000I243750J0D01*
G01*
X111643750Y-58725000D01*
G75*
G02*
X111887500Y-58968750I0J-243750D01*
G01*
G37*
G36*
G01*
X110312500Y-58968750D02*
X110312500Y-59531250D01*
G75*
G02*
X110068750Y-59775000I-243750J0D01*
G01*
X109581250Y-59775000D01*
G75*
G02*
X109337500Y-59531250I0J243750D01*
G01*
X109337500Y-58968750D01*
G75*
G02*
X109581250Y-58725000I243750J0D01*
G01*
X110068750Y-58725000D01*
G75*
G02*
X110312500Y-58968750I0J-243750D01*
G01*
G37*
%TD*%
D33*
G36*
X108174367Y-79124285D02*
G01*
X107852001Y-79124285D01*
X107852001Y-76278285D01*
X108171635Y-76278285D01*
X108174367Y-79124285D01*
G37*
X108174367Y-79124285D02*
X107852001Y-79124285D01*
X107852001Y-76278285D01*
X108171635Y-76278285D01*
X108174367Y-79124285D01*
G36*
X111723000Y-75548714D02*
G01*
X108877000Y-75548030D01*
X108877000Y-75227683D01*
X111723000Y-75226317D01*
X111723000Y-75548714D01*
G37*
X111723000Y-75548714D02*
X108877000Y-75548030D01*
X108877000Y-75227683D01*
X111723000Y-75226317D01*
X111723000Y-75548714D01*
G36*
X112772323Y-79110651D02*
G01*
X112452689Y-79110651D01*
X112451323Y-76264651D01*
X112773689Y-76264651D01*
X112772323Y-79110651D01*
G37*
X112772323Y-79110651D02*
X112452689Y-79110651D01*
X112451323Y-76264651D01*
X112773689Y-76264651D01*
X112772323Y-79110651D01*
G36*
X111714480Y-79877680D02*
G01*
X111714480Y-80197314D01*
X108868480Y-80198680D01*
X108868480Y-79876314D01*
X111714480Y-79877680D01*
G37*
X111714480Y-79877680D02*
X111714480Y-80197314D01*
X108868480Y-80198680D01*
X108868480Y-79876314D01*
X111714480Y-79877680D01*
M02*
