%TF.GenerationSoftware,KiCad,Pcbnew,(5.1.6)-1*%
%TF.CreationDate,2021-03-25T12:52:47+05:30*%
%TF.ProjectId,RX_Controller,52585f43-6f6e-4747-926f-6c6c65722e6b,rev?*%
%TF.SameCoordinates,Original*%
%TF.FileFunction,Soldermask,Bot*%
%TF.FilePolarity,Negative*%
%FSLAX46Y46*%
G04 Gerber Fmt 4.6, Leading zero omitted, Abs format (unit mm)*
G04 Created by KiCad (PCBNEW (5.1.6)-1) date 2021-03-25 12:52:47*
%MOMM*%
%LPD*%
G01*
G04 APERTURE LIST*
%ADD10O,1.950000X3.148000*%
%ADD11O,1.800000X1.800000*%
%ADD12R,1.800000X1.800000*%
%ADD13R,2.100000X2.100000*%
%ADD14C,2.100000*%
%ADD15R,2.600000X1.900000*%
%ADD16R,3.600000X3.600000*%
%ADD17R,1.100000X1.100000*%
%ADD18O,1.100000X1.100000*%
%ADD19R,1.450000X1.450000*%
%ADD20O,1.450000X1.450000*%
%ADD21R,2.500000X1.600000*%
%ADD22R,2.800000X2.800000*%
%ADD23R,0.750000X0.500000*%
%ADD24R,1.900000X1.900000*%
%ADD25C,1.900000*%
%ADD26R,0.700000X0.550000*%
%ADD27R,0.500000X0.750000*%
G04 APERTURE END LIST*
D10*
%TO.C,SW1*%
X107500000Y-90750000D03*
X112500000Y-90750000D03*
X107500000Y-103250000D03*
X112500000Y-103250000D03*
%TD*%
D11*
%TO.C,J3*%
X148250000Y-81630000D03*
X148250000Y-84170000D03*
X148250000Y-86710000D03*
D12*
X148250000Y-89250000D03*
%TD*%
%TO.C,U3*%
G36*
G01*
X109050000Y-82420000D02*
X109050000Y-82770000D01*
G75*
G02*
X108875000Y-82945000I-175000J0D01*
G01*
X107175000Y-82945000D01*
G75*
G02*
X107000000Y-82770000I0J175000D01*
G01*
X107000000Y-82420000D01*
G75*
G02*
X107175000Y-82245000I175000J0D01*
G01*
X108875000Y-82245000D01*
G75*
G02*
X109050000Y-82420000I0J-175000D01*
G01*
G37*
G36*
G01*
X109050000Y-83690000D02*
X109050000Y-84040000D01*
G75*
G02*
X108875000Y-84215000I-175000J0D01*
G01*
X107175000Y-84215000D01*
G75*
G02*
X107000000Y-84040000I0J175000D01*
G01*
X107000000Y-83690000D01*
G75*
G02*
X107175000Y-83515000I175000J0D01*
G01*
X108875000Y-83515000D01*
G75*
G02*
X109050000Y-83690000I0J-175000D01*
G01*
G37*
G36*
G01*
X109050000Y-84960000D02*
X109050000Y-85310000D01*
G75*
G02*
X108875000Y-85485000I-175000J0D01*
G01*
X107175000Y-85485000D01*
G75*
G02*
X107000000Y-85310000I0J175000D01*
G01*
X107000000Y-84960000D01*
G75*
G02*
X107175000Y-84785000I175000J0D01*
G01*
X108875000Y-84785000D01*
G75*
G02*
X109050000Y-84960000I0J-175000D01*
G01*
G37*
G36*
G01*
X109050000Y-86230000D02*
X109050000Y-86580000D01*
G75*
G02*
X108875000Y-86755000I-175000J0D01*
G01*
X107175000Y-86755000D01*
G75*
G02*
X107000000Y-86580000I0J175000D01*
G01*
X107000000Y-86230000D01*
G75*
G02*
X107175000Y-86055000I175000J0D01*
G01*
X108875000Y-86055000D01*
G75*
G02*
X109050000Y-86230000I0J-175000D01*
G01*
G37*
G36*
G01*
X114000000Y-86230000D02*
X114000000Y-86580000D01*
G75*
G02*
X113825000Y-86755000I-175000J0D01*
G01*
X112125000Y-86755000D01*
G75*
G02*
X111950000Y-86580000I0J175000D01*
G01*
X111950000Y-86230000D01*
G75*
G02*
X112125000Y-86055000I175000J0D01*
G01*
X113825000Y-86055000D01*
G75*
G02*
X114000000Y-86230000I0J-175000D01*
G01*
G37*
G36*
G01*
X114000000Y-84960000D02*
X114000000Y-85310000D01*
G75*
G02*
X113825000Y-85485000I-175000J0D01*
G01*
X112125000Y-85485000D01*
G75*
G02*
X111950000Y-85310000I0J175000D01*
G01*
X111950000Y-84960000D01*
G75*
G02*
X112125000Y-84785000I175000J0D01*
G01*
X113825000Y-84785000D01*
G75*
G02*
X114000000Y-84960000I0J-175000D01*
G01*
G37*
G36*
G01*
X114000000Y-83690000D02*
X114000000Y-84040000D01*
G75*
G02*
X113825000Y-84215000I-175000J0D01*
G01*
X112125000Y-84215000D01*
G75*
G02*
X111950000Y-84040000I0J175000D01*
G01*
X111950000Y-83690000D01*
G75*
G02*
X112125000Y-83515000I175000J0D01*
G01*
X113825000Y-83515000D01*
G75*
G02*
X114000000Y-83690000I0J-175000D01*
G01*
G37*
G36*
G01*
X114000000Y-82420000D02*
X114000000Y-82770000D01*
G75*
G02*
X113825000Y-82945000I-175000J0D01*
G01*
X112125000Y-82945000D01*
G75*
G02*
X111950000Y-82770000I0J175000D01*
G01*
X111950000Y-82420000D01*
G75*
G02*
X112125000Y-82245000I175000J0D01*
G01*
X113825000Y-82245000D01*
G75*
G02*
X114000000Y-82420000I0J-175000D01*
G01*
G37*
%TD*%
%TO.C,BT1*%
X125540000Y-111750000D03*
D11*
X123000000Y-111750000D03*
%TD*%
D13*
%TO.C,BZ1*%
X110250000Y-107600000D03*
D14*
X102650000Y-107600000D03*
%TD*%
%TO.C,C1*%
G36*
G01*
X146050000Y-98212500D02*
X146050000Y-97687500D01*
G75*
G02*
X146312500Y-97425000I262500J0D01*
G01*
X146937500Y-97425000D01*
G75*
G02*
X147200000Y-97687500I0J-262500D01*
G01*
X147200000Y-98212500D01*
G75*
G02*
X146937500Y-98475000I-262500J0D01*
G01*
X146312500Y-98475000D01*
G75*
G02*
X146050000Y-98212500I0J262500D01*
G01*
G37*
G36*
G01*
X147800000Y-98212500D02*
X147800000Y-97687500D01*
G75*
G02*
X148062500Y-97425000I262500J0D01*
G01*
X148687500Y-97425000D01*
G75*
G02*
X148950000Y-97687500I0J-262500D01*
G01*
X148950000Y-98212500D01*
G75*
G02*
X148687500Y-98475000I-262500J0D01*
G01*
X148062500Y-98475000D01*
G75*
G02*
X147800000Y-98212500I0J262500D01*
G01*
G37*
%TD*%
%TO.C,C2*%
G36*
G01*
X147800000Y-99762500D02*
X147800000Y-99237500D01*
G75*
G02*
X148062500Y-98975000I262500J0D01*
G01*
X148687500Y-98975000D01*
G75*
G02*
X148950000Y-99237500I0J-262500D01*
G01*
X148950000Y-99762500D01*
G75*
G02*
X148687500Y-100025000I-262500J0D01*
G01*
X148062500Y-100025000D01*
G75*
G02*
X147800000Y-99762500I0J262500D01*
G01*
G37*
G36*
G01*
X146050000Y-99762500D02*
X146050000Y-99237500D01*
G75*
G02*
X146312500Y-98975000I262500J0D01*
G01*
X146937500Y-98975000D01*
G75*
G02*
X147200000Y-99237500I0J-262500D01*
G01*
X147200000Y-99762500D01*
G75*
G02*
X146937500Y-100025000I-262500J0D01*
G01*
X146312500Y-100025000D01*
G75*
G02*
X146050000Y-99762500I0J262500D01*
G01*
G37*
%TD*%
%TO.C,C3*%
G36*
G01*
X133640000Y-94347500D02*
X133640000Y-93952500D01*
G75*
G02*
X133812500Y-93780000I172500J0D01*
G01*
X134157500Y-93780000D01*
G75*
G02*
X134330000Y-93952500I0J-172500D01*
G01*
X134330000Y-94347500D01*
G75*
G02*
X134157500Y-94520000I-172500J0D01*
G01*
X133812500Y-94520000D01*
G75*
G02*
X133640000Y-94347500I0J172500D01*
G01*
G37*
G36*
G01*
X132670000Y-94347500D02*
X132670000Y-93952500D01*
G75*
G02*
X132842500Y-93780000I172500J0D01*
G01*
X133187500Y-93780000D01*
G75*
G02*
X133360000Y-93952500I0J-172500D01*
G01*
X133360000Y-94347500D01*
G75*
G02*
X133187500Y-94520000I-172500J0D01*
G01*
X132842500Y-94520000D01*
G75*
G02*
X132670000Y-94347500I0J172500D01*
G01*
G37*
%TD*%
%TO.C,C4*%
G36*
G01*
X132200000Y-102737500D02*
X132200000Y-103262500D01*
G75*
G02*
X131937500Y-103525000I-262500J0D01*
G01*
X131312500Y-103525000D01*
G75*
G02*
X131050000Y-103262500I0J262500D01*
G01*
X131050000Y-102737500D01*
G75*
G02*
X131312500Y-102475000I262500J0D01*
G01*
X131937500Y-102475000D01*
G75*
G02*
X132200000Y-102737500I0J-262500D01*
G01*
G37*
G36*
G01*
X130450000Y-102737500D02*
X130450000Y-103262500D01*
G75*
G02*
X130187500Y-103525000I-262500J0D01*
G01*
X129562500Y-103525000D01*
G75*
G02*
X129300000Y-103262500I0J262500D01*
G01*
X129300000Y-102737500D01*
G75*
G02*
X129562500Y-102475000I262500J0D01*
G01*
X130187500Y-102475000D01*
G75*
G02*
X130450000Y-102737500I0J-262500D01*
G01*
G37*
%TD*%
%TO.C,C6*%
G36*
G01*
X142597501Y-92200000D02*
X142072501Y-92200000D01*
G75*
G02*
X141810001Y-91937500I0J262500D01*
G01*
X141810001Y-91312500D01*
G75*
G02*
X142072501Y-91050000I262500J0D01*
G01*
X142597501Y-91050000D01*
G75*
G02*
X142860001Y-91312500I0J-262500D01*
G01*
X142860001Y-91937500D01*
G75*
G02*
X142597501Y-92200000I-262500J0D01*
G01*
G37*
G36*
G01*
X142597501Y-90450000D02*
X142072501Y-90450000D01*
G75*
G02*
X141810001Y-90187500I0J262500D01*
G01*
X141810001Y-89562500D01*
G75*
G02*
X142072501Y-89300000I262500J0D01*
G01*
X142597501Y-89300000D01*
G75*
G02*
X142860001Y-89562500I0J-262500D01*
G01*
X142860001Y-90187500D01*
G75*
G02*
X142597501Y-90450000I-262500J0D01*
G01*
G37*
%TD*%
%TO.C,C8*%
G36*
G01*
X126949999Y-102737501D02*
X126949999Y-103262501D01*
G75*
G02*
X126687499Y-103525001I-262500J0D01*
G01*
X126062499Y-103525001D01*
G75*
G02*
X125799999Y-103262501I0J262500D01*
G01*
X125799999Y-102737501D01*
G75*
G02*
X126062499Y-102475001I262500J0D01*
G01*
X126687499Y-102475001D01*
G75*
G02*
X126949999Y-102737501I0J-262500D01*
G01*
G37*
G36*
G01*
X128699999Y-102737501D02*
X128699999Y-103262501D01*
G75*
G02*
X128437499Y-103525001I-262500J0D01*
G01*
X127812499Y-103525001D01*
G75*
G02*
X127549999Y-103262501I0J262500D01*
G01*
X127549999Y-102737501D01*
G75*
G02*
X127812499Y-102475001I262500J0D01*
G01*
X128437499Y-102475001D01*
G75*
G02*
X128699999Y-102737501I0J-262500D01*
G01*
G37*
%TD*%
%TO.C,C9*%
G36*
G01*
X141012500Y-90450000D02*
X140487500Y-90450000D01*
G75*
G02*
X140225000Y-90187500I0J262500D01*
G01*
X140225000Y-89562500D01*
G75*
G02*
X140487500Y-89300000I262500J0D01*
G01*
X141012500Y-89300000D01*
G75*
G02*
X141275000Y-89562500I0J-262500D01*
G01*
X141275000Y-90187500D01*
G75*
G02*
X141012500Y-90450000I-262500J0D01*
G01*
G37*
G36*
G01*
X141012500Y-92200000D02*
X140487500Y-92200000D01*
G75*
G02*
X140225000Y-91937500I0J262500D01*
G01*
X140225000Y-91312500D01*
G75*
G02*
X140487500Y-91050000I262500J0D01*
G01*
X141012500Y-91050000D01*
G75*
G02*
X141275000Y-91312500I0J-262500D01*
G01*
X141275000Y-91937500D01*
G75*
G02*
X141012500Y-92200000I-262500J0D01*
G01*
G37*
%TD*%
%TO.C,C10*%
G36*
G01*
X128700000Y-104237500D02*
X128700000Y-104762500D01*
G75*
G02*
X128437500Y-105025000I-262500J0D01*
G01*
X127812500Y-105025000D01*
G75*
G02*
X127550000Y-104762500I0J262500D01*
G01*
X127550000Y-104237500D01*
G75*
G02*
X127812500Y-103975000I262500J0D01*
G01*
X128437500Y-103975000D01*
G75*
G02*
X128700000Y-104237500I0J-262500D01*
G01*
G37*
G36*
G01*
X126950000Y-104237500D02*
X126950000Y-104762500D01*
G75*
G02*
X126687500Y-105025000I-262500J0D01*
G01*
X126062500Y-105025000D01*
G75*
G02*
X125800000Y-104762500I0J262500D01*
G01*
X125800000Y-104237500D01*
G75*
G02*
X126062500Y-103975000I262500J0D01*
G01*
X126687500Y-103975000D01*
G75*
G02*
X126950000Y-104237500I0J-262500D01*
G01*
G37*
%TD*%
%TO.C,C11*%
G36*
G01*
X111325000Y-93737500D02*
X111325000Y-94262500D01*
G75*
G02*
X111062500Y-94525000I-262500J0D01*
G01*
X110437500Y-94525000D01*
G75*
G02*
X110175000Y-94262500I0J262500D01*
G01*
X110175000Y-93737500D01*
G75*
G02*
X110437500Y-93475000I262500J0D01*
G01*
X111062500Y-93475000D01*
G75*
G02*
X111325000Y-93737500I0J-262500D01*
G01*
G37*
G36*
G01*
X113075000Y-93737500D02*
X113075000Y-94262500D01*
G75*
G02*
X112812500Y-94525000I-262500J0D01*
G01*
X112187500Y-94525000D01*
G75*
G02*
X111925000Y-94262500I0J262500D01*
G01*
X111925000Y-93737500D01*
G75*
G02*
X112187500Y-93475000I262500J0D01*
G01*
X112812500Y-93475000D01*
G75*
G02*
X113075000Y-93737500I0J-262500D01*
G01*
G37*
%TD*%
%TO.C,C13*%
G36*
G01*
X109300000Y-98512500D02*
X109300000Y-99037500D01*
G75*
G02*
X109037500Y-99300000I-262500J0D01*
G01*
X108412500Y-99300000D01*
G75*
G02*
X108150000Y-99037500I0J262500D01*
G01*
X108150000Y-98512500D01*
G75*
G02*
X108412500Y-98250000I262500J0D01*
G01*
X109037500Y-98250000D01*
G75*
G02*
X109300000Y-98512500I0J-262500D01*
G01*
G37*
G36*
G01*
X107550000Y-98512500D02*
X107550000Y-99037500D01*
G75*
G02*
X107287500Y-99300000I-262500J0D01*
G01*
X106662500Y-99300000D01*
G75*
G02*
X106400000Y-99037500I0J262500D01*
G01*
X106400000Y-98512500D01*
G75*
G02*
X106662500Y-98250000I262500J0D01*
G01*
X107287500Y-98250000D01*
G75*
G02*
X107550000Y-98512500I0J-262500D01*
G01*
G37*
%TD*%
%TO.C,C12*%
G36*
G01*
X122802500Y-107670000D02*
X123197500Y-107670000D01*
G75*
G02*
X123370000Y-107842500I0J-172500D01*
G01*
X123370000Y-108187500D01*
G75*
G02*
X123197500Y-108360000I-172500J0D01*
G01*
X122802500Y-108360000D01*
G75*
G02*
X122630000Y-108187500I0J172500D01*
G01*
X122630000Y-107842500D01*
G75*
G02*
X122802500Y-107670000I172500J0D01*
G01*
G37*
G36*
G01*
X122802500Y-108640000D02*
X123197500Y-108640000D01*
G75*
G02*
X123370000Y-108812500I0J-172500D01*
G01*
X123370000Y-109157500D01*
G75*
G02*
X123197500Y-109330000I-172500J0D01*
G01*
X122802500Y-109330000D01*
G75*
G02*
X122630000Y-109157500I0J172500D01*
G01*
X122630000Y-108812500D01*
G75*
G02*
X122802500Y-108640000I172500J0D01*
G01*
G37*
%TD*%
%TO.C,C14*%
G36*
G01*
X133802500Y-89920000D02*
X134197500Y-89920000D01*
G75*
G02*
X134370000Y-90092500I0J-172500D01*
G01*
X134370000Y-90437500D01*
G75*
G02*
X134197500Y-90610000I-172500J0D01*
G01*
X133802500Y-90610000D01*
G75*
G02*
X133630000Y-90437500I0J172500D01*
G01*
X133630000Y-90092500D01*
G75*
G02*
X133802500Y-89920000I172500J0D01*
G01*
G37*
G36*
G01*
X133802500Y-90890000D02*
X134197500Y-90890000D01*
G75*
G02*
X134370000Y-91062500I0J-172500D01*
G01*
X134370000Y-91407500D01*
G75*
G02*
X134197500Y-91580000I-172500J0D01*
G01*
X133802500Y-91580000D01*
G75*
G02*
X133630000Y-91407500I0J172500D01*
G01*
X133630000Y-91062500D01*
G75*
G02*
X133802500Y-90890000I172500J0D01*
G01*
G37*
%TD*%
%TO.C,C17*%
G36*
G01*
X122512500Y-91200000D02*
X121987500Y-91200000D01*
G75*
G02*
X121725000Y-90937500I0J262500D01*
G01*
X121725000Y-90312500D01*
G75*
G02*
X121987500Y-90050000I262500J0D01*
G01*
X122512500Y-90050000D01*
G75*
G02*
X122775000Y-90312500I0J-262500D01*
G01*
X122775000Y-90937500D01*
G75*
G02*
X122512500Y-91200000I-262500J0D01*
G01*
G37*
G36*
G01*
X122512500Y-92950000D02*
X121987500Y-92950000D01*
G75*
G02*
X121725000Y-92687500I0J262500D01*
G01*
X121725000Y-92062500D01*
G75*
G02*
X121987500Y-91800000I262500J0D01*
G01*
X122512500Y-91800000D01*
G75*
G02*
X122775000Y-92062500I0J-262500D01*
G01*
X122775000Y-92687500D01*
G75*
G02*
X122512500Y-92950000I-262500J0D01*
G01*
G37*
%TD*%
D15*
%TO.C,D6*%
X123000000Y-87750000D03*
X119000000Y-87750000D03*
%TD*%
D12*
%TO.C,J4*%
X101750000Y-89250000D03*
D11*
X101750000Y-86710000D03*
X101750000Y-84170000D03*
X101750000Y-81630000D03*
%TD*%
D16*
%TO.C,J1*%
X145000000Y-103500000D03*
G36*
G01*
X146025000Y-111050000D02*
X143975000Y-111050000D01*
G75*
G02*
X143200000Y-110275000I0J775000D01*
G01*
X143200000Y-108725000D01*
G75*
G02*
X143975000Y-107950000I775000J0D01*
G01*
X146025000Y-107950000D01*
G75*
G02*
X146800000Y-108725000I0J-775000D01*
G01*
X146800000Y-110275000D01*
G75*
G02*
X146025000Y-111050000I-775000J0D01*
G01*
G37*
G36*
G01*
X141200000Y-108300000D02*
X139400000Y-108300000D01*
G75*
G02*
X138500000Y-107400000I0J900000D01*
G01*
X138500000Y-105600000D01*
G75*
G02*
X139400000Y-104700000I900000J0D01*
G01*
X141200000Y-104700000D01*
G75*
G02*
X142100000Y-105600000I0J-900000D01*
G01*
X142100000Y-107400000D01*
G75*
G02*
X141200000Y-108300000I-900000J0D01*
G01*
G37*
%TD*%
D17*
%TO.C,J2*%
X118750000Y-112250000D03*
D18*
X117480000Y-112250000D03*
X118750000Y-110980000D03*
X117480000Y-110980000D03*
X118750000Y-109710000D03*
X117480000Y-109710000D03*
X118750000Y-108440000D03*
X117480000Y-108440000D03*
X118750000Y-107170000D03*
X117480000Y-107170000D03*
%TD*%
D19*
%TO.C,J5*%
X148250000Y-93750000D03*
D20*
X148250000Y-95750000D03*
%TD*%
%TO.C,JP1*%
G36*
G01*
X140875000Y-97350000D02*
X141625000Y-97350000D01*
G75*
G02*
X141850000Y-97575000I0J-225000D01*
G01*
X141850000Y-98025000D01*
G75*
G02*
X141625000Y-98250000I-225000J0D01*
G01*
X140875000Y-98250000D01*
G75*
G02*
X140650000Y-98025000I0J225000D01*
G01*
X140650000Y-97575000D01*
G75*
G02*
X140875000Y-97350000I225000J0D01*
G01*
G37*
G36*
G01*
X140875000Y-96250000D02*
X141625000Y-96250000D01*
G75*
G02*
X141850000Y-96475000I0J-225000D01*
G01*
X141850000Y-96925000D01*
G75*
G02*
X141625000Y-97150000I-225000J0D01*
G01*
X140875000Y-97150000D01*
G75*
G02*
X140650000Y-96925000I0J225000D01*
G01*
X140650000Y-96475000D01*
G75*
G02*
X140875000Y-96250000I225000J0D01*
G01*
G37*
%TD*%
%TO.C,JP2*%
G36*
G01*
X123575000Y-94000000D02*
X124325000Y-94000000D01*
G75*
G02*
X124550000Y-94225000I0J-225000D01*
G01*
X124550000Y-94675000D01*
G75*
G02*
X124325000Y-94900000I-225000J0D01*
G01*
X123575000Y-94900000D01*
G75*
G02*
X123350000Y-94675000I0J225000D01*
G01*
X123350000Y-94225000D01*
G75*
G02*
X123575000Y-94000000I225000J0D01*
G01*
G37*
G36*
G01*
X123575000Y-95100000D02*
X124325000Y-95100000D01*
G75*
G02*
X124550000Y-95325000I0J-225000D01*
G01*
X124550000Y-95775000D01*
G75*
G02*
X124325000Y-96000000I-225000J0D01*
G01*
X123575000Y-96000000D01*
G75*
G02*
X123350000Y-95775000I0J225000D01*
G01*
X123350000Y-95325000D01*
G75*
G02*
X123575000Y-95100000I225000J0D01*
G01*
G37*
%TD*%
D21*
%TO.C,L1*%
X128250000Y-100750000D03*
X128250000Y-95250000D03*
%TD*%
%TO.C,L2*%
X128250000Y-87000000D03*
X128250000Y-92500000D03*
%TD*%
%TO.C,R2*%
G36*
G01*
X138052500Y-102170000D02*
X138447500Y-102170000D01*
G75*
G02*
X138620000Y-102342500I0J-172500D01*
G01*
X138620000Y-102687500D01*
G75*
G02*
X138447500Y-102860000I-172500J0D01*
G01*
X138052500Y-102860000D01*
G75*
G02*
X137880000Y-102687500I0J172500D01*
G01*
X137880000Y-102342500D01*
G75*
G02*
X138052500Y-102170000I172500J0D01*
G01*
G37*
G36*
G01*
X138052500Y-103140000D02*
X138447500Y-103140000D01*
G75*
G02*
X138620000Y-103312500I0J-172500D01*
G01*
X138620000Y-103657500D01*
G75*
G02*
X138447500Y-103830000I-172500J0D01*
G01*
X138052500Y-103830000D01*
G75*
G02*
X137880000Y-103657500I0J172500D01*
G01*
X137880000Y-103312500D01*
G75*
G02*
X138052500Y-103140000I172500J0D01*
G01*
G37*
%TD*%
%TO.C,R3*%
G36*
G01*
X139052500Y-102170000D02*
X139447500Y-102170000D01*
G75*
G02*
X139620000Y-102342500I0J-172500D01*
G01*
X139620000Y-102687500D01*
G75*
G02*
X139447500Y-102860000I-172500J0D01*
G01*
X139052500Y-102860000D01*
G75*
G02*
X138880000Y-102687500I0J172500D01*
G01*
X138880000Y-102342500D01*
G75*
G02*
X139052500Y-102170000I172500J0D01*
G01*
G37*
G36*
G01*
X139052500Y-103140000D02*
X139447500Y-103140000D01*
G75*
G02*
X139620000Y-103312500I0J-172500D01*
G01*
X139620000Y-103657500D01*
G75*
G02*
X139447500Y-103830000I-172500J0D01*
G01*
X139052500Y-103830000D01*
G75*
G02*
X138880000Y-103657500I0J172500D01*
G01*
X138880000Y-103312500D01*
G75*
G02*
X139052500Y-103140000I172500J0D01*
G01*
G37*
%TD*%
%TO.C,R5*%
G36*
G01*
X135737500Y-104050000D02*
X136262500Y-104050000D01*
G75*
G02*
X136525000Y-104312500I0J-262500D01*
G01*
X136525000Y-104937500D01*
G75*
G02*
X136262500Y-105200000I-262500J0D01*
G01*
X135737500Y-105200000D01*
G75*
G02*
X135475000Y-104937500I0J262500D01*
G01*
X135475000Y-104312500D01*
G75*
G02*
X135737500Y-104050000I262500J0D01*
G01*
G37*
G36*
G01*
X135737500Y-102300000D02*
X136262500Y-102300000D01*
G75*
G02*
X136525000Y-102562500I0J-262500D01*
G01*
X136525000Y-103187500D01*
G75*
G02*
X136262500Y-103450000I-262500J0D01*
G01*
X135737500Y-103450000D01*
G75*
G02*
X135475000Y-103187500I0J262500D01*
G01*
X135475000Y-102562500D01*
G75*
G02*
X135737500Y-102300000I262500J0D01*
G01*
G37*
%TD*%
%TO.C,R6*%
G36*
G01*
X137052500Y-103140000D02*
X137447500Y-103140000D01*
G75*
G02*
X137620000Y-103312500I0J-172500D01*
G01*
X137620000Y-103657500D01*
G75*
G02*
X137447500Y-103830000I-172500J0D01*
G01*
X137052500Y-103830000D01*
G75*
G02*
X136880000Y-103657500I0J172500D01*
G01*
X136880000Y-103312500D01*
G75*
G02*
X137052500Y-103140000I172500J0D01*
G01*
G37*
G36*
G01*
X137052500Y-102170000D02*
X137447500Y-102170000D01*
G75*
G02*
X137620000Y-102342500I0J-172500D01*
G01*
X137620000Y-102687500D01*
G75*
G02*
X137447500Y-102860000I-172500J0D01*
G01*
X137052500Y-102860000D01*
G75*
G02*
X136880000Y-102687500I0J172500D01*
G01*
X136880000Y-102342500D01*
G75*
G02*
X137052500Y-102170000I172500J0D01*
G01*
G37*
%TD*%
%TO.C,R10*%
G36*
G01*
X134947500Y-102860000D02*
X134552500Y-102860000D01*
G75*
G02*
X134380000Y-102687500I0J172500D01*
G01*
X134380000Y-102342500D01*
G75*
G02*
X134552500Y-102170000I172500J0D01*
G01*
X134947500Y-102170000D01*
G75*
G02*
X135120000Y-102342500I0J-172500D01*
G01*
X135120000Y-102687500D01*
G75*
G02*
X134947500Y-102860000I-172500J0D01*
G01*
G37*
G36*
G01*
X134947500Y-103830000D02*
X134552500Y-103830000D01*
G75*
G02*
X134380000Y-103657500I0J172500D01*
G01*
X134380000Y-103312500D01*
G75*
G02*
X134552500Y-103140000I172500J0D01*
G01*
X134947500Y-103140000D01*
G75*
G02*
X135120000Y-103312500I0J-172500D01*
G01*
X135120000Y-103657500D01*
G75*
G02*
X134947500Y-103830000I-172500J0D01*
G01*
G37*
%TD*%
%TO.C,R11*%
G36*
G01*
X133552500Y-102170000D02*
X133947500Y-102170000D01*
G75*
G02*
X134120000Y-102342500I0J-172500D01*
G01*
X134120000Y-102687500D01*
G75*
G02*
X133947500Y-102860000I-172500J0D01*
G01*
X133552500Y-102860000D01*
G75*
G02*
X133380000Y-102687500I0J172500D01*
G01*
X133380000Y-102342500D01*
G75*
G02*
X133552500Y-102170000I172500J0D01*
G01*
G37*
G36*
G01*
X133552500Y-103140000D02*
X133947500Y-103140000D01*
G75*
G02*
X134120000Y-103312500I0J-172500D01*
G01*
X134120000Y-103657500D01*
G75*
G02*
X133947500Y-103830000I-172500J0D01*
G01*
X133552500Y-103830000D01*
G75*
G02*
X133380000Y-103657500I0J172500D01*
G01*
X133380000Y-103312500D01*
G75*
G02*
X133552500Y-103140000I172500J0D01*
G01*
G37*
%TD*%
%TO.C,R15*%
G36*
G01*
X111925000Y-95762500D02*
X111925000Y-95237500D01*
G75*
G02*
X112187500Y-94975000I262500J0D01*
G01*
X112812500Y-94975000D01*
G75*
G02*
X113075000Y-95237500I0J-262500D01*
G01*
X113075000Y-95762500D01*
G75*
G02*
X112812500Y-96025000I-262500J0D01*
G01*
X112187500Y-96025000D01*
G75*
G02*
X111925000Y-95762500I0J262500D01*
G01*
G37*
G36*
G01*
X110175000Y-95762500D02*
X110175000Y-95237500D01*
G75*
G02*
X110437500Y-94975000I262500J0D01*
G01*
X111062500Y-94975000D01*
G75*
G02*
X111325000Y-95237500I0J-262500D01*
G01*
X111325000Y-95762500D01*
G75*
G02*
X111062500Y-96025000I-262500J0D01*
G01*
X110437500Y-96025000D01*
G75*
G02*
X110175000Y-95762500I0J262500D01*
G01*
G37*
%TD*%
%TO.C,R16*%
G36*
G01*
X110175000Y-97262500D02*
X110175000Y-96737500D01*
G75*
G02*
X110437500Y-96475000I262500J0D01*
G01*
X111062500Y-96475000D01*
G75*
G02*
X111325000Y-96737500I0J-262500D01*
G01*
X111325000Y-97262500D01*
G75*
G02*
X111062500Y-97525000I-262500J0D01*
G01*
X110437500Y-97525000D01*
G75*
G02*
X110175000Y-97262500I0J262500D01*
G01*
G37*
G36*
G01*
X111925000Y-97262500D02*
X111925000Y-96737500D01*
G75*
G02*
X112187500Y-96475000I262500J0D01*
G01*
X112812500Y-96475000D01*
G75*
G02*
X113075000Y-96737500I0J-262500D01*
G01*
X113075000Y-97262500D01*
G75*
G02*
X112812500Y-97525000I-262500J0D01*
G01*
X112187500Y-97525000D01*
G75*
G02*
X111925000Y-97262500I0J262500D01*
G01*
G37*
%TD*%
%TO.C,R4*%
G36*
G01*
X141052500Y-82240000D02*
X141447500Y-82240000D01*
G75*
G02*
X141620000Y-82412500I0J-172500D01*
G01*
X141620000Y-82757500D01*
G75*
G02*
X141447500Y-82930000I-172500J0D01*
G01*
X141052500Y-82930000D01*
G75*
G02*
X140880000Y-82757500I0J172500D01*
G01*
X140880000Y-82412500D01*
G75*
G02*
X141052500Y-82240000I172500J0D01*
G01*
G37*
G36*
G01*
X141052500Y-81270000D02*
X141447500Y-81270000D01*
G75*
G02*
X141620000Y-81442500I0J-172500D01*
G01*
X141620000Y-81787500D01*
G75*
G02*
X141447500Y-81960000I-172500J0D01*
G01*
X141052500Y-81960000D01*
G75*
G02*
X140880000Y-81787500I0J172500D01*
G01*
X140880000Y-81442500D01*
G75*
G02*
X141052500Y-81270000I172500J0D01*
G01*
G37*
%TD*%
%TO.C,R1*%
G36*
G01*
X139052500Y-82240000D02*
X139447500Y-82240000D01*
G75*
G02*
X139620000Y-82412500I0J-172500D01*
G01*
X139620000Y-82757500D01*
G75*
G02*
X139447500Y-82930000I-172500J0D01*
G01*
X139052500Y-82930000D01*
G75*
G02*
X138880000Y-82757500I0J172500D01*
G01*
X138880000Y-82412500D01*
G75*
G02*
X139052500Y-82240000I172500J0D01*
G01*
G37*
G36*
G01*
X139052500Y-81270000D02*
X139447500Y-81270000D01*
G75*
G02*
X139620000Y-81442500I0J-172500D01*
G01*
X139620000Y-81787500D01*
G75*
G02*
X139447500Y-81960000I-172500J0D01*
G01*
X139052500Y-81960000D01*
G75*
G02*
X138880000Y-81787500I0J172500D01*
G01*
X138880000Y-81442500D01*
G75*
G02*
X139052500Y-81270000I172500J0D01*
G01*
G37*
%TD*%
%TO.C,R19*%
G36*
G01*
X140420000Y-88697500D02*
X140420000Y-88302500D01*
G75*
G02*
X140592500Y-88130000I172500J0D01*
G01*
X140937500Y-88130000D01*
G75*
G02*
X141110000Y-88302500I0J-172500D01*
G01*
X141110000Y-88697500D01*
G75*
G02*
X140937500Y-88870000I-172500J0D01*
G01*
X140592500Y-88870000D01*
G75*
G02*
X140420000Y-88697500I0J172500D01*
G01*
G37*
G36*
G01*
X141390000Y-88697500D02*
X141390000Y-88302500D01*
G75*
G02*
X141562500Y-88130000I172500J0D01*
G01*
X141907500Y-88130000D01*
G75*
G02*
X142080000Y-88302500I0J-172500D01*
G01*
X142080000Y-88697500D01*
G75*
G02*
X141907500Y-88870000I-172500J0D01*
G01*
X141562500Y-88870000D01*
G75*
G02*
X141390000Y-88697500I0J172500D01*
G01*
G37*
%TD*%
%TO.C,R21*%
G36*
G01*
X123487500Y-90049998D02*
X124012500Y-90049998D01*
G75*
G02*
X124275000Y-90312498I0J-262500D01*
G01*
X124275000Y-90937498D01*
G75*
G02*
X124012500Y-91199998I-262500J0D01*
G01*
X123487500Y-91199998D01*
G75*
G02*
X123225000Y-90937498I0J262500D01*
G01*
X123225000Y-90312498D01*
G75*
G02*
X123487500Y-90049998I262500J0D01*
G01*
G37*
G36*
G01*
X123487500Y-91799998D02*
X124012500Y-91799998D01*
G75*
G02*
X124275000Y-92062498I0J-262500D01*
G01*
X124275000Y-92687498D01*
G75*
G02*
X124012500Y-92949998I-262500J0D01*
G01*
X123487500Y-92949998D01*
G75*
G02*
X123225000Y-92687498I0J262500D01*
G01*
X123225000Y-92062498D01*
G75*
G02*
X123487500Y-91799998I262500J0D01*
G01*
G37*
%TD*%
%TO.C,R23*%
G36*
G01*
X143052500Y-81270000D02*
X143447500Y-81270000D01*
G75*
G02*
X143620000Y-81442500I0J-172500D01*
G01*
X143620000Y-81787500D01*
G75*
G02*
X143447500Y-81960000I-172500J0D01*
G01*
X143052500Y-81960000D01*
G75*
G02*
X142880000Y-81787500I0J172500D01*
G01*
X142880000Y-81442500D01*
G75*
G02*
X143052500Y-81270000I172500J0D01*
G01*
G37*
G36*
G01*
X143052500Y-82240000D02*
X143447500Y-82240000D01*
G75*
G02*
X143620000Y-82412500I0J-172500D01*
G01*
X143620000Y-82757500D01*
G75*
G02*
X143447500Y-82930000I-172500J0D01*
G01*
X143052500Y-82930000D01*
G75*
G02*
X142880000Y-82757500I0J172500D01*
G01*
X142880000Y-82412500D01*
G75*
G02*
X143052500Y-82240000I172500J0D01*
G01*
G37*
%TD*%
D19*
%TO.C,TH1*%
X131000000Y-112000000D03*
D20*
X129000000Y-112000000D03*
%TD*%
%TO.C,U1*%
G36*
G01*
X138175000Y-96662500D02*
X138175000Y-96837500D01*
G75*
G02*
X138087500Y-96925000I-87500J0D01*
G01*
X137337500Y-96925000D01*
G75*
G02*
X137250000Y-96837500I0J87500D01*
G01*
X137250000Y-96662500D01*
G75*
G02*
X137337500Y-96575000I87500J0D01*
G01*
X138087500Y-96575000D01*
G75*
G02*
X138175000Y-96662500I0J-87500D01*
G01*
G37*
G36*
G01*
X138175000Y-97162500D02*
X138175000Y-97337500D01*
G75*
G02*
X138087500Y-97425000I-87500J0D01*
G01*
X137337500Y-97425000D01*
G75*
G02*
X137250000Y-97337500I0J87500D01*
G01*
X137250000Y-97162500D01*
G75*
G02*
X137337500Y-97075000I87500J0D01*
G01*
X138087500Y-97075000D01*
G75*
G02*
X138175000Y-97162500I0J-87500D01*
G01*
G37*
G36*
G01*
X138175000Y-97662500D02*
X138175000Y-97837500D01*
G75*
G02*
X138087500Y-97925000I-87500J0D01*
G01*
X137337500Y-97925000D01*
G75*
G02*
X137250000Y-97837500I0J87500D01*
G01*
X137250000Y-97662500D01*
G75*
G02*
X137337500Y-97575000I87500J0D01*
G01*
X138087500Y-97575000D01*
G75*
G02*
X138175000Y-97662500I0J-87500D01*
G01*
G37*
G36*
G01*
X138175000Y-98162500D02*
X138175000Y-98337500D01*
G75*
G02*
X138087500Y-98425000I-87500J0D01*
G01*
X137337500Y-98425000D01*
G75*
G02*
X137250000Y-98337500I0J87500D01*
G01*
X137250000Y-98162500D01*
G75*
G02*
X137337500Y-98075000I87500J0D01*
G01*
X138087500Y-98075000D01*
G75*
G02*
X138175000Y-98162500I0J-87500D01*
G01*
G37*
G36*
G01*
X138175000Y-98662500D02*
X138175000Y-98837500D01*
G75*
G02*
X138087500Y-98925000I-87500J0D01*
G01*
X137337500Y-98925000D01*
G75*
G02*
X137250000Y-98837500I0J87500D01*
G01*
X137250000Y-98662500D01*
G75*
G02*
X137337500Y-98575000I87500J0D01*
G01*
X138087500Y-98575000D01*
G75*
G02*
X138175000Y-98662500I0J-87500D01*
G01*
G37*
G36*
G01*
X138175000Y-99162500D02*
X138175000Y-99337500D01*
G75*
G02*
X138087500Y-99425000I-87500J0D01*
G01*
X137337500Y-99425000D01*
G75*
G02*
X137250000Y-99337500I0J87500D01*
G01*
X137250000Y-99162500D01*
G75*
G02*
X137337500Y-99075000I87500J0D01*
G01*
X138087500Y-99075000D01*
G75*
G02*
X138175000Y-99162500I0J-87500D01*
G01*
G37*
G36*
G01*
X137175000Y-99587500D02*
X137175000Y-100337500D01*
G75*
G02*
X137087500Y-100425000I-87500J0D01*
G01*
X136912500Y-100425000D01*
G75*
G02*
X136825000Y-100337500I0J87500D01*
G01*
X136825000Y-99587500D01*
G75*
G02*
X136912500Y-99500000I87500J0D01*
G01*
X137087500Y-99500000D01*
G75*
G02*
X137175000Y-99587500I0J-87500D01*
G01*
G37*
G36*
G01*
X136675000Y-99587500D02*
X136675000Y-100337500D01*
G75*
G02*
X136587500Y-100425000I-87500J0D01*
G01*
X136412500Y-100425000D01*
G75*
G02*
X136325000Y-100337500I0J87500D01*
G01*
X136325000Y-99587500D01*
G75*
G02*
X136412500Y-99500000I87500J0D01*
G01*
X136587500Y-99500000D01*
G75*
G02*
X136675000Y-99587500I0J-87500D01*
G01*
G37*
G36*
G01*
X136175000Y-99587500D02*
X136175000Y-100337500D01*
G75*
G02*
X136087500Y-100425000I-87500J0D01*
G01*
X135912500Y-100425000D01*
G75*
G02*
X135825000Y-100337500I0J87500D01*
G01*
X135825000Y-99587500D01*
G75*
G02*
X135912500Y-99500000I87500J0D01*
G01*
X136087500Y-99500000D01*
G75*
G02*
X136175000Y-99587500I0J-87500D01*
G01*
G37*
G36*
G01*
X135675000Y-99587500D02*
X135675000Y-100337500D01*
G75*
G02*
X135587500Y-100425000I-87500J0D01*
G01*
X135412500Y-100425000D01*
G75*
G02*
X135325000Y-100337500I0J87500D01*
G01*
X135325000Y-99587500D01*
G75*
G02*
X135412500Y-99500000I87500J0D01*
G01*
X135587500Y-99500000D01*
G75*
G02*
X135675000Y-99587500I0J-87500D01*
G01*
G37*
G36*
G01*
X135175000Y-99587500D02*
X135175000Y-100337500D01*
G75*
G02*
X135087500Y-100425000I-87500J0D01*
G01*
X134912500Y-100425000D01*
G75*
G02*
X134825000Y-100337500I0J87500D01*
G01*
X134825000Y-99587500D01*
G75*
G02*
X134912500Y-99500000I87500J0D01*
G01*
X135087500Y-99500000D01*
G75*
G02*
X135175000Y-99587500I0J-87500D01*
G01*
G37*
G36*
G01*
X134675000Y-99587500D02*
X134675000Y-100337500D01*
G75*
G02*
X134587500Y-100425000I-87500J0D01*
G01*
X134412500Y-100425000D01*
G75*
G02*
X134325000Y-100337500I0J87500D01*
G01*
X134325000Y-99587500D01*
G75*
G02*
X134412500Y-99500000I87500J0D01*
G01*
X134587500Y-99500000D01*
G75*
G02*
X134675000Y-99587500I0J-87500D01*
G01*
G37*
G36*
G01*
X134250000Y-99162500D02*
X134250000Y-99337500D01*
G75*
G02*
X134162500Y-99425000I-87500J0D01*
G01*
X133412500Y-99425000D01*
G75*
G02*
X133325000Y-99337500I0J87500D01*
G01*
X133325000Y-99162500D01*
G75*
G02*
X133412500Y-99075000I87500J0D01*
G01*
X134162500Y-99075000D01*
G75*
G02*
X134250000Y-99162500I0J-87500D01*
G01*
G37*
G36*
G01*
X134250000Y-98662500D02*
X134250000Y-98837500D01*
G75*
G02*
X134162500Y-98925000I-87500J0D01*
G01*
X133412500Y-98925000D01*
G75*
G02*
X133325000Y-98837500I0J87500D01*
G01*
X133325000Y-98662500D01*
G75*
G02*
X133412500Y-98575000I87500J0D01*
G01*
X134162500Y-98575000D01*
G75*
G02*
X134250000Y-98662500I0J-87500D01*
G01*
G37*
G36*
G01*
X134250000Y-98162500D02*
X134250000Y-98337500D01*
G75*
G02*
X134162500Y-98425000I-87500J0D01*
G01*
X133412500Y-98425000D01*
G75*
G02*
X133325000Y-98337500I0J87500D01*
G01*
X133325000Y-98162500D01*
G75*
G02*
X133412500Y-98075000I87500J0D01*
G01*
X134162500Y-98075000D01*
G75*
G02*
X134250000Y-98162500I0J-87500D01*
G01*
G37*
G36*
G01*
X134250000Y-97662500D02*
X134250000Y-97837500D01*
G75*
G02*
X134162500Y-97925000I-87500J0D01*
G01*
X133412500Y-97925000D01*
G75*
G02*
X133325000Y-97837500I0J87500D01*
G01*
X133325000Y-97662500D01*
G75*
G02*
X133412500Y-97575000I87500J0D01*
G01*
X134162500Y-97575000D01*
G75*
G02*
X134250000Y-97662500I0J-87500D01*
G01*
G37*
G36*
G01*
X134250000Y-97162500D02*
X134250000Y-97337500D01*
G75*
G02*
X134162500Y-97425000I-87500J0D01*
G01*
X133412500Y-97425000D01*
G75*
G02*
X133325000Y-97337500I0J87500D01*
G01*
X133325000Y-97162500D01*
G75*
G02*
X133412500Y-97075000I87500J0D01*
G01*
X134162500Y-97075000D01*
G75*
G02*
X134250000Y-97162500I0J-87500D01*
G01*
G37*
G36*
G01*
X134250000Y-96662500D02*
X134250000Y-96837500D01*
G75*
G02*
X134162500Y-96925000I-87500J0D01*
G01*
X133412500Y-96925000D01*
G75*
G02*
X133325000Y-96837500I0J87500D01*
G01*
X133325000Y-96662500D01*
G75*
G02*
X133412500Y-96575000I87500J0D01*
G01*
X134162500Y-96575000D01*
G75*
G02*
X134250000Y-96662500I0J-87500D01*
G01*
G37*
G36*
G01*
X134675000Y-95662500D02*
X134675000Y-96412500D01*
G75*
G02*
X134587500Y-96500000I-87500J0D01*
G01*
X134412500Y-96500000D01*
G75*
G02*
X134325000Y-96412500I0J87500D01*
G01*
X134325000Y-95662500D01*
G75*
G02*
X134412500Y-95575000I87500J0D01*
G01*
X134587500Y-95575000D01*
G75*
G02*
X134675000Y-95662500I0J-87500D01*
G01*
G37*
G36*
G01*
X135175000Y-95662500D02*
X135175000Y-96412500D01*
G75*
G02*
X135087500Y-96500000I-87500J0D01*
G01*
X134912500Y-96500000D01*
G75*
G02*
X134825000Y-96412500I0J87500D01*
G01*
X134825000Y-95662500D01*
G75*
G02*
X134912500Y-95575000I87500J0D01*
G01*
X135087500Y-95575000D01*
G75*
G02*
X135175000Y-95662500I0J-87500D01*
G01*
G37*
G36*
G01*
X135675000Y-95662500D02*
X135675000Y-96412500D01*
G75*
G02*
X135587500Y-96500000I-87500J0D01*
G01*
X135412500Y-96500000D01*
G75*
G02*
X135325000Y-96412500I0J87500D01*
G01*
X135325000Y-95662500D01*
G75*
G02*
X135412500Y-95575000I87500J0D01*
G01*
X135587500Y-95575000D01*
G75*
G02*
X135675000Y-95662500I0J-87500D01*
G01*
G37*
G36*
G01*
X136175000Y-95662500D02*
X136175000Y-96412500D01*
G75*
G02*
X136087500Y-96500000I-87500J0D01*
G01*
X135912500Y-96500000D01*
G75*
G02*
X135825000Y-96412500I0J87500D01*
G01*
X135825000Y-95662500D01*
G75*
G02*
X135912500Y-95575000I87500J0D01*
G01*
X136087500Y-95575000D01*
G75*
G02*
X136175000Y-95662500I0J-87500D01*
G01*
G37*
G36*
G01*
X136675000Y-95662500D02*
X136675000Y-96412500D01*
G75*
G02*
X136587500Y-96500000I-87500J0D01*
G01*
X136412500Y-96500000D01*
G75*
G02*
X136325000Y-96412500I0J87500D01*
G01*
X136325000Y-95662500D01*
G75*
G02*
X136412500Y-95575000I87500J0D01*
G01*
X136587500Y-95575000D01*
G75*
G02*
X136675000Y-95662500I0J-87500D01*
G01*
G37*
G36*
G01*
X137175000Y-95662500D02*
X137175000Y-96412500D01*
G75*
G02*
X137087500Y-96500000I-87500J0D01*
G01*
X136912500Y-96500000D01*
G75*
G02*
X136825000Y-96412500I0J87500D01*
G01*
X136825000Y-95662500D01*
G75*
G02*
X136912500Y-95575000I87500J0D01*
G01*
X137087500Y-95575000D01*
G75*
G02*
X137175000Y-95662500I0J-87500D01*
G01*
G37*
D22*
X135750000Y-98000000D03*
%TD*%
D23*
%TO.C,U6*%
X103375000Y-97125000D03*
X103375000Y-95825000D03*
X105275000Y-96475000D03*
X103375000Y-96475000D03*
X105275000Y-95825000D03*
X105275000Y-97125000D03*
%TD*%
%TO.C,U7*%
G36*
G01*
X135170000Y-85250001D02*
X135520000Y-85250001D01*
G75*
G02*
X135695000Y-85425001I0J-175000D01*
G01*
X135695000Y-87125001D01*
G75*
G02*
X135520000Y-87300001I-175000J0D01*
G01*
X135170000Y-87300001D01*
G75*
G02*
X134995000Y-87125001I0J175000D01*
G01*
X134995000Y-85425001D01*
G75*
G02*
X135170000Y-85250001I175000J0D01*
G01*
G37*
G36*
G01*
X136440000Y-85250001D02*
X136790000Y-85250001D01*
G75*
G02*
X136965000Y-85425001I0J-175000D01*
G01*
X136965000Y-87125001D01*
G75*
G02*
X136790000Y-87300001I-175000J0D01*
G01*
X136440000Y-87300001D01*
G75*
G02*
X136265000Y-87125001I0J175000D01*
G01*
X136265000Y-85425001D01*
G75*
G02*
X136440000Y-85250001I175000J0D01*
G01*
G37*
G36*
G01*
X137710000Y-85250001D02*
X138060000Y-85250001D01*
G75*
G02*
X138235000Y-85425001I0J-175000D01*
G01*
X138235000Y-87125001D01*
G75*
G02*
X138060000Y-87300001I-175000J0D01*
G01*
X137710000Y-87300001D01*
G75*
G02*
X137535000Y-87125001I0J175000D01*
G01*
X137535000Y-85425001D01*
G75*
G02*
X137710000Y-85250001I175000J0D01*
G01*
G37*
G36*
G01*
X138980000Y-85250001D02*
X139330000Y-85250001D01*
G75*
G02*
X139505000Y-85425001I0J-175000D01*
G01*
X139505000Y-87125001D01*
G75*
G02*
X139330000Y-87300001I-175000J0D01*
G01*
X138980000Y-87300001D01*
G75*
G02*
X138805000Y-87125001I0J175000D01*
G01*
X138805000Y-85425001D01*
G75*
G02*
X138980000Y-85250001I175000J0D01*
G01*
G37*
G36*
G01*
X138980000Y-90200001D02*
X139330000Y-90200001D01*
G75*
G02*
X139505000Y-90375001I0J-175000D01*
G01*
X139505000Y-92075001D01*
G75*
G02*
X139330000Y-92250001I-175000J0D01*
G01*
X138980000Y-92250001D01*
G75*
G02*
X138805000Y-92075001I0J175000D01*
G01*
X138805000Y-90375001D01*
G75*
G02*
X138980000Y-90200001I175000J0D01*
G01*
G37*
G36*
G01*
X137710000Y-90200001D02*
X138060000Y-90200001D01*
G75*
G02*
X138235000Y-90375001I0J-175000D01*
G01*
X138235000Y-92075001D01*
G75*
G02*
X138060000Y-92250001I-175000J0D01*
G01*
X137710000Y-92250001D01*
G75*
G02*
X137535000Y-92075001I0J175000D01*
G01*
X137535000Y-90375001D01*
G75*
G02*
X137710000Y-90200001I175000J0D01*
G01*
G37*
G36*
G01*
X136440000Y-90200001D02*
X136790000Y-90200001D01*
G75*
G02*
X136965000Y-90375001I0J-175000D01*
G01*
X136965000Y-92075001D01*
G75*
G02*
X136790000Y-92250001I-175000J0D01*
G01*
X136440000Y-92250001D01*
G75*
G02*
X136265000Y-92075001I0J175000D01*
G01*
X136265000Y-90375001D01*
G75*
G02*
X136440000Y-90200001I175000J0D01*
G01*
G37*
G36*
G01*
X135170000Y-90200001D02*
X135520000Y-90200001D01*
G75*
G02*
X135695000Y-90375001I0J-175000D01*
G01*
X135695000Y-92075001D01*
G75*
G02*
X135520000Y-92250001I-175000J0D01*
G01*
X135170000Y-92250001D01*
G75*
G02*
X134995000Y-92075001I0J175000D01*
G01*
X134995000Y-90375001D01*
G75*
G02*
X135170000Y-90200001I175000J0D01*
G01*
G37*
%TD*%
D24*
%TO.C,D4*%
X136250000Y-109250000D03*
D25*
X133710000Y-109250000D03*
%TD*%
%TO.C,C7*%
G36*
G01*
X132912500Y-91700000D02*
X132387500Y-91700000D01*
G75*
G02*
X132125000Y-91437500I0J262500D01*
G01*
X132125000Y-90812500D01*
G75*
G02*
X132387500Y-90550000I262500J0D01*
G01*
X132912500Y-90550000D01*
G75*
G02*
X133175000Y-90812500I0J-262500D01*
G01*
X133175000Y-91437500D01*
G75*
G02*
X132912500Y-91700000I-262500J0D01*
G01*
G37*
G36*
G01*
X132912500Y-89950000D02*
X132387500Y-89950000D01*
G75*
G02*
X132125000Y-89687500I0J262500D01*
G01*
X132125000Y-89062500D01*
G75*
G02*
X132387500Y-88800000I262500J0D01*
G01*
X132912500Y-88800000D01*
G75*
G02*
X133175000Y-89062500I0J-262500D01*
G01*
X133175000Y-89687500D01*
G75*
G02*
X132912500Y-89950000I-262500J0D01*
G01*
G37*
%TD*%
%TO.C,C18*%
G36*
G01*
X102247500Y-99880000D02*
X101852500Y-99880000D01*
G75*
G02*
X101680000Y-99707500I0J172500D01*
G01*
X101680000Y-99362500D01*
G75*
G02*
X101852500Y-99190000I172500J0D01*
G01*
X102247500Y-99190000D01*
G75*
G02*
X102420000Y-99362500I0J-172500D01*
G01*
X102420000Y-99707500D01*
G75*
G02*
X102247500Y-99880000I-172500J0D01*
G01*
G37*
G36*
G01*
X102247500Y-98910000D02*
X101852500Y-98910000D01*
G75*
G02*
X101680000Y-98737500I0J172500D01*
G01*
X101680000Y-98392500D01*
G75*
G02*
X101852500Y-98220000I172500J0D01*
G01*
X102247500Y-98220000D01*
G75*
G02*
X102420000Y-98392500I0J-172500D01*
G01*
X102420000Y-98737500D01*
G75*
G02*
X102247500Y-98910000I-172500J0D01*
G01*
G37*
%TD*%
%TO.C,C19*%
G36*
G01*
X108390000Y-94197500D02*
X108390000Y-93802500D01*
G75*
G02*
X108562500Y-93630000I172500J0D01*
G01*
X108907500Y-93630000D01*
G75*
G02*
X109080000Y-93802500I0J-172500D01*
G01*
X109080000Y-94197500D01*
G75*
G02*
X108907500Y-94370000I-172500J0D01*
G01*
X108562500Y-94370000D01*
G75*
G02*
X108390000Y-94197500I0J172500D01*
G01*
G37*
G36*
G01*
X107420000Y-94197500D02*
X107420000Y-93802500D01*
G75*
G02*
X107592500Y-93630000I172500J0D01*
G01*
X107937500Y-93630000D01*
G75*
G02*
X108110000Y-93802500I0J-172500D01*
G01*
X108110000Y-94197500D01*
G75*
G02*
X107937500Y-94370000I-172500J0D01*
G01*
X107592500Y-94370000D01*
G75*
G02*
X107420000Y-94197500I0J172500D01*
G01*
G37*
%TD*%
%TO.C,C20*%
G36*
G01*
X101852500Y-95470000D02*
X102247500Y-95470000D01*
G75*
G02*
X102420000Y-95642500I0J-172500D01*
G01*
X102420000Y-95987500D01*
G75*
G02*
X102247500Y-96160000I-172500J0D01*
G01*
X101852500Y-96160000D01*
G75*
G02*
X101680000Y-95987500I0J172500D01*
G01*
X101680000Y-95642500D01*
G75*
G02*
X101852500Y-95470000I172500J0D01*
G01*
G37*
G36*
G01*
X101852500Y-96440000D02*
X102247500Y-96440000D01*
G75*
G02*
X102420000Y-96612500I0J-172500D01*
G01*
X102420000Y-96957500D01*
G75*
G02*
X102247500Y-97130000I-172500J0D01*
G01*
X101852500Y-97130000D01*
G75*
G02*
X101680000Y-96957500I0J172500D01*
G01*
X101680000Y-96612500D01*
G75*
G02*
X101852500Y-96440000I172500J0D01*
G01*
G37*
%TD*%
D26*
%TO.C,D5*%
X110400000Y-98775000D03*
X112500000Y-98775000D03*
%TD*%
D27*
%TO.C,U4*%
X104875000Y-98675000D03*
X103575000Y-98675000D03*
X104225000Y-100575000D03*
X104225000Y-98675000D03*
X103575000Y-100575000D03*
X104875000Y-100575000D03*
%TD*%
D23*
%TO.C,U5*%
X108650000Y-95825000D03*
X108650000Y-97125000D03*
X106750000Y-96475000D03*
X108650000Y-96475000D03*
X106750000Y-97125000D03*
X106750000Y-95825000D03*
%TD*%
M02*
