%TF.GenerationSoftware,KiCad,Pcbnew,(5.1.6)-1*%
%TF.CreationDate,2021-03-25T12:52:47+05:30*%
%TF.ProjectId,RX_Controller,52585f43-6f6e-4747-926f-6c6c65722e6b,rev?*%
%TF.SameCoordinates,Original*%
%TF.FileFunction,Soldermask,Top*%
%TF.FilePolarity,Negative*%
%FSLAX46Y46*%
G04 Gerber Fmt 4.6, Leading zero omitted, Abs format (unit mm)*
G04 Created by KiCad (PCBNEW (5.1.6)-1) date 2021-03-25 12:52:47*
%MOMM*%
%LPD*%
G01*
G04 APERTURE LIST*
%ADD10O,1.950000X3.148000*%
%ADD11O,1.800000X1.800000*%
%ADD12R,1.800000X1.800000*%
%ADD13R,2.100000X2.100000*%
%ADD14C,2.100000*%
%ADD15R,2.600000X1.900000*%
%ADD16R,3.600000X3.600000*%
%ADD17R,1.100000X1.100000*%
%ADD18O,1.100000X1.100000*%
%ADD19R,1.450000X1.450000*%
%ADD20O,1.450000X1.450000*%
%ADD21R,1.000000X0.900000*%
%ADD22R,1.900000X1.900000*%
%ADD23C,1.900000*%
%ADD24R,2.400000X1.500000*%
%ADD25R,1.500000X2.400000*%
%ADD26R,2.430000X1.500000*%
G04 APERTURE END LIST*
D10*
%TO.C,SW1*%
X107500000Y-90750000D03*
X112500000Y-90750000D03*
X107500000Y-103250000D03*
X112500000Y-103250000D03*
%TD*%
D11*
%TO.C,J3*%
X148250000Y-81630000D03*
X148250000Y-84170000D03*
X148250000Y-86710000D03*
D12*
X148250000Y-89250000D03*
%TD*%
%TO.C,BT1*%
X125540000Y-111750000D03*
D11*
X123000000Y-111750000D03*
%TD*%
D13*
%TO.C,BZ1*%
X110250000Y-107600000D03*
D14*
X102650000Y-107600000D03*
%TD*%
%TO.C,C15*%
G36*
G01*
X140718750Y-90725000D02*
X141281250Y-90725000D01*
G75*
G02*
X141525000Y-90968750I0J-243750D01*
G01*
X141525000Y-91456250D01*
G75*
G02*
X141281250Y-91700000I-243750J0D01*
G01*
X140718750Y-91700000D01*
G75*
G02*
X140475000Y-91456250I0J243750D01*
G01*
X140475000Y-90968750D01*
G75*
G02*
X140718750Y-90725000I243750J0D01*
G01*
G37*
G36*
G01*
X140718750Y-92300000D02*
X141281250Y-92300000D01*
G75*
G02*
X141525000Y-92543750I0J-243750D01*
G01*
X141525000Y-93031250D01*
G75*
G02*
X141281250Y-93275000I-243750J0D01*
G01*
X140718750Y-93275000D01*
G75*
G02*
X140475000Y-93031250I0J243750D01*
G01*
X140475000Y-92543750D01*
G75*
G02*
X140718750Y-92300000I243750J0D01*
G01*
G37*
%TD*%
%TO.C,C16*%
G36*
G01*
X142218750Y-92300000D02*
X142781250Y-92300000D01*
G75*
G02*
X143025000Y-92543750I0J-243750D01*
G01*
X143025000Y-93031250D01*
G75*
G02*
X142781250Y-93275000I-243750J0D01*
G01*
X142218750Y-93275000D01*
G75*
G02*
X141975000Y-93031250I0J243750D01*
G01*
X141975000Y-92543750D01*
G75*
G02*
X142218750Y-92300000I243750J0D01*
G01*
G37*
G36*
G01*
X142218750Y-90725000D02*
X142781250Y-90725000D01*
G75*
G02*
X143025000Y-90968750I0J-243750D01*
G01*
X143025000Y-91456250D01*
G75*
G02*
X142781250Y-91700000I-243750J0D01*
G01*
X142218750Y-91700000D01*
G75*
G02*
X141975000Y-91456250I0J243750D01*
G01*
X141975000Y-90968750D01*
G75*
G02*
X142218750Y-90725000I243750J0D01*
G01*
G37*
%TD*%
D15*
%TO.C,D1*%
X147750000Y-99500000D03*
X143750000Y-99500000D03*
%TD*%
%TO.C,D3*%
G36*
G01*
X140987500Y-82300000D02*
X141512500Y-82300000D01*
G75*
G02*
X141775000Y-82562500I0J-262500D01*
G01*
X141775000Y-83187500D01*
G75*
G02*
X141512500Y-83450000I-262500J0D01*
G01*
X140987500Y-83450000D01*
G75*
G02*
X140725000Y-83187500I0J262500D01*
G01*
X140725000Y-82562500D01*
G75*
G02*
X140987500Y-82300000I262500J0D01*
G01*
G37*
G36*
G01*
X140987500Y-80550000D02*
X141512500Y-80550000D01*
G75*
G02*
X141775000Y-80812500I0J-262500D01*
G01*
X141775000Y-81437500D01*
G75*
G02*
X141512500Y-81700000I-262500J0D01*
G01*
X140987500Y-81700000D01*
G75*
G02*
X140725000Y-81437500I0J262500D01*
G01*
X140725000Y-80812500D01*
G75*
G02*
X140987500Y-80550000I262500J0D01*
G01*
G37*
%TD*%
%TO.C,D2*%
G36*
G01*
X138987501Y-80550000D02*
X139512501Y-80550000D01*
G75*
G02*
X139775001Y-80812500I0J-262500D01*
G01*
X139775001Y-81437500D01*
G75*
G02*
X139512501Y-81700000I-262500J0D01*
G01*
X138987501Y-81700000D01*
G75*
G02*
X138725001Y-81437500I0J262500D01*
G01*
X138725001Y-80812500D01*
G75*
G02*
X138987501Y-80550000I262500J0D01*
G01*
G37*
G36*
G01*
X138987501Y-82300000D02*
X139512501Y-82300000D01*
G75*
G02*
X139775001Y-82562500I0J-262500D01*
G01*
X139775001Y-83187500D01*
G75*
G02*
X139512501Y-83450000I-262500J0D01*
G01*
X138987501Y-83450000D01*
G75*
G02*
X138725001Y-83187500I0J262500D01*
G01*
X138725001Y-82562500D01*
G75*
G02*
X138987501Y-82300000I262500J0D01*
G01*
G37*
%TD*%
%TO.C,D7*%
G36*
G01*
X142987500Y-80550000D02*
X143512500Y-80550000D01*
G75*
G02*
X143775000Y-80812500I0J-262500D01*
G01*
X143775000Y-81437500D01*
G75*
G02*
X143512500Y-81700000I-262500J0D01*
G01*
X142987500Y-81700000D01*
G75*
G02*
X142725000Y-81437500I0J262500D01*
G01*
X142725000Y-80812500D01*
G75*
G02*
X142987500Y-80550000I262500J0D01*
G01*
G37*
G36*
G01*
X142987500Y-82300000D02*
X143512500Y-82300000D01*
G75*
G02*
X143775000Y-82562500I0J-262500D01*
G01*
X143775000Y-83187500D01*
G75*
G02*
X143512500Y-83450000I-262500J0D01*
G01*
X142987500Y-83450000D01*
G75*
G02*
X142725000Y-83187500I0J262500D01*
G01*
X142725000Y-82562500D01*
G75*
G02*
X142987500Y-82300000I262500J0D01*
G01*
G37*
%TD*%
D12*
%TO.C,J4*%
X101750000Y-89250000D03*
D11*
X101750000Y-86710000D03*
X101750000Y-84170000D03*
X101750000Y-81630000D03*
%TD*%
D16*
%TO.C,J1*%
X145000000Y-103500000D03*
G36*
G01*
X146025000Y-111050000D02*
X143975000Y-111050000D01*
G75*
G02*
X143200000Y-110275000I0J775000D01*
G01*
X143200000Y-108725000D01*
G75*
G02*
X143975000Y-107950000I775000J0D01*
G01*
X146025000Y-107950000D01*
G75*
G02*
X146800000Y-108725000I0J-775000D01*
G01*
X146800000Y-110275000D01*
G75*
G02*
X146025000Y-111050000I-775000J0D01*
G01*
G37*
G36*
G01*
X141200000Y-108300000D02*
X139400000Y-108300000D01*
G75*
G02*
X138500000Y-107400000I0J900000D01*
G01*
X138500000Y-105600000D01*
G75*
G02*
X139400000Y-104700000I900000J0D01*
G01*
X141200000Y-104700000D01*
G75*
G02*
X142100000Y-105600000I0J-900000D01*
G01*
X142100000Y-107400000D01*
G75*
G02*
X141200000Y-108300000I-900000J0D01*
G01*
G37*
%TD*%
D17*
%TO.C,J2*%
X118750000Y-112250000D03*
D18*
X117480000Y-112250000D03*
X118750000Y-110980000D03*
X117480000Y-110980000D03*
X118750000Y-109710000D03*
X117480000Y-109710000D03*
X118750000Y-108440000D03*
X117480000Y-108440000D03*
X118750000Y-107170000D03*
X117480000Y-107170000D03*
%TD*%
D19*
%TO.C,J5*%
X148250000Y-93750000D03*
D20*
X148250000Y-95750000D03*
%TD*%
D21*
%TO.C,Q1*%
X106825000Y-111200000D03*
X106825000Y-109300000D03*
X104825000Y-110250000D03*
%TD*%
%TO.C,R12*%
G36*
G01*
X109512500Y-81125000D02*
X110037500Y-81125000D01*
G75*
G02*
X110300000Y-81387500I0J-262500D01*
G01*
X110300000Y-82012500D01*
G75*
G02*
X110037500Y-82275000I-262500J0D01*
G01*
X109512500Y-82275000D01*
G75*
G02*
X109250000Y-82012500I0J262500D01*
G01*
X109250000Y-81387500D01*
G75*
G02*
X109512500Y-81125000I262500J0D01*
G01*
G37*
G36*
G01*
X109512500Y-82875000D02*
X110037500Y-82875000D01*
G75*
G02*
X110300000Y-83137500I0J-262500D01*
G01*
X110300000Y-83762500D01*
G75*
G02*
X110037500Y-84025000I-262500J0D01*
G01*
X109512500Y-84025000D01*
G75*
G02*
X109250000Y-83762500I0J262500D01*
G01*
X109250000Y-83137500D01*
G75*
G02*
X109512500Y-82875000I262500J0D01*
G01*
G37*
%TD*%
%TO.C,R13*%
G36*
G01*
X108287500Y-84025000D02*
X107762500Y-84025000D01*
G75*
G02*
X107500000Y-83762500I0J262500D01*
G01*
X107500000Y-83137500D01*
G75*
G02*
X107762500Y-82875000I262500J0D01*
G01*
X108287500Y-82875000D01*
G75*
G02*
X108550000Y-83137500I0J-262500D01*
G01*
X108550000Y-83762500D01*
G75*
G02*
X108287500Y-84025000I-262500J0D01*
G01*
G37*
G36*
G01*
X108287500Y-82275000D02*
X107762500Y-82275000D01*
G75*
G02*
X107500000Y-82012500I0J262500D01*
G01*
X107500000Y-81387500D01*
G75*
G02*
X107762500Y-81125000I262500J0D01*
G01*
X108287500Y-81125000D01*
G75*
G02*
X108550000Y-81387500I0J-262500D01*
G01*
X108550000Y-82012500D01*
G75*
G02*
X108287500Y-82275000I-262500J0D01*
G01*
G37*
%TD*%
%TO.C,R14*%
G36*
G01*
X106062500Y-82875000D02*
X106587500Y-82875000D01*
G75*
G02*
X106850000Y-83137500I0J-262500D01*
G01*
X106850000Y-83762500D01*
G75*
G02*
X106587500Y-84025000I-262500J0D01*
G01*
X106062500Y-84025000D01*
G75*
G02*
X105800000Y-83762500I0J262500D01*
G01*
X105800000Y-83137500D01*
G75*
G02*
X106062500Y-82875000I262500J0D01*
G01*
G37*
G36*
G01*
X106062500Y-81125000D02*
X106587500Y-81125000D01*
G75*
G02*
X106850000Y-81387500I0J-262500D01*
G01*
X106850000Y-82012500D01*
G75*
G02*
X106587500Y-82275000I-262500J0D01*
G01*
X106062500Y-82275000D01*
G75*
G02*
X105800000Y-82012500I0J262500D01*
G01*
X105800000Y-81387500D01*
G75*
G02*
X106062500Y-81125000I262500J0D01*
G01*
G37*
%TD*%
%TO.C,R8*%
G36*
G01*
X136052500Y-106815000D02*
X136447500Y-106815000D01*
G75*
G02*
X136620000Y-106987500I0J-172500D01*
G01*
X136620000Y-107332500D01*
G75*
G02*
X136447500Y-107505000I-172500J0D01*
G01*
X136052500Y-107505000D01*
G75*
G02*
X135880000Y-107332500I0J172500D01*
G01*
X135880000Y-106987500D01*
G75*
G02*
X136052500Y-106815000I172500J0D01*
G01*
G37*
G36*
G01*
X136052500Y-105845000D02*
X136447500Y-105845000D01*
G75*
G02*
X136620000Y-106017500I0J-172500D01*
G01*
X136620000Y-106362500D01*
G75*
G02*
X136447500Y-106535000I-172500J0D01*
G01*
X136052500Y-106535000D01*
G75*
G02*
X135880000Y-106362500I0J172500D01*
G01*
X135880000Y-106017500D01*
G75*
G02*
X136052500Y-105845000I172500J0D01*
G01*
G37*
%TD*%
%TO.C,R9*%
G36*
G01*
X109672500Y-111530000D02*
X109277500Y-111530000D01*
G75*
G02*
X109105000Y-111357500I0J172500D01*
G01*
X109105000Y-111012500D01*
G75*
G02*
X109277500Y-110840000I172500J0D01*
G01*
X109672500Y-110840000D01*
G75*
G02*
X109845000Y-111012500I0J-172500D01*
G01*
X109845000Y-111357500D01*
G75*
G02*
X109672500Y-111530000I-172500J0D01*
G01*
G37*
G36*
G01*
X109672500Y-110560000D02*
X109277500Y-110560000D01*
G75*
G02*
X109105000Y-110387500I0J172500D01*
G01*
X109105000Y-110042500D01*
G75*
G02*
X109277500Y-109870000I172500J0D01*
G01*
X109672500Y-109870000D01*
G75*
G02*
X109845000Y-110042500I0J-172500D01*
G01*
X109845000Y-110387500D01*
G75*
G02*
X109672500Y-110560000I-172500J0D01*
G01*
G37*
%TD*%
%TO.C,R7*%
G36*
G01*
X108497500Y-110560000D02*
X108102500Y-110560000D01*
G75*
G02*
X107930000Y-110387500I0J172500D01*
G01*
X107930000Y-110042500D01*
G75*
G02*
X108102500Y-109870000I172500J0D01*
G01*
X108497500Y-109870000D01*
G75*
G02*
X108670000Y-110042500I0J-172500D01*
G01*
X108670000Y-110387500D01*
G75*
G02*
X108497500Y-110560000I-172500J0D01*
G01*
G37*
G36*
G01*
X108497500Y-111530000D02*
X108102500Y-111530000D01*
G75*
G02*
X107930000Y-111357500I0J172500D01*
G01*
X107930000Y-111012500D01*
G75*
G02*
X108102500Y-110840000I172500J0D01*
G01*
X108497500Y-110840000D01*
G75*
G02*
X108670000Y-111012500I0J-172500D01*
G01*
X108670000Y-111357500D01*
G75*
G02*
X108497500Y-111530000I-172500J0D01*
G01*
G37*
%TD*%
%TO.C,R20*%
G36*
G01*
X139218750Y-92300000D02*
X139781250Y-92300000D01*
G75*
G02*
X140025000Y-92543750I0J-243750D01*
G01*
X140025000Y-93031250D01*
G75*
G02*
X139781250Y-93275000I-243750J0D01*
G01*
X139218750Y-93275000D01*
G75*
G02*
X138975000Y-93031250I0J243750D01*
G01*
X138975000Y-92543750D01*
G75*
G02*
X139218750Y-92300000I243750J0D01*
G01*
G37*
G36*
G01*
X139218750Y-90725000D02*
X139781250Y-90725000D01*
G75*
G02*
X140025000Y-90968750I0J-243750D01*
G01*
X140025000Y-91456250D01*
G75*
G02*
X139781250Y-91700000I-243750J0D01*
G01*
X139218750Y-91700000D01*
G75*
G02*
X138975000Y-91456250I0J243750D01*
G01*
X138975000Y-90968750D01*
G75*
G02*
X139218750Y-90725000I243750J0D01*
G01*
G37*
%TD*%
%TO.C,R22*%
G36*
G01*
X144281250Y-93275000D02*
X143718750Y-93275000D01*
G75*
G02*
X143475000Y-93031250I0J243750D01*
G01*
X143475000Y-92543750D01*
G75*
G02*
X143718750Y-92300000I243750J0D01*
G01*
X144281250Y-92300000D01*
G75*
G02*
X144525000Y-92543750I0J-243750D01*
G01*
X144525000Y-93031250D01*
G75*
G02*
X144281250Y-93275000I-243750J0D01*
G01*
G37*
G36*
G01*
X144281250Y-91700000D02*
X143718750Y-91700000D01*
G75*
G02*
X143475000Y-91456250I0J243750D01*
G01*
X143475000Y-90968750D01*
G75*
G02*
X143718750Y-90725000I243750J0D01*
G01*
X144281250Y-90725000D01*
G75*
G02*
X144525000Y-90968750I0J-243750D01*
G01*
X144525000Y-91456250D01*
G75*
G02*
X144281250Y-91700000I-243750J0D01*
G01*
G37*
%TD*%
%TO.C,R17*%
G36*
G01*
X140360000Y-99327500D02*
X140360000Y-99722500D01*
G75*
G02*
X140187500Y-99895000I-172500J0D01*
G01*
X139842500Y-99895000D01*
G75*
G02*
X139670000Y-99722500I0J172500D01*
G01*
X139670000Y-99327500D01*
G75*
G02*
X139842500Y-99155000I172500J0D01*
G01*
X140187500Y-99155000D01*
G75*
G02*
X140360000Y-99327500I0J-172500D01*
G01*
G37*
G36*
G01*
X141330000Y-99327500D02*
X141330000Y-99722500D01*
G75*
G02*
X141157500Y-99895000I-172500J0D01*
G01*
X140812500Y-99895000D01*
G75*
G02*
X140640000Y-99722500I0J172500D01*
G01*
X140640000Y-99327500D01*
G75*
G02*
X140812500Y-99155000I172500J0D01*
G01*
X141157500Y-99155000D01*
G75*
G02*
X141330000Y-99327500I0J-172500D01*
G01*
G37*
%TD*%
%TO.C,R18*%
G36*
G01*
X141330000Y-100327500D02*
X141330000Y-100722500D01*
G75*
G02*
X141157500Y-100895000I-172500J0D01*
G01*
X140812500Y-100895000D01*
G75*
G02*
X140640000Y-100722500I0J172500D01*
G01*
X140640000Y-100327500D01*
G75*
G02*
X140812500Y-100155000I172500J0D01*
G01*
X141157500Y-100155000D01*
G75*
G02*
X141330000Y-100327500I0J-172500D01*
G01*
G37*
G36*
G01*
X140360000Y-100327500D02*
X140360000Y-100722500D01*
G75*
G02*
X140187500Y-100895000I-172500J0D01*
G01*
X139842500Y-100895000D01*
G75*
G02*
X139670000Y-100722500I0J172500D01*
G01*
X139670000Y-100327500D01*
G75*
G02*
X139842500Y-100155000I172500J0D01*
G01*
X140187500Y-100155000D01*
G75*
G02*
X140360000Y-100327500I0J-172500D01*
G01*
G37*
%TD*%
D19*
%TO.C,TH1*%
X131000000Y-112000000D03*
D20*
X129000000Y-112000000D03*
%TD*%
D22*
%TO.C,D4*%
X136250000Y-109250000D03*
D23*
X133710000Y-109250000D03*
%TD*%
%TO.C,C5*%
G36*
G01*
X126075000Y-107712500D02*
X126075000Y-108237500D01*
G75*
G02*
X125812500Y-108500000I-262500J0D01*
G01*
X125187500Y-108500000D01*
G75*
G02*
X124925000Y-108237500I0J262500D01*
G01*
X124925000Y-107712500D01*
G75*
G02*
X125187500Y-107450000I262500J0D01*
G01*
X125812500Y-107450000D01*
G75*
G02*
X126075000Y-107712500I0J-262500D01*
G01*
G37*
G36*
G01*
X124325000Y-107712500D02*
X124325000Y-108237500D01*
G75*
G02*
X124062500Y-108500000I-262500J0D01*
G01*
X123437500Y-108500000D01*
G75*
G02*
X123175000Y-108237500I0J262500D01*
G01*
X123175000Y-107712500D01*
G75*
G02*
X123437500Y-107450000I262500J0D01*
G01*
X124062500Y-107450000D01*
G75*
G02*
X124325000Y-107712500I0J-262500D01*
G01*
G37*
%TD*%
D24*
%TO.C,U2*%
X118500000Y-90000000D03*
X118500000Y-92000000D03*
X118500000Y-94000000D03*
X118500000Y-96000000D03*
X118500000Y-98000000D03*
X118500000Y-100000000D03*
X118500000Y-102000000D03*
X118500000Y-104000000D03*
D25*
X121500000Y-105500000D03*
X123500000Y-105500000D03*
X125500000Y-105500000D03*
X127500000Y-105500000D03*
X129500000Y-105500000D03*
X131500000Y-105500000D03*
D24*
X134500000Y-104000000D03*
X134500000Y-102000000D03*
X134500000Y-100000000D03*
X134500000Y-98000000D03*
X134500000Y-96000000D03*
X134500000Y-94000000D03*
D26*
X134500000Y-92000000D03*
D24*
X134500000Y-90000000D03*
%TD*%
M02*
