%TF.GenerationSoftware,KiCad,Pcbnew,(5.1.6)-1*%
%TF.CreationDate,2021-03-25T12:52:47+05:30*%
%TF.ProjectId,RX_Controller,52585f43-6f6e-4747-926f-6c6c65722e6b,rev?*%
%TF.SameCoordinates,Original*%
%TF.FileFunction,Legend,Top*%
%TF.FilePolarity,Positive*%
%FSLAX46Y46*%
G04 Gerber Fmt 4.6, Leading zero omitted, Abs format (unit mm)*
G04 Created by KiCad (PCBNEW (5.1.6)-1) date 2021-03-25 12:52:47*
%MOMM*%
%LPD*%
G01*
G04 APERTURE LIST*
%ADD10C,0.140000*%
%ADD11C,0.120000*%
%ADD12C,0.180000*%
%ADD13C,0.130000*%
G04 APERTURE END LIST*
D10*
X146957142Y-95816666D02*
X146057142Y-95816666D01*
X146057142Y-95511904D01*
X146100000Y-95435714D01*
X146142857Y-95397619D01*
X146228571Y-95359523D01*
X146357142Y-95359523D01*
X146442857Y-95397619D01*
X146485714Y-95435714D01*
X146528571Y-95511904D01*
X146528571Y-95816666D01*
X146057142Y-95092857D02*
X146957142Y-94902380D01*
X146314285Y-94750000D01*
X146957142Y-94597619D01*
X146057142Y-94407142D01*
X146957142Y-93645238D02*
X146528571Y-93911904D01*
X146957142Y-94102380D02*
X146057142Y-94102380D01*
X146057142Y-93797619D01*
X146100000Y-93721428D01*
X146142857Y-93683333D01*
X146228571Y-93645238D01*
X146357142Y-93645238D01*
X146442857Y-93683333D01*
X146485714Y-93721428D01*
X146528571Y-93797619D01*
X146528571Y-94102380D01*
X115807142Y-111090476D02*
X114907142Y-111090476D01*
X114907142Y-110900000D01*
X114950000Y-110785714D01*
X115035714Y-110709523D01*
X115121428Y-110671428D01*
X115292857Y-110633333D01*
X115421428Y-110633333D01*
X115592857Y-110671428D01*
X115678571Y-110709523D01*
X115764285Y-110785714D01*
X115807142Y-110900000D01*
X115807142Y-111090476D01*
X115335714Y-110290476D02*
X115335714Y-110023809D01*
X115807142Y-109909523D02*
X115807142Y-110290476D01*
X114907142Y-110290476D01*
X114907142Y-109909523D01*
X115335714Y-109300000D02*
X115378571Y-109185714D01*
X115421428Y-109147619D01*
X115507142Y-109109523D01*
X115635714Y-109109523D01*
X115721428Y-109147619D01*
X115764285Y-109185714D01*
X115807142Y-109261904D01*
X115807142Y-109566666D01*
X114907142Y-109566666D01*
X114907142Y-109300000D01*
X114950000Y-109223809D01*
X114992857Y-109185714D01*
X115078571Y-109147619D01*
X115164285Y-109147619D01*
X115250000Y-109185714D01*
X115292857Y-109223809D01*
X115335714Y-109300000D01*
X115335714Y-109566666D01*
X114907142Y-108766666D02*
X115635714Y-108766666D01*
X115721428Y-108728571D01*
X115764285Y-108690476D01*
X115807142Y-108614285D01*
X115807142Y-108461904D01*
X115764285Y-108385714D01*
X115721428Y-108347619D01*
X115635714Y-108309523D01*
X114907142Y-108309523D01*
X114950000Y-107509523D02*
X114907142Y-107585714D01*
X114907142Y-107700000D01*
X114950000Y-107814285D01*
X115035714Y-107890476D01*
X115121428Y-107928571D01*
X115292857Y-107966666D01*
X115421428Y-107966666D01*
X115592857Y-107928571D01*
X115678571Y-107890476D01*
X115764285Y-107814285D01*
X115807142Y-107700000D01*
X115807142Y-107623809D01*
X115764285Y-107509523D01*
X115721428Y-107471428D01*
X115421428Y-107471428D01*
X115421428Y-107623809D01*
X122402380Y-109564285D02*
X123011904Y-109564285D01*
X123659523Y-109435714D02*
X123773809Y-109478571D01*
X123811904Y-109521428D01*
X123850000Y-109607142D01*
X123850000Y-109735714D01*
X123811904Y-109821428D01*
X123773809Y-109864285D01*
X123697619Y-109907142D01*
X123392857Y-109907142D01*
X123392857Y-109007142D01*
X123659523Y-109007142D01*
X123735714Y-109050000D01*
X123773809Y-109092857D01*
X123811904Y-109178571D01*
X123811904Y-109264285D01*
X123773809Y-109350000D01*
X123735714Y-109392857D01*
X123659523Y-109435714D01*
X123392857Y-109435714D01*
X124154761Y-109650000D02*
X124535714Y-109650000D01*
X124078571Y-109907142D02*
X124345238Y-109007142D01*
X124611904Y-109907142D01*
X124764285Y-109007142D02*
X125221428Y-109007142D01*
X124992857Y-109907142D02*
X124992857Y-109007142D01*
X125488095Y-109564285D02*
X126097619Y-109564285D01*
X125792857Y-109907142D02*
X125792857Y-109221428D01*
X104307142Y-85276190D02*
X103878571Y-85542857D01*
X104307142Y-85733333D02*
X103407142Y-85733333D01*
X103407142Y-85428571D01*
X103450000Y-85352380D01*
X103492857Y-85314285D01*
X103578571Y-85276190D01*
X103707142Y-85276190D01*
X103792857Y-85314285D01*
X103835714Y-85352380D01*
X103878571Y-85428571D01*
X103878571Y-85733333D01*
X104264285Y-84971428D02*
X104307142Y-84857142D01*
X104307142Y-84666666D01*
X104264285Y-84590476D01*
X104221428Y-84552380D01*
X104135714Y-84514285D01*
X104050000Y-84514285D01*
X103964285Y-84552380D01*
X103921428Y-84590476D01*
X103878571Y-84666666D01*
X103835714Y-84819047D01*
X103792857Y-84895238D01*
X103750000Y-84933333D01*
X103664285Y-84971428D01*
X103578571Y-84971428D01*
X103492857Y-84933333D01*
X103450000Y-84895238D01*
X103407142Y-84819047D01*
X103407142Y-84628571D01*
X103450000Y-84514285D01*
X103707142Y-83828571D02*
X104307142Y-83828571D01*
X103364285Y-84019047D02*
X104007142Y-84209523D01*
X104007142Y-83714285D01*
X103792857Y-83295238D02*
X103750000Y-83371428D01*
X103707142Y-83409523D01*
X103621428Y-83447619D01*
X103578571Y-83447619D01*
X103492857Y-83409523D01*
X103450000Y-83371428D01*
X103407142Y-83295238D01*
X103407142Y-83142857D01*
X103450000Y-83066666D01*
X103492857Y-83028571D01*
X103578571Y-82990476D01*
X103621428Y-82990476D01*
X103707142Y-83028571D01*
X103750000Y-83066666D01*
X103792857Y-83142857D01*
X103792857Y-83295238D01*
X103835714Y-83371428D01*
X103878571Y-83409523D01*
X103964285Y-83447619D01*
X104135714Y-83447619D01*
X104221428Y-83409523D01*
X104264285Y-83371428D01*
X104307142Y-83295238D01*
X104307142Y-83142857D01*
X104264285Y-83066666D01*
X104221428Y-83028571D01*
X104135714Y-82990476D01*
X103964285Y-82990476D01*
X103878571Y-83028571D01*
X103835714Y-83066666D01*
X103792857Y-83142857D01*
X103407142Y-82266666D02*
X103407142Y-82647619D01*
X103835714Y-82685714D01*
X103792857Y-82647619D01*
X103750000Y-82571428D01*
X103750000Y-82380952D01*
X103792857Y-82304761D01*
X103835714Y-82266666D01*
X103921428Y-82228571D01*
X104135714Y-82228571D01*
X104221428Y-82266666D01*
X104264285Y-82304761D01*
X104307142Y-82380952D01*
X104307142Y-82571428D01*
X104264285Y-82647619D01*
X104221428Y-82685714D01*
X146657142Y-85876190D02*
X146228571Y-86142857D01*
X146657142Y-86333333D02*
X145757142Y-86333333D01*
X145757142Y-86028571D01*
X145800000Y-85952380D01*
X145842857Y-85914285D01*
X145928571Y-85876190D01*
X146057142Y-85876190D01*
X146142857Y-85914285D01*
X146185714Y-85952380D01*
X146228571Y-86028571D01*
X146228571Y-86333333D01*
X146614285Y-85571428D02*
X146657142Y-85457142D01*
X146657142Y-85266666D01*
X146614285Y-85190476D01*
X146571428Y-85152380D01*
X146485714Y-85114285D01*
X146400000Y-85114285D01*
X146314285Y-85152380D01*
X146271428Y-85190476D01*
X146228571Y-85266666D01*
X146185714Y-85419047D01*
X146142857Y-85495238D01*
X146100000Y-85533333D01*
X146014285Y-85571428D01*
X145928571Y-85571428D01*
X145842857Y-85533333D01*
X145800000Y-85495238D01*
X145757142Y-85419047D01*
X145757142Y-85228571D01*
X145800000Y-85114285D01*
X146057142Y-84428571D02*
X146657142Y-84428571D01*
X145714285Y-84619047D02*
X146357142Y-84809523D01*
X146357142Y-84314285D01*
X146142857Y-83895238D02*
X146100000Y-83971428D01*
X146057142Y-84009523D01*
X145971428Y-84047619D01*
X145928571Y-84047619D01*
X145842857Y-84009523D01*
X145800000Y-83971428D01*
X145757142Y-83895238D01*
X145757142Y-83742857D01*
X145800000Y-83666666D01*
X145842857Y-83628571D01*
X145928571Y-83590476D01*
X145971428Y-83590476D01*
X146057142Y-83628571D01*
X146100000Y-83666666D01*
X146142857Y-83742857D01*
X146142857Y-83895238D01*
X146185714Y-83971428D01*
X146228571Y-84009523D01*
X146314285Y-84047619D01*
X146485714Y-84047619D01*
X146571428Y-84009523D01*
X146614285Y-83971428D01*
X146657142Y-83895238D01*
X146657142Y-83742857D01*
X146614285Y-83666666D01*
X146571428Y-83628571D01*
X146485714Y-83590476D01*
X146314285Y-83590476D01*
X146228571Y-83628571D01*
X146185714Y-83666666D01*
X146142857Y-83742857D01*
X145757142Y-82866666D02*
X145757142Y-83247619D01*
X146185714Y-83285714D01*
X146142857Y-83247619D01*
X146100000Y-83171428D01*
X146100000Y-82980952D01*
X146142857Y-82904761D01*
X146185714Y-82866666D01*
X146271428Y-82828571D01*
X146485714Y-82828571D01*
X146571428Y-82866666D01*
X146614285Y-82904761D01*
X146657142Y-82980952D01*
X146657142Y-83171428D01*
X146614285Y-83247619D01*
X146571428Y-83285714D01*
D11*
%TO.C,SW1*%
X103850000Y-103150000D02*
X103850000Y-90850000D01*
X108430000Y-90850000D02*
X111570000Y-90850000D01*
X116150000Y-90850000D02*
X116150000Y-103150000D01*
X106570000Y-103150000D02*
X103850000Y-103150000D01*
X114619050Y-96900000D02*
G75*
G03*
X114619050Y-96900000I-4579050J0D01*
G01*
X116150000Y-103150000D02*
X113430000Y-103150000D01*
X111570000Y-103150000D02*
X108430000Y-103150000D01*
X113430000Y-90850000D02*
X116150000Y-90850000D01*
X103850000Y-90850000D02*
X106570000Y-90850000D01*
%TO.C,J3*%
X148250000Y-90580000D02*
X146920000Y-90580000D01*
X146920000Y-90580000D02*
X146920000Y-89250000D01*
X146920000Y-87980000D02*
X146920000Y-80300000D01*
X149580000Y-80300000D02*
X146920000Y-80300000D01*
X149580000Y-87980000D02*
X149580000Y-80300000D01*
X149580000Y-87980000D02*
X146920000Y-87980000D01*
%TO.C,BT1*%
X124270000Y-110420000D02*
X124270000Y-113080000D01*
X124270000Y-110420000D02*
X121670000Y-110420000D01*
X121670000Y-110420000D02*
X121670000Y-113080000D01*
X124270000Y-113080000D02*
X121670000Y-113080000D01*
X126870000Y-113080000D02*
X125540000Y-113080000D01*
X126870000Y-111750000D02*
X126870000Y-113080000D01*
%TO.C,C15*%
X141510000Y-91837221D02*
X141510000Y-92162779D01*
X140490000Y-91837221D02*
X140490000Y-92162779D01*
%TO.C,C16*%
X141990000Y-91837221D02*
X141990000Y-92162779D01*
X143010000Y-91837221D02*
X143010000Y-92162779D01*
%TO.C,D1*%
X142350000Y-97850000D02*
X147750000Y-97850000D01*
X142350000Y-101150000D02*
X147750000Y-101150000D01*
X142350000Y-97850000D02*
X142350000Y-101150000D01*
%TO.C,D3*%
X140515000Y-80340000D02*
X140515000Y-82800000D01*
X141985000Y-80340000D02*
X140515000Y-80340000D01*
X141985000Y-82800000D02*
X141985000Y-80340000D01*
%TO.C,D2*%
X139985001Y-82800000D02*
X139985001Y-80340000D01*
X139985001Y-80340000D02*
X138515001Y-80340000D01*
X138515001Y-80340000D02*
X138515001Y-82800000D01*
%TO.C,D7*%
X143985000Y-82800000D02*
X143985000Y-80340000D01*
X143985000Y-80340000D02*
X142515000Y-80340000D01*
X142515000Y-80340000D02*
X142515000Y-82800000D01*
%TO.C,J4*%
X103080000Y-87980000D02*
X100420000Y-87980000D01*
X103080000Y-87980000D02*
X103080000Y-80300000D01*
X103080000Y-80300000D02*
X100420000Y-80300000D01*
X100420000Y-87980000D02*
X100420000Y-80300000D01*
X100420000Y-90580000D02*
X100420000Y-89250000D01*
X101750000Y-90580000D02*
X100420000Y-90580000D01*
%TO.C,J2*%
X119880000Y-106475000D02*
X119057530Y-106475000D01*
X117172470Y-106475000D02*
X116350000Y-106475000D01*
X118442470Y-106475000D02*
X117787530Y-106475000D01*
X119880000Y-111490000D02*
X119880000Y-106475000D01*
X116350000Y-112945000D02*
X116350000Y-106475000D01*
X119880000Y-111490000D02*
X119313471Y-111490000D01*
X118186529Y-111490000D02*
X118043471Y-111490000D01*
X117990000Y-111543471D02*
X117990000Y-111686529D01*
X117990000Y-112813471D02*
X117990000Y-112945000D01*
X117990000Y-112945000D02*
X117787530Y-112945000D01*
X117172470Y-112945000D02*
X116350000Y-112945000D01*
X119880000Y-112250000D02*
X119880000Y-113010000D01*
X119880000Y-113010000D02*
X118750000Y-113010000D01*
%TO.C,J5*%
X147190000Y-96810000D02*
X149310000Y-96810000D01*
X147190000Y-94750000D02*
X147190000Y-96810000D01*
X149310000Y-94750000D02*
X149310000Y-96810000D01*
X147190000Y-94750000D02*
X149310000Y-94750000D01*
X147190000Y-93750000D02*
X147190000Y-92690000D01*
X147190000Y-92690000D02*
X148250000Y-92690000D01*
%TO.C,Q1*%
X105065000Y-108670000D02*
X105065000Y-109600000D01*
X105065000Y-111830000D02*
X105065000Y-110900000D01*
X105065000Y-111830000D02*
X107225000Y-111830000D01*
X105065000Y-108670000D02*
X106525000Y-108670000D01*
%TO.C,R12*%
X110285000Y-82403733D02*
X110285000Y-82746267D01*
X109265000Y-82403733D02*
X109265000Y-82746267D01*
%TO.C,R13*%
X107515000Y-82746267D02*
X107515000Y-82403733D01*
X108535000Y-82746267D02*
X108535000Y-82403733D01*
%TO.C,R14*%
X105815000Y-82403733D02*
X105815000Y-82746267D01*
X106835000Y-82403733D02*
X106835000Y-82746267D01*
%TO.C,R20*%
X138990000Y-91837221D02*
X138990000Y-92162779D01*
X140010000Y-91837221D02*
X140010000Y-92162779D01*
%TO.C,R22*%
X143490000Y-92162779D02*
X143490000Y-91837221D01*
X144510000Y-92162779D02*
X144510000Y-91837221D01*
%TO.C,TH1*%
X127940000Y-110940000D02*
X127940000Y-113060000D01*
X130000000Y-110940000D02*
X127940000Y-110940000D01*
X130000000Y-113060000D02*
X127940000Y-113060000D01*
X130000000Y-110940000D02*
X130000000Y-113060000D01*
X131000000Y-110940000D02*
X132060000Y-110940000D01*
X132060000Y-110940000D02*
X132060000Y-112000000D01*
%TO.C,C5*%
X124796267Y-108485000D02*
X124453733Y-108485000D01*
X124796267Y-107465000D02*
X124453733Y-107465000D01*
D12*
%TO.C,U2*%
X132500000Y-105600000D02*
X134600000Y-105600000D01*
X134600000Y-105600000D02*
X134600000Y-105000000D01*
X118400000Y-104900000D02*
X118400000Y-105600000D01*
X120500000Y-105600000D02*
X118400000Y-105600000D01*
D11*
X118400000Y-80400000D02*
X134600000Y-80400000D01*
X134600000Y-80400000D02*
X134600000Y-89000000D01*
X118400000Y-80400000D02*
X118400000Y-89000000D01*
%TO.C,SW1*%
D13*
X103163809Y-97933333D02*
X103201904Y-97833333D01*
X103201904Y-97666666D01*
X103163809Y-97600000D01*
X103125714Y-97566666D01*
X103049523Y-97533333D01*
X102973333Y-97533333D01*
X102897142Y-97566666D01*
X102859047Y-97600000D01*
X102820952Y-97666666D01*
X102782857Y-97800000D01*
X102744761Y-97866666D01*
X102706666Y-97900000D01*
X102630476Y-97933333D01*
X102554285Y-97933333D01*
X102478095Y-97900000D01*
X102440000Y-97866666D01*
X102401904Y-97800000D01*
X102401904Y-97633333D01*
X102440000Y-97533333D01*
X102401904Y-97300000D02*
X103201904Y-97133333D01*
X102630476Y-97000000D01*
X103201904Y-96866666D01*
X102401904Y-96700000D01*
X103201904Y-96066666D02*
X103201904Y-96466666D01*
X103201904Y-96266666D02*
X102401904Y-96266666D01*
X102516190Y-96333333D01*
X102592380Y-96400000D01*
X102630476Y-96466666D01*
%TO.C,J3*%
X145611904Y-89333333D02*
X146183333Y-89333333D01*
X146297619Y-89366666D01*
X146373809Y-89433333D01*
X146411904Y-89533333D01*
X146411904Y-89600000D01*
X145611904Y-89066666D02*
X145611904Y-88633333D01*
X145916666Y-88866666D01*
X145916666Y-88766666D01*
X145954761Y-88700000D01*
X145992857Y-88666666D01*
X146069047Y-88633333D01*
X146259523Y-88633333D01*
X146335714Y-88666666D01*
X146373809Y-88700000D01*
X146411904Y-88766666D01*
X146411904Y-88966666D01*
X146373809Y-89033333D01*
X146335714Y-89066666D01*
%TO.C,C15*%
X141285714Y-94850000D02*
X141323809Y-94883333D01*
X141361904Y-94983333D01*
X141361904Y-95050000D01*
X141323809Y-95150000D01*
X141247619Y-95216666D01*
X141171428Y-95250000D01*
X141019047Y-95283333D01*
X140904761Y-95283333D01*
X140752380Y-95250000D01*
X140676190Y-95216666D01*
X140600000Y-95150000D01*
X140561904Y-95050000D01*
X140561904Y-94983333D01*
X140600000Y-94883333D01*
X140638095Y-94850000D01*
X141361904Y-94183333D02*
X141361904Y-94583333D01*
X141361904Y-94383333D02*
X140561904Y-94383333D01*
X140676190Y-94450000D01*
X140752380Y-94516666D01*
X140790476Y-94583333D01*
X140561904Y-93550000D02*
X140561904Y-93883333D01*
X140942857Y-93916666D01*
X140904761Y-93883333D01*
X140866666Y-93816666D01*
X140866666Y-93650000D01*
X140904761Y-93583333D01*
X140942857Y-93550000D01*
X141019047Y-93516666D01*
X141209523Y-93516666D01*
X141285714Y-93550000D01*
X141323809Y-93583333D01*
X141361904Y-93650000D01*
X141361904Y-93816666D01*
X141323809Y-93883333D01*
X141285714Y-93916666D01*
%TO.C,C16*%
X142785714Y-94900000D02*
X142823809Y-94933333D01*
X142861904Y-95033333D01*
X142861904Y-95100000D01*
X142823809Y-95200000D01*
X142747619Y-95266666D01*
X142671428Y-95300000D01*
X142519047Y-95333333D01*
X142404761Y-95333333D01*
X142252380Y-95300000D01*
X142176190Y-95266666D01*
X142100000Y-95200000D01*
X142061904Y-95100000D01*
X142061904Y-95033333D01*
X142100000Y-94933333D01*
X142138095Y-94900000D01*
X142861904Y-94233333D02*
X142861904Y-94633333D01*
X142861904Y-94433333D02*
X142061904Y-94433333D01*
X142176190Y-94500000D01*
X142252380Y-94566666D01*
X142290476Y-94633333D01*
X142061904Y-93633333D02*
X142061904Y-93766666D01*
X142100000Y-93833333D01*
X142138095Y-93866666D01*
X142252380Y-93933333D01*
X142404761Y-93966666D01*
X142709523Y-93966666D01*
X142785714Y-93933333D01*
X142823809Y-93900000D01*
X142861904Y-93833333D01*
X142861904Y-93700000D01*
X142823809Y-93633333D01*
X142785714Y-93600000D01*
X142709523Y-93566666D01*
X142519047Y-93566666D01*
X142442857Y-93600000D01*
X142404761Y-93633333D01*
X142366666Y-93700000D01*
X142366666Y-93833333D01*
X142404761Y-93900000D01*
X142442857Y-93933333D01*
X142519047Y-93966666D01*
%TO.C,D1*%
X143433333Y-97561904D02*
X143433333Y-96761904D01*
X143600000Y-96761904D01*
X143700000Y-96800000D01*
X143766666Y-96876190D01*
X143800000Y-96952380D01*
X143833333Y-97104761D01*
X143833333Y-97219047D01*
X143800000Y-97371428D01*
X143766666Y-97447619D01*
X143700000Y-97523809D01*
X143600000Y-97561904D01*
X143433333Y-97561904D01*
X144500000Y-97561904D02*
X144100000Y-97561904D01*
X144300000Y-97561904D02*
X144300000Y-96761904D01*
X144233333Y-96876190D01*
X144166666Y-96952380D01*
X144100000Y-96990476D01*
%TO.C,D3*%
X141611904Y-85166666D02*
X140811904Y-85166666D01*
X140811904Y-85000000D01*
X140850000Y-84900000D01*
X140926190Y-84833333D01*
X141002380Y-84800000D01*
X141154761Y-84766666D01*
X141269047Y-84766666D01*
X141421428Y-84800000D01*
X141497619Y-84833333D01*
X141573809Y-84900000D01*
X141611904Y-85000000D01*
X141611904Y-85166666D01*
X140811904Y-84533333D02*
X140811904Y-84100000D01*
X141116666Y-84333333D01*
X141116666Y-84233333D01*
X141154761Y-84166666D01*
X141192857Y-84133333D01*
X141269047Y-84100000D01*
X141459523Y-84100000D01*
X141535714Y-84133333D01*
X141573809Y-84166666D01*
X141611904Y-84233333D01*
X141611904Y-84433333D01*
X141573809Y-84500000D01*
X141535714Y-84533333D01*
%TO.C,D2*%
X139611904Y-85216666D02*
X138811904Y-85216666D01*
X138811904Y-85050000D01*
X138850000Y-84950000D01*
X138926190Y-84883333D01*
X139002380Y-84850000D01*
X139154761Y-84816666D01*
X139269047Y-84816666D01*
X139421428Y-84850000D01*
X139497619Y-84883333D01*
X139573809Y-84950000D01*
X139611904Y-85050000D01*
X139611904Y-85216666D01*
X138888095Y-84550000D02*
X138850000Y-84516666D01*
X138811904Y-84450000D01*
X138811904Y-84283333D01*
X138850000Y-84216666D01*
X138888095Y-84183333D01*
X138964285Y-84150000D01*
X139040476Y-84150000D01*
X139154761Y-84183333D01*
X139611904Y-84583333D01*
X139611904Y-84150000D01*
%TO.C,D7*%
X143561904Y-85166666D02*
X142761904Y-85166666D01*
X142761904Y-85000000D01*
X142800000Y-84900000D01*
X142876190Y-84833333D01*
X142952380Y-84800000D01*
X143104761Y-84766666D01*
X143219047Y-84766666D01*
X143371428Y-84800000D01*
X143447619Y-84833333D01*
X143523809Y-84900000D01*
X143561904Y-85000000D01*
X143561904Y-85166666D01*
X142761904Y-84533333D02*
X142761904Y-84066666D01*
X143561904Y-84366666D01*
%TO.C,J4*%
X101516666Y-91061904D02*
X101516666Y-91633333D01*
X101483333Y-91747619D01*
X101416666Y-91823809D01*
X101316666Y-91861904D01*
X101250000Y-91861904D01*
X102150000Y-91328571D02*
X102150000Y-91861904D01*
X101983333Y-91023809D02*
X101816666Y-91595238D01*
X102250000Y-91595238D01*
%TO.C,J2*%
X120316666Y-108711904D02*
X120316666Y-109283333D01*
X120283333Y-109397619D01*
X120216666Y-109473809D01*
X120116666Y-109511904D01*
X120050000Y-109511904D01*
X120616666Y-108788095D02*
X120650000Y-108750000D01*
X120716666Y-108711904D01*
X120883333Y-108711904D01*
X120950000Y-108750000D01*
X120983333Y-108788095D01*
X121016666Y-108864285D01*
X121016666Y-108940476D01*
X120983333Y-109054761D01*
X120583333Y-109511904D01*
X121016666Y-109511904D01*
%TO.C,J5*%
X147811904Y-92333333D02*
X148383333Y-92333333D01*
X148497619Y-92366666D01*
X148573809Y-92433333D01*
X148611904Y-92533333D01*
X148611904Y-92600000D01*
X147811904Y-91666666D02*
X147811904Y-92000000D01*
X148192857Y-92033333D01*
X148154761Y-92000000D01*
X148116666Y-91933333D01*
X148116666Y-91766666D01*
X148154761Y-91700000D01*
X148192857Y-91666666D01*
X148269047Y-91633333D01*
X148459523Y-91633333D01*
X148535714Y-91666666D01*
X148573809Y-91700000D01*
X148611904Y-91766666D01*
X148611904Y-91933333D01*
X148573809Y-92000000D01*
X148535714Y-92033333D01*
%TO.C,Q1*%
X106238095Y-112666666D02*
X106200000Y-112733333D01*
X106123809Y-112800000D01*
X106009523Y-112900000D01*
X105971428Y-112966666D01*
X105971428Y-113033333D01*
X106161904Y-113000000D02*
X106123809Y-113066666D01*
X106047619Y-113133333D01*
X105895238Y-113166666D01*
X105628571Y-113166666D01*
X105476190Y-113133333D01*
X105400000Y-113066666D01*
X105361904Y-113000000D01*
X105361904Y-112866666D01*
X105400000Y-112800000D01*
X105476190Y-112733333D01*
X105628571Y-112700000D01*
X105895238Y-112700000D01*
X106047619Y-112733333D01*
X106123809Y-112800000D01*
X106161904Y-112866666D01*
X106161904Y-113000000D01*
X106161904Y-112033333D02*
X106161904Y-112433333D01*
X106161904Y-112233333D02*
X105361904Y-112233333D01*
X105476190Y-112300000D01*
X105552380Y-112366666D01*
X105590476Y-112433333D01*
%TO.C,R12*%
X110111904Y-85750000D02*
X109730952Y-85983333D01*
X110111904Y-86150000D02*
X109311904Y-86150000D01*
X109311904Y-85883333D01*
X109350000Y-85816666D01*
X109388095Y-85783333D01*
X109464285Y-85750000D01*
X109578571Y-85750000D01*
X109654761Y-85783333D01*
X109692857Y-85816666D01*
X109730952Y-85883333D01*
X109730952Y-86150000D01*
X110111904Y-85083333D02*
X110111904Y-85483333D01*
X110111904Y-85283333D02*
X109311904Y-85283333D01*
X109426190Y-85350000D01*
X109502380Y-85416666D01*
X109540476Y-85483333D01*
X109388095Y-84816666D02*
X109350000Y-84783333D01*
X109311904Y-84716666D01*
X109311904Y-84550000D01*
X109350000Y-84483333D01*
X109388095Y-84450000D01*
X109464285Y-84416666D01*
X109540476Y-84416666D01*
X109654761Y-84450000D01*
X110111904Y-84850000D01*
X110111904Y-84416666D01*
%TO.C,R13*%
X108411904Y-85800000D02*
X108030952Y-86033333D01*
X108411904Y-86200000D02*
X107611904Y-86200000D01*
X107611904Y-85933333D01*
X107650000Y-85866666D01*
X107688095Y-85833333D01*
X107764285Y-85800000D01*
X107878571Y-85800000D01*
X107954761Y-85833333D01*
X107992857Y-85866666D01*
X108030952Y-85933333D01*
X108030952Y-86200000D01*
X108411904Y-85133333D02*
X108411904Y-85533333D01*
X108411904Y-85333333D02*
X107611904Y-85333333D01*
X107726190Y-85400000D01*
X107802380Y-85466666D01*
X107840476Y-85533333D01*
X107611904Y-84900000D02*
X107611904Y-84466666D01*
X107916666Y-84700000D01*
X107916666Y-84600000D01*
X107954761Y-84533333D01*
X107992857Y-84500000D01*
X108069047Y-84466666D01*
X108259523Y-84466666D01*
X108335714Y-84500000D01*
X108373809Y-84533333D01*
X108411904Y-84600000D01*
X108411904Y-84800000D01*
X108373809Y-84866666D01*
X108335714Y-84900000D01*
%TO.C,R14*%
X106611904Y-85850000D02*
X106230952Y-86083333D01*
X106611904Y-86250000D02*
X105811904Y-86250000D01*
X105811904Y-85983333D01*
X105850000Y-85916666D01*
X105888095Y-85883333D01*
X105964285Y-85850000D01*
X106078571Y-85850000D01*
X106154761Y-85883333D01*
X106192857Y-85916666D01*
X106230952Y-85983333D01*
X106230952Y-86250000D01*
X106611904Y-85183333D02*
X106611904Y-85583333D01*
X106611904Y-85383333D02*
X105811904Y-85383333D01*
X105926190Y-85450000D01*
X106002380Y-85516666D01*
X106040476Y-85583333D01*
X106078571Y-84583333D02*
X106611904Y-84583333D01*
X105773809Y-84750000D02*
X106345238Y-84916666D01*
X106345238Y-84483333D01*
%TO.C,R8*%
X137661904Y-106791666D02*
X137280952Y-107025000D01*
X137661904Y-107191666D02*
X136861904Y-107191666D01*
X136861904Y-106925000D01*
X136900000Y-106858333D01*
X136938095Y-106825000D01*
X137014285Y-106791666D01*
X137128571Y-106791666D01*
X137204761Y-106825000D01*
X137242857Y-106858333D01*
X137280952Y-106925000D01*
X137280952Y-107191666D01*
X137204761Y-106391666D02*
X137166666Y-106458333D01*
X137128571Y-106491666D01*
X137052380Y-106525000D01*
X137014285Y-106525000D01*
X136938095Y-106491666D01*
X136900000Y-106458333D01*
X136861904Y-106391666D01*
X136861904Y-106258333D01*
X136900000Y-106191666D01*
X136938095Y-106158333D01*
X137014285Y-106125000D01*
X137052380Y-106125000D01*
X137128571Y-106158333D01*
X137166666Y-106191666D01*
X137204761Y-106258333D01*
X137204761Y-106391666D01*
X137242857Y-106458333D01*
X137280952Y-106491666D01*
X137357142Y-106525000D01*
X137509523Y-106525000D01*
X137585714Y-106491666D01*
X137623809Y-106458333D01*
X137661904Y-106391666D01*
X137661904Y-106258333D01*
X137623809Y-106191666D01*
X137585714Y-106158333D01*
X137509523Y-106125000D01*
X137357142Y-106125000D01*
X137280952Y-106158333D01*
X137242857Y-106191666D01*
X137204761Y-106258333D01*
%TO.C,R9*%
X109811904Y-112716666D02*
X109430952Y-112950000D01*
X109811904Y-113116666D02*
X109011904Y-113116666D01*
X109011904Y-112850000D01*
X109050000Y-112783333D01*
X109088095Y-112750000D01*
X109164285Y-112716666D01*
X109278571Y-112716666D01*
X109354761Y-112750000D01*
X109392857Y-112783333D01*
X109430952Y-112850000D01*
X109430952Y-113116666D01*
X109811904Y-112383333D02*
X109811904Y-112250000D01*
X109773809Y-112183333D01*
X109735714Y-112150000D01*
X109621428Y-112083333D01*
X109469047Y-112050000D01*
X109164285Y-112050000D01*
X109088095Y-112083333D01*
X109050000Y-112116666D01*
X109011904Y-112183333D01*
X109011904Y-112316666D01*
X109050000Y-112383333D01*
X109088095Y-112416666D01*
X109164285Y-112450000D01*
X109354761Y-112450000D01*
X109430952Y-112416666D01*
X109469047Y-112383333D01*
X109507142Y-112316666D01*
X109507142Y-112183333D01*
X109469047Y-112116666D01*
X109430952Y-112083333D01*
X109354761Y-112050000D01*
%TO.C,R7*%
X108661904Y-112766666D02*
X108280952Y-113000000D01*
X108661904Y-113166666D02*
X107861904Y-113166666D01*
X107861904Y-112900000D01*
X107900000Y-112833333D01*
X107938095Y-112800000D01*
X108014285Y-112766666D01*
X108128571Y-112766666D01*
X108204761Y-112800000D01*
X108242857Y-112833333D01*
X108280952Y-112900000D01*
X108280952Y-113166666D01*
X107861904Y-112533333D02*
X107861904Y-112066666D01*
X108661904Y-112366666D01*
%TO.C,R20*%
X139861904Y-94850000D02*
X139480952Y-95083333D01*
X139861904Y-95250000D02*
X139061904Y-95250000D01*
X139061904Y-94983333D01*
X139100000Y-94916666D01*
X139138095Y-94883333D01*
X139214285Y-94850000D01*
X139328571Y-94850000D01*
X139404761Y-94883333D01*
X139442857Y-94916666D01*
X139480952Y-94983333D01*
X139480952Y-95250000D01*
X139138095Y-94583333D02*
X139100000Y-94550000D01*
X139061904Y-94483333D01*
X139061904Y-94316666D01*
X139100000Y-94250000D01*
X139138095Y-94216666D01*
X139214285Y-94183333D01*
X139290476Y-94183333D01*
X139404761Y-94216666D01*
X139861904Y-94616666D01*
X139861904Y-94183333D01*
X139061904Y-93750000D02*
X139061904Y-93683333D01*
X139100000Y-93616666D01*
X139138095Y-93583333D01*
X139214285Y-93550000D01*
X139366666Y-93516666D01*
X139557142Y-93516666D01*
X139709523Y-93550000D01*
X139785714Y-93583333D01*
X139823809Y-93616666D01*
X139861904Y-93683333D01*
X139861904Y-93750000D01*
X139823809Y-93816666D01*
X139785714Y-93850000D01*
X139709523Y-93883333D01*
X139557142Y-93916666D01*
X139366666Y-93916666D01*
X139214285Y-93883333D01*
X139138095Y-93850000D01*
X139100000Y-93816666D01*
X139061904Y-93750000D01*
%TO.C,R22*%
X144311904Y-94900000D02*
X143930952Y-95133333D01*
X144311904Y-95300000D02*
X143511904Y-95300000D01*
X143511904Y-95033333D01*
X143550000Y-94966666D01*
X143588095Y-94933333D01*
X143664285Y-94900000D01*
X143778571Y-94900000D01*
X143854761Y-94933333D01*
X143892857Y-94966666D01*
X143930952Y-95033333D01*
X143930952Y-95300000D01*
X143588095Y-94633333D02*
X143550000Y-94600000D01*
X143511904Y-94533333D01*
X143511904Y-94366666D01*
X143550000Y-94300000D01*
X143588095Y-94266666D01*
X143664285Y-94233333D01*
X143740476Y-94233333D01*
X143854761Y-94266666D01*
X144311904Y-94666666D01*
X144311904Y-94233333D01*
X143588095Y-93966666D02*
X143550000Y-93933333D01*
X143511904Y-93866666D01*
X143511904Y-93700000D01*
X143550000Y-93633333D01*
X143588095Y-93600000D01*
X143664285Y-93566666D01*
X143740476Y-93566666D01*
X143854761Y-93600000D01*
X144311904Y-94000000D01*
X144311904Y-93566666D01*
%TO.C,R17*%
X137500000Y-99861904D02*
X137266666Y-99480952D01*
X137100000Y-99861904D02*
X137100000Y-99061904D01*
X137366666Y-99061904D01*
X137433333Y-99100000D01*
X137466666Y-99138095D01*
X137500000Y-99214285D01*
X137500000Y-99328571D01*
X137466666Y-99404761D01*
X137433333Y-99442857D01*
X137366666Y-99480952D01*
X137100000Y-99480952D01*
X138166666Y-99861904D02*
X137766666Y-99861904D01*
X137966666Y-99861904D02*
X137966666Y-99061904D01*
X137900000Y-99176190D01*
X137833333Y-99252380D01*
X137766666Y-99290476D01*
X138400000Y-99061904D02*
X138866666Y-99061904D01*
X138566666Y-99861904D01*
%TO.C,R18*%
X137500000Y-100911904D02*
X137266666Y-100530952D01*
X137100000Y-100911904D02*
X137100000Y-100111904D01*
X137366666Y-100111904D01*
X137433333Y-100150000D01*
X137466666Y-100188095D01*
X137500000Y-100264285D01*
X137500000Y-100378571D01*
X137466666Y-100454761D01*
X137433333Y-100492857D01*
X137366666Y-100530952D01*
X137100000Y-100530952D01*
X138166666Y-100911904D02*
X137766666Y-100911904D01*
X137966666Y-100911904D02*
X137966666Y-100111904D01*
X137900000Y-100226190D01*
X137833333Y-100302380D01*
X137766666Y-100340476D01*
X138566666Y-100454761D02*
X138500000Y-100416666D01*
X138466666Y-100378571D01*
X138433333Y-100302380D01*
X138433333Y-100264285D01*
X138466666Y-100188095D01*
X138500000Y-100150000D01*
X138566666Y-100111904D01*
X138700000Y-100111904D01*
X138766666Y-100150000D01*
X138800000Y-100188095D01*
X138833333Y-100264285D01*
X138833333Y-100302380D01*
X138800000Y-100378571D01*
X138766666Y-100416666D01*
X138700000Y-100454761D01*
X138566666Y-100454761D01*
X138500000Y-100492857D01*
X138466666Y-100530952D01*
X138433333Y-100607142D01*
X138433333Y-100759523D01*
X138466666Y-100835714D01*
X138500000Y-100873809D01*
X138566666Y-100911904D01*
X138700000Y-100911904D01*
X138766666Y-100873809D01*
X138800000Y-100835714D01*
X138833333Y-100759523D01*
X138833333Y-100607142D01*
X138800000Y-100530952D01*
X138766666Y-100492857D01*
X138700000Y-100454761D01*
%TO.C,TH1*%
X129200000Y-109561904D02*
X129600000Y-109561904D01*
X129400000Y-110361904D02*
X129400000Y-109561904D01*
X129833333Y-110361904D02*
X129833333Y-109561904D01*
X129833333Y-109942857D02*
X130233333Y-109942857D01*
X130233333Y-110361904D02*
X130233333Y-109561904D01*
X130933333Y-110361904D02*
X130533333Y-110361904D01*
X130733333Y-110361904D02*
X130733333Y-109561904D01*
X130666666Y-109676190D01*
X130600000Y-109752380D01*
X130533333Y-109790476D01*
%TO.C,C5*%
X126933333Y-108410714D02*
X126900000Y-108448809D01*
X126800000Y-108486904D01*
X126733333Y-108486904D01*
X126633333Y-108448809D01*
X126566666Y-108372619D01*
X126533333Y-108296428D01*
X126500000Y-108144047D01*
X126500000Y-108029761D01*
X126533333Y-107877380D01*
X126566666Y-107801190D01*
X126633333Y-107725000D01*
X126733333Y-107686904D01*
X126800000Y-107686904D01*
X126900000Y-107725000D01*
X126933333Y-107763095D01*
X127566666Y-107686904D02*
X127233333Y-107686904D01*
X127200000Y-108067857D01*
X127233333Y-108029761D01*
X127300000Y-107991666D01*
X127466666Y-107991666D01*
X127533333Y-108029761D01*
X127566666Y-108067857D01*
X127600000Y-108144047D01*
X127600000Y-108334523D01*
X127566666Y-108410714D01*
X127533333Y-108448809D01*
X127466666Y-108486904D01*
X127300000Y-108486904D01*
X127233333Y-108448809D01*
X127200000Y-108410714D01*
%TO.C,U2*%
D10*
X130815476Y-107132142D02*
X130815476Y-107860714D01*
X130853571Y-107946428D01*
X130891666Y-107989285D01*
X130967857Y-108032142D01*
X131120238Y-108032142D01*
X131196428Y-107989285D01*
X131234523Y-107946428D01*
X131272619Y-107860714D01*
X131272619Y-107132142D01*
X131615476Y-107217857D02*
X131653571Y-107175000D01*
X131729761Y-107132142D01*
X131920238Y-107132142D01*
X131996428Y-107175000D01*
X132034523Y-107217857D01*
X132072619Y-107303571D01*
X132072619Y-107389285D01*
X132034523Y-107517857D01*
X131577380Y-108032142D01*
X132072619Y-108032142D01*
%TD*%
M02*
