G04 EAGLE Gerber RS-274X export*
G75*
%MOMM*%
%FSLAX34Y34*%
%LPD*%
%INSilkscreen Top*%
%IPPOS*%
%AMOC8*
5,1,8,0,0,1.08239X$1,22.5*%
G01*
%ADD10C,0.203200*%
%ADD11R,0.250000X0.250000*%
%ADD12C,0.101600*%
%ADD13C,0.200000*%
%ADD14C,0.127000*%
%ADD15C,0.076200*%
%ADD16C,0.025400*%


D10*
X355504Y445541D02*
X355504Y432841D01*
X457104Y432841D02*
X457104Y445541D01*
D11*
X441414Y308491D03*
D12*
X427972Y315349D02*
X427972Y327033D01*
X427972Y315349D02*
X433165Y315349D01*
X437878Y315349D02*
X443071Y315349D01*
X437878Y315349D02*
X437878Y327033D01*
X443071Y327033D01*
X441773Y321840D02*
X437878Y321840D01*
X447762Y327033D02*
X447762Y315349D01*
X447762Y327033D02*
X451007Y327033D01*
X451120Y327031D01*
X451233Y327025D01*
X451346Y327015D01*
X451459Y327001D01*
X451571Y326984D01*
X451682Y326962D01*
X451792Y326937D01*
X451902Y326907D01*
X452010Y326874D01*
X452117Y326837D01*
X452223Y326797D01*
X452327Y326752D01*
X452430Y326704D01*
X452531Y326653D01*
X452630Y326598D01*
X452727Y326540D01*
X452822Y326478D01*
X452915Y326413D01*
X453005Y326345D01*
X453093Y326274D01*
X453179Y326199D01*
X453262Y326122D01*
X453342Y326042D01*
X453419Y325959D01*
X453494Y325873D01*
X453565Y325785D01*
X453633Y325695D01*
X453698Y325602D01*
X453760Y325507D01*
X453818Y325410D01*
X453873Y325311D01*
X453924Y325210D01*
X453972Y325107D01*
X454017Y325003D01*
X454057Y324897D01*
X454094Y324790D01*
X454127Y324682D01*
X454157Y324572D01*
X454182Y324462D01*
X454204Y324351D01*
X454221Y324239D01*
X454235Y324126D01*
X454245Y324013D01*
X454251Y323900D01*
X454253Y323787D01*
X454253Y318594D01*
X454251Y318481D01*
X454245Y318368D01*
X454235Y318255D01*
X454221Y318142D01*
X454204Y318030D01*
X454182Y317919D01*
X454157Y317809D01*
X454127Y317699D01*
X454094Y317591D01*
X454057Y317484D01*
X454017Y317378D01*
X453972Y317274D01*
X453924Y317171D01*
X453873Y317070D01*
X453818Y316971D01*
X453760Y316874D01*
X453698Y316779D01*
X453633Y316686D01*
X453565Y316596D01*
X453494Y316508D01*
X453419Y316422D01*
X453342Y316339D01*
X453262Y316259D01*
X453179Y316182D01*
X453093Y316107D01*
X453005Y316036D01*
X452915Y315968D01*
X452822Y315903D01*
X452727Y315841D01*
X452630Y315783D01*
X452531Y315728D01*
X452430Y315677D01*
X452327Y315629D01*
X452223Y315584D01*
X452117Y315544D01*
X452010Y315507D01*
X451902Y315474D01*
X451792Y315444D01*
X451682Y315419D01*
X451571Y315397D01*
X451459Y315380D01*
X451346Y315366D01*
X451233Y315356D01*
X451120Y315350D01*
X451007Y315348D01*
X451007Y315349D02*
X447762Y315349D01*
X459573Y324436D02*
X462818Y327033D01*
X462818Y315349D01*
X459573Y315349D02*
X466064Y315349D01*
D11*
X473255Y327134D03*
D12*
X454844Y336039D02*
X454844Y347723D01*
X454844Y336039D02*
X460037Y336039D01*
X464750Y336039D02*
X469943Y336039D01*
X464750Y336039D02*
X464750Y347723D01*
X469943Y347723D01*
X468644Y342531D02*
X464750Y342531D01*
X474633Y347723D02*
X474633Y336039D01*
X474633Y347723D02*
X477879Y347723D01*
X477879Y347724D02*
X477992Y347722D01*
X478105Y347716D01*
X478218Y347706D01*
X478331Y347692D01*
X478443Y347675D01*
X478554Y347653D01*
X478664Y347628D01*
X478774Y347598D01*
X478882Y347565D01*
X478989Y347528D01*
X479095Y347488D01*
X479199Y347443D01*
X479302Y347395D01*
X479403Y347344D01*
X479502Y347289D01*
X479599Y347231D01*
X479694Y347169D01*
X479787Y347104D01*
X479877Y347036D01*
X479965Y346965D01*
X480051Y346890D01*
X480134Y346813D01*
X480214Y346733D01*
X480291Y346650D01*
X480366Y346564D01*
X480437Y346476D01*
X480505Y346386D01*
X480570Y346293D01*
X480632Y346198D01*
X480690Y346101D01*
X480745Y346002D01*
X480796Y345901D01*
X480844Y345798D01*
X480889Y345694D01*
X480929Y345588D01*
X480966Y345481D01*
X480999Y345373D01*
X481029Y345263D01*
X481054Y345153D01*
X481076Y345042D01*
X481093Y344930D01*
X481107Y344817D01*
X481117Y344704D01*
X481123Y344591D01*
X481125Y344478D01*
X481124Y344478D02*
X481124Y339285D01*
X481125Y339285D02*
X481123Y339172D01*
X481117Y339059D01*
X481107Y338946D01*
X481093Y338833D01*
X481076Y338721D01*
X481054Y338610D01*
X481029Y338500D01*
X480999Y338390D01*
X480966Y338282D01*
X480929Y338175D01*
X480889Y338069D01*
X480844Y337965D01*
X480796Y337862D01*
X480745Y337761D01*
X480690Y337662D01*
X480632Y337565D01*
X480570Y337470D01*
X480505Y337377D01*
X480437Y337287D01*
X480366Y337199D01*
X480291Y337113D01*
X480214Y337030D01*
X480134Y336950D01*
X480051Y336873D01*
X479965Y336798D01*
X479877Y336727D01*
X479787Y336659D01*
X479694Y336594D01*
X479599Y336532D01*
X479502Y336474D01*
X479403Y336419D01*
X479302Y336368D01*
X479199Y336320D01*
X479095Y336275D01*
X478989Y336235D01*
X478882Y336198D01*
X478774Y336165D01*
X478664Y336135D01*
X478554Y336110D01*
X478443Y336088D01*
X478331Y336071D01*
X478218Y336057D01*
X478105Y336047D01*
X477992Y336041D01*
X477879Y336039D01*
X474633Y336039D01*
X490014Y347723D02*
X490121Y347721D01*
X490227Y347715D01*
X490333Y347705D01*
X490439Y347692D01*
X490545Y347674D01*
X490649Y347653D01*
X490753Y347628D01*
X490856Y347599D01*
X490957Y347567D01*
X491057Y347530D01*
X491156Y347490D01*
X491254Y347447D01*
X491350Y347400D01*
X491444Y347349D01*
X491536Y347295D01*
X491626Y347238D01*
X491714Y347178D01*
X491799Y347114D01*
X491882Y347047D01*
X491963Y346977D01*
X492041Y346905D01*
X492117Y346829D01*
X492189Y346751D01*
X492259Y346670D01*
X492326Y346587D01*
X492390Y346502D01*
X492450Y346414D01*
X492507Y346324D01*
X492561Y346232D01*
X492612Y346138D01*
X492659Y346042D01*
X492702Y345944D01*
X492742Y345845D01*
X492779Y345745D01*
X492811Y345644D01*
X492840Y345541D01*
X492865Y345437D01*
X492886Y345333D01*
X492904Y345227D01*
X492917Y345121D01*
X492927Y345015D01*
X492933Y344909D01*
X492935Y344802D01*
X490014Y347724D02*
X489893Y347722D01*
X489772Y347716D01*
X489652Y347706D01*
X489531Y347693D01*
X489412Y347675D01*
X489292Y347654D01*
X489174Y347629D01*
X489057Y347600D01*
X488940Y347567D01*
X488825Y347531D01*
X488711Y347490D01*
X488598Y347447D01*
X488486Y347399D01*
X488377Y347348D01*
X488269Y347293D01*
X488162Y347235D01*
X488058Y347174D01*
X487956Y347109D01*
X487856Y347041D01*
X487758Y346970D01*
X487662Y346896D01*
X487569Y346819D01*
X487479Y346738D01*
X487391Y346655D01*
X487306Y346569D01*
X487223Y346480D01*
X487144Y346389D01*
X487067Y346295D01*
X486994Y346199D01*
X486924Y346101D01*
X486857Y346000D01*
X486793Y345897D01*
X486733Y345792D01*
X486676Y345685D01*
X486622Y345577D01*
X486572Y345467D01*
X486526Y345355D01*
X486483Y345242D01*
X486444Y345127D01*
X491962Y342530D02*
X492041Y342607D01*
X492117Y342688D01*
X492190Y342771D01*
X492260Y342856D01*
X492327Y342944D01*
X492391Y343034D01*
X492451Y343126D01*
X492508Y343221D01*
X492562Y343317D01*
X492613Y343415D01*
X492660Y343515D01*
X492704Y343617D01*
X492744Y343720D01*
X492780Y343824D01*
X492812Y343930D01*
X492841Y344036D01*
X492866Y344144D01*
X492888Y344252D01*
X492905Y344362D01*
X492919Y344471D01*
X492928Y344581D01*
X492934Y344692D01*
X492936Y344802D01*
X491962Y342531D02*
X486444Y336039D01*
X492935Y336039D01*
D13*
X555878Y307178D02*
X555880Y307241D01*
X555886Y307303D01*
X555896Y307365D01*
X555909Y307427D01*
X555927Y307487D01*
X555948Y307546D01*
X555973Y307604D01*
X556002Y307660D01*
X556034Y307714D01*
X556069Y307766D01*
X556107Y307815D01*
X556149Y307863D01*
X556193Y307907D01*
X556241Y307949D01*
X556290Y307987D01*
X556342Y308022D01*
X556396Y308054D01*
X556452Y308083D01*
X556510Y308108D01*
X556569Y308129D01*
X556629Y308147D01*
X556691Y308160D01*
X556753Y308170D01*
X556815Y308176D01*
X556878Y308178D01*
X556941Y308176D01*
X557003Y308170D01*
X557065Y308160D01*
X557127Y308147D01*
X557187Y308129D01*
X557246Y308108D01*
X557304Y308083D01*
X557360Y308054D01*
X557414Y308022D01*
X557466Y307987D01*
X557515Y307949D01*
X557563Y307907D01*
X557607Y307863D01*
X557649Y307815D01*
X557687Y307766D01*
X557722Y307714D01*
X557754Y307660D01*
X557783Y307604D01*
X557808Y307546D01*
X557829Y307487D01*
X557847Y307427D01*
X557860Y307365D01*
X557870Y307303D01*
X557876Y307241D01*
X557878Y307178D01*
X557876Y307115D01*
X557870Y307053D01*
X557860Y306991D01*
X557847Y306929D01*
X557829Y306869D01*
X557808Y306810D01*
X557783Y306752D01*
X557754Y306696D01*
X557722Y306642D01*
X557687Y306590D01*
X557649Y306541D01*
X557607Y306493D01*
X557563Y306449D01*
X557515Y306407D01*
X557466Y306369D01*
X557414Y306334D01*
X557360Y306302D01*
X557304Y306273D01*
X557246Y306248D01*
X557187Y306227D01*
X557127Y306209D01*
X557065Y306196D01*
X557003Y306186D01*
X556941Y306180D01*
X556878Y306178D01*
X556815Y306180D01*
X556753Y306186D01*
X556691Y306196D01*
X556629Y306209D01*
X556569Y306227D01*
X556510Y306248D01*
X556452Y306273D01*
X556396Y306302D01*
X556342Y306334D01*
X556290Y306369D01*
X556241Y306407D01*
X556193Y306449D01*
X556149Y306493D01*
X556107Y306541D01*
X556069Y306590D01*
X556034Y306642D01*
X556002Y306696D01*
X555973Y306752D01*
X555948Y306810D01*
X555927Y306869D01*
X555909Y306929D01*
X555896Y306991D01*
X555886Y307053D01*
X555880Y307115D01*
X555878Y307178D01*
D14*
X536078Y303178D02*
X529478Y303178D01*
X524778Y314328D02*
X524778Y321028D01*
X529478Y332178D02*
X536078Y332178D01*
D15*
X527504Y323916D02*
X527504Y317129D01*
X527503Y317129D02*
X527505Y317028D01*
X527511Y316927D01*
X527521Y316826D01*
X527534Y316726D01*
X527552Y316626D01*
X527573Y316527D01*
X527599Y316429D01*
X527628Y316332D01*
X527660Y316236D01*
X527697Y316142D01*
X527737Y316049D01*
X527781Y315957D01*
X527828Y315868D01*
X527879Y315780D01*
X527933Y315694D01*
X527990Y315611D01*
X528050Y315529D01*
X528114Y315451D01*
X528180Y315374D01*
X528250Y315301D01*
X528322Y315230D01*
X528397Y315162D01*
X528475Y315097D01*
X528555Y315035D01*
X528637Y314976D01*
X528722Y314920D01*
X528809Y314868D01*
X528897Y314819D01*
X528988Y314773D01*
X529080Y314732D01*
X529174Y314693D01*
X529269Y314659D01*
X529365Y314628D01*
X529463Y314601D01*
X529561Y314577D01*
X529661Y314558D01*
X529761Y314542D01*
X529861Y314530D01*
X529962Y314522D01*
X530063Y314518D01*
X530165Y314518D01*
X530266Y314522D01*
X530367Y314530D01*
X530467Y314542D01*
X530567Y314558D01*
X530667Y314577D01*
X530765Y314601D01*
X530863Y314628D01*
X530959Y314659D01*
X531054Y314693D01*
X531148Y314732D01*
X531240Y314773D01*
X531331Y314819D01*
X531420Y314868D01*
X531506Y314920D01*
X531591Y314976D01*
X531673Y315035D01*
X531753Y315097D01*
X531831Y315162D01*
X531906Y315230D01*
X531978Y315301D01*
X532048Y315374D01*
X532114Y315451D01*
X532178Y315529D01*
X532238Y315611D01*
X532295Y315694D01*
X532349Y315780D01*
X532400Y315868D01*
X532447Y315957D01*
X532491Y316049D01*
X532531Y316142D01*
X532568Y316236D01*
X532600Y316332D01*
X532629Y316429D01*
X532655Y316527D01*
X532676Y316626D01*
X532694Y316726D01*
X532707Y316826D01*
X532717Y316927D01*
X532723Y317028D01*
X532725Y317129D01*
X532725Y323916D01*
X536953Y321828D02*
X539563Y323916D01*
X539563Y314518D01*
X536953Y314518D02*
X542174Y314518D01*
D13*
X361043Y370472D02*
X280043Y370472D01*
X280043Y398972D02*
X280043Y423972D01*
X361043Y423972D02*
X361043Y398972D01*
X289593Y423972D02*
X280043Y423972D01*
X351493Y423972D02*
X361043Y423972D01*
X294960Y437242D02*
X294962Y437284D01*
X294968Y437326D01*
X294978Y437368D01*
X294991Y437408D01*
X295009Y437447D01*
X295030Y437484D01*
X295054Y437518D01*
X295082Y437551D01*
X295112Y437581D01*
X295145Y437607D01*
X295180Y437631D01*
X295218Y437651D01*
X295257Y437667D01*
X295297Y437680D01*
X295339Y437689D01*
X295381Y437694D01*
X295424Y437695D01*
X295466Y437692D01*
X295508Y437685D01*
X295549Y437674D01*
X295589Y437659D01*
X295627Y437641D01*
X295664Y437619D01*
X295698Y437594D01*
X295730Y437566D01*
X295758Y437535D01*
X295784Y437501D01*
X295807Y437465D01*
X295826Y437428D01*
X295842Y437388D01*
X295854Y437347D01*
X295862Y437306D01*
X295866Y437263D01*
X295866Y437221D01*
X295862Y437178D01*
X295854Y437137D01*
X295842Y437096D01*
X295826Y437056D01*
X295807Y437019D01*
X295784Y436983D01*
X295758Y436949D01*
X295730Y436918D01*
X295698Y436890D01*
X295664Y436865D01*
X295627Y436843D01*
X295589Y436825D01*
X295549Y436810D01*
X295508Y436799D01*
X295466Y436792D01*
X295424Y436789D01*
X295381Y436790D01*
X295339Y436795D01*
X295297Y436804D01*
X295257Y436817D01*
X295218Y436833D01*
X295180Y436853D01*
X295145Y436877D01*
X295112Y436903D01*
X295082Y436933D01*
X295054Y436966D01*
X295030Y437000D01*
X295009Y437037D01*
X294991Y437076D01*
X294978Y437116D01*
X294968Y437158D01*
X294962Y437200D01*
X294960Y437242D01*
D12*
X313008Y403204D02*
X313008Y394116D01*
X313006Y394017D01*
X313000Y393917D01*
X312991Y393818D01*
X312978Y393720D01*
X312961Y393622D01*
X312940Y393524D01*
X312915Y393428D01*
X312887Y393333D01*
X312855Y393239D01*
X312820Y393146D01*
X312781Y393054D01*
X312738Y392964D01*
X312693Y392876D01*
X312643Y392789D01*
X312591Y392705D01*
X312535Y392622D01*
X312477Y392542D01*
X312415Y392464D01*
X312350Y392389D01*
X312282Y392316D01*
X312212Y392246D01*
X312139Y392178D01*
X312064Y392113D01*
X311986Y392051D01*
X311906Y391993D01*
X311823Y391937D01*
X311739Y391885D01*
X311652Y391835D01*
X311564Y391790D01*
X311474Y391747D01*
X311382Y391708D01*
X311289Y391673D01*
X311195Y391641D01*
X311100Y391613D01*
X311004Y391588D01*
X310906Y391567D01*
X310808Y391550D01*
X310710Y391537D01*
X310611Y391528D01*
X310511Y391522D01*
X310412Y391520D01*
X309113Y391520D01*
X318281Y391520D02*
X322176Y391520D01*
X322275Y391522D01*
X322375Y391528D01*
X322474Y391537D01*
X322572Y391550D01*
X322670Y391567D01*
X322768Y391588D01*
X322864Y391613D01*
X322959Y391641D01*
X323053Y391673D01*
X323146Y391708D01*
X323238Y391747D01*
X323328Y391790D01*
X323416Y391835D01*
X323503Y391885D01*
X323587Y391937D01*
X323670Y391993D01*
X323750Y392051D01*
X323828Y392113D01*
X323903Y392178D01*
X323976Y392246D01*
X324046Y392316D01*
X324114Y392389D01*
X324179Y392464D01*
X324241Y392542D01*
X324299Y392622D01*
X324355Y392705D01*
X324407Y392789D01*
X324457Y392876D01*
X324502Y392964D01*
X324545Y393054D01*
X324584Y393146D01*
X324619Y393239D01*
X324651Y393333D01*
X324679Y393428D01*
X324704Y393524D01*
X324725Y393622D01*
X324742Y393720D01*
X324755Y393818D01*
X324764Y393917D01*
X324770Y394017D01*
X324772Y394116D01*
X324773Y394116D02*
X324773Y395414D01*
X324772Y395414D02*
X324770Y395513D01*
X324764Y395613D01*
X324755Y395712D01*
X324742Y395810D01*
X324725Y395908D01*
X324704Y396006D01*
X324679Y396102D01*
X324651Y396197D01*
X324619Y396291D01*
X324584Y396384D01*
X324545Y396476D01*
X324502Y396566D01*
X324457Y396654D01*
X324407Y396741D01*
X324355Y396825D01*
X324299Y396908D01*
X324241Y396988D01*
X324179Y397066D01*
X324114Y397141D01*
X324046Y397214D01*
X323976Y397284D01*
X323903Y397352D01*
X323828Y397417D01*
X323750Y397479D01*
X323670Y397537D01*
X323587Y397593D01*
X323503Y397645D01*
X323416Y397695D01*
X323328Y397740D01*
X323238Y397783D01*
X323146Y397822D01*
X323053Y397857D01*
X322959Y397889D01*
X322864Y397917D01*
X322768Y397942D01*
X322670Y397963D01*
X322572Y397980D01*
X322474Y397993D01*
X322375Y398002D01*
X322275Y398008D01*
X322176Y398010D01*
X322176Y398011D02*
X318281Y398011D01*
X318281Y403204D01*
X324773Y403204D01*
D13*
X464751Y409369D02*
X464751Y384889D01*
X464751Y355869D02*
X524751Y355869D01*
X524751Y384889D02*
X524751Y409369D01*
X479451Y425109D02*
X479453Y425154D01*
X479459Y425199D01*
X479469Y425244D01*
X479482Y425287D01*
X479500Y425329D01*
X479521Y425369D01*
X479545Y425407D01*
X479573Y425443D01*
X479603Y425477D01*
X479637Y425507D01*
X479673Y425535D01*
X479711Y425559D01*
X479751Y425580D01*
X479793Y425598D01*
X479836Y425611D01*
X479881Y425621D01*
X479926Y425627D01*
X479971Y425629D01*
X480016Y425627D01*
X480061Y425621D01*
X480106Y425611D01*
X480149Y425598D01*
X480191Y425580D01*
X480231Y425559D01*
X480269Y425535D01*
X480305Y425507D01*
X480339Y425477D01*
X480369Y425443D01*
X480397Y425407D01*
X480421Y425369D01*
X480442Y425329D01*
X480460Y425287D01*
X480473Y425244D01*
X480483Y425199D01*
X480489Y425154D01*
X480491Y425109D01*
X480489Y425064D01*
X480483Y425019D01*
X480473Y424974D01*
X480460Y424931D01*
X480442Y424889D01*
X480421Y424849D01*
X480397Y424811D01*
X480369Y424775D01*
X480339Y424741D01*
X480305Y424711D01*
X480269Y424683D01*
X480231Y424659D01*
X480191Y424638D01*
X480149Y424620D01*
X480106Y424607D01*
X480061Y424597D01*
X480016Y424591D01*
X479971Y424589D01*
X479926Y424591D01*
X479881Y424597D01*
X479836Y424607D01*
X479793Y424620D01*
X479751Y424638D01*
X479711Y424659D01*
X479673Y424683D01*
X479637Y424711D01*
X479603Y424741D01*
X479573Y424775D01*
X479545Y424811D01*
X479521Y424849D01*
X479500Y424889D01*
X479482Y424931D01*
X479469Y424974D01*
X479459Y425019D01*
X479453Y425064D01*
X479451Y425109D01*
D12*
X484390Y416501D02*
X484390Y407414D01*
X484389Y407414D02*
X484387Y407315D01*
X484381Y407215D01*
X484372Y407116D01*
X484359Y407018D01*
X484342Y406920D01*
X484321Y406822D01*
X484296Y406726D01*
X484268Y406631D01*
X484236Y406537D01*
X484201Y406444D01*
X484162Y406352D01*
X484119Y406262D01*
X484074Y406174D01*
X484024Y406087D01*
X483972Y406003D01*
X483916Y405920D01*
X483858Y405840D01*
X483796Y405762D01*
X483731Y405687D01*
X483663Y405614D01*
X483593Y405544D01*
X483520Y405476D01*
X483445Y405411D01*
X483367Y405349D01*
X483287Y405291D01*
X483204Y405235D01*
X483120Y405183D01*
X483033Y405133D01*
X482945Y405088D01*
X482855Y405045D01*
X482763Y405006D01*
X482670Y404971D01*
X482576Y404939D01*
X482481Y404911D01*
X482385Y404886D01*
X482287Y404865D01*
X482189Y404848D01*
X482091Y404835D01*
X481992Y404826D01*
X481892Y404820D01*
X481793Y404818D01*
X481793Y404817D02*
X480495Y404817D01*
X489663Y411308D02*
X493558Y411308D01*
X493657Y411306D01*
X493757Y411300D01*
X493856Y411291D01*
X493954Y411278D01*
X494052Y411261D01*
X494150Y411240D01*
X494246Y411215D01*
X494341Y411187D01*
X494435Y411155D01*
X494528Y411120D01*
X494620Y411081D01*
X494710Y411038D01*
X494798Y410993D01*
X494885Y410943D01*
X494969Y410891D01*
X495052Y410835D01*
X495132Y410777D01*
X495210Y410715D01*
X495285Y410650D01*
X495358Y410582D01*
X495428Y410512D01*
X495496Y410439D01*
X495561Y410364D01*
X495623Y410286D01*
X495681Y410206D01*
X495737Y410123D01*
X495789Y410039D01*
X495839Y409952D01*
X495884Y409864D01*
X495927Y409774D01*
X495966Y409682D01*
X496001Y409589D01*
X496033Y409495D01*
X496061Y409400D01*
X496086Y409304D01*
X496107Y409206D01*
X496124Y409108D01*
X496137Y409010D01*
X496146Y408911D01*
X496152Y408811D01*
X496154Y408712D01*
X496154Y408063D01*
X496155Y408063D02*
X496153Y407950D01*
X496147Y407837D01*
X496137Y407724D01*
X496123Y407611D01*
X496106Y407499D01*
X496084Y407388D01*
X496059Y407278D01*
X496029Y407168D01*
X495996Y407060D01*
X495959Y406953D01*
X495919Y406847D01*
X495874Y406743D01*
X495826Y406640D01*
X495775Y406539D01*
X495720Y406440D01*
X495662Y406343D01*
X495600Y406248D01*
X495535Y406155D01*
X495467Y406065D01*
X495396Y405977D01*
X495321Y405891D01*
X495244Y405808D01*
X495164Y405728D01*
X495081Y405651D01*
X494995Y405576D01*
X494907Y405505D01*
X494817Y405437D01*
X494724Y405372D01*
X494629Y405310D01*
X494532Y405252D01*
X494433Y405197D01*
X494332Y405146D01*
X494229Y405098D01*
X494125Y405053D01*
X494019Y405013D01*
X493912Y404976D01*
X493804Y404943D01*
X493694Y404913D01*
X493584Y404888D01*
X493473Y404866D01*
X493361Y404849D01*
X493248Y404835D01*
X493135Y404825D01*
X493022Y404819D01*
X492909Y404817D01*
X492796Y404819D01*
X492683Y404825D01*
X492570Y404835D01*
X492457Y404849D01*
X492345Y404866D01*
X492234Y404888D01*
X492124Y404913D01*
X492014Y404943D01*
X491906Y404976D01*
X491799Y405013D01*
X491693Y405053D01*
X491589Y405098D01*
X491486Y405146D01*
X491385Y405197D01*
X491286Y405252D01*
X491189Y405310D01*
X491094Y405372D01*
X491001Y405437D01*
X490911Y405505D01*
X490823Y405576D01*
X490737Y405651D01*
X490654Y405728D01*
X490574Y405808D01*
X490497Y405891D01*
X490422Y405977D01*
X490351Y406065D01*
X490283Y406155D01*
X490218Y406248D01*
X490156Y406343D01*
X490098Y406440D01*
X490043Y406539D01*
X489992Y406640D01*
X489944Y406743D01*
X489899Y406847D01*
X489859Y406953D01*
X489822Y407060D01*
X489789Y407168D01*
X489759Y407278D01*
X489734Y407388D01*
X489712Y407499D01*
X489695Y407611D01*
X489681Y407724D01*
X489671Y407837D01*
X489665Y407950D01*
X489663Y408063D01*
X489663Y411308D01*
X489665Y411451D01*
X489671Y411594D01*
X489681Y411737D01*
X489695Y411879D01*
X489712Y412021D01*
X489734Y412163D01*
X489759Y412304D01*
X489789Y412444D01*
X489822Y412583D01*
X489859Y412721D01*
X489900Y412858D01*
X489944Y412994D01*
X489993Y413129D01*
X490045Y413262D01*
X490100Y413394D01*
X490160Y413524D01*
X490223Y413653D01*
X490289Y413780D01*
X490359Y413904D01*
X490432Y414027D01*
X490509Y414148D01*
X490589Y414267D01*
X490672Y414383D01*
X490758Y414498D01*
X490847Y414609D01*
X490940Y414719D01*
X491035Y414825D01*
X491134Y414929D01*
X491235Y415030D01*
X491339Y415129D01*
X491445Y415224D01*
X491555Y415317D01*
X491666Y415406D01*
X491781Y415492D01*
X491897Y415575D01*
X492016Y415655D01*
X492137Y415732D01*
X492259Y415805D01*
X492384Y415875D01*
X492511Y415941D01*
X492640Y416004D01*
X492770Y416064D01*
X492902Y416119D01*
X493035Y416171D01*
X493170Y416220D01*
X493306Y416264D01*
X493443Y416305D01*
X493581Y416342D01*
X493720Y416375D01*
X493860Y416405D01*
X494001Y416430D01*
X494143Y416452D01*
X494285Y416469D01*
X494427Y416483D01*
X494570Y416493D01*
X494713Y416499D01*
X494856Y416501D01*
D10*
X532025Y263730D02*
X455025Y263730D01*
X532025Y263730D02*
X532025Y278730D01*
X532025Y286730D02*
X532025Y301730D01*
X455025Y301730D01*
X455025Y286730D01*
X455025Y278730D02*
X455025Y263730D01*
X455025Y278730D02*
X455143Y278788D01*
X455259Y278850D01*
X455373Y278915D01*
X455485Y278983D01*
X455595Y279055D01*
X455703Y279130D01*
X455809Y279208D01*
X455912Y279289D01*
X456013Y279373D01*
X456111Y279460D01*
X456207Y279550D01*
X456300Y279643D01*
X456390Y279739D01*
X456477Y279837D01*
X456562Y279938D01*
X456643Y280041D01*
X456721Y280146D01*
X456796Y280254D01*
X456868Y280364D01*
X456937Y280476D01*
X457002Y280590D01*
X457063Y280706D01*
X457122Y280824D01*
X457177Y280943D01*
X457228Y281064D01*
X457275Y281187D01*
X457319Y281310D01*
X457360Y281436D01*
X457396Y281562D01*
X457429Y281689D01*
X457458Y281817D01*
X457483Y281946D01*
X457504Y282076D01*
X457522Y282206D01*
X457535Y282336D01*
X457545Y282467D01*
X457551Y282599D01*
X457553Y282730D01*
X457551Y282861D01*
X457545Y282993D01*
X457535Y283124D01*
X457522Y283254D01*
X457504Y283384D01*
X457483Y283514D01*
X457458Y283643D01*
X457429Y283771D01*
X457396Y283898D01*
X457360Y284024D01*
X457319Y284150D01*
X457275Y284273D01*
X457228Y284396D01*
X457177Y284517D01*
X457122Y284636D01*
X457063Y284754D01*
X457002Y284870D01*
X456937Y284984D01*
X456868Y285096D01*
X456796Y285206D01*
X456721Y285314D01*
X456643Y285419D01*
X456562Y285522D01*
X456477Y285623D01*
X456390Y285721D01*
X456300Y285817D01*
X456207Y285910D01*
X456111Y286000D01*
X456013Y286087D01*
X455912Y286171D01*
X455809Y286252D01*
X455703Y286330D01*
X455595Y286405D01*
X455485Y286477D01*
X455373Y286545D01*
X455259Y286610D01*
X455143Y286672D01*
X455025Y286730D01*
X532025Y286730D02*
X531907Y286672D01*
X531791Y286610D01*
X531677Y286545D01*
X531565Y286477D01*
X531455Y286405D01*
X531347Y286330D01*
X531241Y286252D01*
X531138Y286171D01*
X531037Y286087D01*
X530939Y286000D01*
X530843Y285910D01*
X530750Y285817D01*
X530660Y285721D01*
X530573Y285623D01*
X530488Y285522D01*
X530407Y285419D01*
X530329Y285314D01*
X530254Y285206D01*
X530182Y285096D01*
X530113Y284984D01*
X530048Y284870D01*
X529987Y284754D01*
X529928Y284636D01*
X529873Y284517D01*
X529822Y284396D01*
X529775Y284273D01*
X529731Y284150D01*
X529690Y284024D01*
X529654Y283898D01*
X529621Y283771D01*
X529592Y283643D01*
X529567Y283514D01*
X529546Y283384D01*
X529528Y283254D01*
X529515Y283124D01*
X529505Y282993D01*
X529499Y282861D01*
X529497Y282730D01*
X529499Y282599D01*
X529505Y282467D01*
X529515Y282336D01*
X529528Y282206D01*
X529546Y282076D01*
X529567Y281946D01*
X529592Y281817D01*
X529621Y281689D01*
X529654Y281562D01*
X529690Y281436D01*
X529731Y281310D01*
X529775Y281187D01*
X529822Y281064D01*
X529873Y280943D01*
X529928Y280824D01*
X529987Y280706D01*
X530048Y280590D01*
X530113Y280476D01*
X530182Y280364D01*
X530254Y280254D01*
X530329Y280146D01*
X530407Y280041D01*
X530488Y279938D01*
X530573Y279837D01*
X530660Y279739D01*
X530750Y279643D01*
X530843Y279550D01*
X530939Y279460D01*
X531037Y279373D01*
X531138Y279289D01*
X531241Y279208D01*
X531347Y279130D01*
X531455Y279055D01*
X531565Y278983D01*
X531677Y278915D01*
X531791Y278850D01*
X531907Y278788D01*
X532025Y278730D01*
D16*
X457928Y268151D02*
X457152Y267530D01*
X457928Y268151D02*
X457928Y265357D01*
X457152Y265357D02*
X458704Y265357D01*
D13*
X452694Y420787D02*
X371694Y420787D01*
X452694Y392287D02*
X452694Y367287D01*
X371694Y367287D02*
X371694Y392287D01*
X443144Y367287D02*
X452694Y367287D01*
X381244Y367287D02*
X371694Y367287D01*
X436871Y354017D02*
X436873Y354059D01*
X436879Y354101D01*
X436889Y354143D01*
X436902Y354183D01*
X436920Y354222D01*
X436941Y354259D01*
X436965Y354293D01*
X436993Y354326D01*
X437023Y354356D01*
X437056Y354382D01*
X437091Y354406D01*
X437129Y354426D01*
X437168Y354442D01*
X437208Y354455D01*
X437250Y354464D01*
X437292Y354469D01*
X437335Y354470D01*
X437377Y354467D01*
X437419Y354460D01*
X437460Y354449D01*
X437500Y354434D01*
X437538Y354416D01*
X437575Y354394D01*
X437609Y354369D01*
X437641Y354341D01*
X437669Y354310D01*
X437695Y354276D01*
X437718Y354240D01*
X437737Y354203D01*
X437753Y354163D01*
X437765Y354122D01*
X437773Y354081D01*
X437777Y354038D01*
X437777Y353996D01*
X437773Y353953D01*
X437765Y353912D01*
X437753Y353871D01*
X437737Y353831D01*
X437718Y353794D01*
X437695Y353758D01*
X437669Y353724D01*
X437641Y353693D01*
X437609Y353665D01*
X437575Y353640D01*
X437538Y353618D01*
X437500Y353600D01*
X437460Y353585D01*
X437419Y353574D01*
X437377Y353567D01*
X437335Y353564D01*
X437292Y353565D01*
X437250Y353570D01*
X437208Y353579D01*
X437168Y353592D01*
X437129Y353608D01*
X437091Y353628D01*
X437056Y353652D01*
X437023Y353678D01*
X436993Y353708D01*
X436965Y353741D01*
X436941Y353775D01*
X436920Y353812D01*
X436902Y353851D01*
X436889Y353891D01*
X436879Y353933D01*
X436873Y353975D01*
X436871Y354017D01*
D14*
X397624Y339287D02*
X397624Y297287D01*
X369624Y297287D01*
X369624Y339287D01*
X397624Y339287D01*
X381624Y329287D02*
X381472Y329285D01*
X381320Y329279D01*
X381168Y329270D01*
X381017Y329256D01*
X380866Y329239D01*
X380715Y329218D01*
X380565Y329193D01*
X380416Y329164D01*
X380268Y329132D01*
X380120Y329095D01*
X379973Y329056D01*
X379828Y329012D01*
X379683Y328964D01*
X379540Y328914D01*
X379398Y328859D01*
X379258Y328801D01*
X379119Y328739D01*
X378982Y328674D01*
X378846Y328605D01*
X378712Y328533D01*
X378580Y328458D01*
X378450Y328379D01*
X378322Y328297D01*
X378196Y328212D01*
X378073Y328123D01*
X377951Y328032D01*
X377832Y327937D01*
X377716Y327840D01*
X377602Y327739D01*
X377490Y327636D01*
X377381Y327530D01*
X377275Y327421D01*
X377172Y327309D01*
X377071Y327195D01*
X376974Y327079D01*
X376879Y326960D01*
X376788Y326838D01*
X376699Y326715D01*
X376614Y326589D01*
X376532Y326461D01*
X376453Y326331D01*
X376378Y326199D01*
X376306Y326065D01*
X376237Y325929D01*
X376172Y325792D01*
X376110Y325653D01*
X376052Y325513D01*
X375997Y325371D01*
X375947Y325228D01*
X375899Y325083D01*
X375855Y324938D01*
X375816Y324791D01*
X375779Y324643D01*
X375747Y324495D01*
X375718Y324346D01*
X375693Y324196D01*
X375672Y324045D01*
X375655Y323894D01*
X375641Y323743D01*
X375632Y323591D01*
X375626Y323439D01*
X375624Y323287D01*
X381624Y329287D02*
X385624Y329287D01*
X385776Y329285D01*
X385928Y329279D01*
X386080Y329270D01*
X386231Y329256D01*
X386382Y329239D01*
X386533Y329218D01*
X386683Y329193D01*
X386832Y329164D01*
X386980Y329132D01*
X387128Y329095D01*
X387275Y329056D01*
X387420Y329012D01*
X387565Y328964D01*
X387708Y328914D01*
X387850Y328859D01*
X387990Y328801D01*
X388129Y328739D01*
X388266Y328674D01*
X388402Y328605D01*
X388536Y328533D01*
X388668Y328458D01*
X388798Y328379D01*
X388926Y328297D01*
X389052Y328212D01*
X389175Y328123D01*
X389297Y328032D01*
X389416Y327937D01*
X389532Y327840D01*
X389646Y327739D01*
X389758Y327636D01*
X389867Y327530D01*
X389973Y327421D01*
X390076Y327309D01*
X390177Y327195D01*
X390274Y327079D01*
X390369Y326960D01*
X390460Y326838D01*
X390549Y326715D01*
X390634Y326589D01*
X390716Y326461D01*
X390795Y326331D01*
X390870Y326199D01*
X390942Y326065D01*
X391011Y325929D01*
X391076Y325792D01*
X391138Y325653D01*
X391196Y325513D01*
X391251Y325371D01*
X391301Y325228D01*
X391349Y325083D01*
X391393Y324938D01*
X391432Y324791D01*
X391469Y324643D01*
X391501Y324495D01*
X391530Y324346D01*
X391555Y324196D01*
X391576Y324045D01*
X391593Y323894D01*
X391607Y323743D01*
X391616Y323591D01*
X391622Y323439D01*
X391624Y323287D01*
X391624Y313287D01*
X391622Y313135D01*
X391616Y312983D01*
X391607Y312831D01*
X391593Y312680D01*
X391576Y312529D01*
X391555Y312378D01*
X391530Y312228D01*
X391501Y312079D01*
X391469Y311931D01*
X391432Y311783D01*
X391393Y311636D01*
X391349Y311491D01*
X391301Y311346D01*
X391251Y311203D01*
X391196Y311061D01*
X391138Y310921D01*
X391076Y310782D01*
X391011Y310645D01*
X390942Y310509D01*
X390870Y310375D01*
X390795Y310243D01*
X390716Y310113D01*
X390634Y309985D01*
X390549Y309859D01*
X390460Y309736D01*
X390369Y309614D01*
X390274Y309495D01*
X390177Y309379D01*
X390076Y309265D01*
X389973Y309153D01*
X389867Y309044D01*
X389758Y308938D01*
X389646Y308835D01*
X389532Y308734D01*
X389416Y308637D01*
X389297Y308542D01*
X389175Y308451D01*
X389052Y308362D01*
X388926Y308277D01*
X388798Y308195D01*
X388668Y308116D01*
X388536Y308041D01*
X388402Y307969D01*
X388266Y307900D01*
X388129Y307835D01*
X387990Y307773D01*
X387850Y307715D01*
X387708Y307660D01*
X387565Y307610D01*
X387420Y307562D01*
X387275Y307518D01*
X387128Y307479D01*
X386980Y307442D01*
X386832Y307410D01*
X386683Y307381D01*
X386533Y307356D01*
X386382Y307335D01*
X386231Y307318D01*
X386080Y307304D01*
X385928Y307295D01*
X385776Y307289D01*
X385624Y307287D01*
X381624Y307287D01*
X381472Y307289D01*
X381320Y307295D01*
X381168Y307304D01*
X381017Y307318D01*
X380866Y307335D01*
X380715Y307356D01*
X380565Y307381D01*
X380416Y307410D01*
X380268Y307442D01*
X380120Y307479D01*
X379973Y307518D01*
X379828Y307562D01*
X379683Y307610D01*
X379540Y307660D01*
X379398Y307715D01*
X379258Y307773D01*
X379119Y307835D01*
X378982Y307900D01*
X378846Y307969D01*
X378712Y308041D01*
X378580Y308116D01*
X378450Y308195D01*
X378322Y308277D01*
X378196Y308362D01*
X378073Y308451D01*
X377951Y308542D01*
X377832Y308637D01*
X377716Y308734D01*
X377602Y308835D01*
X377490Y308938D01*
X377381Y309044D01*
X377275Y309153D01*
X377172Y309265D01*
X377071Y309379D01*
X376974Y309495D01*
X376879Y309614D01*
X376788Y309736D01*
X376699Y309859D01*
X376614Y309985D01*
X376532Y310113D01*
X376453Y310243D01*
X376378Y310375D01*
X376306Y310509D01*
X376237Y310645D01*
X376172Y310782D01*
X376110Y310921D01*
X376052Y311061D01*
X375997Y311203D01*
X375947Y311346D01*
X375899Y311491D01*
X375855Y311636D01*
X375816Y311783D01*
X375779Y311931D01*
X375747Y312079D01*
X375718Y312228D01*
X375693Y312378D01*
X375672Y312529D01*
X375655Y312680D01*
X375641Y312831D01*
X375632Y312983D01*
X375626Y313135D01*
X375624Y313287D01*
X375624Y323287D01*
D12*
X432976Y336829D02*
X432976Y348513D01*
X436222Y348513D01*
X436222Y348514D02*
X436335Y348512D01*
X436448Y348506D01*
X436561Y348496D01*
X436674Y348482D01*
X436786Y348465D01*
X436897Y348443D01*
X437007Y348418D01*
X437117Y348388D01*
X437225Y348355D01*
X437332Y348318D01*
X437438Y348278D01*
X437542Y348233D01*
X437645Y348185D01*
X437746Y348134D01*
X437845Y348079D01*
X437942Y348021D01*
X438037Y347959D01*
X438130Y347894D01*
X438220Y347826D01*
X438308Y347755D01*
X438394Y347680D01*
X438477Y347603D01*
X438557Y347523D01*
X438634Y347440D01*
X438709Y347354D01*
X438780Y347266D01*
X438848Y347176D01*
X438913Y347083D01*
X438975Y346988D01*
X439033Y346891D01*
X439088Y346792D01*
X439139Y346691D01*
X439187Y346588D01*
X439232Y346484D01*
X439272Y346378D01*
X439309Y346271D01*
X439342Y346163D01*
X439372Y346053D01*
X439397Y345943D01*
X439419Y345832D01*
X439436Y345720D01*
X439450Y345607D01*
X439460Y345494D01*
X439466Y345381D01*
X439468Y345268D01*
X439466Y345155D01*
X439460Y345042D01*
X439450Y344929D01*
X439436Y344816D01*
X439419Y344704D01*
X439397Y344593D01*
X439372Y344483D01*
X439342Y344373D01*
X439309Y344265D01*
X439272Y344158D01*
X439232Y344052D01*
X439187Y343948D01*
X439139Y343845D01*
X439088Y343744D01*
X439033Y343645D01*
X438975Y343548D01*
X438913Y343453D01*
X438848Y343360D01*
X438780Y343270D01*
X438709Y343182D01*
X438634Y343096D01*
X438557Y343013D01*
X438477Y342933D01*
X438394Y342856D01*
X438308Y342781D01*
X438220Y342710D01*
X438130Y342642D01*
X438037Y342577D01*
X437942Y342515D01*
X437845Y342457D01*
X437746Y342402D01*
X437645Y342351D01*
X437542Y342303D01*
X437438Y342258D01*
X437332Y342218D01*
X437225Y342181D01*
X437117Y342148D01*
X437007Y342118D01*
X436897Y342093D01*
X436786Y342071D01*
X436674Y342054D01*
X436561Y342040D01*
X436448Y342030D01*
X436335Y342024D01*
X436222Y342022D01*
X432976Y342022D01*
X436871Y342022D02*
X439467Y336829D01*
X444332Y345917D02*
X447578Y348513D01*
X447578Y336829D01*
X444332Y336829D02*
X450824Y336829D01*
X455762Y345917D02*
X459008Y348513D01*
X459008Y336829D01*
X462253Y336829D02*
X455762Y336829D01*
X506665Y313855D02*
X506665Y302171D01*
X506665Y313855D02*
X509911Y313855D01*
X509911Y313856D02*
X510024Y313854D01*
X510137Y313848D01*
X510250Y313838D01*
X510363Y313824D01*
X510475Y313807D01*
X510586Y313785D01*
X510696Y313760D01*
X510806Y313730D01*
X510914Y313697D01*
X511021Y313660D01*
X511127Y313620D01*
X511231Y313575D01*
X511334Y313527D01*
X511435Y313476D01*
X511534Y313421D01*
X511631Y313363D01*
X511726Y313301D01*
X511819Y313236D01*
X511909Y313168D01*
X511997Y313097D01*
X512083Y313022D01*
X512166Y312945D01*
X512246Y312865D01*
X512323Y312782D01*
X512398Y312696D01*
X512469Y312608D01*
X512537Y312518D01*
X512602Y312425D01*
X512664Y312330D01*
X512722Y312233D01*
X512777Y312134D01*
X512828Y312033D01*
X512876Y311930D01*
X512921Y311826D01*
X512961Y311720D01*
X512998Y311613D01*
X513031Y311505D01*
X513061Y311395D01*
X513086Y311285D01*
X513108Y311174D01*
X513125Y311062D01*
X513139Y310949D01*
X513149Y310836D01*
X513155Y310723D01*
X513157Y310610D01*
X513155Y310497D01*
X513149Y310384D01*
X513139Y310271D01*
X513125Y310158D01*
X513108Y310046D01*
X513086Y309935D01*
X513061Y309825D01*
X513031Y309715D01*
X512998Y309607D01*
X512961Y309500D01*
X512921Y309394D01*
X512876Y309290D01*
X512828Y309187D01*
X512777Y309086D01*
X512722Y308987D01*
X512664Y308890D01*
X512602Y308795D01*
X512537Y308702D01*
X512469Y308612D01*
X512398Y308524D01*
X512323Y308438D01*
X512246Y308355D01*
X512166Y308275D01*
X512083Y308198D01*
X511997Y308123D01*
X511909Y308052D01*
X511819Y307984D01*
X511726Y307919D01*
X511631Y307857D01*
X511534Y307799D01*
X511435Y307744D01*
X511334Y307693D01*
X511231Y307645D01*
X511127Y307600D01*
X511021Y307560D01*
X510914Y307523D01*
X510806Y307490D01*
X510696Y307460D01*
X510586Y307435D01*
X510475Y307413D01*
X510363Y307396D01*
X510250Y307382D01*
X510137Y307372D01*
X510024Y307366D01*
X509911Y307364D01*
X506665Y307364D01*
X510560Y307364D02*
X513156Y302171D01*
X518022Y311259D02*
X521267Y313855D01*
X521267Y302171D01*
X518022Y302171D02*
X524513Y302171D01*
X535943Y310934D02*
X535941Y311041D01*
X535935Y311147D01*
X535925Y311253D01*
X535912Y311359D01*
X535894Y311465D01*
X535873Y311569D01*
X535848Y311673D01*
X535819Y311776D01*
X535787Y311877D01*
X535750Y311977D01*
X535710Y312076D01*
X535667Y312174D01*
X535620Y312270D01*
X535569Y312364D01*
X535515Y312456D01*
X535458Y312546D01*
X535398Y312634D01*
X535334Y312719D01*
X535267Y312802D01*
X535197Y312883D01*
X535125Y312961D01*
X535049Y313037D01*
X534971Y313109D01*
X534890Y313179D01*
X534807Y313246D01*
X534722Y313310D01*
X534634Y313370D01*
X534544Y313427D01*
X534452Y313481D01*
X534358Y313532D01*
X534262Y313579D01*
X534164Y313622D01*
X534065Y313662D01*
X533965Y313699D01*
X533864Y313731D01*
X533761Y313760D01*
X533657Y313785D01*
X533553Y313806D01*
X533447Y313824D01*
X533341Y313837D01*
X533235Y313847D01*
X533129Y313853D01*
X533022Y313855D01*
X532901Y313853D01*
X532780Y313847D01*
X532660Y313837D01*
X532539Y313824D01*
X532420Y313806D01*
X532300Y313785D01*
X532182Y313760D01*
X532065Y313731D01*
X531948Y313698D01*
X531833Y313662D01*
X531719Y313621D01*
X531606Y313578D01*
X531494Y313530D01*
X531385Y313479D01*
X531277Y313424D01*
X531170Y313366D01*
X531066Y313305D01*
X530964Y313240D01*
X530864Y313172D01*
X530766Y313101D01*
X530670Y313027D01*
X530577Y312950D01*
X530487Y312869D01*
X530399Y312786D01*
X530314Y312700D01*
X530231Y312611D01*
X530152Y312520D01*
X530075Y312426D01*
X530002Y312330D01*
X529932Y312232D01*
X529865Y312131D01*
X529801Y312028D01*
X529741Y311923D01*
X529684Y311816D01*
X529630Y311708D01*
X529580Y311598D01*
X529534Y311486D01*
X529491Y311373D01*
X529452Y311258D01*
X534969Y308662D02*
X535048Y308739D01*
X535124Y308820D01*
X535197Y308903D01*
X535267Y308988D01*
X535334Y309076D01*
X535398Y309166D01*
X535458Y309258D01*
X535515Y309353D01*
X535569Y309449D01*
X535620Y309547D01*
X535667Y309647D01*
X535711Y309749D01*
X535751Y309852D01*
X535787Y309956D01*
X535819Y310062D01*
X535848Y310168D01*
X535873Y310276D01*
X535895Y310384D01*
X535912Y310494D01*
X535926Y310603D01*
X535935Y310713D01*
X535941Y310824D01*
X535943Y310934D01*
X534969Y308662D02*
X529452Y302171D01*
X535943Y302171D01*
X424369Y273594D02*
X421773Y273594D01*
X421674Y273596D01*
X421574Y273602D01*
X421475Y273611D01*
X421377Y273624D01*
X421279Y273641D01*
X421181Y273662D01*
X421085Y273687D01*
X420990Y273715D01*
X420896Y273747D01*
X420803Y273782D01*
X420711Y273821D01*
X420621Y273864D01*
X420533Y273909D01*
X420446Y273959D01*
X420362Y274011D01*
X420279Y274067D01*
X420199Y274125D01*
X420121Y274187D01*
X420046Y274252D01*
X419973Y274320D01*
X419903Y274390D01*
X419835Y274463D01*
X419770Y274538D01*
X419708Y274616D01*
X419650Y274696D01*
X419594Y274779D01*
X419542Y274863D01*
X419492Y274950D01*
X419447Y275038D01*
X419404Y275128D01*
X419365Y275220D01*
X419330Y275313D01*
X419298Y275407D01*
X419270Y275502D01*
X419245Y275598D01*
X419224Y275696D01*
X419207Y275794D01*
X419194Y275892D01*
X419185Y275991D01*
X419179Y276091D01*
X419177Y276190D01*
X419176Y276190D02*
X419176Y282681D01*
X419177Y282681D02*
X419179Y282780D01*
X419185Y282880D01*
X419194Y282979D01*
X419207Y283077D01*
X419224Y283175D01*
X419245Y283273D01*
X419270Y283369D01*
X419298Y283464D01*
X419330Y283558D01*
X419365Y283651D01*
X419404Y283743D01*
X419447Y283833D01*
X419492Y283921D01*
X419542Y284008D01*
X419594Y284092D01*
X419650Y284175D01*
X419708Y284255D01*
X419770Y284333D01*
X419835Y284408D01*
X419903Y284481D01*
X419973Y284551D01*
X420046Y284619D01*
X420121Y284684D01*
X420199Y284746D01*
X420279Y284804D01*
X420362Y284860D01*
X420446Y284912D01*
X420533Y284962D01*
X420621Y285007D01*
X420711Y285050D01*
X420803Y285089D01*
X420895Y285124D01*
X420990Y285156D01*
X421085Y285184D01*
X421181Y285209D01*
X421279Y285230D01*
X421377Y285247D01*
X421475Y285260D01*
X421574Y285269D01*
X421674Y285275D01*
X421773Y285277D01*
X421773Y285278D02*
X424369Y285278D01*
X428734Y282681D02*
X431980Y285278D01*
X431980Y273594D01*
X428734Y273594D02*
X435226Y273594D01*
X440164Y283979D02*
X440164Y285278D01*
X446656Y285278D01*
X443410Y273594D01*
X423800Y295097D02*
X421204Y295097D01*
X421204Y295098D02*
X421105Y295100D01*
X421005Y295106D01*
X420906Y295115D01*
X420808Y295128D01*
X420710Y295145D01*
X420612Y295166D01*
X420516Y295191D01*
X420421Y295219D01*
X420327Y295251D01*
X420234Y295286D01*
X420142Y295325D01*
X420052Y295368D01*
X419964Y295413D01*
X419877Y295463D01*
X419793Y295515D01*
X419710Y295571D01*
X419630Y295629D01*
X419552Y295691D01*
X419477Y295756D01*
X419404Y295824D01*
X419334Y295894D01*
X419266Y295967D01*
X419201Y296042D01*
X419139Y296120D01*
X419081Y296200D01*
X419025Y296283D01*
X418973Y296367D01*
X418923Y296454D01*
X418878Y296542D01*
X418835Y296632D01*
X418796Y296724D01*
X418761Y296817D01*
X418729Y296911D01*
X418701Y297006D01*
X418676Y297102D01*
X418655Y297200D01*
X418638Y297298D01*
X418625Y297396D01*
X418616Y297495D01*
X418610Y297595D01*
X418608Y297694D01*
X418607Y297694D02*
X418607Y304185D01*
X418608Y304185D02*
X418610Y304284D01*
X418616Y304384D01*
X418625Y304483D01*
X418638Y304581D01*
X418655Y304679D01*
X418676Y304777D01*
X418701Y304873D01*
X418729Y304968D01*
X418761Y305062D01*
X418796Y305155D01*
X418835Y305247D01*
X418878Y305337D01*
X418923Y305425D01*
X418973Y305512D01*
X419025Y305596D01*
X419081Y305679D01*
X419139Y305759D01*
X419201Y305837D01*
X419266Y305912D01*
X419334Y305985D01*
X419404Y306055D01*
X419477Y306123D01*
X419552Y306188D01*
X419630Y306250D01*
X419710Y306308D01*
X419793Y306364D01*
X419877Y306416D01*
X419964Y306466D01*
X420052Y306511D01*
X420142Y306554D01*
X420234Y306593D01*
X420326Y306628D01*
X420421Y306660D01*
X420516Y306688D01*
X420612Y306713D01*
X420710Y306734D01*
X420808Y306751D01*
X420906Y306764D01*
X421005Y306773D01*
X421105Y306779D01*
X421204Y306781D01*
X423800Y306781D01*
X428165Y304185D02*
X431411Y306781D01*
X431411Y295097D01*
X428165Y295097D02*
X434657Y295097D01*
X439595Y298343D02*
X439597Y298456D01*
X439603Y298569D01*
X439613Y298682D01*
X439627Y298795D01*
X439644Y298907D01*
X439666Y299018D01*
X439691Y299128D01*
X439721Y299238D01*
X439754Y299346D01*
X439791Y299453D01*
X439831Y299559D01*
X439876Y299663D01*
X439924Y299766D01*
X439975Y299867D01*
X440030Y299966D01*
X440088Y300063D01*
X440150Y300158D01*
X440215Y300251D01*
X440283Y300341D01*
X440354Y300429D01*
X440429Y300515D01*
X440506Y300598D01*
X440586Y300678D01*
X440669Y300755D01*
X440755Y300830D01*
X440843Y300901D01*
X440933Y300969D01*
X441026Y301034D01*
X441121Y301096D01*
X441218Y301154D01*
X441317Y301209D01*
X441418Y301260D01*
X441521Y301308D01*
X441625Y301353D01*
X441731Y301393D01*
X441838Y301430D01*
X441946Y301463D01*
X442056Y301493D01*
X442166Y301518D01*
X442277Y301540D01*
X442389Y301557D01*
X442502Y301571D01*
X442615Y301581D01*
X442728Y301587D01*
X442841Y301589D01*
X442954Y301587D01*
X443067Y301581D01*
X443180Y301571D01*
X443293Y301557D01*
X443405Y301540D01*
X443516Y301518D01*
X443626Y301493D01*
X443736Y301463D01*
X443844Y301430D01*
X443951Y301393D01*
X444057Y301353D01*
X444161Y301308D01*
X444264Y301260D01*
X444365Y301209D01*
X444464Y301154D01*
X444561Y301096D01*
X444656Y301034D01*
X444749Y300969D01*
X444839Y300901D01*
X444927Y300830D01*
X445013Y300755D01*
X445096Y300678D01*
X445176Y300598D01*
X445253Y300515D01*
X445328Y300429D01*
X445399Y300341D01*
X445467Y300251D01*
X445532Y300158D01*
X445594Y300063D01*
X445652Y299966D01*
X445707Y299867D01*
X445758Y299766D01*
X445806Y299663D01*
X445851Y299559D01*
X445891Y299453D01*
X445928Y299346D01*
X445961Y299238D01*
X445991Y299128D01*
X446016Y299018D01*
X446038Y298907D01*
X446055Y298795D01*
X446069Y298682D01*
X446079Y298569D01*
X446085Y298456D01*
X446087Y298343D01*
X446085Y298230D01*
X446079Y298117D01*
X446069Y298004D01*
X446055Y297891D01*
X446038Y297779D01*
X446016Y297668D01*
X445991Y297558D01*
X445961Y297448D01*
X445928Y297340D01*
X445891Y297233D01*
X445851Y297127D01*
X445806Y297023D01*
X445758Y296920D01*
X445707Y296819D01*
X445652Y296720D01*
X445594Y296623D01*
X445532Y296528D01*
X445467Y296435D01*
X445399Y296345D01*
X445328Y296257D01*
X445253Y296171D01*
X445176Y296088D01*
X445096Y296008D01*
X445013Y295931D01*
X444927Y295856D01*
X444839Y295785D01*
X444749Y295717D01*
X444656Y295652D01*
X444561Y295590D01*
X444464Y295532D01*
X444365Y295477D01*
X444264Y295426D01*
X444161Y295378D01*
X444057Y295333D01*
X443951Y295293D01*
X443844Y295256D01*
X443736Y295223D01*
X443626Y295193D01*
X443516Y295168D01*
X443405Y295146D01*
X443293Y295129D01*
X443180Y295115D01*
X443067Y295105D01*
X442954Y295099D01*
X442841Y295097D01*
X442728Y295099D01*
X442615Y295105D01*
X442502Y295115D01*
X442389Y295129D01*
X442277Y295146D01*
X442166Y295168D01*
X442056Y295193D01*
X441946Y295223D01*
X441838Y295256D01*
X441731Y295293D01*
X441625Y295333D01*
X441521Y295378D01*
X441418Y295426D01*
X441317Y295477D01*
X441218Y295532D01*
X441121Y295590D01*
X441026Y295652D01*
X440933Y295717D01*
X440843Y295785D01*
X440755Y295856D01*
X440669Y295931D01*
X440586Y296008D01*
X440506Y296088D01*
X440429Y296171D01*
X440354Y296257D01*
X440283Y296345D01*
X440215Y296435D01*
X440150Y296528D01*
X440088Y296623D01*
X440030Y296720D01*
X439975Y296819D01*
X439924Y296920D01*
X439876Y297023D01*
X439831Y297127D01*
X439791Y297233D01*
X439754Y297340D01*
X439721Y297448D01*
X439691Y297558D01*
X439666Y297668D01*
X439644Y297779D01*
X439627Y297891D01*
X439613Y298004D01*
X439603Y298117D01*
X439597Y298230D01*
X439595Y298343D01*
X440245Y304185D02*
X440247Y304286D01*
X440253Y304386D01*
X440263Y304486D01*
X440276Y304586D01*
X440294Y304685D01*
X440315Y304784D01*
X440340Y304881D01*
X440369Y304978D01*
X440402Y305073D01*
X440438Y305167D01*
X440478Y305259D01*
X440521Y305350D01*
X440568Y305439D01*
X440618Y305526D01*
X440672Y305612D01*
X440729Y305695D01*
X440789Y305775D01*
X440852Y305854D01*
X440919Y305930D01*
X440988Y306003D01*
X441060Y306073D01*
X441134Y306141D01*
X441211Y306206D01*
X441291Y306267D01*
X441373Y306326D01*
X441457Y306381D01*
X441543Y306433D01*
X441631Y306482D01*
X441721Y306527D01*
X441813Y306569D01*
X441906Y306607D01*
X442001Y306641D01*
X442096Y306672D01*
X442193Y306699D01*
X442291Y306722D01*
X442390Y306742D01*
X442490Y306757D01*
X442590Y306769D01*
X442690Y306777D01*
X442791Y306781D01*
X442891Y306781D01*
X442992Y306777D01*
X443092Y306769D01*
X443192Y306757D01*
X443292Y306742D01*
X443391Y306722D01*
X443489Y306699D01*
X443586Y306672D01*
X443681Y306641D01*
X443776Y306607D01*
X443869Y306569D01*
X443961Y306527D01*
X444051Y306482D01*
X444139Y306433D01*
X444225Y306381D01*
X444309Y306326D01*
X444391Y306267D01*
X444471Y306206D01*
X444548Y306141D01*
X444622Y306073D01*
X444694Y306003D01*
X444763Y305930D01*
X444830Y305854D01*
X444893Y305775D01*
X444953Y305695D01*
X445010Y305612D01*
X445064Y305526D01*
X445114Y305439D01*
X445161Y305350D01*
X445204Y305259D01*
X445244Y305167D01*
X445280Y305073D01*
X445313Y304978D01*
X445342Y304881D01*
X445367Y304784D01*
X445388Y304685D01*
X445406Y304586D01*
X445419Y304486D01*
X445429Y304386D01*
X445435Y304286D01*
X445437Y304185D01*
X445435Y304084D01*
X445429Y303984D01*
X445419Y303884D01*
X445406Y303784D01*
X445388Y303685D01*
X445367Y303586D01*
X445342Y303489D01*
X445313Y303392D01*
X445280Y303297D01*
X445244Y303203D01*
X445204Y303111D01*
X445161Y303020D01*
X445114Y302931D01*
X445064Y302844D01*
X445010Y302758D01*
X444953Y302675D01*
X444893Y302595D01*
X444830Y302516D01*
X444763Y302440D01*
X444694Y302367D01*
X444622Y302297D01*
X444548Y302229D01*
X444471Y302164D01*
X444391Y302103D01*
X444309Y302044D01*
X444225Y301989D01*
X444139Y301937D01*
X444051Y301888D01*
X443961Y301843D01*
X443869Y301801D01*
X443776Y301763D01*
X443681Y301729D01*
X443586Y301698D01*
X443489Y301671D01*
X443391Y301648D01*
X443292Y301628D01*
X443192Y301613D01*
X443092Y301601D01*
X442992Y301593D01*
X442891Y301589D01*
X442791Y301589D01*
X442690Y301593D01*
X442590Y301601D01*
X442490Y301613D01*
X442390Y301628D01*
X442291Y301648D01*
X442193Y301671D01*
X442096Y301698D01*
X442001Y301729D01*
X441906Y301763D01*
X441813Y301801D01*
X441721Y301843D01*
X441631Y301888D01*
X441543Y301937D01*
X441457Y301989D01*
X441373Y302044D01*
X441291Y302103D01*
X441211Y302164D01*
X441134Y302229D01*
X441060Y302297D01*
X440988Y302367D01*
X440919Y302440D01*
X440852Y302516D01*
X440789Y302595D01*
X440729Y302675D01*
X440672Y302758D01*
X440618Y302844D01*
X440568Y302931D01*
X440521Y303020D01*
X440478Y303111D01*
X440438Y303203D01*
X440402Y303297D01*
X440369Y303392D01*
X440340Y303489D01*
X440315Y303586D01*
X440294Y303685D01*
X440276Y303784D01*
X440263Y303884D01*
X440253Y303984D01*
X440247Y304084D01*
X440245Y304185D01*
X544340Y292484D02*
X546937Y292484D01*
X544340Y292484D02*
X544241Y292486D01*
X544141Y292492D01*
X544042Y292501D01*
X543944Y292514D01*
X543846Y292531D01*
X543748Y292552D01*
X543652Y292577D01*
X543557Y292605D01*
X543463Y292637D01*
X543370Y292672D01*
X543278Y292711D01*
X543188Y292754D01*
X543100Y292799D01*
X543013Y292849D01*
X542929Y292901D01*
X542846Y292957D01*
X542766Y293015D01*
X542688Y293077D01*
X542613Y293142D01*
X542540Y293210D01*
X542470Y293280D01*
X542402Y293353D01*
X542337Y293428D01*
X542275Y293506D01*
X542217Y293586D01*
X542161Y293669D01*
X542109Y293753D01*
X542059Y293840D01*
X542014Y293928D01*
X541971Y294018D01*
X541932Y294110D01*
X541897Y294203D01*
X541865Y294297D01*
X541837Y294392D01*
X541812Y294488D01*
X541791Y294586D01*
X541774Y294684D01*
X541761Y294782D01*
X541752Y294881D01*
X541746Y294981D01*
X541744Y295080D01*
X541744Y301571D01*
X541746Y301670D01*
X541752Y301770D01*
X541761Y301869D01*
X541774Y301967D01*
X541791Y302065D01*
X541812Y302163D01*
X541837Y302259D01*
X541865Y302354D01*
X541897Y302448D01*
X541932Y302541D01*
X541971Y302633D01*
X542014Y302723D01*
X542059Y302811D01*
X542109Y302898D01*
X542161Y302982D01*
X542217Y303065D01*
X542275Y303145D01*
X542337Y303223D01*
X542402Y303298D01*
X542470Y303371D01*
X542540Y303441D01*
X542613Y303509D01*
X542688Y303574D01*
X542766Y303636D01*
X542846Y303694D01*
X542929Y303750D01*
X543013Y303802D01*
X543100Y303852D01*
X543188Y303897D01*
X543278Y303940D01*
X543370Y303979D01*
X543462Y304014D01*
X543557Y304046D01*
X543652Y304074D01*
X543748Y304099D01*
X543846Y304120D01*
X543944Y304137D01*
X544042Y304150D01*
X544141Y304159D01*
X544241Y304165D01*
X544340Y304167D01*
X544340Y304168D02*
X546937Y304168D01*
X551302Y301571D02*
X554548Y304168D01*
X554548Y292484D01*
X557793Y292484D02*
X551302Y292484D01*
X565329Y297676D02*
X569223Y297676D01*
X565329Y297677D02*
X565230Y297679D01*
X565130Y297685D01*
X565031Y297694D01*
X564933Y297707D01*
X564835Y297724D01*
X564737Y297745D01*
X564641Y297770D01*
X564546Y297798D01*
X564452Y297830D01*
X564359Y297865D01*
X564267Y297904D01*
X564177Y297947D01*
X564089Y297992D01*
X564002Y298042D01*
X563918Y298094D01*
X563835Y298150D01*
X563755Y298208D01*
X563677Y298270D01*
X563602Y298335D01*
X563529Y298403D01*
X563459Y298473D01*
X563391Y298546D01*
X563326Y298621D01*
X563264Y298699D01*
X563206Y298779D01*
X563150Y298862D01*
X563098Y298946D01*
X563048Y299033D01*
X563003Y299121D01*
X562960Y299211D01*
X562921Y299303D01*
X562886Y299396D01*
X562854Y299490D01*
X562826Y299585D01*
X562801Y299681D01*
X562780Y299779D01*
X562763Y299877D01*
X562750Y299975D01*
X562741Y300074D01*
X562735Y300174D01*
X562733Y300273D01*
X562732Y300273D02*
X562732Y300922D01*
X562734Y301035D01*
X562740Y301148D01*
X562750Y301261D01*
X562764Y301374D01*
X562781Y301486D01*
X562803Y301597D01*
X562828Y301707D01*
X562858Y301817D01*
X562891Y301925D01*
X562928Y302032D01*
X562968Y302138D01*
X563013Y302242D01*
X563061Y302345D01*
X563112Y302446D01*
X563167Y302545D01*
X563225Y302642D01*
X563287Y302737D01*
X563352Y302830D01*
X563420Y302920D01*
X563491Y303008D01*
X563566Y303094D01*
X563643Y303177D01*
X563723Y303257D01*
X563806Y303334D01*
X563892Y303409D01*
X563980Y303480D01*
X564070Y303548D01*
X564163Y303613D01*
X564258Y303675D01*
X564355Y303733D01*
X564454Y303788D01*
X564555Y303839D01*
X564658Y303887D01*
X564762Y303932D01*
X564868Y303972D01*
X564975Y304009D01*
X565083Y304042D01*
X565193Y304072D01*
X565303Y304097D01*
X565414Y304119D01*
X565526Y304136D01*
X565639Y304150D01*
X565752Y304160D01*
X565865Y304166D01*
X565978Y304168D01*
X566091Y304166D01*
X566204Y304160D01*
X566317Y304150D01*
X566430Y304136D01*
X566542Y304119D01*
X566653Y304097D01*
X566763Y304072D01*
X566873Y304042D01*
X566981Y304009D01*
X567088Y303972D01*
X567194Y303932D01*
X567298Y303887D01*
X567401Y303839D01*
X567502Y303788D01*
X567601Y303733D01*
X567698Y303675D01*
X567793Y303613D01*
X567886Y303548D01*
X567976Y303480D01*
X568064Y303409D01*
X568150Y303334D01*
X568233Y303257D01*
X568313Y303177D01*
X568390Y303094D01*
X568465Y303008D01*
X568536Y302920D01*
X568604Y302830D01*
X568669Y302737D01*
X568731Y302642D01*
X568789Y302545D01*
X568844Y302446D01*
X568895Y302345D01*
X568943Y302242D01*
X568988Y302138D01*
X569028Y302032D01*
X569065Y301925D01*
X569098Y301817D01*
X569128Y301707D01*
X569153Y301597D01*
X569175Y301486D01*
X569192Y301374D01*
X569206Y301261D01*
X569216Y301148D01*
X569222Y301035D01*
X569224Y300922D01*
X569223Y300922D02*
X569223Y297676D01*
X569221Y297533D01*
X569215Y297390D01*
X569205Y297247D01*
X569191Y297105D01*
X569174Y296963D01*
X569152Y296821D01*
X569127Y296680D01*
X569097Y296540D01*
X569064Y296401D01*
X569027Y296263D01*
X568986Y296126D01*
X568942Y295990D01*
X568893Y295855D01*
X568841Y295722D01*
X568786Y295590D01*
X568726Y295460D01*
X568663Y295331D01*
X568597Y295204D01*
X568527Y295079D01*
X568454Y294957D01*
X568377Y294836D01*
X568297Y294717D01*
X568214Y294601D01*
X568128Y294486D01*
X568039Y294375D01*
X567946Y294265D01*
X567851Y294159D01*
X567752Y294055D01*
X567651Y293954D01*
X567547Y293855D01*
X567441Y293760D01*
X567331Y293667D01*
X567220Y293578D01*
X567105Y293492D01*
X566989Y293409D01*
X566870Y293329D01*
X566749Y293252D01*
X566627Y293179D01*
X566502Y293109D01*
X566375Y293043D01*
X566246Y292980D01*
X566116Y292920D01*
X565984Y292865D01*
X565851Y292813D01*
X565716Y292764D01*
X565580Y292720D01*
X565443Y292679D01*
X565305Y292642D01*
X565166Y292609D01*
X565026Y292579D01*
X564885Y292554D01*
X564743Y292532D01*
X564601Y292515D01*
X564459Y292501D01*
X564316Y292491D01*
X564173Y292485D01*
X564030Y292483D01*
M02*
