%TF.GenerationSoftware,Altium Limited,Altium Designer,20.2.5 (213)*%
G04 Layer_Color=16711935*
%FSLAX26Y26*%
%MOIN*%
%TF.SameCoordinates,0FE6C2C3-B7F4-45EC-A48D-0F423D7CACB9*%
%TF.FilePolarity,Positive*%
%TF.FileFunction,Other,Mechanical_13*%
%TF.Part,Single*%
G01*
G75*
%TA.AperFunction,NonConductor*%
%ADD38C,0.005000*%
%ADD39C,0.003937*%
%ADD40C,0.003000*%
%ADD50C,0.011811*%
%ADD51C,0.007874*%
%ADD68C,0.000000*%
%ADD69C,0.001000*%
D38*
X1773354Y1881898D02*
X1842646D01*
X1773354Y1844102D02*
X1842646D01*
Y1881898D01*
X1773354Y1844102D02*
Y1881898D01*
X1808898Y1552354D02*
Y1621646D01*
X1771102Y1552354D02*
Y1621646D01*
X1808898D01*
X1771102Y1552354D02*
X1808898D01*
X2577362Y1747126D02*
Y1983346D01*
X2787992D01*
Y1747126D02*
Y1983346D01*
X2577362Y1747126D02*
X2787992D01*
X2681110Y2038102D02*
Y2175898D01*
X2444890D02*
X2681110D01*
X2444890Y2038102D02*
Y2175898D01*
Y2038102D02*
X2681110D01*
X2386563Y1661797D02*
Y2055497D01*
X1992863Y1661797D02*
X2386563D01*
X1992863D02*
Y2055497D01*
X2386563D01*
X1423700Y1623780D02*
Y2096220D01*
X835118Y1623780D02*
X1423700D01*
X835118D02*
Y2096220D01*
X1423700D01*
Y2261574D01*
Y1623780D02*
Y2096220D01*
Y1458426D02*
Y1623780D01*
Y2096220D02*
X1569370D01*
Y1623780D02*
Y2096220D01*
X1423700Y1623780D02*
X1569370D01*
D39*
X1863810Y2091346D02*
Y2134654D01*
X1840188Y2091346D02*
Y2134654D01*
X1863810D01*
X1840188Y2091346D02*
X1863810D01*
X2439322Y1557882D02*
Y1668118D01*
Y1557882D02*
X2604678D01*
Y1668118D01*
X2439322D02*
X2604678D01*
X1736142Y1729370D02*
Y1937086D01*
X1943858D01*
Y1729370D02*
Y1937086D01*
X1736142Y1729370D02*
X1943858D01*
X1736142Y1779370D02*
X1786142Y1729370D01*
D40*
X2583219Y1877633D02*
X2549897Y1910956D01*
Y1877633D02*
X2583219Y1910956D01*
X2566558Y1877633D02*
Y1910956D01*
X2549897Y1894294D02*
X2583219D01*
X2628339Y1658295D02*
X2595016Y1691618D01*
Y1658295D02*
X2628339Y1691618D01*
X2611677Y1658295D02*
Y1691618D01*
X2595016Y1674957D02*
X2628339D01*
D50*
X2524213Y1806181D02*
G03*
X2524213Y1806181I-3937J0D01*
G01*
D51*
X2716937Y2107000D02*
G03*
X2716937Y2107000I-3937J0D01*
G01*
X2362942Y2080104D02*
G03*
X2362942Y2080104I-3937J0D01*
G01*
X1702992Y1722244D02*
G03*
X1702992Y1722244I-3937J0D01*
G01*
D68*
X2638623Y1706260D02*
G03*
X2638623Y1682260I0J-12000D01*
G01*
X1855039Y1729441D02*
G03*
X1855039Y1729441I-5000J0D01*
G01*
D69*
X2536252Y1872416D02*
X2586252Y1922416D01*
Y1955094D02*
Y1966904D01*
Y1955094D02*
Y1966904D01*
Y1935408D02*
Y1947220D01*
Y1935408D02*
Y1947220D01*
Y1915724D02*
Y1927534D01*
Y1915724D02*
Y1927534D01*
Y1896038D02*
Y1907850D01*
Y1896038D02*
Y1907850D01*
X2550818Y1872416D02*
X2562630D01*
X2550818D02*
X2562630D01*
X2531132D02*
X2542944D01*
X2531132D02*
X2542944D01*
X2511448D02*
X2523258D01*
X2511448D02*
X2523258D01*
X2491762D02*
X2503574D01*
X2491762D02*
X2503574D01*
X2468140Y1896038D02*
Y1907850D01*
Y1896038D02*
Y1907850D01*
Y1915724D02*
Y1927534D01*
Y1915724D02*
Y1927534D01*
Y1935408D02*
Y1947220D01*
Y1935408D02*
Y1947220D01*
Y1955094D02*
Y1966904D01*
Y1955094D02*
Y1966904D01*
X2491762Y1990526D02*
X2503574D01*
X2491762D02*
X2503574D01*
X2511448D02*
X2523258D01*
X2511448D02*
X2523258D01*
X2531132D02*
X2542944D01*
X2531132D02*
X2542944D01*
X2550818D02*
X2562630D01*
X2550818D02*
X2562630D01*
X2468140Y1872416D02*
Y1990526D01*
X2586252D01*
Y1872416D02*
Y1990526D01*
X2468140Y1872416D02*
X2586252D01*
X2516576Y1660796D02*
X2638622D01*
Y1727724D01*
X2516576D02*
X2638622D01*
X2516576Y1660796D02*
Y1727724D01*
X2624844D02*
Y1753314D01*
X2605158D02*
X2624844D01*
X2605158Y1727724D02*
Y1753314D01*
Y1727724D02*
X2624844D01*
X2550040D02*
Y1753314D01*
X2530354D02*
X2550040D01*
X2530354Y1727724D02*
Y1753314D01*
Y1727724D02*
X2550040D01*
X2530354Y1635204D02*
Y1660796D01*
Y1635204D02*
X2550040D01*
Y1660796D01*
X2530354D02*
X2550040D01*
X2567756Y1635204D02*
Y1660796D01*
Y1635204D02*
X2587442D01*
Y1660796D01*
X2567756D02*
X2587442D01*
X2605158Y1635204D02*
Y1660796D01*
Y1635204D02*
X2624844D01*
Y1660796D01*
X2605158D02*
X2624844D01*
X1854500Y1606000D02*
Y1644000D01*
X1785500D02*
X1854500D01*
X1785500Y1606000D02*
Y1644000D01*
Y1606000D02*
X1854500D01*
X1785500Y1644000D02*
X1805500D01*
X1785500Y1606000D02*
Y1644000D01*
Y1606000D02*
X1805500D01*
Y1644000D01*
X1834500Y1606000D02*
X1854500D01*
Y1644000D01*
X1834500D02*
X1854500D01*
X1834500Y1606000D02*
Y1644000D01*
X1860040Y1719442D02*
Y1774560D01*
X1739960D02*
X1860040D01*
X1739960Y1719442D02*
Y1774560D01*
Y1719442D02*
X1860040D01*
X1810040Y1774560D02*
Y1796214D01*
X1789960D02*
X1810040D01*
X1789960Y1774560D02*
Y1796214D01*
Y1774560D02*
X1810040D01*
X1749606Y1697788D02*
Y1719442D01*
Y1697788D02*
X1769686D01*
Y1719442D01*
X1749606D02*
X1769686D01*
X1830316Y1697788D02*
Y1719442D01*
Y1697788D02*
X1850394D01*
Y1719442D01*
X1830316D02*
X1850394D01*
%TF.MD5,34ded9b9821adc76de331403c77e3dbb*%
M02*
