%TF.GenerationSoftware,Altium Limited,Altium Designer,20.2.5 (213)*%
G04 Layer_Color=0*
%FSLAX26Y26*%
%MOIN*%
%TF.SameCoordinates,0FE6C2C3-B7F4-45EC-A48D-0F423D7CACB9*%
%TF.FilePolarity,Positive*%
%TF.FileFunction,Plated,1,4,PTH,Drill*%
%TF.Part,Single*%
G01*
G75*
%TA.AperFunction,OtherDrill,Pad Free-3 (2733mil,1600mil)*%
%ADD73C,0.098425*%
%TA.AperFunction,OtherDrill,Pad Free-2 (1741mil,2127mil)*%
%ADD74C,0.098425*%
%TA.AperFunction,ComponentDrill*%
%ADD75O,0.098425X0.039370*%
%TA.AperFunction,ViaDrill,NotFilled*%
%ADD76C,0.008000*%
%ADD77C,0.015000*%
D73*
X2733000Y1600000D02*
D03*
D74*
X1741000Y2127000D02*
D03*
D75*
X1530000Y2084410D02*
D03*
Y1635590D02*
D03*
D76*
X2061759Y1884237D02*
D03*
Y1859066D02*
D03*
X2213590Y1888317D02*
D03*
X2215305Y1859066D02*
D03*
X2164121Y1884237D02*
D03*
X2189074Y1886381D02*
D03*
X2292077Y1756283D02*
D03*
X2240895D02*
D03*
X2266485D02*
D03*
X2215305D02*
D03*
X2317667D02*
D03*
X2164121Y1833055D02*
D03*
X2215305Y1909829D02*
D03*
X2317667Y1781875D02*
D03*
X2343257D02*
D03*
X2368847D02*
D03*
X2343257Y1756283D02*
D03*
X2164448Y1935745D02*
D03*
X2163039Y1908747D02*
D03*
X2215305Y1935419D02*
D03*
X2138531Y1884237D02*
D03*
Y1935419D02*
D03*
Y1909829D02*
D03*
X2164121Y1730693D02*
D03*
Y1705103D02*
D03*
X2061759Y1833055D02*
D03*
X2087351D02*
D03*
X2368847Y1884237D02*
D03*
X2373911Y1859066D02*
D03*
X2385775Y1769079D02*
D03*
X2266531Y1679557D02*
D03*
X2254332Y1663349D02*
D03*
X1994726Y1858549D02*
D03*
Y1878636D02*
D03*
X2112941Y1961009D02*
D03*
X2010579Y1833055D02*
D03*
X2100147Y1654071D02*
D03*
X2215305Y1807465D02*
D03*
X2010579Y1730693D02*
D03*
X2393657Y1676895D02*
D03*
X2036169Y2085957D02*
D03*
X1994726Y1921532D02*
D03*
X1985391Y1948838D02*
D03*
X2010579Y1935419D02*
D03*
X2240895Y1909829D02*
D03*
X2112941Y1807465D02*
D03*
X2279281Y2084410D02*
D03*
X2292077Y2037781D02*
D03*
X2395885D02*
D03*
X2215305Y1833055D02*
D03*
X2164121Y1807465D02*
D03*
X2138531Y1833055D02*
D03*
Y1807465D02*
D03*
X2240895D02*
D03*
X2164121Y1781875D02*
D03*
X2215305D02*
D03*
X2112941Y1833055D02*
D03*
X2266485D02*
D03*
X2112941Y1884237D02*
D03*
X2266485D02*
D03*
X2138531Y1781875D02*
D03*
X2240895D02*
D03*
X2266485Y1807465D02*
D03*
X2112941Y1909829D02*
D03*
X2266485D02*
D03*
X2240895Y1935419D02*
D03*
X2112941Y1781875D02*
D03*
X2266485D02*
D03*
X2087351Y1884237D02*
D03*
X2164121Y1756283D02*
D03*
X2112941Y1935419D02*
D03*
X2266485D02*
D03*
X2164121Y1961009D02*
D03*
X2215305D02*
D03*
X2292077Y1833055D02*
D03*
Y1884237D02*
D03*
X2087351Y1807465D02*
D03*
Y1909829D02*
D03*
X2138531Y1756283D02*
D03*
Y1961009D02*
D03*
X2240895D02*
D03*
X2292077Y1807465D02*
D03*
Y1909829D02*
D03*
X2087351Y1781875D02*
D03*
Y1935419D02*
D03*
X2112941Y1756283D02*
D03*
X2266485Y1961009D02*
D03*
X2292077Y1781875D02*
D03*
Y1935419D02*
D03*
X2215305Y1730693D02*
D03*
X2317667Y1833055D02*
D03*
Y1884237D02*
D03*
X2164121Y1986601D02*
D03*
X2215305D02*
D03*
X2138531Y1730693D02*
D03*
X2240895D02*
D03*
X2061759Y1807465D02*
D03*
X2317667D02*
D03*
X2061759Y1909829D02*
D03*
X2317667D02*
D03*
X2138531Y1986601D02*
D03*
X2240895D02*
D03*
X2087351Y1756283D02*
D03*
Y1961009D02*
D03*
X2292077D02*
D03*
X2112941Y1730693D02*
D03*
X2266485D02*
D03*
X2061759Y1781875D02*
D03*
Y1935419D02*
D03*
X2317667D02*
D03*
X2112941Y1986601D02*
D03*
X2266485D02*
D03*
X2215305Y1705103D02*
D03*
X2036169Y1833055D02*
D03*
X2343257D02*
D03*
X2036169Y1884237D02*
D03*
X2343257D02*
D03*
X2164121Y2012191D02*
D03*
X2215305D02*
D03*
X2138531Y1705103D02*
D03*
X2240895D02*
D03*
X2087351Y1730693D02*
D03*
X2036169Y1807465D02*
D03*
X2343257D02*
D03*
X2292077Y1730693D02*
D03*
X2036169Y1909829D02*
D03*
X2343257D02*
D03*
X2061759Y1756283D02*
D03*
Y1961009D02*
D03*
X2317667D02*
D03*
X2087351Y1986601D02*
D03*
X2138531Y2012191D02*
D03*
X2240895D02*
D03*
X2292077Y1986601D02*
D03*
X2112941Y1705103D02*
D03*
X2266485D02*
D03*
X2036169Y1781875D02*
D03*
Y1935419D02*
D03*
X2343257D02*
D03*
X2112941Y2012191D02*
D03*
X2266485D02*
D03*
X2061759Y1730693D02*
D03*
X2317667D02*
D03*
X2061759Y1986601D02*
D03*
X2317667D02*
D03*
X2087351Y1705103D02*
D03*
X2368847Y1833055D02*
D03*
X2010579Y1884237D02*
D03*
X2292077Y1705103D02*
D03*
X2036169Y1756283D02*
D03*
Y1961009D02*
D03*
X2343257D02*
D03*
X2087351Y2012191D02*
D03*
X2164121Y1679511D02*
D03*
X2215305D02*
D03*
X2164121Y2037781D02*
D03*
X2215305D02*
D03*
X2292077Y2012191D02*
D03*
X2010579Y1807465D02*
D03*
X2368847D02*
D03*
X2010579Y1909829D02*
D03*
X2368847D02*
D03*
X2138531Y1679511D02*
D03*
X2240895D02*
D03*
X2138531Y2037781D02*
D03*
X2240895D02*
D03*
X2010579Y1781875D02*
D03*
X2368847Y1935419D02*
D03*
X2112941Y1679511D02*
D03*
Y2037781D02*
D03*
X2266485D02*
D03*
X2061759Y1705103D02*
D03*
X2317667D02*
D03*
X2036169Y1730693D02*
D03*
X2343257D02*
D03*
X2036169Y1986601D02*
D03*
X2343257D02*
D03*
X2061759Y2012191D02*
D03*
X2317667D02*
D03*
X2010579Y1756283D02*
D03*
X2368847D02*
D03*
X2010579Y1961009D02*
D03*
X2368847D02*
D03*
X2087351Y1679511D02*
D03*
Y2037781D02*
D03*
X2292077Y1679511D02*
D03*
X2036169Y1705103D02*
D03*
X2343257D02*
D03*
X2036169Y2012191D02*
D03*
X2343257D02*
D03*
X2368847Y1730693D02*
D03*
X2010579Y1986601D02*
D03*
X2368847D02*
D03*
X2061759Y1679511D02*
D03*
X2317667D02*
D03*
X2061759Y2037781D02*
D03*
X2317667D02*
D03*
X2010579Y1705103D02*
D03*
X2368847D02*
D03*
X2010579Y2012191D02*
D03*
X2368847D02*
D03*
X2036169Y1679511D02*
D03*
X2343257D02*
D03*
Y2037781D02*
D03*
X2010579D02*
D03*
D77*
X2686916Y1849163D02*
D03*
X2644514Y1863944D02*
D03*
X2724945Y1884922D02*
D03*
X2227000Y2111000D02*
D03*
X2454293Y1853050D02*
D03*
X2441292Y1878636D02*
D03*
X2404293Y1825790D02*
D03*
X2648486Y1908525D02*
D03*
X2476762Y1874184D02*
D03*
X2454293Y1815050D02*
D03*
X2500248Y1764825D02*
D03*
Y1725188D02*
D03*
X2675284Y1546700D02*
D03*
X2370610Y1596810D02*
D03*
X2343716Y1575214D02*
D03*
X2368014Y1635590D02*
D03*
X2492378Y1649303D02*
D03*
X2409038Y1725188D02*
D03*
Y1695816D02*
D03*
X1995434Y1600000D02*
D03*
X2416980Y1956060D02*
D03*
X2417710Y1918060D02*
D03*
X2724945Y1679511D02*
D03*
X2628383Y1688161D02*
D03*
X2567783Y1764825D02*
D03*
X2096720Y1612064D02*
D03*
X2648486Y1947575D02*
D03*
X2602708Y1692307D02*
D03*
X2575388Y2019284D02*
D03*
X2523447Y2027644D02*
D03*
X1570496Y1869684D02*
D03*
X1760000Y1768601D02*
D03*
X1840875Y1804789D02*
D03*
X1912135Y1774521D02*
D03*
X1915802Y1805058D02*
D03*
X1947253Y1793616D02*
D03*
X1629209Y2176889D02*
D03*
X1948155Y2156034D02*
D03*
X2368847Y2164478D02*
D03*
X1911644Y1831751D02*
D03*
X2608459Y2170195D02*
D03*
X2112941Y2161177D02*
D03*
X1798575Y2161653D02*
D03*
X2666383Y1695816D02*
D03*
X2710581Y2070070D02*
D03*
X2576178Y2058576D02*
D03*
X2409038Y2118883D02*
D03*
X2627459Y2019673D02*
D03*
X1668732Y1958174D02*
D03*
X1728572Y1608425D02*
D03*
X1948155Y1676895D02*
D03*
X1789579Y1908525D02*
D03*
X1840875Y1919479D02*
D03*
X1932693Y1850753D02*
D03*
X2655787Y1586019D02*
D03*
X1716137Y1692307D02*
D03*
X1736700Y2037787D02*
D03*
X1892750Y1919479D02*
D03*
X1760000Y1807465D02*
D03*
X1706814Y1719707D02*
D03*
X1830745Y1758039D02*
D03*
X1682801Y1598189D02*
D03*
X1969501Y2111000D02*
D03*
X1921000Y1750079D02*
D03*
X1864425Y2049060D02*
D03*
X1882106Y2029254D02*
D03*
X1966253Y2059998D02*
D03*
Y1987580D02*
D03*
X2637915Y1804149D02*
D03*
X2772070Y1845851D02*
D03*
X1682801Y1669161D02*
D03*
X2540198Y1712724D02*
D03*
X2673608Y1920000D02*
D03*
%TF.MD5,e87b7be2c5270eb133ebc36a0a5fe912*%
M02*
