%TF.GenerationSoftware,Altium Limited,Altium Designer,20.2.5 (213)*%
G04 Layer_Color=8388736*
%FSLAX26Y26*%
%MOIN*%
%TF.SameCoordinates,0FE6C2C3-B7F4-45EC-A48D-0F423D7CACB9*%
%TF.FilePolarity,Negative*%
%TF.FileFunction,Soldermask,Top*%
%TF.Part,Single*%
G01*
G75*
%TA.AperFunction,SMDPad,CuDef*%
%ADD41R,0.039500X0.039500*%
%ADD42R,0.039500X0.039500*%
%TA.AperFunction,ViaPad*%
%ADD45C,0.068000*%
%TA.AperFunction,ComponentPad*%
%ADD46C,0.051307*%
%ADD47O,0.133984X0.070992*%
%TA.AperFunction,ViaPad*%
%ADD48C,0.018000*%
%ADD49C,0.028000*%
%TA.AperFunction,SMDPad,CuDef*%
%ADD52R,0.046189X0.047370*%
%ADD53R,0.027685X0.031622*%
%ADD54R,0.067055X0.031622*%
%ADD55R,0.078866X0.055244*%
%ADD56R,0.043433X0.047370*%
%ADD57R,0.082803X0.102488*%
%ADD58R,0.035559X0.072961*%
%ADD59R,0.070990X0.078980*%
%TA.AperFunction,BGAPad,CuDef*%
%ADD60C,0.017449*%
%TA.AperFunction,ConnectorPad*%
%ADD61R,0.086740X0.055244*%
D41*
X1940000Y1619000D02*
D03*
Y1559000D02*
D03*
X1910000Y2130000D02*
D03*
Y2070000D02*
D03*
X2449000Y1714000D02*
D03*
Y1774000D02*
D03*
X2760000Y2145000D02*
D03*
Y2085000D02*
D03*
X2452000Y1919000D02*
D03*
Y1979000D02*
D03*
D42*
X2323000Y2143000D02*
D03*
X2263000D02*
D03*
X2310000Y1600000D02*
D03*
X2250000D02*
D03*
D45*
X2733000D02*
D03*
X1741000Y2127000D02*
D03*
D46*
X1530000Y1948582D02*
D03*
Y1771418D02*
D03*
D47*
Y2084410D02*
D03*
Y1635590D02*
D03*
D48*
X2061759Y1884237D02*
D03*
Y1859066D02*
D03*
X2213590Y1888317D02*
D03*
X2215305Y1859066D02*
D03*
X2164121Y1884237D02*
D03*
X2189074Y1886381D02*
D03*
X2292077Y1756283D02*
D03*
X2240895D02*
D03*
X2266485D02*
D03*
X2215305D02*
D03*
X2317667D02*
D03*
X2164121Y1833055D02*
D03*
X2215305Y1909829D02*
D03*
X2317667Y1781875D02*
D03*
X2343257D02*
D03*
X2368847D02*
D03*
X2343257Y1756283D02*
D03*
X2164448Y1935745D02*
D03*
X2163039Y1908747D02*
D03*
X2215305Y1935419D02*
D03*
X2138531Y1884237D02*
D03*
Y1935419D02*
D03*
Y1909829D02*
D03*
X2164121Y1730693D02*
D03*
Y1705103D02*
D03*
X2061759Y1833055D02*
D03*
X2087351D02*
D03*
X2368847Y1884237D02*
D03*
X2373911Y1859066D02*
D03*
X2385775Y1769079D02*
D03*
X2266531Y1679557D02*
D03*
X2254332Y1663349D02*
D03*
X1994726Y1858549D02*
D03*
Y1878636D02*
D03*
X2112941Y1961009D02*
D03*
X2010579Y1833055D02*
D03*
X2100147Y1654071D02*
D03*
X2215305Y1807465D02*
D03*
X2010579Y1730693D02*
D03*
X2393657Y1676895D02*
D03*
X2036169Y2085957D02*
D03*
X1994726Y1921532D02*
D03*
X1985391Y1948838D02*
D03*
X2010579Y1935419D02*
D03*
X2240895Y1909829D02*
D03*
X2112941Y1807465D02*
D03*
X2279281Y2084410D02*
D03*
X2292077Y2037781D02*
D03*
X2395885D02*
D03*
X2215305Y1833055D02*
D03*
X2164121Y1807465D02*
D03*
X2138531Y1833055D02*
D03*
Y1807465D02*
D03*
X2240895D02*
D03*
X2164121Y1781875D02*
D03*
X2215305D02*
D03*
X2112941Y1833055D02*
D03*
X2266485D02*
D03*
X2112941Y1884237D02*
D03*
X2266485D02*
D03*
X2138531Y1781875D02*
D03*
X2240895D02*
D03*
X2266485Y1807465D02*
D03*
X2112941Y1909829D02*
D03*
X2266485D02*
D03*
X2240895Y1935419D02*
D03*
X2112941Y1781875D02*
D03*
X2266485D02*
D03*
X2087351Y1884237D02*
D03*
X2164121Y1756283D02*
D03*
X2112941Y1935419D02*
D03*
X2266485D02*
D03*
X2164121Y1961009D02*
D03*
X2215305D02*
D03*
X2292077Y1833055D02*
D03*
Y1884237D02*
D03*
X2087351Y1807465D02*
D03*
Y1909829D02*
D03*
X2138531Y1756283D02*
D03*
Y1961009D02*
D03*
X2240895D02*
D03*
X2292077Y1807465D02*
D03*
Y1909829D02*
D03*
X2087351Y1781875D02*
D03*
Y1935419D02*
D03*
X2112941Y1756283D02*
D03*
X2266485Y1961009D02*
D03*
X2292077Y1781875D02*
D03*
Y1935419D02*
D03*
X2215305Y1730693D02*
D03*
X2317667Y1833055D02*
D03*
Y1884237D02*
D03*
X2164121Y1986601D02*
D03*
X2215305D02*
D03*
X2138531Y1730693D02*
D03*
X2240895D02*
D03*
X2061759Y1807465D02*
D03*
X2317667D02*
D03*
X2061759Y1909829D02*
D03*
X2317667D02*
D03*
X2138531Y1986601D02*
D03*
X2240895D02*
D03*
X2087351Y1756283D02*
D03*
Y1961009D02*
D03*
X2292077D02*
D03*
X2112941Y1730693D02*
D03*
X2266485D02*
D03*
X2061759Y1781875D02*
D03*
Y1935419D02*
D03*
X2317667D02*
D03*
X2112941Y1986601D02*
D03*
X2266485D02*
D03*
X2215305Y1705103D02*
D03*
X2036169Y1833055D02*
D03*
X2343257D02*
D03*
X2036169Y1884237D02*
D03*
X2343257D02*
D03*
X2164121Y2012191D02*
D03*
X2215305D02*
D03*
X2138531Y1705103D02*
D03*
X2240895D02*
D03*
X2087351Y1730693D02*
D03*
X2036169Y1807465D02*
D03*
X2343257D02*
D03*
X2292077Y1730693D02*
D03*
X2036169Y1909829D02*
D03*
X2343257D02*
D03*
X2061759Y1756283D02*
D03*
Y1961009D02*
D03*
X2317667D02*
D03*
X2087351Y1986601D02*
D03*
X2138531Y2012191D02*
D03*
X2240895D02*
D03*
X2292077Y1986601D02*
D03*
X2112941Y1705103D02*
D03*
X2266485D02*
D03*
X2036169Y1781875D02*
D03*
Y1935419D02*
D03*
X2343257D02*
D03*
X2112941Y2012191D02*
D03*
X2266485D02*
D03*
X2061759Y1730693D02*
D03*
X2317667D02*
D03*
X2061759Y1986601D02*
D03*
X2317667D02*
D03*
X2087351Y1705103D02*
D03*
X2368847Y1833055D02*
D03*
X2010579Y1884237D02*
D03*
X2292077Y1705103D02*
D03*
X2036169Y1756283D02*
D03*
Y1961009D02*
D03*
X2343257D02*
D03*
X2087351Y2012191D02*
D03*
X2164121Y1679511D02*
D03*
X2215305D02*
D03*
X2164121Y2037781D02*
D03*
X2215305D02*
D03*
X2292077Y2012191D02*
D03*
X2010579Y1807465D02*
D03*
X2368847D02*
D03*
X2010579Y1909829D02*
D03*
X2368847D02*
D03*
X2138531Y1679511D02*
D03*
X2240895D02*
D03*
X2138531Y2037781D02*
D03*
X2240895D02*
D03*
X2010579Y1781875D02*
D03*
X2368847Y1935419D02*
D03*
X2112941Y1679511D02*
D03*
Y2037781D02*
D03*
X2266485D02*
D03*
X2061759Y1705103D02*
D03*
X2317667D02*
D03*
X2036169Y1730693D02*
D03*
X2343257D02*
D03*
X2036169Y1986601D02*
D03*
X2343257D02*
D03*
X2061759Y2012191D02*
D03*
X2317667D02*
D03*
X2010579Y1756283D02*
D03*
X2368847D02*
D03*
X2010579Y1961009D02*
D03*
X2368847D02*
D03*
X2087351Y1679511D02*
D03*
Y2037781D02*
D03*
X2292077Y1679511D02*
D03*
X2036169Y1705103D02*
D03*
X2343257D02*
D03*
X2036169Y2012191D02*
D03*
X2343257D02*
D03*
X2368847Y1730693D02*
D03*
X2010579Y1986601D02*
D03*
X2368847D02*
D03*
X2061759Y1679511D02*
D03*
X2317667D02*
D03*
X2061759Y2037781D02*
D03*
X2317667D02*
D03*
X2010579Y1705103D02*
D03*
X2368847D02*
D03*
X2010579Y2012191D02*
D03*
X2368847D02*
D03*
X2036169Y1679511D02*
D03*
X2343257D02*
D03*
Y2037781D02*
D03*
X2010579D02*
D03*
D49*
X2686916Y1849163D02*
D03*
X2644514Y1863944D02*
D03*
X2724945Y1884922D02*
D03*
X2227000Y2111000D02*
D03*
X2454293Y1853050D02*
D03*
X2441292Y1878636D02*
D03*
X2404293Y1825790D02*
D03*
X2648486Y1908525D02*
D03*
X2476762Y1874184D02*
D03*
X2454293Y1815050D02*
D03*
X2500248Y1764825D02*
D03*
Y1725188D02*
D03*
X2675284Y1546700D02*
D03*
X2370610Y1596810D02*
D03*
X2343716Y1575214D02*
D03*
X2368014Y1635590D02*
D03*
X2492378Y1649303D02*
D03*
X2409038Y1725188D02*
D03*
Y1695816D02*
D03*
X1995434Y1600000D02*
D03*
X2416980Y1956060D02*
D03*
X2417710Y1918060D02*
D03*
X2724945Y1679511D02*
D03*
X2628383Y1688161D02*
D03*
X2567783Y1764825D02*
D03*
X2096720Y1612064D02*
D03*
X2648486Y1947575D02*
D03*
X2602708Y1692307D02*
D03*
X2575388Y2019284D02*
D03*
X2523447Y2027644D02*
D03*
X1570496Y1869684D02*
D03*
X1760000Y1768601D02*
D03*
X1840875Y1804789D02*
D03*
X1912135Y1774521D02*
D03*
X1915802Y1805058D02*
D03*
X1947253Y1793616D02*
D03*
X1629209Y2176889D02*
D03*
X1948155Y2156034D02*
D03*
X2368847Y2164478D02*
D03*
X1911644Y1831751D02*
D03*
X2608459Y2170195D02*
D03*
X2112941Y2161177D02*
D03*
X1798575Y2161653D02*
D03*
X2666383Y1695816D02*
D03*
X2710581Y2070070D02*
D03*
X2576178Y2058576D02*
D03*
X2409038Y2118883D02*
D03*
X2627459Y2019673D02*
D03*
X1668732Y1958174D02*
D03*
X1728572Y1608425D02*
D03*
X1948155Y1676895D02*
D03*
X1789579Y1908525D02*
D03*
X1840875Y1919479D02*
D03*
X1932693Y1850753D02*
D03*
X2655787Y1586019D02*
D03*
X1716137Y1692307D02*
D03*
X1736700Y2037787D02*
D03*
X1892750Y1919479D02*
D03*
X1760000Y1807465D02*
D03*
X1706814Y1719707D02*
D03*
X1830745Y1758039D02*
D03*
X1682801Y1598189D02*
D03*
X1969501Y2111000D02*
D03*
X1921000Y1750079D02*
D03*
X1864425Y2049060D02*
D03*
X1882106Y2029254D02*
D03*
X1966253Y2059998D02*
D03*
Y1987580D02*
D03*
X2637915Y1804149D02*
D03*
X2772070Y1845851D02*
D03*
X1682801Y1669161D02*
D03*
X2540198Y1712724D02*
D03*
X2673608Y1920000D02*
D03*
D52*
X1790000Y1558064D02*
D03*
Y1615938D02*
D03*
D53*
X1852000Y2132686D02*
D03*
Y2093316D02*
D03*
D54*
X2571456Y1845552D02*
D03*
Y1884922D02*
D03*
Y1806182D02*
D03*
Y1924292D02*
D03*
D55*
X2725000Y1755000D02*
D03*
Y1975472D02*
D03*
D56*
X2602708Y1644496D02*
D03*
Y1581504D02*
D03*
X2441292D02*
D03*
Y1644496D02*
D03*
D57*
X2651582Y2107000D02*
D03*
X2474418D02*
D03*
D58*
X1765000Y1691496D02*
D03*
X1815000D02*
D03*
X1865000D02*
D03*
X1915000D02*
D03*
Y1974960D02*
D03*
X1865000D02*
D03*
X1815000D02*
D03*
X1765000D02*
D03*
D59*
X2049020Y1605000D02*
D03*
X2160980D02*
D03*
X2167980Y2137000D02*
D03*
X2056020D02*
D03*
D60*
X2356051Y2024985D02*
D03*
Y1999395D02*
D03*
Y1973805D02*
D03*
Y1948213D02*
D03*
Y1922623D02*
D03*
Y1897033D02*
D03*
Y1871441D02*
D03*
Y1845851D02*
D03*
Y1820261D02*
D03*
Y1794671D02*
D03*
Y1769079D02*
D03*
Y1743489D02*
D03*
Y1717899D02*
D03*
Y1692307D02*
D03*
X2330461Y2024985D02*
D03*
Y1999395D02*
D03*
Y1973805D02*
D03*
Y1948213D02*
D03*
Y1922623D02*
D03*
Y1897033D02*
D03*
Y1871441D02*
D03*
Y1845851D02*
D03*
Y1820261D02*
D03*
Y1794671D02*
D03*
Y1769079D02*
D03*
Y1743489D02*
D03*
Y1717899D02*
D03*
Y1692307D02*
D03*
X2304871Y2024985D02*
D03*
Y1999395D02*
D03*
Y1973805D02*
D03*
Y1948213D02*
D03*
Y1922623D02*
D03*
Y1897033D02*
D03*
Y1871441D02*
D03*
Y1845851D02*
D03*
Y1820261D02*
D03*
Y1794671D02*
D03*
Y1769079D02*
D03*
Y1743489D02*
D03*
Y1717899D02*
D03*
Y1692307D02*
D03*
X2279281Y2024985D02*
D03*
Y1999395D02*
D03*
Y1973805D02*
D03*
Y1948213D02*
D03*
Y1922623D02*
D03*
Y1897033D02*
D03*
Y1871441D02*
D03*
Y1845851D02*
D03*
Y1820261D02*
D03*
Y1794671D02*
D03*
Y1769079D02*
D03*
Y1743489D02*
D03*
Y1717899D02*
D03*
Y1692307D02*
D03*
X2253689Y2024985D02*
D03*
Y1999395D02*
D03*
Y1973805D02*
D03*
Y1948213D02*
D03*
Y1922623D02*
D03*
Y1897033D02*
D03*
Y1871441D02*
D03*
Y1845851D02*
D03*
Y1820261D02*
D03*
Y1794671D02*
D03*
Y1769079D02*
D03*
Y1743489D02*
D03*
Y1717899D02*
D03*
Y1692307D02*
D03*
X2228099Y2024985D02*
D03*
Y1999395D02*
D03*
Y1973805D02*
D03*
Y1948213D02*
D03*
Y1922623D02*
D03*
Y1897033D02*
D03*
Y1871441D02*
D03*
Y1845851D02*
D03*
Y1820261D02*
D03*
Y1794671D02*
D03*
Y1769079D02*
D03*
Y1743489D02*
D03*
Y1717899D02*
D03*
Y1692307D02*
D03*
X2202509Y2024985D02*
D03*
Y1999395D02*
D03*
Y1973805D02*
D03*
Y1948213D02*
D03*
Y1922623D02*
D03*
Y1897033D02*
D03*
Y1871441D02*
D03*
Y1845851D02*
D03*
Y1820261D02*
D03*
Y1794671D02*
D03*
Y1769079D02*
D03*
Y1743489D02*
D03*
Y1717899D02*
D03*
Y1692307D02*
D03*
X2176917Y2024985D02*
D03*
Y1999395D02*
D03*
Y1973805D02*
D03*
Y1948213D02*
D03*
Y1922623D02*
D03*
Y1897033D02*
D03*
Y1871441D02*
D03*
Y1845851D02*
D03*
Y1820261D02*
D03*
Y1794671D02*
D03*
Y1769079D02*
D03*
Y1743489D02*
D03*
Y1717899D02*
D03*
Y1692307D02*
D03*
X2151327Y2024985D02*
D03*
Y1999395D02*
D03*
Y1973805D02*
D03*
Y1948213D02*
D03*
Y1922623D02*
D03*
Y1897033D02*
D03*
Y1871441D02*
D03*
Y1845851D02*
D03*
Y1820261D02*
D03*
Y1794671D02*
D03*
Y1769079D02*
D03*
Y1743489D02*
D03*
Y1717899D02*
D03*
Y1692307D02*
D03*
X2125737Y2024985D02*
D03*
Y1999395D02*
D03*
Y1973805D02*
D03*
Y1948213D02*
D03*
Y1922623D02*
D03*
Y1897033D02*
D03*
Y1871441D02*
D03*
Y1845851D02*
D03*
Y1820261D02*
D03*
Y1794671D02*
D03*
Y1769079D02*
D03*
Y1743489D02*
D03*
Y1717899D02*
D03*
Y1692307D02*
D03*
X2100147Y2024985D02*
D03*
Y1999395D02*
D03*
Y1973805D02*
D03*
Y1948213D02*
D03*
Y1922623D02*
D03*
Y1897033D02*
D03*
Y1871441D02*
D03*
Y1845851D02*
D03*
Y1820261D02*
D03*
Y1794671D02*
D03*
Y1769079D02*
D03*
Y1743489D02*
D03*
Y1717899D02*
D03*
Y1692307D02*
D03*
X2074555Y2024985D02*
D03*
X2048965D02*
D03*
X2023375D02*
D03*
X2074555Y1999395D02*
D03*
Y1973805D02*
D03*
Y1948213D02*
D03*
Y1922623D02*
D03*
Y1897033D02*
D03*
Y1871441D02*
D03*
Y1845851D02*
D03*
Y1820261D02*
D03*
Y1794671D02*
D03*
Y1769079D02*
D03*
Y1743489D02*
D03*
Y1717899D02*
D03*
Y1692307D02*
D03*
X2048965Y1999395D02*
D03*
Y1973805D02*
D03*
Y1948213D02*
D03*
Y1922623D02*
D03*
Y1897033D02*
D03*
Y1871441D02*
D03*
Y1845851D02*
D03*
Y1820261D02*
D03*
Y1794671D02*
D03*
Y1769079D02*
D03*
Y1743489D02*
D03*
Y1717899D02*
D03*
Y1692307D02*
D03*
X2023375Y1999395D02*
D03*
Y1973805D02*
D03*
Y1948213D02*
D03*
Y1922623D02*
D03*
Y1897033D02*
D03*
Y1871441D02*
D03*
Y1845851D02*
D03*
Y1820261D02*
D03*
Y1794671D02*
D03*
Y1769079D02*
D03*
Y1743489D02*
D03*
Y1717899D02*
D03*
Y1692307D02*
D03*
D61*
X1632362Y1997796D02*
D03*
Y1722204D02*
D03*
Y1899370D02*
D03*
Y1820630D02*
D03*
%TF.MD5,51e828bb6f36c625c8fe956de3fc8f49*%
M02*
