%TF.GenerationSoftware,Altium Limited,Altium Designer,20.2.5 (213)*%
G04 Layer_Color=32768*
%FSLAX26Y26*%
%MOIN*%
%TF.SameCoordinates,0FE6C2C3-B7F4-45EC-A48D-0F423D7CACB9*%
%TF.FilePolarity,Positive*%
%TF.FileFunction,Other,Mechanical_7*%
%TF.Part,Single*%
G01*
G75*
%TA.AperFunction,NonConductor*%
%ADD69C,0.001000*%
D69*
X2556724Y1987668D02*
Y2111526D01*
X2537038Y1987668D02*
Y2111526D01*
X2556724Y2096526D02*
X2606724D01*
X2487038D02*
X2537038D01*
X2556724D02*
X2566724Y2091526D01*
X2556724Y2096526D02*
X2566724Y2101526D01*
Y2091526D02*
Y2101526D01*
X2527038Y2091526D02*
X2537038Y2096526D01*
X2527038Y2101526D02*
X2537038Y2096526D01*
X2527038Y2091526D02*
Y2101526D01*
X2556724Y1972810D02*
X2707252D01*
X2556724Y1990526D02*
X2707252D01*
X2692252Y1922810D02*
Y1972810D01*
Y1990526D02*
Y2040526D01*
Y1972810D02*
X2697252Y1962810D01*
X2687252D02*
X2692252Y1972810D01*
X2687252Y1962810D02*
X2697252D01*
X2692252Y1990526D02*
X2697252Y2000526D01*
X2687252D02*
X2692252Y1990526D01*
X2687252Y2000526D02*
X2697252D01*
X2556724Y1872416D02*
X2782252D01*
X2556724Y1990526D02*
X2782252D01*
X2767252Y1822416D02*
Y1872416D01*
Y1990526D02*
Y2040526D01*
Y1872416D02*
X2772252Y1862416D01*
X2762252D02*
X2767252Y1872416D01*
X2762252Y1862416D02*
X2772252D01*
X2767252Y1990526D02*
X2772252Y2000526D01*
X2762252D02*
X2767252Y1990526D01*
X2762252Y2000526D02*
X2772252D01*
X2586252Y1961000D02*
Y2186526D01*
X2468140Y1961000D02*
Y2186526D01*
X2586252Y2171526D02*
X2636252D01*
X2418140D02*
X2468140D01*
X2586252D02*
X2596252Y2166526D01*
X2586252Y2171526D02*
X2596252Y2176526D01*
Y2166526D02*
Y2176526D01*
X2458140Y2166526D02*
X2468140Y2171526D01*
X2458140Y2176526D02*
X2468140Y2171526D01*
X2458140Y2166526D02*
Y2176526D01*
X2586252Y1726416D02*
Y1990526D01*
X2468140Y1726416D02*
Y1990526D01*
X2586252Y1741416D02*
X2636252D01*
X2418140D02*
X2468140D01*
X2586252D02*
X2596252Y1736416D01*
X2586252Y1741416D02*
X2596252Y1746416D01*
Y1736416D02*
Y1746416D01*
X2458140Y1736416D02*
X2468140Y1741416D01*
X2458140Y1746416D02*
X2468140Y1741416D01*
X2458140Y1736416D02*
Y1746416D01*
X2322140Y1872416D02*
X2586252D01*
X2322140Y1990526D02*
X2586252D01*
X2337140Y1822416D02*
Y1872416D01*
Y1990526D02*
Y2040526D01*
Y1872416D02*
X2342140Y1862416D01*
X2332140D02*
X2337140Y1872416D01*
X2332140Y1862416D02*
X2342140D01*
X2337140Y1990526D02*
X2342140Y2000526D01*
X2332140D02*
X2337140Y1990526D01*
X2332140Y2000526D02*
X2342140D01*
X2436576Y1668826D02*
X2446576D01*
X2436576D02*
X2441576Y1658826D01*
X2446576Y1668826D01*
X2436576Y1625204D02*
X2446576D01*
X2436576D02*
X2441576Y1635204D01*
X2446576Y1625204D01*
X2441576Y1658826D02*
Y1708826D01*
Y1585204D02*
Y1635204D01*
X2426576Y1658826D02*
X2577600D01*
X2426576Y1635204D02*
X2577600D01*
X2530198Y1842520D02*
Y1852520D01*
X2540198Y1847520D01*
X2530198Y1842520D02*
X2540198Y1847520D01*
X2625000Y1842520D02*
Y1852520D01*
X2615000Y1847520D02*
X2625000Y1852520D01*
X2615000Y1847520D02*
X2625000Y1842520D01*
X2490198Y1847520D02*
X2540198D01*
X2615000D02*
X2665000D01*
X2540198Y1747520D02*
Y1862520D01*
X2615000Y1747520D02*
Y1862520D01*
X2567600Y1536000D02*
Y1546000D01*
X2577600Y1541000D01*
X2567600Y1536000D02*
X2577600Y1541000D01*
X2625000Y1536000D02*
Y1546000D01*
X2615000Y1541000D02*
X2625000Y1546000D01*
X2615000Y1541000D02*
X2625000Y1536000D01*
X2527600Y1541000D02*
X2577600D01*
X2615000D02*
X2665000D01*
X2577600Y1526000D02*
Y1641000D01*
X2615000Y1526000D02*
Y1641000D01*
X2506576Y2022724D02*
Y2032724D01*
X2516576Y2027724D01*
X2506576Y2022724D02*
X2516576Y2027724D01*
X2648622Y2022724D02*
Y2032724D01*
X2638622Y2027724D02*
X2648622Y2032724D01*
X2638622Y2027724D02*
X2648622Y2022724D01*
X2466576Y2027724D02*
X2516576D01*
X2638622D02*
X2688622D01*
X2516576Y1694260D02*
Y2042724D01*
X2638622Y1694260D02*
Y2042724D01*
X2783622Y1763314D02*
X2793622D01*
X2783622D02*
X2788622Y1753314D01*
X2793622Y1763314D01*
X2783622Y1625204D02*
X2793622D01*
X2783622D02*
X2788622Y1635204D01*
X2793622Y1625204D01*
X2788622Y1753314D02*
Y1803314D01*
Y1585204D02*
Y1635204D01*
X2577600Y1753314D02*
X2803622D01*
X2577600Y1635204D02*
X2803622D01*
X2708622Y1737724D02*
X2718622D01*
X2708622D02*
X2713622Y1727724D01*
X2718622Y1737724D01*
X2708622Y1650796D02*
X2718622D01*
X2708622D02*
X2713622Y1660796D01*
X2718622Y1650796D01*
X2713622Y1727724D02*
Y1777724D01*
Y1610796D02*
Y1660796D01*
X2577600Y1727724D02*
X2728622D01*
X2577600Y1660796D02*
X2728622D01*
X1775500Y1501000D02*
Y1511000D01*
Y1501000D02*
X1785500Y1506000D01*
X1775500Y1511000D02*
X1785500Y1506000D01*
X1815500Y1501000D02*
Y1511000D01*
X1805500Y1506000D02*
X1815500Y1501000D01*
X1805500Y1506000D02*
X1815500Y1511000D01*
X1735500Y1506000D02*
X1785500D01*
X1805500D02*
X1855500D01*
X1785500Y1491000D02*
Y1625000D01*
X1805500Y1491000D02*
Y1625000D01*
X1775500Y1739000D02*
Y1749000D01*
Y1739000D02*
X1785500Y1744000D01*
X1775500Y1749000D02*
X1785500Y1744000D01*
X1864500Y1739000D02*
Y1749000D01*
X1854500Y1744000D02*
X1864500Y1739000D01*
X1854500Y1744000D02*
X1864500Y1749000D01*
X1735500Y1744000D02*
X1785500D01*
X1854500D02*
X1904500D01*
X1785500Y1625000D02*
Y1759000D01*
X1854500Y1625000D02*
Y1759000D01*
X1680500Y1596000D02*
X1690500D01*
X1680500D02*
X1685500Y1606000D01*
X1690500Y1596000D01*
X1680500Y1654000D02*
X1690500D01*
X1680500D02*
X1685500Y1644000D01*
X1690500Y1654000D01*
X1685500Y1556000D02*
Y1606000D01*
Y1644000D02*
Y1694000D01*
X1670500Y1606000D02*
X1820000D01*
X1670500Y1644000D02*
X1820000D01*
X1955040Y1709442D02*
X1965040D01*
X1955040D02*
X1960040Y1719442D01*
X1965040Y1709442D01*
X1955040Y1784560D02*
X1965040D01*
X1955040D02*
X1960040Y1774560D01*
X1965040Y1784560D01*
X1960040Y1669442D02*
Y1719442D01*
Y1774560D02*
Y1824560D01*
X1800000Y1719442D02*
X1975040D01*
X1800000Y1774560D02*
X1975040D01*
X1729960Y1991214D02*
Y2001214D01*
Y1991214D02*
X1739960Y1996214D01*
X1729960Y2001214D02*
X1739960Y1996214D01*
X1870040Y1991214D02*
Y2001214D01*
X1860040Y1996214D02*
X1870040Y1991214D01*
X1860040Y1996214D02*
X1870040Y2001214D01*
X1689960Y1996214D02*
X1739960D01*
X1860040D02*
X1910040D01*
X1739960Y1774560D02*
Y2011214D01*
X1860040Y1774560D02*
Y2011214D01*
X1779960Y1891214D02*
Y1901214D01*
Y1891214D02*
X1789960Y1896214D01*
X1779960Y1901214D02*
X1789960Y1896214D01*
X1820040Y1891214D02*
Y1901214D01*
X1810040Y1896214D02*
X1820040Y1891214D01*
X1810040Y1896214D02*
X1820040Y1901214D01*
X1739960Y1896214D02*
X1789960D01*
X1810040D02*
X1860040D01*
X1789960Y1796214D02*
Y1911214D01*
X1810040Y1796214D02*
Y1911214D01*
X1749646Y1592788D02*
Y1602788D01*
Y1592788D02*
X1759646Y1597788D01*
X1749646Y1602788D02*
X1759646Y1597788D01*
X1850354Y1592788D02*
Y1602788D01*
X1840354Y1597788D02*
X1850354Y1592788D01*
X1840354Y1597788D02*
X1850354Y1602788D01*
X1709646Y1597788D02*
X1759646D01*
X1840354D02*
X1890354D01*
X1759646Y1582788D02*
Y1697788D01*
X1840354Y1582788D02*
Y1697788D01*
X1659960Y1762198D02*
X1669960D01*
X1659960D02*
X1664960Y1772198D01*
X1669960Y1762198D01*
X1659960Y1806214D02*
X1669960D01*
X1659960D02*
X1664960Y1796214D01*
X1669960Y1806214D01*
X1664960Y1722198D02*
Y1772198D01*
Y1796214D02*
Y1846214D01*
X1649960Y1772198D02*
X1800000D01*
X1649960Y1796214D02*
X1800000D01*
X1584960Y1687788D02*
X1594960D01*
X1584960D02*
X1589960Y1697788D01*
X1594960Y1687788D01*
X1584960Y1806214D02*
X1594960D01*
X1584960D02*
X1589960Y1796214D01*
X1594960Y1806214D01*
X1589960Y1647788D02*
Y1697788D01*
Y1796214D02*
Y1846214D01*
X1574960Y1697788D02*
X1800000D01*
X1574960Y1796214D02*
X1800000D01*
%TF.MD5,762b4cf26afe2c10edaa2e18fb481929*%
M02*
