%TF.GenerationSoftware,Altium Limited,Altium Designer,20.2.5 (213)*%
G04 Layer_Color=8388736*
%FSLAX26Y26*%
%MOIN*%
%TF.SameCoordinates,0FE6C2C3-B7F4-45EC-A48D-0F423D7CACB9*%
%TF.FilePolarity,Positive*%
%TF.FileFunction,Other,Mechanical_26*%
%TF.Part,Single*%
G01*
G75*
G36*
X2300870Y2133160D02*
X2285130D01*
Y2152840D01*
X2300870D01*
Y2133160D01*
D02*
G37*
G36*
X1893870Y2129160D02*
X1878130D01*
Y2148840D01*
X1893870D01*
Y2129160D01*
D02*
G37*
G36*
X1919840Y2092130D02*
X1900160D01*
Y2107870D01*
X1919840D01*
Y2092130D01*
D02*
G37*
G36*
X1857870Y1956160D02*
X1842130D01*
Y1975840D01*
X1857870D01*
Y1956160D01*
D02*
G37*
G36*
X2245034Y1592130D02*
X2225354D01*
Y1607870D01*
X2245034D01*
Y1592130D01*
D02*
G37*
G36*
X2142670D02*
X2122990D01*
Y1607870D01*
X2142670D01*
Y1592130D01*
D02*
G37*
G36*
X2040308D02*
X2020628D01*
Y1607870D01*
X2040308D01*
Y1592130D01*
D02*
G37*
G36*
X2287870Y1590160D02*
X2272130D01*
Y1609840D01*
X2287870D01*
Y1590160D01*
D02*
G37*
G36*
X1949840Y1581130D02*
X1930160D01*
Y1596870D01*
X1949840D01*
Y1581130D01*
D02*
G37*
G36*
X2458840Y1736130D02*
X2439160D01*
Y1751870D01*
X2458840D01*
Y1736130D01*
D02*
G37*
G36*
X2468840Y1693130D02*
X2449160D01*
Y1708870D01*
X2468840D01*
Y1693130D01*
D02*
G37*
G36*
X2321806Y1592130D02*
X2302126D01*
Y1607870D01*
X2321806D01*
Y1592130D01*
D02*
G37*
G36*
X2590870Y1556160D02*
Y1575840D01*
X2575130D01*
Y1556160D01*
X2590870D01*
D02*
G37*
G36*
X2526327Y1794451D02*
Y1814131D01*
X2510587D01*
Y1794451D01*
X2526327D01*
D02*
G37*
G36*
X2442160Y1956870D02*
X2461840D01*
Y1941130D01*
X2442160D01*
Y1956870D01*
D02*
G37*
G36*
X2480840Y2110870D02*
X2461160D01*
Y2095130D01*
X2480840D01*
Y2110870D01*
D02*
G37*
G36*
X2556840Y2119870D02*
X2537160D01*
Y2104130D01*
X2556840D01*
Y2119870D01*
D02*
G37*
G36*
X2769840Y2107130D02*
X2750160D01*
Y2122870D01*
X2769840D01*
Y2107130D01*
D02*
G37*
%TF.MD5,ca2006ed7722fc19a80a18ec07b1cf9c*%
M02*
