%TF.GenerationSoftware,Altium Limited,Altium Designer,20.2.5 (213)*%
G04 Layer_Color=128*
%FSLAX26Y26*%
%MOIN*%
%TF.SameCoordinates,0FE6C2C3-B7F4-45EC-A48D-0F423D7CACB9*%
%TF.FilePolarity,Positive*%
%TF.FileFunction,Drillmap*%
%TF.Part,Single*%
G01*
G75*
%TA.AperFunction,NonConductor*%
%ADD38C,0.005000*%
D38*
X2683787Y1600000D02*
X2782213D01*
X2733000Y1550787D02*
Y1649213D01*
X1691787Y2127000D02*
X1790213D01*
X1741000Y2077787D02*
Y2176213D01*
X1508347Y1948582D02*
X1551653D01*
X1530000Y1926928D02*
Y1970236D01*
X1508347Y1771418D02*
X1551653D01*
X1530000Y1749764D02*
Y1793072D01*
X1510315Y2084410D02*
X1549685D01*
X1530000Y2064725D02*
Y2104095D01*
X1510315Y1635590D02*
X1549685D01*
X1530000Y1615905D02*
Y1655275D01*
X2057759Y1884237D02*
X2065759D01*
X2061759Y1880237D02*
Y1888237D01*
X2057759Y1859066D02*
X2065759D01*
X2061759Y1855066D02*
Y1863066D01*
X2209590Y1888317D02*
X2217590D01*
X2213590Y1884317D02*
Y1892317D01*
X2211305Y1859066D02*
X2219305D01*
X2215305Y1855066D02*
Y1863066D01*
X2160121Y1884237D02*
X2168121D01*
X2164121Y1880237D02*
Y1888237D01*
X2185074Y1886381D02*
X2193074D01*
X2189074Y1882381D02*
Y1890381D01*
X2288077Y1756283D02*
X2296077D01*
X2292077Y1752283D02*
Y1760283D01*
X2236895Y1756283D02*
X2244895D01*
X2240895Y1752283D02*
Y1760283D01*
X2262485Y1756283D02*
X2270485D01*
X2266485Y1752283D02*
Y1760283D01*
X2211305Y1756283D02*
X2219305D01*
X2215305Y1752283D02*
Y1760283D01*
X2313667Y1756283D02*
X2321667D01*
X2317667Y1752283D02*
Y1760283D01*
X2160121Y1833055D02*
X2168121D01*
X2164121Y1829055D02*
Y1837055D01*
X2211305Y1909829D02*
X2219305D01*
X2215305Y1905829D02*
Y1913829D01*
X2313667Y1781875D02*
X2321667D01*
X2317667Y1777875D02*
Y1785875D01*
X2339257Y1781875D02*
X2347257D01*
X2343257Y1777875D02*
Y1785875D01*
X2364847Y1781875D02*
X2372847D01*
X2368847Y1777875D02*
Y1785875D01*
X2339257Y1756283D02*
X2347257D01*
X2343257Y1752283D02*
Y1760283D01*
X2160448Y1935745D02*
X2168448D01*
X2164448Y1931745D02*
Y1939745D01*
X2159039Y1908747D02*
X2167039D01*
X2163039Y1904747D02*
Y1912747D01*
X2211305Y1935419D02*
X2219305D01*
X2215305Y1931419D02*
Y1939419D01*
X2134531Y1884237D02*
X2142531D01*
X2138531Y1880237D02*
Y1888237D01*
X2134531Y1935419D02*
X2142531D01*
X2138531Y1931419D02*
Y1939419D01*
X2134531Y1909829D02*
X2142531D01*
X2138531Y1905829D02*
Y1913829D01*
X2160121Y1730693D02*
X2168121D01*
X2164121Y1726693D02*
Y1734693D01*
X2160121Y1705103D02*
X2168121D01*
X2164121Y1701103D02*
Y1709103D01*
X2057759Y1833055D02*
X2065759D01*
X2061759Y1829055D02*
Y1837055D01*
X2083351Y1833055D02*
X2091351D01*
X2087351Y1829055D02*
Y1837055D01*
X2679416Y1849163D02*
X2694416D01*
X2686916Y1841663D02*
Y1856663D01*
X2637014Y1863944D02*
X2652014D01*
X2644514Y1856444D02*
Y1871444D01*
X2717445Y1884922D02*
X2732445D01*
X2724945Y1877422D02*
Y1892422D01*
X2219500Y2111000D02*
X2234500D01*
X2227000Y2103500D02*
Y2118500D01*
X2446793Y1853050D02*
X2461793D01*
X2454293Y1845550D02*
Y1860550D01*
X2433792Y1878636D02*
X2448792D01*
X2441292Y1871136D02*
Y1886136D01*
X2396793Y1825790D02*
X2411793D01*
X2404293Y1818290D02*
Y1833290D01*
X2364847Y1884237D02*
X2372847D01*
X2368847Y1880237D02*
Y1888237D01*
X2640986Y1908525D02*
X2655986D01*
X2648486Y1901025D02*
Y1916025D01*
X2469262Y1874184D02*
X2484262D01*
X2476762Y1866684D02*
Y1881684D01*
X2446793Y1815050D02*
X2461793D01*
X2454293Y1807550D02*
Y1822550D01*
X2369911Y1859066D02*
X2377911D01*
X2373911Y1855066D02*
Y1863066D01*
X2492748Y1764825D02*
X2507748D01*
X2500248Y1757325D02*
Y1772325D01*
X2492748Y1725188D02*
X2507748D01*
X2500248Y1717688D02*
Y1732688D01*
X2667784Y1546700D02*
X2682784D01*
X2675284Y1539200D02*
Y1554200D01*
X2363110Y1596810D02*
X2378110D01*
X2370610Y1589310D02*
Y1604310D01*
X2336216Y1575214D02*
X2351216D01*
X2343716Y1567714D02*
Y1582714D01*
X2360514Y1635590D02*
X2375514D01*
X2368014Y1628090D02*
Y1643090D01*
X2484878Y1649303D02*
X2499878D01*
X2492378Y1641803D02*
Y1656803D01*
X2401538Y1725188D02*
X2416538D01*
X2409038Y1717688D02*
Y1732688D01*
X2401538Y1695816D02*
X2416538D01*
X2409038Y1688316D02*
Y1703316D01*
X1987934Y1600000D02*
X2002934D01*
X1995434Y1592500D02*
Y1607500D01*
X2409480Y1956060D02*
X2424480D01*
X2416980Y1948560D02*
Y1963560D01*
X2410210Y1918060D02*
X2425210D01*
X2417710Y1910560D02*
Y1925560D01*
X2381775Y1769079D02*
X2389775D01*
X2385775Y1765079D02*
Y1773079D01*
X2262531Y1679557D02*
X2270531D01*
X2266531Y1675557D02*
Y1683557D01*
X2250332Y1663349D02*
X2258332D01*
X2254332Y1659349D02*
Y1667349D01*
X2717445Y1679511D02*
X2732445D01*
X2724945Y1672011D02*
Y1687011D01*
X2620883Y1688161D02*
X2635883D01*
X2628383Y1680661D02*
Y1695661D01*
X2560283Y1764825D02*
X2575283D01*
X2567783Y1757325D02*
Y1772325D01*
X2089220Y1612064D02*
X2104220D01*
X2096720Y1604564D02*
Y1619564D01*
X2640986Y1947575D02*
X2655986D01*
X2648486Y1940075D02*
Y1955075D01*
X2595208Y1692307D02*
X2610208D01*
X2602708Y1684807D02*
Y1699807D01*
X2567888Y2019284D02*
X2582888D01*
X2575388Y2011784D02*
Y2026784D01*
X2515947Y2027644D02*
X2530947D01*
X2523447Y2020144D02*
Y2035144D01*
X1562996Y1869684D02*
X1577996D01*
X1570496Y1862184D02*
Y1877184D01*
X1752500Y1768601D02*
X1767500D01*
X1760000Y1761101D02*
Y1776101D01*
X1833375Y1804789D02*
X1848375D01*
X1840875Y1797289D02*
Y1812289D01*
X1904635Y1774521D02*
X1919635D01*
X1912135Y1767021D02*
Y1782021D01*
X1908302Y1805058D02*
X1923302D01*
X1915802Y1797558D02*
Y1812558D01*
X1939753Y1793616D02*
X1954753D01*
X1947253Y1786116D02*
Y1801116D01*
X1990726Y1858549D02*
X1998726D01*
X1994726Y1854549D02*
Y1862549D01*
X1621709Y2176889D02*
X1636709D01*
X1629209Y2169389D02*
Y2184389D01*
X1940655Y2156034D02*
X1955655D01*
X1948155Y2148534D02*
Y2163534D01*
X2361347Y2164478D02*
X2376347D01*
X2368847Y2156978D02*
Y2171978D01*
X1904144Y1831751D02*
X1919144D01*
X1911644Y1824251D02*
Y1839251D01*
X1990726Y1878636D02*
X1998726D01*
X1994726Y1874636D02*
Y1882636D01*
X2108941Y1961009D02*
X2116941D01*
X2112941Y1957009D02*
Y1965009D01*
X2600959Y2170195D02*
X2615959D01*
X2608459Y2162695D02*
Y2177695D01*
X2105441Y2161177D02*
X2120441D01*
X2112941Y2153677D02*
Y2168677D01*
X1791075Y2161653D02*
X1806075D01*
X1798575Y2154153D02*
Y2169153D01*
X2006579Y1833055D02*
X2014579D01*
X2010579Y1829055D02*
Y1837055D01*
X2096147Y1654071D02*
X2104147D01*
X2100147Y1650071D02*
Y1658071D01*
X2211305Y1807465D02*
X2219305D01*
X2215305Y1803465D02*
Y1811465D01*
X2658883Y1695816D02*
X2673883D01*
X2666383Y1688316D02*
Y1703316D01*
X2703081Y2070070D02*
X2718081D01*
X2710581Y2062570D02*
Y2077570D01*
X2568678Y2058576D02*
X2583678D01*
X2576178Y2051076D02*
Y2066076D01*
X2401538Y2118883D02*
X2416538D01*
X2409038Y2111383D02*
Y2126383D01*
X2619959Y2019673D02*
X2634959D01*
X2627459Y2012173D02*
Y2027173D01*
X1661232Y1958174D02*
X1676232D01*
X1668732Y1950674D02*
Y1965674D01*
X1721072Y1608425D02*
X1736072D01*
X1728572Y1600925D02*
Y1615925D01*
X1940655Y1676895D02*
X1955655D01*
X1948155Y1669395D02*
Y1684395D01*
X1782079Y1908525D02*
X1797079D01*
X1789579Y1901025D02*
Y1916025D01*
X1833375Y1919479D02*
X1848375D01*
X1840875Y1911979D02*
Y1926979D01*
X1925193Y1850753D02*
X1940193D01*
X1932693Y1843253D02*
Y1858253D01*
X2006579Y1730693D02*
X2014579D01*
X2010579Y1726693D02*
Y1734693D01*
X2389657Y1676895D02*
X2397657D01*
X2393657Y1672895D02*
Y1680895D01*
X2648287Y1586019D02*
X2663287D01*
X2655787Y1578519D02*
Y1593519D01*
X1708637Y1692307D02*
X1723637D01*
X1716137Y1684807D02*
Y1699807D01*
X1729200Y2037787D02*
X1744200D01*
X1736700Y2030287D02*
Y2045287D01*
X1885250Y1919479D02*
X1900250D01*
X1892750Y1911979D02*
Y1926979D01*
X1752500Y1807465D02*
X1767500D01*
X1760000Y1799965D02*
Y1814965D01*
X1699314Y1719707D02*
X1714314D01*
X1706814Y1712207D02*
Y1727207D01*
X1823245Y1758039D02*
X1838245D01*
X1830745Y1750539D02*
Y1765539D01*
X1675301Y1598189D02*
X1690301D01*
X1682801Y1590689D02*
Y1605689D01*
X1962001Y2111000D02*
X1977001D01*
X1969501Y2103500D02*
Y2118500D01*
X2032169Y2085957D02*
X2040169D01*
X2036169Y2081957D02*
Y2089957D01*
X1913500Y1750079D02*
X1928500D01*
X1921000Y1742579D02*
Y1757579D01*
X1990726Y1921532D02*
X1998726D01*
X1994726Y1917532D02*
Y1925532D01*
X1981391Y1948838D02*
X1989391D01*
X1985391Y1944838D02*
Y1952838D01*
X2006579Y1935419D02*
X2014579D01*
X2010579Y1931419D02*
Y1939419D01*
X1856925Y2049060D02*
X1871925D01*
X1864425Y2041560D02*
Y2056560D01*
X1874606Y2029254D02*
X1889606D01*
X1882106Y2021754D02*
Y2036754D01*
X1958753Y2059998D02*
X1973753D01*
X1966253Y2052498D02*
Y2067498D01*
X1958753Y1987580D02*
X1973753D01*
X1966253Y1980080D02*
Y1995080D01*
X2236895Y1909829D02*
X2244895D01*
X2240895Y1905829D02*
Y1913829D01*
X2108941Y1807465D02*
X2116941D01*
X2112941Y1803465D02*
Y1811465D01*
X2275281Y2084410D02*
X2283281D01*
X2279281Y2080410D02*
Y2088410D01*
X2288077Y2037781D02*
X2296077D01*
X2292077Y2033781D02*
Y2041781D01*
X2391885Y2037781D02*
X2399885D01*
X2395885Y2033781D02*
Y2041781D01*
X2211305Y1833055D02*
X2219305D01*
X2215305Y1829055D02*
Y1837055D01*
X2160121Y1807465D02*
X2168121D01*
X2164121Y1803465D02*
Y1811465D01*
X2134531Y1833055D02*
X2142531D01*
X2138531Y1829055D02*
Y1837055D01*
X2134531Y1807465D02*
X2142531D01*
X2138531Y1803465D02*
Y1811465D01*
X2236895Y1807465D02*
X2244895D01*
X2240895Y1803465D02*
Y1811465D01*
X2160121Y1781875D02*
X2168121D01*
X2164121Y1777875D02*
Y1785875D01*
X2211305Y1781875D02*
X2219305D01*
X2215305Y1777875D02*
Y1785875D01*
X2108941Y1833055D02*
X2116941D01*
X2112941Y1829055D02*
Y1837055D01*
X2262485Y1833055D02*
X2270485D01*
X2266485Y1829055D02*
Y1837055D01*
X2108941Y1884237D02*
X2116941D01*
X2112941Y1880237D02*
Y1888237D01*
X2262485Y1884237D02*
X2270485D01*
X2266485Y1880237D02*
Y1888237D01*
X2134531Y1781875D02*
X2142531D01*
X2138531Y1777875D02*
Y1785875D01*
X2236895Y1781875D02*
X2244895D01*
X2240895Y1777875D02*
Y1785875D01*
X2262485Y1807465D02*
X2270485D01*
X2266485Y1803465D02*
Y1811465D01*
X2108941Y1909829D02*
X2116941D01*
X2112941Y1905829D02*
Y1913829D01*
X2262485Y1909829D02*
X2270485D01*
X2266485Y1905829D02*
Y1913829D01*
X2236895Y1935419D02*
X2244895D01*
X2240895Y1931419D02*
Y1939419D01*
X2108941Y1781875D02*
X2116941D01*
X2112941Y1777875D02*
Y1785875D01*
X2262485Y1781875D02*
X2270485D01*
X2266485Y1777875D02*
Y1785875D01*
X2083351Y1884237D02*
X2091351D01*
X2087351Y1880237D02*
Y1888237D01*
X2160121Y1756283D02*
X2168121D01*
X2164121Y1752283D02*
Y1760283D01*
X2108941Y1935419D02*
X2116941D01*
X2112941Y1931419D02*
Y1939419D01*
X2262485Y1935419D02*
X2270485D01*
X2266485Y1931419D02*
Y1939419D01*
X2160121Y1961009D02*
X2168121D01*
X2164121Y1957009D02*
Y1965009D01*
X2211305Y1961009D02*
X2219305D01*
X2215305Y1957009D02*
Y1965009D01*
X2288077Y1833055D02*
X2296077D01*
X2292077Y1829055D02*
Y1837055D01*
X2288077Y1884237D02*
X2296077D01*
X2292077Y1880237D02*
Y1888237D01*
X2083351Y1807465D02*
X2091351D01*
X2087351Y1803465D02*
Y1811465D01*
X2083351Y1909829D02*
X2091351D01*
X2087351Y1905829D02*
Y1913829D01*
X2134531Y1756283D02*
X2142531D01*
X2138531Y1752283D02*
Y1760283D01*
X2134531Y1961009D02*
X2142531D01*
X2138531Y1957009D02*
Y1965009D01*
X2236895Y1961009D02*
X2244895D01*
X2240895Y1957009D02*
Y1965009D01*
X2288077Y1807465D02*
X2296077D01*
X2292077Y1803465D02*
Y1811465D01*
X2288077Y1909829D02*
X2296077D01*
X2292077Y1905829D02*
Y1913829D01*
X2083351Y1781875D02*
X2091351D01*
X2087351Y1777875D02*
Y1785875D01*
X2083351Y1935419D02*
X2091351D01*
X2087351Y1931419D02*
Y1939419D01*
X2108941Y1756283D02*
X2116941D01*
X2112941Y1752283D02*
Y1760283D01*
X2262485Y1961009D02*
X2270485D01*
X2266485Y1957009D02*
Y1965009D01*
X2288077Y1781875D02*
X2296077D01*
X2292077Y1777875D02*
Y1785875D01*
X2288077Y1935419D02*
X2296077D01*
X2292077Y1931419D02*
Y1939419D01*
X2211305Y1730693D02*
X2219305D01*
X2215305Y1726693D02*
Y1734693D01*
X2313667Y1833055D02*
X2321667D01*
X2317667Y1829055D02*
Y1837055D01*
X2313667Y1884237D02*
X2321667D01*
X2317667Y1880237D02*
Y1888237D01*
X2160121Y1986601D02*
X2168121D01*
X2164121Y1982601D02*
Y1990601D01*
X2211305Y1986601D02*
X2219305D01*
X2215305Y1982601D02*
Y1990601D01*
X2134531Y1730693D02*
X2142531D01*
X2138531Y1726693D02*
Y1734693D01*
X2236895Y1730693D02*
X2244895D01*
X2240895Y1726693D02*
Y1734693D01*
X2057759Y1807465D02*
X2065759D01*
X2061759Y1803465D02*
Y1811465D01*
X2313667Y1807465D02*
X2321667D01*
X2317667Y1803465D02*
Y1811465D01*
X2057759Y1909829D02*
X2065759D01*
X2061759Y1905829D02*
Y1913829D01*
X2313667Y1909829D02*
X2321667D01*
X2317667Y1905829D02*
Y1913829D01*
X2134531Y1986601D02*
X2142531D01*
X2138531Y1982601D02*
Y1990601D01*
X2236895Y1986601D02*
X2244895D01*
X2240895Y1982601D02*
Y1990601D01*
X2083351Y1756283D02*
X2091351D01*
X2087351Y1752283D02*
Y1760283D01*
X2083351Y1961009D02*
X2091351D01*
X2087351Y1957009D02*
Y1965009D01*
X2288077Y1961009D02*
X2296077D01*
X2292077Y1957009D02*
Y1965009D01*
X2108941Y1730693D02*
X2116941D01*
X2112941Y1726693D02*
Y1734693D01*
X2262485Y1730693D02*
X2270485D01*
X2266485Y1726693D02*
Y1734693D01*
X2057759Y1781875D02*
X2065759D01*
X2061759Y1777875D02*
Y1785875D01*
X2057759Y1935419D02*
X2065759D01*
X2061759Y1931419D02*
Y1939419D01*
X2313667Y1935419D02*
X2321667D01*
X2317667Y1931419D02*
Y1939419D01*
X2108941Y1986601D02*
X2116941D01*
X2112941Y1982601D02*
Y1990601D01*
X2262485Y1986601D02*
X2270485D01*
X2266485Y1982601D02*
Y1990601D01*
X2211305Y1705103D02*
X2219305D01*
X2215305Y1701103D02*
Y1709103D01*
X2032169Y1833055D02*
X2040169D01*
X2036169Y1829055D02*
Y1837055D01*
X2339257Y1833055D02*
X2347257D01*
X2343257Y1829055D02*
Y1837055D01*
X2032169Y1884237D02*
X2040169D01*
X2036169Y1880237D02*
Y1888237D01*
X2339257Y1884237D02*
X2347257D01*
X2343257Y1880237D02*
Y1888237D01*
X2160121Y2012191D02*
X2168121D01*
X2164121Y2008191D02*
Y2016191D01*
X2211305Y2012191D02*
X2219305D01*
X2215305Y2008191D02*
Y2016191D01*
X2134531Y1705103D02*
X2142531D01*
X2138531Y1701103D02*
Y1709103D01*
X2236895Y1705103D02*
X2244895D01*
X2240895Y1701103D02*
Y1709103D01*
X2083351Y1730693D02*
X2091351D01*
X2087351Y1726693D02*
Y1734693D01*
X2032169Y1807465D02*
X2040169D01*
X2036169Y1803465D02*
Y1811465D01*
X2339257Y1807465D02*
X2347257D01*
X2343257Y1803465D02*
Y1811465D01*
X2288077Y1730693D02*
X2296077D01*
X2292077Y1726693D02*
Y1734693D01*
X2032169Y1909829D02*
X2040169D01*
X2036169Y1905829D02*
Y1913829D01*
X2339257Y1909829D02*
X2347257D01*
X2343257Y1905829D02*
Y1913829D01*
X2057759Y1756283D02*
X2065759D01*
X2061759Y1752283D02*
Y1760283D01*
X2057759Y1961009D02*
X2065759D01*
X2061759Y1957009D02*
Y1965009D01*
X2313667Y1961009D02*
X2321667D01*
X2317667Y1957009D02*
Y1965009D01*
X2083351Y1986601D02*
X2091351D01*
X2087351Y1982601D02*
Y1990601D01*
X2134531Y2012191D02*
X2142531D01*
X2138531Y2008191D02*
Y2016191D01*
X2236895Y2012191D02*
X2244895D01*
X2240895Y2008191D02*
Y2016191D01*
X2288077Y1986601D02*
X2296077D01*
X2292077Y1982601D02*
Y1990601D01*
X2108941Y1705103D02*
X2116941D01*
X2112941Y1701103D02*
Y1709103D01*
X2262485Y1705103D02*
X2270485D01*
X2266485Y1701103D02*
Y1709103D01*
X2032169Y1781875D02*
X2040169D01*
X2036169Y1777875D02*
Y1785875D01*
X2032169Y1935419D02*
X2040169D01*
X2036169Y1931419D02*
Y1939419D01*
X2339257Y1935419D02*
X2347257D01*
X2343257Y1931419D02*
Y1939419D01*
X2108941Y2012191D02*
X2116941D01*
X2112941Y2008191D02*
Y2016191D01*
X2262485Y2012191D02*
X2270485D01*
X2266485Y2008191D02*
Y2016191D01*
X2057759Y1730693D02*
X2065759D01*
X2061759Y1726693D02*
Y1734693D01*
X2313667Y1730693D02*
X2321667D01*
X2317667Y1726693D02*
Y1734693D01*
X2057759Y1986601D02*
X2065759D01*
X2061759Y1982601D02*
Y1990601D01*
X2313667Y1986601D02*
X2321667D01*
X2317667Y1982601D02*
Y1990601D01*
X2083351Y1705103D02*
X2091351D01*
X2087351Y1701103D02*
Y1709103D01*
X2364847Y1833055D02*
X2372847D01*
X2368847Y1829055D02*
Y1837055D01*
X2006579Y1884237D02*
X2014579D01*
X2010579Y1880237D02*
Y1888237D01*
X2288077Y1705103D02*
X2296077D01*
X2292077Y1701103D02*
Y1709103D01*
X2032169Y1756283D02*
X2040169D01*
X2036169Y1752283D02*
Y1760283D01*
X2032169Y1961009D02*
X2040169D01*
X2036169Y1957009D02*
Y1965009D01*
X2339257Y1961009D02*
X2347257D01*
X2343257Y1957009D02*
Y1965009D01*
X2083351Y2012191D02*
X2091351D01*
X2087351Y2008191D02*
Y2016191D01*
X2160121Y1679511D02*
X2168121D01*
X2164121Y1675511D02*
Y1683511D01*
X2211305Y1679511D02*
X2219305D01*
X2215305Y1675511D02*
Y1683511D01*
X2160121Y2037781D02*
X2168121D01*
X2164121Y2033781D02*
Y2041781D01*
X2211305Y2037781D02*
X2219305D01*
X2215305Y2033781D02*
Y2041781D01*
X2288077Y2012191D02*
X2296077D01*
X2292077Y2008191D02*
Y2016191D01*
X2006579Y1807465D02*
X2014579D01*
X2010579Y1803465D02*
Y1811465D01*
X2364847Y1807465D02*
X2372847D01*
X2368847Y1803465D02*
Y1811465D01*
X2006579Y1909829D02*
X2014579D01*
X2010579Y1905829D02*
Y1913829D01*
X2364847Y1909829D02*
X2372847D01*
X2368847Y1905829D02*
Y1913829D01*
X2134531Y1679511D02*
X2142531D01*
X2138531Y1675511D02*
Y1683511D01*
X2236895Y1679511D02*
X2244895D01*
X2240895Y1675511D02*
Y1683511D01*
X2134531Y2037781D02*
X2142531D01*
X2138531Y2033781D02*
Y2041781D01*
X2236895Y2037781D02*
X2244895D01*
X2240895Y2033781D02*
Y2041781D01*
X2006579Y1781875D02*
X2014579D01*
X2010579Y1777875D02*
Y1785875D01*
X2364847Y1935419D02*
X2372847D01*
X2368847Y1931419D02*
Y1939419D01*
X2108941Y1679511D02*
X2116941D01*
X2112941Y1675511D02*
Y1683511D01*
X2108941Y2037781D02*
X2116941D01*
X2112941Y2033781D02*
Y2041781D01*
X2262485Y2037781D02*
X2270485D01*
X2266485Y2033781D02*
Y2041781D01*
X2057759Y1705103D02*
X2065759D01*
X2061759Y1701103D02*
Y1709103D01*
X2313667Y1705103D02*
X2321667D01*
X2317667Y1701103D02*
Y1709103D01*
X2032169Y1730693D02*
X2040169D01*
X2036169Y1726693D02*
Y1734693D01*
X2339257Y1730693D02*
X2347257D01*
X2343257Y1726693D02*
Y1734693D01*
X2032169Y1986601D02*
X2040169D01*
X2036169Y1982601D02*
Y1990601D01*
X2339257Y1986601D02*
X2347257D01*
X2343257Y1982601D02*
Y1990601D01*
X2057759Y2012191D02*
X2065759D01*
X2061759Y2008191D02*
Y2016191D01*
X2313667Y2012191D02*
X2321667D01*
X2317667Y2008191D02*
Y2016191D01*
X2006579Y1756283D02*
X2014579D01*
X2010579Y1752283D02*
Y1760283D01*
X2364847Y1756283D02*
X2372847D01*
X2368847Y1752283D02*
Y1760283D01*
X2006579Y1961009D02*
X2014579D01*
X2010579Y1957009D02*
Y1965009D01*
X2364847Y1961009D02*
X2372847D01*
X2368847Y1957009D02*
Y1965009D01*
X2083351Y1679511D02*
X2091351D01*
X2087351Y1675511D02*
Y1683511D01*
X2083351Y2037781D02*
X2091351D01*
X2087351Y2033781D02*
Y2041781D01*
X2288077Y1679511D02*
X2296077D01*
X2292077Y1675511D02*
Y1683511D01*
X2032169Y1705103D02*
X2040169D01*
X2036169Y1701103D02*
Y1709103D01*
X2339257Y1705103D02*
X2347257D01*
X2343257Y1701103D02*
Y1709103D01*
X2032169Y2012191D02*
X2040169D01*
X2036169Y2008191D02*
Y2016191D01*
X2339257Y2012191D02*
X2347257D01*
X2343257Y2008191D02*
Y2016191D01*
X2364847Y1730693D02*
X2372847D01*
X2368847Y1726693D02*
Y1734693D01*
X2006579Y1986601D02*
X2014579D01*
X2010579Y1982601D02*
Y1990601D01*
X2364847Y1986601D02*
X2372847D01*
X2368847Y1982601D02*
Y1990601D01*
X2057759Y1679511D02*
X2065759D01*
X2061759Y1675511D02*
Y1683511D01*
X2313667Y1679511D02*
X2321667D01*
X2317667Y1675511D02*
Y1683511D01*
X2057759Y2037781D02*
X2065759D01*
X2061759Y2033781D02*
Y2041781D01*
X2313667Y2037781D02*
X2321667D01*
X2317667Y2033781D02*
Y2041781D01*
X2006579Y1705103D02*
X2014579D01*
X2010579Y1701103D02*
Y1709103D01*
X2364847Y1705103D02*
X2372847D01*
X2368847Y1701103D02*
Y1709103D01*
X2006579Y2012191D02*
X2014579D01*
X2010579Y2008191D02*
Y2016191D01*
X2364847Y2012191D02*
X2372847D01*
X2368847Y2008191D02*
Y2016191D01*
X2032169Y1679511D02*
X2040169D01*
X2036169Y1675511D02*
Y1683511D01*
X2339257Y1679511D02*
X2347257D01*
X2343257Y1675511D02*
Y1683511D01*
X2339257Y2037781D02*
X2347257D01*
X2343257Y2033781D02*
Y2041781D01*
X2006579Y2037781D02*
X2014579D01*
X2010579Y2033781D02*
Y2041781D01*
X2630415Y1804149D02*
X2645415D01*
X2637915Y1796649D02*
Y1811649D01*
X2764570Y1845851D02*
X2779570D01*
X2772070Y1838351D02*
Y1853351D01*
X1675301Y1669161D02*
X1690301D01*
X1682801Y1661661D02*
Y1676661D01*
X2532698Y1712724D02*
X2547698D01*
X2540198Y1705224D02*
Y1720224D01*
X2666108Y1920000D02*
X2681108D01*
X2673608Y1912500D02*
Y1927500D01*
%TF.MD5,48229bd3f3d20c8e0e5e9a8b4fe73056*%
M02*
