%TF.GenerationSoftware,Altium Limited,Altium Designer,20.2.5 (213)*%
G04 Layer_Color=32768*
%FSLAX26Y26*%
%MOIN*%
%TF.SameCoordinates,0FE6C2C3-B7F4-45EC-A48D-0F423D7CACB9*%
%TF.FilePolarity,Positive*%
%TF.FileFunction,Other,Mechanical_15*%
%TF.Part,Single*%
G01*
G75*
%TA.AperFunction,NonConductor*%
%ADD37C,0.006000*%
%ADD39C,0.003937*%
%ADD70C,0.001968*%
G36*
X2571629Y2000527D02*
X2596251D01*
Y1975905D01*
X2608251D01*
Y1887039D01*
X2596251D01*
Y1862417D01*
X2571629D01*
Y1850417D01*
X2482763D01*
Y1862417D01*
X2458141D01*
Y1887039D01*
X2446141D01*
Y1975905D01*
X2458141D01*
Y2000527D01*
X2482763D01*
Y2012527D01*
X2571629D01*
Y2000527D01*
D02*
G37*
G36*
X1820039Y1784560D02*
X1870039D01*
Y1709441D01*
X1860394D01*
Y1687001D01*
X1739606D01*
Y1709441D01*
X1729961D01*
Y1784560D01*
X1779961D01*
X1780000Y1807001D01*
X1820039D01*
Y1784560D01*
D02*
G37*
G36*
X2630001Y1737724D02*
X2648623D01*
Y1650795D01*
X2630001D01*
Y1615205D01*
X2525197D01*
Y1650795D01*
X2506575D01*
Y1737724D01*
X2525197D01*
Y1773315D01*
X2630001D01*
Y1737724D01*
D02*
G37*
G36*
X1878500Y1596001D02*
X1761500D01*
Y1654001D01*
X1878500D01*
Y1596001D01*
D02*
G37*
D37*
X2458140Y1862416D02*
X2482762D01*
Y1850416D02*
Y1862416D01*
Y1850416D02*
X2571630D01*
Y1862416D01*
X2596252D01*
Y1887038D01*
X2608252D01*
Y1975904D01*
X2596252D02*
X2608252D01*
X2596252D02*
Y2000526D01*
X2571630D02*
X2596252D01*
X2571630D02*
Y2012526D01*
X2482762D02*
X2571630D01*
X2482762Y2000526D02*
Y2012526D01*
X2458140Y2000526D02*
X2482762D01*
X2458140Y1975904D02*
Y2000526D01*
X2446140Y1975904D02*
X2458140D01*
X2446140Y1887038D02*
Y1975904D01*
Y1887038D02*
X2458140D01*
Y1862416D02*
Y1887038D01*
X2506576Y1650796D02*
Y1737724D01*
X2525198D01*
Y1773314D01*
X2630000D01*
Y1737724D02*
Y1773314D01*
Y1737724D02*
X2648622D01*
Y1650796D02*
Y1737724D01*
X2630000Y1650796D02*
X2648622D01*
X2630000Y1615204D02*
Y1650796D01*
X2525198Y1615204D02*
X2630000D01*
X2525198D02*
Y1650796D01*
X2506576D02*
X2525198D01*
X1761500Y1596000D02*
X1878500D01*
X1761500D02*
Y1654000D01*
X1878500D01*
Y1596000D02*
Y1654000D01*
X1740000Y1687000D02*
X1860000D01*
X1860394D02*
Y1709442D01*
X1739606Y1687000D02*
Y1709442D01*
X1860394D02*
X1870040D01*
X1729960D02*
X1739606D01*
X1729960D02*
Y1784560D01*
X1779960D01*
Y1807000D01*
X1820040D01*
X1820000D02*
X1820040Y1784560D01*
X1870040D01*
Y1709442D02*
Y1784560D01*
D39*
X1840188Y2113000D02*
X1863810D01*
X1852000Y2101190D02*
Y2124812D01*
X1865780Y2077568D02*
Y2148434D01*
X1838220Y2077568D02*
Y2148434D01*
X1865780D01*
X1838220Y2077568D02*
X1865780D01*
X2384204Y1518512D02*
Y1707488D01*
Y1518512D02*
X2659796D01*
Y1707488D01*
X2384204D02*
X2659796D01*
D70*
X1749536Y1891938D02*
X1866464D01*
X1749536Y1834064D02*
X1866464D01*
X1749536D02*
Y1891938D01*
X1866464Y1834064D02*
Y1891938D01*
X1818938Y1528536D02*
Y1645464D01*
X1761064Y1528536D02*
Y1645464D01*
Y1528536D02*
X1818938D01*
X1761064Y1645464D02*
X1818938D01*
X2567520Y1737284D02*
Y1784528D01*
X2532086D02*
X2567520D01*
X2532086D02*
Y1945944D01*
X2567520D01*
Y1993190D01*
X2679724D01*
Y2008938D01*
X2770276D01*
Y1993190D02*
Y2008938D01*
Y1993190D02*
X2797834D01*
Y1737284D02*
Y1993190D01*
X2770276Y1737284D02*
X2797834D01*
X2770276Y1721536D02*
Y1737284D01*
X2679724Y1721536D02*
X2770276D01*
X2679724D02*
Y1737284D01*
X2567520D02*
X2679724D01*
X2427174Y2028260D02*
X2698826D01*
X2427174D02*
Y2185740D01*
X2698826D01*
Y2028260D02*
Y2185740D01*
X1723858Y1649174D02*
Y2017284D01*
X1956142D01*
Y1649174D02*
Y2017284D01*
X1723858Y1649174D02*
X1956142D01*
X1983021Y2065339D02*
X2396407D01*
X1983021Y1651953D02*
Y2065339D01*
Y1651953D02*
X2396407D01*
Y2065339D01*
X1457166Y2106064D02*
Y2125748D01*
Y1594252D02*
Y1613938D01*
X825276Y2106064D02*
X1457166D01*
X825276Y1613938D02*
X1457166D01*
X825276D02*
Y2106064D01*
X1457166Y2125748D02*
X1681574D01*
Y1594252D02*
Y2125748D01*
X1457166Y1594252D02*
X1681574D01*
%TF.MD5,8b721c7e73bb4f028e9e1193635dce0e*%
M02*
