%TF.GenerationSoftware,Altium Limited,Altium Designer,20.2.5 (213)*%
G04 Layer_Color=8388736*
%FSLAX26Y26*%
%MOIN*%
%TF.SameCoordinates,0FE6C2C3-B7F4-45EC-A48D-0F423D7CACB9*%
%TF.FilePolarity,Positive*%
%TF.FileFunction,Other,Mechanical_22*%
%TF.Part,Single*%
G01*
G75*
%TA.AperFunction,NonConductor*%
%ADD63C,0.004000*%
%ADD64C,0.008000*%
G36*
X2108940Y1608940D02*
Y1601060D01*
X2101060D01*
Y1608940D01*
X2108940D01*
D02*
G37*
G36*
X2087280Y1632560D02*
Y1622720D01*
X2081380D01*
Y1632560D01*
X2087280D01*
D02*
G37*
G36*
X2129720Y2109440D02*
Y2119280D01*
X2135620D01*
Y2109440D01*
X2129720D01*
D02*
G37*
G36*
X2108060Y2133060D02*
Y2140940D01*
X2115940D01*
Y2133060D01*
X2108060D01*
D02*
G37*
D63*
X2083350Y1585310D02*
G03*
X2126650Y1585310I21650J19682D01*
G01*
Y1624690D02*
G03*
X2083350Y1624690I-21650J-19682D01*
G01*
X2133650Y2156690D02*
G03*
X2090350Y2156690I-21650J-19682D01*
G01*
Y2117310D02*
G03*
X2133650Y2117310I21650J19682D01*
G01*
D64*
X2286966Y1545000D02*
X2336966D01*
X2286966D02*
Y1655000D01*
X2336966D01*
Y1545000D02*
Y1655000D01*
X2210194Y1545000D02*
X2260194D01*
X2210194D02*
Y1655000D01*
X2260194D01*
Y1545000D02*
Y1655000D01*
X2107830Y1545000D02*
X2157830D01*
X2107830D02*
Y1655000D01*
X2157830D01*
Y1545000D02*
Y1655000D01*
X2005468Y1545000D02*
X2055468D01*
X2005468D02*
Y1655000D01*
X2055468D01*
Y1545000D02*
Y1655000D01*
X2446000Y2158000D02*
X2496000D01*
Y2048000D02*
Y2158000D01*
X2446000Y2048000D02*
X2496000D01*
X2446000D02*
Y2158000D01*
X2522000Y2167000D02*
X2572000D01*
Y2057000D02*
Y2167000D01*
X2522000Y2057000D02*
X2572000D01*
X2522000D02*
Y2167000D01*
X2434000Y1646000D02*
X2484000D01*
X2434000D02*
Y1756000D01*
X2484000D01*
Y1646000D02*
Y1756000D01*
X2638000Y1541000D02*
Y1591000D01*
X2528000Y1541000D02*
X2638000D01*
X2528000D02*
Y1591000D01*
X2638000D01*
X2573456Y1779292D02*
Y1829292D01*
X2463456Y1779292D02*
X2573456D01*
X2463456D02*
Y1829292D01*
X2573456D01*
X1905000Y1941000D02*
Y1991000D01*
X1795000Y1941000D02*
X1905000D01*
X1795000D02*
Y1991000D01*
X1905000D01*
X1831000Y2114000D02*
Y2164000D01*
X1941000D01*
Y2114000D02*
Y2164000D01*
X1831000Y2114000D02*
X1941000D01*
X1915000Y1534000D02*
X1965000D01*
Y1644000D01*
X1915000D02*
X1965000D01*
X1915000Y1534000D02*
Y1644000D01*
X1885000Y2045000D02*
X1935000D01*
Y2155000D01*
X1885000D02*
X1935000D01*
X1885000Y2045000D02*
Y2155000D01*
X2424000Y1799000D02*
X2474000D01*
X2424000Y1689000D02*
Y1799000D01*
Y1689000D02*
X2474000D01*
Y1799000D01*
X2735000Y2060000D02*
X2785000D01*
Y2170000D01*
X2735000D02*
X2785000D01*
X2735000Y2060000D02*
Y2170000D01*
X2427000Y2004000D02*
X2477000D01*
X2427000Y1894000D02*
Y2004000D01*
Y1894000D02*
X2477000D01*
Y2004000D01*
X2238000Y2118000D02*
Y2168000D01*
Y2118000D02*
X2348000D01*
Y2168000D01*
X2238000D02*
X2348000D01*
X2225000Y1575000D02*
Y1625000D01*
Y1575000D02*
X2335000D01*
Y1625000D01*
X2225000D02*
X2335000D01*
%TF.MD5,28c05022a735d1a6da4af4622dbe0e70*%
M02*
