%TF.GenerationSoftware,Altium Limited,Altium Designer,20.2.5 (213)*%
G04 Layer_Color=32896*
%FSLAX26Y26*%
%MOIN*%
%TF.SameCoordinates,0FE6C2C3-B7F4-45EC-A48D-0F423D7CACB9*%
%TF.FilePolarity,Positive*%
%TF.FileFunction,Other,Mechanical_4*%
%TF.Part,Single*%
G01*
G75*
%TA.AperFunction,NonConductor*%
%ADD65C,0.000500*%
%TA.AperFunction,SMDPad,CuDef*%
%ADD66C,0.000500*%
%ADD67C,0.028059*%
D65*
X1425250Y1560250D02*
G03*
X1475250Y1510250I50000J0D01*
G01*
X2775250D02*
G03*
X2825250Y1560250I0J50000D01*
G01*
Y2160250D02*
G03*
X2775250Y2210250I-50000J0D01*
G01*
X1475250D02*
G03*
X1425250Y2160250I0J-50000D01*
G01*
X1551037Y2005919D02*
G03*
X1537258Y2019699I-13780J0D01*
G01*
Y1984266D02*
G03*
X1551037Y1998045I0J13780D01*
G01*
X1499858D02*
G03*
X1515604Y1984267I14762J984D01*
G01*
Y2019697D02*
G03*
X1499858Y2005919I-984J-14762D01*
G01*
X1499857Y1718518D02*
G03*
X1513636Y1700802I15748J-1968D01*
G01*
Y1736234D02*
G03*
X1499857Y1718518I1968J-15748D01*
G01*
X1537258Y1700802D02*
G03*
X1551037Y1718518I-1968J15748D01*
G01*
Y1718518D02*
G03*
X1537258Y1736234I-15748J1968D01*
G01*
X2810000Y1765000D02*
X2825250Y1749750D01*
X2810000Y1955000D02*
X2825250Y1970250D01*
X2810000Y1765000D02*
Y1955000D01*
X1425250Y1560250D02*
Y1760250D01*
X1475250Y1510250D02*
X2775250D01*
X1475250Y2210250D02*
X2775250D01*
X1425250Y1970250D02*
Y2160250D01*
Y1970250D02*
X1445250Y1950250D01*
Y1780250D02*
Y1950250D01*
X1425250Y1760250D02*
X1445250Y1780250D01*
X1551038Y1998046D02*
Y2005920D01*
X1515604Y1984266D02*
X1537258D01*
X1499856Y1998046D02*
Y2005920D01*
X1515604Y2019698D02*
X1537258D01*
X1513636Y1700802D02*
X1537258D01*
X1513636Y1736234D02*
X1537258D01*
D66*
X2825250Y1560250D02*
D03*
D03*
Y2160250D02*
D03*
D03*
X1425250Y1560250D02*
D03*
X1475250Y1510250D02*
D03*
X2775250D02*
D03*
Y2210250D02*
D03*
X1475250D02*
D03*
X1425250Y2160250D02*
D03*
X1551038Y2005920D02*
D03*
X1537258Y2019698D02*
D03*
Y1984266D02*
D03*
X1551038Y1998046D02*
D03*
X1499858D02*
D03*
X1515604Y1984268D02*
D03*
Y2019698D02*
D03*
X1499858Y2005920D02*
D03*
X1499856Y1718518D02*
D03*
X1513636Y1700802D02*
D03*
Y1736234D02*
D03*
X1499856Y1718518D02*
D03*
X1537258Y1700802D02*
D03*
X1551036Y1718518D02*
D03*
D03*
X1537258Y1736234D02*
D03*
X1586470Y1937022D02*
D03*
X1614030D02*
D03*
X1586470Y1783478D02*
D03*
X1614030D02*
D03*
X1425250Y1760250D02*
D03*
Y1560250D02*
D03*
X2775250Y1510250D02*
D03*
X1475250D02*
D03*
X2775250Y2210250D02*
D03*
X1475250D02*
D03*
X1425250Y2160250D02*
D03*
Y1970250D02*
D03*
X1445250Y1950250D02*
D03*
X1425250Y1970250D02*
D03*
X1445250Y1950250D02*
D03*
Y1780250D02*
D03*
D03*
X1425250Y1760250D02*
D03*
X1551038Y2005920D02*
D03*
Y1998046D02*
D03*
X1537258Y1984266D02*
D03*
X1515604D02*
D03*
X1499856Y2005920D02*
D03*
Y1998046D02*
D03*
X1537258Y2019698D02*
D03*
X1515604D02*
D03*
X1537258Y1700802D02*
D03*
X1513636D02*
D03*
X1537258Y1736234D02*
D03*
X1513636D02*
D03*
D67*
X1600250Y1937022D02*
D03*
Y1783478D02*
D03*
%TF.MD5,110edc706bb839466f596146b1c848fc*%
M02*
