%TF.GenerationSoftware,Altium Limited,Altium Designer,20.2.5 (213)*%
G04 Layer_Color=65535*
%FSLAX26Y26*%
%MOIN*%
%TF.SameCoordinates,0FE6C2C3-B7F4-45EC-A48D-0F423D7CACB9*%
%TF.FilePolarity,Positive*%
%TF.FileFunction,Legend,Top*%
%TF.Part,Single*%
G01*
G75*
%TA.AperFunction,NonConductor*%
%ADD38C,0.005000*%
%ADD39C,0.003937*%
%ADD50C,0.011811*%
%ADD51C,0.007874*%
D38*
X2577362Y1747126D02*
Y1780590D01*
Y1747126D02*
X2675788D01*
X2577362Y1949882D02*
Y1983346D01*
X2675788D01*
X2774212Y1747126D02*
X2787992D01*
Y1983346D01*
X2774212D02*
X2787992D01*
X2444890Y2038102D02*
X2681110D01*
X2444890Y2175898D02*
X2681110D01*
X2288139Y2055497D02*
X2386563D01*
Y1957071D02*
Y2055497D01*
Y1661797D02*
Y1760221D01*
X2288139Y1661797D02*
X2386563D01*
X1992863D02*
X2091289D01*
X1992863D02*
Y1760221D01*
Y1957071D02*
Y2055497D01*
X2091289D01*
X1569370Y2033228D02*
Y2041102D01*
Y1678898D02*
Y1686772D01*
X1423700Y2096220D02*
X1455196D01*
X1423700Y1623780D02*
X1455196D01*
D39*
X2390450Y2089000D02*
X2395041D01*
X2404225Y2098183D01*
X2395041Y2107367D01*
X2390450D01*
X2404225Y2098183D02*
X2418000D01*
Y2116550D02*
Y2125734D01*
Y2121142D01*
X2390450D01*
X2395041Y2116550D01*
X2368100Y2095174D02*
Y2072215D01*
X2372691Y2067624D01*
X2381875D01*
X2386466Y2072215D01*
Y2095174D01*
X2395650Y2067624D02*
X2404833D01*
X2400242D01*
Y2095174D01*
X2395650Y2090582D01*
X2480367Y1699958D02*
X2475775Y1704550D01*
X2466592D01*
X2462000Y1699958D01*
Y1695367D01*
X2466592Y1690775D01*
X2475775D01*
X2480367Y1686183D01*
Y1681592D01*
X2475775Y1677000D01*
X2466592D01*
X2462000Y1681592D01*
X2489550Y1677000D02*
X2498734D01*
X2494142D01*
Y1704550D01*
X2489550Y1699958D01*
X2260000Y1545000D02*
Y1572550D01*
X2273775D01*
X2278367Y1567958D01*
Y1558775D01*
X2273775Y1554183D01*
X2260000D01*
X2269183D02*
X2278367Y1545000D01*
X2305917Y1572550D02*
X2287550D01*
Y1558775D01*
X2296734Y1563367D01*
X2301325D01*
X2305917Y1558775D01*
Y1549592D01*
X2301325Y1545000D01*
X2292142D01*
X2287550Y1549592D01*
X2813000Y2093000D02*
X2785450D01*
Y2106775D01*
X2790041Y2111367D01*
X2799225D01*
X2803817Y2106775D01*
Y2093000D01*
Y2102183D02*
X2813000Y2111367D01*
X2790041Y2120550D02*
X2785450Y2125142D01*
Y2134325D01*
X2790041Y2138917D01*
X2794633D01*
X2799225Y2134325D01*
Y2129734D01*
Y2134325D01*
X2803817Y2138917D01*
X2808408D01*
X2813000Y2134325D01*
Y2125142D01*
X2808408Y2120550D01*
X2243000Y2168000D02*
Y2195550D01*
X2256775D01*
X2261367Y2190959D01*
Y2181775D01*
X2256775Y2177183D01*
X2243000D01*
X2252183D02*
X2261367Y2168000D01*
X2270550D02*
X2279734D01*
X2275142D01*
Y2195550D01*
X2270550Y2190959D01*
X1977450Y1570000D02*
X2005000D01*
Y1588367D01*
X1977450Y1597550D02*
X2005000D01*
Y1611325D01*
X2000408Y1615917D01*
X1982042D01*
X1977450Y1611325D01*
Y1597550D01*
X2005000Y1643467D02*
Y1625100D01*
X1986633Y1643467D01*
X1982042D01*
X1977450Y1638876D01*
Y1629692D01*
X1982042Y1625100D01*
X1989450Y2122000D02*
X2017000D01*
Y2140367D01*
X1989450Y2149550D02*
X2017000D01*
Y2163325D01*
X2012408Y2167917D01*
X1994042D01*
X1989450Y2163325D01*
Y2149550D01*
X2017000Y2177100D02*
Y2186284D01*
Y2181692D01*
X1989450D01*
X1994042Y2177100D01*
X1798450Y2086000D02*
X1826000D01*
Y2104367D01*
Y2113550D02*
Y2122734D01*
Y2118142D01*
X1798450D01*
X1803042Y2113550D01*
X2612367Y2021550D02*
X2603183D01*
X2607775D01*
Y1998592D01*
X2603183Y1994000D01*
X2598592D01*
X2594000Y1998592D01*
X2639917Y1994000D02*
X2621550D01*
X2639917Y2012367D01*
Y2016958D01*
X2635325Y2021550D01*
X2626142D01*
X2621550Y2016958D01*
X1488367Y2182550D02*
X1479183D01*
X1483775D01*
Y2159592D01*
X1479183Y2155000D01*
X1474592D01*
X1470000Y2159592D01*
X1497550Y2155000D02*
X1506734D01*
X1502142D01*
Y2182550D01*
X1497550Y2177959D01*
X1712000Y2046550D02*
X1721183D01*
X1716592D01*
Y2019000D01*
X1712000D01*
X1721183D01*
X1753325Y2041958D02*
X1748734Y2046550D01*
X1739550D01*
X1734958Y2041958D01*
Y2023592D01*
X1739550Y2019000D01*
X1748734D01*
X1753325Y2023592D01*
X1762509Y2019000D02*
X1771692D01*
X1767100D01*
Y2046550D01*
X1762509Y2041958D01*
X1829450Y1572367D02*
Y1554000D01*
X1843225D01*
Y1563183D01*
Y1554000D01*
X1857000D01*
X1829450Y1581550D02*
X1857000D01*
Y1599917D01*
Y1609100D02*
Y1618284D01*
Y1613692D01*
X1829450D01*
X1834042Y1609100D01*
X1892042Y1566367D02*
X1887450Y1561775D01*
Y1552592D01*
X1892042Y1548000D01*
X1910408D01*
X1915000Y1552592D01*
Y1561775D01*
X1910408Y1566367D01*
X1915000Y1593917D02*
Y1575550D01*
X1896633Y1593917D01*
X1892042D01*
X1887450Y1589325D01*
Y1580142D01*
X1892042Y1575550D01*
X1915000Y1616876D02*
X1887450D01*
X1901225Y1603100D01*
Y1621467D01*
X1912367Y2176959D02*
X1907775Y2181550D01*
X1898592D01*
X1894000Y2176959D01*
Y2158592D01*
X1898592Y2154000D01*
X1907775D01*
X1912367Y2158592D01*
X1921550Y2181550D02*
X1939917D01*
Y2176959D01*
X1921550Y2158592D01*
Y2154000D01*
X2413959Y1748633D02*
X2418550Y1753225D01*
Y1762408D01*
X2413959Y1767000D01*
X2395592D01*
X2391000Y1762408D01*
Y1753225D01*
X2395592Y1748633D01*
X2391000Y1725675D02*
X2418550D01*
X2404775Y1739450D01*
Y1721083D01*
X2398041Y1947367D02*
X2393450Y1942775D01*
Y1933592D01*
X2398041Y1929000D01*
X2416408D01*
X2421000Y1933592D01*
Y1942775D01*
X2416408Y1947367D01*
X2398041Y1956550D02*
X2393450Y1961142D01*
Y1970325D01*
X2398041Y1974917D01*
X2402633D01*
X2407225Y1970325D01*
Y1965734D01*
Y1970325D01*
X2411817Y1974917D01*
X2416408D01*
X2421000Y1970325D01*
Y1961142D01*
X2416408Y1956550D01*
D50*
X2524213Y1806181D02*
G03*
X2524213Y1806181I-3937J0D01*
G01*
D51*
X2716937Y2107000D02*
G03*
X2716937Y2107000I-3937J0D01*
G01*
X2362942Y2080104D02*
G03*
X2362942Y2080104I-3937J0D01*
G01*
X1702992Y1722244D02*
G03*
X1702992Y1722244I-3937J0D01*
G01*
X1846094Y2069694D02*
X1857906D01*
X2474756Y1668118D02*
X2569244D01*
X2474756Y1557882D02*
X2569244D01*
X1736142Y1737756D02*
Y1928700D01*
X1943858D01*
Y1737756D02*
Y1928700D01*
X1736142Y1737756D02*
X1943858D01*
X1737440Y1659016D02*
Y1723976D01*
%TF.MD5,098a5e61d14c26f895bbaf97000f4667*%
M02*
