G04 #@! TF.FileFunction,Paste,Bot*
%FSLAX46Y46*%
G04 Gerber Fmt 4.6, Leading zero omitted, Abs format (unit mm)*
G04 Created by KiCad (PCBNEW 4.0.7) date 05/21/18 17:19:51*
%MOMM*%
%LPD*%
G01*
G04 APERTURE LIST*
%ADD10C,0.100000*%
%ADD11R,0.650000X0.575000*%
%ADD12R,2.000000X0.800000*%
%ADD13R,0.575000X0.650000*%
%ADD14R,1.500000X0.970000*%
%ADD15R,0.670000X1.000000*%
%ADD16R,0.650000X0.450000*%
%ADD17R,1.060000X0.650000*%
%ADD18R,0.500000X0.500000*%
G04 APERTURE END LIST*
D10*
D11*
X160400000Y-85000000D03*
X160400000Y-84225000D03*
D12*
X160143000Y-107774500D03*
X160143000Y-106674500D03*
X160143000Y-105574500D03*
X160143000Y-104474500D03*
X160143000Y-103374500D03*
X160143000Y-102274500D03*
X160143000Y-101174500D03*
X160143000Y-98174500D03*
X160143000Y-97074500D03*
X160143000Y-95974500D03*
X160143000Y-94874500D03*
X160143000Y-93774500D03*
X172343000Y-93774500D03*
X172343000Y-94874500D03*
X172343000Y-95974500D03*
X172343000Y-97074500D03*
X172343000Y-98174500D03*
X172343000Y-101174500D03*
X172343000Y-102274500D03*
X172343000Y-103374500D03*
X172343000Y-104474500D03*
X172343000Y-105574500D03*
X172343000Y-106674500D03*
X172343000Y-107774500D03*
D11*
X169672000Y-86861500D03*
X169672000Y-87636500D03*
D13*
X156724500Y-98171000D03*
X155949500Y-98171000D03*
X156724500Y-99441000D03*
X155949500Y-99441000D03*
X175628000Y-105918000D03*
X176403000Y-105918000D03*
D11*
X166497000Y-89592000D03*
X166497000Y-90367000D03*
D13*
X156851500Y-107823000D03*
X156076500Y-107823000D03*
X175628000Y-107188000D03*
X176403000Y-107188000D03*
D14*
X160500000Y-86900000D03*
X160500000Y-88810000D03*
D15*
X182875000Y-90400000D03*
X181125000Y-90400000D03*
X182875000Y-86800000D03*
X181125000Y-86800000D03*
X182875000Y-83200000D03*
X181125000Y-83200000D03*
X182875000Y-79600000D03*
X181125000Y-79600000D03*
D13*
X108387500Y-90400000D03*
X107612500Y-90400000D03*
X108387500Y-86800000D03*
X107612500Y-86800000D03*
X108387500Y-83200000D03*
X107612500Y-83200000D03*
X176276000Y-96012000D03*
X175501000Y-96012000D03*
X176403000Y-100711000D03*
X175628000Y-100711000D03*
X176403000Y-101981000D03*
X175628000Y-101981000D03*
D11*
X166497000Y-84994900D03*
X166497000Y-84219900D03*
X168211500Y-87636500D03*
X168211500Y-86861500D03*
X163423600Y-84219900D03*
X163423600Y-84994900D03*
D13*
X175628000Y-103378000D03*
X176403000Y-103378000D03*
X155949500Y-104394000D03*
X156724500Y-104394000D03*
X175628000Y-104648000D03*
X176403000Y-104648000D03*
X108387500Y-79600000D03*
X107612500Y-79600000D03*
D16*
X166499580Y-86980000D03*
X166499580Y-88280000D03*
X164599580Y-87630000D03*
X166499580Y-87630000D03*
X164599580Y-88280000D03*
X164599580Y-86980000D03*
D17*
X154490600Y-105869700D03*
X154490600Y-106819700D03*
X154490600Y-107769700D03*
X152290600Y-107769700D03*
X152290600Y-105869700D03*
D18*
X165023800Y-85221700D03*
X165023800Y-84221700D03*
D14*
X157657800Y-92669400D03*
X157657800Y-94579400D03*
D15*
X104875000Y-90400000D03*
X103125000Y-90400000D03*
X185125000Y-90400000D03*
X186875000Y-90400000D03*
X185125000Y-86800000D03*
X186875000Y-86800000D03*
X185125000Y-83200000D03*
X186875000Y-83200000D03*
X185125000Y-79600000D03*
X186875000Y-79600000D03*
X104875000Y-86800000D03*
X103125000Y-86800000D03*
X104875000Y-83200000D03*
X103125000Y-83200000D03*
X104875000Y-79600000D03*
X103125000Y-79600000D03*
M02*
