G04 #@! TF.FileFunction,Soldermask,Bot*
%FSLAX46Y46*%
G04 Gerber Fmt 4.6, Leading zero omitted, Abs format (unit mm)*
G04 Created by KiCad (PCBNEW 4.0.7) date 05/21/18 17:19:51*
%MOMM*%
%LPD*%
G01*
G04 APERTURE LIST*
%ADD10C,0.100000*%
%ADD11C,2.600000*%
%ADD12R,3.900120X3.900120*%
%ADD13C,1.700000*%
%ADD14R,1.050000X0.975000*%
%ADD15R,2.400000X1.200000*%
%ADD16C,1.000000*%
%ADD17R,0.975000X1.050000*%
%ADD18R,1.900000X1.370000*%
%ADD19R,1.070000X1.400000*%
%ADD20C,2.400000*%
%ADD21C,1.600000*%
%ADD22R,1.050000X0.850000*%
%ADD23R,1.460000X1.050000*%
%ADD24C,3.140000*%
%ADD25C,2.640000*%
%ADD26C,2.500000*%
%ADD27C,2.150000*%
%ADD28R,0.900000X0.900000*%
G04 APERTURE END LIST*
D10*
D11*
X185000000Y-105000000D03*
X110000000Y-105000000D03*
X110000000Y-65000000D03*
D12*
X130800000Y-96999860D03*
X130800000Y-102999340D03*
X135499000Y-99999600D03*
D13*
X176654000Y-81992000D03*
D14*
X160400000Y-85000000D03*
X160400000Y-84225000D03*
D15*
X160143000Y-107774500D03*
X160143000Y-106674500D03*
X160143000Y-105574500D03*
X160143000Y-104474500D03*
X160143000Y-103374500D03*
X160143000Y-102274500D03*
X160143000Y-101174500D03*
X160143000Y-98174500D03*
X160143000Y-97074500D03*
X160143000Y-95974500D03*
X160143000Y-94874500D03*
X160143000Y-93774500D03*
X172343000Y-93774500D03*
X172343000Y-94874500D03*
X172343000Y-95974500D03*
X172343000Y-97074500D03*
X172343000Y-98174500D03*
X172343000Y-101174500D03*
X172343000Y-102274500D03*
X172343000Y-103374500D03*
X172343000Y-104474500D03*
X172343000Y-105574500D03*
X172343000Y-106674500D03*
X172343000Y-107774500D03*
D16*
X112268000Y-71247000D03*
X112768000Y-71747000D03*
X111768000Y-71747000D03*
X112768000Y-70747000D03*
X111768000Y-70747000D03*
D14*
X169672000Y-86861500D03*
X169672000Y-87636500D03*
D17*
X156724500Y-98171000D03*
X155949500Y-98171000D03*
X156724500Y-99441000D03*
X155949500Y-99441000D03*
X175628000Y-105918000D03*
X176403000Y-105918000D03*
D14*
X166497000Y-89592000D03*
X166497000Y-90367000D03*
D17*
X156851500Y-107823000D03*
X156076500Y-107823000D03*
X175628000Y-107188000D03*
X176403000Y-107188000D03*
D18*
X160500000Y-86900000D03*
X160500000Y-88810000D03*
D19*
X182875000Y-90400000D03*
X181125000Y-90400000D03*
X182875000Y-86800000D03*
X181125000Y-86800000D03*
X182875000Y-83200000D03*
X181125000Y-83200000D03*
X182875000Y-79600000D03*
X181125000Y-79600000D03*
D17*
X108387500Y-90400000D03*
X107612500Y-90400000D03*
X108387500Y-86800000D03*
X107612500Y-86800000D03*
X108387500Y-83200000D03*
X107612500Y-83200000D03*
X176276000Y-96012000D03*
X175501000Y-96012000D03*
X176403000Y-100711000D03*
X175628000Y-100711000D03*
X176403000Y-101981000D03*
X175628000Y-101981000D03*
D14*
X166497000Y-84994900D03*
X166497000Y-84219900D03*
X168211500Y-87636500D03*
X168211500Y-86861500D03*
X163423600Y-84219900D03*
X163423600Y-84994900D03*
D17*
X175628000Y-103378000D03*
X176403000Y-103378000D03*
X155949500Y-104394000D03*
X156724500Y-104394000D03*
X175628000Y-104648000D03*
X176403000Y-104648000D03*
X108387500Y-79600000D03*
X107612500Y-79600000D03*
D20*
X102280000Y-74380000D03*
X102280000Y-66180000D03*
D21*
X102280000Y-72280000D03*
X102280000Y-70280000D03*
X102280000Y-68280000D03*
D22*
X166499580Y-86980000D03*
X166499580Y-88280000D03*
X164599580Y-87630000D03*
X166499580Y-87630000D03*
X164599580Y-88280000D03*
X164599580Y-86980000D03*
D23*
X154490600Y-105869700D03*
X154490600Y-106819700D03*
X154490600Y-107769700D03*
X152290600Y-107769700D03*
X152290600Y-105869700D03*
D24*
X142460000Y-82460000D03*
X147540000Y-82460000D03*
X147540000Y-87540000D03*
X142460000Y-87540000D03*
D25*
X145000000Y-85000000D03*
D26*
X185324000Y-100502000D03*
D27*
X187814000Y-99242000D03*
X187814000Y-94742000D03*
D26*
X185324000Y-93492000D03*
D28*
X165023800Y-85221700D03*
X165023800Y-84221700D03*
D18*
X157657800Y-92669400D03*
X157657800Y-94579400D03*
D19*
X104875000Y-90400000D03*
X103125000Y-90400000D03*
X185125000Y-90400000D03*
X186875000Y-90400000D03*
X185125000Y-86800000D03*
X186875000Y-86800000D03*
X185125000Y-83200000D03*
X186875000Y-83200000D03*
X185125000Y-79600000D03*
X186875000Y-79600000D03*
X104875000Y-86800000D03*
X103125000Y-86800000D03*
X104875000Y-83200000D03*
X103125000Y-83200000D03*
X104875000Y-79600000D03*
X103125000Y-79600000D03*
D11*
X185000000Y-65000000D03*
M02*
