G04 #@! TF.FileFunction,Legend,Top*
%FSLAX46Y46*%
G04 Gerber Fmt 4.6, Leading zero omitted, Abs format (unit mm)*
G04 Created by KiCad (PCBNEW 4.0.7) date 05/21/18 17:19:51*
%MOMM*%
%LPD*%
G01*
G04 APERTURE LIST*
%ADD10C,0.100000*%
%ADD11C,0.130000*%
%ADD12C,0.160000*%
%ADD13C,0.150000*%
%ADD14C,0.200000*%
%ADD15C,0.120000*%
%ADD16C,0.127000*%
%ADD17C,0.099060*%
%ADD18C,0.070000*%
%ADD19C,0.060000*%
%ADD20C,0.140000*%
G04 APERTURE END LIST*
D10*
D11*
X104788486Y-91363676D02*
X104788486Y-90754152D01*
X105131343Y-91058914D02*
X104445629Y-91058914D01*
X104231343Y-90487486D02*
X105131343Y-90220819D01*
X104231343Y-89954152D01*
X105088486Y-89382724D02*
X105131343Y-89458914D01*
X105131343Y-89611295D01*
X105088486Y-89687486D01*
X105002771Y-89725581D01*
X104659914Y-89725581D01*
X104574200Y-89687486D01*
X104531343Y-89611295D01*
X104531343Y-89458914D01*
X104574200Y-89382724D01*
X104659914Y-89344629D01*
X104745629Y-89344629D01*
X104831343Y-89725581D01*
X104788486Y-80848076D02*
X104788486Y-80238552D01*
X104231343Y-79971886D02*
X105131343Y-79705219D01*
X104231343Y-79438552D01*
X105088486Y-78867124D02*
X105131343Y-78943314D01*
X105131343Y-79095695D01*
X105088486Y-79171886D01*
X105002771Y-79209981D01*
X104659914Y-79209981D01*
X104574200Y-79171886D01*
X104531343Y-79095695D01*
X104531343Y-78943314D01*
X104574200Y-78867124D01*
X104659914Y-78829029D01*
X104745629Y-78829029D01*
X104831343Y-79209981D01*
D12*
X127362095Y-89561143D02*
X127095428Y-89132571D01*
X126904952Y-89561143D02*
X126904952Y-88661143D01*
X127209714Y-88661143D01*
X127285905Y-88704000D01*
X127324000Y-88746857D01*
X127362095Y-88832571D01*
X127362095Y-88961143D01*
X127324000Y-89046857D01*
X127285905Y-89089714D01*
X127209714Y-89132571D01*
X126904952Y-89132571D01*
X127704952Y-89089714D02*
X127971619Y-89089714D01*
X128085905Y-89561143D02*
X127704952Y-89561143D01*
X127704952Y-88661143D01*
X128085905Y-88661143D01*
X128390667Y-89518286D02*
X128504953Y-89561143D01*
X128695429Y-89561143D01*
X128771619Y-89518286D01*
X128809715Y-89475429D01*
X128847810Y-89389714D01*
X128847810Y-89304000D01*
X128809715Y-89218286D01*
X128771619Y-89175429D01*
X128695429Y-89132571D01*
X128543048Y-89089714D01*
X128466857Y-89046857D01*
X128428762Y-89004000D01*
X128390667Y-88918286D01*
X128390667Y-88832571D01*
X128428762Y-88746857D01*
X128466857Y-88704000D01*
X128543048Y-88661143D01*
X128733524Y-88661143D01*
X128847810Y-88704000D01*
X129190667Y-89089714D02*
X129457334Y-89089714D01*
X129571620Y-89561143D02*
X129190667Y-89561143D01*
X129190667Y-88661143D01*
X129571620Y-88661143D01*
X129800191Y-88661143D02*
X130257334Y-88661143D01*
X130028763Y-89561143D02*
X130028763Y-88661143D01*
X135820286Y-89026214D02*
X135934572Y-89069071D01*
X135972667Y-89111929D01*
X136010762Y-89197643D01*
X136010762Y-89326214D01*
X135972667Y-89411929D01*
X135934572Y-89454786D01*
X135858381Y-89497643D01*
X135553619Y-89497643D01*
X135553619Y-88597643D01*
X135820286Y-88597643D01*
X135896476Y-88640500D01*
X135934572Y-88683357D01*
X135972667Y-88769071D01*
X135972667Y-88854786D01*
X135934572Y-88940500D01*
X135896476Y-88983357D01*
X135820286Y-89026214D01*
X135553619Y-89026214D01*
X136506000Y-88597643D02*
X136658381Y-88597643D01*
X136734572Y-88640500D01*
X136810762Y-88726214D01*
X136848857Y-88897643D01*
X136848857Y-89197643D01*
X136810762Y-89369071D01*
X136734572Y-89454786D01*
X136658381Y-89497643D01*
X136506000Y-89497643D01*
X136429810Y-89454786D01*
X136353619Y-89369071D01*
X136315524Y-89197643D01*
X136315524Y-88897643D01*
X136353619Y-88726214D01*
X136429810Y-88640500D01*
X136506000Y-88597643D01*
X137344095Y-88597643D02*
X137496476Y-88597643D01*
X137572667Y-88640500D01*
X137648857Y-88726214D01*
X137686952Y-88897643D01*
X137686952Y-89197643D01*
X137648857Y-89369071D01*
X137572667Y-89454786D01*
X137496476Y-89497643D01*
X137344095Y-89497643D01*
X137267905Y-89454786D01*
X137191714Y-89369071D01*
X137153619Y-89197643D01*
X137153619Y-88897643D01*
X137191714Y-88726214D01*
X137267905Y-88640500D01*
X137344095Y-88597643D01*
X137915523Y-88597643D02*
X138372666Y-88597643D01*
X138144095Y-89497643D02*
X138144095Y-88597643D01*
D13*
X126299120Y-107200500D02*
X135300880Y-107200500D01*
X126299120Y-110700620D02*
X135300880Y-110700620D01*
X135300880Y-110700620D02*
X135300880Y-96199760D01*
X135300880Y-96199760D02*
X126299120Y-96199760D01*
X126299120Y-96199760D02*
X126299120Y-110700620D01*
X152154000Y-91992000D02*
X152154000Y-99242000D01*
X152154000Y-109992000D02*
X152154000Y-106492000D01*
X180154000Y-106492000D02*
X180154000Y-109992000D01*
X180154000Y-87992000D02*
X180154000Y-103742000D01*
X152154000Y-87742000D02*
X152154000Y-90492000D01*
X180154000Y-109992000D02*
X152154000Y-109992000D01*
D14*
X172354000Y-78042000D02*
G75*
G03X172354000Y-78042000I-100000J0D01*
G01*
D13*
X175854000Y-79492000D02*
X180154000Y-79492000D01*
X180154000Y-79492000D02*
X180154000Y-84992000D01*
X152154000Y-85242000D02*
X152154000Y-79492000D01*
X152154000Y-79492000D02*
X154854000Y-79492000D01*
D15*
X111283000Y-69597000D02*
X110618000Y-69597000D01*
X113918000Y-72897000D02*
X113253000Y-72897000D01*
X111283000Y-72897000D02*
X110618000Y-72897000D01*
X113918000Y-69597000D02*
X113253000Y-69597000D01*
X110618000Y-72647000D02*
X110618000Y-72897000D01*
X110618000Y-69847000D02*
X110618000Y-69597000D01*
X113918000Y-69597000D02*
X113918000Y-69847000D01*
D13*
X122555000Y-108661200D02*
X116205000Y-108661200D01*
X116205000Y-108661200D02*
X116205000Y-106121200D01*
X116205000Y-106121200D02*
X122555000Y-106121200D01*
X122555000Y-106121200D02*
X122555000Y-108661200D01*
D11*
X185436000Y-89154000D02*
X184293000Y-86487000D01*
X186071000Y-89154000D02*
X185436000Y-89154000D01*
X185436000Y-82296000D02*
X184293000Y-84582000D01*
X186071000Y-82296000D02*
X185436000Y-82296000D01*
X189373000Y-89154000D02*
X190008000Y-89154000D01*
X190008000Y-82296000D02*
X190008000Y-89154000D01*
X190008000Y-82296000D02*
X189373000Y-82296000D01*
D15*
X110668000Y-76117000D02*
X114588000Y-76117000D01*
X114588000Y-76117000D02*
X114588000Y-73997000D01*
X114588000Y-73997000D02*
X110668000Y-73997000D01*
X106763000Y-83871000D02*
X106763000Y-87791000D01*
X106763000Y-87791000D02*
X108883000Y-87791000D01*
X108883000Y-87791000D02*
X108883000Y-83871000D01*
X124660000Y-104900000D02*
X124660000Y-100980000D01*
X124660000Y-100980000D02*
X122540000Y-100980000D01*
X122540000Y-100980000D02*
X122540000Y-104900000D01*
X113564512Y-98500874D02*
X113564512Y-98800874D01*
X112144512Y-98500874D02*
X112144512Y-98800874D01*
X111151512Y-98500874D02*
X111151512Y-98800874D01*
X109731512Y-98500874D02*
X109731512Y-98800874D01*
X107800000Y-72696000D02*
X108100000Y-72696000D01*
X107800000Y-74116000D02*
X108100000Y-74116000D01*
X119305000Y-74572000D02*
X119305000Y-74272000D01*
X120725000Y-74572000D02*
X120725000Y-74272000D01*
X117019000Y-74572000D02*
X117019000Y-74272000D01*
X118439000Y-74572000D02*
X118439000Y-74272000D01*
D16*
X117558820Y-86586060D02*
X117558820Y-89385140D01*
X117660420Y-89385140D02*
X117660420Y-86586060D01*
X117759480Y-86586060D02*
X117759480Y-89385140D01*
X117858540Y-89385140D02*
X117858540Y-86586060D01*
X117960140Y-89385140D02*
X117960140Y-86586060D01*
X117459760Y-89385140D02*
X121859040Y-89385140D01*
X121859040Y-89385140D02*
X121859040Y-86586060D01*
X121859040Y-86586060D02*
X117459760Y-86586060D01*
X117459760Y-86586060D02*
X117459760Y-89385140D01*
D15*
X123780000Y-98890000D02*
X124220000Y-98890000D01*
X123780000Y-99910000D02*
X124220000Y-99910000D01*
D17*
X126500000Y-63750000D02*
X126500000Y-63200000D01*
X118500000Y-63750000D02*
X118500000Y-63200000D01*
X118500000Y-66100000D02*
X126500000Y-66100000D01*
X126500500Y-61100000D02*
X126500500Y-59501120D01*
X118499500Y-61100000D02*
X118499500Y-59501120D01*
X118500000Y-66100000D02*
X118500000Y-65600000D01*
X118499500Y-59501120D02*
X126500500Y-59501120D01*
X126500000Y-65600000D02*
X126500000Y-66100000D01*
X171500000Y-63850000D02*
X171500000Y-63300000D01*
X163500000Y-63850000D02*
X163500000Y-63300000D01*
X163500000Y-66200000D02*
X171500000Y-66200000D01*
X171500500Y-61200000D02*
X171500500Y-59601120D01*
X163499500Y-61200000D02*
X163499500Y-59601120D01*
X163500000Y-66200000D02*
X163500000Y-65700000D01*
X163499500Y-59601120D02*
X171500500Y-59601120D01*
X171500000Y-65700000D02*
X171500000Y-66200000D01*
D15*
X117346800Y-70639800D02*
X117346800Y-70939800D01*
X115926800Y-70639800D02*
X115926800Y-70939800D01*
X116452071Y-83722779D02*
X116852071Y-83722779D01*
X116452071Y-77122779D02*
X116452071Y-83722779D01*
X122052071Y-77522779D02*
X122052071Y-82722779D01*
X109848071Y-83722779D02*
X110248071Y-83722779D01*
X109848071Y-77122779D02*
X109848071Y-83722779D01*
X115448071Y-77522779D02*
X115448071Y-82722779D01*
X105027000Y-86580000D02*
X105027000Y-86140000D01*
X106047000Y-86580000D02*
X106047000Y-86140000D01*
X116203000Y-92320400D02*
X116203000Y-91880400D01*
X117223000Y-92320400D02*
X117223000Y-91880400D01*
D13*
X131629154Y-93716142D02*
X125629154Y-93716142D01*
X125629154Y-93716142D02*
X125629154Y-89906142D01*
X125629154Y-89906142D02*
X131629154Y-89906142D01*
X131629154Y-89906142D02*
X131629154Y-93716142D01*
X133753600Y-89839800D02*
X139753600Y-89839800D01*
X139753600Y-89839800D02*
X139753600Y-93649800D01*
X139753600Y-93649800D02*
X133753600Y-93649800D01*
X133753600Y-93649800D02*
X133753600Y-89839800D01*
X104280000Y-64780000D02*
X100280000Y-64780000D01*
X104280000Y-75780000D02*
X104280000Y-64780000D01*
X100280000Y-75780000D02*
X104280000Y-75780000D01*
X100280000Y-64780000D02*
X100280000Y-75780000D01*
X128556000Y-71215500D02*
X128556000Y-72215500D01*
X138906000Y-71215500D02*
X138906000Y-72290500D01*
X138906000Y-81565500D02*
X138906000Y-80490500D01*
X128556000Y-81565500D02*
X128556000Y-80490500D01*
X128556000Y-71215500D02*
X129631000Y-71215500D01*
X128556000Y-81565500D02*
X129631000Y-81565500D01*
X138906000Y-81565500D02*
X137831000Y-81565500D01*
X138906000Y-71215500D02*
X137831000Y-71215500D01*
X128556000Y-72215500D02*
X127531000Y-72215500D01*
D15*
X115022071Y-84773779D02*
X115022071Y-86473779D01*
X113322071Y-84923779D02*
X113322071Y-86473779D01*
X119509711Y-99310400D02*
G75*
G03X119509711Y-99310400I-70711J0D01*
G01*
D10*
X120189000Y-98410400D02*
G75*
G03X120189000Y-98410400I-150000J0D01*
G01*
D16*
X119439000Y-98860400D02*
X118989000Y-99310400D01*
X115659000Y-99260400D02*
X115189000Y-99260400D01*
X115189000Y-99260400D02*
X115189000Y-98790400D01*
X115189000Y-95530400D02*
X115189000Y-95060400D01*
X115189000Y-95060400D02*
X115659000Y-95060400D01*
X118919000Y-95060400D02*
X119389000Y-95060400D01*
X119389000Y-95060400D02*
X119389000Y-95530400D01*
D13*
X180213000Y-69850000D02*
X180213000Y-74930000D01*
X180213000Y-74930000D02*
X175641000Y-74930000D01*
X175641000Y-74930000D02*
X175641000Y-69850000D01*
X175641000Y-69850000D02*
X180213000Y-69850000D01*
X178689000Y-69850000D02*
X178689000Y-70358000D01*
X178689000Y-70358000D02*
X177419000Y-70358000D01*
X177419000Y-70358000D02*
X177419000Y-69850000D01*
D18*
X169121220Y-69041400D02*
X169248220Y-69168400D01*
X168994220Y-69168400D02*
X169121220Y-69041400D01*
X169121220Y-69295400D02*
X168994220Y-69168400D01*
X169248220Y-69168400D02*
X169121220Y-69295400D01*
D15*
X167600000Y-67100000D02*
X168900000Y-67100000D01*
X168900000Y-68900000D02*
X167600000Y-68900000D01*
D18*
X123371220Y-69041400D02*
X123498220Y-69168400D01*
X123244220Y-69168400D02*
X123371220Y-69041400D01*
X123371220Y-69295400D02*
X123244220Y-69168400D01*
X123498220Y-69168400D02*
X123371220Y-69295400D01*
D15*
X121850000Y-67100000D02*
X123150000Y-67100000D01*
X123150000Y-68900000D02*
X121850000Y-68900000D01*
D13*
X125506000Y-73152200D02*
X125506000Y-76352200D01*
X125506000Y-76352200D02*
X122906000Y-76352200D01*
X122906000Y-76352200D02*
X122906000Y-73152200D01*
X122906000Y-73152200D02*
X125506000Y-73152200D01*
X159351055Y-68327293D02*
X162551055Y-68327293D01*
X162551055Y-68327293D02*
X162551055Y-70927293D01*
X162551055Y-70927293D02*
X159351055Y-70927293D01*
X159351055Y-70927293D02*
X159351055Y-68327293D01*
D19*
X140834400Y-65786000D02*
X140732800Y-65532000D01*
X140732800Y-66040000D02*
X140834400Y-65786000D01*
X140986800Y-65786000D02*
X140732800Y-66040000D01*
X140732800Y-65532000D02*
X140986800Y-65786000D01*
D13*
X139575000Y-60024000D02*
X150425000Y-60024000D01*
X150425000Y-63224000D02*
X150425000Y-63754000D01*
X150425000Y-63754000D02*
X148810000Y-63754000D01*
X148810000Y-63754000D02*
X148810000Y-66024000D01*
X148810000Y-66024000D02*
X141190000Y-66024000D01*
X141190000Y-66024000D02*
X141190000Y-63754000D01*
X141190000Y-63754000D02*
X139575000Y-63754000D01*
X139575000Y-63754000D02*
X139575000Y-63224000D01*
D15*
X164844000Y-68596800D02*
X164844000Y-68156800D01*
X165864000Y-68596800D02*
X165864000Y-68156800D01*
X186844000Y-93652000D02*
X186614000Y-93652000D01*
X190514000Y-93132000D02*
X190514000Y-100852000D01*
X190514000Y-100852000D02*
X186614000Y-100852000D01*
X183504000Y-93132000D02*
X183504000Y-93652000D01*
X190514000Y-93132000D02*
X186614000Y-93132000D01*
X186844000Y-100332000D02*
X186614000Y-100332000D01*
X184014000Y-93652000D02*
X183504000Y-93652000D01*
X184014000Y-93132000D02*
X183504000Y-93132000D01*
X186844000Y-99792000D02*
X186844000Y-100332000D01*
X184014000Y-100332000D02*
X183504000Y-100332000D01*
X183504000Y-100332000D02*
X183504000Y-100852000D01*
X184014000Y-100852000D02*
X183504000Y-100852000D01*
X186844000Y-93652000D02*
X186844000Y-94192000D01*
X186844000Y-95292000D02*
X186844000Y-98692000D01*
D10*
X112573017Y-91440000D02*
G75*
G03X112573017Y-91440000I-559017J0D01*
G01*
X102667017Y-105664000D02*
G75*
G03X102667017Y-105664000I-559017J0D01*
G01*
X105715017Y-105664000D02*
G75*
G03X105715017Y-105664000I-559017J0D01*
G01*
X145610797Y-95361760D02*
G75*
G03X145610797Y-95361760I-559017J0D01*
G01*
X137338017Y-65532000D02*
G75*
G03X137338017Y-65532000I-559017J0D01*
G01*
X133147017Y-65532000D02*
G75*
G03X133147017Y-65532000I-559017J0D01*
G01*
X147777417Y-105867200D02*
G75*
G03X147777417Y-105867200I-559017J0D01*
G01*
D15*
X138450000Y-100800000D02*
X138900000Y-100800000D01*
X141750000Y-100800000D02*
X141750000Y-96650000D01*
X138450000Y-100800000D02*
X138450000Y-96650000D01*
X138450000Y-99400000D02*
X141750000Y-99400000D01*
X141300000Y-100800000D02*
X141750000Y-100800000D01*
X141650000Y-103215000D02*
X141200000Y-103215000D01*
X138350000Y-103215000D02*
X138350000Y-107365000D01*
X141650000Y-103215000D02*
X141650000Y-107365000D01*
X141650000Y-104615000D02*
X138350000Y-104615000D01*
X138800000Y-103215000D02*
X138350000Y-103215000D01*
X108171000Y-95633000D02*
G75*
G03X107821000Y-95283000I-350000J0D01*
G01*
X107821000Y-102583000D02*
G75*
G03X108171000Y-102233000I0J350000D01*
G01*
X101221000Y-95283000D02*
G75*
G03X100871000Y-95633000I0J-350000D01*
G01*
X100871000Y-102233000D02*
G75*
G03X101221000Y-102583000I350000J0D01*
G01*
X108171000Y-102233000D02*
X108171000Y-95633000D01*
X106521000Y-102583000D02*
X107821000Y-102583000D01*
X101221000Y-102583000D02*
X102521000Y-102583000D01*
X106521000Y-95283000D02*
X107821000Y-95283000D01*
X101221000Y-95283000D02*
X102521000Y-95283000D01*
X100871000Y-102233000D02*
X100871000Y-95633000D01*
D13*
X154505500Y-76034000D02*
X154505500Y-75809000D01*
X147255500Y-76034000D02*
X147255500Y-75709000D01*
X147255500Y-68784000D02*
X147255500Y-69109000D01*
X154505500Y-68784000D02*
X154505500Y-69109000D01*
X154505500Y-76034000D02*
X154180500Y-76034000D01*
X154505500Y-68784000D02*
X154180500Y-68784000D01*
X147255500Y-68784000D02*
X147580500Y-68784000D01*
X147255500Y-76034000D02*
X147580500Y-76034000D01*
X154505500Y-75809000D02*
X155930500Y-75809000D01*
D11*
X184378676Y-108839743D02*
X184378676Y-107939743D01*
X184378676Y-108368314D02*
X184835819Y-108368314D01*
X184835819Y-108839743D02*
X184835819Y-107939743D01*
X185559628Y-108239743D02*
X185559628Y-108839743D01*
X185369152Y-107896886D02*
X185178676Y-108539743D01*
X185673914Y-108539743D01*
X109392796Y-108819423D02*
X109392796Y-107919423D01*
X109392796Y-108347994D02*
X109849939Y-108347994D01*
X109849939Y-108819423D02*
X109849939Y-107919423D01*
X110154701Y-107919423D02*
X110649939Y-107919423D01*
X110383272Y-108262280D01*
X110497558Y-108262280D01*
X110573748Y-108305137D01*
X110611844Y-108347994D01*
X110649939Y-108433709D01*
X110649939Y-108647994D01*
X110611844Y-108733709D01*
X110573748Y-108776566D01*
X110497558Y-108819423D01*
X110268986Y-108819423D01*
X110192796Y-108776566D01*
X110154701Y-108733709D01*
X109390476Y-62207143D02*
X109390476Y-61307143D01*
X109390476Y-61735714D02*
X109847619Y-61735714D01*
X109847619Y-62207143D02*
X109847619Y-61307143D01*
X110647619Y-62207143D02*
X110190476Y-62207143D01*
X110419047Y-62207143D02*
X110419047Y-61307143D01*
X110342857Y-61435714D01*
X110266666Y-61521429D01*
X110190476Y-61564286D01*
X134537000Y-95018867D02*
X134537000Y-95518867D01*
X134508428Y-95618867D01*
X134451285Y-95685533D01*
X134365571Y-95718867D01*
X134308428Y-95718867D01*
X135137000Y-95718867D02*
X134794143Y-95718867D01*
X134965571Y-95718867D02*
X134965571Y-95018867D01*
X134908428Y-95118867D01*
X134851286Y-95185533D01*
X134794143Y-95218867D01*
X165222267Y-76981105D02*
X165222267Y-77552533D01*
X165188933Y-77666819D01*
X165122267Y-77743010D01*
X165022267Y-77781105D01*
X164955600Y-77781105D01*
X165855600Y-77247771D02*
X165855600Y-77781105D01*
X165688933Y-76943010D02*
X165522266Y-77514438D01*
X165955600Y-77514438D01*
X157672100Y-71281100D02*
X157643529Y-71314433D01*
X157557815Y-71347767D01*
X157500672Y-71347767D01*
X157414957Y-71314433D01*
X157357815Y-71247767D01*
X157329243Y-71181100D01*
X157300672Y-71047767D01*
X157300672Y-70947767D01*
X157329243Y-70814433D01*
X157357815Y-70747767D01*
X157414957Y-70681100D01*
X157500672Y-70647767D01*
X157557815Y-70647767D01*
X157643529Y-70681100D01*
X157672100Y-70714433D01*
X157872100Y-70647767D02*
X158243529Y-70647767D01*
X158043529Y-70914433D01*
X158129243Y-70914433D01*
X158186386Y-70947767D01*
X158214957Y-70981100D01*
X158243529Y-71047767D01*
X158243529Y-71214433D01*
X158214957Y-71281100D01*
X158186386Y-71314433D01*
X158129243Y-71347767D01*
X157957815Y-71347767D01*
X157900672Y-71314433D01*
X157872100Y-71281100D01*
X111810857Y-68196667D02*
X111810857Y-68763333D01*
X111839429Y-68830000D01*
X111868000Y-68863333D01*
X111925143Y-68896667D01*
X112039429Y-68896667D01*
X112096571Y-68863333D01*
X112125143Y-68830000D01*
X112153714Y-68763333D01*
X112153714Y-68196667D01*
X112725142Y-68196667D02*
X112439428Y-68196667D01*
X112410857Y-68530000D01*
X112439428Y-68496667D01*
X112496571Y-68463333D01*
X112639428Y-68463333D01*
X112696571Y-68496667D01*
X112725142Y-68530000D01*
X112753714Y-68596667D01*
X112753714Y-68763333D01*
X112725142Y-68830000D01*
X112696571Y-68863333D01*
X112639428Y-68896667D01*
X112496571Y-68896667D01*
X112439428Y-68863333D01*
X112410857Y-68830000D01*
D15*
X101623067Y-77289000D02*
X102123067Y-77289000D01*
X102223067Y-77317572D01*
X102289733Y-77374715D01*
X102323067Y-77460429D01*
X102323067Y-77517572D01*
X101623067Y-77060429D02*
X101623067Y-76689000D01*
X101889733Y-76889000D01*
X101889733Y-76803286D01*
X101923067Y-76746143D01*
X101956400Y-76717572D01*
X102023067Y-76689000D01*
X102189733Y-76689000D01*
X102256400Y-76717572D01*
X102289733Y-76746143D01*
X102323067Y-76803286D01*
X102323067Y-76974714D01*
X102289733Y-77031857D01*
X102256400Y-77060429D01*
X101597667Y-92884600D02*
X102097667Y-92884600D01*
X102197667Y-92913172D01*
X102264333Y-92970315D01*
X102297667Y-93056029D01*
X102297667Y-93113172D01*
X101664333Y-92627457D02*
X101631000Y-92598886D01*
X101597667Y-92541743D01*
X101597667Y-92398886D01*
X101631000Y-92341743D01*
X101664333Y-92313172D01*
X101731000Y-92284600D01*
X101797667Y-92284600D01*
X101897667Y-92313172D01*
X102297667Y-92656029D01*
X102297667Y-92284600D01*
D11*
X114290572Y-106995167D02*
X114633429Y-106995167D01*
X114462000Y-107695167D02*
X114462000Y-106995167D01*
X114833429Y-107695167D02*
X114833429Y-106995167D01*
X114833429Y-107328500D02*
X115176286Y-107328500D01*
X115176286Y-107695167D02*
X115176286Y-106995167D01*
X115776286Y-107695167D02*
X115433429Y-107695167D01*
X115604857Y-107695167D02*
X115604857Y-106995167D01*
X115547714Y-107095167D01*
X115490572Y-107161833D01*
X115433429Y-107195167D01*
X183481000Y-86132929D02*
X183514333Y-86047215D01*
X183547667Y-86018643D01*
X183614333Y-85990072D01*
X183714333Y-85990072D01*
X183781000Y-86018643D01*
X183814333Y-86047215D01*
X183847667Y-86104357D01*
X183847667Y-86332929D01*
X183147667Y-86332929D01*
X183147667Y-86132929D01*
X183181000Y-86075786D01*
X183214333Y-86047215D01*
X183281000Y-86018643D01*
X183347667Y-86018643D01*
X183414333Y-86047215D01*
X183447667Y-86075786D01*
X183481000Y-86132929D01*
X183481000Y-86332929D01*
X183147667Y-85818643D02*
X183147667Y-85475786D01*
X183847667Y-85647215D02*
X183147667Y-85647215D01*
X183847667Y-84961500D02*
X183847667Y-85304357D01*
X183847667Y-85132929D02*
X183147667Y-85132929D01*
X183247667Y-85190072D01*
X183314333Y-85247214D01*
X183347667Y-85304357D01*
X162428285Y-72055800D02*
X162399714Y-72089133D01*
X162314000Y-72122467D01*
X162256857Y-72122467D01*
X162171142Y-72089133D01*
X162114000Y-72022467D01*
X162085428Y-71955800D01*
X162056857Y-71822467D01*
X162056857Y-71722467D01*
X162085428Y-71589133D01*
X162114000Y-71522467D01*
X162171142Y-71455800D01*
X162256857Y-71422467D01*
X162314000Y-71422467D01*
X162399714Y-71455800D01*
X162428285Y-71489133D01*
X162656857Y-71489133D02*
X162685428Y-71455800D01*
X162742571Y-71422467D01*
X162885428Y-71422467D01*
X162942571Y-71455800D01*
X162971142Y-71489133D01*
X162999714Y-71555800D01*
X162999714Y-71622467D01*
X162971142Y-71722467D01*
X162628285Y-72122467D01*
X162999714Y-72122467D01*
X163542571Y-71422467D02*
X163256857Y-71422467D01*
X163228286Y-71755800D01*
X163256857Y-71722467D01*
X163314000Y-71689133D01*
X163456857Y-71689133D01*
X163514000Y-71722467D01*
X163542571Y-71755800D01*
X163571143Y-71822467D01*
X163571143Y-71989133D01*
X163542571Y-72055800D01*
X163514000Y-72089133D01*
X163456857Y-72122467D01*
X163314000Y-72122467D01*
X163256857Y-72089133D01*
X163228286Y-72055800D01*
X162504485Y-67763200D02*
X162475914Y-67796533D01*
X162390200Y-67829867D01*
X162333057Y-67829867D01*
X162247342Y-67796533D01*
X162190200Y-67729867D01*
X162161628Y-67663200D01*
X162133057Y-67529867D01*
X162133057Y-67429867D01*
X162161628Y-67296533D01*
X162190200Y-67229867D01*
X162247342Y-67163200D01*
X162333057Y-67129867D01*
X162390200Y-67129867D01*
X162475914Y-67163200D01*
X162504485Y-67196533D01*
X162733057Y-67196533D02*
X162761628Y-67163200D01*
X162818771Y-67129867D01*
X162961628Y-67129867D01*
X163018771Y-67163200D01*
X163047342Y-67196533D01*
X163075914Y-67263200D01*
X163075914Y-67329867D01*
X163047342Y-67429867D01*
X162704485Y-67829867D01*
X163075914Y-67829867D01*
X163275914Y-67129867D02*
X163675914Y-67129867D01*
X163418771Y-67829867D01*
X109120000Y-75942000D02*
X109091429Y-75975333D01*
X109005715Y-76008667D01*
X108948572Y-76008667D01*
X108862857Y-75975333D01*
X108805715Y-75908667D01*
X108777143Y-75842000D01*
X108748572Y-75708667D01*
X108748572Y-75608667D01*
X108777143Y-75475333D01*
X108805715Y-75408667D01*
X108862857Y-75342000D01*
X108948572Y-75308667D01*
X109005715Y-75308667D01*
X109091429Y-75342000D01*
X109120000Y-75375333D01*
X109691429Y-76008667D02*
X109348572Y-76008667D01*
X109520000Y-76008667D02*
X109520000Y-75308667D01*
X109462857Y-75408667D01*
X109405715Y-75475333D01*
X109348572Y-75508667D01*
X128901000Y-67156000D02*
X128934333Y-67184571D01*
X128967667Y-67270285D01*
X128967667Y-67327428D01*
X128934333Y-67413143D01*
X128867667Y-67470285D01*
X128801000Y-67498857D01*
X128667667Y-67527428D01*
X128567667Y-67527428D01*
X128434333Y-67498857D01*
X128367667Y-67470285D01*
X128301000Y-67413143D01*
X128267667Y-67327428D01*
X128267667Y-67270285D01*
X128301000Y-67184571D01*
X128334333Y-67156000D01*
X128267667Y-66641714D02*
X128267667Y-66756000D01*
X128301000Y-66813143D01*
X128334333Y-66841714D01*
X128434333Y-66898857D01*
X128567667Y-66927428D01*
X128834333Y-66927428D01*
X128901000Y-66898857D01*
X128934333Y-66870285D01*
X128967667Y-66813143D01*
X128967667Y-66698857D01*
X128934333Y-66641714D01*
X128901000Y-66613143D01*
X128834333Y-66584571D01*
X128667667Y-66584571D01*
X128601000Y-66613143D01*
X128567667Y-66641714D01*
X128534333Y-66698857D01*
X128534333Y-66813143D01*
X128567667Y-66870285D01*
X128601000Y-66898857D01*
X128667667Y-66927428D01*
X130247200Y-67156000D02*
X130280533Y-67184571D01*
X130313867Y-67270285D01*
X130313867Y-67327428D01*
X130280533Y-67413143D01*
X130213867Y-67470285D01*
X130147200Y-67498857D01*
X130013867Y-67527428D01*
X129913867Y-67527428D01*
X129780533Y-67498857D01*
X129713867Y-67470285D01*
X129647200Y-67413143D01*
X129613867Y-67327428D01*
X129613867Y-67270285D01*
X129647200Y-67184571D01*
X129680533Y-67156000D01*
X129613867Y-66956000D02*
X129613867Y-66556000D01*
X130313867Y-66813143D01*
X126011000Y-70798500D02*
X125982429Y-70831833D01*
X125896715Y-70865167D01*
X125839572Y-70865167D01*
X125753857Y-70831833D01*
X125696715Y-70765167D01*
X125668143Y-70698500D01*
X125639572Y-70565167D01*
X125639572Y-70465167D01*
X125668143Y-70331833D01*
X125696715Y-70265167D01*
X125753857Y-70198500D01*
X125839572Y-70165167D01*
X125896715Y-70165167D01*
X125982429Y-70198500D01*
X126011000Y-70231833D01*
X126353857Y-70465167D02*
X126296715Y-70431833D01*
X126268143Y-70398500D01*
X126239572Y-70331833D01*
X126239572Y-70298500D01*
X126268143Y-70231833D01*
X126296715Y-70198500D01*
X126353857Y-70165167D01*
X126468143Y-70165167D01*
X126525286Y-70198500D01*
X126553857Y-70231833D01*
X126582429Y-70298500D01*
X126582429Y-70331833D01*
X126553857Y-70398500D01*
X126525286Y-70431833D01*
X126468143Y-70465167D01*
X126353857Y-70465167D01*
X126296715Y-70498500D01*
X126268143Y-70531833D01*
X126239572Y-70598500D01*
X126239572Y-70731833D01*
X126268143Y-70798500D01*
X126296715Y-70831833D01*
X126353857Y-70865167D01*
X126468143Y-70865167D01*
X126525286Y-70831833D01*
X126553857Y-70798500D01*
X126582429Y-70731833D01*
X126582429Y-70598500D01*
X126553857Y-70531833D01*
X126525286Y-70498500D01*
X126468143Y-70465167D01*
D15*
X142962286Y-72346333D02*
X142990857Y-72370143D01*
X143019429Y-72441571D01*
X143019429Y-72489190D01*
X142990857Y-72560619D01*
X142933714Y-72608238D01*
X142876571Y-72632047D01*
X142762286Y-72655857D01*
X142676571Y-72655857D01*
X142562286Y-72632047D01*
X142505143Y-72608238D01*
X142448000Y-72560619D01*
X142419429Y-72489190D01*
X142419429Y-72441571D01*
X142448000Y-72370143D01*
X142476571Y-72346333D01*
X143019429Y-72108238D02*
X143019429Y-72013000D01*
X142990857Y-71965381D01*
X142962286Y-71941571D01*
X142876571Y-71893952D01*
X142762286Y-71870143D01*
X142533714Y-71870143D01*
X142476571Y-71893952D01*
X142448000Y-71917762D01*
X142419429Y-71965381D01*
X142419429Y-72060619D01*
X142448000Y-72108238D01*
X142476571Y-72132047D01*
X142533714Y-72155857D01*
X142676571Y-72155857D01*
X142733714Y-72132047D01*
X142762286Y-72108238D01*
X142790857Y-72060619D01*
X142790857Y-71965381D01*
X142762286Y-71917762D01*
X142733714Y-71893952D01*
X142676571Y-71870143D01*
D11*
X109825600Y-85596400D02*
X109858933Y-85624971D01*
X109892267Y-85710685D01*
X109892267Y-85767828D01*
X109858933Y-85853543D01*
X109792267Y-85910685D01*
X109725600Y-85939257D01*
X109592267Y-85967828D01*
X109492267Y-85967828D01*
X109358933Y-85939257D01*
X109292267Y-85910685D01*
X109225600Y-85853543D01*
X109192267Y-85767828D01*
X109192267Y-85710685D01*
X109225600Y-85624971D01*
X109258933Y-85596400D01*
X109258933Y-85367828D02*
X109225600Y-85339257D01*
X109192267Y-85282114D01*
X109192267Y-85139257D01*
X109225600Y-85082114D01*
X109258933Y-85053543D01*
X109325600Y-85024971D01*
X109392267Y-85024971D01*
X109492267Y-85053543D01*
X109892267Y-85396400D01*
X109892267Y-85024971D01*
X138045000Y-86237715D02*
X138078333Y-86266286D01*
X138111667Y-86352000D01*
X138111667Y-86409143D01*
X138078333Y-86494858D01*
X138011667Y-86552000D01*
X137945000Y-86580572D01*
X137811667Y-86609143D01*
X137711667Y-86609143D01*
X137578333Y-86580572D01*
X137511667Y-86552000D01*
X137445000Y-86494858D01*
X137411667Y-86409143D01*
X137411667Y-86352000D01*
X137445000Y-86266286D01*
X137478333Y-86237715D01*
X138111667Y-85666286D02*
X138111667Y-86009143D01*
X138111667Y-85837715D02*
X137411667Y-85837715D01*
X137511667Y-85894858D01*
X137578333Y-85952000D01*
X137611667Y-86009143D01*
X137411667Y-85294857D02*
X137411667Y-85237714D01*
X137445000Y-85180571D01*
X137478333Y-85152000D01*
X137545000Y-85123429D01*
X137678333Y-85094857D01*
X137845000Y-85094857D01*
X137978333Y-85123429D01*
X138045000Y-85152000D01*
X138078333Y-85180571D01*
X138111667Y-85237714D01*
X138111667Y-85294857D01*
X138078333Y-85352000D01*
X138045000Y-85380571D01*
X137978333Y-85409143D01*
X137845000Y-85437714D01*
X137678333Y-85437714D01*
X137545000Y-85409143D01*
X137478333Y-85380571D01*
X137445000Y-85352000D01*
X137411667Y-85294857D01*
X104593200Y-83920000D02*
X104626533Y-83948571D01*
X104659867Y-84034285D01*
X104659867Y-84091428D01*
X104626533Y-84177143D01*
X104559867Y-84234285D01*
X104493200Y-84262857D01*
X104359867Y-84291428D01*
X104259867Y-84291428D01*
X104126533Y-84262857D01*
X104059867Y-84234285D01*
X103993200Y-84177143D01*
X103959867Y-84091428D01*
X103959867Y-84034285D01*
X103993200Y-83948571D01*
X104026533Y-83920000D01*
X104193200Y-83405714D02*
X104659867Y-83405714D01*
X103926533Y-83548571D02*
X104426533Y-83691428D01*
X104426533Y-83320000D01*
X132584000Y-86237715D02*
X132617333Y-86266286D01*
X132650667Y-86352000D01*
X132650667Y-86409143D01*
X132617333Y-86494858D01*
X132550667Y-86552000D01*
X132484000Y-86580572D01*
X132350667Y-86609143D01*
X132250667Y-86609143D01*
X132117333Y-86580572D01*
X132050667Y-86552000D01*
X131984000Y-86494858D01*
X131950667Y-86409143D01*
X131950667Y-86352000D01*
X131984000Y-86266286D01*
X132017333Y-86237715D01*
X132650667Y-85666286D02*
X132650667Y-86009143D01*
X132650667Y-85837715D02*
X131950667Y-85837715D01*
X132050667Y-85894858D01*
X132117333Y-85952000D01*
X132150667Y-86009143D01*
X132650667Y-85094857D02*
X132650667Y-85437714D01*
X132650667Y-85266286D02*
X131950667Y-85266286D01*
X132050667Y-85323429D01*
X132117333Y-85380571D01*
X132150667Y-85437714D01*
X131187000Y-86237715D02*
X131220333Y-86266286D01*
X131253667Y-86352000D01*
X131253667Y-86409143D01*
X131220333Y-86494858D01*
X131153667Y-86552000D01*
X131087000Y-86580572D01*
X130953667Y-86609143D01*
X130853667Y-86609143D01*
X130720333Y-86580572D01*
X130653667Y-86552000D01*
X130587000Y-86494858D01*
X130553667Y-86409143D01*
X130553667Y-86352000D01*
X130587000Y-86266286D01*
X130620333Y-86237715D01*
X131253667Y-85666286D02*
X131253667Y-86009143D01*
X131253667Y-85837715D02*
X130553667Y-85837715D01*
X130653667Y-85894858D01*
X130720333Y-85952000D01*
X130753667Y-86009143D01*
X130620333Y-85437714D02*
X130587000Y-85409143D01*
X130553667Y-85352000D01*
X130553667Y-85209143D01*
X130587000Y-85152000D01*
X130620333Y-85123429D01*
X130687000Y-85094857D01*
X130753667Y-85094857D01*
X130853667Y-85123429D01*
X131253667Y-85466286D01*
X131253667Y-85094857D01*
X125599000Y-101827000D02*
X125632333Y-101855571D01*
X125665667Y-101941285D01*
X125665667Y-101998428D01*
X125632333Y-102084143D01*
X125565667Y-102141285D01*
X125499000Y-102169857D01*
X125365667Y-102198428D01*
X125265667Y-102198428D01*
X125132333Y-102169857D01*
X125065667Y-102141285D01*
X124999000Y-102084143D01*
X124965667Y-101998428D01*
X124965667Y-101941285D01*
X124999000Y-101855571D01*
X125032333Y-101827000D01*
X124965667Y-101284143D02*
X124965667Y-101569857D01*
X125299000Y-101598428D01*
X125265667Y-101569857D01*
X125232333Y-101512714D01*
X125232333Y-101369857D01*
X125265667Y-101312714D01*
X125299000Y-101284143D01*
X125365667Y-101255571D01*
X125532333Y-101255571D01*
X125599000Y-101284143D01*
X125632333Y-101312714D01*
X125665667Y-101369857D01*
X125665667Y-101512714D01*
X125632333Y-101569857D01*
X125599000Y-101598428D01*
X125661785Y-77783500D02*
X125633214Y-77816833D01*
X125547500Y-77850167D01*
X125490357Y-77850167D01*
X125404642Y-77816833D01*
X125347500Y-77750167D01*
X125318928Y-77683500D01*
X125290357Y-77550167D01*
X125290357Y-77450167D01*
X125318928Y-77316833D01*
X125347500Y-77250167D01*
X125404642Y-77183500D01*
X125490357Y-77150167D01*
X125547500Y-77150167D01*
X125633214Y-77183500D01*
X125661785Y-77216833D01*
X126233214Y-77850167D02*
X125890357Y-77850167D01*
X126061785Y-77850167D02*
X126061785Y-77150167D01*
X126004642Y-77250167D01*
X125947500Y-77316833D01*
X125890357Y-77350167D01*
X126433214Y-77150167D02*
X126804643Y-77150167D01*
X126604643Y-77416833D01*
X126690357Y-77416833D01*
X126747500Y-77450167D01*
X126776071Y-77483500D01*
X126804643Y-77550167D01*
X126804643Y-77716833D01*
X126776071Y-77783500D01*
X126747500Y-77816833D01*
X126690357Y-77850167D01*
X126518929Y-77850167D01*
X126461786Y-77816833D01*
X126433214Y-77783500D01*
X123947285Y-78926500D02*
X123918714Y-78959833D01*
X123833000Y-78993167D01*
X123775857Y-78993167D01*
X123690142Y-78959833D01*
X123633000Y-78893167D01*
X123604428Y-78826500D01*
X123575857Y-78693167D01*
X123575857Y-78593167D01*
X123604428Y-78459833D01*
X123633000Y-78393167D01*
X123690142Y-78326500D01*
X123775857Y-78293167D01*
X123833000Y-78293167D01*
X123918714Y-78326500D01*
X123947285Y-78359833D01*
X124518714Y-78993167D02*
X124175857Y-78993167D01*
X124347285Y-78993167D02*
X124347285Y-78293167D01*
X124290142Y-78393167D01*
X124233000Y-78459833D01*
X124175857Y-78493167D01*
X125033000Y-78526500D02*
X125033000Y-78993167D01*
X124890143Y-78259833D02*
X124747286Y-78759833D01*
X125118714Y-78759833D01*
X139188000Y-86237715D02*
X139221333Y-86266286D01*
X139254667Y-86352000D01*
X139254667Y-86409143D01*
X139221333Y-86494858D01*
X139154667Y-86552000D01*
X139088000Y-86580572D01*
X138954667Y-86609143D01*
X138854667Y-86609143D01*
X138721333Y-86580572D01*
X138654667Y-86552000D01*
X138588000Y-86494858D01*
X138554667Y-86409143D01*
X138554667Y-86352000D01*
X138588000Y-86266286D01*
X138621333Y-86237715D01*
X139254667Y-85666286D02*
X139254667Y-86009143D01*
X139254667Y-85837715D02*
X138554667Y-85837715D01*
X138654667Y-85894858D01*
X138721333Y-85952000D01*
X138754667Y-86009143D01*
X138554667Y-85123429D02*
X138554667Y-85409143D01*
X138888000Y-85437714D01*
X138854667Y-85409143D01*
X138821333Y-85352000D01*
X138821333Y-85209143D01*
X138854667Y-85152000D01*
X138888000Y-85123429D01*
X138954667Y-85094857D01*
X139121333Y-85094857D01*
X139188000Y-85123429D01*
X139221333Y-85152000D01*
X139254667Y-85209143D01*
X139254667Y-85352000D01*
X139221333Y-85409143D01*
X139188000Y-85437714D01*
X140965285Y-70354000D02*
X140936714Y-70387333D01*
X140851000Y-70420667D01*
X140793857Y-70420667D01*
X140708142Y-70387333D01*
X140651000Y-70320667D01*
X140622428Y-70254000D01*
X140593857Y-70120667D01*
X140593857Y-70020667D01*
X140622428Y-69887333D01*
X140651000Y-69820667D01*
X140708142Y-69754000D01*
X140793857Y-69720667D01*
X140851000Y-69720667D01*
X140936714Y-69754000D01*
X140965285Y-69787333D01*
X141536714Y-70420667D02*
X141193857Y-70420667D01*
X141365285Y-70420667D02*
X141365285Y-69720667D01*
X141308142Y-69820667D01*
X141251000Y-69887333D01*
X141193857Y-69920667D01*
X142051000Y-69720667D02*
X141936714Y-69720667D01*
X141879571Y-69754000D01*
X141851000Y-69787333D01*
X141793857Y-69887333D01*
X141765286Y-70020667D01*
X141765286Y-70287333D01*
X141793857Y-70354000D01*
X141822429Y-70387333D01*
X141879571Y-70420667D01*
X141993857Y-70420667D01*
X142051000Y-70387333D01*
X142079571Y-70354000D01*
X142108143Y-70287333D01*
X142108143Y-70120667D01*
X142079571Y-70054000D01*
X142051000Y-70020667D01*
X141993857Y-69987333D01*
X141879571Y-69987333D01*
X141822429Y-70020667D01*
X141793857Y-70054000D01*
X141765286Y-70120667D01*
X140965285Y-74735500D02*
X140936714Y-74768833D01*
X140851000Y-74802167D01*
X140793857Y-74802167D01*
X140708142Y-74768833D01*
X140651000Y-74702167D01*
X140622428Y-74635500D01*
X140593857Y-74502167D01*
X140593857Y-74402167D01*
X140622428Y-74268833D01*
X140651000Y-74202167D01*
X140708142Y-74135500D01*
X140793857Y-74102167D01*
X140851000Y-74102167D01*
X140936714Y-74135500D01*
X140965285Y-74168833D01*
X141536714Y-74802167D02*
X141193857Y-74802167D01*
X141365285Y-74802167D02*
X141365285Y-74102167D01*
X141308142Y-74202167D01*
X141251000Y-74268833D01*
X141193857Y-74302167D01*
X141879571Y-74402167D02*
X141822429Y-74368833D01*
X141793857Y-74335500D01*
X141765286Y-74268833D01*
X141765286Y-74235500D01*
X141793857Y-74168833D01*
X141822429Y-74135500D01*
X141879571Y-74102167D01*
X141993857Y-74102167D01*
X142051000Y-74135500D01*
X142079571Y-74168833D01*
X142108143Y-74235500D01*
X142108143Y-74268833D01*
X142079571Y-74335500D01*
X142051000Y-74368833D01*
X141993857Y-74402167D01*
X141879571Y-74402167D01*
X141822429Y-74435500D01*
X141793857Y-74468833D01*
X141765286Y-74535500D01*
X141765286Y-74668833D01*
X141793857Y-74735500D01*
X141822429Y-74768833D01*
X141879571Y-74802167D01*
X141993857Y-74802167D01*
X142051000Y-74768833D01*
X142079571Y-74735500D01*
X142108143Y-74668833D01*
X142108143Y-74535500D01*
X142079571Y-74468833D01*
X142051000Y-74435500D01*
X141993857Y-74402167D01*
X122233500Y-73410715D02*
X122266833Y-73439286D01*
X122300167Y-73525000D01*
X122300167Y-73582143D01*
X122266833Y-73667858D01*
X122200167Y-73725000D01*
X122133500Y-73753572D01*
X122000167Y-73782143D01*
X121900167Y-73782143D01*
X121766833Y-73753572D01*
X121700167Y-73725000D01*
X121633500Y-73667858D01*
X121600167Y-73582143D01*
X121600167Y-73525000D01*
X121633500Y-73439286D01*
X121666833Y-73410715D01*
X122300167Y-72839286D02*
X122300167Y-73182143D01*
X122300167Y-73010715D02*
X121600167Y-73010715D01*
X121700167Y-73067858D01*
X121766833Y-73125000D01*
X121800167Y-73182143D01*
X122300167Y-72553571D02*
X122300167Y-72439286D01*
X122266833Y-72382143D01*
X122233500Y-72353571D01*
X122133500Y-72296429D01*
X122000167Y-72267857D01*
X121733500Y-72267857D01*
X121666833Y-72296429D01*
X121633500Y-72325000D01*
X121600167Y-72382143D01*
X121600167Y-72496429D01*
X121633500Y-72553571D01*
X121666833Y-72582143D01*
X121733500Y-72610714D01*
X121900167Y-72610714D01*
X121966833Y-72582143D01*
X122000167Y-72553571D01*
X122033500Y-72496429D01*
X122033500Y-72382143D01*
X122000167Y-72325000D01*
X121966833Y-72296429D01*
X121900167Y-72267857D01*
X136902000Y-86237715D02*
X136935333Y-86266286D01*
X136968667Y-86352000D01*
X136968667Y-86409143D01*
X136935333Y-86494858D01*
X136868667Y-86552000D01*
X136802000Y-86580572D01*
X136668667Y-86609143D01*
X136568667Y-86609143D01*
X136435333Y-86580572D01*
X136368667Y-86552000D01*
X136302000Y-86494858D01*
X136268667Y-86409143D01*
X136268667Y-86352000D01*
X136302000Y-86266286D01*
X136335333Y-86237715D01*
X136335333Y-86009143D02*
X136302000Y-85980572D01*
X136268667Y-85923429D01*
X136268667Y-85780572D01*
X136302000Y-85723429D01*
X136335333Y-85694858D01*
X136402000Y-85666286D01*
X136468667Y-85666286D01*
X136568667Y-85694858D01*
X136968667Y-86037715D01*
X136968667Y-85666286D01*
X136968667Y-85094857D02*
X136968667Y-85437714D01*
X136968667Y-85266286D02*
X136268667Y-85266286D01*
X136368667Y-85323429D01*
X136435333Y-85380571D01*
X136468667Y-85437714D01*
X123762580Y-91051015D02*
X123795913Y-91079586D01*
X123829247Y-91165300D01*
X123829247Y-91222443D01*
X123795913Y-91308158D01*
X123729247Y-91365300D01*
X123662580Y-91393872D01*
X123529247Y-91422443D01*
X123429247Y-91422443D01*
X123295913Y-91393872D01*
X123229247Y-91365300D01*
X123162580Y-91308158D01*
X123129247Y-91222443D01*
X123129247Y-91165300D01*
X123162580Y-91079586D01*
X123195913Y-91051015D01*
X123195913Y-90822443D02*
X123162580Y-90793872D01*
X123129247Y-90736729D01*
X123129247Y-90593872D01*
X123162580Y-90536729D01*
X123195913Y-90508158D01*
X123262580Y-90479586D01*
X123329247Y-90479586D01*
X123429247Y-90508158D01*
X123829247Y-90851015D01*
X123829247Y-90479586D01*
X123129247Y-90279586D02*
X123129247Y-89908157D01*
X123395913Y-90108157D01*
X123395913Y-90022443D01*
X123429247Y-89965300D01*
X123462580Y-89936729D01*
X123529247Y-89908157D01*
X123695913Y-89908157D01*
X123762580Y-89936729D01*
X123795913Y-89965300D01*
X123829247Y-90022443D01*
X123829247Y-90193871D01*
X123795913Y-90251014D01*
X123762580Y-90279586D01*
X126678500Y-73410715D02*
X126711833Y-73439286D01*
X126745167Y-73525000D01*
X126745167Y-73582143D01*
X126711833Y-73667858D01*
X126645167Y-73725000D01*
X126578500Y-73753572D01*
X126445167Y-73782143D01*
X126345167Y-73782143D01*
X126211833Y-73753572D01*
X126145167Y-73725000D01*
X126078500Y-73667858D01*
X126045167Y-73582143D01*
X126045167Y-73525000D01*
X126078500Y-73439286D01*
X126111833Y-73410715D01*
X126111833Y-73182143D02*
X126078500Y-73153572D01*
X126045167Y-73096429D01*
X126045167Y-72953572D01*
X126078500Y-72896429D01*
X126111833Y-72867858D01*
X126178500Y-72839286D01*
X126245167Y-72839286D01*
X126345167Y-72867858D01*
X126745167Y-73210715D01*
X126745167Y-72839286D01*
X126045167Y-72325000D02*
X126045167Y-72439286D01*
X126078500Y-72496429D01*
X126111833Y-72525000D01*
X126211833Y-72582143D01*
X126345167Y-72610714D01*
X126611833Y-72610714D01*
X126678500Y-72582143D01*
X126711833Y-72553571D01*
X126745167Y-72496429D01*
X126745167Y-72382143D01*
X126711833Y-72325000D01*
X126678500Y-72296429D01*
X126611833Y-72267857D01*
X126445167Y-72267857D01*
X126378500Y-72296429D01*
X126345167Y-72325000D01*
X126311833Y-72382143D01*
X126311833Y-72496429D01*
X126345167Y-72553571D01*
X126378500Y-72582143D01*
X126445167Y-72610714D01*
X114485785Y-100925286D02*
X114457214Y-100953857D01*
X114371500Y-100982429D01*
X114314357Y-100982429D01*
X114228642Y-100953857D01*
X114171500Y-100896714D01*
X114142928Y-100839571D01*
X114114357Y-100725286D01*
X114114357Y-100639571D01*
X114142928Y-100525286D01*
X114171500Y-100468143D01*
X114228642Y-100411000D01*
X114314357Y-100382429D01*
X114371500Y-100382429D01*
X114457214Y-100411000D01*
X114485785Y-100439571D01*
X115057214Y-100982429D02*
X114714357Y-100982429D01*
X114885785Y-100982429D02*
X114885785Y-100382429D01*
X114828642Y-100468143D01*
X114771500Y-100525286D01*
X114714357Y-100553857D01*
X115257214Y-100382429D02*
X115657214Y-100382429D01*
X115400071Y-100982429D01*
D15*
X118705286Y-104270928D02*
X118733857Y-104294738D01*
X118762429Y-104366166D01*
X118762429Y-104413785D01*
X118733857Y-104485214D01*
X118676714Y-104532833D01*
X118619571Y-104556642D01*
X118505286Y-104580452D01*
X118419571Y-104580452D01*
X118305286Y-104556642D01*
X118248143Y-104532833D01*
X118191000Y-104485214D01*
X118162429Y-104413785D01*
X118162429Y-104366166D01*
X118191000Y-104294738D01*
X118219571Y-104270928D01*
X118219571Y-104080452D02*
X118191000Y-104056642D01*
X118162429Y-104009023D01*
X118162429Y-103889976D01*
X118191000Y-103842357D01*
X118219571Y-103818547D01*
X118276714Y-103794738D01*
X118333857Y-103794738D01*
X118419571Y-103818547D01*
X118762429Y-104104261D01*
X118762429Y-103794738D01*
X118162429Y-103485214D02*
X118162429Y-103437595D01*
X118191000Y-103389976D01*
X118219571Y-103366167D01*
X118276714Y-103342357D01*
X118391000Y-103318548D01*
X118533857Y-103318548D01*
X118648143Y-103342357D01*
X118705286Y-103366167D01*
X118733857Y-103389976D01*
X118762429Y-103437595D01*
X118762429Y-103485214D01*
X118733857Y-103532833D01*
X118705286Y-103556643D01*
X118648143Y-103580452D01*
X118533857Y-103604262D01*
X118391000Y-103604262D01*
X118276714Y-103580452D01*
X118219571Y-103556643D01*
X118191000Y-103532833D01*
X118162429Y-103485214D01*
D11*
X113889600Y-96346915D02*
X113922933Y-96375486D01*
X113956267Y-96461200D01*
X113956267Y-96518343D01*
X113922933Y-96604058D01*
X113856267Y-96661200D01*
X113789600Y-96689772D01*
X113656267Y-96718343D01*
X113556267Y-96718343D01*
X113422933Y-96689772D01*
X113356267Y-96661200D01*
X113289600Y-96604058D01*
X113256267Y-96518343D01*
X113256267Y-96461200D01*
X113289600Y-96375486D01*
X113322933Y-96346915D01*
X113322933Y-96118343D02*
X113289600Y-96089772D01*
X113256267Y-96032629D01*
X113256267Y-95889772D01*
X113289600Y-95832629D01*
X113322933Y-95804058D01*
X113389600Y-95775486D01*
X113456267Y-95775486D01*
X113556267Y-95804058D01*
X113956267Y-96146915D01*
X113956267Y-95775486D01*
X113322933Y-95546914D02*
X113289600Y-95518343D01*
X113256267Y-95461200D01*
X113256267Y-95318343D01*
X113289600Y-95261200D01*
X113322933Y-95232629D01*
X113389600Y-95204057D01*
X113456267Y-95204057D01*
X113556267Y-95232629D01*
X113956267Y-95575486D01*
X113956267Y-95204057D01*
X110740000Y-96397715D02*
X110773333Y-96426286D01*
X110806667Y-96512000D01*
X110806667Y-96569143D01*
X110773333Y-96654858D01*
X110706667Y-96712000D01*
X110640000Y-96740572D01*
X110506667Y-96769143D01*
X110406667Y-96769143D01*
X110273333Y-96740572D01*
X110206667Y-96712000D01*
X110140000Y-96654858D01*
X110106667Y-96569143D01*
X110106667Y-96512000D01*
X110140000Y-96426286D01*
X110173333Y-96397715D01*
X110173333Y-96169143D02*
X110140000Y-96140572D01*
X110106667Y-96083429D01*
X110106667Y-95940572D01*
X110140000Y-95883429D01*
X110173333Y-95854858D01*
X110240000Y-95826286D01*
X110306667Y-95826286D01*
X110406667Y-95854858D01*
X110806667Y-96197715D01*
X110806667Y-95826286D01*
X110340000Y-95312000D02*
X110806667Y-95312000D01*
X110073333Y-95454857D02*
X110573333Y-95597714D01*
X110573333Y-95226286D01*
X106230785Y-71878000D02*
X106202214Y-71911333D01*
X106116500Y-71944667D01*
X106059357Y-71944667D01*
X105973642Y-71911333D01*
X105916500Y-71844667D01*
X105887928Y-71778000D01*
X105859357Y-71644667D01*
X105859357Y-71544667D01*
X105887928Y-71411333D01*
X105916500Y-71344667D01*
X105973642Y-71278000D01*
X106059357Y-71244667D01*
X106116500Y-71244667D01*
X106202214Y-71278000D01*
X106230785Y-71311333D01*
X106459357Y-71311333D02*
X106487928Y-71278000D01*
X106545071Y-71244667D01*
X106687928Y-71244667D01*
X106745071Y-71278000D01*
X106773642Y-71311333D01*
X106802214Y-71378000D01*
X106802214Y-71444667D01*
X106773642Y-71544667D01*
X106430785Y-71944667D01*
X106802214Y-71944667D01*
X107145071Y-71544667D02*
X107087929Y-71511333D01*
X107059357Y-71478000D01*
X107030786Y-71411333D01*
X107030786Y-71378000D01*
X107059357Y-71311333D01*
X107087929Y-71278000D01*
X107145071Y-71244667D01*
X107259357Y-71244667D01*
X107316500Y-71278000D01*
X107345071Y-71311333D01*
X107373643Y-71378000D01*
X107373643Y-71411333D01*
X107345071Y-71478000D01*
X107316500Y-71511333D01*
X107259357Y-71544667D01*
X107145071Y-71544667D01*
X107087929Y-71578000D01*
X107059357Y-71611333D01*
X107030786Y-71678000D01*
X107030786Y-71811333D01*
X107059357Y-71878000D01*
X107087929Y-71911333D01*
X107145071Y-71944667D01*
X107259357Y-71944667D01*
X107316500Y-71911333D01*
X107345071Y-71878000D01*
X107373643Y-71811333D01*
X107373643Y-71678000D01*
X107345071Y-71611333D01*
X107316500Y-71578000D01*
X107259357Y-71544667D01*
X104897285Y-73783000D02*
X104868714Y-73816333D01*
X104783000Y-73849667D01*
X104725857Y-73849667D01*
X104640142Y-73816333D01*
X104583000Y-73749667D01*
X104554428Y-73683000D01*
X104525857Y-73549667D01*
X104525857Y-73449667D01*
X104554428Y-73316333D01*
X104583000Y-73249667D01*
X104640142Y-73183000D01*
X104725857Y-73149667D01*
X104783000Y-73149667D01*
X104868714Y-73183000D01*
X104897285Y-73216333D01*
X105125857Y-73216333D02*
X105154428Y-73183000D01*
X105211571Y-73149667D01*
X105354428Y-73149667D01*
X105411571Y-73183000D01*
X105440142Y-73216333D01*
X105468714Y-73283000D01*
X105468714Y-73349667D01*
X105440142Y-73449667D01*
X105097285Y-73849667D01*
X105468714Y-73849667D01*
X105754429Y-73849667D02*
X105868714Y-73849667D01*
X105925857Y-73816333D01*
X105954429Y-73783000D01*
X106011571Y-73683000D01*
X106040143Y-73549667D01*
X106040143Y-73283000D01*
X106011571Y-73216333D01*
X105983000Y-73183000D01*
X105925857Y-73149667D01*
X105811571Y-73149667D01*
X105754429Y-73183000D01*
X105725857Y-73216333D01*
X105697286Y-73283000D01*
X105697286Y-73449667D01*
X105725857Y-73516333D01*
X105754429Y-73549667D01*
X105811571Y-73583000D01*
X105925857Y-73583000D01*
X105983000Y-73549667D01*
X106011571Y-73516333D01*
X106040143Y-73449667D01*
X120328500Y-72204215D02*
X120361833Y-72232786D01*
X120395167Y-72318500D01*
X120395167Y-72375643D01*
X120361833Y-72461358D01*
X120295167Y-72518500D01*
X120228500Y-72547072D01*
X120095167Y-72575643D01*
X119995167Y-72575643D01*
X119861833Y-72547072D01*
X119795167Y-72518500D01*
X119728500Y-72461358D01*
X119695167Y-72375643D01*
X119695167Y-72318500D01*
X119728500Y-72232786D01*
X119761833Y-72204215D01*
X119695167Y-72004215D02*
X119695167Y-71632786D01*
X119961833Y-71832786D01*
X119961833Y-71747072D01*
X119995167Y-71689929D01*
X120028500Y-71661358D01*
X120095167Y-71632786D01*
X120261833Y-71632786D01*
X120328500Y-71661358D01*
X120361833Y-71689929D01*
X120395167Y-71747072D01*
X120395167Y-71918500D01*
X120361833Y-71975643D01*
X120328500Y-72004215D01*
X119695167Y-71261357D02*
X119695167Y-71204214D01*
X119728500Y-71147071D01*
X119761833Y-71118500D01*
X119828500Y-71089929D01*
X119961833Y-71061357D01*
X120128500Y-71061357D01*
X120261833Y-71089929D01*
X120328500Y-71118500D01*
X120361833Y-71147071D01*
X120395167Y-71204214D01*
X120395167Y-71261357D01*
X120361833Y-71318500D01*
X120328500Y-71347071D01*
X120261833Y-71375643D01*
X120128500Y-71404214D01*
X119961833Y-71404214D01*
X119828500Y-71375643D01*
X119761833Y-71347071D01*
X119728500Y-71318500D01*
X119695167Y-71261357D01*
X116505800Y-74807715D02*
X116539133Y-74836286D01*
X116572467Y-74922000D01*
X116572467Y-74979143D01*
X116539133Y-75064858D01*
X116472467Y-75122000D01*
X116405800Y-75150572D01*
X116272467Y-75179143D01*
X116172467Y-75179143D01*
X116039133Y-75150572D01*
X115972467Y-75122000D01*
X115905800Y-75064858D01*
X115872467Y-74979143D01*
X115872467Y-74922000D01*
X115905800Y-74836286D01*
X115939133Y-74807715D01*
X115872467Y-74607715D02*
X115872467Y-74236286D01*
X116139133Y-74436286D01*
X116139133Y-74350572D01*
X116172467Y-74293429D01*
X116205800Y-74264858D01*
X116272467Y-74236286D01*
X116439133Y-74236286D01*
X116505800Y-74264858D01*
X116539133Y-74293429D01*
X116572467Y-74350572D01*
X116572467Y-74522000D01*
X116539133Y-74579143D01*
X116505800Y-74607715D01*
X116572467Y-73664857D02*
X116572467Y-74007714D01*
X116572467Y-73836286D02*
X115872467Y-73836286D01*
X115972467Y-73893429D01*
X116039133Y-73950571D01*
X116072467Y-74007714D01*
X184526285Y-70735000D02*
X184497714Y-70768333D01*
X184412000Y-70801667D01*
X184354857Y-70801667D01*
X184269142Y-70768333D01*
X184212000Y-70701667D01*
X184183428Y-70635000D01*
X184154857Y-70501667D01*
X184154857Y-70401667D01*
X184183428Y-70268333D01*
X184212000Y-70201667D01*
X184269142Y-70135000D01*
X184354857Y-70101667D01*
X184412000Y-70101667D01*
X184497714Y-70135000D01*
X184526285Y-70168333D01*
X184726285Y-70101667D02*
X185097714Y-70101667D01*
X184897714Y-70368333D01*
X184983428Y-70368333D01*
X185040571Y-70401667D01*
X185069142Y-70435000D01*
X185097714Y-70501667D01*
X185097714Y-70668333D01*
X185069142Y-70735000D01*
X185040571Y-70768333D01*
X184983428Y-70801667D01*
X184812000Y-70801667D01*
X184754857Y-70768333D01*
X184726285Y-70735000D01*
X185326286Y-70168333D02*
X185354857Y-70135000D01*
X185412000Y-70101667D01*
X185554857Y-70101667D01*
X185612000Y-70135000D01*
X185640571Y-70168333D01*
X185669143Y-70235000D01*
X185669143Y-70301667D01*
X185640571Y-70401667D01*
X185297714Y-70801667D01*
X185669143Y-70801667D01*
X119191143Y-86168667D02*
X119191143Y-85468667D01*
X119334000Y-85468667D01*
X119419715Y-85502000D01*
X119476857Y-85568667D01*
X119505429Y-85635333D01*
X119534000Y-85768667D01*
X119534000Y-85868667D01*
X119505429Y-86002000D01*
X119476857Y-86068667D01*
X119419715Y-86135333D01*
X119334000Y-86168667D01*
X119191143Y-86168667D01*
X119876857Y-85768667D02*
X119819715Y-85735333D01*
X119791143Y-85702000D01*
X119762572Y-85635333D01*
X119762572Y-85602000D01*
X119791143Y-85535333D01*
X119819715Y-85502000D01*
X119876857Y-85468667D01*
X119991143Y-85468667D01*
X120048286Y-85502000D01*
X120076857Y-85535333D01*
X120105429Y-85602000D01*
X120105429Y-85635333D01*
X120076857Y-85702000D01*
X120048286Y-85735333D01*
X119991143Y-85768667D01*
X119876857Y-85768667D01*
X119819715Y-85802000D01*
X119791143Y-85835333D01*
X119762572Y-85902000D01*
X119762572Y-86035333D01*
X119791143Y-86102000D01*
X119819715Y-86135333D01*
X119876857Y-86168667D01*
X119991143Y-86168667D01*
X120048286Y-86135333D01*
X120076857Y-86102000D01*
X120105429Y-86035333D01*
X120105429Y-85902000D01*
X120076857Y-85835333D01*
X120048286Y-85802000D01*
X119991143Y-85768667D01*
X123800000Y-98156200D02*
X123600000Y-98156200D01*
X123600000Y-98522867D02*
X123600000Y-97822867D01*
X123885714Y-97822867D01*
X124428572Y-98522867D02*
X124085715Y-98522867D01*
X124257143Y-98522867D02*
X124257143Y-97822867D01*
X124200000Y-97922867D01*
X124142858Y-97989533D01*
X124085715Y-98022867D01*
X117342500Y-64485167D02*
X117342500Y-64985167D01*
X117313928Y-65085167D01*
X117256785Y-65151833D01*
X117171071Y-65185167D01*
X117113928Y-65185167D01*
X117713928Y-64785167D02*
X117656786Y-64751833D01*
X117628214Y-64718500D01*
X117599643Y-64651833D01*
X117599643Y-64618500D01*
X117628214Y-64551833D01*
X117656786Y-64518500D01*
X117713928Y-64485167D01*
X117828214Y-64485167D01*
X117885357Y-64518500D01*
X117913928Y-64551833D01*
X117942500Y-64618500D01*
X117942500Y-64651833D01*
X117913928Y-64718500D01*
X117885357Y-64751833D01*
X117828214Y-64785167D01*
X117713928Y-64785167D01*
X117656786Y-64818500D01*
X117628214Y-64851833D01*
X117599643Y-64918500D01*
X117599643Y-65051833D01*
X117628214Y-65118500D01*
X117656786Y-65151833D01*
X117713928Y-65185167D01*
X117828214Y-65185167D01*
X117885357Y-65151833D01*
X117913928Y-65118500D01*
X117942500Y-65051833D01*
X117942500Y-64918500D01*
X117913928Y-64851833D01*
X117885357Y-64818500D01*
X117828214Y-64785167D01*
X172418400Y-64894667D02*
X172418400Y-65394667D01*
X172389828Y-65494667D01*
X172332685Y-65561333D01*
X172246971Y-65594667D01*
X172189828Y-65594667D01*
X172961257Y-64894667D02*
X172846971Y-64894667D01*
X172789828Y-64928000D01*
X172761257Y-64961333D01*
X172704114Y-65061333D01*
X172675543Y-65194667D01*
X172675543Y-65461333D01*
X172704114Y-65528000D01*
X172732686Y-65561333D01*
X172789828Y-65594667D01*
X172904114Y-65594667D01*
X172961257Y-65561333D01*
X172989828Y-65528000D01*
X173018400Y-65461333D01*
X173018400Y-65294667D01*
X172989828Y-65228000D01*
X172961257Y-65194667D01*
X172904114Y-65161333D01*
X172789828Y-65161333D01*
X172732686Y-65194667D01*
X172704114Y-65228000D01*
X172675543Y-65294667D01*
X116953467Y-68476800D02*
X116953467Y-68762514D01*
X116253467Y-68762514D01*
X116320133Y-68305371D02*
X116286800Y-68276800D01*
X116253467Y-68219657D01*
X116253467Y-68076800D01*
X116286800Y-68019657D01*
X116320133Y-67991086D01*
X116386800Y-67962514D01*
X116453467Y-67962514D01*
X116553467Y-67991086D01*
X116953467Y-68333943D01*
X116953467Y-67962514D01*
X122726457Y-81409333D02*
X122669314Y-81376000D01*
X122612171Y-81309333D01*
X122526457Y-81209333D01*
X122469314Y-81176000D01*
X122412171Y-81176000D01*
X122440743Y-81342667D02*
X122383600Y-81309333D01*
X122326457Y-81242667D01*
X122297886Y-81109333D01*
X122297886Y-80876000D01*
X122326457Y-80742667D01*
X122383600Y-80676000D01*
X122440743Y-80642667D01*
X122555029Y-80642667D01*
X122612171Y-80676000D01*
X122669314Y-80742667D01*
X122697886Y-80876000D01*
X122697886Y-81109333D01*
X122669314Y-81242667D01*
X122612171Y-81309333D01*
X122555029Y-81342667D01*
X122440743Y-81342667D01*
X123269314Y-81342667D02*
X122926457Y-81342667D01*
X123097885Y-81342667D02*
X123097885Y-80642667D01*
X123040742Y-80742667D01*
X122983600Y-80809333D01*
X122926457Y-80842667D01*
X108807257Y-81409333D02*
X108750114Y-81376000D01*
X108692971Y-81309333D01*
X108607257Y-81209333D01*
X108550114Y-81176000D01*
X108492971Y-81176000D01*
X108521543Y-81342667D02*
X108464400Y-81309333D01*
X108407257Y-81242667D01*
X108378686Y-81109333D01*
X108378686Y-80876000D01*
X108407257Y-80742667D01*
X108464400Y-80676000D01*
X108521543Y-80642667D01*
X108635829Y-80642667D01*
X108692971Y-80676000D01*
X108750114Y-80742667D01*
X108778686Y-80876000D01*
X108778686Y-81109333D01*
X108750114Y-81242667D01*
X108692971Y-81309333D01*
X108635829Y-81342667D01*
X108521543Y-81342667D01*
X109007257Y-80709333D02*
X109035828Y-80676000D01*
X109092971Y-80642667D01*
X109235828Y-80642667D01*
X109292971Y-80676000D01*
X109321542Y-80709333D01*
X109350114Y-80776000D01*
X109350114Y-80842667D01*
X109321542Y-80942667D01*
X108978685Y-81342667D01*
X109350114Y-81342667D01*
X125534785Y-80644167D02*
X125334785Y-80310833D01*
X125191928Y-80644167D02*
X125191928Y-79944167D01*
X125420500Y-79944167D01*
X125477642Y-79977500D01*
X125506214Y-80010833D01*
X125534785Y-80077500D01*
X125534785Y-80177500D01*
X125506214Y-80244167D01*
X125477642Y-80277500D01*
X125420500Y-80310833D01*
X125191928Y-80310833D01*
X125734785Y-79944167D02*
X126106214Y-79944167D01*
X125906214Y-80210833D01*
X125991928Y-80210833D01*
X126049071Y-80244167D01*
X126077642Y-80277500D01*
X126106214Y-80344167D01*
X126106214Y-80510833D01*
X126077642Y-80577500D01*
X126049071Y-80610833D01*
X125991928Y-80644167D01*
X125820500Y-80644167D01*
X125763357Y-80610833D01*
X125734785Y-80577500D01*
X126649071Y-79944167D02*
X126363357Y-79944167D01*
X126334786Y-80277500D01*
X126363357Y-80244167D01*
X126420500Y-80210833D01*
X126563357Y-80210833D01*
X126620500Y-80244167D01*
X126649071Y-80277500D01*
X126677643Y-80344167D01*
X126677643Y-80510833D01*
X126649071Y-80577500D01*
X126620500Y-80610833D01*
X126563357Y-80644167D01*
X126420500Y-80644167D01*
X126363357Y-80610833D01*
X126334786Y-80577500D01*
D15*
X152321390Y-79015708D02*
X152083295Y-79182375D01*
X152321390Y-79301422D02*
X151821390Y-79301422D01*
X151821390Y-79110946D01*
X151845200Y-79063327D01*
X151869010Y-79039518D01*
X151916629Y-79015708D01*
X151988057Y-79015708D01*
X152035676Y-79039518D01*
X152059486Y-79063327D01*
X152083295Y-79110946D01*
X152083295Y-79301422D01*
X152321390Y-78539518D02*
X152321390Y-78825232D01*
X152321390Y-78682375D02*
X151821390Y-78682375D01*
X151892819Y-78729994D01*
X151940438Y-78777613D01*
X151964248Y-78825232D01*
X151821390Y-78372851D02*
X151821390Y-78063328D01*
X152011867Y-78229994D01*
X152011867Y-78158566D01*
X152035676Y-78110947D01*
X152059486Y-78087137D01*
X152107105Y-78063328D01*
X152226152Y-78063328D01*
X152273771Y-78087137D01*
X152297581Y-78110947D01*
X152321390Y-78158566D01*
X152321390Y-78301423D01*
X152297581Y-78349042D01*
X152273771Y-78372851D01*
X144203785Y-75645929D02*
X144003785Y-75360214D01*
X143860928Y-75645929D02*
X143860928Y-75045929D01*
X144089500Y-75045929D01*
X144146642Y-75074500D01*
X144175214Y-75103071D01*
X144203785Y-75160214D01*
X144203785Y-75245929D01*
X144175214Y-75303071D01*
X144146642Y-75331643D01*
X144089500Y-75360214D01*
X143860928Y-75360214D01*
X144775214Y-75645929D02*
X144432357Y-75645929D01*
X144603785Y-75645929D02*
X144603785Y-75045929D01*
X144546642Y-75131643D01*
X144489500Y-75188786D01*
X144432357Y-75217357D01*
X145318071Y-75045929D02*
X145032357Y-75045929D01*
X145003786Y-75331643D01*
X145032357Y-75303071D01*
X145089500Y-75274500D01*
X145232357Y-75274500D01*
X145289500Y-75303071D01*
X145318071Y-75331643D01*
X145346643Y-75388786D01*
X145346643Y-75531643D01*
X145318071Y-75588786D01*
X145289500Y-75617357D01*
X145232357Y-75645929D01*
X145089500Y-75645929D01*
X145032357Y-75617357D01*
X145003786Y-75588786D01*
D11*
X144394285Y-72452667D02*
X144194285Y-72119333D01*
X144051428Y-72452667D02*
X144051428Y-71752667D01*
X144280000Y-71752667D01*
X144337142Y-71786000D01*
X144365714Y-71819333D01*
X144394285Y-71886000D01*
X144394285Y-71986000D01*
X144365714Y-72052667D01*
X144337142Y-72086000D01*
X144280000Y-72119333D01*
X144051428Y-72119333D01*
X144965714Y-72452667D02*
X144622857Y-72452667D01*
X144794285Y-72452667D02*
X144794285Y-71752667D01*
X144737142Y-71852667D01*
X144680000Y-71919333D01*
X144622857Y-71952667D01*
X145480000Y-71752667D02*
X145365714Y-71752667D01*
X145308571Y-71786000D01*
X145280000Y-71819333D01*
X145222857Y-71919333D01*
X145194286Y-72052667D01*
X145194286Y-72319333D01*
X145222857Y-72386000D01*
X145251429Y-72419333D01*
X145308571Y-72452667D01*
X145422857Y-72452667D01*
X145480000Y-72419333D01*
X145508571Y-72386000D01*
X145537143Y-72319333D01*
X145537143Y-72152667D01*
X145508571Y-72086000D01*
X145480000Y-72052667D01*
X145422857Y-72019333D01*
X145308571Y-72019333D01*
X145251429Y-72052667D01*
X145222857Y-72086000D01*
X145194286Y-72152667D01*
D15*
X151360789Y-81220428D02*
X151075074Y-81387095D01*
X151360789Y-81506142D02*
X150760789Y-81506142D01*
X150760789Y-81315666D01*
X150789360Y-81268047D01*
X150817931Y-81244238D01*
X150875074Y-81220428D01*
X150960789Y-81220428D01*
X151017931Y-81244238D01*
X151046503Y-81268047D01*
X151075074Y-81315666D01*
X151075074Y-81506142D01*
X151360789Y-80744238D02*
X151360789Y-81029952D01*
X151360789Y-80887095D02*
X150760789Y-80887095D01*
X150846503Y-80934714D01*
X150903646Y-80982333D01*
X150932217Y-81029952D01*
X150817931Y-80553762D02*
X150789360Y-80529952D01*
X150760789Y-80482333D01*
X150760789Y-80363286D01*
X150789360Y-80315667D01*
X150817931Y-80291857D01*
X150875074Y-80268048D01*
X150932217Y-80268048D01*
X151017931Y-80291857D01*
X151360789Y-80577571D01*
X151360789Y-80268048D01*
D11*
X170052167Y-75569715D02*
X169718833Y-75769715D01*
X170052167Y-75912572D02*
X169352167Y-75912572D01*
X169352167Y-75684000D01*
X169385500Y-75626858D01*
X169418833Y-75598286D01*
X169485500Y-75569715D01*
X169585500Y-75569715D01*
X169652167Y-75598286D01*
X169685500Y-75626858D01*
X169718833Y-75684000D01*
X169718833Y-75912572D01*
X169418833Y-75341143D02*
X169385500Y-75312572D01*
X169352167Y-75255429D01*
X169352167Y-75112572D01*
X169385500Y-75055429D01*
X169418833Y-75026858D01*
X169485500Y-74998286D01*
X169552167Y-74998286D01*
X169652167Y-75026858D01*
X170052167Y-75369715D01*
X170052167Y-74998286D01*
X169352167Y-74798286D02*
X169352167Y-74398286D01*
X170052167Y-74655429D01*
X162559167Y-75569715D02*
X162225833Y-75769715D01*
X162559167Y-75912572D02*
X161859167Y-75912572D01*
X161859167Y-75684000D01*
X161892500Y-75626858D01*
X161925833Y-75598286D01*
X161992500Y-75569715D01*
X162092500Y-75569715D01*
X162159167Y-75598286D01*
X162192500Y-75626858D01*
X162225833Y-75684000D01*
X162225833Y-75912572D01*
X161925833Y-75341143D02*
X161892500Y-75312572D01*
X161859167Y-75255429D01*
X161859167Y-75112572D01*
X161892500Y-75055429D01*
X161925833Y-75026858D01*
X161992500Y-74998286D01*
X162059167Y-74998286D01*
X162159167Y-75026858D01*
X162559167Y-75369715D01*
X162559167Y-74998286D01*
X162559167Y-74712571D02*
X162559167Y-74598286D01*
X162525833Y-74541143D01*
X162492500Y-74512571D01*
X162392500Y-74455429D01*
X162259167Y-74426857D01*
X161992500Y-74426857D01*
X161925833Y-74455429D01*
X161892500Y-74484000D01*
X161859167Y-74541143D01*
X161859167Y-74655429D01*
X161892500Y-74712571D01*
X161925833Y-74741143D01*
X161992500Y-74769714D01*
X162159167Y-74769714D01*
X162225833Y-74741143D01*
X162259167Y-74712571D01*
X162292500Y-74655429D01*
X162292500Y-74541143D01*
X162259167Y-74484000D01*
X162225833Y-74455429D01*
X162159167Y-74426857D01*
X160908167Y-75569715D02*
X160574833Y-75769715D01*
X160908167Y-75912572D02*
X160208167Y-75912572D01*
X160208167Y-75684000D01*
X160241500Y-75626858D01*
X160274833Y-75598286D01*
X160341500Y-75569715D01*
X160441500Y-75569715D01*
X160508167Y-75598286D01*
X160541500Y-75626858D01*
X160574833Y-75684000D01*
X160574833Y-75912572D01*
X160208167Y-75369715D02*
X160208167Y-74998286D01*
X160474833Y-75198286D01*
X160474833Y-75112572D01*
X160508167Y-75055429D01*
X160541500Y-75026858D01*
X160608167Y-74998286D01*
X160774833Y-74998286D01*
X160841500Y-75026858D01*
X160874833Y-75055429D01*
X160908167Y-75112572D01*
X160908167Y-75284000D01*
X160874833Y-75341143D01*
X160841500Y-75369715D01*
X160208167Y-74626857D02*
X160208167Y-74569714D01*
X160241500Y-74512571D01*
X160274833Y-74484000D01*
X160341500Y-74455429D01*
X160474833Y-74426857D01*
X160641500Y-74426857D01*
X160774833Y-74455429D01*
X160841500Y-74484000D01*
X160874833Y-74512571D01*
X160908167Y-74569714D01*
X160908167Y-74626857D01*
X160874833Y-74684000D01*
X160841500Y-74712571D01*
X160774833Y-74741143D01*
X160641500Y-74769714D01*
X160474833Y-74769714D01*
X160341500Y-74741143D01*
X160274833Y-74712571D01*
X160241500Y-74684000D01*
X160208167Y-74626857D01*
D15*
X159257167Y-75569715D02*
X158923833Y-75769715D01*
X159257167Y-75912572D02*
X158557167Y-75912572D01*
X158557167Y-75684000D01*
X158590500Y-75626858D01*
X158623833Y-75598286D01*
X158690500Y-75569715D01*
X158790500Y-75569715D01*
X158857167Y-75598286D01*
X158890500Y-75626858D01*
X158923833Y-75684000D01*
X158923833Y-75912572D01*
X158557167Y-75369715D02*
X158557167Y-74998286D01*
X158823833Y-75198286D01*
X158823833Y-75112572D01*
X158857167Y-75055429D01*
X158890500Y-75026858D01*
X158957167Y-74998286D01*
X159123833Y-74998286D01*
X159190500Y-75026858D01*
X159223833Y-75055429D01*
X159257167Y-75112572D01*
X159257167Y-75284000D01*
X159223833Y-75341143D01*
X159190500Y-75369715D01*
X159257167Y-74426857D02*
X159257167Y-74769714D01*
X159257167Y-74598286D02*
X158557167Y-74598286D01*
X158657167Y-74655429D01*
X158723833Y-74712571D01*
X158757167Y-74769714D01*
D11*
X176135467Y-77322315D02*
X175802133Y-77522315D01*
X176135467Y-77665172D02*
X175435467Y-77665172D01*
X175435467Y-77436600D01*
X175468800Y-77379458D01*
X175502133Y-77350886D01*
X175568800Y-77322315D01*
X175668800Y-77322315D01*
X175735467Y-77350886D01*
X175768800Y-77379458D01*
X175802133Y-77436600D01*
X175802133Y-77665172D01*
X175435467Y-77122315D02*
X175435467Y-76750886D01*
X175702133Y-76950886D01*
X175702133Y-76865172D01*
X175735467Y-76808029D01*
X175768800Y-76779458D01*
X175835467Y-76750886D01*
X176002133Y-76750886D01*
X176068800Y-76779458D01*
X176102133Y-76808029D01*
X176135467Y-76865172D01*
X176135467Y-77036600D01*
X176102133Y-77093743D01*
X176068800Y-77122315D01*
X175502133Y-76522314D02*
X175468800Y-76493743D01*
X175435467Y-76436600D01*
X175435467Y-76293743D01*
X175468800Y-76236600D01*
X175502133Y-76208029D01*
X175568800Y-76179457D01*
X175635467Y-76179457D01*
X175735467Y-76208029D01*
X176135467Y-76550886D01*
X176135467Y-76179457D01*
X172592167Y-75569715D02*
X172258833Y-75769715D01*
X172592167Y-75912572D02*
X171892167Y-75912572D01*
X171892167Y-75684000D01*
X171925500Y-75626858D01*
X171958833Y-75598286D01*
X172025500Y-75569715D01*
X172125500Y-75569715D01*
X172192167Y-75598286D01*
X172225500Y-75626858D01*
X172258833Y-75684000D01*
X172258833Y-75912572D01*
X171892167Y-75369715D02*
X171892167Y-74998286D01*
X172158833Y-75198286D01*
X172158833Y-75112572D01*
X172192167Y-75055429D01*
X172225500Y-75026858D01*
X172292167Y-74998286D01*
X172458833Y-74998286D01*
X172525500Y-75026858D01*
X172558833Y-75055429D01*
X172592167Y-75112572D01*
X172592167Y-75284000D01*
X172558833Y-75341143D01*
X172525500Y-75369715D01*
X171892167Y-74798286D02*
X171892167Y-74426857D01*
X172158833Y-74626857D01*
X172158833Y-74541143D01*
X172192167Y-74484000D01*
X172225500Y-74455429D01*
X172292167Y-74426857D01*
X172458833Y-74426857D01*
X172525500Y-74455429D01*
X172558833Y-74484000D01*
X172592167Y-74541143D01*
X172592167Y-74712571D01*
X172558833Y-74769714D01*
X172525500Y-74798286D01*
X149351167Y-93032215D02*
X149017833Y-93232215D01*
X149351167Y-93375072D02*
X148651167Y-93375072D01*
X148651167Y-93146500D01*
X148684500Y-93089358D01*
X148717833Y-93060786D01*
X148784500Y-93032215D01*
X148884500Y-93032215D01*
X148951167Y-93060786D01*
X148984500Y-93089358D01*
X149017833Y-93146500D01*
X149017833Y-93375072D01*
X148651167Y-92832215D02*
X148651167Y-92460786D01*
X148917833Y-92660786D01*
X148917833Y-92575072D01*
X148951167Y-92517929D01*
X148984500Y-92489358D01*
X149051167Y-92460786D01*
X149217833Y-92460786D01*
X149284500Y-92489358D01*
X149317833Y-92517929D01*
X149351167Y-92575072D01*
X149351167Y-92746500D01*
X149317833Y-92803643D01*
X149284500Y-92832215D01*
X148884500Y-91946500D02*
X149351167Y-91946500D01*
X148617833Y-92089357D02*
X149117833Y-92232214D01*
X149117833Y-91860786D01*
D15*
X118584629Y-90593028D02*
X118298914Y-90759695D01*
X118584629Y-90878742D02*
X117984629Y-90878742D01*
X117984629Y-90688266D01*
X118013200Y-90640647D01*
X118041771Y-90616838D01*
X118098914Y-90593028D01*
X118184629Y-90593028D01*
X118241771Y-90616838D01*
X118270343Y-90640647D01*
X118298914Y-90688266D01*
X118298914Y-90878742D01*
X118584629Y-90116838D02*
X118584629Y-90402552D01*
X118584629Y-90259695D02*
X117984629Y-90259695D01*
X118070343Y-90307314D01*
X118127486Y-90354933D01*
X118156057Y-90402552D01*
X117984629Y-89807314D02*
X117984629Y-89759695D01*
X118013200Y-89712076D01*
X118041771Y-89688267D01*
X118098914Y-89664457D01*
X118213200Y-89640648D01*
X118356057Y-89640648D01*
X118470343Y-89664457D01*
X118527486Y-89688267D01*
X118556057Y-89712076D01*
X118584629Y-89759695D01*
X118584629Y-89807314D01*
X118556057Y-89854933D01*
X118527486Y-89878743D01*
X118470343Y-89902552D01*
X118356057Y-89926362D01*
X118213200Y-89926362D01*
X118098914Y-89902552D01*
X118041771Y-89878743D01*
X118013200Y-89854933D01*
X117984629Y-89807314D01*
D11*
X121982667Y-101283440D02*
X121649333Y-101483440D01*
X121982667Y-101626297D02*
X121282667Y-101626297D01*
X121282667Y-101397725D01*
X121316000Y-101340583D01*
X121349333Y-101312011D01*
X121416000Y-101283440D01*
X121516000Y-101283440D01*
X121582667Y-101312011D01*
X121616000Y-101340583D01*
X121649333Y-101397725D01*
X121649333Y-101626297D01*
X121982667Y-100712011D02*
X121982667Y-101054868D01*
X121982667Y-100883440D02*
X121282667Y-100883440D01*
X121382667Y-100940583D01*
X121449333Y-100997725D01*
X121482667Y-101054868D01*
X104558267Y-86460000D02*
X104224933Y-86660000D01*
X104558267Y-86802857D02*
X103858267Y-86802857D01*
X103858267Y-86574285D01*
X103891600Y-86517143D01*
X103924933Y-86488571D01*
X103991600Y-86460000D01*
X104091600Y-86460000D01*
X104158267Y-86488571D01*
X104191600Y-86517143D01*
X104224933Y-86574285D01*
X104224933Y-86802857D01*
X103924933Y-86231428D02*
X103891600Y-86202857D01*
X103858267Y-86145714D01*
X103858267Y-86002857D01*
X103891600Y-85945714D01*
X103924933Y-85917143D01*
X103991600Y-85888571D01*
X104058267Y-85888571D01*
X104158267Y-85917143D01*
X104558267Y-86260000D01*
X104558267Y-85888571D01*
X116197029Y-87755400D02*
X115911314Y-87955400D01*
X116197029Y-88098257D02*
X115597029Y-88098257D01*
X115597029Y-87869685D01*
X115625600Y-87812543D01*
X115654171Y-87783971D01*
X115711314Y-87755400D01*
X115797029Y-87755400D01*
X115854171Y-87783971D01*
X115882743Y-87812543D01*
X115911314Y-87869685D01*
X115911314Y-88098257D01*
X115597029Y-87555400D02*
X115597029Y-87183971D01*
X115825600Y-87383971D01*
X115825600Y-87298257D01*
X115854171Y-87241114D01*
X115882743Y-87212543D01*
X115939886Y-87183971D01*
X116082743Y-87183971D01*
X116139886Y-87212543D01*
X116168457Y-87241114D01*
X116197029Y-87298257D01*
X116197029Y-87469685D01*
X116168457Y-87526828D01*
X116139886Y-87555400D01*
X147088027Y-79403880D02*
X146754693Y-79603880D01*
X147088027Y-79746737D02*
X146388027Y-79746737D01*
X146388027Y-79518165D01*
X146421360Y-79461023D01*
X146454693Y-79432451D01*
X146521360Y-79403880D01*
X146621360Y-79403880D01*
X146688027Y-79432451D01*
X146721360Y-79461023D01*
X146754693Y-79518165D01*
X146754693Y-79746737D01*
X146621360Y-78889594D02*
X147088027Y-78889594D01*
X146354693Y-79032451D02*
X146854693Y-79175308D01*
X146854693Y-78803880D01*
X150227467Y-81115840D02*
X149894133Y-81315840D01*
X150227467Y-81458697D02*
X149527467Y-81458697D01*
X149527467Y-81230125D01*
X149560800Y-81172983D01*
X149594133Y-81144411D01*
X149660800Y-81115840D01*
X149760800Y-81115840D01*
X149827467Y-81144411D01*
X149860800Y-81172983D01*
X149894133Y-81230125D01*
X149894133Y-81458697D01*
X149527467Y-80572983D02*
X149527467Y-80858697D01*
X149860800Y-80887268D01*
X149827467Y-80858697D01*
X149794133Y-80801554D01*
X149794133Y-80658697D01*
X149827467Y-80601554D01*
X149860800Y-80572983D01*
X149927467Y-80544411D01*
X150094133Y-80544411D01*
X150160800Y-80572983D01*
X150194133Y-80601554D01*
X150227467Y-80658697D01*
X150227467Y-80801554D01*
X150194133Y-80858697D01*
X150160800Y-80887268D01*
X122531200Y-85051067D02*
X122331200Y-84717733D01*
X122188343Y-85051067D02*
X122188343Y-84351067D01*
X122416915Y-84351067D01*
X122474057Y-84384400D01*
X122502629Y-84417733D01*
X122531200Y-84484400D01*
X122531200Y-84584400D01*
X122502629Y-84651067D01*
X122474057Y-84684400D01*
X122416915Y-84717733D01*
X122188343Y-84717733D01*
X123045486Y-84351067D02*
X122931200Y-84351067D01*
X122874057Y-84384400D01*
X122845486Y-84417733D01*
X122788343Y-84517733D01*
X122759772Y-84651067D01*
X122759772Y-84917733D01*
X122788343Y-84984400D01*
X122816915Y-85017733D01*
X122874057Y-85051067D01*
X122988343Y-85051067D01*
X123045486Y-85017733D01*
X123074057Y-84984400D01*
X123102629Y-84917733D01*
X123102629Y-84751067D01*
X123074057Y-84684400D01*
X123045486Y-84651067D01*
X122988343Y-84617733D01*
X122874057Y-84617733D01*
X122816915Y-84651067D01*
X122788343Y-84684400D01*
X122759772Y-84751067D01*
X152767467Y-65352600D02*
X152434133Y-65552600D01*
X152767467Y-65695457D02*
X152067467Y-65695457D01*
X152067467Y-65466885D01*
X152100800Y-65409743D01*
X152134133Y-65381171D01*
X152200800Y-65352600D01*
X152300800Y-65352600D01*
X152367467Y-65381171D01*
X152400800Y-65409743D01*
X152434133Y-65466885D01*
X152434133Y-65695457D01*
X152067467Y-65152600D02*
X152067467Y-64752600D01*
X152767467Y-65009743D01*
X115708867Y-92771900D02*
X115375533Y-92971900D01*
X115708867Y-93114757D02*
X115008867Y-93114757D01*
X115008867Y-92886185D01*
X115042200Y-92829043D01*
X115075533Y-92800471D01*
X115142200Y-92771900D01*
X115242200Y-92771900D01*
X115308867Y-92800471D01*
X115342200Y-92829043D01*
X115375533Y-92886185D01*
X115375533Y-93114757D01*
X115308867Y-92429043D02*
X115275533Y-92486185D01*
X115242200Y-92514757D01*
X115175533Y-92543328D01*
X115142200Y-92543328D01*
X115075533Y-92514757D01*
X115042200Y-92486185D01*
X115008867Y-92429043D01*
X115008867Y-92314757D01*
X115042200Y-92257614D01*
X115075533Y-92229043D01*
X115142200Y-92200471D01*
X115175533Y-92200471D01*
X115242200Y-92229043D01*
X115275533Y-92257614D01*
X115308867Y-92314757D01*
X115308867Y-92429043D01*
X115342200Y-92486185D01*
X115375533Y-92514757D01*
X115442200Y-92543328D01*
X115575533Y-92543328D01*
X115642200Y-92514757D01*
X115675533Y-92486185D01*
X115708867Y-92429043D01*
X115708867Y-92314757D01*
X115675533Y-92257614D01*
X115642200Y-92229043D01*
X115575533Y-92200471D01*
X115442200Y-92200471D01*
X115375533Y-92229043D01*
X115342200Y-92257614D01*
X115308867Y-92314757D01*
X123852107Y-93075395D02*
X123518773Y-93275395D01*
X123852107Y-93418252D02*
X123152107Y-93418252D01*
X123152107Y-93189680D01*
X123185440Y-93132538D01*
X123218773Y-93103966D01*
X123285440Y-93075395D01*
X123385440Y-93075395D01*
X123452107Y-93103966D01*
X123485440Y-93132538D01*
X123518773Y-93189680D01*
X123518773Y-93418252D01*
X123218773Y-92846823D02*
X123185440Y-92818252D01*
X123152107Y-92761109D01*
X123152107Y-92618252D01*
X123185440Y-92561109D01*
X123218773Y-92532538D01*
X123285440Y-92503966D01*
X123352107Y-92503966D01*
X123452107Y-92532538D01*
X123852107Y-92875395D01*
X123852107Y-92503966D01*
X123218773Y-92275394D02*
X123185440Y-92246823D01*
X123152107Y-92189680D01*
X123152107Y-92046823D01*
X123185440Y-91989680D01*
X123218773Y-91961109D01*
X123285440Y-91932537D01*
X123352107Y-91932537D01*
X123452107Y-91961109D01*
X123852107Y-92303966D01*
X123852107Y-91932537D01*
X142239167Y-91444715D02*
X141905833Y-91644715D01*
X142239167Y-91787572D02*
X141539167Y-91787572D01*
X141539167Y-91559000D01*
X141572500Y-91501858D01*
X141605833Y-91473286D01*
X141672500Y-91444715D01*
X141772500Y-91444715D01*
X141839167Y-91473286D01*
X141872500Y-91501858D01*
X141905833Y-91559000D01*
X141905833Y-91787572D01*
X141605833Y-91216143D02*
X141572500Y-91187572D01*
X141539167Y-91130429D01*
X141539167Y-90987572D01*
X141572500Y-90930429D01*
X141605833Y-90901858D01*
X141672500Y-90873286D01*
X141739167Y-90873286D01*
X141839167Y-90901858D01*
X142239167Y-91244715D01*
X142239167Y-90873286D01*
X141539167Y-90673286D02*
X141539167Y-90301857D01*
X141805833Y-90501857D01*
X141805833Y-90416143D01*
X141839167Y-90359000D01*
X141872500Y-90330429D01*
X141939167Y-90301857D01*
X142105833Y-90301857D01*
X142172500Y-90330429D01*
X142205833Y-90359000D01*
X142239167Y-90416143D01*
X142239167Y-90587571D01*
X142205833Y-90644714D01*
X142172500Y-90673286D01*
X112793429Y-87939515D02*
X112507714Y-88139515D01*
X112793429Y-88282372D02*
X112193429Y-88282372D01*
X112193429Y-88053800D01*
X112222000Y-87996658D01*
X112250571Y-87968086D01*
X112307714Y-87939515D01*
X112393429Y-87939515D01*
X112450571Y-87968086D01*
X112479143Y-87996658D01*
X112507714Y-88053800D01*
X112507714Y-88282372D01*
X112793429Y-87368086D02*
X112793429Y-87710943D01*
X112793429Y-87539515D02*
X112193429Y-87539515D01*
X112279143Y-87596658D01*
X112336286Y-87653800D01*
X112364857Y-87710943D01*
X112793429Y-87082371D02*
X112793429Y-86968086D01*
X112764857Y-86910943D01*
X112736286Y-86882371D01*
X112650571Y-86825229D01*
X112536286Y-86796657D01*
X112307714Y-86796657D01*
X112250571Y-86825229D01*
X112222000Y-86853800D01*
X112193429Y-86910943D01*
X112193429Y-87025229D01*
X112222000Y-87082371D01*
X112250571Y-87110943D01*
X112307714Y-87139514D01*
X112450571Y-87139514D01*
X112507714Y-87110943D01*
X112536286Y-87082371D01*
X112564857Y-87025229D01*
X112564857Y-86910943D01*
X112536286Y-86853800D01*
X112507714Y-86825229D01*
X112450571Y-86796657D01*
D15*
X117682929Y-104270928D02*
X117397214Y-104437595D01*
X117682929Y-104556642D02*
X117082929Y-104556642D01*
X117082929Y-104366166D01*
X117111500Y-104318547D01*
X117140071Y-104294738D01*
X117197214Y-104270928D01*
X117282929Y-104270928D01*
X117340071Y-104294738D01*
X117368643Y-104318547D01*
X117397214Y-104366166D01*
X117397214Y-104556642D01*
X117140071Y-104080452D02*
X117111500Y-104056642D01*
X117082929Y-104009023D01*
X117082929Y-103889976D01*
X117111500Y-103842357D01*
X117140071Y-103818547D01*
X117197214Y-103794738D01*
X117254357Y-103794738D01*
X117340071Y-103818547D01*
X117682929Y-104104261D01*
X117682929Y-103794738D01*
X117082929Y-103485214D02*
X117082929Y-103437595D01*
X117111500Y-103389976D01*
X117140071Y-103366167D01*
X117197214Y-103342357D01*
X117311500Y-103318548D01*
X117454357Y-103318548D01*
X117568643Y-103342357D01*
X117625786Y-103366167D01*
X117654357Y-103389976D01*
X117682929Y-103437595D01*
X117682929Y-103485214D01*
X117654357Y-103532833D01*
X117625786Y-103556643D01*
X117568643Y-103580452D01*
X117454357Y-103604262D01*
X117311500Y-103604262D01*
X117197214Y-103580452D01*
X117140071Y-103556643D01*
X117111500Y-103532833D01*
X117082929Y-103485214D01*
D11*
X120950085Y-105726667D02*
X120750085Y-105393333D01*
X120607228Y-105726667D02*
X120607228Y-105026667D01*
X120835800Y-105026667D01*
X120892942Y-105060000D01*
X120921514Y-105093333D01*
X120950085Y-105160000D01*
X120950085Y-105260000D01*
X120921514Y-105326667D01*
X120892942Y-105360000D01*
X120835800Y-105393333D01*
X120607228Y-105393333D01*
X121178657Y-105093333D02*
X121207228Y-105060000D01*
X121264371Y-105026667D01*
X121407228Y-105026667D01*
X121464371Y-105060000D01*
X121492942Y-105093333D01*
X121521514Y-105160000D01*
X121521514Y-105226667D01*
X121492942Y-105326667D01*
X121150085Y-105726667D01*
X121521514Y-105726667D01*
X122092943Y-105726667D02*
X121750086Y-105726667D01*
X121921514Y-105726667D02*
X121921514Y-105026667D01*
X121864371Y-105126667D01*
X121807229Y-105193333D01*
X121750086Y-105226667D01*
X135825667Y-86237715D02*
X135492333Y-86437715D01*
X135825667Y-86580572D02*
X135125667Y-86580572D01*
X135125667Y-86352000D01*
X135159000Y-86294858D01*
X135192333Y-86266286D01*
X135259000Y-86237715D01*
X135359000Y-86237715D01*
X135425667Y-86266286D01*
X135459000Y-86294858D01*
X135492333Y-86352000D01*
X135492333Y-86580572D01*
X135192333Y-86009143D02*
X135159000Y-85980572D01*
X135125667Y-85923429D01*
X135125667Y-85780572D01*
X135159000Y-85723429D01*
X135192333Y-85694858D01*
X135259000Y-85666286D01*
X135325667Y-85666286D01*
X135425667Y-85694858D01*
X135825667Y-86037715D01*
X135825667Y-85666286D01*
X135125667Y-85152000D02*
X135125667Y-85266286D01*
X135159000Y-85323429D01*
X135192333Y-85352000D01*
X135292333Y-85409143D01*
X135425667Y-85437714D01*
X135692333Y-85437714D01*
X135759000Y-85409143D01*
X135792333Y-85380571D01*
X135825667Y-85323429D01*
X135825667Y-85209143D01*
X135792333Y-85152000D01*
X135759000Y-85123429D01*
X135692333Y-85094857D01*
X135525667Y-85094857D01*
X135459000Y-85123429D01*
X135425667Y-85152000D01*
X135392333Y-85209143D01*
X135392333Y-85323429D01*
X135425667Y-85380571D01*
X135459000Y-85409143D01*
X135525667Y-85437714D01*
X106319685Y-70674667D02*
X106119685Y-70341333D01*
X105976828Y-70674667D02*
X105976828Y-69974667D01*
X106205400Y-69974667D01*
X106262542Y-70008000D01*
X106291114Y-70041333D01*
X106319685Y-70108000D01*
X106319685Y-70208000D01*
X106291114Y-70274667D01*
X106262542Y-70308000D01*
X106205400Y-70341333D01*
X105976828Y-70341333D01*
X106548257Y-70041333D02*
X106576828Y-70008000D01*
X106633971Y-69974667D01*
X106776828Y-69974667D01*
X106833971Y-70008000D01*
X106862542Y-70041333D01*
X106891114Y-70108000D01*
X106891114Y-70174667D01*
X106862542Y-70274667D01*
X106519685Y-70674667D01*
X106891114Y-70674667D01*
X107233971Y-70274667D02*
X107176829Y-70241333D01*
X107148257Y-70208000D01*
X107119686Y-70141333D01*
X107119686Y-70108000D01*
X107148257Y-70041333D01*
X107176829Y-70008000D01*
X107233971Y-69974667D01*
X107348257Y-69974667D01*
X107405400Y-70008000D01*
X107433971Y-70041333D01*
X107462543Y-70108000D01*
X107462543Y-70141333D01*
X107433971Y-70208000D01*
X107405400Y-70241333D01*
X107348257Y-70274667D01*
X107233971Y-70274667D01*
X107176829Y-70308000D01*
X107148257Y-70341333D01*
X107119686Y-70408000D01*
X107119686Y-70541333D01*
X107148257Y-70608000D01*
X107176829Y-70641333D01*
X107233971Y-70674667D01*
X107348257Y-70674667D01*
X107405400Y-70641333D01*
X107433971Y-70608000D01*
X107462543Y-70541333D01*
X107462543Y-70408000D01*
X107433971Y-70341333D01*
X107405400Y-70308000D01*
X107348257Y-70274667D01*
X132617333Y-93764000D02*
X132650667Y-93678286D01*
X132650667Y-93535429D01*
X132617333Y-93478286D01*
X132584000Y-93449715D01*
X132517333Y-93421143D01*
X132450667Y-93421143D01*
X132384000Y-93449715D01*
X132350667Y-93478286D01*
X132317333Y-93535429D01*
X132284000Y-93649715D01*
X132250667Y-93706857D01*
X132217333Y-93735429D01*
X132150667Y-93764000D01*
X132084000Y-93764000D01*
X132017333Y-93735429D01*
X131984000Y-93706857D01*
X131950667Y-93649715D01*
X131950667Y-93506857D01*
X131984000Y-93421143D01*
X131950667Y-93221143D02*
X132650667Y-93078286D01*
X132150667Y-92964000D01*
X132650667Y-92849714D01*
X131950667Y-92706857D01*
X132017333Y-92506857D02*
X131984000Y-92478286D01*
X131950667Y-92421143D01*
X131950667Y-92278286D01*
X131984000Y-92221143D01*
X132017333Y-92192572D01*
X132084000Y-92164000D01*
X132150667Y-92164000D01*
X132250667Y-92192572D01*
X132650667Y-92535429D01*
X132650667Y-92164000D01*
X140681833Y-93637000D02*
X140715167Y-93551286D01*
X140715167Y-93408429D01*
X140681833Y-93351286D01*
X140648500Y-93322715D01*
X140581833Y-93294143D01*
X140515167Y-93294143D01*
X140448500Y-93322715D01*
X140415167Y-93351286D01*
X140381833Y-93408429D01*
X140348500Y-93522715D01*
X140315167Y-93579857D01*
X140281833Y-93608429D01*
X140215167Y-93637000D01*
X140148500Y-93637000D01*
X140081833Y-93608429D01*
X140048500Y-93579857D01*
X140015167Y-93522715D01*
X140015167Y-93379857D01*
X140048500Y-93294143D01*
X140015167Y-93094143D02*
X140715167Y-92951286D01*
X140215167Y-92837000D01*
X140715167Y-92722714D01*
X140015167Y-92579857D01*
X140015167Y-92408429D02*
X140015167Y-92037000D01*
X140281833Y-92237000D01*
X140281833Y-92151286D01*
X140315167Y-92094143D01*
X140348500Y-92065572D01*
X140415167Y-92037000D01*
X140581833Y-92037000D01*
X140648500Y-92065572D01*
X140681833Y-92094143D01*
X140715167Y-92151286D01*
X140715167Y-92322714D01*
X140681833Y-92379857D01*
X140648500Y-92408429D01*
X105185333Y-66586000D02*
X105218667Y-66500286D01*
X105218667Y-66357429D01*
X105185333Y-66300286D01*
X105152000Y-66271715D01*
X105085333Y-66243143D01*
X105018667Y-66243143D01*
X104952000Y-66271715D01*
X104918667Y-66300286D01*
X104885333Y-66357429D01*
X104852000Y-66471715D01*
X104818667Y-66528857D01*
X104785333Y-66557429D01*
X104718667Y-66586000D01*
X104652000Y-66586000D01*
X104585333Y-66557429D01*
X104552000Y-66528857D01*
X104518667Y-66471715D01*
X104518667Y-66328857D01*
X104552000Y-66243143D01*
X104518667Y-66043143D02*
X105218667Y-65900286D01*
X104718667Y-65786000D01*
X105218667Y-65671714D01*
X104518667Y-65528857D01*
X104752000Y-65043143D02*
X105218667Y-65043143D01*
X104485333Y-65186000D02*
X104985333Y-65328857D01*
X104985333Y-64957429D01*
X132765857Y-68958667D02*
X132765857Y-69525333D01*
X132794429Y-69592000D01*
X132823000Y-69625333D01*
X132880143Y-69658667D01*
X132994429Y-69658667D01*
X133051571Y-69625333D01*
X133080143Y-69592000D01*
X133108714Y-69525333D01*
X133108714Y-68958667D01*
X133337285Y-68958667D02*
X133708714Y-68958667D01*
X133508714Y-69225333D01*
X133594428Y-69225333D01*
X133651571Y-69258667D01*
X133680142Y-69292000D01*
X133708714Y-69358667D01*
X133708714Y-69525333D01*
X133680142Y-69592000D01*
X133651571Y-69625333D01*
X133594428Y-69658667D01*
X133423000Y-69658667D01*
X133365857Y-69625333D01*
X133337285Y-69592000D01*
X113893657Y-87072829D02*
X113893657Y-87558543D01*
X113922229Y-87615686D01*
X113950800Y-87644257D01*
X114007943Y-87672829D01*
X114122229Y-87672829D01*
X114179371Y-87644257D01*
X114207943Y-87615686D01*
X114236514Y-87558543D01*
X114236514Y-87072829D01*
X114836514Y-87672829D02*
X114493657Y-87672829D01*
X114665085Y-87672829D02*
X114665085Y-87072829D01*
X114607942Y-87158543D01*
X114550800Y-87215686D01*
X114493657Y-87244257D01*
X120307157Y-94676167D02*
X120307157Y-95242833D01*
X120335729Y-95309500D01*
X120364300Y-95342833D01*
X120421443Y-95376167D01*
X120535729Y-95376167D01*
X120592871Y-95342833D01*
X120621443Y-95309500D01*
X120650014Y-95242833D01*
X120650014Y-94676167D01*
X121192871Y-94909500D02*
X121192871Y-95376167D01*
X121050014Y-94642833D02*
X120907157Y-95142833D01*
X121278585Y-95142833D01*
X176072857Y-68404947D02*
X176072857Y-68971613D01*
X176101429Y-69038280D01*
X176130000Y-69071613D01*
X176187143Y-69104947D01*
X176301429Y-69104947D01*
X176358571Y-69071613D01*
X176387143Y-69038280D01*
X176415714Y-68971613D01*
X176415714Y-68404947D01*
X176958571Y-68404947D02*
X176844285Y-68404947D01*
X176787142Y-68438280D01*
X176758571Y-68471613D01*
X176701428Y-68571613D01*
X176672857Y-68704947D01*
X176672857Y-68971613D01*
X176701428Y-69038280D01*
X176730000Y-69071613D01*
X176787142Y-69104947D01*
X176901428Y-69104947D01*
X176958571Y-69071613D01*
X176987142Y-69038280D01*
X177015714Y-68971613D01*
X177015714Y-68804947D01*
X176987142Y-68738280D01*
X176958571Y-68704947D01*
X176901428Y-68671613D01*
X176787142Y-68671613D01*
X176730000Y-68704947D01*
X176701428Y-68738280D01*
X176672857Y-68804947D01*
X167782697Y-69466667D02*
X167782697Y-70033333D01*
X167811269Y-70100000D01*
X167839840Y-70133333D01*
X167896983Y-70166667D01*
X168011269Y-70166667D01*
X168068411Y-70133333D01*
X168096983Y-70100000D01*
X168125554Y-70033333D01*
X168125554Y-69466667D01*
X168354125Y-69466667D02*
X168754125Y-69466667D01*
X168496982Y-70166667D01*
X121746983Y-69466667D02*
X121746983Y-70033333D01*
X121775555Y-70100000D01*
X121804126Y-70133333D01*
X121861269Y-70166667D01*
X121975555Y-70166667D01*
X122032697Y-70133333D01*
X122061269Y-70100000D01*
X122089840Y-70033333D01*
X122089840Y-69466667D01*
X122689840Y-70166667D02*
X122346983Y-70166667D01*
X122518411Y-70166667D02*
X122518411Y-69466667D01*
X122461268Y-69566667D01*
X122404126Y-69633333D01*
X122346983Y-69666667D01*
X123261269Y-70166667D02*
X122918412Y-70166667D01*
X123089840Y-70166667D02*
X123089840Y-69466667D01*
X123032697Y-69566667D01*
X122975555Y-69633333D01*
X122918412Y-69666667D01*
X124189333Y-72675714D02*
X124522667Y-72675714D01*
X123822667Y-72875714D02*
X124189333Y-72675714D01*
X123822667Y-72475714D01*
X124522667Y-71961428D02*
X124522667Y-72304285D01*
X124522667Y-72132857D02*
X123822667Y-72132857D01*
X123922667Y-72190000D01*
X123989333Y-72247142D01*
X124022667Y-72304285D01*
X163010886Y-69604733D02*
X163010886Y-69938067D01*
X162810886Y-69238067D02*
X163010886Y-69604733D01*
X163210886Y-69238067D01*
X163382315Y-69304733D02*
X163410886Y-69271400D01*
X163468029Y-69238067D01*
X163610886Y-69238067D01*
X163668029Y-69271400D01*
X163696600Y-69304733D01*
X163725172Y-69371400D01*
X163725172Y-69438067D01*
X163696600Y-69538067D01*
X163353743Y-69938067D01*
X163725172Y-69938067D01*
X139914400Y-64412067D02*
X139914400Y-64912067D01*
X139885828Y-65012067D01*
X139828685Y-65078733D01*
X139742971Y-65112067D01*
X139685828Y-65112067D01*
X140485828Y-64412067D02*
X140200114Y-64412067D01*
X140171543Y-64745400D01*
X140200114Y-64712067D01*
X140257257Y-64678733D01*
X140400114Y-64678733D01*
X140457257Y-64712067D01*
X140485828Y-64745400D01*
X140514400Y-64812067D01*
X140514400Y-64978733D01*
X140485828Y-65045400D01*
X140457257Y-65078733D01*
X140400114Y-65112067D01*
X140257257Y-65112067D01*
X140200114Y-65078733D01*
X140171543Y-65045400D01*
X164945267Y-70735800D02*
X165445267Y-70735800D01*
X165545267Y-70764372D01*
X165611933Y-70821515D01*
X165645267Y-70907229D01*
X165645267Y-70964372D01*
X164945267Y-70507229D02*
X164945267Y-70107229D01*
X165645267Y-70364372D01*
X182890333Y-97764500D02*
X182923667Y-97678786D01*
X182923667Y-97535929D01*
X182890333Y-97478786D01*
X182857000Y-97450215D01*
X182790333Y-97421643D01*
X182723667Y-97421643D01*
X182657000Y-97450215D01*
X182623667Y-97478786D01*
X182590333Y-97535929D01*
X182557000Y-97650215D01*
X182523667Y-97707357D01*
X182490333Y-97735929D01*
X182423667Y-97764500D01*
X182357000Y-97764500D01*
X182290333Y-97735929D01*
X182257000Y-97707357D01*
X182223667Y-97650215D01*
X182223667Y-97507357D01*
X182257000Y-97421643D01*
X182223667Y-97221643D02*
X182923667Y-97078786D01*
X182423667Y-96964500D01*
X182923667Y-96850214D01*
X182223667Y-96707357D01*
X182923667Y-96164500D02*
X182923667Y-96507357D01*
X182923667Y-96335929D02*
X182223667Y-96335929D01*
X182323667Y-96393072D01*
X182390333Y-96450214D01*
X182423667Y-96507357D01*
X111571143Y-90140000D02*
X111656857Y-90173333D01*
X111685429Y-90206667D01*
X111714000Y-90273333D01*
X111714000Y-90373333D01*
X111685429Y-90440000D01*
X111656857Y-90473333D01*
X111599715Y-90506667D01*
X111371143Y-90506667D01*
X111371143Y-89806667D01*
X111571143Y-89806667D01*
X111628286Y-89840000D01*
X111656857Y-89873333D01*
X111685429Y-89940000D01*
X111685429Y-90006667D01*
X111656857Y-90073333D01*
X111628286Y-90106667D01*
X111571143Y-90140000D01*
X111371143Y-90140000D01*
X111942572Y-90306667D02*
X112228286Y-90306667D01*
X111885429Y-90506667D02*
X112085429Y-89806667D01*
X112285429Y-90506667D01*
X112399715Y-89806667D02*
X112742572Y-89806667D01*
X112571143Y-90506667D02*
X112571143Y-89806667D01*
X101393714Y-107471333D02*
X101479428Y-107504667D01*
X101622285Y-107504667D01*
X101679428Y-107471333D01*
X101707999Y-107438000D01*
X101736571Y-107371333D01*
X101736571Y-107304667D01*
X101707999Y-107238000D01*
X101679428Y-107204667D01*
X101622285Y-107171333D01*
X101507999Y-107138000D01*
X101450857Y-107104667D01*
X101422285Y-107071333D01*
X101393714Y-107004667D01*
X101393714Y-106938000D01*
X101422285Y-106871333D01*
X101450857Y-106838000D01*
X101507999Y-106804667D01*
X101650857Y-106804667D01*
X101736571Y-106838000D01*
X102108000Y-107171333D02*
X102108000Y-107504667D01*
X101908000Y-106804667D02*
X102108000Y-107171333D01*
X102308000Y-106804667D01*
X102479429Y-107471333D02*
X102565143Y-107504667D01*
X102708000Y-107504667D01*
X102765143Y-107471333D01*
X102793714Y-107438000D01*
X102822286Y-107371333D01*
X102822286Y-107304667D01*
X102793714Y-107238000D01*
X102765143Y-107204667D01*
X102708000Y-107171333D01*
X102593714Y-107138000D01*
X102536572Y-107104667D01*
X102508000Y-107071333D01*
X102479429Y-107004667D01*
X102479429Y-106938000D01*
X102508000Y-106871333D01*
X102536572Y-106838000D01*
X102593714Y-106804667D01*
X102736572Y-106804667D01*
X102822286Y-106838000D01*
X104641715Y-107534833D02*
X104727429Y-107568167D01*
X104870286Y-107568167D01*
X104927429Y-107534833D01*
X104956000Y-107501500D01*
X104984572Y-107434833D01*
X104984572Y-107368167D01*
X104956000Y-107301500D01*
X104927429Y-107268167D01*
X104870286Y-107234833D01*
X104756000Y-107201500D01*
X104698858Y-107168167D01*
X104670286Y-107134833D01*
X104641715Y-107068167D01*
X104641715Y-107001500D01*
X104670286Y-106934833D01*
X104698858Y-106901500D01*
X104756000Y-106868167D01*
X104898858Y-106868167D01*
X104984572Y-106901500D01*
X105184572Y-106868167D02*
X105327429Y-107568167D01*
X105441715Y-107068167D01*
X105556001Y-107568167D01*
X105698858Y-106868167D01*
X144166065Y-93728427D02*
X144537494Y-93728427D01*
X144337494Y-93995093D01*
X144423208Y-93995093D01*
X144480351Y-94028427D01*
X144508922Y-94061760D01*
X144537494Y-94128427D01*
X144537494Y-94295093D01*
X144508922Y-94361760D01*
X144480351Y-94395093D01*
X144423208Y-94428427D01*
X144251780Y-94428427D01*
X144194637Y-94395093D01*
X144166065Y-94361760D01*
X144794637Y-94361760D02*
X144823209Y-94395093D01*
X144794637Y-94428427D01*
X144766066Y-94395093D01*
X144794637Y-94361760D01*
X144794637Y-94428427D01*
X145023208Y-93728427D02*
X145394637Y-93728427D01*
X145194637Y-93995093D01*
X145280351Y-93995093D01*
X145337494Y-94028427D01*
X145366065Y-94061760D01*
X145394637Y-94128427D01*
X145394637Y-94295093D01*
X145366065Y-94361760D01*
X145337494Y-94395093D01*
X145280351Y-94428427D01*
X145108923Y-94428427D01*
X145051780Y-94395093D01*
X145023208Y-94361760D01*
X145566066Y-93728427D02*
X145766066Y-94428427D01*
X145966066Y-93728427D01*
X136321858Y-63932000D02*
X136264715Y-63898667D01*
X136179001Y-63898667D01*
X136093286Y-63932000D01*
X136036144Y-63998667D01*
X136007572Y-64065333D01*
X135979001Y-64198667D01*
X135979001Y-64298667D01*
X136007572Y-64432000D01*
X136036144Y-64498667D01*
X136093286Y-64565333D01*
X136179001Y-64598667D01*
X136236144Y-64598667D01*
X136321858Y-64565333D01*
X136350429Y-64532000D01*
X136350429Y-64298667D01*
X136236144Y-64298667D01*
X136607572Y-64598667D02*
X136607572Y-63898667D01*
X136950429Y-64598667D01*
X136950429Y-63898667D01*
X137236143Y-64598667D02*
X137236143Y-63898667D01*
X137379000Y-63898667D01*
X137464715Y-63932000D01*
X137521857Y-63998667D01*
X137550429Y-64065333D01*
X137579000Y-64198667D01*
X137579000Y-64298667D01*
X137550429Y-64432000D01*
X137521857Y-64498667D01*
X137464715Y-64565333D01*
X137379000Y-64598667D01*
X137236143Y-64598667D01*
X131488000Y-63953429D02*
X131688000Y-64553429D01*
X131888000Y-63953429D01*
X132288000Y-64239143D02*
X132373714Y-64267714D01*
X132402286Y-64296286D01*
X132430857Y-64353429D01*
X132430857Y-64439143D01*
X132402286Y-64496286D01*
X132373714Y-64524857D01*
X132316572Y-64553429D01*
X132088000Y-64553429D01*
X132088000Y-63953429D01*
X132288000Y-63953429D01*
X132345143Y-63982000D01*
X132373714Y-64010571D01*
X132402286Y-64067714D01*
X132402286Y-64124857D01*
X132373714Y-64182000D01*
X132345143Y-64210571D01*
X132288000Y-64239143D01*
X132088000Y-64239143D01*
X132688000Y-63953429D02*
X132688000Y-64439143D01*
X132716572Y-64496286D01*
X132745143Y-64524857D01*
X132802286Y-64553429D01*
X132916572Y-64553429D01*
X132973714Y-64524857D01*
X133002286Y-64496286D01*
X133030857Y-64439143D01*
X133030857Y-63953429D01*
X133288000Y-64524857D02*
X133373714Y-64553429D01*
X133516571Y-64553429D01*
X133573714Y-64524857D01*
X133602285Y-64496286D01*
X133630857Y-64439143D01*
X133630857Y-64382000D01*
X133602285Y-64324857D01*
X133573714Y-64296286D01*
X133516571Y-64267714D01*
X133402285Y-64239143D01*
X133345143Y-64210571D01*
X133316571Y-64182000D01*
X133288000Y-64124857D01*
X133288000Y-64067714D01*
X133316571Y-64010571D01*
X133345143Y-63982000D01*
X133402285Y-63953429D01*
X133545143Y-63953429D01*
X133630857Y-63982000D01*
X145861257Y-104233867D02*
X146232686Y-104233867D01*
X146032686Y-104500533D01*
X146118400Y-104500533D01*
X146175543Y-104533867D01*
X146204114Y-104567200D01*
X146232686Y-104633867D01*
X146232686Y-104800533D01*
X146204114Y-104867200D01*
X146175543Y-104900533D01*
X146118400Y-104933867D01*
X145946972Y-104933867D01*
X145889829Y-104900533D01*
X145861257Y-104867200D01*
X146489829Y-104867200D02*
X146518401Y-104900533D01*
X146489829Y-104933867D01*
X146461258Y-104900533D01*
X146489829Y-104867200D01*
X146489829Y-104933867D01*
X146718400Y-104233867D02*
X147089829Y-104233867D01*
X146889829Y-104500533D01*
X146975543Y-104500533D01*
X147032686Y-104533867D01*
X147061257Y-104567200D01*
X147089829Y-104633867D01*
X147089829Y-104800533D01*
X147061257Y-104867200D01*
X147032686Y-104900533D01*
X146975543Y-104933867D01*
X146804115Y-104933867D01*
X146746972Y-104900533D01*
X146718400Y-104867200D01*
X147261258Y-104233867D02*
X147461258Y-104933867D01*
X147661258Y-104233867D01*
X147718401Y-105000533D02*
X148175544Y-105000533D01*
X148604115Y-104933867D02*
X148318401Y-104933867D01*
X148318401Y-104233867D01*
D20*
X143046405Y-99303666D02*
X142246405Y-99303666D01*
X142246405Y-99137000D01*
X142284500Y-99037000D01*
X142360690Y-98970333D01*
X142436881Y-98937000D01*
X142589262Y-98903666D01*
X142703548Y-98903666D01*
X142855929Y-98937000D01*
X142932119Y-98970333D01*
X143008310Y-99037000D01*
X143046405Y-99137000D01*
X143046405Y-99303666D01*
X143046405Y-98237000D02*
X143046405Y-98637000D01*
X143046405Y-98437000D02*
X142246405Y-98437000D01*
X142360690Y-98503666D01*
X142436881Y-98570333D01*
X142474976Y-98637000D01*
D13*
X143016205Y-105731166D02*
X142216205Y-105731166D01*
X142216205Y-105564500D01*
X142254300Y-105464500D01*
X142330490Y-105397833D01*
X142406681Y-105364500D01*
X142559062Y-105331166D01*
X142673348Y-105331166D01*
X142825729Y-105364500D01*
X142901919Y-105397833D01*
X142978110Y-105464500D01*
X143016205Y-105564500D01*
X143016205Y-105731166D01*
X142292395Y-105064500D02*
X142254300Y-105031166D01*
X142216205Y-104964500D01*
X142216205Y-104797833D01*
X142254300Y-104731166D01*
X142292395Y-104697833D01*
X142368586Y-104664500D01*
X142444776Y-104664500D01*
X142559062Y-104697833D01*
X143016205Y-105097833D01*
X143016205Y-104664500D01*
D20*
X109155667Y-101827000D02*
X109155667Y-102112714D01*
X108455667Y-102112714D01*
X109155667Y-101312714D02*
X109155667Y-101655571D01*
X109155667Y-101484143D02*
X108455667Y-101484143D01*
X108555667Y-101541286D01*
X108622333Y-101598428D01*
X108655667Y-101655571D01*
D13*
X154990857Y-66672667D02*
X154990857Y-67239333D01*
X155019429Y-67306000D01*
X155048000Y-67339333D01*
X155105143Y-67372667D01*
X155219429Y-67372667D01*
X155276571Y-67339333D01*
X155305143Y-67306000D01*
X155333714Y-67239333D01*
X155333714Y-66672667D01*
X155590857Y-66739333D02*
X155619428Y-66706000D01*
X155676571Y-66672667D01*
X155819428Y-66672667D01*
X155876571Y-66706000D01*
X155905142Y-66739333D01*
X155933714Y-66806000D01*
X155933714Y-66872667D01*
X155905142Y-66972667D01*
X155562285Y-67372667D01*
X155933714Y-67372667D01*
X119758667Y-103497000D02*
X120258667Y-103497000D01*
X120358667Y-103525572D01*
X120425333Y-103582715D01*
X120458667Y-103668429D01*
X120458667Y-103725572D01*
X120458667Y-103211286D02*
X119758667Y-103211286D01*
X119758667Y-102982714D01*
X119792000Y-102925572D01*
X119825333Y-102897000D01*
X119892000Y-102868429D01*
X119992000Y-102868429D01*
X120058667Y-102897000D01*
X120092000Y-102925572D01*
X120125333Y-102982714D01*
X120125333Y-103211286D01*
X120458667Y-102297000D02*
X120458667Y-102639857D01*
X120458667Y-102468429D02*
X119758667Y-102468429D01*
X119858667Y-102525572D01*
X119925333Y-102582714D01*
X119958667Y-102639857D01*
X122626500Y-95374667D02*
X122626500Y-95874667D01*
X122597928Y-95974667D01*
X122540785Y-96041333D01*
X122455071Y-96074667D01*
X122397928Y-96074667D01*
X122912214Y-96074667D02*
X122912214Y-95374667D01*
X123140786Y-95374667D01*
X123197928Y-95408000D01*
X123226500Y-95441333D01*
X123255071Y-95508000D01*
X123255071Y-95608000D01*
X123226500Y-95674667D01*
X123197928Y-95708000D01*
X123140786Y-95741333D01*
X122912214Y-95741333D01*
X123483643Y-95441333D02*
X123512214Y-95408000D01*
X123569357Y-95374667D01*
X123712214Y-95374667D01*
X123769357Y-95408000D01*
X123797928Y-95441333D01*
X123826500Y-95508000D01*
X123826500Y-95574667D01*
X123797928Y-95674667D01*
X123455071Y-96074667D01*
X123826500Y-96074667D01*
X120647667Y-92575000D02*
X121147667Y-92575000D01*
X121247667Y-92603572D01*
X121314333Y-92660715D01*
X121347667Y-92746429D01*
X121347667Y-92803572D01*
X121347667Y-92289286D02*
X120647667Y-92289286D01*
X120647667Y-92060714D01*
X120681000Y-92003572D01*
X120714333Y-91975000D01*
X120781000Y-91946429D01*
X120881000Y-91946429D01*
X120947667Y-91975000D01*
X120981000Y-92003572D01*
X121014333Y-92060714D01*
X121014333Y-92289286D01*
X120647667Y-91746429D02*
X120647667Y-91375000D01*
X120914333Y-91575000D01*
X120914333Y-91489286D01*
X120947667Y-91432143D01*
X120981000Y-91403572D01*
X121047667Y-91375000D01*
X121214333Y-91375000D01*
X121281000Y-91403572D01*
X121314333Y-91432143D01*
X121347667Y-91489286D01*
X121347667Y-91660714D01*
X121314333Y-91717857D01*
X121281000Y-91746429D01*
D11*
X184390476Y-62207143D02*
X184390476Y-61307143D01*
X184390476Y-61735714D02*
X184847619Y-61735714D01*
X184847619Y-62207143D02*
X184847619Y-61307143D01*
X185190476Y-61392857D02*
X185228571Y-61350000D01*
X185304762Y-61307143D01*
X185495238Y-61307143D01*
X185571428Y-61350000D01*
X185609524Y-61392857D01*
X185647619Y-61478571D01*
X185647619Y-61564286D01*
X185609524Y-61692857D01*
X185152381Y-62207143D01*
X185647619Y-62207143D01*
M02*
