M48
;DRILL file {KiCad 4.0.7} date 05/21/18 17:25:49
;FORMAT={-:-/ absolute / metric / decimal}
FMAT,2
METRIC,TZ
T1C0.300
T2C0.400
T3C0.800
T4C0.990
T5C1.001
T6C1.200
T7C1.300
T8C1.500
T9C1.700
%
G90
G05
M71
T1
X111.768Y-70.747
X111.768Y-71.747
X112.268Y-71.247
X112.768Y-70.747
X112.768Y-71.747
T2
X101.994Y-95.631
X101.994Y-97.473
X102.Y-94.05
X102.032Y-100.432
X102.032Y-102.235
X104.521Y-93.98
X104.521Y-95.682
X104.521Y-97.472
X104.521Y-100.432
X105.002Y-92.
X105.131Y-81.94
X105.155Y-80.836
X105.537Y-89.129
X106.7Y-92.
X106.794Y-95.631
X106.794Y-93.98
X106.8Y-97.475
X106.832Y-100.432
X106.832Y-102.233
X107.01Y-89.129
X107.136Y-80.827
X107.137Y-81.94
X107.62Y-101.321
X107.747Y-71.628
X107.925Y-92.
X108.382Y-82.194
X108.382Y-89.129
X109.347Y-102.54
X109.35Y-92.
X109.45Y-94.
X109.475Y-95.174
X109.475Y-96.3
X110.442Y-99.606
X110.442Y-100.467
X110.515Y-102.133
X110.668Y-92.
X110.744Y-84.328
X110.744Y-85.153
X110.744Y-86.106
X111.633Y-97.696
X111.653Y-99.606
X111.658Y-100.47
X112.459Y-92.888
X112.459Y-94.463
X112.459Y-95.923
X112.648Y-79.623
X112.648Y-79.623
X112.855Y-99.606
X112.855Y-100.465
X113.309Y-91.669
X113.487Y-102.438
X113.576Y-92.888
X113.589Y-94.463
X113.843Y-88.036
X114.808Y-102.233
X114.96Y-84.15
X115.113Y-71.018
X115.621Y-89.51
X115.722Y-102.997
X116.Y-77.373
X116.Y-79.
X116.Y-80.875
X116.268Y-102.235
X117.289Y-97.16
X117.348Y-83.998
X117.348Y-84.976
X117.475Y-105.334
X118.008Y-84.582
X118.11Y-68.707
X118.237Y-91.237
X118.618Y-83.998
X118.631Y-84.963
X118.872Y-75.377
X119.252Y-79.623
X119.853Y-67.224
X120.574Y-96.622
X120.828Y-69.367
X121.164Y-83.718
X121.361Y-91.211
X121.666Y-104.242
X122.098Y-89.51
X122.123Y-90.373
X122.916Y-71.46
X123.6Y-106.2
X123.6Y-106.9
X123.952Y-76.683
X124.231Y-83.871
X124.5Y-106.2
X124.5Y-106.9
X124.5Y-107.7
X124.597Y-66.944
X125.171Y-83.16
X125.263Y-84.506
X125.3Y-107.7
X125.3Y-103.
X125.3Y-103.8
X125.3Y-104.6
X125.3Y-105.4
X125.3Y-106.2
X125.3Y-106.9
X125.349Y-81.636
X125.5Y-95.4
X125.5Y-95.4
X125.5Y-96.5
X125.5Y-97.5
X126.136Y-85.166
X126.7Y-95.4
X126.7Y-96.5
X126.7Y-97.5
X127.178Y-81.28
X127.61Y-69.215
X130.48Y-78.029
X130.81Y-75.882
X131.978Y-72.06
X132.6Y-92.2
X132.969Y-76.073
X133.02Y-83.693
X133.121Y-85.75
X134.366Y-76.073
X134.62Y-85.928
X134.887Y-67.462
X134.976Y-69.621
X135.331Y-80.899
X135.484Y-71.78
X135.712Y-68.936
X136.474Y-68.224
X137.465Y-73.457
X137.49Y-78.118
X137.49Y-80.213
X138.024Y-92.812
X139.8Y-94.4
X140.9Y-95.3
X141.2Y-92.6
X141.675Y-78.625
X141.884Y-61.925
X142.4Y-101.8
X143.119Y-71.125
X143.205Y-78.08
X143.6Y-92.6
X143.954Y-75.946
X144.097Y-98.471
X144.551Y-71.095
X145.669Y-102.641
X147.559Y-79.568
X147.988Y-95.372
X148.43Y-72.807
X148.768Y-102.641
X148.8Y-91.25
X149.682Y-75.184
X149.847Y-100.19
X149.847Y-105.867
X149.979Y-93.304
X150.177Y-64.897
X150.47Y-74.524
X151.282Y-75.159
X151.282Y-63.602
X151.654Y-106.816
X152.634Y-79.776
X152.634Y-81.148
X152.883Y-66.497
X153.213Y-74.524
X154.838Y-68.148
X155.5Y-101.1
X156.87Y-68.809
X157.061Y-74.409
X157.704Y-72.812
X157.772Y-75.209
X158.064Y-73.66
X158.42Y-79.781
X159.344Y-61.956
X159.736Y-82.354
X162.23Y-78.232
X163.576Y-100.482
X164.084Y-93.774
X164.109Y-95.453
X164.109Y-97.231
X164.554Y-106.375
X164.554Y-107.798
X164.668Y-82.413
X165.6Y-81.773
X165.76Y-100.94
X166.103Y-106.388
X166.103Y-107.785
X166.688Y-68.377
X166.84Y-93.777
X166.929Y-97.231
X167.005Y-95.352
X167.221Y-73.675
X167.229Y-82.37
X167.234Y-70.485
X167.488Y-106.388
X167.488Y-107.785
X168.224Y-99.847
X169.024Y-107.785
X169.037Y-106.388
X169.545Y-93.774
X169.596Y-95.326
X169.621Y-97.282
X169.672Y-90.361
X169.723Y-78.232
X170.002Y-66.98
X170.383Y-107.785
X170.434Y-101.6
X172.237Y-78.232
X172.343Y-91.783
X172.357Y-83.109
X172.898Y-70.485
X173.914Y-102.273
X173.977Y-105.583
X173.99Y-100.774
X174.422Y-93.777
X174.727Y-78.232
X175.374Y-81.597
X176.403Y-99.441
X176.936Y-84.049
X177.419Y-102.997
X177.419Y-104.14
X178.206Y-76.556
X178.943Y-102.87
X178.943Y-104.013
X178.943Y-105.192
X182.636Y-85.019
X184.277Y-89.23
X187.849Y-85.725
T3
X102.28Y-68.28
X102.28Y-70.28
X102.28Y-72.28
T4
X187.814Y-94.742
X187.814Y-99.242
T6
X145.Y-85.
T7
X185.324Y-93.492
X185.324Y-100.502
T8
X102.28Y-66.18
X102.28Y-74.38
T9
X142.46Y-82.46
X142.46Y-87.54
X147.54Y-82.46
X147.54Y-87.54
T5
X129.801Y-97.G85X131.799Y-97.
G05
X129.801Y-102.999G85X131.799Y-102.999
G05
X135.499Y-100.999G85X135.499Y-99.
G05
T0
M30
