G04 #@! TF.FileFunction,Copper,L1,Top,Signal*
%FSLAX46Y46*%
G04 Gerber Fmt 4.6, Leading zero omitted, Abs format (unit mm)*
G04 Created by KiCad (PCBNEW 4.0.7) date 05/21/18 17:19:51*
%MOMM*%
%LPD*%
G01*
G04 APERTURE LIST*
%ADD10C,0.100000*%
%ADD11R,3.500120X3.500120*%
%ADD12R,1.100000X2.000000*%
%ADD13R,2.000000X1.000000*%
%ADD14R,2.000000X2.000000*%
%ADD15R,0.575000X0.650000*%
%ADD16R,0.250000X0.700000*%
%ADD17O,0.850000X0.280000*%
%ADD18R,0.280000X0.280000*%
%ADD19C,0.600000*%
%ADD20R,1.700000X2.150000*%
%ADD21R,0.650000X0.900000*%
%ADD22R,0.230000X0.600000*%
%ADD23R,3.500000X3.500000*%
%ADD24R,1.524000X1.524000*%
%ADD25C,2.790000*%
%ADD26R,2.790000X1.600000*%
%ADD27R,1.360000X1.400000*%
%ADD28R,0.650000X0.575000*%
%ADD29R,1.400000X1.360000*%
%ADD30R,1.500000X0.970000*%
%ADD31R,0.970000X1.500000*%
%ADD32R,2.100580X1.699260*%
%ADD33R,0.670000X1.000000*%
%ADD34R,1.897380X1.897380*%
%ADD35R,1.899920X1.897380*%
%ADD36R,1.795780X1.897380*%
%ADD37R,2.095500X1.597660*%
%ADD38R,0.398780X1.346200*%
%ADD39R,0.700000X0.800000*%
%ADD40R,4.500000X4.290000*%
%ADD41R,1.000000X0.670000*%
%ADD42R,1.050000X0.750000*%
%ADD43C,2.000000*%
%ADD44C,1.200000*%
%ADD45R,1.000000X0.250000*%
%ADD46R,0.250000X1.000000*%
%ADD47R,0.280000X0.850000*%
%ADD48R,0.280000X0.750000*%
%ADD49R,0.700000X0.260000*%
%ADD50R,0.260000X0.700000*%
%ADD51R,2.700000X2.700000*%
%ADD52R,1.143000X0.508000*%
%ADD53R,0.500000X0.300000*%
%ADD54R,0.900000X1.000000*%
%ADD55R,1.000000X0.900000*%
%ADD56C,2.740000*%
%ADD57C,2.240000*%
%ADD58R,0.600000X1.700000*%
%ADD59R,1.500000X2.700000*%
%ADD60R,1.550000X2.700000*%
%ADD61C,2.100000*%
%ADD62C,1.750000*%
%ADD63C,1.000000*%
%ADD64R,2.200000X1.600000*%
%ADD65R,3.250000X3.000000*%
%ADD66R,1.600000X0.550000*%
%ADD67R,0.550000X1.600000*%
%ADD68C,0.250000*%
%ADD69C,0.500000*%
%ADD70C,0.800000*%
%ADD71C,0.400000*%
%ADD72C,0.600000*%
%ADD73C,0.300000*%
%ADD74C,0.254000*%
G04 APERTURE END LIST*
D10*
D11*
X130800000Y-96999860D03*
X130800000Y-102999340D03*
X135499000Y-99999600D03*
D12*
X172229000Y-79792000D03*
X169729000Y-79792000D03*
X167229000Y-79792000D03*
X164729000Y-79792000D03*
X162229000Y-79792000D03*
X159729000Y-79792000D03*
X157304000Y-79792000D03*
X155604000Y-79792000D03*
X174729000Y-79792000D03*
D13*
X152054000Y-91192000D03*
X152054000Y-100142000D03*
X152054000Y-102742000D03*
D14*
X151654000Y-86542000D03*
X180654000Y-86542000D03*
X151654000Y-105192000D03*
X180654000Y-105192000D03*
D15*
X157702100Y-72009000D03*
X158477100Y-72009000D03*
D16*
X112868000Y-69822000D03*
X111668000Y-69822000D03*
X112868000Y-72672000D03*
X111668000Y-72672000D03*
D17*
X113743000Y-72247000D03*
X113743000Y-71747000D03*
D18*
X114028000Y-71247000D03*
D17*
X113743000Y-70747000D03*
D18*
X114028000Y-70247000D03*
D17*
X110793000Y-70247000D03*
X110793000Y-70747000D03*
D18*
X110508000Y-71247000D03*
X110508000Y-71747000D03*
X110508000Y-72247000D03*
D19*
X112268000Y-71247000D03*
X112768000Y-71747000D03*
X111768000Y-71747000D03*
X112768000Y-70747000D03*
X111768000Y-70747000D03*
D16*
X112468000Y-72672000D03*
X112068000Y-72672000D03*
X112468000Y-69822000D03*
X112068000Y-69822000D03*
D20*
X112268000Y-71247000D03*
D18*
X114028000Y-72247000D03*
X114028000Y-71747000D03*
D17*
X113743000Y-71247000D03*
D18*
X114028000Y-70747000D03*
D17*
X113743000Y-70247000D03*
D18*
X110508000Y-70247000D03*
X110508000Y-70747000D03*
D17*
X110793000Y-71247000D03*
X110793000Y-71747000D03*
X110793000Y-72247000D03*
D21*
X112703000Y-71807000D03*
X111833000Y-70687000D03*
X112703000Y-70687000D03*
X111833000Y-71807000D03*
D22*
X112868000Y-72672000D03*
X112468000Y-72672000D03*
X112068000Y-72672000D03*
X111668000Y-72672000D03*
X112868000Y-69822000D03*
X112468000Y-69822000D03*
X112068000Y-69822000D03*
X111668000Y-69822000D03*
D23*
X101981000Y-80000000D03*
X101981000Y-90000000D03*
D24*
X117475000Y-107391200D03*
X121285000Y-107391200D03*
D25*
X187849000Y-85725000D03*
D26*
X187849000Y-82225000D03*
X187849000Y-89225000D03*
D15*
X161338555Y-71786293D03*
X160563555Y-71786293D03*
X160563555Y-67462400D03*
X161338555Y-67462400D03*
D27*
X113648000Y-75057000D03*
X110888000Y-75057000D03*
D28*
X128651000Y-68446500D03*
X128651000Y-69221500D03*
X129971800Y-68446500D03*
X129971800Y-69221500D03*
D15*
X125723500Y-71501000D03*
X126498500Y-71501000D03*
X141738500Y-72263000D03*
X140963500Y-72263000D03*
D29*
X107823000Y-86851000D03*
X107823000Y-84091000D03*
D28*
X137769600Y-84461500D03*
X137769600Y-83686500D03*
X105537000Y-84207500D03*
X105537000Y-83432500D03*
X132295900Y-84461500D03*
X132295900Y-83686500D03*
X130975100Y-84461500D03*
X130975100Y-83686500D03*
D29*
X123600000Y-101920000D03*
X123600000Y-104680000D03*
D15*
X123945500Y-77597000D03*
X124720500Y-77597000D03*
X125723500Y-78638400D03*
X126498500Y-78638400D03*
D28*
X138912600Y-84461500D03*
X138912600Y-83686500D03*
D15*
X141738500Y-71120000D03*
X140963500Y-71120000D03*
X140963500Y-73406000D03*
X141738500Y-73406000D03*
D28*
X121970800Y-75139700D03*
X121970800Y-74364700D03*
X136601200Y-83686500D03*
X136601200Y-84461500D03*
X124565154Y-91055642D03*
X124565154Y-90280642D03*
X126365000Y-74364700D03*
X126365000Y-75139700D03*
D15*
X117037000Y-100711000D03*
X116262000Y-100711000D03*
D28*
X118491000Y-101936400D03*
X118491000Y-102711400D03*
D30*
X112854512Y-97695874D03*
X112854512Y-99605874D03*
X110441512Y-97695874D03*
X110441512Y-99605874D03*
D31*
X106995000Y-73406000D03*
X108905000Y-73406000D03*
D15*
X109226500Y-71628000D03*
X108451500Y-71628000D03*
D30*
X120015000Y-75377000D03*
X120015000Y-73467000D03*
X117729000Y-75377000D03*
X117729000Y-73467000D03*
D15*
X182746500Y-70485000D03*
X183521500Y-70485000D03*
D32*
X117929660Y-87985600D03*
X121389140Y-87985600D03*
D33*
X123125000Y-99400000D03*
X124875000Y-99400000D03*
D34*
X123698880Y-62147800D03*
D35*
X121301120Y-62147800D03*
D36*
X118700160Y-62147800D03*
D37*
X125598800Y-64697960D03*
D38*
X123797940Y-64824960D03*
X123147700Y-64824960D03*
X122500000Y-64824960D03*
X121852300Y-64824960D03*
X121202060Y-64824960D03*
D37*
X119401200Y-64697960D03*
D36*
X126299840Y-62147800D03*
D34*
X168698880Y-62247800D03*
D35*
X166301120Y-62247800D03*
D36*
X163700160Y-62247800D03*
D37*
X170598800Y-64797960D03*
D38*
X168797940Y-64924960D03*
X168147700Y-64924960D03*
X167500000Y-64924960D03*
X166852300Y-64924960D03*
X166202060Y-64924960D03*
D37*
X164401200Y-64797960D03*
D36*
X171299840Y-62247800D03*
D30*
X116636800Y-69834800D03*
X116636800Y-71744800D03*
D39*
X117342071Y-82872779D03*
X118612071Y-82872779D03*
X119892071Y-82872779D03*
X121162071Y-82872779D03*
X121162071Y-77372779D03*
X119892071Y-77372779D03*
X118612071Y-77372779D03*
X117342071Y-77372779D03*
D40*
X119252071Y-79622779D03*
D39*
X110738071Y-82872779D03*
X112008071Y-82872779D03*
X113288071Y-82872779D03*
X114558071Y-82872779D03*
X114558071Y-77372779D03*
X113288071Y-77372779D03*
X112008071Y-77372779D03*
X110738071Y-77372779D03*
D40*
X112648071Y-79622779D03*
D15*
X123945500Y-80264000D03*
X124720500Y-80264000D03*
X153681580Y-78668880D03*
X152906580Y-78668880D03*
X143955620Y-74411840D03*
X144730620Y-74411840D03*
X144730620Y-73162160D03*
X143955620Y-73162160D03*
D28*
X151066500Y-79572000D03*
X151066500Y-78797000D03*
X169722800Y-77336800D03*
X169722800Y-76561800D03*
X162229800Y-77349500D03*
X162229800Y-76574500D03*
X160591500Y-77349500D03*
X160591500Y-76574500D03*
X158940500Y-77349500D03*
X158940500Y-76574500D03*
X174726600Y-77336800D03*
X174726600Y-76561800D03*
X172237400Y-77336800D03*
X172237400Y-76561800D03*
X150053040Y-91189660D03*
X150053040Y-91964660D03*
X118237000Y-92347900D03*
X118237000Y-93122900D03*
X121666000Y-102599340D03*
X121666000Y-103374340D03*
D41*
X105537000Y-87235000D03*
X105537000Y-85485000D03*
D28*
X115950071Y-86233279D03*
X115950071Y-85458279D03*
X148399500Y-79572000D03*
X148399500Y-78797000D03*
X149733000Y-79572000D03*
X149733000Y-78797000D03*
D15*
X120388571Y-84702779D03*
X121163571Y-84702779D03*
D28*
X151282400Y-65373100D03*
X151282400Y-66148100D03*
D41*
X116713000Y-92975400D03*
X116713000Y-91225400D03*
D28*
X124565154Y-92312642D03*
X124565154Y-93087642D03*
X140817600Y-90671500D03*
X140817600Y-91446500D03*
X112521071Y-86112779D03*
X112521071Y-85337779D03*
X117348000Y-101936400D03*
X117348000Y-102711400D03*
D15*
X119144900Y-105333800D03*
X119919900Y-105333800D03*
D28*
X135483600Y-83686500D03*
X135483600Y-84461500D03*
D15*
X108451500Y-70358000D03*
X109226500Y-70358000D03*
D42*
X130879154Y-92886142D03*
X130879154Y-90736142D03*
X126379154Y-92886142D03*
X126379154Y-90736142D03*
X134503600Y-90669800D03*
X134503600Y-92819800D03*
X139003600Y-90669800D03*
X139003600Y-92819800D03*
D43*
X102280000Y-74380000D03*
X102280000Y-66180000D03*
D44*
X102280000Y-72280000D03*
X102280000Y-70280000D03*
X102280000Y-68280000D03*
D45*
X128031000Y-72640500D03*
X128031000Y-73140500D03*
X128031000Y-73640500D03*
X128031000Y-74140500D03*
X128031000Y-74640500D03*
X128031000Y-75140500D03*
X128031000Y-75640500D03*
X128031000Y-76140500D03*
X128031000Y-76640500D03*
X128031000Y-77140500D03*
X128031000Y-77640500D03*
X128031000Y-78140500D03*
X128031000Y-78640500D03*
X128031000Y-79140500D03*
X128031000Y-79640500D03*
X128031000Y-80140500D03*
D46*
X129981000Y-82090500D03*
X130481000Y-82090500D03*
X130981000Y-82090500D03*
X131481000Y-82090500D03*
X131981000Y-82090500D03*
X132481000Y-82090500D03*
X132981000Y-82090500D03*
X133481000Y-82090500D03*
X133981000Y-82090500D03*
X134481000Y-82090500D03*
X134981000Y-82090500D03*
X135481000Y-82090500D03*
X135981000Y-82090500D03*
X136481000Y-82090500D03*
X136981000Y-82090500D03*
X137481000Y-82090500D03*
D45*
X139431000Y-80140500D03*
X139431000Y-79640500D03*
X139431000Y-79140500D03*
X139431000Y-78640500D03*
X139431000Y-78140500D03*
X139431000Y-77640500D03*
X139431000Y-77140500D03*
X139431000Y-76640500D03*
X139431000Y-76140500D03*
X139431000Y-75640500D03*
X139431000Y-75140500D03*
X139431000Y-74640500D03*
X139431000Y-74140500D03*
X139431000Y-73640500D03*
X139431000Y-73140500D03*
X139431000Y-72640500D03*
D46*
X137481000Y-70690500D03*
X136981000Y-70690500D03*
X136481000Y-70690500D03*
X135981000Y-70690500D03*
X135481000Y-70690500D03*
X134981000Y-70690500D03*
X134481000Y-70690500D03*
X133981000Y-70690500D03*
X133481000Y-70690500D03*
X132981000Y-70690500D03*
X132481000Y-70690500D03*
X131981000Y-70690500D03*
X131481000Y-70690500D03*
X130981000Y-70690500D03*
X130481000Y-70690500D03*
X129981000Y-70690500D03*
D47*
X114672071Y-85193779D03*
D48*
X114172071Y-85143779D03*
X113672071Y-85143779D03*
X113672071Y-86293779D03*
X114172071Y-86293779D03*
X114672071Y-86293779D03*
D49*
X119389000Y-98410400D03*
X119389000Y-97910400D03*
X119389000Y-97410400D03*
X119389000Y-96910400D03*
X119389000Y-96410400D03*
X119389000Y-95910400D03*
D50*
X118539000Y-95060400D03*
X118039000Y-95060400D03*
X117539000Y-95060400D03*
X117039000Y-95060400D03*
X116539000Y-95060400D03*
X116039000Y-95060400D03*
D49*
X115189000Y-95910400D03*
X115189000Y-96410400D03*
X115189000Y-96910400D03*
X115189000Y-97410400D03*
X115189000Y-97910400D03*
X115189000Y-98410400D03*
D50*
X116039000Y-99260400D03*
X116539000Y-99260400D03*
X117039000Y-99260400D03*
X117539000Y-99260400D03*
X118039000Y-99260400D03*
X118539000Y-99260400D03*
D51*
X117289000Y-97160400D03*
D52*
X181102000Y-70485000D03*
X181102000Y-71755000D03*
X181102000Y-73025000D03*
X181102000Y-74295000D03*
X174752000Y-74295000D03*
X174752000Y-73025000D03*
X174752000Y-71755000D03*
X174752000Y-70485000D03*
D53*
X168975000Y-68500000D03*
X168975000Y-67500000D03*
X167525000Y-68000000D03*
X168975000Y-68000000D03*
X167525000Y-67500000D03*
X167525000Y-68500000D03*
X123225000Y-68500000D03*
X123225000Y-67500000D03*
X121775000Y-68000000D03*
X123225000Y-68000000D03*
X121775000Y-67500000D03*
X121775000Y-68500000D03*
D54*
X123431000Y-73827200D03*
X123431000Y-75677200D03*
X124981000Y-73827200D03*
X124981000Y-75677200D03*
D55*
X160026055Y-70402293D03*
X161876055Y-70402293D03*
X160026055Y-68852293D03*
X161876055Y-68852293D03*
D56*
X142460000Y-82460000D03*
X147540000Y-82460000D03*
X147540000Y-87540000D03*
X142460000Y-87540000D03*
D57*
X145000000Y-85000000D03*
D58*
X144375000Y-65024000D03*
X145625000Y-65024000D03*
X146875000Y-65024000D03*
X148125000Y-65024000D03*
X143125000Y-65024000D03*
X141875000Y-65024000D03*
D59*
X139775000Y-61674000D03*
D60*
X150225000Y-61674000D03*
D41*
X165354000Y-69251800D03*
X165354000Y-67501800D03*
D61*
X185324000Y-100502000D03*
D62*
X187814000Y-99242000D03*
X187814000Y-94742000D03*
D61*
X185324000Y-93492000D03*
D63*
X112014000Y-91440000D03*
X102108000Y-105664000D03*
X105156000Y-105664000D03*
X145051780Y-95361760D03*
X136779000Y-65532000D03*
X132588000Y-65532000D03*
X147218400Y-105867200D03*
D64*
X140100000Y-100515000D03*
X140100000Y-97085000D03*
X140000000Y-103500000D03*
X140000000Y-106930000D03*
D65*
X104521000Y-102183000D03*
X104521000Y-95683000D03*
D66*
X155130500Y-75209000D03*
X155130500Y-74409000D03*
X155130500Y-73609000D03*
X155130500Y-72809000D03*
X155130500Y-72009000D03*
X155130500Y-71209000D03*
X155130500Y-70409000D03*
X155130500Y-69609000D03*
D67*
X153680500Y-68159000D03*
X152880500Y-68159000D03*
X152080500Y-68159000D03*
X151280500Y-68159000D03*
X150480500Y-68159000D03*
X149680500Y-68159000D03*
X148880500Y-68159000D03*
X148080500Y-68159000D03*
D66*
X146630500Y-69609000D03*
X146630500Y-70409000D03*
X146630500Y-71209000D03*
X146630500Y-72009000D03*
X146630500Y-72809000D03*
X146630500Y-73609000D03*
X146630500Y-74409000D03*
X146630500Y-75209000D03*
D67*
X148080500Y-76659000D03*
X148880500Y-76659000D03*
X149680500Y-76659000D03*
X150480500Y-76659000D03*
X151280500Y-76659000D03*
X152080500Y-76659000D03*
X152880500Y-76659000D03*
X153680500Y-76659000D03*
D28*
X120142000Y-101606500D03*
X120142000Y-100831500D03*
D15*
X123514000Y-96774000D03*
X122739000Y-96774000D03*
D28*
X119761000Y-92487900D03*
X119761000Y-91712900D03*
D19*
X132600000Y-92200000D03*
X125500000Y-95400000D03*
X126700000Y-97500000D03*
X126700000Y-96500000D03*
X126700000Y-95400000D03*
X125500000Y-95400000D03*
X125500000Y-96500000D03*
X125500000Y-97500000D03*
X141884400Y-61925200D03*
X187849000Y-85725000D03*
X143600000Y-92600000D03*
X141200000Y-92600000D03*
X125299994Y-107700000D03*
X124500006Y-107700000D03*
X125300000Y-103000000D03*
X125300000Y-103800000D03*
X125300000Y-104600000D03*
X125300000Y-105400000D03*
X125300000Y-106900000D03*
X125300000Y-106200000D03*
X124500000Y-106200000D03*
X124500000Y-106900000D03*
X123600000Y-106200000D03*
X123600000Y-106900000D03*
X159344360Y-61955680D03*
X167228522Y-82369830D03*
X118008400Y-84582000D03*
X169621200Y-97282000D03*
X169595800Y-95326200D03*
X167005000Y-95351600D03*
X166928800Y-97231200D03*
X164109400Y-97231200D03*
X164109400Y-95453200D03*
X174421800Y-93776800D03*
X169545000Y-93774500D03*
X164084000Y-93774500D03*
X178943000Y-102870000D03*
X178943000Y-104013000D03*
X169672000Y-90360500D03*
X172343000Y-91782900D03*
X164553900Y-107797600D03*
X164553900Y-106375200D03*
X166839900Y-93776800D03*
X166103300Y-107784900D03*
X166103300Y-106387900D03*
X167487600Y-107784900D03*
X167487600Y-106387900D03*
X169037000Y-106387900D03*
X169024300Y-107784900D03*
X170383200Y-107784900D03*
X159735520Y-82354420D03*
X143118840Y-71125080D03*
X148429980Y-72806560D03*
X152633680Y-81147920D03*
X152633680Y-79776320D03*
X117348000Y-84975700D03*
X118630700Y-84963000D03*
X117348000Y-83997800D03*
X118618000Y-83997800D03*
X118237000Y-91236800D03*
X110441740Y-100467160D03*
X112854740Y-100464620D03*
X111658400Y-100469700D03*
X158064200Y-73660000D03*
X111653320Y-99605874D03*
X112854512Y-99605874D03*
X110441512Y-99605874D03*
X117289000Y-97160400D03*
X118110000Y-68707000D03*
X115112800Y-71018400D03*
X151654000Y-106816400D03*
X178943000Y-105191560D03*
X130479800Y-78028800D03*
X123952000Y-76682600D03*
X167220900Y-73675410D03*
X108381800Y-82194400D03*
X167233600Y-70485000D03*
X172897800Y-70485000D03*
X182636160Y-85018880D03*
X107746800Y-71628000D03*
X184277000Y-89230200D03*
X173977300Y-105582720D03*
X142400000Y-101800000D03*
X147988020Y-95371920D03*
X144096740Y-98470720D03*
X175374300Y-81597500D03*
X178206400Y-76555600D03*
X165600380Y-81772760D03*
X147558760Y-79568040D03*
X156870400Y-68808600D03*
X157703520Y-72811640D03*
X151282402Y-63601600D03*
X121361200Y-91211400D03*
X121666000Y-104241600D03*
X118872000Y-75377000D03*
X176403000Y-99441000D03*
X138023600Y-92811600D03*
X149979380Y-93304360D03*
X172356780Y-83108800D03*
X164668200Y-82412840D03*
X163576000Y-100482400D03*
X170434000Y-101600000D03*
X137490201Y-80213199D03*
X124231400Y-83870798D03*
X113842800Y-88036400D03*
X149847300Y-100190300D03*
X176936400Y-84048600D03*
X149847300Y-105867200D03*
X137490200Y-78117700D03*
X137464804Y-73456800D03*
X127609600Y-69215000D03*
X133019800Y-83693000D03*
X143954500Y-75946000D03*
X125262640Y-84505800D03*
X105002400Y-92000000D03*
X113309400Y-91668600D03*
X110667800Y-92000000D03*
X107924600Y-92000000D03*
X113576100Y-92887800D03*
X112458500Y-95923100D03*
X112458500Y-92887800D03*
X112458500Y-94462600D03*
X113588800Y-94462600D03*
X108381800Y-89128600D03*
X107010200Y-89128600D03*
X105537000Y-89128600D03*
X109350000Y-92000000D03*
X106700000Y-92000000D03*
X110515400Y-102133400D03*
X113487200Y-102438200D03*
X109347000Y-102539800D03*
X115722400Y-102997000D03*
X107619800Y-101320600D03*
X116268500Y-102235000D03*
X114808000Y-102233000D03*
X102031800Y-102235000D03*
X102031800Y-100431600D03*
X106832400Y-102233000D03*
X106832400Y-100431600D03*
X104521000Y-100431600D03*
X109475000Y-95173800D03*
X104521000Y-95681800D03*
X111633000Y-97695874D03*
X104521000Y-97472500D03*
X101993700Y-97472502D03*
X106794298Y-93980000D03*
X106794296Y-95631000D03*
X101993698Y-95631000D03*
X109450000Y-94000000D03*
X109475000Y-96300000D03*
X106800000Y-97475000D03*
X102000000Y-94050000D03*
X104521000Y-93980000D03*
X152882598Y-66497200D03*
X120827800Y-69367402D03*
X170002200Y-66979800D03*
X122915680Y-71460360D03*
X126136398Y-85166200D03*
X134366000Y-76073000D03*
X166687500Y-68376800D03*
X134886700Y-67462400D03*
X124597160Y-66944240D03*
X133121400Y-85750400D03*
X134620000Y-85928200D03*
X122097800Y-89509600D03*
X115620800Y-89509600D03*
X132969000Y-76072992D03*
X119853142Y-67224021D03*
X135712200Y-68935600D03*
X172237400Y-78232000D03*
X134975600Y-69621400D03*
X169722800Y-78232000D03*
X162229800Y-78232000D03*
X135483600Y-71780400D03*
X158419800Y-79781400D03*
X143205200Y-78079600D03*
X136474196Y-68224400D03*
X174726600Y-78232000D03*
X148800000Y-91250000D03*
X141675000Y-78625000D03*
X125171200Y-83159600D03*
X145669000Y-102641400D03*
X148767800Y-102641400D03*
X153212800Y-74523600D03*
X151282400Y-75158600D03*
X144551400Y-71094600D03*
X139800000Y-94400000D03*
X149682200Y-75184000D03*
X140900000Y-95300000D03*
X150469600Y-74523600D03*
X150177500Y-64897000D03*
X125349000Y-81635600D03*
X177419000Y-104140000D03*
X155500000Y-101100000D03*
X127177800Y-81280000D03*
X177419000Y-102997000D03*
X135331200Y-80899000D03*
X165760400Y-100939600D03*
X168224200Y-99847400D03*
X105130600Y-81940400D03*
X107137200Y-81940400D03*
X107136110Y-80826742D03*
X105154637Y-80835765D03*
X110744000Y-86106000D03*
X110744000Y-85153500D03*
X110744000Y-84328000D03*
X154838400Y-68148200D03*
X157060900Y-74409300D03*
X157772100Y-75209400D03*
X121163571Y-83718400D03*
X114960400Y-84150200D03*
X112648071Y-79622779D03*
X119252071Y-79622779D03*
X112648071Y-79622779D03*
X116000000Y-77372779D03*
X116000000Y-80875000D03*
X116000000Y-79000000D03*
X120573800Y-96621600D03*
X117475000Y-105333800D03*
X122123200Y-90373200D03*
X130810000Y-75882500D03*
X131978400Y-72059800D03*
X173913800Y-102273100D03*
X173990000Y-100774500D03*
D68*
X139944300Y-91744800D02*
X135100000Y-91744800D01*
X135100000Y-91744800D02*
X134953600Y-91744800D01*
X132536142Y-90736142D02*
X133544800Y-91744800D01*
X133544800Y-91744800D02*
X135100000Y-91744800D01*
X130879154Y-90736142D02*
X132536142Y-90736142D01*
X126700000Y-95400000D02*
X126700000Y-96500000D01*
X125500000Y-96500000D02*
X125500000Y-95400000D01*
X127800000Y-98600000D02*
X126700000Y-97500000D01*
X126700000Y-97500000D02*
X125500000Y-97500000D01*
X127800000Y-99300000D02*
X127800000Y-98600000D01*
X128900000Y-100400000D02*
X127800000Y-99300000D01*
X130200720Y-100400000D02*
X128900000Y-100400000D01*
X130800000Y-102999340D02*
X130800000Y-100999280D01*
X130800000Y-100999280D02*
X130200720Y-100400000D01*
X171299840Y-62247800D02*
X168698880Y-62247800D01*
X168698880Y-62247800D02*
X166301120Y-62247800D01*
X163700160Y-62247800D02*
X164848050Y-62247800D01*
X164848050Y-62247800D02*
X166301120Y-62247800D01*
X163700160Y-62247800D02*
X163700160Y-64096920D01*
X163700160Y-64096920D02*
X164401200Y-64797960D01*
X164401200Y-64797960D02*
X164525640Y-64922400D01*
X164525640Y-64922400D02*
X166199500Y-64922400D01*
X166199500Y-64922400D02*
X166202060Y-64924960D01*
D69*
X163700160Y-62247800D02*
X159636480Y-62247800D01*
X159636480Y-62247800D02*
X159344360Y-61955680D01*
D68*
X118700160Y-62147800D02*
X118700160Y-63996920D01*
X118700160Y-63996920D02*
X119401200Y-64697960D01*
X126299840Y-62147800D02*
X126299840Y-63996920D01*
X126299840Y-63996920D02*
X125598800Y-64697960D01*
X126299840Y-62147800D02*
X123698880Y-62147800D01*
X123698880Y-62147800D02*
X121301120Y-62147800D01*
X118700160Y-62147800D02*
X119848050Y-62147800D01*
X119848050Y-62147800D02*
X121301120Y-62147800D01*
X121202060Y-64824960D02*
X119528200Y-64824960D01*
X119528200Y-64824960D02*
X119401200Y-64697960D01*
X123225000Y-68000000D02*
X126293000Y-68000000D01*
X126293000Y-68000000D02*
X126739500Y-68446500D01*
X126739500Y-68446500D02*
X128651000Y-68446500D01*
X141875000Y-65024000D02*
X141875000Y-67344800D01*
X141875000Y-67344800D02*
X141738500Y-67481300D01*
X141738500Y-67481300D02*
X141738500Y-71120000D01*
X141875000Y-65024000D02*
X139979400Y-65024000D01*
X139979400Y-65024000D02*
X139471400Y-65532000D01*
X139471400Y-65532000D02*
X136779000Y-65532000D01*
D69*
X141875000Y-61934600D02*
X141884400Y-61925200D01*
X141875000Y-65024000D02*
X141875000Y-61934600D01*
D68*
X140817600Y-91446500D02*
X140817600Y-92217600D01*
X140817600Y-92217600D02*
X141200000Y-92600000D01*
X125300000Y-103800000D02*
X125300000Y-103000000D01*
X125300000Y-105400000D02*
X125300000Y-104600000D01*
X124500000Y-106200000D02*
X125300000Y-106200000D01*
D70*
X123600000Y-104680000D02*
X123600000Y-106200000D01*
X123600000Y-104680000D02*
X123600000Y-105076200D01*
X123600000Y-105076200D02*
X121285000Y-107391200D01*
X123600000Y-104680000D02*
X123653800Y-104680000D01*
D68*
X119728200Y-64824960D02*
X119601200Y-64697960D01*
X170697570Y-62247800D02*
X172099840Y-62247800D01*
X171398800Y-64797960D02*
X171398800Y-62948840D01*
X171398800Y-62948840D02*
X172099840Y-62247800D01*
X167229000Y-82369352D02*
X167228522Y-82369830D01*
X167229000Y-79792000D02*
X167229000Y-82369352D01*
X124395898Y-72291102D02*
X125186000Y-71501000D01*
X122190898Y-72291102D02*
X124395898Y-72291102D01*
X121015000Y-73467000D02*
X122190898Y-72291102D01*
X125186000Y-71501000D02*
X125723500Y-71501000D01*
X120015000Y-73467000D02*
X121015000Y-73467000D01*
X169595800Y-95326200D02*
X169595800Y-97256600D01*
X169595800Y-97256600D02*
X169621200Y-97282000D01*
X166928800Y-97231200D02*
X166928800Y-95427800D01*
X166928800Y-95427800D02*
X167005000Y-95351600D01*
X164109400Y-95453200D02*
X164109400Y-97231200D01*
D69*
X180654000Y-105192000D02*
X178943440Y-105192000D01*
X178943440Y-105192000D02*
X178943000Y-105191560D01*
X164553900Y-107797600D02*
X164553900Y-106375200D01*
X166103300Y-106387900D02*
X166103300Y-107784900D01*
X167487600Y-106387900D02*
X167487600Y-107784900D01*
X169024300Y-107784900D02*
X169024300Y-106400600D01*
X169024300Y-106400600D02*
X169037000Y-106387900D01*
X155130500Y-73609000D02*
X153830500Y-73609000D01*
X153830500Y-73609000D02*
X153471880Y-73250380D01*
X153471880Y-73250380D02*
X153471880Y-72367620D01*
X153471880Y-72367620D02*
X153830500Y-72009000D01*
X153830500Y-72009000D02*
X155130500Y-72009000D01*
D68*
X130481000Y-82090500D02*
X130481000Y-78030000D01*
X130481000Y-78030000D02*
X130479800Y-78028800D01*
X159729000Y-82347900D02*
X159735520Y-82354420D01*
X159729000Y-79792000D02*
X159729000Y-82347900D01*
X126379154Y-90736142D02*
X130879154Y-90736142D01*
X125608080Y-90748568D02*
X126366728Y-90748568D01*
X126366728Y-90748568D02*
X126379154Y-90736142D01*
X124565154Y-90280642D02*
X125140154Y-90280642D01*
X125140154Y-90280642D02*
X125608080Y-90748568D01*
D69*
X155130500Y-73609000D02*
X158013200Y-73609000D01*
X158013200Y-73609000D02*
X158064200Y-73660000D01*
D68*
X108991400Y-76200000D02*
X108381800Y-76809600D01*
X108381800Y-76809600D02*
X108381800Y-82194400D01*
X110695000Y-76200000D02*
X108991400Y-76200000D01*
X110888000Y-76007000D02*
X110695000Y-76200000D01*
X110888000Y-75057000D02*
X110888000Y-76007000D01*
X108905000Y-74589600D02*
X109372400Y-75057000D01*
X109372400Y-75057000D02*
X109958000Y-75057000D01*
X108905000Y-73406000D02*
X108905000Y-74589600D01*
D69*
X141738500Y-71120000D02*
X143113760Y-71120000D01*
X143113760Y-71120000D02*
X143118840Y-71125080D01*
X146630500Y-72809000D02*
X148427540Y-72809000D01*
X148427540Y-72809000D02*
X148429980Y-72806560D01*
D68*
X113761520Y-100243640D02*
X113540540Y-100464620D01*
X113540540Y-100464620D02*
X112854740Y-100464620D01*
X113761520Y-100230940D02*
X113522760Y-100469700D01*
X114388900Y-99603560D02*
X113761520Y-100230940D01*
X113761520Y-100230940D02*
X113761520Y-100243640D01*
X113522760Y-100469700D02*
X112849660Y-100469700D01*
X114388900Y-99006660D02*
X114388900Y-99204780D01*
X114388900Y-98757740D02*
X114388900Y-99006660D01*
X114388900Y-99006660D02*
X114388900Y-99603560D01*
X115923060Y-98276340D02*
X115923060Y-98137980D01*
X115189000Y-98410400D02*
X115789000Y-98410400D01*
X115789000Y-98410400D02*
X115923060Y-98276340D01*
X115189000Y-98410400D02*
X116039000Y-98410400D01*
X116039000Y-98410400D02*
X117289000Y-97160400D01*
X115409000Y-98410400D02*
X115839240Y-97980160D01*
X115839240Y-97980160D02*
X116659000Y-97160400D01*
X115189000Y-98183700D02*
X115635700Y-98183700D01*
X115635700Y-98183700D02*
X115839240Y-97980160D01*
X115189000Y-98410400D02*
X115409000Y-98410400D01*
X116659000Y-97160400D02*
X117289000Y-97160400D01*
X115468400Y-98239580D02*
X115468400Y-98189800D01*
X115468400Y-98189800D02*
X115189000Y-97910400D01*
X115297580Y-98410400D02*
X115468400Y-98239580D01*
X115189000Y-98410400D02*
X115297580Y-98410400D01*
D70*
X110441740Y-100467160D02*
X110792034Y-100467160D01*
X110792034Y-100467160D02*
X111653320Y-99605874D01*
X112854740Y-100464620D02*
X112512066Y-100464620D01*
X112512066Y-100464620D02*
X111653320Y-99605874D01*
X112854740Y-100464620D02*
X113713486Y-99605874D01*
X113713486Y-99605874D02*
X113993526Y-99605874D01*
X111653320Y-99605874D02*
X112854512Y-99605874D01*
X110441512Y-99605874D02*
X111653320Y-99605874D01*
X110441512Y-99605874D02*
X110441512Y-100466932D01*
X110441512Y-100466932D02*
X110441740Y-100467160D01*
X110441740Y-100467160D02*
X111655860Y-100467160D01*
X111655860Y-100467160D02*
X111658400Y-100469700D01*
X111658400Y-100469700D02*
X112849660Y-100469700D01*
X112849660Y-100469700D02*
X112854740Y-100464620D01*
X112854512Y-99605874D02*
X113993526Y-99605874D01*
X113993526Y-99605874D02*
X115189000Y-98410400D01*
D68*
X113957100Y-99466174D02*
X113957100Y-98958400D01*
X113957100Y-98958400D02*
X113957100Y-98704400D01*
D70*
X112854512Y-99605874D02*
X113309626Y-99605874D01*
X113309626Y-99605874D02*
X113957100Y-98958400D01*
D68*
X118491000Y-102711400D02*
X118491000Y-103248900D01*
X118491000Y-103248900D02*
X119919900Y-104677800D01*
X119919900Y-104677800D02*
X119919900Y-104758800D01*
X119919900Y-104758800D02*
X119919900Y-105333800D01*
X114254280Y-98577400D02*
X114300000Y-98577400D01*
X114300000Y-98577400D02*
X114467000Y-98410400D01*
X115189000Y-97910400D02*
X114662200Y-97910400D01*
X114662200Y-97910400D02*
X114274600Y-98298000D01*
X112854512Y-99605874D02*
X113487426Y-99605874D01*
X113487426Y-99605874D02*
X113830100Y-99263200D01*
X113820400Y-98739500D02*
X114254280Y-98305620D01*
X113830100Y-99263200D02*
X113830100Y-98856800D01*
X113830100Y-98856800D02*
X113820400Y-98847100D01*
X113820400Y-98847100D02*
X113820400Y-98739500D01*
X115189000Y-98410400D02*
X114653700Y-98410400D01*
X114604800Y-98653600D02*
X114604800Y-99021900D01*
X114604800Y-99021900D02*
X114490500Y-99136200D01*
X114604800Y-98653600D02*
X114725800Y-98653600D01*
X114725800Y-98653600D02*
X114969000Y-98410400D01*
X114969000Y-98410400D02*
X115189000Y-98410400D01*
X114467000Y-98410400D02*
X114490500Y-98433900D01*
X114490500Y-98433900D02*
X114490500Y-99136200D01*
X113817400Y-99605874D02*
X113957100Y-99466174D01*
X113957100Y-98704400D02*
X113982500Y-98679000D01*
X113987806Y-99605874D02*
X114185700Y-99407980D01*
X114185700Y-99407980D02*
X114185700Y-98645980D01*
X114185700Y-98645980D02*
X114254280Y-98577400D01*
X114254280Y-98623120D02*
X114388900Y-98757740D01*
X114388900Y-99204780D02*
X113987806Y-99605874D01*
X113817400Y-99605874D02*
X112854512Y-99605874D01*
X113987806Y-99605874D02*
X113817400Y-99605874D01*
X115049300Y-98044000D02*
X114630200Y-98044000D01*
X115182900Y-97910400D02*
X115049300Y-98044000D01*
X115189000Y-97910400D02*
X115182900Y-97910400D01*
X114467000Y-98410400D02*
X114467000Y-98245300D01*
X114467000Y-98245300D02*
X114528600Y-98183700D01*
X115189000Y-98183700D02*
X115189000Y-97910400D01*
X115189000Y-98410400D02*
X115189000Y-98183700D01*
X115189000Y-98183700D02*
X114528600Y-98183700D01*
X114254280Y-98577400D02*
X114254280Y-98623120D01*
X152906580Y-78668880D02*
X152906580Y-79503420D01*
X152906580Y-79503420D02*
X152633680Y-79776320D01*
X117348000Y-84975700D02*
X118618000Y-84975700D01*
X118618000Y-84975700D02*
X118630700Y-84963000D01*
X117348000Y-83997800D02*
X118618000Y-83997800D01*
X117348000Y-83997800D02*
X117348000Y-84975700D01*
X118618000Y-83997800D02*
X118618000Y-84950300D01*
X118618000Y-84950300D02*
X118630700Y-84963000D01*
X117048001Y-85275699D02*
X117348000Y-84975700D01*
X116865421Y-85458279D02*
X117048001Y-85275699D01*
X115950071Y-85458279D02*
X116865421Y-85458279D01*
X120388571Y-84702779D02*
X118890921Y-84702779D01*
X118890921Y-84702779D02*
X118630700Y-84963000D01*
X117342071Y-82872779D02*
X117342071Y-83991871D01*
X117342071Y-83991871D02*
X117348000Y-83997800D01*
X118612071Y-82872779D02*
X118612071Y-83991871D01*
X118612071Y-83991871D02*
X118618000Y-83997800D01*
X116713000Y-91225400D02*
X118225600Y-91225400D01*
X118225600Y-91225400D02*
X118237000Y-91236800D01*
X118237000Y-92347900D02*
X118237000Y-91236800D01*
X111653320Y-99605874D02*
X111653320Y-100464620D01*
X111653320Y-100464620D02*
X111658400Y-100469700D01*
X112854512Y-99605874D02*
X112854512Y-100464392D01*
X112854512Y-100464392D02*
X112854740Y-100464620D01*
X158477100Y-72009000D02*
X159194500Y-72009000D01*
X159194500Y-72009000D02*
X160020000Y-72834500D01*
X160020000Y-72834500D02*
X161036000Y-72834500D01*
X161036000Y-72834500D02*
X161338555Y-72531945D01*
X161338555Y-72531945D02*
X161338555Y-71786293D01*
X146630500Y-72809000D02*
X145580500Y-72809000D01*
X145580500Y-72809000D02*
X145034500Y-72263000D01*
X145034500Y-72263000D02*
X142276000Y-72263000D01*
X142276000Y-72263000D02*
X141738500Y-72263000D01*
X142951200Y-73406000D02*
X143195040Y-73162160D01*
X143195040Y-73162160D02*
X143955620Y-73162160D01*
X141738500Y-73406000D02*
X142951200Y-73406000D01*
X132295900Y-84461500D02*
X132295900Y-85849902D01*
X132295900Y-85849902D02*
X133024599Y-86578601D01*
X135899999Y-86578601D02*
X136601200Y-85877400D01*
X133024599Y-86578601D02*
X135899999Y-86578601D01*
X136601200Y-85877400D02*
X136601200Y-84461500D01*
X119919900Y-105333800D02*
X120802400Y-105333800D01*
X120802400Y-105333800D02*
X121285000Y-105816400D01*
X121285000Y-106379200D02*
X121285000Y-107391200D01*
X121285000Y-105816400D02*
X121285000Y-106379200D01*
X168975000Y-68000000D02*
X173841800Y-68000000D01*
X173841800Y-68000000D02*
X174752000Y-68910200D01*
X174752000Y-68910200D02*
X174752000Y-70485000D01*
X117729000Y-73467000D02*
X117729000Y-72644000D01*
X117729000Y-72644000D02*
X118110000Y-72263000D01*
X118110000Y-72263000D02*
X118110000Y-68707000D01*
X113743000Y-71247000D02*
X114884200Y-71247000D01*
X114884200Y-71247000D02*
X115112800Y-71018400D01*
X110793000Y-71747000D02*
X110508000Y-71747000D01*
X113743000Y-71247000D02*
X114028000Y-71247000D01*
X151654000Y-106816400D02*
X151654000Y-105192000D01*
X148040000Y-87540000D02*
X149543600Y-87540000D01*
X149543600Y-87540000D02*
X150541600Y-86542000D01*
X150541600Y-86542000D02*
X151654000Y-86542000D01*
X148040000Y-87540000D02*
X146102528Y-87540000D01*
X146102528Y-87540000D02*
X142960000Y-87540000D01*
X142960000Y-82460000D02*
X148040000Y-82460000D01*
X142960000Y-82460000D02*
X142960000Y-84397472D01*
X142960000Y-84397472D02*
X142960000Y-87540000D01*
X123952000Y-76682600D02*
X125933200Y-76682600D01*
X127391100Y-78140500D02*
X128031000Y-78140500D01*
X125933200Y-76682600D02*
X127391100Y-78140500D01*
X123952000Y-76682600D02*
X123952000Y-77590500D01*
X123952000Y-77590500D02*
X123945500Y-77597000D01*
X123431000Y-75677200D02*
X123431000Y-76161600D01*
X123431000Y-76161600D02*
X123952000Y-76682600D01*
X130810000Y-69646800D02*
X130810000Y-68709700D01*
X130810000Y-68709700D02*
X130546800Y-68446500D01*
X130546800Y-68446500D02*
X129971800Y-68446500D01*
X136779000Y-65532000D02*
X136779000Y-66522300D01*
X136779000Y-66522300D02*
X134854800Y-68446500D01*
X129971800Y-68446500D02*
X134854800Y-68446500D01*
X167233600Y-70485000D02*
X167233600Y-73662710D01*
X167229000Y-73683510D02*
X167220900Y-73675410D01*
X167233600Y-73662710D02*
X167220900Y-73675410D01*
X167229000Y-79792000D02*
X167229000Y-73683510D01*
X167233600Y-79787400D02*
X167229000Y-79792000D01*
X174752000Y-70916800D02*
X174752000Y-70485000D01*
X174752000Y-71755000D02*
X174752000Y-70916800D01*
X174752000Y-73025000D02*
X174752000Y-71755000D01*
X174752000Y-74295000D02*
X174752000Y-73025000D01*
X182829200Y-69138800D02*
X183521500Y-69831100D01*
X183521500Y-69831100D02*
X183521500Y-70485000D01*
X177800000Y-69138800D02*
X182829200Y-69138800D01*
X176453800Y-70485000D02*
X177800000Y-69138800D01*
X174752000Y-70485000D02*
X176453800Y-70485000D01*
X164450160Y-64596920D02*
X165151200Y-65297960D01*
X165278200Y-65424960D02*
X165151200Y-65297960D01*
X172897800Y-70485000D02*
X174752000Y-70485000D01*
X167229000Y-70489600D02*
X167233600Y-70485000D01*
X138912600Y-84461500D02*
X139972900Y-84461500D01*
X139972900Y-84461500D02*
X140309600Y-84124800D01*
X140309600Y-84124800D02*
X140309600Y-82829400D01*
X140309600Y-82829400D02*
X140679000Y-82460000D01*
X140679000Y-82460000D02*
X142960000Y-82460000D01*
X180654000Y-86542000D02*
X180654000Y-85292000D01*
X180654000Y-85292000D02*
X180927120Y-85018880D01*
X180927120Y-85018880D02*
X182636160Y-85018880D01*
X120015000Y-73467000D02*
X120990400Y-73467000D01*
X120990400Y-73467000D02*
X121224040Y-73700640D01*
X121224040Y-73700640D02*
X121224040Y-74967940D01*
X121224040Y-74967940D02*
X121395800Y-75139700D01*
X121395800Y-75139700D02*
X121970800Y-75139700D01*
X108451500Y-71628000D02*
X107746800Y-71628000D01*
X122085100Y-75679300D02*
X123428900Y-75679300D01*
X121970800Y-75565000D02*
X122085100Y-75679300D01*
X121970800Y-75139700D02*
X121970800Y-75565000D01*
X130481000Y-82090500D02*
X130481000Y-82840500D01*
X130481000Y-82840500D02*
X130111500Y-83210000D01*
X130111500Y-83210000D02*
X130111500Y-84201000D01*
X130111500Y-84201000D02*
X130372000Y-84461500D01*
X130372000Y-84461500D02*
X130975100Y-84461500D01*
X130975100Y-84461500D02*
X132295900Y-84461500D01*
X135483600Y-84461500D02*
X136601200Y-84461500D01*
X136601200Y-84461500D02*
X137769600Y-84461500D01*
X138912600Y-84461500D02*
X137769600Y-84461500D01*
X109958000Y-75057000D02*
X110888000Y-75057000D01*
X108905000Y-73406000D02*
X109753400Y-73406000D01*
X109753400Y-73406000D02*
X109982000Y-73177400D01*
X109982000Y-73177400D02*
X109982000Y-71883000D01*
X110118000Y-71747000D02*
X110793000Y-71747000D01*
X109982000Y-71883000D02*
X110118000Y-71747000D01*
X108451500Y-71628000D02*
X108451500Y-72078700D01*
X108451500Y-72078700D02*
X108915200Y-72542400D01*
X108915200Y-72542400D02*
X108915200Y-73395800D01*
X108915200Y-73395800D02*
X108905000Y-73406000D01*
X117289000Y-97160400D02*
X116539000Y-97910400D01*
X116539000Y-97910400D02*
X115189000Y-97910400D01*
X151654000Y-105192000D02*
X151654000Y-103942000D01*
X151654000Y-103942000D02*
X152054000Y-103542000D01*
X152054000Y-103542000D02*
X152054000Y-102742000D01*
X140817600Y-91446500D02*
X140242600Y-91446500D01*
X140242600Y-91446500D02*
X139944300Y-91744800D01*
X119892071Y-82872779D02*
X119892071Y-83564779D01*
X120388571Y-84061279D02*
X120388571Y-84702779D01*
X119892071Y-83564779D02*
X120388571Y-84061279D01*
X119892071Y-82872779D02*
X118612071Y-82872779D01*
X117342071Y-82872779D02*
X118612071Y-82872779D01*
X181102000Y-71755000D02*
X182826500Y-71755000D01*
X182826500Y-71755000D02*
X183521500Y-71060000D01*
X183521500Y-71060000D02*
X183521500Y-70485000D01*
X120015000Y-73467000D02*
X117729000Y-73467000D01*
X123945500Y-77597000D02*
X123945500Y-78172000D01*
X123945500Y-78172000D02*
X124411900Y-78638400D01*
X124411900Y-78638400D02*
X125186000Y-78638400D01*
X125186000Y-78638400D02*
X125723500Y-78638400D01*
X141738500Y-72263000D02*
X141738500Y-73406000D01*
X141738500Y-71120000D02*
X141738500Y-72263000D01*
X160026055Y-68852293D02*
X160026055Y-69424255D01*
X160026055Y-69424255D02*
X160229092Y-69627292D01*
X160229092Y-69627292D02*
X161116052Y-69627292D01*
X161116054Y-69627294D02*
X161651494Y-69627294D01*
X161651494Y-69627294D02*
X161876055Y-69851855D01*
X161876055Y-69851855D02*
X161876055Y-70402293D01*
X161116052Y-69627292D02*
X161116054Y-69627294D01*
X123431000Y-75677200D02*
X123431000Y-74927200D01*
X123431000Y-74927200D02*
X123606000Y-74752200D01*
X123606000Y-74752200D02*
X124806000Y-74752200D01*
X124806000Y-74752200D02*
X124981000Y-74577200D01*
X124981000Y-74577200D02*
X124981000Y-73827200D01*
X124981000Y-73827200D02*
X124983100Y-73825100D01*
X124983100Y-73825100D02*
X126225300Y-73825100D01*
X126225300Y-73825100D02*
X126365000Y-73964800D01*
X126365000Y-73964800D02*
X126365000Y-74364700D01*
X123428900Y-75679300D02*
X123431000Y-75677200D01*
X130481000Y-70690500D02*
X130481000Y-69975800D01*
X130481000Y-69975800D02*
X130810000Y-69646800D01*
X128651000Y-68446500D02*
X129971800Y-68446500D01*
X160563555Y-67462400D02*
X160223200Y-67462400D01*
X160020000Y-68846238D02*
X160026055Y-68852293D01*
X160223200Y-67462400D02*
X160020000Y-67665600D01*
X160020000Y-67665600D02*
X160020000Y-68846238D01*
X161338555Y-71786293D02*
X161665107Y-71786293D01*
X161665107Y-71786293D02*
X161874200Y-71577200D01*
X161874200Y-71577200D02*
X161874200Y-70404148D01*
X161874200Y-70404148D02*
X161876055Y-70402293D01*
X173977300Y-105582720D02*
X176966880Y-105582720D01*
X176966880Y-105582720D02*
X178181000Y-104368600D01*
X179552600Y-90881200D02*
X181203600Y-89230200D01*
X178181000Y-104368600D02*
X178181000Y-101777800D01*
X178181000Y-101777800D02*
X179552600Y-100406200D01*
X179552600Y-100406200D02*
X179552600Y-90881200D01*
X181203600Y-89230200D02*
X183794400Y-89230200D01*
X183794400Y-89230200D02*
X184277000Y-89230200D01*
X187849000Y-82225000D02*
X185592600Y-82225000D01*
X184277000Y-88805936D02*
X184277000Y-89230200D01*
X185592600Y-82225000D02*
X184277000Y-83540600D01*
X184277000Y-83540600D02*
X184277000Y-88805936D01*
X187849000Y-89225000D02*
X184282200Y-89225000D01*
X184282200Y-89225000D02*
X184277000Y-89230200D01*
X155130500Y-70409000D02*
X160019348Y-70409000D01*
X160019348Y-70409000D02*
X160026055Y-70402293D01*
X160026055Y-70402293D02*
X160026055Y-71608655D01*
X160026055Y-71608655D02*
X160203693Y-71786293D01*
X160203693Y-71786293D02*
X160563555Y-71786293D01*
X155130500Y-69609000D02*
X158178200Y-69609000D01*
X159308800Y-66471800D02*
X160985200Y-66471800D01*
X158178200Y-69609000D02*
X158775400Y-69011800D01*
X158775400Y-69011800D02*
X158775400Y-67005200D01*
X158775400Y-67005200D02*
X159308800Y-66471800D01*
X160985200Y-66471800D02*
X161338555Y-66825155D01*
X161338555Y-66825155D02*
X161338555Y-67462400D01*
X161338555Y-67462400D02*
X161721800Y-67462400D01*
X161721800Y-67462400D02*
X161874200Y-67614800D01*
X161874200Y-67614800D02*
X161874200Y-68850438D01*
X161874200Y-68850438D02*
X161876055Y-68852293D01*
X148125000Y-65024000D02*
X148125000Y-63924000D01*
X148125000Y-63924000D02*
X148447400Y-63601600D01*
X148447400Y-63601600D02*
X151282402Y-63601600D01*
X175374300Y-81597500D02*
X175374300Y-98031300D01*
X175374300Y-98031300D02*
X170942000Y-102463600D01*
X170942000Y-102463600D02*
X164134800Y-102463600D01*
X164134800Y-102463600D02*
X157043120Y-95371920D01*
X157043120Y-95371920D02*
X148412284Y-95371920D01*
X148412284Y-95371920D02*
X147988020Y-95371920D01*
X119761000Y-91712900D02*
X120859700Y-91712900D01*
X120859700Y-91712900D02*
X121361200Y-91211400D01*
X142400000Y-101800000D02*
X142400000Y-100167460D01*
X142400000Y-100167460D02*
X144096740Y-98470720D01*
X144076420Y-98470720D02*
X144096740Y-98470720D01*
X147977860Y-95361760D02*
X147988020Y-95371920D01*
X145051780Y-95361760D02*
X147977860Y-95361760D01*
X175374300Y-81597500D02*
X178206400Y-78765400D01*
X178206400Y-78765400D02*
X178206400Y-76555600D01*
X165600380Y-81772760D02*
X165600380Y-81661000D01*
X165600380Y-81661000D02*
X165775371Y-81486009D01*
X165775371Y-81486009D02*
X165775371Y-78018371D01*
X165775371Y-78018371D02*
X161086800Y-73329800D01*
X161086800Y-73329800D02*
X158940500Y-73329800D01*
X158422340Y-72811640D02*
X157703520Y-72811640D01*
X158940500Y-73329800D02*
X158422340Y-72811640D01*
X148399500Y-79572000D02*
X147562720Y-79572000D01*
X147562720Y-79572000D02*
X147558760Y-79568040D01*
X149733000Y-79572000D02*
X151066500Y-79572000D01*
X148399500Y-79572000D02*
X149733000Y-79572000D01*
X156870400Y-68808600D02*
X156870400Y-64846200D01*
X156870400Y-64846200D02*
X155625800Y-63601600D01*
X155625800Y-63601600D02*
X151282402Y-63601600D01*
X151663600Y-70409000D02*
X152463600Y-71209000D01*
X152463600Y-71209000D02*
X155130500Y-71209000D01*
X146630500Y-70409000D02*
X151663600Y-70409000D01*
X151282402Y-63601600D02*
X151282402Y-65373098D01*
X151282402Y-65373098D02*
X151282400Y-65373100D01*
X157702100Y-72009000D02*
X157702100Y-72810220D01*
X157702100Y-72810220D02*
X157703520Y-72811640D01*
X155130500Y-72809000D02*
X157700880Y-72809000D01*
X157700880Y-72809000D02*
X157703520Y-72811640D01*
X155130500Y-71209000D02*
X157340400Y-71209000D01*
X157340400Y-71209000D02*
X157702100Y-71570700D01*
X157702100Y-71570700D02*
X157702100Y-72009000D01*
X121666000Y-103374340D02*
X121666000Y-104241600D01*
X118872000Y-75377000D02*
X117729000Y-75377000D01*
X120015000Y-75377000D02*
X118872000Y-75377000D01*
X115570000Y-75057000D02*
X115890000Y-75377000D01*
X115890000Y-75377000D02*
X117729000Y-75377000D01*
X113648000Y-75057000D02*
X115570000Y-75057000D01*
X110793000Y-72247000D02*
X110793000Y-73251800D01*
X110793000Y-73251800D02*
X111023400Y-73482200D01*
X111023400Y-73482200D02*
X111887000Y-73482200D01*
X112318800Y-73914000D02*
X112318800Y-74777600D01*
X111887000Y-73482200D02*
X112318800Y-73914000D01*
X112318800Y-74777600D02*
X112598200Y-75057000D01*
X112598200Y-75057000D02*
X113648000Y-75057000D01*
X113743000Y-73709000D02*
X113648000Y-73804000D01*
X113648000Y-73804000D02*
X113648000Y-75057000D01*
X113743000Y-72247000D02*
X113743000Y-73709000D01*
X176403000Y-99441000D02*
X176936400Y-98907600D01*
X176936400Y-98907600D02*
X176936400Y-84048600D01*
X138023600Y-92811600D02*
X134511800Y-92811600D01*
X134511800Y-92811600D02*
X134503600Y-92819800D01*
X139003600Y-92819800D02*
X138031800Y-92819800D01*
X138031800Y-92819800D02*
X138023600Y-92811600D01*
X139003600Y-92819800D02*
X139778600Y-92819800D01*
X139778600Y-92819800D02*
X141700000Y-94741200D01*
X141700000Y-94741200D02*
X141700000Y-95700000D01*
X141700000Y-95700000D02*
X143739200Y-97739200D01*
X143739200Y-97739200D02*
X149352000Y-97739200D01*
X149352000Y-97739200D02*
X149847300Y-98234500D01*
X149847300Y-98234500D02*
X149847300Y-100190300D01*
X170434000Y-101600000D02*
X164693600Y-101600000D01*
X164693600Y-101600000D02*
X163875999Y-100782399D01*
X163875999Y-100782399D02*
X163576000Y-100482400D01*
X149979380Y-93304360D02*
X149979380Y-92038320D01*
X149979380Y-92038320D02*
X150053040Y-91964660D01*
X172356780Y-83108800D02*
X172341540Y-83093560D01*
X172341540Y-83093560D02*
X169453439Y-83093560D01*
X169453439Y-83093560D02*
X168853999Y-82494120D01*
X168853999Y-77008099D02*
X169300298Y-76561800D01*
X168853999Y-82494120D02*
X168853999Y-77008099D01*
X169300298Y-76561800D02*
X169722800Y-76561800D01*
X164729000Y-79792000D02*
X164729000Y-78542000D01*
X164729000Y-78542000D02*
X163415980Y-77228980D01*
X163415980Y-77228980D02*
X163415980Y-77185680D01*
X162229800Y-76574500D02*
X162804800Y-76574500D01*
X162804800Y-76574500D02*
X163415980Y-77185680D01*
X158940500Y-76574500D02*
X160591500Y-76574500D01*
X160591500Y-76574500D02*
X162229800Y-76574500D01*
X172237400Y-76561800D02*
X169722800Y-76561800D01*
X172237400Y-76561800D02*
X174726600Y-76561800D01*
X164668200Y-82412840D02*
X164668200Y-79852800D01*
X164668200Y-79852800D02*
X164729000Y-79792000D01*
X121444148Y-85946410D02*
X123519760Y-83870798D01*
X123519760Y-83870798D02*
X123807136Y-83870798D01*
X117483928Y-85946410D02*
X121444148Y-85946410D01*
X116257538Y-87172800D02*
X117483928Y-85946410D01*
X114706400Y-87172800D02*
X116257538Y-87172800D01*
X123807136Y-83870798D02*
X124231400Y-83870798D01*
X113842800Y-88036400D02*
X114706400Y-87172800D01*
X137065937Y-80213199D02*
X137490201Y-80213199D01*
X131800601Y-80213199D02*
X137065937Y-80213199D01*
X130981000Y-82090500D02*
X130981000Y-81032800D01*
X130981000Y-81032800D02*
X131800601Y-80213199D01*
X137481000Y-82090500D02*
X137481000Y-80222400D01*
X137490201Y-79788935D02*
X137490201Y-80213199D01*
X137490201Y-78541965D02*
X137490201Y-79788935D01*
X137490200Y-78117700D02*
X137490201Y-78541965D01*
X137481000Y-80222400D02*
X137490201Y-80213199D01*
X128031000Y-72640500D02*
X128838000Y-72640500D01*
X128838000Y-72640500D02*
X131953000Y-75755500D01*
X131953000Y-75755500D02*
X131953000Y-77216000D01*
X131953000Y-77216000D02*
X132854700Y-78117700D01*
X132854700Y-78117700D02*
X137065936Y-78117700D01*
X137065936Y-78117700D02*
X137490200Y-78117700D01*
X123945500Y-80264000D02*
X123945500Y-82899100D01*
X123945500Y-82899100D02*
X124231400Y-83185000D01*
X124231400Y-83185000D02*
X124231400Y-83870798D01*
X149847300Y-100190300D02*
X149847300Y-105442936D01*
X147218400Y-105867200D02*
X149847300Y-105867200D01*
X149847300Y-105442936D02*
X149847300Y-105867200D01*
X179679600Y-81305400D02*
X179679600Y-70764400D01*
X179959000Y-70485000D02*
X181102000Y-70485000D01*
X176936400Y-84048600D02*
X179679600Y-81305400D01*
X179679600Y-70764400D02*
X179959000Y-70485000D01*
X137481000Y-78126900D02*
X137490200Y-78117700D01*
X129981000Y-70690500D02*
X129981000Y-71535600D01*
X137040540Y-73456800D02*
X137464804Y-73456800D01*
X129981000Y-71535600D02*
X131902200Y-73456800D01*
X131902200Y-73456800D02*
X137040540Y-73456800D01*
X139431000Y-72640500D02*
X137696900Y-72640500D01*
X137696900Y-72640500D02*
X137464800Y-72872600D01*
X137464800Y-72872600D02*
X137464800Y-73456796D01*
X137464800Y-73456796D02*
X137464804Y-73456800D01*
X138995400Y-92811600D02*
X139003600Y-92819800D01*
X128651000Y-69221500D02*
X127616100Y-69221500D01*
X127616100Y-69221500D02*
X127609600Y-69215000D01*
X132295900Y-83686500D02*
X133013300Y-83686500D01*
X133013300Y-83686500D02*
X133019800Y-83693000D01*
X126498500Y-71501000D02*
X127584200Y-71501000D01*
X127584200Y-71501000D02*
X128031000Y-71947800D01*
X128031000Y-71947800D02*
X128031000Y-72640500D01*
X132295900Y-83686500D02*
X130975100Y-83686500D01*
X130975100Y-83686500D02*
X130975100Y-82096400D01*
X130975100Y-82096400D02*
X130981000Y-82090500D01*
X137481000Y-82090500D02*
X137481000Y-82860400D01*
X137769600Y-83149000D02*
X137769600Y-83686500D01*
X137481000Y-82860400D02*
X137769600Y-83149000D01*
X137769600Y-83686500D02*
X138912600Y-83686500D01*
X182746500Y-70485000D02*
X181102000Y-70485000D01*
X123945500Y-80264000D02*
X123945500Y-79689000D01*
X123945500Y-79689000D02*
X124157900Y-79476600D01*
X126339600Y-79476600D02*
X126498500Y-79317700D01*
X124157900Y-79476600D02*
X126339600Y-79476600D01*
X126498500Y-79317700D02*
X126498500Y-78638400D01*
X124720500Y-77597000D02*
X126032100Y-77597000D01*
X126032100Y-77597000D02*
X126498500Y-78063400D01*
X126498500Y-78063400D02*
X126498500Y-78638400D01*
X128031000Y-78640500D02*
X126500600Y-78640500D01*
X126500600Y-78640500D02*
X126498500Y-78638400D01*
X140963500Y-71120000D02*
X140963500Y-72263000D01*
X139431000Y-72640500D02*
X140109900Y-72640500D01*
X140109900Y-72640500D02*
X140487400Y-72263000D01*
X140487400Y-72263000D02*
X140963500Y-72263000D01*
X129971800Y-69221500D02*
X128651000Y-69221500D01*
X129981000Y-70690500D02*
X129981000Y-69230700D01*
X129981000Y-69230700D02*
X129971800Y-69221500D01*
X143955620Y-75944880D02*
X143954500Y-75946000D01*
X143955620Y-74411840D02*
X143955620Y-75944880D01*
X123372020Y-86396420D02*
X125262640Y-84505800D01*
X117929660Y-87985600D02*
X118130320Y-87985600D01*
X118130320Y-87985600D02*
X119719500Y-86396420D01*
X119719500Y-86396420D02*
X123372020Y-86396420D01*
D69*
X115366800Y-87985600D02*
X113108740Y-90243660D01*
X117929660Y-87985600D02*
X116379370Y-87985600D01*
X116379370Y-87985600D02*
X115366800Y-87985600D01*
D68*
X111168263Y-87122000D02*
X110743999Y-87122000D01*
X113968850Y-87122000D02*
X111168263Y-87122000D01*
X110472999Y-86851000D02*
X110743999Y-87122000D01*
X114172071Y-86918779D02*
X113968850Y-87122000D01*
X107823000Y-86851000D02*
X110472999Y-86851000D01*
X114172071Y-86293779D02*
X114172071Y-86918779D01*
X110667800Y-92000000D02*
X112978000Y-92000000D01*
X112978000Y-92000000D02*
X113309400Y-91668600D01*
X109350000Y-92000000D02*
X110667800Y-92000000D01*
X107000000Y-92000000D02*
X107924600Y-92000000D01*
X107924600Y-92000000D02*
X109350000Y-92000000D01*
X112458500Y-95923100D02*
X112801400Y-96266000D01*
X112801400Y-96266000D02*
X113868200Y-96266000D01*
X114012600Y-96410400D02*
X115189000Y-96410400D01*
X113868200Y-96266000D02*
X114012600Y-96410400D01*
X115455700Y-96088200D02*
X115455700Y-96143700D01*
X115455700Y-96143700D02*
X115189000Y-96410400D01*
X115189000Y-95910400D02*
X115277900Y-95910400D01*
X115277900Y-95910400D02*
X115455700Y-96088200D01*
X115455700Y-96088200D02*
X115455700Y-95966280D01*
X115455700Y-95966280D02*
X115455700Y-95656400D01*
X115189000Y-95910400D02*
X115399820Y-95910400D01*
X115399820Y-95910400D02*
X115455700Y-95966280D01*
X115189000Y-96215200D02*
X115189000Y-95910400D01*
X115189000Y-96215200D02*
X114134900Y-96215200D01*
X115189000Y-96410400D02*
X115189000Y-96215200D01*
X113576100Y-92887800D02*
X113576100Y-94449900D01*
X113576100Y-94449900D02*
X113588800Y-94462600D01*
X112458500Y-94462600D02*
X112458500Y-95923100D01*
X112014000Y-92443300D02*
X112158501Y-92587801D01*
X112014000Y-91440000D02*
X112014000Y-92443300D01*
X112158501Y-92587801D02*
X112458500Y-92887800D01*
X113588800Y-94792800D02*
X113588800Y-94462600D01*
X113588800Y-95351600D02*
X113588800Y-94792800D01*
X115189000Y-95910400D02*
X114147600Y-95910400D01*
X114147600Y-95910400D02*
X113588800Y-95351600D01*
D71*
X101981000Y-90000000D02*
X113352400Y-90000000D01*
X113352400Y-90000000D02*
X115366800Y-87985600D01*
D68*
X101981000Y-90000000D02*
X101981000Y-92000000D01*
X101981000Y-92000000D02*
X102614800Y-92633800D01*
X102614800Y-92633800D02*
X104368600Y-92633800D01*
X104368600Y-92633800D02*
X105002400Y-92000000D01*
X105002400Y-92000000D02*
X106700000Y-92000000D01*
X108381800Y-89128600D02*
X108381800Y-88620600D01*
X108381800Y-88620600D02*
X107823000Y-88061800D01*
X107823000Y-88061800D02*
X107823000Y-88036400D01*
X107823000Y-88036400D02*
X107823000Y-86851000D01*
X105537000Y-87235000D02*
X105537000Y-89128600D01*
X107000000Y-92000000D02*
X106700000Y-92000000D01*
X101981000Y-90000000D02*
X101981000Y-88000000D01*
X101981000Y-88000000D02*
X102746000Y-87235000D01*
X102746000Y-87235000D02*
X104787000Y-87235000D01*
X104787000Y-87235000D02*
X105537000Y-87235000D01*
X105537000Y-87235000D02*
X106440000Y-87235000D01*
X106440000Y-87235000D02*
X106824000Y-86851000D01*
X106824000Y-86851000D02*
X107823000Y-86851000D01*
D72*
X105540000Y-87232000D02*
X105537000Y-87235000D01*
D68*
X110508000Y-70247000D02*
X110793000Y-70247000D01*
X110508000Y-70747000D02*
X110793000Y-70747000D01*
X110793000Y-70247000D02*
X110793000Y-70747000D01*
X110793000Y-71247000D02*
X110793000Y-70747000D01*
X110793000Y-70247000D02*
X109966000Y-70247000D01*
X109966000Y-70247000D02*
X109855000Y-70358000D01*
X109855000Y-70358000D02*
X109226500Y-70358000D01*
X109226500Y-71628000D02*
X109226500Y-70358000D01*
X110820200Y-102438200D02*
X110815399Y-102433399D01*
X113487200Y-102438200D02*
X110820200Y-102438200D01*
X106832400Y-102233000D02*
X110415800Y-102233000D01*
X110415800Y-102233000D02*
X110515400Y-102133400D01*
X110815399Y-102433399D02*
X110515400Y-102133400D01*
X113385600Y-102539800D02*
X113487200Y-102438200D01*
X109347000Y-102539800D02*
X113385600Y-102539800D01*
X113692400Y-102233000D02*
X113487200Y-102438200D01*
X114808000Y-102233000D02*
X113692400Y-102233000D01*
X115722400Y-102997000D02*
X115572000Y-102997000D01*
X115572000Y-102997000D02*
X114808000Y-102233000D01*
X106832400Y-100431600D02*
X106832400Y-100533200D01*
X106832400Y-100533200D02*
X107619800Y-101320600D01*
X116210080Y-99014280D02*
X116292880Y-99014280D01*
X116292880Y-99014280D02*
X116539000Y-99260400D01*
X116039000Y-99185360D02*
X116210080Y-99014280D01*
X116039000Y-99260400D02*
X116039000Y-99185360D01*
X116494300Y-99260400D02*
X116359940Y-99126040D01*
X116539000Y-99260400D02*
X116494300Y-99260400D01*
X116539000Y-99434660D02*
X116382800Y-99590860D01*
X116539000Y-99260400D02*
X116539000Y-99434660D01*
X114808000Y-102233000D02*
X116266500Y-102233000D01*
X116266500Y-102233000D02*
X116268500Y-102235000D01*
X116262000Y-100711000D02*
X116262000Y-102228500D01*
X116262000Y-102228500D02*
X116268500Y-102235000D01*
X116262000Y-100076000D02*
X116262000Y-100711000D01*
X116539000Y-99260400D02*
X116539000Y-99860400D01*
X116539000Y-99860400D02*
X116323400Y-100076000D01*
X116323400Y-100076000D02*
X116262000Y-100076000D01*
X116262000Y-101860500D02*
X116262000Y-100711000D01*
X104521000Y-102233000D02*
X102033800Y-102233000D01*
X102033800Y-102233000D02*
X102031800Y-102235000D01*
X104521000Y-100431600D02*
X102031800Y-100431600D01*
X106832400Y-102233000D02*
X105871000Y-102233000D01*
X106832400Y-100431600D02*
X106832400Y-102233000D01*
X104521000Y-102233000D02*
X104521000Y-100431600D01*
X105156000Y-105664000D02*
X104521000Y-105029000D01*
X104521000Y-105029000D02*
X104521000Y-102233000D01*
X105871000Y-102233000D02*
X104521000Y-102233000D01*
X115417600Y-97248980D02*
X115256180Y-97410400D01*
X115256180Y-97410400D02*
X115189000Y-97410400D01*
X115417600Y-96979740D02*
X115417600Y-97248980D01*
X115348260Y-96910400D02*
X115417600Y-96979740D01*
X115189000Y-96910400D02*
X115348260Y-96910400D01*
X114858800Y-97129600D02*
X114744500Y-97243900D01*
X115062000Y-97129600D02*
X114858800Y-97129600D01*
X115062000Y-97129600D02*
X114909600Y-97282000D01*
X115189000Y-97129600D02*
X115062000Y-97129600D01*
X115189000Y-97129600D02*
X115189000Y-97410400D01*
X115189000Y-96910400D02*
X115189000Y-97129600D01*
X115189000Y-97129600D02*
X114147600Y-97129600D01*
X111633000Y-97695874D02*
X112854512Y-97695874D01*
X110441512Y-97695874D02*
X111633000Y-97695874D01*
X115189000Y-96910400D02*
X112904986Y-96910400D01*
X112904986Y-96910400D02*
X112854512Y-96960874D01*
X112854512Y-96960874D02*
X112854512Y-97695874D01*
D73*
X108625600Y-97475000D02*
X108846474Y-97695874D01*
X108846474Y-97695874D02*
X110441512Y-97695874D01*
X106800000Y-97475000D02*
X108625600Y-97475000D01*
X106794296Y-95631000D02*
X104523000Y-95631000D01*
X104523000Y-95631000D02*
X104521000Y-95633000D01*
X109475000Y-96300000D02*
X110092200Y-96300000D01*
X110092200Y-96300000D02*
X110441512Y-96649312D01*
X110441512Y-96649312D02*
X110441512Y-97695874D01*
D68*
X104520998Y-97472502D02*
X104521000Y-97472500D01*
X101993700Y-97472502D02*
X104520998Y-97472502D01*
X104521000Y-93980000D02*
X106794298Y-93980000D01*
X106800000Y-95636704D02*
X106794296Y-95631000D01*
X106800000Y-97475000D02*
X106800000Y-95636704D01*
X102000000Y-95624698D02*
X101993698Y-95631000D01*
X102000000Y-94050000D02*
X102000000Y-95624698D01*
X104521000Y-95633000D02*
X101293200Y-95633000D01*
X101293200Y-95633000D02*
X100863400Y-96062800D01*
X100863400Y-96062800D02*
X100863400Y-105460800D01*
X100863400Y-105460800D02*
X101066600Y-105664000D01*
X101066600Y-105664000D02*
X102108000Y-105664000D01*
X102000000Y-94050000D02*
X104451000Y-94050000D01*
X104451000Y-94050000D02*
X104521000Y-93980000D01*
X104521000Y-93980000D02*
X104521000Y-95633000D01*
X114146200Y-97410400D02*
X113860726Y-97695874D01*
X113860726Y-97695874D02*
X112854512Y-97695874D01*
X115189000Y-97410400D02*
X114146200Y-97410400D01*
D70*
X140000000Y-103500000D02*
X140000000Y-100615000D01*
X140000000Y-100615000D02*
X140100000Y-100515000D01*
X140000000Y-101015000D02*
X140100000Y-100915000D01*
X124875000Y-99400000D02*
X126500000Y-99400000D01*
X126500000Y-99400000D02*
X126700000Y-99600000D01*
X126700000Y-99600000D02*
X126700000Y-106600000D01*
X126700000Y-106600000D02*
X128700000Y-108600000D01*
X144300000Y-104300000D02*
X143500000Y-103500000D01*
X128700000Y-108600000D02*
X143700000Y-108600000D01*
X143700000Y-108600000D02*
X144300000Y-108000000D01*
X143500000Y-103500000D02*
X140000000Y-103500000D01*
X144300000Y-108000000D02*
X144300000Y-104300000D01*
X140100000Y-103054200D02*
X140030200Y-103124000D01*
X130800000Y-96999860D02*
X140014860Y-96999860D01*
X140014860Y-96999860D02*
X140100000Y-97085000D01*
X131285140Y-97485000D02*
X130800000Y-96999860D01*
D68*
X152880500Y-68159000D02*
X152880500Y-66499298D01*
X152880500Y-66499298D02*
X152882598Y-66497200D01*
X153065034Y-66501834D02*
X153060400Y-66497200D01*
X153060400Y-66497200D02*
X152882598Y-66497200D01*
X121775000Y-68000000D02*
X121179200Y-68000000D01*
X121179200Y-68000000D02*
X120827800Y-68351400D01*
X120827800Y-68943138D02*
X120827800Y-69367402D01*
X120827800Y-68351400D02*
X120827800Y-68943138D01*
X113743000Y-69420000D02*
X113743000Y-68654400D01*
X113743000Y-68654400D02*
X114528600Y-67868800D01*
X120406160Y-71460360D02*
X122915680Y-71460360D01*
X114528600Y-67868800D02*
X118841438Y-67868800D01*
X119380000Y-70434200D02*
X120406160Y-71460360D01*
X118841438Y-67868800D02*
X119380000Y-68407362D01*
X119380000Y-68407362D02*
X119380000Y-70434200D01*
X168797940Y-64924960D02*
X168797940Y-65775540D01*
X168797940Y-65775540D02*
X169702201Y-66679801D01*
X169702201Y-66679801D02*
X170002200Y-66979800D01*
X123797940Y-64824960D02*
X123797940Y-66145020D01*
X123797940Y-66145020D02*
X124597160Y-66944240D01*
X114028000Y-70247000D02*
X113743000Y-70247000D01*
X125836399Y-85466199D02*
X126136398Y-85166200D01*
X123316998Y-87985600D02*
X125836399Y-85466199D01*
X121389140Y-87985600D02*
X123316998Y-87985600D01*
X113743000Y-70247000D02*
X113743000Y-69420000D01*
X113743000Y-69420000D02*
X113233200Y-68910200D01*
X113233200Y-68910200D02*
X108991400Y-68910200D01*
X108991400Y-68910200D02*
X108451500Y-69450100D01*
X108451500Y-69450100D02*
X108451500Y-70358000D01*
X106995000Y-73406000D02*
X106995000Y-71033600D01*
X106995000Y-71033600D02*
X107670600Y-70358000D01*
X107670600Y-70358000D02*
X108451500Y-70358000D01*
X134366000Y-76073000D02*
X137096500Y-76073000D01*
X137096500Y-76073000D02*
X137529000Y-75640500D01*
X137529000Y-75640500D02*
X138681000Y-75640500D01*
X138681000Y-75640500D02*
X139431000Y-75640500D01*
X167525000Y-68000000D02*
X167025000Y-68000000D01*
X167025000Y-68000000D02*
X166687500Y-68337500D01*
X166687500Y-68337500D02*
X166687500Y-68376800D01*
X132588000Y-65532000D02*
X134035800Y-65532000D01*
X134035800Y-65532000D02*
X134886700Y-66382900D01*
X134886700Y-66382900D02*
X134886700Y-67462400D01*
X124597160Y-66944240D02*
X129540000Y-66944240D01*
X132588000Y-65532000D02*
X130952240Y-65532000D01*
X130952240Y-65532000D02*
X129540000Y-66944240D01*
X134481000Y-82090500D02*
X134481000Y-82917600D01*
X134481000Y-82917600D02*
X134086600Y-83312000D01*
X134086600Y-83312000D02*
X134086600Y-84785200D01*
X134086600Y-84785200D02*
X133421399Y-85450401D01*
X133421399Y-85450401D02*
X133121400Y-85750400D01*
X134620000Y-85503936D02*
X134620000Y-85928200D01*
X134981000Y-82090500D02*
X134981000Y-83054010D01*
X134620000Y-83415010D02*
X134620000Y-85503936D01*
X134981000Y-83054010D02*
X134620000Y-83415010D01*
X115620800Y-89509600D02*
X122097800Y-89509600D01*
X121852300Y-64824960D02*
X121852300Y-66107700D01*
X121852300Y-66107700D02*
X121513600Y-66446400D01*
X121513600Y-66446400D02*
X120630763Y-66446400D01*
X120630763Y-66446400D02*
X119853142Y-67224021D01*
X139431000Y-75140500D02*
X133901492Y-75140500D01*
X133901492Y-75140500D02*
X133268999Y-75772993D01*
X133268999Y-75772993D02*
X132969000Y-76072992D01*
X119853142Y-67224021D02*
X119913400Y-67232390D01*
X135981000Y-69204400D02*
X135712200Y-68935600D01*
X135981000Y-70690500D02*
X135981000Y-69204400D01*
X172237400Y-78232000D02*
X172237400Y-79783600D01*
X172237400Y-77336800D02*
X172237400Y-78232000D01*
X172237400Y-79783600D02*
X172229000Y-79792000D01*
X134981000Y-69626800D02*
X134975600Y-69621400D01*
X134981000Y-70690500D02*
X134981000Y-69626800D01*
X134975600Y-70685100D02*
X134975600Y-69621400D01*
X169722800Y-77336800D02*
X169722800Y-78232000D01*
X169722800Y-78232000D02*
X169722800Y-79785800D01*
X169722800Y-79785800D02*
X169729000Y-79792000D01*
X162229800Y-78232000D02*
X162229800Y-79791200D01*
X162229800Y-79791200D02*
X162229000Y-79792000D01*
X162229800Y-78232000D02*
X162229800Y-77349500D01*
X135481000Y-70690500D02*
X135481000Y-71777800D01*
X135481000Y-71777800D02*
X135483600Y-71780400D01*
X158419800Y-79781400D02*
X157314600Y-79781400D01*
X157314600Y-79781400D02*
X157304000Y-79792000D01*
X139431000Y-77140500D02*
X142875700Y-77140500D01*
X142875700Y-77140500D02*
X143205200Y-77470000D01*
X143205200Y-77470000D02*
X143205200Y-78079600D01*
X160591500Y-77349500D02*
X160016500Y-77349500D01*
X160016500Y-77349500D02*
X159349012Y-78016988D01*
X159349012Y-78016988D02*
X157898212Y-78016988D01*
X157898212Y-78016988D02*
X157304000Y-78611200D01*
X157304000Y-78611200D02*
X157304000Y-79792000D01*
X157302200Y-79790200D02*
X157304000Y-79792000D01*
X139431000Y-76640500D02*
X144687100Y-76640500D01*
X144687100Y-76640500D02*
X145821400Y-77774800D01*
X145821400Y-77774800D02*
X145821400Y-79126080D01*
X145821400Y-79126080D02*
X147172680Y-80477360D01*
X147172680Y-80477360D02*
X153070560Y-80477360D01*
X153070560Y-80477360D02*
X153755920Y-79792000D01*
X153755920Y-79792000D02*
X155604000Y-79792000D01*
X155604000Y-79792000D02*
X155604000Y-78076000D01*
X156330500Y-77349500D02*
X158365500Y-77349500D01*
X155604000Y-78076000D02*
X156330500Y-77349500D01*
X158365500Y-77349500D02*
X158940500Y-77349500D01*
X155600400Y-79788400D02*
X155604000Y-79792000D01*
X136481000Y-68231204D02*
X136474196Y-68224400D01*
X136481000Y-70690500D02*
X136481000Y-68231204D01*
X174726600Y-78232000D02*
X174726600Y-79789600D01*
X174726600Y-77336800D02*
X174726600Y-78232000D01*
X174726600Y-79789600D02*
X174729000Y-79792000D01*
X141675000Y-78625000D02*
X141675000Y-78022600D01*
X141675000Y-78022600D02*
X141292900Y-77640500D01*
X141292900Y-77640500D02*
X139431000Y-77640500D01*
X152054000Y-91192000D02*
X150055380Y-91192000D01*
X150055380Y-91192000D02*
X150053040Y-91189660D01*
X148800000Y-91250000D02*
X149992700Y-91250000D01*
X149992700Y-91250000D02*
X150053040Y-91189660D01*
X120142000Y-100831500D02*
X119120910Y-100831500D01*
X119120910Y-100831500D02*
X118539000Y-100249590D01*
X118539000Y-100249590D02*
X118539000Y-100177340D01*
X118539000Y-100177340D02*
X118539000Y-99260400D01*
X127000000Y-79375000D02*
X127177800Y-79375000D01*
X124720500Y-80264000D02*
X124720500Y-82327900D01*
X124720500Y-82327900D02*
X125171200Y-82778600D01*
X125171200Y-82778600D02*
X125171200Y-83159600D01*
X148767800Y-102641400D02*
X145669000Y-102641400D01*
X124720500Y-80264000D02*
X126644400Y-80264000D01*
X127234500Y-79140500D02*
X127971100Y-79140500D01*
X126644400Y-80264000D02*
X127000000Y-79908400D01*
X127000000Y-79908400D02*
X127000000Y-79375000D01*
X127000000Y-79375000D02*
X127234500Y-79140500D01*
X127971100Y-79140500D02*
X128031000Y-79140500D01*
X153680500Y-76659000D02*
X153680500Y-78667800D01*
X153680500Y-78667800D02*
X153681580Y-78668880D01*
X153680500Y-76659000D02*
X153680500Y-74991300D01*
X153680500Y-74991300D02*
X153212800Y-74523600D01*
X153682700Y-76661200D02*
X153680500Y-76659000D01*
X143125000Y-65024000D02*
X143125000Y-68499800D01*
X144551400Y-70670336D02*
X144551400Y-71094600D01*
X143125000Y-68499800D02*
X144551400Y-69926200D01*
X144551400Y-69926200D02*
X144551400Y-70670336D01*
X151066500Y-78041500D02*
X151280500Y-77827500D01*
X151280500Y-77827500D02*
X151280500Y-76659000D01*
X151066500Y-78797000D02*
X151066500Y-78041500D01*
X151280500Y-76659000D02*
X151280500Y-75160500D01*
X151280500Y-75160500D02*
X151282400Y-75158600D01*
X121619400Y-93900000D02*
X139300000Y-93900000D01*
X139300000Y-93900000D02*
X139500001Y-94100001D01*
X119389000Y-95910400D02*
X119609000Y-95910400D01*
X139500001Y-94100001D02*
X139800000Y-94400000D01*
X119609000Y-95910400D02*
X121619400Y-93900000D01*
X148399500Y-78797000D02*
X148399500Y-78259500D01*
X148782600Y-77876400D02*
X149513100Y-77876400D01*
X148399500Y-78259500D02*
X148782600Y-77876400D01*
X149513100Y-77876400D02*
X149680500Y-77709000D01*
X149680500Y-77709000D02*
X149680500Y-76659000D01*
X149680500Y-76659000D02*
X149680500Y-75185700D01*
X149680500Y-75185700D02*
X149682200Y-75184000D01*
X121920387Y-94350011D02*
X138625007Y-94350011D01*
X139574996Y-95300000D02*
X140475736Y-95300000D01*
X140475736Y-95300000D02*
X140900000Y-95300000D01*
X138625007Y-94350011D02*
X139574996Y-95300000D01*
X119859998Y-96410400D02*
X121920387Y-94350011D01*
X119389000Y-96410400D02*
X119859998Y-96410400D01*
X149733000Y-78797000D02*
X149733000Y-78308200D01*
X149733000Y-78308200D02*
X149936200Y-78105000D01*
X149936200Y-78105000D02*
X150317200Y-78105000D01*
X150317200Y-78105000D02*
X150480500Y-77941700D01*
X150480500Y-77941700D02*
X150480500Y-76659000D01*
X150480500Y-76659000D02*
X150480500Y-74534500D01*
X150480500Y-74534500D02*
X150469600Y-74523600D01*
X150482300Y-76660800D02*
X150480500Y-76659000D01*
X127099221Y-83385821D02*
X125648999Y-81935599D01*
X127099221Y-85501761D02*
X127099221Y-83385821D01*
X126720439Y-85826761D02*
X126774221Y-85826761D01*
X122834400Y-89712800D02*
X126720439Y-85826761D01*
X122834400Y-91287600D02*
X122834400Y-89712800D01*
X119061600Y-95060400D02*
X122834400Y-91287600D01*
X118539000Y-95060400D02*
X119061600Y-95060400D01*
X126774221Y-85826761D02*
X127099221Y-85501761D01*
X125648999Y-81935599D02*
X125349000Y-81635600D01*
X151282400Y-66148100D02*
X151282400Y-68157100D01*
X151282400Y-68157100D02*
X151280500Y-68159000D01*
X150177500Y-64897000D02*
X150177500Y-65874900D01*
X150177500Y-65874900D02*
X150450700Y-66148100D01*
X150450700Y-66148100D02*
X151282400Y-66148100D01*
X151280500Y-66150000D02*
X151282400Y-66148100D01*
X135483600Y-83686500D02*
X135483600Y-82093100D01*
X135483600Y-82093100D02*
X135481000Y-82090500D01*
X176479200Y-104482900D02*
X177076100Y-104482900D01*
X177076100Y-104482900D02*
X177419000Y-104140000D01*
X176479200Y-104482900D02*
X163334700Y-104482900D01*
X163334700Y-104482900D02*
X160651800Y-101800000D01*
X160651800Y-101800000D02*
X156200000Y-101800000D01*
X156200000Y-101800000D02*
X155500000Y-101100000D01*
X128031000Y-80140500D02*
X128031000Y-80426800D01*
X128031000Y-80426800D02*
X127177800Y-81280000D01*
X176466500Y-103365300D02*
X177050700Y-103365300D01*
X177050700Y-103365300D02*
X177419000Y-102997000D01*
X163565300Y-103365300D02*
X176466500Y-103365300D01*
X129981000Y-82090500D02*
X129504200Y-82090500D01*
X129565400Y-88214200D02*
X134645400Y-88214200D01*
X129504200Y-82090500D02*
X128778000Y-82816700D01*
X134645400Y-88214200D02*
X135674100Y-89242900D01*
X128778000Y-82816700D02*
X128778000Y-87426800D01*
X152704800Y-96875600D02*
X156895800Y-101066600D01*
X128778000Y-87426800D02*
X129565400Y-88214200D01*
X135674100Y-89242900D02*
X140779500Y-89242900D01*
X140779500Y-89242900D02*
X142163800Y-90627200D01*
X142163800Y-90627200D02*
X142163800Y-95363800D01*
X142163800Y-95363800D02*
X143675600Y-96875600D01*
X143675600Y-96875600D02*
X152704800Y-96875600D01*
X156895800Y-101066600D02*
X161266600Y-101066600D01*
X161266600Y-101066600D02*
X163565300Y-103365300D01*
X146875000Y-65024000D02*
X146875000Y-66124000D01*
X148880500Y-67109000D02*
X148880500Y-68159000D01*
X146875000Y-66124000D02*
X147400600Y-66649600D01*
X147400600Y-66649600D02*
X148421100Y-66649600D01*
X148421100Y-66649600D02*
X148880500Y-67109000D01*
X145625000Y-65024000D02*
X145625000Y-66986600D01*
X146797400Y-68159000D02*
X148080500Y-68159000D01*
X145625000Y-66986600D02*
X146797400Y-68159000D01*
X144375000Y-68759200D02*
X145224800Y-69609000D01*
X145224800Y-69609000D02*
X146630500Y-69609000D01*
X144375000Y-65024000D02*
X144375000Y-68759200D01*
X134906936Y-80899000D02*
X135331200Y-80899000D01*
X131922500Y-80899000D02*
X134906936Y-80899000D01*
X131481000Y-81340500D02*
X131922500Y-80899000D01*
X131481000Y-82090500D02*
X131481000Y-81340500D01*
X139431000Y-74640500D02*
X131561900Y-74640500D01*
X120815600Y-67500000D02*
X121275000Y-67500000D01*
X131561900Y-74640500D02*
X128962989Y-72041589D01*
X128962989Y-71254189D02*
X128320800Y-70612000D01*
X128962989Y-72041589D02*
X128962989Y-71254189D01*
X120065800Y-70053200D02*
X120065800Y-68249800D01*
X128320800Y-70612000D02*
X120624600Y-70612000D01*
X120624600Y-70612000D02*
X120065800Y-70053200D01*
X120065800Y-68249800D02*
X120815600Y-67500000D01*
X121275000Y-67500000D02*
X121775000Y-67500000D01*
X139431000Y-74140500D02*
X131798500Y-74140500D01*
X129413000Y-70942200D02*
X128524000Y-70053200D01*
X128524000Y-70053200D02*
X122224800Y-70053200D01*
X131798500Y-74140500D02*
X129413000Y-71755000D01*
X129413000Y-71755000D02*
X129413000Y-70942200D01*
X122224800Y-70053200D02*
X121775000Y-69603400D01*
X121775000Y-69603400D02*
X121775000Y-68500000D01*
X165760400Y-100939600D02*
X165760400Y-85638640D01*
X165760400Y-85638640D02*
X166225381Y-85173659D01*
X166225381Y-85173659D02*
X166225381Y-70708181D01*
X166225381Y-70708181D02*
X165354000Y-69836800D01*
X165354000Y-69836800D02*
X165354000Y-69251800D01*
X168224200Y-99423136D02*
X168224200Y-99847400D01*
X168224200Y-69599200D02*
X168224200Y-99423136D01*
X167525000Y-68500000D02*
X167525000Y-68900000D01*
X167525000Y-68900000D02*
X168224200Y-69599200D01*
D73*
X105130600Y-81940400D02*
X107137200Y-81940400D01*
X105130600Y-81940400D02*
X105130600Y-80859802D01*
X105130600Y-80859802D02*
X105154637Y-80835765D01*
X107136110Y-80826742D02*
X107136110Y-81939310D01*
X107136110Y-81939310D02*
X107137200Y-81940400D01*
D68*
X107127087Y-80835765D02*
X107136110Y-80826742D01*
X105154637Y-80835765D02*
X107127087Y-80835765D01*
X104854638Y-80535766D02*
X105154637Y-80835765D01*
X101981000Y-80000000D02*
X104318872Y-80000000D01*
X104318872Y-80000000D02*
X104854638Y-80535766D01*
D73*
X110738071Y-82872779D02*
X110192621Y-82872779D01*
X107823000Y-84091000D02*
X108974400Y-84091000D01*
X108974400Y-84091000D02*
X110192621Y-82872779D01*
X112521071Y-86112779D02*
X110750779Y-86112779D01*
X110750779Y-86112779D02*
X110744000Y-86106000D01*
X110744000Y-85153500D02*
X110744000Y-86106000D01*
X110738071Y-82872779D02*
X110738071Y-84322071D01*
X110738071Y-84322071D02*
X110744000Y-84328000D01*
D68*
X101981000Y-80000000D02*
X101981000Y-82600800D01*
X101981000Y-82600800D02*
X102812700Y-83432500D01*
X102812700Y-83432500D02*
X104962000Y-83432500D01*
X104962000Y-83432500D02*
X105537000Y-83432500D01*
X106165500Y-83432500D02*
X106824000Y-84091000D01*
X106824000Y-84091000D02*
X107823000Y-84091000D01*
X105537000Y-83432500D02*
X106165500Y-83432500D01*
X110730371Y-82880479D02*
X110738071Y-82872779D01*
X113288071Y-82872779D02*
X112008071Y-82872779D01*
X110738071Y-82872779D02*
X112008071Y-82872779D01*
X112521071Y-86112779D02*
X113096071Y-86112779D01*
X113096071Y-86112779D02*
X113277071Y-86293779D01*
X113277071Y-86293779D02*
X113672071Y-86293779D01*
X105537000Y-84207500D02*
X105537000Y-85485000D01*
D70*
X123125000Y-99400000D02*
X123125000Y-101445000D01*
X123125000Y-101445000D02*
X123600000Y-101920000D01*
X120700000Y-98635410D02*
X119888000Y-98635410D01*
X123125000Y-99400000D02*
X121990000Y-99400000D01*
X121225410Y-98635410D02*
X120700000Y-98635410D01*
X121990000Y-99400000D02*
X121225410Y-98635410D01*
D68*
X119326660Y-98993960D02*
X119603520Y-98993960D01*
X119603520Y-98993960D02*
X119646700Y-98950780D01*
X119174260Y-98841560D02*
X119326660Y-98993960D01*
X119174260Y-98518980D02*
X119174260Y-98841560D01*
X119282840Y-98410400D02*
X119174260Y-98518980D01*
X119389000Y-98410400D02*
X119282840Y-98410400D01*
X119549380Y-98950780D02*
X119646700Y-98950780D01*
X119389000Y-98410400D02*
X119389000Y-98790400D01*
X119389000Y-98790400D02*
X119549380Y-98950780D01*
X119389000Y-98410400D02*
X119888000Y-98635410D01*
X119888000Y-98635410D02*
X120076600Y-98410400D01*
X117039000Y-99260400D02*
X117039000Y-100709000D01*
X117039000Y-100709000D02*
X117037000Y-100711000D01*
X139431000Y-73140500D02*
X140196500Y-73140500D01*
X140196500Y-73140500D02*
X140462000Y-73406000D01*
X140462000Y-73406000D02*
X140963500Y-73406000D01*
X123431000Y-73827200D02*
X123431000Y-73077200D01*
X123431000Y-73077200D02*
X123711800Y-72796400D01*
X123711800Y-72796400D02*
X126669800Y-72796400D01*
X126669800Y-72796400D02*
X127076200Y-73202800D01*
X127076200Y-73202800D02*
X127076200Y-74498200D01*
X127076200Y-74498200D02*
X127218500Y-74640500D01*
X127218500Y-74640500D02*
X128031000Y-74640500D01*
X121970800Y-74364700D02*
X121970800Y-73990200D01*
X121970800Y-73990200D02*
X122135900Y-73825100D01*
X122135900Y-73825100D02*
X123428900Y-73825100D01*
X123428900Y-73825100D02*
X123431000Y-73827200D01*
X118491000Y-100838000D02*
X117539000Y-99886000D01*
X117539000Y-99886000D02*
X117539000Y-99260400D01*
X118491000Y-101936400D02*
X118491000Y-100838000D01*
X117348000Y-101936400D02*
X118491000Y-101936400D01*
X136981000Y-82090500D02*
X136981000Y-82779800D01*
X136981000Y-82779800D02*
X136601200Y-83159600D01*
X136601200Y-83159600D02*
X136601200Y-83686500D01*
X130879154Y-92886142D02*
X130104154Y-92886142D01*
X130104154Y-92886142D02*
X126379154Y-92886142D01*
X126379154Y-92886142D02*
X125713654Y-92886142D01*
X125713654Y-92886142D02*
X125140154Y-92312642D01*
X125140154Y-92312642D02*
X124565154Y-92312642D01*
X124565154Y-92312642D02*
X124565154Y-91055642D01*
X126365000Y-75139700D02*
X126365000Y-75565000D01*
X126365000Y-75565000D02*
X126250700Y-75679300D01*
X124983100Y-75679300D02*
X124981000Y-75677200D01*
X126250700Y-75679300D02*
X124983100Y-75679300D01*
X128031000Y-75140500D02*
X126365800Y-75140500D01*
X126365800Y-75140500D02*
X126365000Y-75139700D01*
X153680500Y-68159000D02*
X154827600Y-68159000D01*
X154827600Y-68159000D02*
X154838400Y-68148200D01*
X155130500Y-74409000D02*
X157060600Y-74409000D01*
X157060600Y-74409000D02*
X157060900Y-74409300D01*
X155130500Y-75209000D02*
X157771700Y-75209000D01*
X157771700Y-75209000D02*
X157772100Y-75209400D01*
X168975000Y-66740000D02*
X168147700Y-65912700D01*
X168147700Y-65912700D02*
X168147700Y-64924960D01*
X168975000Y-67500000D02*
X168975000Y-66740000D01*
X168249600Y-66802000D02*
X167500000Y-66052400D01*
X167500000Y-66052400D02*
X167500000Y-64924960D01*
X168249600Y-68259602D02*
X168249600Y-66802000D01*
X168975000Y-68500000D02*
X168489998Y-68500000D01*
X168489998Y-68500000D02*
X168249600Y-68259602D01*
X165354000Y-67501800D02*
X165519000Y-67501800D01*
X165519000Y-67501800D02*
X165520800Y-67500000D01*
X165520800Y-67500000D02*
X167025000Y-67500000D01*
X167025000Y-67500000D02*
X167525000Y-67500000D01*
X123225000Y-66176600D02*
X123147700Y-66099300D01*
X123147700Y-66099300D02*
X123147700Y-64824960D01*
X123225000Y-67500000D02*
X123225000Y-66176600D01*
X122500000Y-64824960D02*
X122500000Y-68275000D01*
X122725000Y-68500000D02*
X123225000Y-68500000D01*
X122500000Y-68275000D02*
X122725000Y-68500000D01*
X120142000Y-101606500D02*
X120673160Y-101606500D01*
X120673160Y-101606500D02*
X121666000Y-102599340D01*
X121663340Y-102602000D02*
X121666000Y-102599340D01*
X119389000Y-97910400D02*
X122809000Y-97910400D01*
X123514000Y-96774000D02*
X123514000Y-97349000D01*
X123514000Y-97349000D02*
X122952600Y-97910400D01*
X122952600Y-97910400D02*
X122809000Y-97910400D01*
X122251500Y-96774000D02*
X122739000Y-96774000D01*
X120839100Y-97410400D02*
X121475500Y-96774000D01*
X121475500Y-96774000D02*
X122251500Y-96774000D01*
X119389000Y-97410400D02*
X120839100Y-97410400D01*
X119761000Y-92487900D02*
X119761000Y-93560400D01*
X119761000Y-93560400D02*
X119087400Y-94234000D01*
X119087400Y-94234000D02*
X118300398Y-94234000D01*
X118300398Y-94234000D02*
X118039000Y-94495398D01*
X118039000Y-94495398D02*
X118039000Y-95060400D01*
X114469800Y-70747000D02*
X115382000Y-69834800D01*
X115382000Y-69834800D02*
X116636800Y-69834800D01*
X113743000Y-70747000D02*
X114469800Y-70747000D01*
X114028000Y-70747000D02*
X113743000Y-70747000D01*
X114028000Y-71747000D02*
X113743000Y-71747000D01*
X113743000Y-71747000D02*
X116634600Y-71747000D01*
X116634600Y-71747000D02*
X116636800Y-71744800D01*
X121163571Y-83718400D02*
X121163571Y-82874279D01*
X121163571Y-84702779D02*
X121163571Y-83718400D01*
X114172071Y-85143779D02*
X114172071Y-84518779D01*
X114172071Y-84518779D02*
X114540650Y-84150200D01*
X114540650Y-84150200D02*
X114960400Y-84150200D01*
X121163571Y-82874279D02*
X121162071Y-82872779D01*
X115158071Y-77372779D02*
X116000000Y-77372779D01*
X116000000Y-77372779D02*
X117342071Y-77372779D01*
X112648071Y-79622779D02*
X115377221Y-79622779D01*
X115377221Y-79622779D02*
X116000000Y-79000000D01*
X114558071Y-77372779D02*
X115158071Y-77372779D01*
X119252071Y-79622779D02*
X119892071Y-78982779D01*
X119892071Y-78982779D02*
X119892071Y-77372779D01*
X112648071Y-79622779D02*
X113288071Y-78982779D01*
X113288071Y-78982779D02*
X113288071Y-77372779D01*
X119892071Y-77372779D02*
X121162071Y-77372779D01*
X118612071Y-77372779D02*
X119892071Y-77372779D01*
X117342071Y-77372779D02*
X118612071Y-77372779D01*
X114558071Y-77372779D02*
X113288071Y-77372779D01*
X112008071Y-77372779D02*
X113288071Y-77372779D01*
X110738071Y-77372779D02*
X112008071Y-77372779D01*
X114558071Y-82872779D02*
X114558071Y-83358729D01*
X114558071Y-83358729D02*
X113672071Y-84244729D01*
X113672071Y-84244729D02*
X113672071Y-84518779D01*
X113672071Y-84518779D02*
X113672071Y-85143779D01*
X113267831Y-85166019D02*
X113267831Y-85158019D01*
X113267831Y-85158019D02*
X113282071Y-85143779D01*
X113282071Y-85143779D02*
X113672071Y-85143779D01*
X112521071Y-85337779D02*
X113096071Y-85337779D01*
X113096071Y-85337779D02*
X113267831Y-85166019D01*
X115255221Y-86293779D02*
X115315721Y-86233279D01*
X115315721Y-86233279D02*
X115950071Y-86233279D01*
X114672071Y-86293779D02*
X115255221Y-86293779D01*
X116713000Y-93675200D02*
X117039000Y-94001200D01*
X117039000Y-94001200D02*
X117039000Y-95060400D01*
X116713000Y-92975400D02*
X116713000Y-93675200D01*
X119389000Y-96910400D02*
X120285000Y-96910400D01*
X120285000Y-96910400D02*
X120573800Y-96621600D01*
X117539000Y-95060400D02*
X117539000Y-94271600D01*
X117539000Y-94271600D02*
X118237000Y-93573600D01*
X118237000Y-93573600D02*
X118237000Y-93122900D01*
X144730620Y-73162160D02*
X144730620Y-74411840D01*
X144730620Y-74411840D02*
X146627660Y-74411840D01*
X146627660Y-74411840D02*
X146630500Y-74409000D01*
X117475000Y-103822500D02*
X117348000Y-103695500D01*
X117348000Y-103695500D02*
X117348000Y-102711400D01*
X117475000Y-105333800D02*
X117475000Y-103822500D01*
X117475000Y-107391200D02*
X117475000Y-105333800D01*
X119144900Y-105333800D02*
X117475000Y-105333800D01*
X115062000Y-90932000D02*
X115620800Y-90373200D01*
X115620800Y-90373200D02*
X122123200Y-90373200D01*
X115062000Y-93497400D02*
X115062000Y-90932000D01*
X115595400Y-94030800D02*
X115062000Y-93497400D01*
X116074402Y-94030800D02*
X115595400Y-94030800D01*
X116539000Y-95060400D02*
X116539000Y-94495398D01*
X116539000Y-94495398D02*
X116074402Y-94030800D01*
X129032000Y-80619600D02*
X129032000Y-75891500D01*
X124565154Y-93087642D02*
X123990154Y-93087642D01*
X123596400Y-89916000D02*
X127549232Y-85963168D01*
X127549232Y-82102368D02*
X129032000Y-80619600D01*
X129032000Y-75891500D02*
X128781000Y-75640500D01*
X123596400Y-92693888D02*
X123596400Y-89916000D01*
X128781000Y-75640500D02*
X128031000Y-75640500D01*
X123990154Y-93087642D02*
X123596400Y-92693888D01*
X127549232Y-85963168D02*
X127549232Y-82102368D01*
X128130300Y-88049100D02*
X128130300Y-82334100D01*
X129057400Y-88976200D02*
X128130300Y-88049100D01*
X132035000Y-88976200D02*
X129057400Y-88976200D01*
X134503600Y-90669800D02*
X133728600Y-90669800D01*
X130510001Y-76182499D02*
X130810000Y-75882500D01*
X133728600Y-90669800D02*
X132035000Y-88976200D01*
X128130300Y-82334100D02*
X129590800Y-80873600D01*
X129590800Y-80873600D02*
X129590800Y-77101700D01*
X129590800Y-77101700D02*
X130510001Y-76182499D01*
X131981000Y-72057200D02*
X131978400Y-72059800D01*
X131981000Y-70690500D02*
X131981000Y-72057200D01*
X134503600Y-90669800D02*
X139003600Y-90669800D01*
X140817600Y-90671500D02*
X139005300Y-90671500D01*
X139005300Y-90671500D02*
X139003600Y-90669800D01*
X173913800Y-102273100D02*
X176060100Y-102273100D01*
X176060100Y-102273100D02*
X178663600Y-99669600D01*
X181923500Y-73025000D02*
X181102000Y-73025000D01*
X178663600Y-99669600D02*
X178663600Y-85140800D01*
X178663600Y-85140800D02*
X182448200Y-81356200D01*
X182448200Y-73549700D02*
X181923500Y-73025000D01*
X182448200Y-81356200D02*
X182448200Y-73549700D01*
X173990000Y-100774500D02*
X176110900Y-100774500D01*
X176110900Y-100774500D02*
X177774600Y-99110800D01*
X177774600Y-99110800D02*
X177774600Y-84607400D01*
X177774600Y-84607400D02*
X181102000Y-81280000D01*
X181102000Y-81280000D02*
X181102000Y-74295000D01*
D74*
G36*
X108966000Y-88773000D02*
X108976006Y-88822410D01*
X109004447Y-88864035D01*
X109046841Y-88891315D01*
X109093000Y-88900000D01*
X113484442Y-88900000D01*
X113656001Y-88971238D01*
X113919000Y-88971467D01*
X113919000Y-95504000D01*
X113929006Y-95553410D01*
X113957447Y-95595035D01*
X113999841Y-95622315D01*
X114046000Y-95631000D01*
X115303069Y-95631000D01*
X115305838Y-95645717D01*
X115320344Y-95668260D01*
X115291560Y-95810400D01*
X115291560Y-96132960D01*
X114839000Y-96132960D01*
X114746315Y-96150400D01*
X112904986Y-96150400D01*
X112614147Y-96208252D01*
X112527721Y-96266000D01*
X111823500Y-96266000D01*
X111823500Y-92710000D01*
X111813494Y-92660590D01*
X111785053Y-92618965D01*
X111742659Y-92591685D01*
X111696500Y-92583000D01*
X100710000Y-92583000D01*
X100710000Y-86614000D01*
X106680000Y-86614000D01*
X106729410Y-86603994D01*
X106771035Y-86575553D01*
X106798315Y-86533159D01*
X106807000Y-86487000D01*
X106807000Y-85852000D01*
X108966000Y-85852000D01*
X108966000Y-88773000D01*
X108966000Y-88773000D01*
G37*
X108966000Y-88773000D02*
X108976006Y-88822410D01*
X109004447Y-88864035D01*
X109046841Y-88891315D01*
X109093000Y-88900000D01*
X113484442Y-88900000D01*
X113656001Y-88971238D01*
X113919000Y-88971467D01*
X113919000Y-95504000D01*
X113929006Y-95553410D01*
X113957447Y-95595035D01*
X113999841Y-95622315D01*
X114046000Y-95631000D01*
X115303069Y-95631000D01*
X115305838Y-95645717D01*
X115320344Y-95668260D01*
X115291560Y-95810400D01*
X115291560Y-96132960D01*
X114839000Y-96132960D01*
X114746315Y-96150400D01*
X112904986Y-96150400D01*
X112614147Y-96208252D01*
X112527721Y-96266000D01*
X111823500Y-96266000D01*
X111823500Y-92710000D01*
X111813494Y-92660590D01*
X111785053Y-92618965D01*
X111742659Y-92591685D01*
X111696500Y-92583000D01*
X100710000Y-92583000D01*
X100710000Y-86614000D01*
X106680000Y-86614000D01*
X106729410Y-86603994D01*
X106771035Y-86575553D01*
X106798315Y-86533159D01*
X106807000Y-86487000D01*
X106807000Y-85852000D01*
X108966000Y-85852000D01*
X108966000Y-88773000D01*
G36*
X110998000Y-96901000D02*
X111008006Y-96950410D01*
X111036447Y-96992035D01*
X111078841Y-97019315D01*
X111125000Y-97028000D01*
X113595225Y-97028000D01*
X113721760Y-97112548D01*
X113770014Y-97122146D01*
X114012600Y-97170400D01*
X114561654Y-97170400D01*
X114371360Y-97208252D01*
X114124799Y-97372999D01*
X114020041Y-97477757D01*
X113996590Y-97482506D01*
X113954965Y-97510947D01*
X113927685Y-97553341D01*
X113923798Y-97574000D01*
X113755152Y-97742646D01*
X113716879Y-97768219D01*
X113325627Y-98159471D01*
X113225245Y-98226544D01*
X113026789Y-98425000D01*
X100710000Y-98425000D01*
X100710000Y-93599000D01*
X110998000Y-93599000D01*
X110998000Y-96901000D01*
X110998000Y-96901000D01*
G37*
X110998000Y-96901000D02*
X111008006Y-96950410D01*
X111036447Y-96992035D01*
X111078841Y-97019315D01*
X111125000Y-97028000D01*
X113595225Y-97028000D01*
X113721760Y-97112548D01*
X113770014Y-97122146D01*
X114012600Y-97170400D01*
X114561654Y-97170400D01*
X114371360Y-97208252D01*
X114124799Y-97372999D01*
X114020041Y-97477757D01*
X113996590Y-97482506D01*
X113954965Y-97510947D01*
X113927685Y-97553341D01*
X113923798Y-97574000D01*
X113755152Y-97742646D01*
X113716879Y-97768219D01*
X113325627Y-98159471D01*
X113225245Y-98226544D01*
X113026789Y-98425000D01*
X100710000Y-98425000D01*
X100710000Y-93599000D01*
X110998000Y-93599000D01*
X110998000Y-96901000D01*
G36*
X107621800Y-81631937D02*
X107589608Y-81664073D01*
X107446962Y-82007601D01*
X107446638Y-82379567D01*
X107588683Y-82723343D01*
X107851473Y-82986592D01*
X108195001Y-83129238D01*
X108566967Y-83129562D01*
X108910743Y-82987517D01*
X109173992Y-82724727D01*
X109246545Y-82550000D01*
X113560631Y-82550000D01*
X113560631Y-83272779D01*
X113561991Y-83280007D01*
X113134670Y-83707328D01*
X113059385Y-83820000D01*
X111760000Y-83820000D01*
X111710590Y-83830006D01*
X111668965Y-83858447D01*
X111641685Y-83900841D01*
X111633000Y-83947000D01*
X111633000Y-84749565D01*
X111599640Y-84798389D01*
X111548631Y-85050279D01*
X111548631Y-85625279D01*
X111592909Y-85860596D01*
X111633000Y-85922899D01*
X111633000Y-86362000D01*
X111058801Y-86362000D01*
X111010400Y-86313599D01*
X110763838Y-86148852D01*
X110472999Y-86091000D01*
X109791500Y-86091000D01*
X109791500Y-84963000D01*
X109781494Y-84913590D01*
X109753053Y-84871965D01*
X109710659Y-84844685D01*
X109664500Y-84836000D01*
X106589531Y-84836000D01*
X106553000Y-84779229D01*
X106553000Y-83693000D01*
X106542994Y-83643590D01*
X106514553Y-83601965D01*
X106472159Y-83574685D01*
X106426000Y-83566000D01*
X106388792Y-83566000D01*
X106326090Y-83468559D01*
X106113890Y-83323569D01*
X105862000Y-83272560D01*
X105212000Y-83272560D01*
X104976683Y-83316838D01*
X104760559Y-83455910D01*
X104685338Y-83566000D01*
X100710000Y-83566000D01*
X100710000Y-77470000D01*
X107621800Y-77470000D01*
X107621800Y-81631937D01*
X107621800Y-81631937D01*
G37*
X107621800Y-81631937D02*
X107589608Y-81664073D01*
X107446962Y-82007601D01*
X107446638Y-82379567D01*
X107588683Y-82723343D01*
X107851473Y-82986592D01*
X108195001Y-83129238D01*
X108566967Y-83129562D01*
X108910743Y-82987517D01*
X109173992Y-82724727D01*
X109246545Y-82550000D01*
X113560631Y-82550000D01*
X113560631Y-83272779D01*
X113561991Y-83280007D01*
X113134670Y-83707328D01*
X113059385Y-83820000D01*
X111760000Y-83820000D01*
X111710590Y-83830006D01*
X111668965Y-83858447D01*
X111641685Y-83900841D01*
X111633000Y-83947000D01*
X111633000Y-84749565D01*
X111599640Y-84798389D01*
X111548631Y-85050279D01*
X111548631Y-85625279D01*
X111592909Y-85860596D01*
X111633000Y-85922899D01*
X111633000Y-86362000D01*
X111058801Y-86362000D01*
X111010400Y-86313599D01*
X110763838Y-86148852D01*
X110472999Y-86091000D01*
X109791500Y-86091000D01*
X109791500Y-84963000D01*
X109781494Y-84913590D01*
X109753053Y-84871965D01*
X109710659Y-84844685D01*
X109664500Y-84836000D01*
X106589531Y-84836000D01*
X106553000Y-84779229D01*
X106553000Y-83693000D01*
X106542994Y-83643590D01*
X106514553Y-83601965D01*
X106472159Y-83574685D01*
X106426000Y-83566000D01*
X106388792Y-83566000D01*
X106326090Y-83468559D01*
X106113890Y-83323569D01*
X105862000Y-83272560D01*
X105212000Y-83272560D01*
X104976683Y-83316838D01*
X104760559Y-83455910D01*
X104685338Y-83566000D01*
X100710000Y-83566000D01*
X100710000Y-77470000D01*
X107621800Y-77470000D01*
X107621800Y-81631937D01*
G36*
X124288110Y-100496431D02*
X124540000Y-100547440D01*
X125210000Y-100547440D01*
X125445317Y-100503162D01*
X125551244Y-100435000D01*
X125665000Y-100435000D01*
X125665000Y-106599995D01*
X125664999Y-106600000D01*
X125743785Y-106996077D01*
X125968144Y-107331856D01*
X127926289Y-109290000D01*
X100710000Y-109290000D01*
X100710000Y-107696000D01*
X116065560Y-107696000D01*
X116065560Y-108153200D01*
X116109838Y-108388517D01*
X116248910Y-108604641D01*
X116461110Y-108749631D01*
X116713000Y-108800640D01*
X118237000Y-108800640D01*
X118472317Y-108756362D01*
X118688441Y-108617290D01*
X118833431Y-108405090D01*
X118884440Y-108153200D01*
X118884440Y-106629200D01*
X118840162Y-106393883D01*
X118772732Y-106289094D01*
X118857400Y-106306240D01*
X119432400Y-106306240D01*
X119667717Y-106261962D01*
X119883841Y-106122890D01*
X120028831Y-105910690D01*
X120079840Y-105658800D01*
X120079840Y-105008800D01*
X120035562Y-104773483D01*
X119896490Y-104557359D01*
X119684290Y-104412369D01*
X119432400Y-104361360D01*
X118857400Y-104361360D01*
X118622083Y-104405638D01*
X118405959Y-104544710D01*
X118386083Y-104573800D01*
X118235000Y-104573800D01*
X118235000Y-103822500D01*
X118177148Y-103531661D01*
X118127890Y-103457942D01*
X118269431Y-103250790D01*
X118320440Y-102998900D01*
X118320440Y-102871340D01*
X118816000Y-102871340D01*
X119051317Y-102827062D01*
X119267441Y-102687990D01*
X119412431Y-102475790D01*
X119428384Y-102397010D01*
X119565110Y-102490431D01*
X119817000Y-102541440D01*
X120467000Y-102541440D01*
X120522799Y-102530941D01*
X120693560Y-102701702D01*
X120693560Y-102886840D01*
X120713067Y-102990511D01*
X120693560Y-103086840D01*
X120693560Y-103661840D01*
X120737838Y-103897157D01*
X120773566Y-103952680D01*
X120731162Y-104054801D01*
X120730838Y-104426767D01*
X120872883Y-104770543D01*
X121135673Y-105033792D01*
X121479201Y-105176438D01*
X121851167Y-105176762D01*
X122194943Y-105034717D01*
X122458192Y-104771927D01*
X122600838Y-104428399D01*
X122601162Y-104056433D01*
X122559244Y-103954983D01*
X122587431Y-103913730D01*
X122638440Y-103661840D01*
X122638440Y-103189824D01*
X122648110Y-103196431D01*
X122900000Y-103247440D01*
X124300000Y-103247440D01*
X124535317Y-103203162D01*
X124751441Y-103064090D01*
X124896431Y-102851890D01*
X124947440Y-102600000D01*
X124947440Y-101240000D01*
X124903162Y-101004683D01*
X124764090Y-100788559D01*
X124551890Y-100643569D01*
X124300000Y-100592560D01*
X124160000Y-100592560D01*
X124160000Y-100408897D01*
X124288110Y-100496431D01*
X124288110Y-100496431D01*
G37*
X124288110Y-100496431D02*
X124540000Y-100547440D01*
X125210000Y-100547440D01*
X125445317Y-100503162D01*
X125551244Y-100435000D01*
X125665000Y-100435000D01*
X125665000Y-106599995D01*
X125664999Y-106600000D01*
X125743785Y-106996077D01*
X125968144Y-107331856D01*
X127926289Y-109290000D01*
X100710000Y-109290000D01*
X100710000Y-107696000D01*
X116065560Y-107696000D01*
X116065560Y-108153200D01*
X116109838Y-108388517D01*
X116248910Y-108604641D01*
X116461110Y-108749631D01*
X116713000Y-108800640D01*
X118237000Y-108800640D01*
X118472317Y-108756362D01*
X118688441Y-108617290D01*
X118833431Y-108405090D01*
X118884440Y-108153200D01*
X118884440Y-106629200D01*
X118840162Y-106393883D01*
X118772732Y-106289094D01*
X118857400Y-106306240D01*
X119432400Y-106306240D01*
X119667717Y-106261962D01*
X119883841Y-106122890D01*
X120028831Y-105910690D01*
X120079840Y-105658800D01*
X120079840Y-105008800D01*
X120035562Y-104773483D01*
X119896490Y-104557359D01*
X119684290Y-104412369D01*
X119432400Y-104361360D01*
X118857400Y-104361360D01*
X118622083Y-104405638D01*
X118405959Y-104544710D01*
X118386083Y-104573800D01*
X118235000Y-104573800D01*
X118235000Y-103822500D01*
X118177148Y-103531661D01*
X118127890Y-103457942D01*
X118269431Y-103250790D01*
X118320440Y-102998900D01*
X118320440Y-102871340D01*
X118816000Y-102871340D01*
X119051317Y-102827062D01*
X119267441Y-102687990D01*
X119412431Y-102475790D01*
X119428384Y-102397010D01*
X119565110Y-102490431D01*
X119817000Y-102541440D01*
X120467000Y-102541440D01*
X120522799Y-102530941D01*
X120693560Y-102701702D01*
X120693560Y-102886840D01*
X120713067Y-102990511D01*
X120693560Y-103086840D01*
X120693560Y-103661840D01*
X120737838Y-103897157D01*
X120773566Y-103952680D01*
X120731162Y-104054801D01*
X120730838Y-104426767D01*
X120872883Y-104770543D01*
X121135673Y-105033792D01*
X121479201Y-105176438D01*
X121851167Y-105176762D01*
X122194943Y-105034717D01*
X122458192Y-104771927D01*
X122600838Y-104428399D01*
X122601162Y-104056433D01*
X122559244Y-103954983D01*
X122587431Y-103913730D01*
X122638440Y-103661840D01*
X122638440Y-103189824D01*
X122648110Y-103196431D01*
X122900000Y-103247440D01*
X124300000Y-103247440D01*
X124535317Y-103203162D01*
X124751441Y-103064090D01*
X124896431Y-102851890D01*
X124947440Y-102600000D01*
X124947440Y-101240000D01*
X124903162Y-101004683D01*
X124764090Y-100788559D01*
X124551890Y-100643569D01*
X124300000Y-100592560D01*
X124160000Y-100592560D01*
X124160000Y-100408897D01*
X124288110Y-100496431D01*
G36*
X185806560Y-90025000D02*
X185850838Y-90260317D01*
X185989910Y-90476441D01*
X186202110Y-90621431D01*
X186454000Y-90672440D01*
X189244000Y-90672440D01*
X189290000Y-90663784D01*
X189290000Y-94360040D01*
X189094862Y-93887771D01*
X188670463Y-93462630D01*
X188115675Y-93232262D01*
X187514960Y-93231738D01*
X187009045Y-93440778D01*
X187009292Y-93158303D01*
X186753306Y-92538771D01*
X186279722Y-92064360D01*
X185660638Y-91807293D01*
X184990303Y-91806708D01*
X184370771Y-92062694D01*
X183896360Y-92536278D01*
X183639293Y-93155362D01*
X183638708Y-93825697D01*
X183894694Y-94445229D01*
X184368278Y-94919640D01*
X184987362Y-95176707D01*
X185657697Y-95177292D01*
X186277229Y-94921306D01*
X186303866Y-94894716D01*
X186303738Y-95041040D01*
X186533138Y-95596229D01*
X186957537Y-96021370D01*
X187512325Y-96251738D01*
X188113040Y-96252262D01*
X188668229Y-96022862D01*
X189093370Y-95598463D01*
X189290000Y-95124925D01*
X189290000Y-98860040D01*
X189094862Y-98387771D01*
X188670463Y-97962630D01*
X188115675Y-97732262D01*
X187514960Y-97731738D01*
X186959771Y-97961138D01*
X186534630Y-98385537D01*
X186304262Y-98940325D01*
X186304124Y-99098804D01*
X186279722Y-99074360D01*
X185660638Y-98817293D01*
X184990303Y-98816708D01*
X184370771Y-99072694D01*
X183896360Y-99546278D01*
X183639293Y-100165362D01*
X183638708Y-100835697D01*
X183894694Y-101455229D01*
X184368278Y-101929640D01*
X184987362Y-102186707D01*
X185657697Y-102187292D01*
X186277229Y-101931306D01*
X186751640Y-101457722D01*
X187008707Y-100838638D01*
X187008965Y-100542725D01*
X187512325Y-100751738D01*
X188113040Y-100752262D01*
X188668229Y-100522862D01*
X189093370Y-100098463D01*
X189290000Y-99624925D01*
X189290000Y-109290000D01*
X144473712Y-109290000D01*
X145031853Y-108731858D01*
X145031856Y-108731856D01*
X145256215Y-108396077D01*
X145294437Y-108203923D01*
X145335001Y-108000000D01*
X145335000Y-107999995D01*
X145335000Y-104300005D01*
X145335001Y-104300000D01*
X145256215Y-103903923D01*
X145251694Y-103897157D01*
X145031856Y-103568144D01*
X145031853Y-103568142D01*
X144231856Y-102768144D01*
X143896077Y-102543785D01*
X143500000Y-102464999D01*
X143499995Y-102465000D01*
X143057284Y-102465000D01*
X143192192Y-102330327D01*
X143334838Y-101986799D01*
X143335162Y-101614833D01*
X143193117Y-101271057D01*
X143160000Y-101237882D01*
X143160000Y-100482262D01*
X144236420Y-99405842D01*
X144281907Y-99405882D01*
X144625683Y-99263837D01*
X144888932Y-99001047D01*
X145031578Y-98657519D01*
X145031716Y-98499200D01*
X149037198Y-98499200D01*
X149087300Y-98549302D01*
X149087300Y-99627837D01*
X149055108Y-99659973D01*
X148912462Y-100003501D01*
X148912138Y-100375467D01*
X149054183Y-100719243D01*
X149087300Y-100752418D01*
X149087300Y-101761665D01*
X148954599Y-101706562D01*
X148582633Y-101706238D01*
X148238857Y-101848283D01*
X148205682Y-101881400D01*
X146231463Y-101881400D01*
X146199327Y-101849208D01*
X145855799Y-101706562D01*
X145483833Y-101706238D01*
X145140057Y-101848283D01*
X144876808Y-102111073D01*
X144734162Y-102454601D01*
X144733838Y-102826567D01*
X144875883Y-103170343D01*
X145138673Y-103433592D01*
X145482201Y-103576238D01*
X145854167Y-103576562D01*
X146197943Y-103434517D01*
X146231118Y-103401400D01*
X148205337Y-103401400D01*
X148237473Y-103433592D01*
X148581001Y-103576238D01*
X148952967Y-103576562D01*
X149087300Y-103521057D01*
X149087300Y-105107200D01*
X148063459Y-105107200D01*
X147862165Y-104905555D01*
X147445156Y-104732397D01*
X146993625Y-104732003D01*
X146576314Y-104904433D01*
X146256755Y-105223435D01*
X146083597Y-105640444D01*
X146083203Y-106091975D01*
X146255633Y-106509286D01*
X146574635Y-106828845D01*
X146991644Y-107002003D01*
X147443175Y-107002397D01*
X147860486Y-106829967D01*
X148063607Y-106627200D01*
X149284837Y-106627200D01*
X149316973Y-106659392D01*
X149660501Y-106802038D01*
X150032467Y-106802362D01*
X150376243Y-106660317D01*
X150639492Y-106397527D01*
X150782138Y-106053999D01*
X150782462Y-105682033D01*
X150640417Y-105338257D01*
X150607300Y-105305082D01*
X150607300Y-101105323D01*
X150802110Y-101238431D01*
X151054000Y-101289440D01*
X153054000Y-101289440D01*
X153289317Y-101245162D01*
X153505441Y-101106090D01*
X153650431Y-100893890D01*
X153701440Y-100642000D01*
X153701440Y-99642000D01*
X153657162Y-99406683D01*
X153518090Y-99190559D01*
X153305890Y-99045569D01*
X153054000Y-98994560D01*
X151054000Y-98994560D01*
X150818683Y-99038838D01*
X150607300Y-99174859D01*
X150607300Y-98234500D01*
X150549448Y-97943661D01*
X150384701Y-97697099D01*
X150323202Y-97635600D01*
X152389998Y-97635600D01*
X155034901Y-100280503D01*
X154971057Y-100306883D01*
X154707808Y-100569673D01*
X154565162Y-100913201D01*
X154564838Y-101285167D01*
X154706883Y-101628943D01*
X154969673Y-101892192D01*
X155313201Y-102034838D01*
X155360076Y-102034879D01*
X155662598Y-102337401D01*
X155813456Y-102438200D01*
X155909161Y-102502148D01*
X156200000Y-102560000D01*
X160336998Y-102560000D01*
X162797299Y-105020301D01*
X163043861Y-105185048D01*
X163334700Y-105242900D01*
X173106002Y-105242900D01*
X173042462Y-105395921D01*
X173042138Y-105767887D01*
X173184183Y-106111663D01*
X173446973Y-106374912D01*
X173790501Y-106517558D01*
X174162467Y-106517882D01*
X174506243Y-106375837D01*
X174539418Y-106342720D01*
X176966880Y-106342720D01*
X177257719Y-106284868D01*
X177504281Y-106120121D01*
X178280803Y-105343599D01*
X183264699Y-105343599D01*
X183528281Y-105981515D01*
X184015918Y-106470004D01*
X184653373Y-106734699D01*
X185343599Y-106735301D01*
X185981515Y-106471719D01*
X186470004Y-105984082D01*
X186734699Y-105346627D01*
X186735301Y-104656401D01*
X186471719Y-104018485D01*
X185984082Y-103529996D01*
X185346627Y-103265301D01*
X184656401Y-103264699D01*
X184018485Y-103528281D01*
X183529996Y-104015918D01*
X183265301Y-104653373D01*
X183264699Y-105343599D01*
X178280803Y-105343599D01*
X178718401Y-104906001D01*
X178883148Y-104659439D01*
X178941000Y-104368600D01*
X178941000Y-102092602D01*
X180090001Y-100943601D01*
X180254748Y-100697040D01*
X180312600Y-100406200D01*
X180312600Y-91196002D01*
X181518402Y-89990200D01*
X183714537Y-89990200D01*
X183746673Y-90022392D01*
X184090201Y-90165038D01*
X184462167Y-90165362D01*
X184805943Y-90023317D01*
X184844327Y-89985000D01*
X185806560Y-89985000D01*
X185806560Y-90025000D01*
X185806560Y-90025000D01*
G37*
X185806560Y-90025000D02*
X185850838Y-90260317D01*
X185989910Y-90476441D01*
X186202110Y-90621431D01*
X186454000Y-90672440D01*
X189244000Y-90672440D01*
X189290000Y-90663784D01*
X189290000Y-94360040D01*
X189094862Y-93887771D01*
X188670463Y-93462630D01*
X188115675Y-93232262D01*
X187514960Y-93231738D01*
X187009045Y-93440778D01*
X187009292Y-93158303D01*
X186753306Y-92538771D01*
X186279722Y-92064360D01*
X185660638Y-91807293D01*
X184990303Y-91806708D01*
X184370771Y-92062694D01*
X183896360Y-92536278D01*
X183639293Y-93155362D01*
X183638708Y-93825697D01*
X183894694Y-94445229D01*
X184368278Y-94919640D01*
X184987362Y-95176707D01*
X185657697Y-95177292D01*
X186277229Y-94921306D01*
X186303866Y-94894716D01*
X186303738Y-95041040D01*
X186533138Y-95596229D01*
X186957537Y-96021370D01*
X187512325Y-96251738D01*
X188113040Y-96252262D01*
X188668229Y-96022862D01*
X189093370Y-95598463D01*
X189290000Y-95124925D01*
X189290000Y-98860040D01*
X189094862Y-98387771D01*
X188670463Y-97962630D01*
X188115675Y-97732262D01*
X187514960Y-97731738D01*
X186959771Y-97961138D01*
X186534630Y-98385537D01*
X186304262Y-98940325D01*
X186304124Y-99098804D01*
X186279722Y-99074360D01*
X185660638Y-98817293D01*
X184990303Y-98816708D01*
X184370771Y-99072694D01*
X183896360Y-99546278D01*
X183639293Y-100165362D01*
X183638708Y-100835697D01*
X183894694Y-101455229D01*
X184368278Y-101929640D01*
X184987362Y-102186707D01*
X185657697Y-102187292D01*
X186277229Y-101931306D01*
X186751640Y-101457722D01*
X187008707Y-100838638D01*
X187008965Y-100542725D01*
X187512325Y-100751738D01*
X188113040Y-100752262D01*
X188668229Y-100522862D01*
X189093370Y-100098463D01*
X189290000Y-99624925D01*
X189290000Y-109290000D01*
X144473712Y-109290000D01*
X145031853Y-108731858D01*
X145031856Y-108731856D01*
X145256215Y-108396077D01*
X145294437Y-108203923D01*
X145335001Y-108000000D01*
X145335000Y-107999995D01*
X145335000Y-104300005D01*
X145335001Y-104300000D01*
X145256215Y-103903923D01*
X145251694Y-103897157D01*
X145031856Y-103568144D01*
X145031853Y-103568142D01*
X144231856Y-102768144D01*
X143896077Y-102543785D01*
X143500000Y-102464999D01*
X143499995Y-102465000D01*
X143057284Y-102465000D01*
X143192192Y-102330327D01*
X143334838Y-101986799D01*
X143335162Y-101614833D01*
X143193117Y-101271057D01*
X143160000Y-101237882D01*
X143160000Y-100482262D01*
X144236420Y-99405842D01*
X144281907Y-99405882D01*
X144625683Y-99263837D01*
X144888932Y-99001047D01*
X145031578Y-98657519D01*
X145031716Y-98499200D01*
X149037198Y-98499200D01*
X149087300Y-98549302D01*
X149087300Y-99627837D01*
X149055108Y-99659973D01*
X148912462Y-100003501D01*
X148912138Y-100375467D01*
X149054183Y-100719243D01*
X149087300Y-100752418D01*
X149087300Y-101761665D01*
X148954599Y-101706562D01*
X148582633Y-101706238D01*
X148238857Y-101848283D01*
X148205682Y-101881400D01*
X146231463Y-101881400D01*
X146199327Y-101849208D01*
X145855799Y-101706562D01*
X145483833Y-101706238D01*
X145140057Y-101848283D01*
X144876808Y-102111073D01*
X144734162Y-102454601D01*
X144733838Y-102826567D01*
X144875883Y-103170343D01*
X145138673Y-103433592D01*
X145482201Y-103576238D01*
X145854167Y-103576562D01*
X146197943Y-103434517D01*
X146231118Y-103401400D01*
X148205337Y-103401400D01*
X148237473Y-103433592D01*
X148581001Y-103576238D01*
X148952967Y-103576562D01*
X149087300Y-103521057D01*
X149087300Y-105107200D01*
X148063459Y-105107200D01*
X147862165Y-104905555D01*
X147445156Y-104732397D01*
X146993625Y-104732003D01*
X146576314Y-104904433D01*
X146256755Y-105223435D01*
X146083597Y-105640444D01*
X146083203Y-106091975D01*
X146255633Y-106509286D01*
X146574635Y-106828845D01*
X146991644Y-107002003D01*
X147443175Y-107002397D01*
X147860486Y-106829967D01*
X148063607Y-106627200D01*
X149284837Y-106627200D01*
X149316973Y-106659392D01*
X149660501Y-106802038D01*
X150032467Y-106802362D01*
X150376243Y-106660317D01*
X150639492Y-106397527D01*
X150782138Y-106053999D01*
X150782462Y-105682033D01*
X150640417Y-105338257D01*
X150607300Y-105305082D01*
X150607300Y-101105323D01*
X150802110Y-101238431D01*
X151054000Y-101289440D01*
X153054000Y-101289440D01*
X153289317Y-101245162D01*
X153505441Y-101106090D01*
X153650431Y-100893890D01*
X153701440Y-100642000D01*
X153701440Y-99642000D01*
X153657162Y-99406683D01*
X153518090Y-99190559D01*
X153305890Y-99045569D01*
X153054000Y-98994560D01*
X151054000Y-98994560D01*
X150818683Y-99038838D01*
X150607300Y-99174859D01*
X150607300Y-98234500D01*
X150549448Y-97943661D01*
X150384701Y-97697099D01*
X150323202Y-97635600D01*
X152389998Y-97635600D01*
X155034901Y-100280503D01*
X154971057Y-100306883D01*
X154707808Y-100569673D01*
X154565162Y-100913201D01*
X154564838Y-101285167D01*
X154706883Y-101628943D01*
X154969673Y-101892192D01*
X155313201Y-102034838D01*
X155360076Y-102034879D01*
X155662598Y-102337401D01*
X155813456Y-102438200D01*
X155909161Y-102502148D01*
X156200000Y-102560000D01*
X160336998Y-102560000D01*
X162797299Y-105020301D01*
X163043861Y-105185048D01*
X163334700Y-105242900D01*
X173106002Y-105242900D01*
X173042462Y-105395921D01*
X173042138Y-105767887D01*
X173184183Y-106111663D01*
X173446973Y-106374912D01*
X173790501Y-106517558D01*
X174162467Y-106517882D01*
X174506243Y-106375837D01*
X174539418Y-106342720D01*
X176966880Y-106342720D01*
X177257719Y-106284868D01*
X177504281Y-106120121D01*
X178280803Y-105343599D01*
X183264699Y-105343599D01*
X183528281Y-105981515D01*
X184015918Y-106470004D01*
X184653373Y-106734699D01*
X185343599Y-106735301D01*
X185981515Y-106471719D01*
X186470004Y-105984082D01*
X186734699Y-105346627D01*
X186735301Y-104656401D01*
X186471719Y-104018485D01*
X185984082Y-103529996D01*
X185346627Y-103265301D01*
X184656401Y-103264699D01*
X184018485Y-103528281D01*
X183529996Y-104015918D01*
X183265301Y-104653373D01*
X183264699Y-105343599D01*
X178280803Y-105343599D01*
X178718401Y-104906001D01*
X178883148Y-104659439D01*
X178941000Y-104368600D01*
X178941000Y-102092602D01*
X180090001Y-100943601D01*
X180254748Y-100697040D01*
X180312600Y-100406200D01*
X180312600Y-91196002D01*
X181518402Y-89990200D01*
X183714537Y-89990200D01*
X183746673Y-90022392D01*
X184090201Y-90165038D01*
X184462167Y-90165362D01*
X184805943Y-90023317D01*
X184844327Y-89985000D01*
X185806560Y-89985000D01*
X185806560Y-90025000D01*
G36*
X128402500Y-95249800D02*
X128402500Y-98749920D01*
X128446778Y-98985237D01*
X128585850Y-99201361D01*
X128798050Y-99346351D01*
X129049940Y-99397360D01*
X132550060Y-99397360D01*
X132785377Y-99353082D01*
X133001501Y-99214010D01*
X133146491Y-99001810D01*
X133197500Y-98749920D01*
X133197500Y-98034860D01*
X138380758Y-98034860D01*
X138396838Y-98120317D01*
X138535910Y-98336441D01*
X138748110Y-98481431D01*
X139000000Y-98532440D01*
X141200000Y-98532440D01*
X141435317Y-98488162D01*
X141651441Y-98349090D01*
X141796431Y-98136890D01*
X141847440Y-97885000D01*
X141847440Y-96922242D01*
X143175756Y-98250558D01*
X143161902Y-98283921D01*
X143161861Y-98330797D01*
X141862599Y-99630059D01*
X141838300Y-99666425D01*
X141803162Y-99479683D01*
X141664090Y-99263559D01*
X141451890Y-99118569D01*
X141200000Y-99067560D01*
X139000000Y-99067560D01*
X138764683Y-99111838D01*
X138548559Y-99250910D01*
X138403569Y-99463110D01*
X138352560Y-99715000D01*
X138352560Y-101315000D01*
X138396838Y-101550317D01*
X138535910Y-101766441D01*
X138748110Y-101911431D01*
X138965000Y-101955352D01*
X138965000Y-102052560D01*
X138900000Y-102052560D01*
X138664683Y-102096838D01*
X138448559Y-102235910D01*
X138303569Y-102448110D01*
X138252560Y-102700000D01*
X138252560Y-104300000D01*
X138296838Y-104535317D01*
X138435910Y-104751441D01*
X138648110Y-104896431D01*
X138900000Y-104947440D01*
X141100000Y-104947440D01*
X141335317Y-104903162D01*
X141551441Y-104764090D01*
X141696431Y-104551890D01*
X141699851Y-104535000D01*
X143071288Y-104535000D01*
X143265000Y-104728711D01*
X143265000Y-107565000D01*
X129128711Y-107565000D01*
X127735000Y-106171288D01*
X127735000Y-99600005D01*
X127735001Y-99600000D01*
X127656215Y-99203923D01*
X127652551Y-99198439D01*
X127431856Y-98868144D01*
X127431853Y-98868142D01*
X127231856Y-98668144D01*
X126896077Y-98443785D01*
X126500000Y-98364999D01*
X126499995Y-98365000D01*
X125551797Y-98365000D01*
X125461890Y-98303569D01*
X125210000Y-98252560D01*
X124540000Y-98252560D01*
X124304683Y-98296838D01*
X124088559Y-98435910D01*
X123999667Y-98566008D01*
X123924090Y-98448559D01*
X123711890Y-98303569D01*
X123647311Y-98290491D01*
X124051401Y-97886402D01*
X124197999Y-97667001D01*
X124216148Y-97639839D01*
X124228255Y-97578975D01*
X124252941Y-97563090D01*
X124397931Y-97350890D01*
X124448940Y-97099000D01*
X124448940Y-96449000D01*
X124404662Y-96213683D01*
X124265590Y-95997559D01*
X124053390Y-95852569D01*
X123801500Y-95801560D01*
X123226500Y-95801560D01*
X123122829Y-95821067D01*
X123026500Y-95801560D01*
X122451500Y-95801560D01*
X122216183Y-95845838D01*
X122000059Y-95984910D01*
X121980183Y-96014000D01*
X121475500Y-96014000D01*
X121319395Y-96045052D01*
X121309780Y-96035420D01*
X122235189Y-95110011D01*
X128430808Y-95110011D01*
X128402500Y-95249800D01*
X128402500Y-95249800D01*
G37*
X128402500Y-95249800D02*
X128402500Y-98749920D01*
X128446778Y-98985237D01*
X128585850Y-99201361D01*
X128798050Y-99346351D01*
X129049940Y-99397360D01*
X132550060Y-99397360D01*
X132785377Y-99353082D01*
X133001501Y-99214010D01*
X133146491Y-99001810D01*
X133197500Y-98749920D01*
X133197500Y-98034860D01*
X138380758Y-98034860D01*
X138396838Y-98120317D01*
X138535910Y-98336441D01*
X138748110Y-98481431D01*
X139000000Y-98532440D01*
X141200000Y-98532440D01*
X141435317Y-98488162D01*
X141651441Y-98349090D01*
X141796431Y-98136890D01*
X141847440Y-97885000D01*
X141847440Y-96922242D01*
X143175756Y-98250558D01*
X143161902Y-98283921D01*
X143161861Y-98330797D01*
X141862599Y-99630059D01*
X141838300Y-99666425D01*
X141803162Y-99479683D01*
X141664090Y-99263559D01*
X141451890Y-99118569D01*
X141200000Y-99067560D01*
X139000000Y-99067560D01*
X138764683Y-99111838D01*
X138548559Y-99250910D01*
X138403569Y-99463110D01*
X138352560Y-99715000D01*
X138352560Y-101315000D01*
X138396838Y-101550317D01*
X138535910Y-101766441D01*
X138748110Y-101911431D01*
X138965000Y-101955352D01*
X138965000Y-102052560D01*
X138900000Y-102052560D01*
X138664683Y-102096838D01*
X138448559Y-102235910D01*
X138303569Y-102448110D01*
X138252560Y-102700000D01*
X138252560Y-104300000D01*
X138296838Y-104535317D01*
X138435910Y-104751441D01*
X138648110Y-104896431D01*
X138900000Y-104947440D01*
X141100000Y-104947440D01*
X141335317Y-104903162D01*
X141551441Y-104764090D01*
X141696431Y-104551890D01*
X141699851Y-104535000D01*
X143071288Y-104535000D01*
X143265000Y-104728711D01*
X143265000Y-107565000D01*
X129128711Y-107565000D01*
X127735000Y-106171288D01*
X127735000Y-99600005D01*
X127735001Y-99600000D01*
X127656215Y-99203923D01*
X127652551Y-99198439D01*
X127431856Y-98868144D01*
X127431853Y-98868142D01*
X127231856Y-98668144D01*
X126896077Y-98443785D01*
X126500000Y-98364999D01*
X126499995Y-98365000D01*
X125551797Y-98365000D01*
X125461890Y-98303569D01*
X125210000Y-98252560D01*
X124540000Y-98252560D01*
X124304683Y-98296838D01*
X124088559Y-98435910D01*
X123999667Y-98566008D01*
X123924090Y-98448559D01*
X123711890Y-98303569D01*
X123647311Y-98290491D01*
X124051401Y-97886402D01*
X124197999Y-97667001D01*
X124216148Y-97639839D01*
X124228255Y-97578975D01*
X124252941Y-97563090D01*
X124397931Y-97350890D01*
X124448940Y-97099000D01*
X124448940Y-96449000D01*
X124404662Y-96213683D01*
X124265590Y-95997559D01*
X124053390Y-95852569D01*
X123801500Y-95801560D01*
X123226500Y-95801560D01*
X123122829Y-95821067D01*
X123026500Y-95801560D01*
X122451500Y-95801560D01*
X122216183Y-95845838D01*
X122000059Y-95984910D01*
X121980183Y-96014000D01*
X121475500Y-96014000D01*
X121319395Y-96045052D01*
X121309780Y-96035420D01*
X122235189Y-95110011D01*
X128430808Y-95110011D01*
X128402500Y-95249800D01*
G36*
X166987599Y-69437401D02*
X167464200Y-69914002D01*
X167464200Y-99284937D01*
X167432008Y-99317073D01*
X167289362Y-99660601D01*
X167289038Y-100032567D01*
X167431083Y-100376343D01*
X167693873Y-100639592D01*
X168037401Y-100782238D01*
X168409367Y-100782562D01*
X168753143Y-100640517D01*
X169016392Y-100377727D01*
X169159038Y-100034199D01*
X169159362Y-99662233D01*
X169017317Y-99318457D01*
X168984200Y-99285282D01*
X168984200Y-83676505D01*
X169162599Y-83795708D01*
X169453439Y-83853560D01*
X171779104Y-83853560D01*
X171826453Y-83900992D01*
X172169981Y-84043638D01*
X172541947Y-84043962D01*
X172885723Y-83901917D01*
X173148972Y-83639127D01*
X173291618Y-83295599D01*
X173291942Y-82923633D01*
X173149897Y-82579857D01*
X172887107Y-82316608D01*
X172543579Y-82173962D01*
X172171613Y-82173638D01*
X171827837Y-82315683D01*
X171809929Y-82333560D01*
X169768241Y-82333560D01*
X169613999Y-82179318D01*
X169613999Y-81439440D01*
X170279000Y-81439440D01*
X170514317Y-81395162D01*
X170730441Y-81256090D01*
X170875431Y-81043890D01*
X170926440Y-80792000D01*
X170926440Y-78792000D01*
X170882162Y-78556683D01*
X170743090Y-78340559D01*
X170657757Y-78282253D01*
X170657962Y-78046833D01*
X170608850Y-77927972D01*
X170644231Y-77876190D01*
X170695240Y-77624300D01*
X170695240Y-77321800D01*
X171264960Y-77321800D01*
X171264960Y-77624300D01*
X171309238Y-77859617D01*
X171352018Y-77926099D01*
X171302562Y-78045201D01*
X171302358Y-78279778D01*
X171227559Y-78327910D01*
X171082569Y-78540110D01*
X171031560Y-78792000D01*
X171031560Y-80792000D01*
X171075838Y-81027317D01*
X171214910Y-81243441D01*
X171427110Y-81388431D01*
X171679000Y-81439440D01*
X172779000Y-81439440D01*
X173014317Y-81395162D01*
X173230441Y-81256090D01*
X173375431Y-81043890D01*
X173426440Y-80792000D01*
X173426440Y-78792000D01*
X173382162Y-78556683D01*
X173243090Y-78340559D01*
X173172348Y-78292223D01*
X173172562Y-78046833D01*
X173123450Y-77927972D01*
X173158831Y-77876190D01*
X173209840Y-77624300D01*
X173209840Y-77321800D01*
X173754160Y-77321800D01*
X173754160Y-77624300D01*
X173798438Y-77859617D01*
X173841218Y-77926099D01*
X173791762Y-78045201D01*
X173791552Y-78286732D01*
X173727559Y-78327910D01*
X173582569Y-78540110D01*
X173531560Y-78792000D01*
X173531560Y-80792000D01*
X173575838Y-81027317D01*
X173714910Y-81243441D01*
X173927110Y-81388431D01*
X174179000Y-81439440D01*
X174439437Y-81439440D01*
X174439138Y-81782667D01*
X174581183Y-82126443D01*
X174614300Y-82159618D01*
X174614300Y-97716498D01*
X171236656Y-101094142D01*
X171227117Y-101071057D01*
X170964327Y-100807808D01*
X170620799Y-100665162D01*
X170248833Y-100664838D01*
X169905057Y-100806883D01*
X169871882Y-100840000D01*
X166695487Y-100840000D01*
X166695562Y-100754433D01*
X166553517Y-100410657D01*
X166520400Y-100377482D01*
X166520400Y-85953442D01*
X166762782Y-85711060D01*
X166927529Y-85464499D01*
X166938567Y-85409009D01*
X166985381Y-85173659D01*
X166985381Y-70708181D01*
X166927529Y-70417342D01*
X166762782Y-70170780D01*
X166442419Y-69850417D01*
X166450431Y-69838690D01*
X166501440Y-69586800D01*
X166501440Y-69311639D01*
X166872667Y-69311962D01*
X166897051Y-69301887D01*
X166987599Y-69437401D01*
X166987599Y-69437401D01*
G37*
X166987599Y-69437401D02*
X167464200Y-69914002D01*
X167464200Y-99284937D01*
X167432008Y-99317073D01*
X167289362Y-99660601D01*
X167289038Y-100032567D01*
X167431083Y-100376343D01*
X167693873Y-100639592D01*
X168037401Y-100782238D01*
X168409367Y-100782562D01*
X168753143Y-100640517D01*
X169016392Y-100377727D01*
X169159038Y-100034199D01*
X169159362Y-99662233D01*
X169017317Y-99318457D01*
X168984200Y-99285282D01*
X168984200Y-83676505D01*
X169162599Y-83795708D01*
X169453439Y-83853560D01*
X171779104Y-83853560D01*
X171826453Y-83900992D01*
X172169981Y-84043638D01*
X172541947Y-84043962D01*
X172885723Y-83901917D01*
X173148972Y-83639127D01*
X173291618Y-83295599D01*
X173291942Y-82923633D01*
X173149897Y-82579857D01*
X172887107Y-82316608D01*
X172543579Y-82173962D01*
X172171613Y-82173638D01*
X171827837Y-82315683D01*
X171809929Y-82333560D01*
X169768241Y-82333560D01*
X169613999Y-82179318D01*
X169613999Y-81439440D01*
X170279000Y-81439440D01*
X170514317Y-81395162D01*
X170730441Y-81256090D01*
X170875431Y-81043890D01*
X170926440Y-80792000D01*
X170926440Y-78792000D01*
X170882162Y-78556683D01*
X170743090Y-78340559D01*
X170657757Y-78282253D01*
X170657962Y-78046833D01*
X170608850Y-77927972D01*
X170644231Y-77876190D01*
X170695240Y-77624300D01*
X170695240Y-77321800D01*
X171264960Y-77321800D01*
X171264960Y-77624300D01*
X171309238Y-77859617D01*
X171352018Y-77926099D01*
X171302562Y-78045201D01*
X171302358Y-78279778D01*
X171227559Y-78327910D01*
X171082569Y-78540110D01*
X171031560Y-78792000D01*
X171031560Y-80792000D01*
X171075838Y-81027317D01*
X171214910Y-81243441D01*
X171427110Y-81388431D01*
X171679000Y-81439440D01*
X172779000Y-81439440D01*
X173014317Y-81395162D01*
X173230441Y-81256090D01*
X173375431Y-81043890D01*
X173426440Y-80792000D01*
X173426440Y-78792000D01*
X173382162Y-78556683D01*
X173243090Y-78340559D01*
X173172348Y-78292223D01*
X173172562Y-78046833D01*
X173123450Y-77927972D01*
X173158831Y-77876190D01*
X173209840Y-77624300D01*
X173209840Y-77321800D01*
X173754160Y-77321800D01*
X173754160Y-77624300D01*
X173798438Y-77859617D01*
X173841218Y-77926099D01*
X173791762Y-78045201D01*
X173791552Y-78286732D01*
X173727559Y-78327910D01*
X173582569Y-78540110D01*
X173531560Y-78792000D01*
X173531560Y-80792000D01*
X173575838Y-81027317D01*
X173714910Y-81243441D01*
X173927110Y-81388431D01*
X174179000Y-81439440D01*
X174439437Y-81439440D01*
X174439138Y-81782667D01*
X174581183Y-82126443D01*
X174614300Y-82159618D01*
X174614300Y-97716498D01*
X171236656Y-101094142D01*
X171227117Y-101071057D01*
X170964327Y-100807808D01*
X170620799Y-100665162D01*
X170248833Y-100664838D01*
X169905057Y-100806883D01*
X169871882Y-100840000D01*
X166695487Y-100840000D01*
X166695562Y-100754433D01*
X166553517Y-100410657D01*
X166520400Y-100377482D01*
X166520400Y-85953442D01*
X166762782Y-85711060D01*
X166927529Y-85464499D01*
X166938567Y-85409009D01*
X166985381Y-85173659D01*
X166985381Y-70708181D01*
X166927529Y-70417342D01*
X166762782Y-70170780D01*
X166442419Y-69850417D01*
X166450431Y-69838690D01*
X166501440Y-69586800D01*
X166501440Y-69311639D01*
X166872667Y-69311962D01*
X166897051Y-69301887D01*
X166987599Y-69437401D01*
G36*
X145061400Y-78089602D02*
X145061400Y-79126080D01*
X145119252Y-79416919D01*
X145283999Y-79663481D01*
X146635279Y-81014762D01*
X146872266Y-81173110D01*
X146881841Y-81179508D01*
X147172680Y-81237360D01*
X153070560Y-81237360D01*
X153221103Y-81207415D01*
X153165265Y-81263155D01*
X152969223Y-81735276D01*
X152968777Y-82246481D01*
X153163995Y-82718943D01*
X153525155Y-83080735D01*
X153997276Y-83276777D01*
X154508481Y-83277223D01*
X154980943Y-83082005D01*
X155342735Y-82720845D01*
X155538777Y-82248724D01*
X155539223Y-81737519D01*
X155416059Y-81439440D01*
X156154000Y-81439440D01*
X156389317Y-81395162D01*
X156452478Y-81354519D01*
X156502110Y-81388431D01*
X156754000Y-81439440D01*
X157854000Y-81439440D01*
X158089317Y-81395162D01*
X158305441Y-81256090D01*
X158450431Y-81043890D01*
X158501440Y-80792000D01*
X158501440Y-80716472D01*
X158604967Y-80716562D01*
X158948743Y-80574517D01*
X159211992Y-80311727D01*
X159354638Y-79968199D01*
X159354962Y-79596233D01*
X159212917Y-79252457D01*
X158950127Y-78989208D01*
X158606599Y-78846562D01*
X158501440Y-78846470D01*
X158501440Y-78792000D01*
X158498615Y-78776988D01*
X159349012Y-78776988D01*
X159639851Y-78719136D01*
X159886413Y-78554389D01*
X160174910Y-78265892D01*
X160266500Y-78284440D01*
X160916500Y-78284440D01*
X161151817Y-78240162D01*
X161294872Y-78148108D01*
X161294753Y-78284672D01*
X161227559Y-78327910D01*
X161082569Y-78540110D01*
X161031560Y-78792000D01*
X161031560Y-80792000D01*
X161075838Y-81027317D01*
X161214910Y-81243441D01*
X161427110Y-81388431D01*
X161679000Y-81439440D01*
X162779000Y-81439440D01*
X163014317Y-81395162D01*
X163230441Y-81256090D01*
X163375431Y-81043890D01*
X163426440Y-80792000D01*
X163426440Y-78792000D01*
X163382162Y-78556683D01*
X163243090Y-78340559D01*
X163164753Y-78287033D01*
X163164957Y-78052759D01*
X163610877Y-78498679D01*
X163582569Y-78540110D01*
X163531560Y-78792000D01*
X163531560Y-80792000D01*
X163575838Y-81027317D01*
X163714910Y-81243441D01*
X163908200Y-81375510D01*
X163908200Y-81850377D01*
X163876008Y-81882513D01*
X163733362Y-82226041D01*
X163733038Y-82598007D01*
X163875083Y-82941783D01*
X164137873Y-83205032D01*
X164481401Y-83347678D01*
X164853367Y-83348002D01*
X165197143Y-83205957D01*
X165460392Y-82943167D01*
X165465381Y-82931152D01*
X165465381Y-84858857D01*
X165222999Y-85101239D01*
X165058252Y-85347801D01*
X165000400Y-85638640D01*
X165000400Y-100377137D01*
X164968208Y-100409273D01*
X164853624Y-100685222D01*
X164511122Y-100342720D01*
X164511162Y-100297233D01*
X164369117Y-99953457D01*
X164106327Y-99690208D01*
X163762799Y-99547562D01*
X163390833Y-99547238D01*
X163047057Y-99689283D01*
X162783808Y-99952073D01*
X162758653Y-100012651D01*
X157580521Y-94834519D01*
X157333959Y-94669772D01*
X157043120Y-94611920D01*
X148550483Y-94611920D01*
X148518347Y-94579728D01*
X148174819Y-94437082D01*
X147802853Y-94436758D01*
X147459077Y-94578803D01*
X147436080Y-94601760D01*
X145896839Y-94601760D01*
X145695545Y-94400115D01*
X145278536Y-94226957D01*
X144827005Y-94226563D01*
X144409694Y-94398993D01*
X144090135Y-94717995D01*
X143916977Y-95135004D01*
X143916583Y-95586535D01*
X144089013Y-96003846D01*
X144200572Y-96115600D01*
X143990402Y-96115600D01*
X142923800Y-95048998D01*
X142923800Y-91435167D01*
X147864838Y-91435167D01*
X148006883Y-91778943D01*
X148269673Y-92042192D01*
X148613201Y-92184838D01*
X148985167Y-92185162D01*
X149080600Y-92145730D01*
X149080600Y-92252160D01*
X149124878Y-92487477D01*
X149219380Y-92634337D01*
X149219380Y-92741897D01*
X149187188Y-92774033D01*
X149044542Y-93117561D01*
X149044218Y-93489527D01*
X149186263Y-93833303D01*
X149449053Y-94096552D01*
X149792581Y-94239198D01*
X150164547Y-94239522D01*
X150508323Y-94097477D01*
X150771572Y-93834687D01*
X150914218Y-93491159D01*
X150914542Y-93119193D01*
X150772497Y-92775417D01*
X150758822Y-92761718D01*
X150829481Y-92716250D01*
X150974471Y-92504050D01*
X151009625Y-92330454D01*
X151054000Y-92339440D01*
X153054000Y-92339440D01*
X153289317Y-92295162D01*
X153505441Y-92156090D01*
X153650431Y-91943890D01*
X153701440Y-91692000D01*
X153701440Y-90692000D01*
X153657162Y-90456683D01*
X153518090Y-90240559D01*
X153305890Y-90095569D01*
X153054000Y-90044560D01*
X151054000Y-90044560D01*
X150818683Y-90088838D01*
X150602559Y-90227910D01*
X150559177Y-90291401D01*
X150378040Y-90254720D01*
X149728040Y-90254720D01*
X149492723Y-90298998D01*
X149279028Y-90436507D01*
X148986799Y-90315162D01*
X148614833Y-90314838D01*
X148271057Y-90456883D01*
X148007808Y-90719673D01*
X147865162Y-91063201D01*
X147864838Y-91435167D01*
X142923800Y-91435167D01*
X142923800Y-90627200D01*
X142865948Y-90336361D01*
X142701201Y-90089799D01*
X141316901Y-88705499D01*
X141070339Y-88540752D01*
X140779500Y-88482900D01*
X135988903Y-88482900D01*
X135182801Y-87676799D01*
X134936239Y-87512052D01*
X134645400Y-87454200D01*
X129880202Y-87454200D01*
X129538000Y-87111998D01*
X129538000Y-83141760D01*
X129604110Y-83186931D01*
X129856000Y-83237940D01*
X130035275Y-83237940D01*
X130002660Y-83399000D01*
X130002660Y-83974000D01*
X130046938Y-84209317D01*
X130186010Y-84425441D01*
X130398210Y-84570431D01*
X130650100Y-84621440D01*
X131300100Y-84621440D01*
X131535417Y-84577162D01*
X131635040Y-84513057D01*
X131719010Y-84570431D01*
X131970900Y-84621440D01*
X132620900Y-84621440D01*
X132756257Y-84595971D01*
X132833001Y-84627838D01*
X133168867Y-84628131D01*
X132981720Y-84815278D01*
X132936233Y-84815238D01*
X132592457Y-84957283D01*
X132329208Y-85220073D01*
X132186562Y-85563601D01*
X132186238Y-85935567D01*
X132328283Y-86279343D01*
X132591073Y-86542592D01*
X132934601Y-86685238D01*
X133306567Y-86685562D01*
X133650343Y-86543517D01*
X133800597Y-86393525D01*
X133826883Y-86457143D01*
X134089673Y-86720392D01*
X134433201Y-86863038D01*
X134805167Y-86863362D01*
X135148943Y-86721317D01*
X135412192Y-86458527D01*
X135554838Y-86114999D01*
X135555162Y-85743033D01*
X135413117Y-85399257D01*
X135380000Y-85366082D01*
X135380000Y-85347559D01*
X143244697Y-85347559D01*
X143511316Y-85992829D01*
X144004575Y-86486949D01*
X144649377Y-86754694D01*
X145347559Y-86755303D01*
X145992829Y-86488684D01*
X146486949Y-85995425D01*
X146754694Y-85350623D01*
X146755303Y-84652441D01*
X146488684Y-84007171D01*
X145995425Y-83513051D01*
X145350623Y-83245306D01*
X144652441Y-83244697D01*
X144007171Y-83511316D01*
X143513051Y-84004575D01*
X143245306Y-84649377D01*
X143244697Y-85347559D01*
X135380000Y-85347559D01*
X135380000Y-84621440D01*
X135808600Y-84621440D01*
X136043917Y-84577162D01*
X136047180Y-84575062D01*
X136276200Y-84621440D01*
X136926200Y-84621440D01*
X137161517Y-84577162D01*
X137182655Y-84563560D01*
X137192710Y-84570431D01*
X137444600Y-84621440D01*
X138094600Y-84621440D01*
X138329917Y-84577162D01*
X138339260Y-84571150D01*
X138587600Y-84621440D01*
X139237600Y-84621440D01*
X139472917Y-84577162D01*
X139689041Y-84438090D01*
X139834031Y-84225890D01*
X139885040Y-83974000D01*
X139885040Y-83399000D01*
X139840762Y-83163683D01*
X139701690Y-82947559D01*
X139489490Y-82802569D01*
X139237600Y-82751560D01*
X138587600Y-82751560D01*
X138421414Y-82782830D01*
X138307001Y-82611599D01*
X138253440Y-82558038D01*
X138253440Y-81590500D01*
X138241000Y-81524387D01*
X138241000Y-80784847D01*
X138282393Y-80743526D01*
X138361471Y-80553085D01*
X138466910Y-80716941D01*
X138679110Y-80861931D01*
X138931000Y-80912940D01*
X139931000Y-80912940D01*
X140166317Y-80868662D01*
X140382441Y-80729590D01*
X140527431Y-80517390D01*
X140578440Y-80265500D01*
X140578440Y-80015500D01*
X140554056Y-79885911D01*
X140578440Y-79765500D01*
X140578440Y-79515500D01*
X140554056Y-79385911D01*
X140578440Y-79265500D01*
X140578440Y-79015500D01*
X140554056Y-78885911D01*
X140578440Y-78765500D01*
X140578440Y-78515500D01*
X140556801Y-78400500D01*
X140755817Y-78400500D01*
X140740162Y-78438201D01*
X140739838Y-78810167D01*
X140881883Y-79153943D01*
X141144673Y-79417192D01*
X141488201Y-79559838D01*
X141860167Y-79560162D01*
X142203943Y-79418117D01*
X142467192Y-79155327D01*
X142609838Y-78811799D01*
X142609842Y-78806648D01*
X142674873Y-78871792D01*
X143018401Y-79014438D01*
X143390367Y-79014762D01*
X143734143Y-78872717D01*
X143997392Y-78609927D01*
X144140038Y-78266399D01*
X144140362Y-77894433D01*
X143998317Y-77550657D01*
X143965200Y-77517482D01*
X143965200Y-77470000D01*
X143955055Y-77419000D01*
X143951376Y-77400500D01*
X144372298Y-77400500D01*
X145061400Y-78089602D01*
X145061400Y-78089602D01*
G37*
X145061400Y-78089602D02*
X145061400Y-79126080D01*
X145119252Y-79416919D01*
X145283999Y-79663481D01*
X146635279Y-81014762D01*
X146872266Y-81173110D01*
X146881841Y-81179508D01*
X147172680Y-81237360D01*
X153070560Y-81237360D01*
X153221103Y-81207415D01*
X153165265Y-81263155D01*
X152969223Y-81735276D01*
X152968777Y-82246481D01*
X153163995Y-82718943D01*
X153525155Y-83080735D01*
X153997276Y-83276777D01*
X154508481Y-83277223D01*
X154980943Y-83082005D01*
X155342735Y-82720845D01*
X155538777Y-82248724D01*
X155539223Y-81737519D01*
X155416059Y-81439440D01*
X156154000Y-81439440D01*
X156389317Y-81395162D01*
X156452478Y-81354519D01*
X156502110Y-81388431D01*
X156754000Y-81439440D01*
X157854000Y-81439440D01*
X158089317Y-81395162D01*
X158305441Y-81256090D01*
X158450431Y-81043890D01*
X158501440Y-80792000D01*
X158501440Y-80716472D01*
X158604967Y-80716562D01*
X158948743Y-80574517D01*
X159211992Y-80311727D01*
X159354638Y-79968199D01*
X159354962Y-79596233D01*
X159212917Y-79252457D01*
X158950127Y-78989208D01*
X158606599Y-78846562D01*
X158501440Y-78846470D01*
X158501440Y-78792000D01*
X158498615Y-78776988D01*
X159349012Y-78776988D01*
X159639851Y-78719136D01*
X159886413Y-78554389D01*
X160174910Y-78265892D01*
X160266500Y-78284440D01*
X160916500Y-78284440D01*
X161151817Y-78240162D01*
X161294872Y-78148108D01*
X161294753Y-78284672D01*
X161227559Y-78327910D01*
X161082569Y-78540110D01*
X161031560Y-78792000D01*
X161031560Y-80792000D01*
X161075838Y-81027317D01*
X161214910Y-81243441D01*
X161427110Y-81388431D01*
X161679000Y-81439440D01*
X162779000Y-81439440D01*
X163014317Y-81395162D01*
X163230441Y-81256090D01*
X163375431Y-81043890D01*
X163426440Y-80792000D01*
X163426440Y-78792000D01*
X163382162Y-78556683D01*
X163243090Y-78340559D01*
X163164753Y-78287033D01*
X163164957Y-78052759D01*
X163610877Y-78498679D01*
X163582569Y-78540110D01*
X163531560Y-78792000D01*
X163531560Y-80792000D01*
X163575838Y-81027317D01*
X163714910Y-81243441D01*
X163908200Y-81375510D01*
X163908200Y-81850377D01*
X163876008Y-81882513D01*
X163733362Y-82226041D01*
X163733038Y-82598007D01*
X163875083Y-82941783D01*
X164137873Y-83205032D01*
X164481401Y-83347678D01*
X164853367Y-83348002D01*
X165197143Y-83205957D01*
X165460392Y-82943167D01*
X165465381Y-82931152D01*
X165465381Y-84858857D01*
X165222999Y-85101239D01*
X165058252Y-85347801D01*
X165000400Y-85638640D01*
X165000400Y-100377137D01*
X164968208Y-100409273D01*
X164853624Y-100685222D01*
X164511122Y-100342720D01*
X164511162Y-100297233D01*
X164369117Y-99953457D01*
X164106327Y-99690208D01*
X163762799Y-99547562D01*
X163390833Y-99547238D01*
X163047057Y-99689283D01*
X162783808Y-99952073D01*
X162758653Y-100012651D01*
X157580521Y-94834519D01*
X157333959Y-94669772D01*
X157043120Y-94611920D01*
X148550483Y-94611920D01*
X148518347Y-94579728D01*
X148174819Y-94437082D01*
X147802853Y-94436758D01*
X147459077Y-94578803D01*
X147436080Y-94601760D01*
X145896839Y-94601760D01*
X145695545Y-94400115D01*
X145278536Y-94226957D01*
X144827005Y-94226563D01*
X144409694Y-94398993D01*
X144090135Y-94717995D01*
X143916977Y-95135004D01*
X143916583Y-95586535D01*
X144089013Y-96003846D01*
X144200572Y-96115600D01*
X143990402Y-96115600D01*
X142923800Y-95048998D01*
X142923800Y-91435167D01*
X147864838Y-91435167D01*
X148006883Y-91778943D01*
X148269673Y-92042192D01*
X148613201Y-92184838D01*
X148985167Y-92185162D01*
X149080600Y-92145730D01*
X149080600Y-92252160D01*
X149124878Y-92487477D01*
X149219380Y-92634337D01*
X149219380Y-92741897D01*
X149187188Y-92774033D01*
X149044542Y-93117561D01*
X149044218Y-93489527D01*
X149186263Y-93833303D01*
X149449053Y-94096552D01*
X149792581Y-94239198D01*
X150164547Y-94239522D01*
X150508323Y-94097477D01*
X150771572Y-93834687D01*
X150914218Y-93491159D01*
X150914542Y-93119193D01*
X150772497Y-92775417D01*
X150758822Y-92761718D01*
X150829481Y-92716250D01*
X150974471Y-92504050D01*
X151009625Y-92330454D01*
X151054000Y-92339440D01*
X153054000Y-92339440D01*
X153289317Y-92295162D01*
X153505441Y-92156090D01*
X153650431Y-91943890D01*
X153701440Y-91692000D01*
X153701440Y-90692000D01*
X153657162Y-90456683D01*
X153518090Y-90240559D01*
X153305890Y-90095569D01*
X153054000Y-90044560D01*
X151054000Y-90044560D01*
X150818683Y-90088838D01*
X150602559Y-90227910D01*
X150559177Y-90291401D01*
X150378040Y-90254720D01*
X149728040Y-90254720D01*
X149492723Y-90298998D01*
X149279028Y-90436507D01*
X148986799Y-90315162D01*
X148614833Y-90314838D01*
X148271057Y-90456883D01*
X148007808Y-90719673D01*
X147865162Y-91063201D01*
X147864838Y-91435167D01*
X142923800Y-91435167D01*
X142923800Y-90627200D01*
X142865948Y-90336361D01*
X142701201Y-90089799D01*
X141316901Y-88705499D01*
X141070339Y-88540752D01*
X140779500Y-88482900D01*
X135988903Y-88482900D01*
X135182801Y-87676799D01*
X134936239Y-87512052D01*
X134645400Y-87454200D01*
X129880202Y-87454200D01*
X129538000Y-87111998D01*
X129538000Y-83141760D01*
X129604110Y-83186931D01*
X129856000Y-83237940D01*
X130035275Y-83237940D01*
X130002660Y-83399000D01*
X130002660Y-83974000D01*
X130046938Y-84209317D01*
X130186010Y-84425441D01*
X130398210Y-84570431D01*
X130650100Y-84621440D01*
X131300100Y-84621440D01*
X131535417Y-84577162D01*
X131635040Y-84513057D01*
X131719010Y-84570431D01*
X131970900Y-84621440D01*
X132620900Y-84621440D01*
X132756257Y-84595971D01*
X132833001Y-84627838D01*
X133168867Y-84628131D01*
X132981720Y-84815278D01*
X132936233Y-84815238D01*
X132592457Y-84957283D01*
X132329208Y-85220073D01*
X132186562Y-85563601D01*
X132186238Y-85935567D01*
X132328283Y-86279343D01*
X132591073Y-86542592D01*
X132934601Y-86685238D01*
X133306567Y-86685562D01*
X133650343Y-86543517D01*
X133800597Y-86393525D01*
X133826883Y-86457143D01*
X134089673Y-86720392D01*
X134433201Y-86863038D01*
X134805167Y-86863362D01*
X135148943Y-86721317D01*
X135412192Y-86458527D01*
X135554838Y-86114999D01*
X135555162Y-85743033D01*
X135413117Y-85399257D01*
X135380000Y-85366082D01*
X135380000Y-85347559D01*
X143244697Y-85347559D01*
X143511316Y-85992829D01*
X144004575Y-86486949D01*
X144649377Y-86754694D01*
X145347559Y-86755303D01*
X145992829Y-86488684D01*
X146486949Y-85995425D01*
X146754694Y-85350623D01*
X146755303Y-84652441D01*
X146488684Y-84007171D01*
X145995425Y-83513051D01*
X145350623Y-83245306D01*
X144652441Y-83244697D01*
X144007171Y-83511316D01*
X143513051Y-84004575D01*
X143245306Y-84649377D01*
X143244697Y-85347559D01*
X135380000Y-85347559D01*
X135380000Y-84621440D01*
X135808600Y-84621440D01*
X136043917Y-84577162D01*
X136047180Y-84575062D01*
X136276200Y-84621440D01*
X136926200Y-84621440D01*
X137161517Y-84577162D01*
X137182655Y-84563560D01*
X137192710Y-84570431D01*
X137444600Y-84621440D01*
X138094600Y-84621440D01*
X138329917Y-84577162D01*
X138339260Y-84571150D01*
X138587600Y-84621440D01*
X139237600Y-84621440D01*
X139472917Y-84577162D01*
X139689041Y-84438090D01*
X139834031Y-84225890D01*
X139885040Y-83974000D01*
X139885040Y-83399000D01*
X139840762Y-83163683D01*
X139701690Y-82947559D01*
X139489490Y-82802569D01*
X139237600Y-82751560D01*
X138587600Y-82751560D01*
X138421414Y-82782830D01*
X138307001Y-82611599D01*
X138253440Y-82558038D01*
X138253440Y-81590500D01*
X138241000Y-81524387D01*
X138241000Y-80784847D01*
X138282393Y-80743526D01*
X138361471Y-80553085D01*
X138466910Y-80716941D01*
X138679110Y-80861931D01*
X138931000Y-80912940D01*
X139931000Y-80912940D01*
X140166317Y-80868662D01*
X140382441Y-80729590D01*
X140527431Y-80517390D01*
X140578440Y-80265500D01*
X140578440Y-80015500D01*
X140554056Y-79885911D01*
X140578440Y-79765500D01*
X140578440Y-79515500D01*
X140554056Y-79385911D01*
X140578440Y-79265500D01*
X140578440Y-79015500D01*
X140554056Y-78885911D01*
X140578440Y-78765500D01*
X140578440Y-78515500D01*
X140556801Y-78400500D01*
X140755817Y-78400500D01*
X140740162Y-78438201D01*
X140739838Y-78810167D01*
X140881883Y-79153943D01*
X141144673Y-79417192D01*
X141488201Y-79559838D01*
X141860167Y-79560162D01*
X142203943Y-79418117D01*
X142467192Y-79155327D01*
X142609838Y-78811799D01*
X142609842Y-78806648D01*
X142674873Y-78871792D01*
X143018401Y-79014438D01*
X143390367Y-79014762D01*
X143734143Y-78872717D01*
X143997392Y-78609927D01*
X144140038Y-78266399D01*
X144140362Y-77894433D01*
X143998317Y-77550657D01*
X143965200Y-77517482D01*
X143965200Y-77470000D01*
X143955055Y-77419000D01*
X143951376Y-77400500D01*
X144372298Y-77400500D01*
X145061400Y-78089602D01*
G36*
X118394281Y-96054859D02*
X118414969Y-96164805D01*
X118391560Y-96280400D01*
X118391560Y-96540400D01*
X118414969Y-96664805D01*
X118391560Y-96780400D01*
X118391560Y-97040400D01*
X118414969Y-97164805D01*
X118391560Y-97280400D01*
X118391560Y-97540400D01*
X118414969Y-97664805D01*
X118391560Y-97780400D01*
X118391560Y-98040400D01*
X118414969Y-98164805D01*
X118394541Y-98265681D01*
X118284595Y-98286369D01*
X118169000Y-98262960D01*
X117909000Y-98262960D01*
X117784595Y-98286369D01*
X117669000Y-98262960D01*
X117615541Y-98262960D01*
X117583842Y-98242870D01*
X117538500Y-98234500D01*
X116459000Y-98234500D01*
X116459000Y-96057840D01*
X116669000Y-96057840D01*
X116793405Y-96034431D01*
X116909000Y-96057840D01*
X117169000Y-96057840D01*
X117293405Y-96034431D01*
X117409000Y-96057840D01*
X117669000Y-96057840D01*
X117793405Y-96034431D01*
X117909000Y-96057840D01*
X118169000Y-96057840D01*
X118293405Y-96034431D01*
X118394281Y-96054859D01*
X118394281Y-96054859D01*
G37*
X118394281Y-96054859D02*
X118414969Y-96164805D01*
X118391560Y-96280400D01*
X118391560Y-96540400D01*
X118414969Y-96664805D01*
X118391560Y-96780400D01*
X118391560Y-97040400D01*
X118414969Y-97164805D01*
X118391560Y-97280400D01*
X118391560Y-97540400D01*
X118414969Y-97664805D01*
X118391560Y-97780400D01*
X118391560Y-98040400D01*
X118414969Y-98164805D01*
X118394541Y-98265681D01*
X118284595Y-98286369D01*
X118169000Y-98262960D01*
X117909000Y-98262960D01*
X117784595Y-98286369D01*
X117669000Y-98262960D01*
X117615541Y-98262960D01*
X117583842Y-98242870D01*
X117538500Y-98234500D01*
X116459000Y-98234500D01*
X116459000Y-96057840D01*
X116669000Y-96057840D01*
X116793405Y-96034431D01*
X116909000Y-96057840D01*
X117169000Y-96057840D01*
X117293405Y-96034431D01*
X117409000Y-96057840D01*
X117669000Y-96057840D01*
X117793405Y-96034431D01*
X117909000Y-96057840D01*
X118169000Y-96057840D01*
X118293405Y-96034431D01*
X118394281Y-96054859D01*
G36*
X127370300Y-88049100D02*
X127428152Y-88339939D01*
X127592899Y-88586501D01*
X128519999Y-89513601D01*
X128766560Y-89678348D01*
X129057400Y-89736200D01*
X131720198Y-89736200D01*
X133191199Y-91207201D01*
X133432092Y-91368160D01*
X133514510Y-91496241D01*
X133726710Y-91641231D01*
X133978600Y-91692240D01*
X135028600Y-91692240D01*
X135263917Y-91647962D01*
X135480041Y-91508890D01*
X135534081Y-91429800D01*
X137971756Y-91429800D01*
X138014510Y-91496241D01*
X138226710Y-91641231D01*
X138478600Y-91692240D01*
X139528600Y-91692240D01*
X139763917Y-91647962D01*
X139980041Y-91508890D01*
X140032919Y-91431500D01*
X140059331Y-91431500D01*
X140240710Y-91555431D01*
X140492600Y-91606440D01*
X141142600Y-91606440D01*
X141377917Y-91562162D01*
X141403800Y-91545507D01*
X141403800Y-93370198D01*
X140316001Y-92282399D01*
X140075108Y-92121440D01*
X139992690Y-91993359D01*
X139780490Y-91848369D01*
X139528600Y-91797360D01*
X138478600Y-91797360D01*
X138243283Y-91841638D01*
X138188728Y-91876743D01*
X137838433Y-91876438D01*
X137494657Y-92018483D01*
X137461482Y-92051600D01*
X135530167Y-92051600D01*
X135492690Y-91993359D01*
X135280490Y-91848369D01*
X135028600Y-91797360D01*
X133978600Y-91797360D01*
X133743283Y-91841638D01*
X133527159Y-91980710D01*
X133382169Y-92192910D01*
X133331160Y-92444800D01*
X133331160Y-93140000D01*
X132051594Y-93140000D01*
X132051594Y-92511142D01*
X132007316Y-92275825D01*
X131868244Y-92059701D01*
X131656044Y-91914711D01*
X131404154Y-91863702D01*
X130354154Y-91863702D01*
X130118837Y-91907980D01*
X129902713Y-92047052D01*
X129848673Y-92126142D01*
X127410998Y-92126142D01*
X127368244Y-92059701D01*
X127156044Y-91914711D01*
X126904154Y-91863702D01*
X125854154Y-91863702D01*
X125779974Y-91877660D01*
X125677555Y-91775241D01*
X125461907Y-91631150D01*
X125486585Y-91595032D01*
X125537594Y-91343142D01*
X125537594Y-90768142D01*
X125493316Y-90532825D01*
X125354244Y-90316701D01*
X125142044Y-90171711D01*
X124890154Y-90120702D01*
X124466500Y-90120702D01*
X127370300Y-87216902D01*
X127370300Y-88049100D01*
X127370300Y-88049100D01*
G37*
X127370300Y-88049100D02*
X127428152Y-88339939D01*
X127592899Y-88586501D01*
X128519999Y-89513601D01*
X128766560Y-89678348D01*
X129057400Y-89736200D01*
X131720198Y-89736200D01*
X133191199Y-91207201D01*
X133432092Y-91368160D01*
X133514510Y-91496241D01*
X133726710Y-91641231D01*
X133978600Y-91692240D01*
X135028600Y-91692240D01*
X135263917Y-91647962D01*
X135480041Y-91508890D01*
X135534081Y-91429800D01*
X137971756Y-91429800D01*
X138014510Y-91496241D01*
X138226710Y-91641231D01*
X138478600Y-91692240D01*
X139528600Y-91692240D01*
X139763917Y-91647962D01*
X139980041Y-91508890D01*
X140032919Y-91431500D01*
X140059331Y-91431500D01*
X140240710Y-91555431D01*
X140492600Y-91606440D01*
X141142600Y-91606440D01*
X141377917Y-91562162D01*
X141403800Y-91545507D01*
X141403800Y-93370198D01*
X140316001Y-92282399D01*
X140075108Y-92121440D01*
X139992690Y-91993359D01*
X139780490Y-91848369D01*
X139528600Y-91797360D01*
X138478600Y-91797360D01*
X138243283Y-91841638D01*
X138188728Y-91876743D01*
X137838433Y-91876438D01*
X137494657Y-92018483D01*
X137461482Y-92051600D01*
X135530167Y-92051600D01*
X135492690Y-91993359D01*
X135280490Y-91848369D01*
X135028600Y-91797360D01*
X133978600Y-91797360D01*
X133743283Y-91841638D01*
X133527159Y-91980710D01*
X133382169Y-92192910D01*
X133331160Y-92444800D01*
X133331160Y-93140000D01*
X132051594Y-93140000D01*
X132051594Y-92511142D01*
X132007316Y-92275825D01*
X131868244Y-92059701D01*
X131656044Y-91914711D01*
X131404154Y-91863702D01*
X130354154Y-91863702D01*
X130118837Y-91907980D01*
X129902713Y-92047052D01*
X129848673Y-92126142D01*
X127410998Y-92126142D01*
X127368244Y-92059701D01*
X127156044Y-91914711D01*
X126904154Y-91863702D01*
X125854154Y-91863702D01*
X125779974Y-91877660D01*
X125677555Y-91775241D01*
X125461907Y-91631150D01*
X125486585Y-91595032D01*
X125537594Y-91343142D01*
X125537594Y-90768142D01*
X125493316Y-90532825D01*
X125354244Y-90316701D01*
X125142044Y-90171711D01*
X124890154Y-90120702D01*
X124466500Y-90120702D01*
X127370300Y-87216902D01*
X127370300Y-88049100D01*
G36*
X118839569Y-91173510D02*
X118788560Y-91425400D01*
X118788560Y-92000400D01*
X118808067Y-92104071D01*
X118788560Y-92200400D01*
X118788560Y-92233840D01*
X118562000Y-92187960D01*
X117912000Y-92187960D01*
X117701888Y-92227495D01*
X117677090Y-92188959D01*
X117464890Y-92043969D01*
X117213000Y-91992960D01*
X116213000Y-91992960D01*
X115977683Y-92037238D01*
X115822000Y-92137417D01*
X115822000Y-91246802D01*
X115935602Y-91133200D01*
X118867112Y-91133200D01*
X118839569Y-91173510D01*
X118839569Y-91173510D01*
G37*
X118839569Y-91173510D02*
X118788560Y-91425400D01*
X118788560Y-92000400D01*
X118808067Y-92104071D01*
X118788560Y-92200400D01*
X118788560Y-92233840D01*
X118562000Y-92187960D01*
X117912000Y-92187960D01*
X117701888Y-92227495D01*
X117677090Y-92188959D01*
X117464890Y-92043969D01*
X117213000Y-91992960D01*
X116213000Y-91992960D01*
X115977683Y-92037238D01*
X115822000Y-92137417D01*
X115822000Y-91246802D01*
X115935602Y-91133200D01*
X118867112Y-91133200D01*
X118839569Y-91173510D01*
G36*
X189290000Y-80786875D02*
X189244000Y-80777560D01*
X186454000Y-80777560D01*
X186218683Y-80821838D01*
X186002559Y-80960910D01*
X185857569Y-81173110D01*
X185806560Y-81425000D01*
X185806560Y-81465000D01*
X185592600Y-81465000D01*
X185301760Y-81522852D01*
X185055199Y-81687599D01*
X183739599Y-83003199D01*
X183574852Y-83249761D01*
X183517000Y-83540600D01*
X183517000Y-88470200D01*
X181203600Y-88470200D01*
X180912761Y-88528052D01*
X180666199Y-88692799D01*
X179423600Y-89935398D01*
X179423600Y-85455602D01*
X182985601Y-81893601D01*
X183150348Y-81647039D01*
X183208200Y-81356200D01*
X183208200Y-73549700D01*
X183150348Y-73258861D01*
X182985601Y-73012299D01*
X182460901Y-72487599D01*
X182214339Y-72322852D01*
X182112870Y-72302668D01*
X181925390Y-72174569D01*
X181673500Y-72123560D01*
X180530500Y-72123560D01*
X180439600Y-72140664D01*
X180439600Y-71368032D01*
X180530500Y-71386440D01*
X181673500Y-71386440D01*
X181908817Y-71342162D01*
X182013995Y-71274482D01*
X182207110Y-71406431D01*
X182459000Y-71457440D01*
X183034000Y-71457440D01*
X183269317Y-71413162D01*
X183485441Y-71274090D01*
X183630431Y-71061890D01*
X183681440Y-70810000D01*
X183681440Y-70160000D01*
X183637162Y-69924683D01*
X183498090Y-69708559D01*
X183285890Y-69563569D01*
X183034000Y-69512560D01*
X182459000Y-69512560D01*
X182223683Y-69556838D01*
X182011476Y-69693389D01*
X181925390Y-69634569D01*
X181673500Y-69583560D01*
X180530500Y-69583560D01*
X180295183Y-69627838D01*
X180144189Y-69725000D01*
X179959000Y-69725000D01*
X179668160Y-69782852D01*
X179421599Y-69947599D01*
X179142199Y-70226999D01*
X178977452Y-70473561D01*
X178919600Y-70764400D01*
X178919600Y-75946600D01*
X178736727Y-75763408D01*
X178393199Y-75620762D01*
X178021233Y-75620438D01*
X177677457Y-75762483D01*
X177414208Y-76025273D01*
X177271562Y-76368801D01*
X177271238Y-76740767D01*
X177413283Y-77084543D01*
X177446400Y-77117718D01*
X177446400Y-78450598D01*
X175926440Y-79970558D01*
X175926440Y-78792000D01*
X175882162Y-78556683D01*
X175743090Y-78340559D01*
X175661555Y-78284848D01*
X175661762Y-78046833D01*
X175612650Y-77927972D01*
X175648031Y-77876190D01*
X175699040Y-77624300D01*
X175699040Y-77049300D01*
X175679533Y-76945629D01*
X175699040Y-76849300D01*
X175699040Y-76274300D01*
X175654762Y-76038983D01*
X175515690Y-75822859D01*
X175303490Y-75677869D01*
X175051600Y-75626860D01*
X174401600Y-75626860D01*
X174166283Y-75671138D01*
X173963229Y-75801800D01*
X172995669Y-75801800D01*
X172814290Y-75677869D01*
X172562400Y-75626860D01*
X171912400Y-75626860D01*
X171677083Y-75671138D01*
X171474029Y-75801800D01*
X170481069Y-75801800D01*
X170299690Y-75677869D01*
X170047800Y-75626860D01*
X169397800Y-75626860D01*
X169162483Y-75671138D01*
X168984200Y-75785860D01*
X168984200Y-69599200D01*
X168926348Y-69308361D01*
X168919051Y-69297440D01*
X169225000Y-69297440D01*
X169460317Y-69253162D01*
X169676441Y-69114090D01*
X169821431Y-68901890D01*
X169872440Y-68650000D01*
X169872440Y-68350000D01*
X169828162Y-68114683D01*
X169754380Y-68000022D01*
X169813313Y-67913771D01*
X169815401Y-67914638D01*
X170187367Y-67914962D01*
X170531143Y-67772917D01*
X170794392Y-67510127D01*
X170937038Y-67166599D01*
X170937362Y-66794633D01*
X170795317Y-66450857D01*
X170532527Y-66187608D01*
X170188999Y-66044962D01*
X170142123Y-66044921D01*
X169644770Y-65547568D01*
X169644770Y-65343599D01*
X183264699Y-65343599D01*
X183528281Y-65981515D01*
X184015918Y-66470004D01*
X184653373Y-66734699D01*
X185343599Y-66735301D01*
X185981515Y-66471719D01*
X186470004Y-65984082D01*
X186734699Y-65346627D01*
X186735301Y-64656401D01*
X186471719Y-64018485D01*
X185984082Y-63529996D01*
X185346627Y-63265301D01*
X184656401Y-63264699D01*
X184018485Y-63528281D01*
X183529996Y-64015918D01*
X183265301Y-64653373D01*
X183264699Y-65343599D01*
X169644770Y-65343599D01*
X169644770Y-64251860D01*
X169600492Y-64016543D01*
X169461420Y-63800419D01*
X169249220Y-63655429D01*
X168997330Y-63604420D01*
X168598550Y-63604420D01*
X168468204Y-63628946D01*
X168347090Y-63604420D01*
X167948310Y-63604420D01*
X167819281Y-63628699D01*
X167699390Y-63604420D01*
X167300610Y-63604420D01*
X167171581Y-63628699D01*
X167051690Y-63604420D01*
X166652910Y-63604420D01*
X166417593Y-63648698D01*
X166201469Y-63787770D01*
X166056479Y-63999970D01*
X166005470Y-64251860D01*
X166005470Y-65598060D01*
X166049748Y-65833377D01*
X166188820Y-66049501D01*
X166401020Y-66194491D01*
X166652910Y-66245500D01*
X166778410Y-66245500D01*
X166797852Y-66343239D01*
X166962599Y-66589801D01*
X167106974Y-66734176D01*
X167076024Y-66740000D01*
X166333946Y-66740000D01*
X166318090Y-66715359D01*
X166105890Y-66570369D01*
X165854000Y-66519360D01*
X164854000Y-66519360D01*
X164618683Y-66563638D01*
X164402559Y-66702710D01*
X164257569Y-66914910D01*
X164206560Y-67166800D01*
X164206560Y-67836800D01*
X164250838Y-68072117D01*
X164389910Y-68288241D01*
X164520008Y-68377133D01*
X164402559Y-68452710D01*
X164257569Y-68664910D01*
X164206560Y-68916800D01*
X164206560Y-69586800D01*
X164250838Y-69822117D01*
X164389910Y-70038241D01*
X164602110Y-70183231D01*
X164702594Y-70203579D01*
X164816599Y-70374201D01*
X165465381Y-71022983D01*
X165465381Y-76633579D01*
X161624201Y-72792399D01*
X161377639Y-72627652D01*
X161258191Y-72603892D01*
X161302496Y-72575383D01*
X161447486Y-72363183D01*
X161498495Y-72111293D01*
X161498495Y-71461293D01*
X161454217Y-71225976D01*
X161315145Y-71009852D01*
X161162684Y-70905680D01*
X161173495Y-70852293D01*
X161173495Y-69952293D01*
X161164970Y-69906987D01*
X161376055Y-69949733D01*
X162376055Y-69949733D01*
X162611372Y-69905455D01*
X162827496Y-69766383D01*
X162972486Y-69554183D01*
X163023495Y-69302293D01*
X163023495Y-68402293D01*
X162979217Y-68166976D01*
X162840145Y-67950852D01*
X162634200Y-67810136D01*
X162634200Y-67614800D01*
X162576348Y-67323961D01*
X162411601Y-67077399D01*
X162259201Y-66924999D01*
X162229837Y-66905379D01*
X162229217Y-66902083D01*
X162090145Y-66685959D01*
X162067835Y-66670715D01*
X162048119Y-66571599D01*
X162040703Y-66534315D01*
X161875956Y-66287754D01*
X161522601Y-65934399D01*
X161276039Y-65769652D01*
X160985200Y-65711800D01*
X159308800Y-65711800D01*
X159017961Y-65769652D01*
X158771399Y-65934399D01*
X158237999Y-66467799D01*
X158073252Y-66714361D01*
X158015400Y-67005200D01*
X158015400Y-68696998D01*
X157863398Y-68849000D01*
X157805366Y-68849000D01*
X157805562Y-68623433D01*
X157663517Y-68279657D01*
X157630400Y-68246482D01*
X157630400Y-64846200D01*
X157607915Y-64733161D01*
X157572548Y-64555360D01*
X157407801Y-64308799D01*
X156163201Y-63064199D01*
X155916639Y-62899452D01*
X155625800Y-62841600D01*
X151844865Y-62841600D01*
X151812729Y-62809408D01*
X151647440Y-62740774D01*
X151647440Y-60710000D01*
X189290000Y-60710000D01*
X189290000Y-80786875D01*
X189290000Y-80786875D01*
G37*
X189290000Y-80786875D02*
X189244000Y-80777560D01*
X186454000Y-80777560D01*
X186218683Y-80821838D01*
X186002559Y-80960910D01*
X185857569Y-81173110D01*
X185806560Y-81425000D01*
X185806560Y-81465000D01*
X185592600Y-81465000D01*
X185301760Y-81522852D01*
X185055199Y-81687599D01*
X183739599Y-83003199D01*
X183574852Y-83249761D01*
X183517000Y-83540600D01*
X183517000Y-88470200D01*
X181203600Y-88470200D01*
X180912761Y-88528052D01*
X180666199Y-88692799D01*
X179423600Y-89935398D01*
X179423600Y-85455602D01*
X182985601Y-81893601D01*
X183150348Y-81647039D01*
X183208200Y-81356200D01*
X183208200Y-73549700D01*
X183150348Y-73258861D01*
X182985601Y-73012299D01*
X182460901Y-72487599D01*
X182214339Y-72322852D01*
X182112870Y-72302668D01*
X181925390Y-72174569D01*
X181673500Y-72123560D01*
X180530500Y-72123560D01*
X180439600Y-72140664D01*
X180439600Y-71368032D01*
X180530500Y-71386440D01*
X181673500Y-71386440D01*
X181908817Y-71342162D01*
X182013995Y-71274482D01*
X182207110Y-71406431D01*
X182459000Y-71457440D01*
X183034000Y-71457440D01*
X183269317Y-71413162D01*
X183485441Y-71274090D01*
X183630431Y-71061890D01*
X183681440Y-70810000D01*
X183681440Y-70160000D01*
X183637162Y-69924683D01*
X183498090Y-69708559D01*
X183285890Y-69563569D01*
X183034000Y-69512560D01*
X182459000Y-69512560D01*
X182223683Y-69556838D01*
X182011476Y-69693389D01*
X181925390Y-69634569D01*
X181673500Y-69583560D01*
X180530500Y-69583560D01*
X180295183Y-69627838D01*
X180144189Y-69725000D01*
X179959000Y-69725000D01*
X179668160Y-69782852D01*
X179421599Y-69947599D01*
X179142199Y-70226999D01*
X178977452Y-70473561D01*
X178919600Y-70764400D01*
X178919600Y-75946600D01*
X178736727Y-75763408D01*
X178393199Y-75620762D01*
X178021233Y-75620438D01*
X177677457Y-75762483D01*
X177414208Y-76025273D01*
X177271562Y-76368801D01*
X177271238Y-76740767D01*
X177413283Y-77084543D01*
X177446400Y-77117718D01*
X177446400Y-78450598D01*
X175926440Y-79970558D01*
X175926440Y-78792000D01*
X175882162Y-78556683D01*
X175743090Y-78340559D01*
X175661555Y-78284848D01*
X175661762Y-78046833D01*
X175612650Y-77927972D01*
X175648031Y-77876190D01*
X175699040Y-77624300D01*
X175699040Y-77049300D01*
X175679533Y-76945629D01*
X175699040Y-76849300D01*
X175699040Y-76274300D01*
X175654762Y-76038983D01*
X175515690Y-75822859D01*
X175303490Y-75677869D01*
X175051600Y-75626860D01*
X174401600Y-75626860D01*
X174166283Y-75671138D01*
X173963229Y-75801800D01*
X172995669Y-75801800D01*
X172814290Y-75677869D01*
X172562400Y-75626860D01*
X171912400Y-75626860D01*
X171677083Y-75671138D01*
X171474029Y-75801800D01*
X170481069Y-75801800D01*
X170299690Y-75677869D01*
X170047800Y-75626860D01*
X169397800Y-75626860D01*
X169162483Y-75671138D01*
X168984200Y-75785860D01*
X168984200Y-69599200D01*
X168926348Y-69308361D01*
X168919051Y-69297440D01*
X169225000Y-69297440D01*
X169460317Y-69253162D01*
X169676441Y-69114090D01*
X169821431Y-68901890D01*
X169872440Y-68650000D01*
X169872440Y-68350000D01*
X169828162Y-68114683D01*
X169754380Y-68000022D01*
X169813313Y-67913771D01*
X169815401Y-67914638D01*
X170187367Y-67914962D01*
X170531143Y-67772917D01*
X170794392Y-67510127D01*
X170937038Y-67166599D01*
X170937362Y-66794633D01*
X170795317Y-66450857D01*
X170532527Y-66187608D01*
X170188999Y-66044962D01*
X170142123Y-66044921D01*
X169644770Y-65547568D01*
X169644770Y-65343599D01*
X183264699Y-65343599D01*
X183528281Y-65981515D01*
X184015918Y-66470004D01*
X184653373Y-66734699D01*
X185343599Y-66735301D01*
X185981515Y-66471719D01*
X186470004Y-65984082D01*
X186734699Y-65346627D01*
X186735301Y-64656401D01*
X186471719Y-64018485D01*
X185984082Y-63529996D01*
X185346627Y-63265301D01*
X184656401Y-63264699D01*
X184018485Y-63528281D01*
X183529996Y-64015918D01*
X183265301Y-64653373D01*
X183264699Y-65343599D01*
X169644770Y-65343599D01*
X169644770Y-64251860D01*
X169600492Y-64016543D01*
X169461420Y-63800419D01*
X169249220Y-63655429D01*
X168997330Y-63604420D01*
X168598550Y-63604420D01*
X168468204Y-63628946D01*
X168347090Y-63604420D01*
X167948310Y-63604420D01*
X167819281Y-63628699D01*
X167699390Y-63604420D01*
X167300610Y-63604420D01*
X167171581Y-63628699D01*
X167051690Y-63604420D01*
X166652910Y-63604420D01*
X166417593Y-63648698D01*
X166201469Y-63787770D01*
X166056479Y-63999970D01*
X166005470Y-64251860D01*
X166005470Y-65598060D01*
X166049748Y-65833377D01*
X166188820Y-66049501D01*
X166401020Y-66194491D01*
X166652910Y-66245500D01*
X166778410Y-66245500D01*
X166797852Y-66343239D01*
X166962599Y-66589801D01*
X167106974Y-66734176D01*
X167076024Y-66740000D01*
X166333946Y-66740000D01*
X166318090Y-66715359D01*
X166105890Y-66570369D01*
X165854000Y-66519360D01*
X164854000Y-66519360D01*
X164618683Y-66563638D01*
X164402559Y-66702710D01*
X164257569Y-66914910D01*
X164206560Y-67166800D01*
X164206560Y-67836800D01*
X164250838Y-68072117D01*
X164389910Y-68288241D01*
X164520008Y-68377133D01*
X164402559Y-68452710D01*
X164257569Y-68664910D01*
X164206560Y-68916800D01*
X164206560Y-69586800D01*
X164250838Y-69822117D01*
X164389910Y-70038241D01*
X164602110Y-70183231D01*
X164702594Y-70203579D01*
X164816599Y-70374201D01*
X165465381Y-71022983D01*
X165465381Y-76633579D01*
X161624201Y-72792399D01*
X161377639Y-72627652D01*
X161258191Y-72603892D01*
X161302496Y-72575383D01*
X161447486Y-72363183D01*
X161498495Y-72111293D01*
X161498495Y-71461293D01*
X161454217Y-71225976D01*
X161315145Y-71009852D01*
X161162684Y-70905680D01*
X161173495Y-70852293D01*
X161173495Y-69952293D01*
X161164970Y-69906987D01*
X161376055Y-69949733D01*
X162376055Y-69949733D01*
X162611372Y-69905455D01*
X162827496Y-69766383D01*
X162972486Y-69554183D01*
X163023495Y-69302293D01*
X163023495Y-68402293D01*
X162979217Y-68166976D01*
X162840145Y-67950852D01*
X162634200Y-67810136D01*
X162634200Y-67614800D01*
X162576348Y-67323961D01*
X162411601Y-67077399D01*
X162259201Y-66924999D01*
X162229837Y-66905379D01*
X162229217Y-66902083D01*
X162090145Y-66685959D01*
X162067835Y-66670715D01*
X162048119Y-66571599D01*
X162040703Y-66534315D01*
X161875956Y-66287754D01*
X161522601Y-65934399D01*
X161276039Y-65769652D01*
X160985200Y-65711800D01*
X159308800Y-65711800D01*
X159017961Y-65769652D01*
X158771399Y-65934399D01*
X158237999Y-66467799D01*
X158073252Y-66714361D01*
X158015400Y-67005200D01*
X158015400Y-68696998D01*
X157863398Y-68849000D01*
X157805366Y-68849000D01*
X157805562Y-68623433D01*
X157663517Y-68279657D01*
X157630400Y-68246482D01*
X157630400Y-64846200D01*
X157607915Y-64733161D01*
X157572548Y-64555360D01*
X157407801Y-64308799D01*
X156163201Y-63064199D01*
X155916639Y-62899452D01*
X155625800Y-62841600D01*
X151844865Y-62841600D01*
X151812729Y-62809408D01*
X151647440Y-62740774D01*
X151647440Y-60710000D01*
X189290000Y-60710000D01*
X189290000Y-80786875D01*
G36*
X185850838Y-83260317D02*
X185989910Y-83476441D01*
X186202110Y-83621431D01*
X186454000Y-83672440D01*
X189244000Y-83672440D01*
X189290000Y-83663784D01*
X189290000Y-87786875D01*
X189244000Y-87777560D01*
X186454000Y-87777560D01*
X186218683Y-87821838D01*
X186002559Y-87960910D01*
X185857569Y-88173110D01*
X185806560Y-88425000D01*
X185806560Y-88465000D01*
X185037000Y-88465000D01*
X185037000Y-83855402D01*
X185816195Y-83076207D01*
X185850838Y-83260317D01*
X185850838Y-83260317D01*
G37*
X185850838Y-83260317D02*
X185989910Y-83476441D01*
X186202110Y-83621431D01*
X186454000Y-83672440D01*
X189244000Y-83672440D01*
X189290000Y-83663784D01*
X189290000Y-87786875D01*
X189244000Y-87777560D01*
X186454000Y-87777560D01*
X186218683Y-87821838D01*
X186002559Y-87960910D01*
X185857569Y-88173110D01*
X185806560Y-88425000D01*
X185806560Y-88465000D01*
X185037000Y-88465000D01*
X185037000Y-83855402D01*
X185816195Y-83076207D01*
X185850838Y-83260317D01*
G36*
X120164631Y-83272779D02*
X120208909Y-83508096D01*
X120228727Y-83538893D01*
X120228409Y-83903567D01*
X120304959Y-84088833D01*
X120279640Y-84125889D01*
X120228631Y-84377779D01*
X120228631Y-85027779D01*
X120258480Y-85186410D01*
X117483928Y-85186410D01*
X117193088Y-85244262D01*
X116946527Y-85409009D01*
X116786943Y-85568593D01*
X116739161Y-85494338D01*
X116526961Y-85349348D01*
X116275071Y-85298339D01*
X115625071Y-85298339D01*
X115459511Y-85329491D01*
X115459511Y-84955643D01*
X115489343Y-84943317D01*
X115752592Y-84680527D01*
X115895238Y-84336999D01*
X115895562Y-83965033D01*
X115753517Y-83621257D01*
X115530237Y-83397587D01*
X115555511Y-83272779D01*
X115555511Y-82550000D01*
X120164631Y-82550000D01*
X120164631Y-83272779D01*
X120164631Y-83272779D01*
G37*
X120164631Y-83272779D02*
X120208909Y-83508096D01*
X120228727Y-83538893D01*
X120228409Y-83903567D01*
X120304959Y-84088833D01*
X120279640Y-84125889D01*
X120228631Y-84377779D01*
X120228631Y-85027779D01*
X120258480Y-85186410D01*
X117483928Y-85186410D01*
X117193088Y-85244262D01*
X116946527Y-85409009D01*
X116786943Y-85568593D01*
X116739161Y-85494338D01*
X116526961Y-85349348D01*
X116275071Y-85298339D01*
X115625071Y-85298339D01*
X115459511Y-85329491D01*
X115459511Y-84955643D01*
X115489343Y-84943317D01*
X115752592Y-84680527D01*
X115895238Y-84336999D01*
X115895562Y-83965033D01*
X115753517Y-83621257D01*
X115530237Y-83397587D01*
X115555511Y-83272779D01*
X115555511Y-82550000D01*
X120164631Y-82550000D01*
X120164631Y-83272779D01*
G36*
X131193000Y-77216000D02*
X131250852Y-77506839D01*
X131415599Y-77753401D01*
X132317299Y-78655101D01*
X132563860Y-78819848D01*
X132854700Y-78877700D01*
X136730201Y-78877700D01*
X136730201Y-79453199D01*
X131800601Y-79453199D01*
X131509762Y-79511051D01*
X131263200Y-79675798D01*
X130443599Y-80495399D01*
X130350800Y-80634283D01*
X130350800Y-77416502D01*
X130949680Y-76817622D01*
X130995167Y-76817662D01*
X131193000Y-76735919D01*
X131193000Y-77216000D01*
X131193000Y-77216000D01*
G37*
X131193000Y-77216000D02*
X131250852Y-77506839D01*
X131415599Y-77753401D01*
X132317299Y-78655101D01*
X132563860Y-78819848D01*
X132854700Y-78877700D01*
X136730201Y-78877700D01*
X136730201Y-79453199D01*
X131800601Y-79453199D01*
X131509762Y-79511051D01*
X131263200Y-79675798D01*
X130443599Y-80495399D01*
X130350800Y-80634283D01*
X130350800Y-77416502D01*
X130949680Y-76817622D01*
X130995167Y-76817662D01*
X131193000Y-76735919D01*
X131193000Y-77216000D01*
G36*
X152605500Y-78106440D02*
X152794723Y-78106440D01*
X152746640Y-78343880D01*
X152746640Y-78993880D01*
X152790918Y-79229197D01*
X152929990Y-79445321D01*
X152988095Y-79485023D01*
X152755758Y-79717360D01*
X152038940Y-79717360D01*
X152038940Y-79284500D01*
X152019433Y-79180829D01*
X152038940Y-79084500D01*
X152038940Y-78509500D01*
X151994662Y-78274183D01*
X151937683Y-78185635D01*
X151982648Y-78118339D01*
X151985015Y-78106440D01*
X152355500Y-78106440D01*
X152485089Y-78082056D01*
X152605500Y-78106440D01*
X152605500Y-78106440D01*
G37*
X152605500Y-78106440D02*
X152794723Y-78106440D01*
X152746640Y-78343880D01*
X152746640Y-78993880D01*
X152790918Y-79229197D01*
X152929990Y-79445321D01*
X152988095Y-79485023D01*
X152755758Y-79717360D01*
X152038940Y-79717360D01*
X152038940Y-79284500D01*
X152019433Y-79180829D01*
X152038940Y-79084500D01*
X152038940Y-78509500D01*
X151994662Y-78274183D01*
X151937683Y-78185635D01*
X151982648Y-78118339D01*
X151985015Y-78106440D01*
X152355500Y-78106440D01*
X152485089Y-78082056D01*
X152605500Y-78106440D01*
G36*
X122981000Y-74974640D02*
X123881000Y-74974640D01*
X123926306Y-74966115D01*
X123883560Y-75177200D01*
X123883560Y-76177200D01*
X123927838Y-76412517D01*
X124066910Y-76628641D01*
X124160633Y-76692679D01*
X123981559Y-76807910D01*
X123836569Y-77020110D01*
X123785560Y-77272000D01*
X123785560Y-77922000D01*
X123829838Y-78157317D01*
X123968910Y-78373441D01*
X124181110Y-78518431D01*
X124433000Y-78569440D01*
X125008000Y-78569440D01*
X125243317Y-78525162D01*
X125459441Y-78386090D01*
X125479317Y-78357000D01*
X125563560Y-78357000D01*
X125563560Y-78716600D01*
X124157900Y-78716600D01*
X123867061Y-78774452D01*
X123620499Y-78939199D01*
X123444000Y-79115698D01*
X123444000Y-75946000D01*
X123433994Y-75896590D01*
X123405553Y-75854965D01*
X123363159Y-75827685D01*
X123317000Y-75819000D01*
X121412440Y-75819000D01*
X121412440Y-75252383D01*
X121645800Y-75299640D01*
X122295800Y-75299640D01*
X122531117Y-75255362D01*
X122747241Y-75116290D01*
X122860675Y-74950274D01*
X122981000Y-74974640D01*
X122981000Y-74974640D01*
G37*
X122981000Y-74974640D02*
X123881000Y-74974640D01*
X123926306Y-74966115D01*
X123883560Y-75177200D01*
X123883560Y-76177200D01*
X123927838Y-76412517D01*
X124066910Y-76628641D01*
X124160633Y-76692679D01*
X123981559Y-76807910D01*
X123836569Y-77020110D01*
X123785560Y-77272000D01*
X123785560Y-77922000D01*
X123829838Y-78157317D01*
X123968910Y-78373441D01*
X124181110Y-78518431D01*
X124433000Y-78569440D01*
X125008000Y-78569440D01*
X125243317Y-78525162D01*
X125459441Y-78386090D01*
X125479317Y-78357000D01*
X125563560Y-78357000D01*
X125563560Y-78716600D01*
X124157900Y-78716600D01*
X123867061Y-78774452D01*
X123620499Y-78939199D01*
X123444000Y-79115698D01*
X123444000Y-75946000D01*
X123433994Y-75896590D01*
X123405553Y-75854965D01*
X123363159Y-75827685D01*
X123317000Y-75819000D01*
X121412440Y-75819000D01*
X121412440Y-75252383D01*
X121645800Y-75299640D01*
X122295800Y-75299640D01*
X122531117Y-75255362D01*
X122747241Y-75116290D01*
X122860675Y-74950274D01*
X122981000Y-74974640D01*
G36*
X126883560Y-76265500D02*
X126907944Y-76395089D01*
X126883560Y-76515500D01*
X126883560Y-76765500D01*
X126907944Y-76895089D01*
X126883560Y-77015500D01*
X126883560Y-77265500D01*
X126907944Y-77395089D01*
X126907447Y-77397545D01*
X126569501Y-77059599D01*
X126322939Y-76894852D01*
X126032100Y-76837000D01*
X125482669Y-76837000D01*
X125472090Y-76820559D01*
X125467901Y-76817697D01*
X125666317Y-76780362D01*
X125882441Y-76641290D01*
X126020455Y-76439300D01*
X126250700Y-76439300D01*
X126541539Y-76381448D01*
X126788101Y-76216701D01*
X126883560Y-76121242D01*
X126883560Y-76265500D01*
X126883560Y-76265500D01*
G37*
X126883560Y-76265500D02*
X126907944Y-76395089D01*
X126883560Y-76515500D01*
X126883560Y-76765500D01*
X126907944Y-76895089D01*
X126883560Y-77015500D01*
X126883560Y-77265500D01*
X126907944Y-77395089D01*
X126907447Y-77397545D01*
X126569501Y-77059599D01*
X126322939Y-76894852D01*
X126032100Y-76837000D01*
X125482669Y-76837000D01*
X125472090Y-76820559D01*
X125467901Y-76817697D01*
X125666317Y-76780362D01*
X125882441Y-76641290D01*
X126020455Y-76439300D01*
X126250700Y-76439300D01*
X126541539Y-76381448D01*
X126788101Y-76216701D01*
X126883560Y-76121242D01*
X126883560Y-76265500D01*
G36*
X138377560Y-63024000D02*
X138421838Y-63259317D01*
X138560910Y-63475441D01*
X138773110Y-63620431D01*
X139025000Y-63671440D01*
X140525000Y-63671440D01*
X140760317Y-63627162D01*
X140976441Y-63488090D01*
X141121431Y-63275890D01*
X141172440Y-63024000D01*
X141172440Y-60710000D01*
X148802560Y-60710000D01*
X148802560Y-62841600D01*
X148447400Y-62841600D01*
X148204814Y-62889854D01*
X148156560Y-62899452D01*
X147909999Y-63064199D01*
X147587599Y-63386599D01*
X147449620Y-63593100D01*
X147426890Y-63577569D01*
X147175000Y-63526560D01*
X146575000Y-63526560D01*
X146339683Y-63570838D01*
X146250772Y-63628051D01*
X146176890Y-63577569D01*
X145925000Y-63526560D01*
X145325000Y-63526560D01*
X145089683Y-63570838D01*
X145000772Y-63628051D01*
X144926890Y-63577569D01*
X144675000Y-63526560D01*
X144075000Y-63526560D01*
X143839683Y-63570838D01*
X143750772Y-63628051D01*
X143676890Y-63577569D01*
X143425000Y-63526560D01*
X142825000Y-63526560D01*
X142589683Y-63570838D01*
X142373559Y-63709910D01*
X142228569Y-63922110D01*
X142177560Y-64174000D01*
X142177560Y-65874000D01*
X142221838Y-66109317D01*
X142360910Y-66325441D01*
X142365000Y-66328236D01*
X142365000Y-68499800D01*
X142422852Y-68790639D01*
X142587599Y-69037201D01*
X143791400Y-70241002D01*
X143791400Y-70532137D01*
X143759208Y-70564273D01*
X143616562Y-70907801D01*
X143616238Y-71279767D01*
X143758283Y-71623543D01*
X144021073Y-71886792D01*
X144364601Y-72029438D01*
X144736567Y-72029762D01*
X145080343Y-71887717D01*
X145183060Y-71785179D01*
X145183060Y-72223121D01*
X145018120Y-72189720D01*
X144443120Y-72189720D01*
X144207803Y-72233998D01*
X143991679Y-72373070D01*
X143846689Y-72585270D01*
X143795680Y-72837160D01*
X143795680Y-73439400D01*
X143668120Y-73439400D01*
X143432803Y-73483678D01*
X143216679Y-73622750D01*
X143071689Y-73834950D01*
X143020680Y-74086840D01*
X143020680Y-74736840D01*
X143064958Y-74972157D01*
X143195620Y-75175211D01*
X143195620Y-75382419D01*
X143162308Y-75415673D01*
X143019662Y-75759201D01*
X143019556Y-75880500D01*
X140555152Y-75880500D01*
X140578440Y-75765500D01*
X140578440Y-75515500D01*
X140554056Y-75385911D01*
X140578440Y-75265500D01*
X140578440Y-75015500D01*
X140554056Y-74885911D01*
X140578440Y-74765500D01*
X140578440Y-74515500D01*
X140554056Y-74385911D01*
X140560313Y-74355013D01*
X140676000Y-74378440D01*
X141251000Y-74378440D01*
X141486317Y-74334162D01*
X141702441Y-74195090D01*
X141847431Y-73982890D01*
X141898440Y-73731000D01*
X141898440Y-73081000D01*
X141854162Y-72845683D01*
X141848150Y-72836340D01*
X141898440Y-72588000D01*
X141898440Y-71938000D01*
X141854162Y-71702683D01*
X141848150Y-71693340D01*
X141898440Y-71445000D01*
X141898440Y-70795000D01*
X141854162Y-70559683D01*
X141715090Y-70343559D01*
X141502890Y-70198569D01*
X141251000Y-70147560D01*
X140676000Y-70147560D01*
X140440683Y-70191838D01*
X140224559Y-70330910D01*
X140079569Y-70543110D01*
X140028560Y-70795000D01*
X140028560Y-71445000D01*
X140066688Y-71647630D01*
X139949999Y-71725599D01*
X139807538Y-71868060D01*
X138931000Y-71868060D01*
X138864887Y-71880500D01*
X137696900Y-71880500D01*
X137406061Y-71938352D01*
X137159499Y-72103099D01*
X136927399Y-72335199D01*
X136762652Y-72581761D01*
X136739769Y-72696800D01*
X135714175Y-72696800D01*
X136012543Y-72573517D01*
X136275792Y-72310727D01*
X136418438Y-71967199D01*
X136418551Y-71837940D01*
X136606000Y-71837940D01*
X136735589Y-71813556D01*
X136856000Y-71837940D01*
X137106000Y-71837940D01*
X137235589Y-71813556D01*
X137356000Y-71837940D01*
X137606000Y-71837940D01*
X137841317Y-71793662D01*
X138057441Y-71654590D01*
X138202431Y-71442390D01*
X138253440Y-71190500D01*
X138253440Y-70190500D01*
X138209162Y-69955183D01*
X138070090Y-69739059D01*
X137857890Y-69594069D01*
X137606000Y-69543060D01*
X137356000Y-69543060D01*
X137241000Y-69564699D01*
X137241000Y-68780071D01*
X137266388Y-68754727D01*
X137409034Y-68411199D01*
X137409358Y-68039233D01*
X137267313Y-67695457D01*
X137004523Y-67432208D01*
X136660995Y-67289562D01*
X136289029Y-67289238D01*
X135945253Y-67431283D01*
X135821620Y-67554700D01*
X135821862Y-67277233D01*
X135679817Y-66933457D01*
X135646700Y-66900282D01*
X135646700Y-66382900D01*
X135615610Y-66226600D01*
X135588848Y-66092060D01*
X135424101Y-65845499D01*
X134573201Y-64994599D01*
X134326639Y-64829852D01*
X134035800Y-64772000D01*
X133433059Y-64772000D01*
X133231765Y-64570355D01*
X132814756Y-64397197D01*
X132363225Y-64396803D01*
X131945914Y-64569233D01*
X131742793Y-64772000D01*
X130952240Y-64772000D01*
X130661401Y-64829852D01*
X130414839Y-64994599D01*
X129225198Y-66184240D01*
X125159623Y-66184240D01*
X125127487Y-66152048D01*
X124783959Y-66009402D01*
X124737083Y-66009361D01*
X124557940Y-65830218D01*
X124557940Y-65802376D01*
X124593761Y-65749950D01*
X124644770Y-65498060D01*
X124644770Y-64151860D01*
X124600492Y-63916543D01*
X124461420Y-63700419D01*
X124249220Y-63555429D01*
X123997330Y-63504420D01*
X123598550Y-63504420D01*
X123468204Y-63528946D01*
X123347090Y-63504420D01*
X122948310Y-63504420D01*
X122819281Y-63528699D01*
X122699390Y-63504420D01*
X122300610Y-63504420D01*
X122171581Y-63528699D01*
X122051690Y-63504420D01*
X121652910Y-63504420D01*
X121417593Y-63548698D01*
X121201469Y-63687770D01*
X121056479Y-63899970D01*
X121005470Y-64151860D01*
X121005470Y-65498060D01*
X121040909Y-65686400D01*
X120630763Y-65686400D01*
X120339924Y-65744252D01*
X120093362Y-65908999D01*
X119713462Y-66288899D01*
X119667975Y-66288859D01*
X119324199Y-66430904D01*
X119060950Y-66693694D01*
X118918304Y-67037222D01*
X118918228Y-67124075D01*
X118841438Y-67108800D01*
X114528600Y-67108800D01*
X114237760Y-67166652D01*
X113991199Y-67331399D01*
X113205599Y-68116999D01*
X113183415Y-68150200D01*
X108991400Y-68150200D01*
X108700561Y-68208052D01*
X108453999Y-68372799D01*
X107914099Y-68912699D01*
X107749352Y-69159261D01*
X107691500Y-69450100D01*
X107691500Y-69598000D01*
X107670600Y-69598000D01*
X107379761Y-69655852D01*
X107133199Y-69820599D01*
X106457599Y-70496199D01*
X106292852Y-70742761D01*
X106235000Y-71033600D01*
X106235000Y-72078373D01*
X106058559Y-72191910D01*
X105913569Y-72404110D01*
X105862560Y-72656000D01*
X105862560Y-74156000D01*
X105906838Y-74391317D01*
X106045910Y-74607441D01*
X106258110Y-74752431D01*
X106510000Y-74803440D01*
X107480000Y-74803440D01*
X107715317Y-74759162D01*
X107931441Y-74620090D01*
X108076431Y-74407890D01*
X108127440Y-74156000D01*
X108127440Y-72656000D01*
X108083162Y-72420683D01*
X107944090Y-72204559D01*
X107755000Y-72075359D01*
X107755000Y-71348402D01*
X107859748Y-71243654D01*
X107912110Y-71279431D01*
X108164000Y-71330440D01*
X108291560Y-71330440D01*
X108291560Y-71953000D01*
X108335838Y-72188317D01*
X108474910Y-72404441D01*
X108687110Y-72549431D01*
X108939000Y-72600440D01*
X109514000Y-72600440D01*
X109749317Y-72556162D01*
X109752058Y-72554398D01*
X109764838Y-72622317D01*
X109903910Y-72838441D01*
X110033000Y-72926644D01*
X110033000Y-73251800D01*
X110090852Y-73542639D01*
X110255599Y-73789201D01*
X110485999Y-74019601D01*
X110732561Y-74184348D01*
X111023400Y-74242200D01*
X111558800Y-74242200D01*
X111558800Y-74777600D01*
X111616652Y-75068439D01*
X111781399Y-75315001D01*
X112060799Y-75594401D01*
X112307360Y-75759148D01*
X112321493Y-75761959D01*
X112332226Y-75819000D01*
X103078837Y-75819000D01*
X103204943Y-75766894D01*
X103665278Y-75307363D01*
X103914716Y-74706648D01*
X103915284Y-74056205D01*
X103666894Y-73455057D01*
X103259645Y-73047095D01*
X103326371Y-72980485D01*
X103514785Y-72526734D01*
X103515214Y-72035421D01*
X103327592Y-71581343D01*
X103026554Y-71279779D01*
X103326371Y-70980485D01*
X103514785Y-70526734D01*
X103515214Y-70035421D01*
X103327592Y-69581343D01*
X103026554Y-69279779D01*
X103326371Y-68980485D01*
X103514785Y-68526734D01*
X103515214Y-68035421D01*
X103327592Y-67581343D01*
X103259150Y-67512781D01*
X103665278Y-67107363D01*
X103914716Y-66506648D01*
X103915284Y-65856205D01*
X103703479Y-65343599D01*
X108264699Y-65343599D01*
X108528281Y-65981515D01*
X109015918Y-66470004D01*
X109653373Y-66734699D01*
X110343599Y-66735301D01*
X110981515Y-66471719D01*
X111470004Y-65984082D01*
X111734699Y-65346627D01*
X111735301Y-64656401D01*
X111471719Y-64018485D01*
X110984082Y-63529996D01*
X110346627Y-63265301D01*
X109656401Y-63264699D01*
X109018485Y-63528281D01*
X108529996Y-64015918D01*
X108265301Y-64653373D01*
X108264699Y-65343599D01*
X103703479Y-65343599D01*
X103666894Y-65255057D01*
X103207363Y-64794722D01*
X102606648Y-64545284D01*
X101956205Y-64544716D01*
X101355057Y-64793106D01*
X100894722Y-65252637D01*
X100710000Y-65697498D01*
X100710000Y-60710000D01*
X138377560Y-60710000D01*
X138377560Y-63024000D01*
X138377560Y-63024000D01*
G37*
X138377560Y-63024000D02*
X138421838Y-63259317D01*
X138560910Y-63475441D01*
X138773110Y-63620431D01*
X139025000Y-63671440D01*
X140525000Y-63671440D01*
X140760317Y-63627162D01*
X140976441Y-63488090D01*
X141121431Y-63275890D01*
X141172440Y-63024000D01*
X141172440Y-60710000D01*
X148802560Y-60710000D01*
X148802560Y-62841600D01*
X148447400Y-62841600D01*
X148204814Y-62889854D01*
X148156560Y-62899452D01*
X147909999Y-63064199D01*
X147587599Y-63386599D01*
X147449620Y-63593100D01*
X147426890Y-63577569D01*
X147175000Y-63526560D01*
X146575000Y-63526560D01*
X146339683Y-63570838D01*
X146250772Y-63628051D01*
X146176890Y-63577569D01*
X145925000Y-63526560D01*
X145325000Y-63526560D01*
X145089683Y-63570838D01*
X145000772Y-63628051D01*
X144926890Y-63577569D01*
X144675000Y-63526560D01*
X144075000Y-63526560D01*
X143839683Y-63570838D01*
X143750772Y-63628051D01*
X143676890Y-63577569D01*
X143425000Y-63526560D01*
X142825000Y-63526560D01*
X142589683Y-63570838D01*
X142373559Y-63709910D01*
X142228569Y-63922110D01*
X142177560Y-64174000D01*
X142177560Y-65874000D01*
X142221838Y-66109317D01*
X142360910Y-66325441D01*
X142365000Y-66328236D01*
X142365000Y-68499800D01*
X142422852Y-68790639D01*
X142587599Y-69037201D01*
X143791400Y-70241002D01*
X143791400Y-70532137D01*
X143759208Y-70564273D01*
X143616562Y-70907801D01*
X143616238Y-71279767D01*
X143758283Y-71623543D01*
X144021073Y-71886792D01*
X144364601Y-72029438D01*
X144736567Y-72029762D01*
X145080343Y-71887717D01*
X145183060Y-71785179D01*
X145183060Y-72223121D01*
X145018120Y-72189720D01*
X144443120Y-72189720D01*
X144207803Y-72233998D01*
X143991679Y-72373070D01*
X143846689Y-72585270D01*
X143795680Y-72837160D01*
X143795680Y-73439400D01*
X143668120Y-73439400D01*
X143432803Y-73483678D01*
X143216679Y-73622750D01*
X143071689Y-73834950D01*
X143020680Y-74086840D01*
X143020680Y-74736840D01*
X143064958Y-74972157D01*
X143195620Y-75175211D01*
X143195620Y-75382419D01*
X143162308Y-75415673D01*
X143019662Y-75759201D01*
X143019556Y-75880500D01*
X140555152Y-75880500D01*
X140578440Y-75765500D01*
X140578440Y-75515500D01*
X140554056Y-75385911D01*
X140578440Y-75265500D01*
X140578440Y-75015500D01*
X140554056Y-74885911D01*
X140578440Y-74765500D01*
X140578440Y-74515500D01*
X140554056Y-74385911D01*
X140560313Y-74355013D01*
X140676000Y-74378440D01*
X141251000Y-74378440D01*
X141486317Y-74334162D01*
X141702441Y-74195090D01*
X141847431Y-73982890D01*
X141898440Y-73731000D01*
X141898440Y-73081000D01*
X141854162Y-72845683D01*
X141848150Y-72836340D01*
X141898440Y-72588000D01*
X141898440Y-71938000D01*
X141854162Y-71702683D01*
X141848150Y-71693340D01*
X141898440Y-71445000D01*
X141898440Y-70795000D01*
X141854162Y-70559683D01*
X141715090Y-70343559D01*
X141502890Y-70198569D01*
X141251000Y-70147560D01*
X140676000Y-70147560D01*
X140440683Y-70191838D01*
X140224559Y-70330910D01*
X140079569Y-70543110D01*
X140028560Y-70795000D01*
X140028560Y-71445000D01*
X140066688Y-71647630D01*
X139949999Y-71725599D01*
X139807538Y-71868060D01*
X138931000Y-71868060D01*
X138864887Y-71880500D01*
X137696900Y-71880500D01*
X137406061Y-71938352D01*
X137159499Y-72103099D01*
X136927399Y-72335199D01*
X136762652Y-72581761D01*
X136739769Y-72696800D01*
X135714175Y-72696800D01*
X136012543Y-72573517D01*
X136275792Y-72310727D01*
X136418438Y-71967199D01*
X136418551Y-71837940D01*
X136606000Y-71837940D01*
X136735589Y-71813556D01*
X136856000Y-71837940D01*
X137106000Y-71837940D01*
X137235589Y-71813556D01*
X137356000Y-71837940D01*
X137606000Y-71837940D01*
X137841317Y-71793662D01*
X138057441Y-71654590D01*
X138202431Y-71442390D01*
X138253440Y-71190500D01*
X138253440Y-70190500D01*
X138209162Y-69955183D01*
X138070090Y-69739059D01*
X137857890Y-69594069D01*
X137606000Y-69543060D01*
X137356000Y-69543060D01*
X137241000Y-69564699D01*
X137241000Y-68780071D01*
X137266388Y-68754727D01*
X137409034Y-68411199D01*
X137409358Y-68039233D01*
X137267313Y-67695457D01*
X137004523Y-67432208D01*
X136660995Y-67289562D01*
X136289029Y-67289238D01*
X135945253Y-67431283D01*
X135821620Y-67554700D01*
X135821862Y-67277233D01*
X135679817Y-66933457D01*
X135646700Y-66900282D01*
X135646700Y-66382900D01*
X135615610Y-66226600D01*
X135588848Y-66092060D01*
X135424101Y-65845499D01*
X134573201Y-64994599D01*
X134326639Y-64829852D01*
X134035800Y-64772000D01*
X133433059Y-64772000D01*
X133231765Y-64570355D01*
X132814756Y-64397197D01*
X132363225Y-64396803D01*
X131945914Y-64569233D01*
X131742793Y-64772000D01*
X130952240Y-64772000D01*
X130661401Y-64829852D01*
X130414839Y-64994599D01*
X129225198Y-66184240D01*
X125159623Y-66184240D01*
X125127487Y-66152048D01*
X124783959Y-66009402D01*
X124737083Y-66009361D01*
X124557940Y-65830218D01*
X124557940Y-65802376D01*
X124593761Y-65749950D01*
X124644770Y-65498060D01*
X124644770Y-64151860D01*
X124600492Y-63916543D01*
X124461420Y-63700419D01*
X124249220Y-63555429D01*
X123997330Y-63504420D01*
X123598550Y-63504420D01*
X123468204Y-63528946D01*
X123347090Y-63504420D01*
X122948310Y-63504420D01*
X122819281Y-63528699D01*
X122699390Y-63504420D01*
X122300610Y-63504420D01*
X122171581Y-63528699D01*
X122051690Y-63504420D01*
X121652910Y-63504420D01*
X121417593Y-63548698D01*
X121201469Y-63687770D01*
X121056479Y-63899970D01*
X121005470Y-64151860D01*
X121005470Y-65498060D01*
X121040909Y-65686400D01*
X120630763Y-65686400D01*
X120339924Y-65744252D01*
X120093362Y-65908999D01*
X119713462Y-66288899D01*
X119667975Y-66288859D01*
X119324199Y-66430904D01*
X119060950Y-66693694D01*
X118918304Y-67037222D01*
X118918228Y-67124075D01*
X118841438Y-67108800D01*
X114528600Y-67108800D01*
X114237760Y-67166652D01*
X113991199Y-67331399D01*
X113205599Y-68116999D01*
X113183415Y-68150200D01*
X108991400Y-68150200D01*
X108700561Y-68208052D01*
X108453999Y-68372799D01*
X107914099Y-68912699D01*
X107749352Y-69159261D01*
X107691500Y-69450100D01*
X107691500Y-69598000D01*
X107670600Y-69598000D01*
X107379761Y-69655852D01*
X107133199Y-69820599D01*
X106457599Y-70496199D01*
X106292852Y-70742761D01*
X106235000Y-71033600D01*
X106235000Y-72078373D01*
X106058559Y-72191910D01*
X105913569Y-72404110D01*
X105862560Y-72656000D01*
X105862560Y-74156000D01*
X105906838Y-74391317D01*
X106045910Y-74607441D01*
X106258110Y-74752431D01*
X106510000Y-74803440D01*
X107480000Y-74803440D01*
X107715317Y-74759162D01*
X107931441Y-74620090D01*
X108076431Y-74407890D01*
X108127440Y-74156000D01*
X108127440Y-72656000D01*
X108083162Y-72420683D01*
X107944090Y-72204559D01*
X107755000Y-72075359D01*
X107755000Y-71348402D01*
X107859748Y-71243654D01*
X107912110Y-71279431D01*
X108164000Y-71330440D01*
X108291560Y-71330440D01*
X108291560Y-71953000D01*
X108335838Y-72188317D01*
X108474910Y-72404441D01*
X108687110Y-72549431D01*
X108939000Y-72600440D01*
X109514000Y-72600440D01*
X109749317Y-72556162D01*
X109752058Y-72554398D01*
X109764838Y-72622317D01*
X109903910Y-72838441D01*
X110033000Y-72926644D01*
X110033000Y-73251800D01*
X110090852Y-73542639D01*
X110255599Y-73789201D01*
X110485999Y-74019601D01*
X110732561Y-74184348D01*
X111023400Y-74242200D01*
X111558800Y-74242200D01*
X111558800Y-74777600D01*
X111616652Y-75068439D01*
X111781399Y-75315001D01*
X112060799Y-75594401D01*
X112307360Y-75759148D01*
X112321493Y-75761959D01*
X112332226Y-75819000D01*
X103078837Y-75819000D01*
X103204943Y-75766894D01*
X103665278Y-75307363D01*
X103914716Y-74706648D01*
X103915284Y-74056205D01*
X103666894Y-73455057D01*
X103259645Y-73047095D01*
X103326371Y-72980485D01*
X103514785Y-72526734D01*
X103515214Y-72035421D01*
X103327592Y-71581343D01*
X103026554Y-71279779D01*
X103326371Y-70980485D01*
X103514785Y-70526734D01*
X103515214Y-70035421D01*
X103327592Y-69581343D01*
X103026554Y-69279779D01*
X103326371Y-68980485D01*
X103514785Y-68526734D01*
X103515214Y-68035421D01*
X103327592Y-67581343D01*
X103259150Y-67512781D01*
X103665278Y-67107363D01*
X103914716Y-66506648D01*
X103915284Y-65856205D01*
X103703479Y-65343599D01*
X108264699Y-65343599D01*
X108528281Y-65981515D01*
X109015918Y-66470004D01*
X109653373Y-66734699D01*
X110343599Y-66735301D01*
X110981515Y-66471719D01*
X111470004Y-65984082D01*
X111734699Y-65346627D01*
X111735301Y-64656401D01*
X111471719Y-64018485D01*
X110984082Y-63529996D01*
X110346627Y-63265301D01*
X109656401Y-63264699D01*
X109018485Y-63528281D01*
X108529996Y-64015918D01*
X108265301Y-64653373D01*
X108264699Y-65343599D01*
X103703479Y-65343599D01*
X103666894Y-65255057D01*
X103207363Y-64794722D01*
X102606648Y-64545284D01*
X101956205Y-64544716D01*
X101355057Y-64793106D01*
X100894722Y-65252637D01*
X100710000Y-65697498D01*
X100710000Y-60710000D01*
X138377560Y-60710000D01*
X138377560Y-63024000D01*
G36*
X151926199Y-71746401D02*
X152172761Y-71911148D01*
X152463600Y-71969000D01*
X153915525Y-71969000D01*
X153973897Y-72008884D01*
X153879059Y-72069910D01*
X153734069Y-72282110D01*
X153683060Y-72534000D01*
X153683060Y-73084000D01*
X153727338Y-73319317D01*
X153866410Y-73535441D01*
X153973897Y-73608884D01*
X153879059Y-73669910D01*
X153798879Y-73787257D01*
X153743127Y-73731408D01*
X153399599Y-73588762D01*
X153027633Y-73588438D01*
X152683857Y-73730483D01*
X152420608Y-73993273D01*
X152277962Y-74336801D01*
X152277638Y-74708767D01*
X152419683Y-75052543D01*
X152582705Y-75215849D01*
X152475911Y-75235944D01*
X152355500Y-75211560D01*
X152217355Y-75211560D01*
X152217562Y-74973433D01*
X152075517Y-74629657D01*
X151812727Y-74366408D01*
X151469199Y-74223762D01*
X151357341Y-74223665D01*
X151262717Y-73994657D01*
X150999927Y-73731408D01*
X150656399Y-73588762D01*
X150284433Y-73588438D01*
X149940657Y-73730483D01*
X149677408Y-73993273D01*
X149571261Y-74248903D01*
X149497033Y-74248838D01*
X149153257Y-74390883D01*
X148890008Y-74653673D01*
X148747362Y-74997201D01*
X148747175Y-75211560D01*
X148605500Y-75211560D01*
X148475911Y-75235944D01*
X148355500Y-75211560D01*
X148077940Y-75211560D01*
X148077940Y-74934000D01*
X148053556Y-74804411D01*
X148077940Y-74684000D01*
X148077940Y-74134000D01*
X148053556Y-74004411D01*
X148077940Y-73884000D01*
X148077940Y-73334000D01*
X148033662Y-73098683D01*
X147894590Y-72882559D01*
X147787103Y-72809116D01*
X147881941Y-72748090D01*
X148026931Y-72535890D01*
X148077940Y-72284000D01*
X148077940Y-71734000D01*
X148053556Y-71604411D01*
X148077940Y-71484000D01*
X148077940Y-71169000D01*
X151348798Y-71169000D01*
X151926199Y-71746401D01*
X151926199Y-71746401D01*
G37*
X151926199Y-71746401D02*
X152172761Y-71911148D01*
X152463600Y-71969000D01*
X153915525Y-71969000D01*
X153973897Y-72008884D01*
X153879059Y-72069910D01*
X153734069Y-72282110D01*
X153683060Y-72534000D01*
X153683060Y-73084000D01*
X153727338Y-73319317D01*
X153866410Y-73535441D01*
X153973897Y-73608884D01*
X153879059Y-73669910D01*
X153798879Y-73787257D01*
X153743127Y-73731408D01*
X153399599Y-73588762D01*
X153027633Y-73588438D01*
X152683857Y-73730483D01*
X152420608Y-73993273D01*
X152277962Y-74336801D01*
X152277638Y-74708767D01*
X152419683Y-75052543D01*
X152582705Y-75215849D01*
X152475911Y-75235944D01*
X152355500Y-75211560D01*
X152217355Y-75211560D01*
X152217562Y-74973433D01*
X152075517Y-74629657D01*
X151812727Y-74366408D01*
X151469199Y-74223762D01*
X151357341Y-74223665D01*
X151262717Y-73994657D01*
X150999927Y-73731408D01*
X150656399Y-73588762D01*
X150284433Y-73588438D01*
X149940657Y-73730483D01*
X149677408Y-73993273D01*
X149571261Y-74248903D01*
X149497033Y-74248838D01*
X149153257Y-74390883D01*
X148890008Y-74653673D01*
X148747362Y-74997201D01*
X148747175Y-75211560D01*
X148605500Y-75211560D01*
X148475911Y-75235944D01*
X148355500Y-75211560D01*
X148077940Y-75211560D01*
X148077940Y-74934000D01*
X148053556Y-74804411D01*
X148077940Y-74684000D01*
X148077940Y-74134000D01*
X148053556Y-74004411D01*
X148077940Y-73884000D01*
X148077940Y-73334000D01*
X148033662Y-73098683D01*
X147894590Y-72882559D01*
X147787103Y-72809116D01*
X147881941Y-72748090D01*
X148026931Y-72535890D01*
X148077940Y-72284000D01*
X148077940Y-71734000D01*
X148053556Y-71604411D01*
X148077940Y-71484000D01*
X148077940Y-71169000D01*
X151348798Y-71169000D01*
X151926199Y-71746401D01*
G36*
X118620000Y-68722164D02*
X118620000Y-70434200D01*
X118677852Y-70725039D01*
X118842599Y-70971601D01*
X119868759Y-71997761D01*
X120115320Y-72162508D01*
X120406160Y-72220360D01*
X122353217Y-72220360D01*
X122385353Y-72252552D01*
X122728881Y-72395198D01*
X123037931Y-72395467D01*
X122893599Y-72539799D01*
X122774063Y-72718698D01*
X122745683Y-72724038D01*
X122529559Y-72863110D01*
X122391545Y-73065100D01*
X122135900Y-73065100D01*
X121845061Y-73122952D01*
X121598499Y-73287699D01*
X121433399Y-73452799D01*
X121420462Y-73472160D01*
X121410483Y-73474038D01*
X121194359Y-73613110D01*
X121049369Y-73825310D01*
X120998360Y-74077200D01*
X120998360Y-74291817D01*
X120765000Y-74244560D01*
X119265000Y-74244560D01*
X119029683Y-74288838D01*
X118870733Y-74391120D01*
X118730890Y-74295569D01*
X118479000Y-74244560D01*
X116979000Y-74244560D01*
X116743683Y-74288838D01*
X116527559Y-74427910D01*
X116398359Y-74617000D01*
X116204802Y-74617000D01*
X116107401Y-74519599D01*
X115860839Y-74354852D01*
X115570000Y-74297000D01*
X114964150Y-74297000D01*
X114931162Y-74121683D01*
X114792090Y-73905559D01*
X114579890Y-73760569D01*
X114496117Y-73743604D01*
X114503000Y-73709000D01*
X114503000Y-72926018D01*
X114619441Y-72851090D01*
X114764431Y-72638890D01*
X114791139Y-72507000D01*
X115310589Y-72507000D01*
X115422710Y-72681241D01*
X115634910Y-72826231D01*
X115886800Y-72877240D01*
X117386800Y-72877240D01*
X117622117Y-72832962D01*
X117838241Y-72693890D01*
X117983231Y-72481690D01*
X118034240Y-72229800D01*
X118034240Y-71259800D01*
X117989962Y-71024483D01*
X117850890Y-70808359D01*
X117826312Y-70791566D01*
X117838241Y-70783890D01*
X117983231Y-70571690D01*
X118034240Y-70319800D01*
X118034240Y-69349800D01*
X117989962Y-69114483D01*
X117850890Y-68898359D01*
X117638690Y-68753369D01*
X117386800Y-68702360D01*
X115886800Y-68702360D01*
X115651483Y-68746638D01*
X115435359Y-68885710D01*
X115294230Y-69092259D01*
X115091161Y-69132652D01*
X114844599Y-69297399D01*
X114545561Y-69596437D01*
X114503000Y-69567356D01*
X114503000Y-68969202D01*
X114843402Y-68628800D01*
X118526636Y-68628800D01*
X118620000Y-68722164D01*
X118620000Y-68722164D01*
G37*
X118620000Y-68722164D02*
X118620000Y-70434200D01*
X118677852Y-70725039D01*
X118842599Y-70971601D01*
X119868759Y-71997761D01*
X120115320Y-72162508D01*
X120406160Y-72220360D01*
X122353217Y-72220360D01*
X122385353Y-72252552D01*
X122728881Y-72395198D01*
X123037931Y-72395467D01*
X122893599Y-72539799D01*
X122774063Y-72718698D01*
X122745683Y-72724038D01*
X122529559Y-72863110D01*
X122391545Y-73065100D01*
X122135900Y-73065100D01*
X121845061Y-73122952D01*
X121598499Y-73287699D01*
X121433399Y-73452799D01*
X121420462Y-73472160D01*
X121410483Y-73474038D01*
X121194359Y-73613110D01*
X121049369Y-73825310D01*
X120998360Y-74077200D01*
X120998360Y-74291817D01*
X120765000Y-74244560D01*
X119265000Y-74244560D01*
X119029683Y-74288838D01*
X118870733Y-74391120D01*
X118730890Y-74295569D01*
X118479000Y-74244560D01*
X116979000Y-74244560D01*
X116743683Y-74288838D01*
X116527559Y-74427910D01*
X116398359Y-74617000D01*
X116204802Y-74617000D01*
X116107401Y-74519599D01*
X115860839Y-74354852D01*
X115570000Y-74297000D01*
X114964150Y-74297000D01*
X114931162Y-74121683D01*
X114792090Y-73905559D01*
X114579890Y-73760569D01*
X114496117Y-73743604D01*
X114503000Y-73709000D01*
X114503000Y-72926018D01*
X114619441Y-72851090D01*
X114764431Y-72638890D01*
X114791139Y-72507000D01*
X115310589Y-72507000D01*
X115422710Y-72681241D01*
X115634910Y-72826231D01*
X115886800Y-72877240D01*
X117386800Y-72877240D01*
X117622117Y-72832962D01*
X117838241Y-72693890D01*
X117983231Y-72481690D01*
X118034240Y-72229800D01*
X118034240Y-71259800D01*
X117989962Y-71024483D01*
X117850890Y-70808359D01*
X117826312Y-70791566D01*
X117838241Y-70783890D01*
X117983231Y-70571690D01*
X118034240Y-70319800D01*
X118034240Y-69349800D01*
X117989962Y-69114483D01*
X117850890Y-68898359D01*
X117638690Y-68753369D01*
X117386800Y-68702360D01*
X115886800Y-68702360D01*
X115651483Y-68746638D01*
X115435359Y-68885710D01*
X115294230Y-69092259D01*
X115091161Y-69132652D01*
X114844599Y-69297399D01*
X114545561Y-69596437D01*
X114503000Y-69567356D01*
X114503000Y-68969202D01*
X114843402Y-68628800D01*
X118526636Y-68628800D01*
X118620000Y-68722164D01*
G36*
X126316200Y-74204760D02*
X126040000Y-74204760D01*
X125804683Y-74249038D01*
X125588559Y-74388110D01*
X125484387Y-74540571D01*
X125431000Y-74529760D01*
X124531000Y-74529760D01*
X124485694Y-74538285D01*
X124528440Y-74327200D01*
X124528440Y-73556400D01*
X126316200Y-73556400D01*
X126316200Y-74204760D01*
X126316200Y-74204760D01*
G37*
X126316200Y-74204760D02*
X126040000Y-74204760D01*
X125804683Y-74249038D01*
X125588559Y-74388110D01*
X125484387Y-74540571D01*
X125431000Y-74529760D01*
X124531000Y-74529760D01*
X124485694Y-74538285D01*
X124528440Y-74327200D01*
X124528440Y-73556400D01*
X126316200Y-73556400D01*
X126316200Y-74204760D01*
G36*
X159061965Y-71303734D02*
X159266055Y-71443183D01*
X159266055Y-71608655D01*
X159323907Y-71899494D01*
X159488654Y-72146056D01*
X159666292Y-72323694D01*
X159668910Y-72325443D01*
X159672893Y-72346610D01*
X159811965Y-72562734D01*
X159822306Y-72569800D01*
X159255302Y-72569800D01*
X158959741Y-72274239D01*
X158713179Y-72109492D01*
X158637040Y-72094347D01*
X158637040Y-71684000D01*
X158592762Y-71448683D01*
X158453690Y-71232559D01*
X158360668Y-71169000D01*
X158975266Y-71169000D01*
X159061965Y-71303734D01*
X159061965Y-71303734D01*
G37*
X159061965Y-71303734D02*
X159266055Y-71443183D01*
X159266055Y-71608655D01*
X159323907Y-71899494D01*
X159488654Y-72146056D01*
X159666292Y-72323694D01*
X159668910Y-72325443D01*
X159672893Y-72346610D01*
X159811965Y-72562734D01*
X159822306Y-72569800D01*
X159255302Y-72569800D01*
X158959741Y-72274239D01*
X158713179Y-72109492D01*
X158637040Y-72094347D01*
X158637040Y-71684000D01*
X158592762Y-71448683D01*
X158453690Y-71232559D01*
X158360668Y-71169000D01*
X158975266Y-71169000D01*
X159061965Y-71303734D01*
G36*
X125563560Y-71826000D02*
X125603150Y-72036400D01*
X123711800Y-72036400D01*
X123649706Y-72048751D01*
X123707872Y-71990687D01*
X123850518Y-71647159D01*
X123850758Y-71372000D01*
X125563560Y-71372000D01*
X125563560Y-71826000D01*
X125563560Y-71826000D01*
G37*
X125563560Y-71826000D02*
X125603150Y-72036400D01*
X123711800Y-72036400D01*
X123649706Y-72048751D01*
X123707872Y-71990687D01*
X123850518Y-71647159D01*
X123850758Y-71372000D01*
X125563560Y-71372000D01*
X125563560Y-71826000D01*
G36*
X131944235Y-66493645D02*
X132361244Y-66666803D01*
X132812775Y-66667197D01*
X133230086Y-66494767D01*
X133433207Y-66292000D01*
X133720998Y-66292000D01*
X134126700Y-66697702D01*
X134126700Y-66899937D01*
X134094508Y-66932073D01*
X133951862Y-67275601D01*
X133951538Y-67647567D01*
X134093583Y-67991343D01*
X134356373Y-68254592D01*
X134699901Y-68397238D01*
X134927858Y-68397437D01*
X134920008Y-68405273D01*
X134803336Y-68686249D01*
X134790433Y-68686238D01*
X134446657Y-68828283D01*
X134183408Y-69091073D01*
X134040762Y-69434601D01*
X134040668Y-69543060D01*
X133856000Y-69543060D01*
X133726411Y-69567444D01*
X133606000Y-69543060D01*
X133356000Y-69543060D01*
X133226411Y-69567444D01*
X133106000Y-69543060D01*
X132856000Y-69543060D01*
X132726411Y-69567444D01*
X132606000Y-69543060D01*
X132356000Y-69543060D01*
X132226411Y-69567444D01*
X132106000Y-69543060D01*
X131856000Y-69543060D01*
X131726411Y-69567444D01*
X131606000Y-69543060D01*
X131356000Y-69543060D01*
X131226411Y-69567444D01*
X131106000Y-69543060D01*
X130937343Y-69543060D01*
X130944240Y-69509000D01*
X130944240Y-68934000D01*
X130899962Y-68698683D01*
X130760890Y-68482559D01*
X130548690Y-68337569D01*
X130296800Y-68286560D01*
X129646800Y-68286560D01*
X129411483Y-68330838D01*
X129311860Y-68394943D01*
X129227890Y-68337569D01*
X128976000Y-68286560D01*
X128326000Y-68286560D01*
X128090683Y-68330838D01*
X128023128Y-68374309D01*
X127796399Y-68280162D01*
X127424433Y-68279838D01*
X127080657Y-68421883D01*
X126817408Y-68684673D01*
X126674762Y-69028201D01*
X126674531Y-69293200D01*
X123497534Y-69293200D01*
X123710317Y-69253162D01*
X123926441Y-69114090D01*
X124071431Y-68901890D01*
X124122440Y-68650000D01*
X124122440Y-68350000D01*
X124078162Y-68114683D01*
X124004380Y-68000022D01*
X124071431Y-67901890D01*
X124101982Y-67751027D01*
X124410361Y-67879078D01*
X124782327Y-67879402D01*
X125126103Y-67737357D01*
X125159278Y-67704240D01*
X129540000Y-67704240D01*
X129830839Y-67646388D01*
X130077401Y-67481641D01*
X131267042Y-66292000D01*
X131742941Y-66292000D01*
X131944235Y-66493645D01*
X131944235Y-66493645D01*
G37*
X131944235Y-66493645D02*
X132361244Y-66666803D01*
X132812775Y-66667197D01*
X133230086Y-66494767D01*
X133433207Y-66292000D01*
X133720998Y-66292000D01*
X134126700Y-66697702D01*
X134126700Y-66899937D01*
X134094508Y-66932073D01*
X133951862Y-67275601D01*
X133951538Y-67647567D01*
X134093583Y-67991343D01*
X134356373Y-68254592D01*
X134699901Y-68397238D01*
X134927858Y-68397437D01*
X134920008Y-68405273D01*
X134803336Y-68686249D01*
X134790433Y-68686238D01*
X134446657Y-68828283D01*
X134183408Y-69091073D01*
X134040762Y-69434601D01*
X134040668Y-69543060D01*
X133856000Y-69543060D01*
X133726411Y-69567444D01*
X133606000Y-69543060D01*
X133356000Y-69543060D01*
X133226411Y-69567444D01*
X133106000Y-69543060D01*
X132856000Y-69543060D01*
X132726411Y-69567444D01*
X132606000Y-69543060D01*
X132356000Y-69543060D01*
X132226411Y-69567444D01*
X132106000Y-69543060D01*
X131856000Y-69543060D01*
X131726411Y-69567444D01*
X131606000Y-69543060D01*
X131356000Y-69543060D01*
X131226411Y-69567444D01*
X131106000Y-69543060D01*
X130937343Y-69543060D01*
X130944240Y-69509000D01*
X130944240Y-68934000D01*
X130899962Y-68698683D01*
X130760890Y-68482559D01*
X130548690Y-68337569D01*
X130296800Y-68286560D01*
X129646800Y-68286560D01*
X129411483Y-68330838D01*
X129311860Y-68394943D01*
X129227890Y-68337569D01*
X128976000Y-68286560D01*
X128326000Y-68286560D01*
X128090683Y-68330838D01*
X128023128Y-68374309D01*
X127796399Y-68280162D01*
X127424433Y-68279838D01*
X127080657Y-68421883D01*
X126817408Y-68684673D01*
X126674762Y-69028201D01*
X126674531Y-69293200D01*
X123497534Y-69293200D01*
X123710317Y-69253162D01*
X123926441Y-69114090D01*
X124071431Y-68901890D01*
X124122440Y-68650000D01*
X124122440Y-68350000D01*
X124078162Y-68114683D01*
X124004380Y-68000022D01*
X124071431Y-67901890D01*
X124101982Y-67751027D01*
X124410361Y-67879078D01*
X124782327Y-67879402D01*
X125126103Y-67737357D01*
X125159278Y-67704240D01*
X129540000Y-67704240D01*
X129830839Y-67646388D01*
X130077401Y-67481641D01*
X131267042Y-66292000D01*
X131742941Y-66292000D01*
X131944235Y-66493645D01*
G36*
X160403615Y-67787400D02*
X160447893Y-68022717D01*
X160586965Y-68238841D01*
X160740474Y-68343729D01*
X160728615Y-68402293D01*
X160728615Y-69302293D01*
X160737140Y-69347599D01*
X160526055Y-69304853D01*
X159526055Y-69304853D01*
X159468881Y-69315611D01*
X159477548Y-69302640D01*
X159535400Y-69011800D01*
X159535400Y-67320002D01*
X159623602Y-67231800D01*
X160403615Y-67231800D01*
X160403615Y-67787400D01*
X160403615Y-67787400D01*
G37*
X160403615Y-67787400D02*
X160447893Y-68022717D01*
X160586965Y-68238841D01*
X160740474Y-68343729D01*
X160728615Y-68402293D01*
X160728615Y-69302293D01*
X160737140Y-69347599D01*
X160526055Y-69304853D01*
X159526055Y-69304853D01*
X159468881Y-69315611D01*
X159477548Y-69302640D01*
X159535400Y-69011800D01*
X159535400Y-67320002D01*
X159623602Y-67231800D01*
X160403615Y-67231800D01*
X160403615Y-67787400D01*
G36*
X116261560Y-99610400D02*
X116279000Y-99703085D01*
X116279000Y-99949804D01*
X116153069Y-100134110D01*
X116102060Y-100386000D01*
X116102060Y-101036000D01*
X116146338Y-101271317D01*
X116285410Y-101487441D01*
X116393325Y-101561176D01*
X116375560Y-101648900D01*
X116375560Y-102223900D01*
X116395067Y-102327571D01*
X116375560Y-102423900D01*
X116375560Y-102998900D01*
X116419838Y-103234217D01*
X116512360Y-103378000D01*
X110618036Y-103378000D01*
X110346627Y-103265301D01*
X109656401Y-103264699D01*
X109382192Y-103378000D01*
X101623400Y-103378000D01*
X101623400Y-99568000D01*
X108712000Y-99568000D01*
X108712000Y-101219000D01*
X108722006Y-101268410D01*
X108750447Y-101310035D01*
X108792841Y-101337315D01*
X108839000Y-101346000D01*
X109929863Y-101346000D01*
X110045662Y-101423375D01*
X110441740Y-101502160D01*
X110792029Y-101502160D01*
X110792034Y-101502161D01*
X110792039Y-101502160D01*
X111645626Y-101502160D01*
X111658400Y-101504701D01*
X111658405Y-101504700D01*
X112849655Y-101504700D01*
X112849660Y-101504701D01*
X113245737Y-101425915D01*
X113365339Y-101346000D01*
X114871500Y-101346000D01*
X114920910Y-101335994D01*
X114962535Y-101307553D01*
X114989815Y-101265159D01*
X114998500Y-101219000D01*
X114998500Y-100064612D01*
X115892711Y-99170400D01*
X116039000Y-99170400D01*
X116102143Y-99157840D01*
X116261560Y-99157840D01*
X116261560Y-99610400D01*
X116261560Y-99610400D01*
G37*
X116261560Y-99610400D02*
X116279000Y-99703085D01*
X116279000Y-99949804D01*
X116153069Y-100134110D01*
X116102060Y-100386000D01*
X116102060Y-101036000D01*
X116146338Y-101271317D01*
X116285410Y-101487441D01*
X116393325Y-101561176D01*
X116375560Y-101648900D01*
X116375560Y-102223900D01*
X116395067Y-102327571D01*
X116375560Y-102423900D01*
X116375560Y-102998900D01*
X116419838Y-103234217D01*
X116512360Y-103378000D01*
X110618036Y-103378000D01*
X110346627Y-103265301D01*
X109656401Y-103264699D01*
X109382192Y-103378000D01*
X101623400Y-103378000D01*
X101623400Y-99568000D01*
X108712000Y-99568000D01*
X108712000Y-101219000D01*
X108722006Y-101268410D01*
X108750447Y-101310035D01*
X108792841Y-101337315D01*
X108839000Y-101346000D01*
X109929863Y-101346000D01*
X110045662Y-101423375D01*
X110441740Y-101502160D01*
X110792029Y-101502160D01*
X110792034Y-101502161D01*
X110792039Y-101502160D01*
X111645626Y-101502160D01*
X111658400Y-101504701D01*
X111658405Y-101504700D01*
X112849655Y-101504700D01*
X112849660Y-101504701D01*
X113245737Y-101425915D01*
X113365339Y-101346000D01*
X114871500Y-101346000D01*
X114920910Y-101335994D01*
X114962535Y-101307553D01*
X114989815Y-101265159D01*
X114998500Y-101219000D01*
X114998500Y-100064612D01*
X115892711Y-99170400D01*
X116039000Y-99170400D01*
X116102143Y-99157840D01*
X116261560Y-99157840D01*
X116261560Y-99610400D01*
M02*
